999
dxfrw 0.6.3
  0
SECTION
  2
HEADER
  9
$ACADVER
  1
AC1021
  9
$DWGCODEPAGE
  3
ANSI_1252
  9
$INSBASE
 10
0
 20
0
 30
0
  9
$EXTMIN
 10
45.5
 20
-38.80831174438391
 30
0
  9
$EXTMAX
 10
489.5444077819965
 20
730.0757959577809
 30
0
  9
$LIMMIN
 10
0
 20
0
  9
$LIMMAX
 10
420
 20
297
  9
$ORTHOMODE
 70
    0
  9
$REGENMODE
 70
    1
  9
$FILLMODE
 70
    1
  9
$QTEXTMODE
 70
    0
  9
$MIRRTEXT
 70
    0
  9
$LTSCALE
 40
1
  9
$ATTMODE
 70
    0
  9
$TEXTSIZE
 40
2.5
  9
$TRACEWID
 40
15.68
  9
$TEXTSTYLE
  7
STANDARD
  9
$CLAYER
  8
measures
  9
$CELTYPE
  6
BYLAYER
  9
$CECOLOR
 62
  256
  9
$CELTSCALE
 40
1
  9
$DISPSILH
 70
    0
  9
$DIMSCALE
 40
1
  9
$DIMASZ
 40
2.5
  9
$DIMEXO
 40
0.625
  9
$DIMDLI
 40
3.75
  9
$DIMRND
 40
0
  9
$DIMDLE
 40
0
  9
$DIMEXE
 40
1.25
  9
$DIMTP
 40
0
  9
$DIMTM
 40
0
  9
$DIMTXT
 40
2.5
  9
$DIMCEN
 40
2.5
  9
$DIMTSZ
 40
0
  9
$DIMTOL
 70
    0
  9
$DIMLIM
 70
    0
  9
$DIMTIH
 70
    0
  9
$DIMTOH
 70
    0
  9
$DIMSE1
 70
    0
  9
$DIMSE2
 70
    0
  9
$DIMTAD
 70
    1
  9
$DIMZIN
 70
    8
  9
$DIMBLK
  1

  9
$DIMASO
 70
    1
  9
$DIMSHO
 70
    1
  9
$DIMPOST
  1

  9
$DIMAPOST
  1

  9
$DIMALT
 70
    0
  9
$DIMALTD
 70
    3
  9
$DIMALTF
 40
0.03937
  9
$DIMLFAC
 40
1
  9
$DIMTOFL
 70
    1
  9
$DIMTVP
 40
0
  9
$DIMTIX
 70
    0
  9
$DIMSOXD
 70
    0
  9
$DIMSAH
 70
    0
  9
$DIMBLK1
  1

  9
$DIMBLK2
  1

  9
$DIMSTYLE
  2
STANDARD
  9
$DIMCLRD
 70
    0
  9
$DIMCLRE
 70
    0
  9
$DIMCLRT
 70
    0
  9
$DIMTFAC
 40
1
  9
$DIMGAP
 40
0.625
  9
$DIMJUST
 70
    0
  9
$DIMSD1
 70
    0
  9
$DIMSD2
 70
    0
  9
$DIMTOLJ
 70
    0
  9
$DIMTZIN
 70
    8
  9
$DIMALTZ
 70
    0
  9
$DIMALTTZ
 70
    0
  9
$DIMUPT
 70
    0
  9
$DIMDEC
 70
    2
  9
$DIMTDEC
 70
    2
  9
$DIMALTU
 70
    2
  9
$DIMALTTD
 70
    3
  9
$DIMTXSTY
  7
STANDARD
  9
$DIMAUNIT
 70
    0
  9
$DIMADEC
 70
    0
  9
$DIMALTRND
 40
0
  9
$DIMAZIN
 70
    0
  9
$DIMDSEP
 70
   44
  9
$DIMATFIT
 70
    3
  9
$DIMFRAC
 70
    0
  9
$DIMLDRBLK
  1
STANDARD
  9
$DIMLUNIT
 70
    2
  9
$DIMLWD
 70
   -2
  9
$DIMLWE
 70
   -2
  9
$DIMTMOVE
 70
    0
  9
$DIMFXL
 40
1
  9
$DIMFXLON
 70
    0
  9
$DIMJOGANG
 40
0.7854
  9
$DIMTFILL
 70
    0
  9
$DIMTFILLCLR
 70
    0
  9
$DIMARCSYM
 70
    0
  9
$DIMLTYPE
  6

  9
$DIMLTEX1
  6

  9
$DIMLTEX2
  6

  9
$LUNITS
 70
    2
  9
$LUPREC
 70
    4
  9
$SKETCHINC
 40
1
  9
$FILLETRAD
 40
0
  9
$AUNITS
 70
    0
  9
$AUPREC
 70
    2
  9
$MENU
  1
.
  9
$ELEVATION
 40
0
  9
$PELEVATION
 40
0
  9
$THICKNESS
 40
0
  9
$LIMCHECK
 70
    0
  9
$CHAMFERA
 40
0
  9
$CHAMFERB
 40
0
  9
$CHAMFERC
 40
0
  9
$CHAMFERD
 40
0
  9
$SKPOLY
 70
    0
  9
$USRTIMER
 70
    1
  9
$ANGBASE
 50
0
  9
$ANGDIR
 70
    0
  9
$PDMODE
 70
   34
  9
$PDSIZE
 40
0
  9
$PLINEWID
 40
0
  9
$SPLFRAME
 70
    0
  9
$SPLINETYPE
 70
    2
  9
$SPLINESEGS
 70
    8
  9
$HANDSEED
  5
20000
  9
$SURFTAB1
 70
    6
  9
$SURFTAB2
 70
    6
  9
$SURFTYPE
 70
    6
  9
$SURFU
 70
    6
  9
$SURFV
 70
    6
  9
$UCSBASE
  2

  9
$UCSNAME
  2

  9
$UCSORG
 10
0
 20
0
 30
0
  9
$UCSXDIR
 10
1
 20
0
 30
0
  9
$UCSYDIR
 10
0
 20
1
 30
0
  9
$UCSORTHOREF
  2

  9
$UCSORTHOVIEW
 70
    0
  9
$UCSORGTOP
 10
0
 20
0
 30
0
  9
$UCSORGBOTTOM
 10
0
 20
0
 30
0
  9
$UCSORGLEFT
 10
0
 20
0
 30
0
  9
$UCSORGRIGHT
 10
0
 20
0
 30
0
  9
$UCSORGFRONT
 10
0
 20
0
 30
0
  9
$UCSORGBACK
 10
0
 20
0
 30
0
  9
$PUCSBASE
  2

  9
$PUCSNAME
  2

  9
$PUCSORG
 10
0
 20
0
 30
0
  9
$PUCSXDIR
 10
1
 20
0
 30
0
  9
$PUCSYDIR
 10
0
 20
1
 30
0
  9
$PUCSORTHOREF
  2

  9
$PUCSORTHOVIEW
 70
    0
  9
$PUCSORGTOP
 10
0
 20
0
 30
0
  9
$PUCSORGBOTTOM
 10
0
 20
0
 30
0
  9
$PUCSORGLEFT
 10
0
 20
0
 30
0
  9
$PUCSORGRIGHT
 10
0
 20
0
 30
0
  9
$PUCSORGFRONT
 10
0
 20
0
 30
0
  9
$PUCSORGBACK
 10
0
 20
0
 30
0
  9
$USERI1
 70
    0
  9
$USERI2
 70
    0
  9
$USERI3
 70
    0
  9
$USERI4
 70
    0
  9
$USERI5
 70
    0
  9
$USERR1
 40
0
  9
$USERR2
 40
0
  9
$USERR3
 40
0
  9
$USERR4
 40
0
  9
$USERR5
 40
0
  9
$WORLDVIEW
 70
    1
  9
$SHADEDGE
 70
    3
  9
$SHADEDIF
 70
   70
  9
$TILEMODE
 70
    1
  9
$MAXACTVP
 70
   64
  9
$PINSBASE
 10
0
 20
0
 30
0
  9
$PLIMCHECK
 70
    0
  9
$PEXTMIN
 10
0
 20
0
 30
0
  9
$PEXTMAX
 10
0
 20
0
 30
0
  9
$GRIDMODE
 70
    1
  9
$SNAPSTYLE
 70
    0
  9
$PLIMMIN
 10
0
 20
0
  9
$PLIMMAX
 10
297
 20
210
  9
$UNITMODE
 70
    0
  9
$VISRETAIN
 70
    1
  9
$PLINEGEN
 70
    0
  9
$PSLTSCALE
 70
    1
  9
$TREEDEPTH
 70
 3020
  9
$CMLSTYLE
  2
Standard
  9
$CMLJUST
 70
    0
  9
$CMLSCALE
 40
20
  9
$PROXYGRAPHICS
 70
    1
  9
$MEASUREMENT
 70
    1
  9
$CELWEIGHT
370
   -1
  9
$ENDCAPS
280
    0
  9
$JOINSTYLE
280
    0
  9
$LWDISPLAY
290
    0
  9
$INSUNITS
 70
    4
  9
$HYPERLINKBASE
  1

  9
$STYLESHEET
  1

  9
$XEDIT
290
    1
  9
$CEPSNTYPE
380
    0
  9
$PSTYLEMODE
290
    1
  9
$EXTNAMES
290
    1
  9
$PSVPSCALE
 40
1
  9
$OLESTARTUP
290
    0
  9
$SORTENTS
280
  127
  9
$INDEXCTL
280
    0
  9
$HIDETEXT
280
    1
  9
$XCLIPFRAME
290
    0
  9
$HALOGAP
280
    0
  9
$OBSCOLOR
 70
  257
  9
$OBSLTYPE
280
    0
  9
$INTERSECTIONDISPLAY
280
    0
  9
$INTERSECTIONCOLOR
 70
  257
  9
$DIMASSOC
280
    1
  9
$PROJECTNAME
  1

  9
$CAMERADISPLAY
290
    0
  9
$LENSLENGTH
 40
50
  9
$CAMERAHEIGHT
 40
0
  9
$STEPSPERSEC
 40
2
  9
$STEPSIZE
 40
50
  9
$3DDWFPREC
 40
2
  9
$PSOLWIDTH
 40
5
  9
$PSOLHEIGHT
 40
80
  9
$LOFTANG1
 40
1.570796326794897
  9
$LOFTANG2
 40
1.570796326794897
  9
$LOFTMAG1
 40
0
  9
$LOFTMAG2
 40
0
  9
$LOFTPARAM
 70
    7
  9
$LOFTNORMALS
280
    1
  9
$LATITUDE
 40
1
  9
$LONGITUDE
 40
1
  9
$NORTHDIRECTION
 40
0
  9
$TIMEZONE
 70
-8000
  9
$LIGHTGLYPHDISPLAY
280
    1
  9
$TILEMODELIGHTSYNCH
280
    1
  9
$SOLIDHIST
280
    1
  9
$SHOWHIST
280
    1
  9
$DWFFRAME
280
    2
  9
$DGNFRAME
280
    0
  9
$REALWORLDSCALE
290
    1
  9
$INTERFERECOLOR
 62
    1
  9
$CSHADOW
280
    0
  9
$SHADOWPLANELOCATION
 40
0
  0
ENDSEC
  0
SECTION
  2
CLASSES
  0
ENDSEC
  0
SECTION
  2
TABLES
  0
TABLE
  2
VPORT
  5
8
330
0
100
AcDbSymbolTable
 70
    1
  0
VPORT
  5
31
330
2
100
AcDbSymbolTableRecord
100
AcDbViewportTableRecord
  2
*ACTIVE
 70
    0
 10
0
 20
0
 11
1
 21
1
 12
494.3449849788361
 22
385.6408521562648
 13
0
 23
0
 14
10
 24
10
 15
10
 25
10
 16
0
 26
0
 36
1
 17
0
 27
0
 37
0
 40
601.200408059527
 41
1.797047970479705
 42
50
 43
0
 44
0
 50
0
 51
0
 71
    0
 72
  100
 73
    1
 74
    3
 75
    0
 76
    1
 77
    0
 78
    0
281
    0
 65
    1
110
0
120
0
130
0
111
1
121
0
131
0
112
0
122
1
132
0
 79
    0
146
0
348
10020
 60
    7
 61
    5
292
1
282
    1
141
0
142
0
 63
  250
421
3358443
  0
ENDTAB
  0
TABLE
  2
LTYPE
  5
5
330
0
100
AcDbSymbolTable
 70
    4
  0
LTYPE
  5
14
330
5
100
AcDbSymbolTableRecord
100
AcDbLinetypeTableRecord
  2
ByBlock
 70
    0
  3

 72
   65
 73
    0
 40
0
  0
LTYPE
  5
15
330
5
100
AcDbSymbolTableRecord
100
AcDbLinetypeTableRecord
  2
ByLayer
 70
    0
  3

 72
   65
 73
    0
 40
0
  0
LTYPE
  5
16
330
5
100
AcDbSymbolTableRecord
100
AcDbLinetypeTableRecord
  2
Continuous
 70
    0
  3
Solid line
 72
   65
 73
    0
 40
0
  0
LTYPE
  5
32
330
5
100
AcDbSymbolTableRecord
100
AcDbLinetypeTableRecord
  2
DOT
 70
    0
  3
Dot . . . . . . . . . . . . . . . . . . . . . .
 72
   65
 73
    2
 40
6.35
 49
0
 74
    0
 49
-6.35
 74
    0
  0
LTYPE
  5
33
330
5
100
AcDbSymbolTableRecord
100
AcDbLinetypeTableRecord
  2
DOTTINY
 70
    0
  3
Dot (.15x) .....................................
 72
   65
 73
    2
 40
0.9525
 49
0
 74
    0
 49
-0.9525
 74
    0
  0
LTYPE
  5
34
330
5
100
AcDbSymbolTableRecord
100
AcDbLinetypeTableRecord
  2
DOT2
 70
    0
  3
Dot (.5x) .....................................
 72
   65
 73
    2
 40
3.175
 49
0
 74
    0
 49
-3.175
 74
    0
  0
LTYPE
  5
35
330
5
100
AcDbSymbolTableRecord
100
AcDbLinetypeTableRecord
  2
DOTX2
 70
    0
  3
Dot (2x) .  .  .  .  .  .  .  .  .  .  .  .  .
 72
   65
 73
    2
 40
12.7
 49
0
 74
    0
 49
-12.7
 74
    0
  0
LTYPE
  5
36
330
5
100
AcDbSymbolTableRecord
100
AcDbLinetypeTableRecord
  2
DASHED
 70
    0
  3
Dashed _ _ _ _ _ _ _ _ _ _ _ _ _ _ _ _ _
 72
   65
 73
    2
 40
19.05
 49
12.7
 74
    0
 49
-6.35
 74
    0
  0
LTYPE
  5
37
330
5
100
AcDbSymbolTableRecord
100
AcDbLinetypeTableRecord
  2
DASHEDTINY
 70
    0
  3
Dashed (.15x) _ _ _ _ _ _ _ _ _ _ _ _ _ _ _ _ _
 72
   65
 73
    2
 40
2.8575
 49
1.905
 74
    0
 49
-0.9525
 74
    0
  0
LTYPE
  5
38
330
5
100
AcDbSymbolTableRecord
100
AcDbLinetypeTableRecord
  2
DASHED2
 70
    0
  3
Dashed (.5x) _ _ _ _ _ _ _ _ _ _ _ _ _ _ _ _ _
 72
   65
 73
    2
 40
9.524999999999999
 49
6.35
 74
    0
 49
-3.175
 74
    0
  0
LTYPE
  5
39
330
5
100
AcDbSymbolTableRecord
100
AcDbLinetypeTableRecord
  2
DASHEDX2
 70
    0
  3
Dashed (2x) ____  ____  ____  ____  ____  ___
 72
   65
 73
    2
 40
38.09999999999999
 49
25.4
 74
    0
 49
-12.7
 74
    0
  0
LTYPE
  5
3A
330
5
100
AcDbSymbolTableRecord
100
AcDbLinetypeTableRecord
  2
DASHDOT
 70
    0
  3
Dash dot __ . __ . __ . __ . __ . __ . __ . __
 72
   65
 73
    4
 40
25.4
 49
12.7
 74
    0
 49
-6.35
 74
    0
 49
0
 74
    0
 49
-6.35
 74
    0
  0
LTYPE
  5
3B
330
5
100
AcDbSymbolTableRecord
100
AcDbLinetypeTableRecord
  2
DASHDOTTINY
 70
    0
  3
Dash dot (.15x) _._._._._._._._._._._._._._._.
 72
   65
 73
    4
 40
3.81
 49
1.905
 74
    0
 49
-0.9525
 74
    0
 49
0
 74
    0
 49
-0.9525
 74
    0
  0
LTYPE
  5
3C
330
5
100
AcDbSymbolTableRecord
100
AcDbLinetypeTableRecord
  2
DASHDOT2
 70
    0
  3
Dash dot (.5x) _._._._._._._._._._._._._._._.
 72
   65
 73
    4
 40
12.7
 49
6.35
 74
    0
 49
-3.175
 74
    0
 49
0
 74
    0
 49
-3.175
 74
    0
  0
LTYPE
  5
3D
330
5
100
AcDbSymbolTableRecord
100
AcDbLinetypeTableRecord
  2
DASHDOTX2
 70
    0
  3
Dash dot (2x) ____  .  ____  .  ____  .  ___
 72
   65
 73
    4
 40
50.8
 49
25.4
 74
    0
 49
-12.7
 74
    0
 49
0
 74
    0
 49
-12.7
 74
    0
  0
LTYPE
  5
3E
330
5
100
AcDbSymbolTableRecord
100
AcDbLinetypeTableRecord
  2
DIVIDE
 70
    0
  3
Divide ____ . . ____ . . ____ . . ____ . . ____
 72
   65
 73
    6
 40
31.75
 49
12.7
 74
    0
 49
-6.35
 74
    0
 49
0
 74
    0
 49
-6.35
 74
    0
 49
0
 74
    0
 49
-6.35
 74
    0
  0
LTYPE
  5
3F
330
5
100
AcDbSymbolTableRecord
100
AcDbLinetypeTableRecord
  2
DIVIDETINY
 70
    0
  3
Divide (.15x) __..__..__..__..__..__..__..__.._
 72
   65
 73
    6
 40
4.7625
 49
1.905
 74
    0
 49
-0.9525
 74
    0
 49
0
 74
    0
 49
-0.9525
 74
    0
 49
0
 74
    0
 49
-0.9525
 74
    0
  0
LTYPE
  5
40
330
5
100
AcDbSymbolTableRecord
100
AcDbLinetypeTableRecord
  2
DIVIDE2
 70
    0
  3
Divide (.5x) __..__..__..__..__..__..__..__.._
 72
   65
 73
    6
 40
15.875
 49
6.35
 74
    0
 49
-3.175
 74
    0
 49
0
 74
    0
 49
-3.175
 74
    0
 49
0
 74
    0
 49
-3.175
 74
    0
  0
LTYPE
  5
41
330
5
100
AcDbSymbolTableRecord
100
AcDbLinetypeTableRecord
  2
DIVIDEX2
 70
    0
  3
Divide (2x) ________  .  .  ________  .  .  _
 72
   65
 73
    6
 40
63.5
 49
25.4
 74
    0
 49
-12.7
 74
    0
 49
0
 74
    0
 49
-12.7
 74
    0
 49
0
 74
    0
 49
-12.7
 74
    0
  0
LTYPE
  5
42
330
5
100
AcDbSymbolTableRecord
100
AcDbLinetypeTableRecord
  2
BORDER
 70
    0
  3
Border __ __ . __ __ . __ __ . __ __ . __ __ .
 72
   65
 73
    6
 40
44.45
 49
12.7
 74
    0
 49
-6.35
 74
    0
 49
12.7
 74
    0
 49
-6.35
 74
    0
 49
0
 74
    0
 49
-6.35
 74
    0
  0
LTYPE
  5
43
330
5
100
AcDbSymbolTableRecord
100
AcDbLinetypeTableRecord
  2
BORDERTINY
 70
    0
  3
Border (.15x) __.__.__.__.__.__.__.__.__.__.__.
 72
   65
 73
    6
 40
6.6675
 49
1.905
 74
    0
 49
-0.9525
 74
    0
 49
1.905
 74
    0
 49
-0.9525
 74
    0
 49
0
 74
    0
 49
-0.9525
 74
    0
  0
LTYPE
  5
44
330
5
100
AcDbSymbolTableRecord
100
AcDbLinetypeTableRecord
  2
BORDER2
 70
    0
  3
Border (.5x) __.__.__.__.__.__.__.__.__.__.__.
 72
   65
 73
    6
 40
22.225
 49
6.35
 74
    0
 49
-3.175
 74
    0
 49
6.35
 74
    0
 49
-3.175
 74
    0
 49
0
 74
    0
 49
-3.175
 74
    0
  0
LTYPE
  5
45
330
5
100
AcDbSymbolTableRecord
100
AcDbLinetypeTableRecord
  2
BORDERX2
 70
    0
  3
Border (2x) ____  ____  .  ____  ____  .  ___
 72
   65
 73
    6
 40
88.89999999999999
 49
25.4
 74
    0
 49
-12.7
 74
    0
 49
25.4
 74
    0
 49
-12.7
 74
    0
 49
0
 74
    0
 49
-12.7
 74
    0
  0
LTYPE
  5
46
330
5
100
AcDbSymbolTableRecord
100
AcDbLinetypeTableRecord
  2
CENTER
 70
    0
  3
Center ____ _ ____ _ ____ _ ____ _ ____ _ ____
 72
   65
 73
    4
 40
50.8
 49
31.75
 74
    0
 49
-6.35
 74
    0
 49
6.35
 74
    0
 49
-6.35
 74
    0
  0
LTYPE
  5
47
330
5
100
AcDbSymbolTableRecord
100
AcDbLinetypeTableRecord
  2
CENTERTINY
 70
    0
  3
Center (.15x) ___ _ ___ _ ___ _ ___ _ ___ _ ___
 72
   65
 73
    4
 40
7.619999999999999
 49
4.7625
 74
    0
 49
-0.9525
 74
    0
 49
0.9525
 74
    0
 49
-0.9525
 74
    0
  0
LTYPE
  5
48
330
5
100
AcDbSymbolTableRecord
100
AcDbLinetypeTableRecord
  2
CENTER2
 70
    0
  3
Center (.5x) ___ _ ___ _ ___ _ ___ _ ___ _ ___
 72
   65
 73
    4
 40
28.575
 49
19.05
 74
    0
 49
-3.175
 74
    0
 49
3.175
 74
    0
 49
-3.175
 74
    0
  0
LTYPE
  5
49
330
5
100
AcDbSymbolTableRecord
100
AcDbLinetypeTableRecord
  2
CENTERX2
 70
    0
  3
Center (2x) ________  __  ________  __  _____
 72
   65
 73
    4
 40
101.6
 49
63.5
 74
    0
 49
-12.7
 74
    0
 49
12.7
 74
    0
 49
-12.7
 74
    0
  0
ENDTAB
  0
TABLE
  2
LAYER
  5
2
330
0
100
AcDbSymbolTable
 70
    1
  0
LAYER
  5
10
330
2
100
AcDbSymbolTableRecord
100
AcDbLayerTableRecord
  2
0
 70
    0
 62
    7
  6
CONTINUOUS
370
   70
390
F
  0
LAYER
  5
4A
330
2
100
AcDbSymbolTableRecord
100
AcDbLayerTableRecord
  2
builder
 70
    0
 62
  253
420
10526884
  6
DASHED
370
   13
390
F
  0
LAYER
  5
4B
330
2
100
AcDbSymbolTableRecord
100
AcDbLayerTableRecord
  2
internalComps
 70
    0
 62
    4
  6
DASHEDTINY
370
    0
390
F
  0
LAYER
  5
4C
330
2
100
AcDbSymbolTableRecord
100
AcDbLayerTableRecord
  2
measures
 70
    0
 62
    6
  6
CONTINUOUS
370
   35
390
F
  0
ENDTAB
  0
TABLE
  2
STYLE
  5
3
330
0
100
AcDbSymbolTable
 70
    3
  0
STYLE
  5
4D
330
2
100
AcDbSymbolTableRecord
100
AcDbTextStyleTableRecord
  2
Standard
 70
    0
 40
0
 41
1
 50
0
 71
    0
 42
1
  3
txt
  4

  0
ENDTAB
  0
TABLE
  2
VIEW
  5
6
330
0
100
AcDbSymbolTable
 70
    0
  0
ENDTAB
  0
TABLE
  2
UCS
  5
7
330
0
100
AcDbSymbolTable
 70
    0
  0
ENDTAB
  0
TABLE
  2
APPID
  5
9
330
0
100
AcDbSymbolTable
 70
    1
  0
APPID
  5
12
330
9
100
AcDbSymbolTableRecord
100
AcDbRegAppTableRecord
  2
ACAD
 70
    0
  0
APPID
  5
4E
330
9
100
AcDbSymbolTableRecord
100
AcDbRegAppTableRecord
  2
LibreCad
 70
    0
  0
ENDTAB
  0
TABLE
  2
DIMSTYLE
  5
A
330
0
100
AcDbSymbolTable
 70
    1
100
AcDbDimStyleTable
 71
    1
  0
DIMSTYLE
105
4F
330
A
100
AcDbSymbolTableRecord
100
AcDbDimStyleTableRecord
  2
Standard
 70
    0
 40
1
 41
2.5
 42
0.625
 43
0.38
 44
1.25
 45
0
 46
0
 47
0
 48
0
 49
1
140
2.5
141
0.09
142
0
143
25.4
144
1
145
0
146
1
147
0.625
148
0
 71
    0
 72
    0
 73
    0
 74
    1
 75
    0
 76
    0
 77
    0
 78
    8
 79
    0
170
    0
171
    2
172
    0
173
    0
174
    0
175
    0
176
    0
177
    0
178
    0
179
    0
271
    2
272
    4
273
    2
274
    2
275
    0
276
    0
277
    2
278
   44
279
    0
280
    0
281
    0
282
    0
283
    1
284
    0
285
    0
286
    0
288
    0
289
    3
340
4D
  0
ENDTAB
  0
TABLE
  2
BLOCK_RECORD
  5
1
330
0
100
AcDbSymbolTable
 70
    2
  0
BLOCK_RECORD
  5
1F
330
1
100
AcDbSymbolTableRecord
100
AcDbBlockTableRecord
  2
*Model_Space
 70
    0
280
    1
281
    0
  0
BLOCK_RECORD
  5
1E
330
1
100
AcDbSymbolTableRecord
100
AcDbBlockTableRecord
  2
*Paper_Space
 70
    0
280
    1
281
    0
  0
BLOCK_RECORD
  5
50
330
1
100
AcDbSymbolTableRecord
100
AcDbBlockTableRecord
  2
*D29
 70
    0
280
    1
281
    0
  0
BLOCK_RECORD
  5
53
330
1
100
AcDbSymbolTableRecord
100
AcDbBlockTableRecord
  2
*D51
 70
    0
280
    1
281
    0
  0
BLOCK_RECORD
  5
56
330
1
100
AcDbSymbolTableRecord
100
AcDbBlockTableRecord
  2
*D37
 70
    0
280
    1
281
    0
  0
BLOCK_RECORD
  5
59
330
1
100
AcDbSymbolTableRecord
100
AcDbBlockTableRecord
  2
*D17
 70
    0
280
    1
281
    0
  0
BLOCK_RECORD
  5
5C
330
1
100
AcDbSymbolTableRecord
100
AcDbBlockTableRecord
  2
*D49
 70
    0
280
    1
281
    0
  0
BLOCK_RECORD
  5
5F
330
1
100
AcDbSymbolTableRecord
100
AcDbBlockTableRecord
  2
*D2
 70
    0
280
    1
281
    0
  0
BLOCK_RECORD
  5
62
330
1
100
AcDbSymbolTableRecord
100
AcDbBlockTableRecord
  2
*D25
 70
    0
280
    1
281
    0
  0
BLOCK_RECORD
  5
65
330
1
100
AcDbSymbolTableRecord
100
AcDbBlockTableRecord
  2
*D41
 70
    0
280
    1
281
    0
  0
BLOCK_RECORD
  5
68
330
1
100
AcDbSymbolTableRecord
100
AcDbBlockTableRecord
  2
*D38
 70
    0
280
    1
281
    0
  0
BLOCK_RECORD
  5
6B
330
1
100
AcDbSymbolTableRecord
100
AcDbBlockTableRecord
  2
*D24
 70
    0
280
    1
281
    0
  0
BLOCK_RECORD
  5
6E
330
1
100
AcDbSymbolTableRecord
100
AcDbBlockTableRecord
  2
*D13
 70
    0
280
    1
281
    0
  0
BLOCK_RECORD
  5
71
330
1
100
AcDbSymbolTableRecord
100
AcDbBlockTableRecord
  2
*D3
 70
    0
280
    1
281
    0
  0
BLOCK_RECORD
  5
74
330
1
100
AcDbSymbolTableRecord
100
AcDbBlockTableRecord
  2
*D48
 70
    0
280
    1
281
    0
  0
BLOCK_RECORD
  5
77
330
1
100
AcDbSymbolTableRecord
100
AcDbBlockTableRecord
  2
*D11
 70
    0
280
    1
281
    0
  0
BLOCK_RECORD
  5
7A
330
1
100
AcDbSymbolTableRecord
100
AcDbBlockTableRecord
  2
*D21
 70
    0
280
    1
281
    0
  0
BLOCK_RECORD
  5
7D
330
1
100
AcDbSymbolTableRecord
100
AcDbBlockTableRecord
  2
*D31
 70
    0
280
    1
281
    0
  0
BLOCK_RECORD
  5
80
330
1
100
AcDbSymbolTableRecord
100
AcDbBlockTableRecord
  2
*D1
 70
    0
280
    1
281
    0
  0
BLOCK_RECORD
  5
83
330
1
100
AcDbSymbolTableRecord
100
AcDbBlockTableRecord
  2
*D52
 70
    0
280
    1
281
    0
  0
BLOCK_RECORD
  5
86
330
1
100
AcDbSymbolTableRecord
100
AcDbBlockTableRecord
  2
*D8
 70
    0
280
    1
281
    0
  0
BLOCK_RECORD
  5
89
330
1
100
AcDbSymbolTableRecord
100
AcDbBlockTableRecord
  2
*D19
 70
    0
280
    1
281
    0
  0
BLOCK_RECORD
  5
8C
330
1
100
AcDbSymbolTableRecord
100
AcDbBlockTableRecord
  2
*D33
 70
    0
280
    1
281
    0
  0
BLOCK_RECORD
  5
8F
330
1
100
AcDbSymbolTableRecord
100
AcDbBlockTableRecord
  2
*D35
 70
    0
280
    1
281
    0
  0
BLOCK_RECORD
  5
92
330
1
100
AcDbSymbolTableRecord
100
AcDbBlockTableRecord
  2
*D10
 70
    0
280
    1
281
    0
  0
BLOCK_RECORD
  5
95
330
1
100
AcDbSymbolTableRecord
100
AcDbBlockTableRecord
  2
*D12
 70
    0
280
    1
281
    0
  0
BLOCK_RECORD
  5
98
330
1
100
AcDbSymbolTableRecord
100
AcDbBlockTableRecord
  2
*D18
 70
    0
280
    1
281
    0
  0
BLOCK_RECORD
  5
9B
330
1
100
AcDbSymbolTableRecord
100
AcDbBlockTableRecord
  2
*D14
 70
    0
280
    1
281
    0
  0
BLOCK_RECORD
  5
9E
330
1
100
AcDbSymbolTableRecord
100
AcDbBlockTableRecord
  2
*D23
 70
    0
280
    1
281
    0
  0
BLOCK_RECORD
  5
A1
330
1
100
AcDbSymbolTableRecord
100
AcDbBlockTableRecord
  2
*D43
 70
    0
280
    1
281
    0
  0
BLOCK_RECORD
  5
A4
330
1
100
AcDbSymbolTableRecord
100
AcDbBlockTableRecord
  2
*D7
 70
    0
280
    1
281
    0
  0
BLOCK_RECORD
  5
A7
330
1
100
AcDbSymbolTableRecord
100
AcDbBlockTableRecord
  2
*D16
 70
    0
280
    1
281
    0
  0
BLOCK_RECORD
  5
AA
330
1
100
AcDbSymbolTableRecord
100
AcDbBlockTableRecord
  2
*D26
 70
    0
280
    1
281
    0
  0
BLOCK_RECORD
  5
AD
330
1
100
AcDbSymbolTableRecord
100
AcDbBlockTableRecord
  2
*D22
 70
    0
280
    1
281
    0
  0
BLOCK_RECORD
  5
B0
330
1
100
AcDbSymbolTableRecord
100
AcDbBlockTableRecord
  2
*D50
 70
    0
280
    1
281
    0
  0
BLOCK_RECORD
  5
B3
330
1
100
AcDbSymbolTableRecord
100
AcDbBlockTableRecord
  2
*D40
 70
    0
280
    1
281
    0
  0
BLOCK_RECORD
  5
B6
330
1
100
AcDbSymbolTableRecord
100
AcDbBlockTableRecord
  2
*D9
 70
    0
280
    1
281
    0
  0
BLOCK_RECORD
  5
B9
330
1
100
AcDbSymbolTableRecord
100
AcDbBlockTableRecord
  2
*D27
 70
    0
280
    1
281
    0
  0
BLOCK_RECORD
  5
BC
330
1
100
AcDbSymbolTableRecord
100
AcDbBlockTableRecord
  2
*D28
 70
    0
280
    1
281
    0
  0
BLOCK_RECORD
  5
BF
330
1
100
AcDbSymbolTableRecord
100
AcDbBlockTableRecord
  2
*D20
 70
    0
280
    1
281
    0
  0
BLOCK_RECORD
  5
C2
330
1
100
AcDbSymbolTableRecord
100
AcDbBlockTableRecord
  2
*D32
 70
    0
280
    1
281
    0
  0
BLOCK_RECORD
  5
C5
330
1
100
AcDbSymbolTableRecord
100
AcDbBlockTableRecord
  2
*D5
 70
    0
280
    1
281
    0
  0
BLOCK_RECORD
  5
C8
330
1
100
AcDbSymbolTableRecord
100
AcDbBlockTableRecord
  2
*D34
 70
    0
280
    1
281
    0
  0
BLOCK_RECORD
  5
CB
330
1
100
AcDbSymbolTableRecord
100
AcDbBlockTableRecord
  2
*D42
 70
    0
280
    1
281
    0
  0
BLOCK_RECORD
  5
CE
330
1
100
AcDbSymbolTableRecord
100
AcDbBlockTableRecord
  2
*D39
 70
    0
280
    1
281
    0
  0
BLOCK_RECORD
  5
D1
330
1
100
AcDbSymbolTableRecord
100
AcDbBlockTableRecord
  2
*D6
 70
    0
280
    1
281
    0
  0
BLOCK_RECORD
  5
D4
330
1
100
AcDbSymbolTableRecord
100
AcDbBlockTableRecord
  2
*D36
 70
    0
280
    1
281
    0
  0
BLOCK_RECORD
  5
D7
330
1
100
AcDbSymbolTableRecord
100
AcDbBlockTableRecord
  2
*D30
 70
    0
280
    1
281
    0
  0
BLOCK_RECORD
  5
DA
330
1
100
AcDbSymbolTableRecord
100
AcDbBlockTableRecord
  2
*D45
 70
    0
280
    1
281
    0
  0
BLOCK_RECORD
  5
DD
330
1
100
AcDbSymbolTableRecord
100
AcDbBlockTableRecord
  2
*D44
 70
    0
280
    1
281
    0
  0
BLOCK_RECORD
  5
E0
330
1
100
AcDbSymbolTableRecord
100
AcDbBlockTableRecord
  2
*D47
 70
    0
280
    1
281
    0
  0
BLOCK_RECORD
  5
E3
330
1
100
AcDbSymbolTableRecord
100
AcDbBlockTableRecord
  2
*D4
 70
    0
280
    1
281
    0
  0
BLOCK_RECORD
  5
E6
330
1
100
AcDbSymbolTableRecord
100
AcDbBlockTableRecord
  2
*D15
 70
    0
280
    1
281
    0
  0
BLOCK_RECORD
  5
E9
330
1
100
AcDbSymbolTableRecord
100
AcDbBlockTableRecord
  2
*D46
 70
    0
280
    1
281
    0
  0
ENDTAB
  0
ENDSEC
  0
SECTION
  2
BLOCKS
  0
BLOCK
  5
20
330
1F
100
AcDbEntity
  8
0
100
AcDbBlockBegin
  2
*Model_Space
 70
    0
 10
0
 20
0
 30
0
  3
*Model_Space
  1

  0
ENDBLK
  5
21
330
1F
100
AcDbEntity
  8
0
100
AcDbBlockEnd
  0
BLOCK
  5
1C
330
1B
100
AcDbEntity
  8
0
100
AcDbBlockBegin
  2
*Paper_Space
 70
    0
 10
0
 20
0
 30
0
  3
*Paper_Space
  1

  0
ENDBLK
  5
1D
330
1F
100
AcDbEntity
  8
0
100
AcDbBlockEnd
  0
BLOCK
  5
51
330
50
100
AcDbEntity
  8
0
100
AcDbBlockBegin
  2
*D29
 70
    1
 10
0
 20
0
  3
*D29
  1

  0
LINE
  5
EC
100
AcDbEntity
  8
measures
  6
ByBlock
 62
    0
370
   -2
100
AcDbLine
 10
224.2358490598026
 20
430.2924950349947
 11
254.2358490598016
 21
430.2924950349947
  0
MTEXT
  5
ED
100
AcDbEntity
  8
measures
  6
CONTINUOUS
 62
    0
370
   -2
100
AcDbMText
 10
239.2358490598021
 20
432.1674950349947
 30
0
 40
2.5
 41
3.055555555555711
 71
    5
 72
    1
  1
30
  7
STANDARD
210
0
220
0
230
1
 50
0
 73
    2
 44
1
  0
SOLID
  5
EE
100
AcDbEntity
  8
measures
  6
ByBlock
 62
    0
370
   -2
100
AcDbTrace
 10
224.2358490598026
 20
430.2924950349947
 30
0
 11
226.7358490598026
 21
430.7087796927676
 31
0
 12
226.7358490598026
 22
429.8762103772219
 32
0
 13
226.7358490598026
 23
429.8762103772219
 33
0
  0
SOLID
  5
EF
100
AcDbEntity
  8
measures
  6
ByBlock
 62
    0
370
   -2
100
AcDbTrace
 10
254.2358490598016
 20
430.2924950349947
 30
0
 11
251.7358490598016
 21
429.8762103772219
 31
0
 12
251.7358490598016
 22
430.7087796927676
 32
0
 13
251.7358490598016
 23
430.7087796927676
 33
0
  0
LINE
  5
F0
100
AcDbEntity
  8
measures
  6
ByBlock
 62
    0
370
   -2
100
AcDbLine
 10
224.2358490598026
 20
445.3062315996032
 11
224.2358490598026
 21
429.0424950349947
  0
LINE
  5
F1
100
AcDbEntity
  8
measures
  6
ByBlock
 62
    0
370
   -2
100
AcDbLine
 10
254.2358490598016
 20
445.3062315996001
 11
254.2358490598016
 21
429.0424950349947
  0
ENDBLK
  5
52
330
50
100
AcDbEntity
  8
0
100
AcDbBlockEnd
  0
BLOCK
  5
54
330
53
100
AcDbEntity
  8
0
100
AcDbBlockBegin
  2
*D51
 70
    1
 10
0
 20
0
  3
*D51
  1

  0
LINE
  5
F2
100
AcDbEntity
  8
measures
  6
ByBlock
 62
    0
370
   -2
100
AcDbLine
 10
319.5394283576903
 20
480.12497801706
 11
327.2025400310084
 21
493.251924329217
  0
MTEXT
  5
F3
100
AcDbEntity
  8
measures
  6
CONTINUOUS
 62
    0
370
   -2
100
AcDbMText
 10
321.7517062775537
 20
487.633736330209
 30
0
 40
2.5
 41
4.027777777777933
 71
    5
 72
    1
  1
5,2
  7
STANDARD
210
0
220
0
230
1
 50
59.72491804187412
 73
    2
 44
1
  0
SOLID
  5
F4
100
AcDbEntity
  8
measures
  6
ByBlock
 62
    0
370
   -2
100
AcDbTrace
 10
322.0601887765449
 20
484.4430524618485
 30
0
 11
321.1593181956148
 21
482.0741444617962
 31
0
 12
320.4402989386203
 22
482.4938860171123
 32
0
 13
320.4402989386203
 23
482.4938860171123
 33
0
  0
SOLID
  5
F5
100
AcDbEntity
  8
measures
  6
ByBlock
 62
    0
370
   -2
100
AcDbTrace
 10
324.6817796121538
 20
488.9338498844285
 30
0
 11
325.5826501930839
 21
491.3027578844809
 31
0
 12
326.3016694500784
 22
490.8830163291647
 32
0
 13
326.3016694500784
 23
490.8830163291647
 33
0
  0
ENDBLK
  5
55
330
53
100
AcDbEntity
  8
0
100
AcDbBlockEnd
  0
BLOCK
  5
57
330
56
100
AcDbEntity
  8
0
100
AcDbBlockBegin
  2
*D37
 70
    1
 10
0
 20
0
  3
*D37
  1

  0
LINE
  5
F6
100
AcDbEntity
  8
measures
  6
ByBlock
 62
    0
370
   -2
100
AcDbLine
 10
188.5941924049548
 20
511.451048632493
 11
176.4961636689104
 21
513.4673867551735
  0
LINE
  5
F7
100
AcDbEntity
  8
measures
  6
ByBlock
 62
    0
370
   -2
100
AcDbLine
 10
192.3693528575116
 20
534.1020113477609
 11
180.2713241214672
 21
536.1183494704414
  0
LINE
  5
F8
100
AcDbEntity
  8
measures
  6
ByBlock
 62
    0
370
   -2
100
AcDbLine
 10
177.7291560737005
 20
513.2618880210412
 11
181.5043165262573
 21
535.9128507363091
  0
MTEXT
  5
F9
100
AcDbEntity
  8
measures
  6
CONTINUOUS
 62
    0
370
   -2
100
AcDbMText
 10
177.7672476927938
 20
524.8956174798736
 30
0
 40
2.5
 41
7.916666666666977
 71
    5
 72
    1
  1
22,96
  7
STANDARD
210
0
220
0
230
1
 50
80.53767779194449
 73
    2
 44
1
  0
SOLID
  5
FA
100
AcDbEntity
  8
measures
  6
ByBlock
 62
    0
370
   -2
100
AcDbTrace
 10
177.7291560737005
 20
513.2618880210412
 30
0
 11
177.7295328849535
 21
515.7963096067901
 31
0
 12
178.5507741989768
 22
515.6594360544525
 32
0
 13
178.5507741989768
 23
515.6594360544525
 33
0
  0
SOLID
  5
FB
100
AcDbEntity
  8
measures
  6
ByBlock
 62
    0
370
   -2
100
AcDbTrace
 10
181.5043165262573
 20
535.9128507363091
 30
0
 11
181.5039397150043
 21
533.3784291505601
 31
0
 12
180.682698400981
 22
533.5153027028978
 32
0
 13
180.682698400981
 23
533.5153027028978
 33
0
  0
ENDBLK
  5
58
330
56
100
AcDbEntity
  8
0
100
AcDbBlockEnd
  0
BLOCK
  5
5A
330
59
100
AcDbEntity
  8
0
100
AcDbBlockBegin
  2
*D17
 70
    1
 10
0
 20
0
  3
*D17
  1

  0
LINE
  5
FC
100
AcDbEntity
  8
measures
  6
ByBlock
 62
    0
370
   -2
100
AcDbLine
 10
347.9652444503542
 20
533.9992619804347
 11
347.9652444503542
 21
524.1353227521872
  0
MTEXT
  5
FD
100
AcDbEntity
  8
measures
  6
CONTINUOUS
 62
    0
370
   -2
100
AcDbMText
 10
346.0902444503542
 20
529.067292366311
 30
0
 40
2.5
 41
5.972222222222688
 71
    5
 72
    1
  1
9,86
  7
STANDARD
210
0
220
0
230
1
 50
90
 73
    2
 44
1
  0
SOLID
  5
FE
100
AcDbEntity
  8
measures
  6
ByBlock
 62
    0
370
   -2
100
AcDbTrace
 10
347.9652444503542
 20
533.9992619804347
 30
0
 11
348.381529108127
 21
531.4992619804347
 31
0
 12
347.5489597925813
 22
531.4992619804347
 32
0
 13
347.5489597925813
 23
531.4992619804347
 33
0
  0
SOLID
  5
FF
100
AcDbEntity
  8
measures
  6
ByBlock
 62
    0
370
   -2
100
AcDbTrace
 10
347.9652444503542
 20
524.1353227521872
 30
0
 11
347.5489597925813
 21
526.6353227521872
 31
0
 12
348.381529108127
 22
526.6353227521872
 32
0
 13
348.381529108127
 23
526.6353227521872
 33
0
  0
LINE
  5
100
100
AcDbEntity
  8
measures
  6
ByBlock
 62
    0
370
   -2
100
AcDbLine
 10
311.1108490597972
 20
533.9992619804347
 11
349.2152444503542
 21
533.9992619804347
  0
LINE
  5
101
100
AcDbEntity
  8
measures
  6
ByBlock
 62
    0
370
   -2
100
AcDbLine
 10
312.7548389311794
 20
524.1353227521872
 11
349.2152444503542
 21
524.1353227521872
  0
ENDBLK
  5
5B
330
59
100
AcDbEntity
  8
0
100
AcDbBlockEnd
  0
BLOCK
  5
5D
330
5C
100
AcDbEntity
  8
0
100
AcDbBlockBegin
  2
*D49
 70
    1
 10
0
 20
0
  3
*D49
  1

  0
LINE
  5
102
100
AcDbEntity
  8
measures
  6
ByBlock
 62
    0
370
   -2
100
AcDbLine
 10
247.3962769654293
 20
442.6175850333709
 11
261.0754211541741
 21
449.2448781658293
  0
MTEXT
  5
103
100
AcDbEntity
  8
measures
  6
CONTINUOUS
 62
    0
370
   -2
100
AcDbMText
 10
253.4183375714227
 20
447.6186260307775
 30
0
 40
2.5
 41
4.027777777777933
 71
    5
 72
    1
  1
5,2
  7
STANDARD
210
0
220
0
230
1
 50
25.84933260330173
 73
    2
 44
1
  0
SOLID
  5
104
100
AcDbEntity
  8
measures
  6
ByBlock
 62
    0
370
   -2
100
AcDbTrace
 10
251.895995448569
 20
444.797615669048
 30
0
 11
249.8276388684206
 21
443.3329675974439
 31
0
 12
249.4646335455777
 22
444.082233104975
 32
0
 13
249.4646335455777
 23
444.082233104975
 33
0
  0
SOLID
  5
105
100
AcDbEntity
  8
measures
  6
ByBlock
 62
    0
370
   -2
100
AcDbTrace
 10
256.5757026710343
 20
447.0648475301522
 30
0
 11
258.6440592511827
 21
448.5294956017563
 31
0
 12
259.0070645740256
 22
447.7802300942251
 32
0
 13
259.0070645740256
 23
447.7802300942251
 33
0
  0
ENDBLK
  5
5E
330
5C
100
AcDbEntity
  8
0
100
AcDbBlockEnd
  0
BLOCK
  5
60
330
5F
100
AcDbEntity
  8
0
100
AcDbBlockBegin
  2
*D2
 70
    1
 10
0
 20
0
  3
*D2
  1

  0
LINE
  5
106
100
AcDbEntity
  8
measures
  6
ByBlock
 62
    0
370
   -2
100
AcDbLine
 10
363.0588032193709
 20
440.9992619804289
 11
363.0588032193709
 21
533.9992619874704
  0
MTEXT
  5
107
100
AcDbEntity
  8
measures
  6
CONTINUOUS
 62
    0
370
   -2
100
AcDbMText
 10
361.1838032193709
 20
487.4992619839496
 30
0
 40
2.5
 41
3.055555555556021
 71
    5
 72
    1
  1
93
  7
STANDARD
210
0
220
0
230
1
 50
90
 73
    2
 44
1
  0
SOLID
  5
108
100
AcDbEntity
  8
measures
  6
ByBlock
 62
    0
370
   -2
100
AcDbTrace
 10
363.0588032193709
 20
440.9992619804289
 30
0
 11
362.642518561598
 21
443.4992619804289
 31
0
 12
363.4750878771437
 22
443.4992619804289
 32
0
 13
363.4750878771437
 23
443.4992619804289
 33
0
  0
SOLID
  5
109
100
AcDbEntity
  8
measures
  6
ByBlock
 62
    0
370
   -2
100
AcDbTrace
 10
363.0588032193709
 20
533.9992619874704
 30
0
 11
363.4750878771437
 21
531.4992619874704
 31
0
 12
362.642518561598
 22
531.4992619874704
 32
0
 13
362.642518561598
 23
531.4992619874704
 33
0
  0
LINE
  5
10A
100
AcDbEntity
  8
measures
  6
ByBlock
 62
    0
370
   -2
100
AcDbLine
 10
336.6108490598025
 20
440.9992619804289
 11
364.3088032193709
 21
440.9992619804289
  0
LINE
  5
10B
100
AcDbEntity
  8
measures
  6
ByBlock
 62
    0
370
   -2
100
AcDbLine
 10
321.1108490586268
 20
533.9992619874704
 11
364.3088032193709
 21
533.9992619874704
  0
ENDBLK
  5
61
330
5F
100
AcDbEntity
  8
0
100
AcDbBlockEnd
  0
BLOCK
  5
63
330
62
100
AcDbEntity
  8
0
100
AcDbBlockBegin
  2
*D25
 70
    1
 10
0
 20
0
  3
*D25
  1

  0
LINE
  5
10C
100
AcDbEntity
  8
measures
  6
ByBlock
 62
    0
370
   -2
100
AcDbLine
 10
239.2358490597978
 20
394.8844290246458
 11
269.2358490598025
 21
394.8844290246458
  0
MTEXT
  5
10D
100
AcDbEntity
  8
measures
  6
CONTINUOUS
 62
    0
370
   -2
100
AcDbMText
 10
254.2358490598002
 20
396.7594290246458
 30
0
 40
2.5
 41
3.055555555555711
 71
    5
 72
    1
  1
30
  7
STANDARD
210
0
220
0
230
1
 50
0
 73
    2
 44
1
  0
SOLID
  5
10E
100
AcDbEntity
  8
measures
  6
ByBlock
 62
    0
370
   -2
100
AcDbTrace
 10
239.2358490597978
 20
394.8844290246458
 30
0
 11
241.7358490597978
 21
395.3007136824186
 31
0
 12
241.7358490597978
 22
394.4681443668729
 32
0
 13
241.7358490597978
 23
394.4681443668729
 33
0
  0
SOLID
  5
10F
100
AcDbEntity
  8
measures
  6
ByBlock
 62
    0
370
   -2
100
AcDbTrace
 10
269.2358490598025
 20
394.8844290246458
 30
0
 11
266.7358490598025
 21
394.4681443668729
 31
0
 12
266.7358490598025
 22
395.3007136824186
 32
0
 13
266.7358490598025
 23
395.3007136824186
 33
0
  0
LINE
  5
110
100
AcDbEntity
  8
measures
  6
ByBlock
 62
    0
370
   -2
100
AcDbLine
 10
239.2358490597978
 20
384.3536147620179
 11
239.2358490597978
 21
396.1344290246458
  0
LINE
  5
111
100
AcDbEntity
  8
measures
  6
ByBlock
 62
    0
370
   -2
100
AcDbLine
 10
269.2358490598025
 20
384.3536147620172
 11
269.2358490598025
 21
396.1344290246458
  0
ENDBLK
  5
64
330
62
100
AcDbEntity
  8
0
100
AcDbBlockEnd
  0
BLOCK
  5
66
330
65
100
AcDbEntity
  8
0
100
AcDbBlockBegin
  2
*D41
 70
    1
 10
0
 20
0
  3
*D41
  1

  0
LINE
  5
112
100
AcDbEntity
  8
measures
  6
ByBlock
 62
    0
370
   -2
100
AcDbLine
 10
263.5749621028336
 20
186.6426808151019
 11
274.8967360167671
 21
193.4292436742949
  0
MTEXT
  5
113
100
AcDbEntity
  8
measures
  6
CONTINUOUS
 62
    0
370
   -2
100
AcDbMText
 10
271.9075866571715
 20
193.8235237588048
 30
0
 40
2.5
 41
4.027777777777933
 71
    5
 72
    1
  1
3,2
  7
STANDARD
210
0
220
0
230
1
 50
30.93955782830108
 73
    2
 44
1
  0
SOLID
  5
114
100
AcDbEntity
  8
measures
  6
ByBlock
 62
    0
370
   -2
100
AcDbTrace
 10
267.8635128278084
 20
189.2133485647962
 30
0
 11
265.9332633742068
 21
187.5709631157715
 31
0
 12
265.5052115564351
 22
188.2850662641266
 32
0
 13
265.5052115564351
 23
188.2850662641266
 33
0
  0
SOLID
  5
115
100
AcDbEntity
  8
measures
  6
ByBlock
 62
    0
370
   -2
100
AcDbTrace
 10
270.6081852917923
 20
190.8585759246006
 30
0
 11
272.5384347453939
 21
192.5009613736252
 31
0
 12
272.9664865631656
 22
191.7868582252702
 32
0
 13
272.9664865631656
 23
191.7868582252702
 33
0
  0
ENDBLK
  5
67
330
65
100
AcDbEntity
  8
0
100
AcDbBlockEnd
  0
BLOCK
  5
69
330
68
100
AcDbEntity
  8
0
100
AcDbBlockBegin
  2
*D38
 70
    1
 10
0
 20
0
  3
*D38
  1

  0
LINE
  5
116
100
AcDbEntity
  8
measures
  6
ByBlock
 62
    0
370
   -2
100
AcDbLine
 10
434.9830858191244
 20
233.6311343997519
 11
434.9830858191244
 21
264.951134399752
  0
MTEXT
  5
117
100
AcDbEntity
  8
measures
  6
CONTINUOUS
 62
    0
370
   -2
100
AcDbMText
 10
433.1080858191244
 20
249.291134399752
 30
0
 40
2.5
 41
7.361111111111422
 71
    5
 72
    1
  1
31,32
  7
STANDARD
210
0
220
0
230
1
 50
90
 73
    2
 44
1
  0
SOLID
  5
118
100
AcDbEntity
  8
measures
  6
ByBlock
 62
    0
370
   -2
100
AcDbTrace
 10
434.9830858191244
 20
233.6311343997519
 30
0
 11
434.5668011613516
 21
236.1311343997519
 31
0
 12
435.3993704768973
 22
236.1311343997519
 32
0
 13
435.3993704768973
 23
236.1311343997519
 33
0
  0
SOLID
  5
119
100
AcDbEntity
  8
measures
  6
ByBlock
 62
    0
370
   -2
100
AcDbTrace
 10
434.9830858191244
 20
264.951134399752
 30
0
 11
435.3993704768973
 21
262.451134399752
 31
0
 12
434.5668011613516
 22
262.451134399752
 32
0
 13
434.5668011613516
 23
262.451134399752
 33
0
  0
LINE
  5
11A
100
AcDbEntity
  8
measures
  6
ByBlock
 62
    0
370
   -2
100
AcDbLine
 10
421.1461187578224
 20
233.6311343997519
 11
436.2330858191244
 21
233.6311343997519
  0
LINE
  5
11B
100
AcDbEntity
  8
measures
  6
ByBlock
 62
    0
370
   -2
100
AcDbLine
 10
421.1461187578224
 20
264.951134399752
 11
436.2330858191244
 21
264.951134399752
  0
ENDBLK
  5
6A
330
68
100
AcDbEntity
  8
0
100
AcDbBlockEnd
  0
BLOCK
  5
6C
330
6B
100
AcDbEntity
  8
0
100
AcDbBlockBegin
  2
*D24
 70
    1
 10
0
 20
0
  3
*D24
  1

  0
LINE
  5
11C
100
AcDbEntity
  8
measures
  6
ByBlock
 62
    0
370
   -2
100
AcDbLine
 10
189.235849059802
 20
394.8844290246458
 11
239.2358490597978
 21
394.8844290246458
  0
MTEXT
  5
11D
100
AcDbEntity
  8
measures
  6
CONTINUOUS
 62
    0
370
   -2
100
AcDbMText
 10
214.2358490597999
 20
396.7594290246458
 30
0
 40
2.5
 41
3.055555555555711
 71
    5
 72
    1
  1
50
  7
STANDARD
210
0
220
0
230
1
 50
0
 73
    2
 44
1
  0
SOLID
  5
11E
100
AcDbEntity
  8
measures
  6
ByBlock
 62
    0
370
   -2
100
AcDbTrace
 10
189.235849059802
 20
394.8844290246458
 30
0
 11
191.735849059802
 21
395.3007136824186
 31
0
 12
191.735849059802
 22
394.4681443668729
 32
0
 13
191.735849059802
 23
394.4681443668729
 33
0
  0
SOLID
  5
11F
100
AcDbEntity
  8
measures
  6
ByBlock
 62
    0
370
   -2
100
AcDbTrace
 10
239.2358490597978
 20
394.8844290246458
 30
0
 11
236.7358490597978
 21
394.4681443668729
 31
0
 12
236.7358490597978
 22
395.3007136824186
 32
0
 13
236.7358490597978
 23
395.3007136824186
 33
0
  0
LINE
  5
120
100
AcDbEntity
  8
measures
  6
ByBlock
 62
    0
370
   -2
100
AcDbLine
 10
189.235849059802
 20
389.3536147620185
 11
189.235849059802
 21
396.1344290246458
  0
LINE
  5
121
100
AcDbEntity
  8
measures
  6
ByBlock
 62
    0
370
   -2
100
AcDbLine
 10
239.2358490597978
 20
384.3536147620179
 11
239.2358490597978
 21
396.1344290246458
  0
ENDBLK
  5
6D
330
6B
100
AcDbEntity
  8
0
100
AcDbBlockEnd
  0
BLOCK
  5
6F
330
6E
100
AcDbEntity
  8
0
100
AcDbBlockBegin
  2
*D13
 70
    1
 10
0
 20
0
  3
*D13
  1

  0
LINE
  5
122
100
AcDbEntity
  8
measures
  6
ByBlock
 62
    0
370
   -2
100
AcDbLine
 10
172.4858490598156
 20
576.8823012492576
 11
335.9858490598025
 21
576.8823012492576
  0
MTEXT
  5
123
100
AcDbEntity
  8
measures
  6
CONTINUOUS
 62
    0
370
   -2
100
AcDbMText
 10
254.2358490598091
 20
578.7573012492576
 30
0
 40
2.5
 41
7.361111111111576
 71
    5
 72
    1
  1
163,5
  7
STANDARD
210
0
220
0
230
1
 50
0
 73
    2
 44
1
  0
SOLID
  5
124
100
AcDbEntity
  8
measures
  6
ByBlock
 62
    0
370
   -2
100
AcDbTrace
 10
172.4858490598156
 20
576.8823012492576
 30
0
 11
174.9858490598156
 21
577.2985859070304
 31
0
 12
174.9858490598156
 22
576.4660165914847
 32
0
 13
174.9858490598156
 23
576.4660165914847
 33
0
  0
SOLID
  5
125
100
AcDbEntity
  8
measures
  6
ByBlock
 62
    0
370
   -2
100
AcDbTrace
 10
335.9858490598025
 20
576.8823012492576
 30
0
 11
333.4858490598025
 21
576.4660165914847
 31
0
 12
333.4858490598025
 22
577.2985859070304
 32
0
 13
333.4858490598025
 23
577.2985859070304
 33
0
  0
LINE
  5
126
100
AcDbEntity
  8
measures
  6
ByBlock
 62
    0
370
   -2
100
AcDbLine
 10
172.4858490598156
 20
600.1245820726565
 11
172.4858490598156
 21
575.6323012492576
  0
LINE
  5
127
100
AcDbEntity
  8
measures
  6
ByBlock
 62
    0
370
   -2
100
AcDbLine
 10
335.9858490598025
 20
600.1245820726378
 11
335.9858490598025
 21
575.6323012492576
  0
ENDBLK
  5
70
330
6E
100
AcDbEntity
  8
0
100
AcDbBlockEnd
  0
BLOCK
  5
72
330
71
100
AcDbEntity
  8
0
100
AcDbBlockBegin
  2
*D3
 70
    1
 10
0
 20
0
  3
*D3
  1

  0
LINE
  5
128
100
AcDbEntity
  8
measures
  6
ByBlock
 62
    0
370
   -2
100
AcDbLine
 10
380.5211187578205
 20
220.3570994719297
 11
425.521118757821
 21
220.3570994719297
  0
MTEXT
  5
129
100
AcDbEntity
  8
measures
  6
CONTINUOUS
 62
    0
370
   -2
100
AcDbMText
 10
403.0211187578207
 20
222.2320994719297
 30
0
 40
2.5
 41
3.333333333333488
 71
    5
 72
    1
  1
45
  7
STANDARD
210
0
220
0
230
1
 50
0
 73
    2
 44
1
  0
SOLID
  5
12A
100
AcDbEntity
  8
measures
  6
ByBlock
 62
    0
370
   -2
100
AcDbTrace
 10
380.5211187578205
 20
220.3570994719297
 30
0
 11
383.0211187578205
 21
220.7733841297025
 31
0
 12
383.0211187578205
 22
219.9408148141569
 32
0
 13
383.0211187578205
 23
219.9408148141569
 33
0
  0
SOLID
  5
12B
100
AcDbEntity
  8
measures
  6
ByBlock
 62
    0
370
   -2
100
AcDbTrace
 10
425.521118757821
 20
220.3570994719297
 30
0
 11
423.021118757821
 21
219.9408148141569
 31
0
 12
423.021118757821
 22
220.7733841297025
 32
0
 13
423.021118757821
 23
220.7733841297025
 33
0
  0
LINE
  5
12C
100
AcDbEntity
  8
measures
  6
ByBlock
 62
    0
370
   -2
100
AcDbLine
 10
380.5211187578205
 20
233.0061343997519
 11
380.5211187578205
 21
219.1070994719297
  0
LINE
  5
12D
100
AcDbEntity
  8
measures
  6
ByBlock
 62
    0
370
   -2
100
AcDbLine
 10
425.521118757821
 20
233.0061343997519
 11
425.521118757821
 21
219.1070994719297
  0
ENDBLK
  5
73
330
71
100
AcDbEntity
  8
0
100
AcDbBlockEnd
  0
BLOCK
  5
75
330
74
100
AcDbEntity
  8
0
100
AcDbBlockBegin
  2
*D48
 70
    1
 10
0
 20
0
  3
*D48
  1

  0
LINE
  5
12E
100
AcDbEntity
  8
measures
  6
ByBlock
 62
    0
370
   -2
100
AcDbLine
 10
246.9854771469917
 20
526.7886727989256
 11
261.4862209726116
 21
531.3459119306532
  0
MTEXT
  5
12F
100
AcDbEntity
  8
measures
  6
CONTINUOUS
 62
    0
370
   -2
100
AcDbMText
 10
253.6736896274339
 20
530.856035435384
 30
0
 40
2.5
 41
4.027777777777933
 71
    5
 72
    1
  1
5,2
  7
STANDARD
210
0
220
0
230
1
 50
17.44669397067418
 73
    2
 44
1
  0
SOLID
  5
130
100
AcDbEntity
  8
measures
  6
ByBlock
 62
    0
370
   -2
100
AcDbTrace
 10
251.7554586685772
 20
528.2877646185729
 30
0
 11
249.4952776928069
 21
527.14108468369
 31
0
 12
249.2456581227621
 22
527.9353527338085
 32
0
 13
249.2456581227621
 23
527.9353527338085
 33
0
  0
SOLID
  5
131
100
AcDbEntity
  8
measures
  6
ByBlock
 62
    0
370
   -2
100
AcDbTrace
 10
256.7162394510261
 20
529.846820111006
 30
0
 11
258.9764204267965
 21
530.9935000458888
 31
0
 12
259.2260399968412
 22
530.1992319957703
 32
0
 13
259.2260399968412
 23
530.1992319957703
 33
0
  0
ENDBLK
  5
76
330
74
100
AcDbEntity
  8
0
100
AcDbBlockEnd
  0
BLOCK
  5
78
330
77
100
AcDbEntity
  8
0
100
AcDbBlockBegin
  2
*D11
 70
    1
 10
0
 20
0
  3
*D11
  1

  0
LINE
  5
132
100
AcDbEntity
  8
measures
  6
ByBlock
 62
    0
370
   -2
100
AcDbLine
 10
344.5978388588391
 20
308.6311343997535
 11
344.5978388588391
 21
329.8111343997519
  0
MTEXT
  5
133
100
AcDbEntity
  8
measures
  6
CONTINUOUS
 62
    0
370
   -2
100
AcDbMText
 10
342.7228388588391
 20
319.2211343997527
 30
0
 40
2.5
 41
6.805555555555555
 71
    5
 72
    1
  1
21,18
  7
STANDARD
210
0
220
0
230
1
 50
90
 73
    2
 44
1
  0
SOLID
  5
134
100
AcDbEntity
  8
measures
  6
ByBlock
 62
    0
370
   -2
100
AcDbTrace
 10
344.5978388588391
 20
308.6311343997535
 30
0
 11
344.1815542010663
 21
311.1311343997535
 31
0
 12
345.014123516612
 22
311.1311343997535
 32
0
 13
345.014123516612
 23
311.1311343997535
 33
0
  0
SOLID
  5
135
100
AcDbEntity
  8
measures
  6
ByBlock
 62
    0
370
   -2
100
AcDbTrace
 10
344.5978388588391
 20
329.8111343997519
 30
0
 11
345.014123516612
 21
327.3111343997519
 31
0
 12
344.1815542010663
 22
327.3111343997519
 32
0
 13
344.1815542010663
 23
327.3111343997519
 33
0
  0
LINE
  5
136
100
AcDbEntity
  8
measures
  6
ByBlock
 62
    0
370
   -2
100
AcDbLine
 10
254.8608490598016
 20
308.6311343997535
 11
345.8478388588391
 21
308.6311343997535
  0
LINE
  5
137
100
AcDbEntity
  8
measures
  6
ByBlock
 62
    0
370
   -2
100
AcDbLine
 10
319.8608490598018
 20
329.8111343997519
 11
345.8478388588391
 21
329.8111343997519
  0
ENDBLK
  5
79
330
77
100
AcDbEntity
  8
0
100
AcDbBlockEnd
  0
BLOCK
  5
7B
330
7A
100
AcDbEntity
  8
0
100
AcDbBlockBegin
  2
*D21
 70
    1
 10
0
 20
0
  3
*D21
  1

  0
LINE
  5
138
100
AcDbEntity
  8
measures
  6
ByBlock
 62
    0
370
   -2
100
AcDbLine
 10
174.235849059801
 20
176.7122840429431
 11
239.2358490598028
 21
176.7122840429431
  0
MTEXT
  5
139
100
AcDbEntity
  8
measures
  6
CONTINUOUS
 62
    0
370
   -2
100
AcDbMText
 10
206.7358490598019
 20
178.5872840429431
 30
0
 40
2.5
 41
3.055555555555866
 71
    5
 72
    1
  1
65
  7
STANDARD
210
0
220
0
230
1
 50
0
 73
    2
 44
1
  0
SOLID
  5
13A
100
AcDbEntity
  8
measures
  6
ByBlock
 62
    0
370
   -2
100
AcDbTrace
 10
174.235849059801
 20
176.7122840429431
 30
0
 11
176.735849059801
 21
177.128568700716
 31
0
 12
176.735849059801
 22
176.2959993851703
 32
0
 13
176.735849059801
 23
176.2959993851703
 33
0
  0
SOLID
  5
13B
100
AcDbEntity
  8
measures
  6
ByBlock
 62
    0
370
   -2
100
AcDbTrace
 10
239.2358490598028
 20
176.7122840429431
 30
0
 11
236.7358490598028
 21
176.2959993851703
 31
0
 12
236.7358490598028
 22
177.128568700716
 32
0
 13
236.7358490598028
 23
177.128568700716
 33
0
  0
LINE
  5
13C
100
AcDbEntity
  8
measures
  6
ByBlock
 62
    0
370
   -2
100
AcDbLine
 10
174.235849059801
 20
184.4109622447004
 11
174.235849059801
 21
175.4622840429431
  0
LINE
  5
13D
100
AcDbEntity
  8
measures
  6
ByBlock
 62
    0
370
   -2
100
AcDbLine
 10
239.2358490598028
 20
189.410962244698
 11
239.2358490598028
 21
175.4622840429431
  0
ENDBLK
  5
7C
330
7A
100
AcDbEntity
  8
0
100
AcDbBlockEnd
  0
BLOCK
  5
7E
330
7D
100
AcDbEntity
  8
0
100
AcDbBlockBegin
  2
*D31
 70
    1
 10
0
 20
0
  3
*D31
  1

  0
LINE
  5
13E
100
AcDbEntity
  8
measures
  6
ByBlock
 62
    0
370
   -2
100
AcDbLine
 10
224.2358490598028
 20
541.6131243999795
 11
254.2358490598016
 21
541.6131243999795
  0
MTEXT
  5
13F
100
AcDbEntity
  8
measures
  6
CONTINUOUS
 62
    0
370
   -2
100
AcDbMText
 10
239.2358490598022
 20
543.4881243999795
 30
0
 40
2.5
 41
3.055555555555711
 71
    5
 72
    1
  1
30
  7
STANDARD
210
0
220
0
230
1
 50
0
 73
    2
 44
1
  0
SOLID
  5
140
100
AcDbEntity
  8
measures
  6
ByBlock
 62
    0
370
   -2
100
AcDbTrace
 10
224.2358490598028
 20
541.6131243999795
 30
0
 11
226.7358490598028
 21
542.0294090577523
 31
0
 12
226.7358490598028
 22
541.1968397422066
 32
0
 13
226.7358490598028
 23
541.1968397422066
 33
0
  0
SOLID
  5
141
100
AcDbEntity
  8
measures
  6
ByBlock
 62
    0
370
   -2
100
AcDbTrace
 10
254.2358490598016
 20
541.6131243999795
 30
0
 11
251.7358490598016
 21
541.1968397422066
 31
0
 12
251.7358490598016
 22
542.0294090577523
 32
0
 13
251.7358490598016
 23
542.0294090577523
 33
0
  0
LINE
  5
142
100
AcDbEntity
  8
measures
  6
ByBlock
 62
    0
370
   -2
100
AcDbLine
 10
224.2358490598028
 20
529.6922923632139
 11
224.2358490598028
 21
542.8631243999795
  0
LINE
  5
143
100
AcDbEntity
  8
measures
  6
ByBlock
 62
    0
370
   -2
100
AcDbLine
 10
254.2358490598016
 20
529.6922923647894
 11
254.2358490598016
 21
542.8631243999795
  0
ENDBLK
  5
7F
330
7D
100
AcDbEntity
  8
0
100
AcDbBlockEnd
  0
BLOCK
  5
81
330
80
100
AcDbEntity
  8
0
100
AcDbBlockBegin
  2
*D1
 70
    1
 10
0
 20
0
  3
*D1
  1

  0
LINE
  5
144
100
AcDbEntity
  8
measures
  6
ByBlock
 62
    0
370
   -2
100
AcDbLine
 10
172.4858490598155
 20
417.1319811570487
 11
335.9858490598025
 21
417.1319811570487
  0
MTEXT
  5
145
100
AcDbEntity
  8
measures
  6
CONTINUOUS
 62
    0
370
   -2
100
AcDbMText
 10
254.235849059809
 20
419.0069811570487
 30
0
 40
2.5
 41
7.361111111111576
 71
    5
 72
    1
  1
163,5
  7
STANDARD
210
0
220
0
230
1
 50
0
 73
    2
 44
1
  0
SOLID
  5
146
100
AcDbEntity
  8
measures
  6
ByBlock
 62
    0
370
   -2
100
AcDbTrace
 10
172.4858490598155
 20
417.1319811570487
 30
0
 11
174.9858490598155
 21
417.5482658148215
 31
0
 12
174.9858490598155
 22
416.7156964992759
 32
0
 13
174.9858490598155
 23
416.7156964992759
 33
0
  0
SOLID
  5
147
100
AcDbEntity
  8
measures
  6
ByBlock
 62
    0
370
   -2
100
AcDbTrace
 10
335.9858490598025
 20
417.1319811570487
 30
0
 11
333.4858490598025
 21
416.7156964992759
 31
0
 12
333.4858490598025
 22
417.5482658148215
 32
0
 13
333.4858490598025
 23
417.5482658148215
 33
0
  0
LINE
  5
148
100
AcDbEntity
  8
measures
  6
ByBlock
 62
    0
370
   -2
100
AcDbLine
 10
172.4858490598155
 20
440.3742619804476
 11
172.4858490598155
 21
415.8819811570487
  0
LINE
  5
149
100
AcDbEntity
  8
measures
  6
ByBlock
 62
    0
370
   -2
100
AcDbLine
 10
335.9858490598025
 20
440.3742619804289
 11
335.9858490598025
 21
415.8819811570487
  0
ENDBLK
  5
82
330
80
100
AcDbEntity
  8
0
100
AcDbBlockEnd
  0
BLOCK
  5
84
330
83
100
AcDbEntity
  8
0
100
AcDbBlockBegin
  2
*D52
 70
    1
 10
0
 20
0
  3
*D52
  1

  0
LINE
  5
14A
100
AcDbEntity
  8
measures
  6
ByBlock
 62
    0
370
   -2
100
AcDbLine
 10
282.2198194628339
 20
657.3834866867088
 11
266.2518786567651
 21
660.1156774585771
  0
MTEXT
  5
14B
100
AcDbEntity
  8
measures
  6
CONTINUOUS
 62
    0
370
   -2
100
AcDbMText
 10
274.5520748435806
 20
660.5977233696417
 30
0
 40
2.5
 41
4.027777777777933
 71
    5
 72
    1
  1
6,2
  7
STANDARD
210
0
220
0
230
1
 50
350.2904454593988
 73
    2
 44
1
  0
SOLID
  5
14C
100
AcDbEntity
  8
measures
  6
ByBlock
 62
    0
370
   -2
100
AcDbTrace
 10
277.2914426708373
 20
658.2267554434583
 30
0
 11
279.8258390359984
 21
658.2154425943299
 31
0
 12
279.6854230976728
 22
657.3947995358371
 32
0
 13
279.6854230976728
 23
657.3947995358371
 33
0
  0
SOLID
  5
14D
100
AcDbEntity
  8
measures
  6
ByBlock
 62
    0
370
   -2
100
AcDbTrace
 10
271.1802554487616
 20
659.2724087018277
 30
0
 11
268.6458590836006
 21
659.283721550956
 31
0
 12
268.7862750219261
 22
660.1043646094488
 32
0
 13
268.7862750219261
 23
660.1043646094488
 33
0
  0
ENDBLK
  5
85
330
83
100
AcDbEntity
  8
0
100
AcDbBlockEnd
  0
BLOCK
  5
87
330
86
100
AcDbEntity
  8
0
100
AcDbBlockBegin
  2
*D8
 70
    1
 10
0
 20
0
  3
*D8
  1

  0
LINE
  5
14E
100
AcDbEntity
  8
measures
  6
ByBlock
 62
    0
370
   -2
100
AcDbLine
 10
345.0527933949769
 20
230.0359622447005
 11
345.0527933949769
 21
185.0359622447006
  0
MTEXT
  5
14F
100
AcDbEntity
  8
measures
  6
CONTINUOUS
 62
    0
370
   -2
100
AcDbMText
 10
343.1777933949769
 20
207.5359622447006
 30
0
 40
2.5
 41
3.333333333333488
 71
    5
 72
    1
  1
45
  7
STANDARD
210
0
220
0
230
1
 50
90
 73
    2
 44
1
  0
SOLID
  5
150
100
AcDbEntity
  8
measures
  6
ByBlock
 62
    0
370
   -2
100
AcDbTrace
 10
345.0527933949769
 20
230.0359622447005
 30
0
 11
345.4690780527498
 21
227.5359622447005
 31
0
 12
344.6365087372041
 22
227.5359622447005
 32
0
 13
344.6365087372041
 23
227.5359622447005
 33
0
  0
SOLID
  5
151
100
AcDbEntity
  8
measures
  6
ByBlock
 62
    0
370
   -2
100
AcDbTrace
 10
345.0527933949769
 20
185.0359622447006
 30
0
 11
344.6365087372041
 21
187.5359622447006
 31
0
 12
345.4690780527498
 22
187.5359622447006
 32
0
 13
345.4690780527498
 23
187.5359622447006
 33
0
  0
LINE
  5
152
100
AcDbEntity
  8
measures
  6
ByBlock
 62
    0
370
   -2
100
AcDbLine
 10
334.8608490598037
 20
230.0359622447005
 11
346.3027933949769
 21
230.0359622447005
  0
LINE
  5
153
100
AcDbEntity
  8
measures
  6
ByBlock
 62
    0
370
   -2
100
AcDbLine
 10
334.8608490598037
 20
185.0359622447006
 11
346.3027933949769
 21
185.0359622447006
  0
ENDBLK
  5
88
330
86
100
AcDbEntity
  8
0
100
AcDbBlockEnd
  0
BLOCK
  5
8A
330
89
100
AcDbEntity
  8
0
100
AcDbBlockBegin
  2
*D19
 70
    1
 10
0
 20
0
  3
*D19
  1

  0
LINE
  5
154
100
AcDbEntity
  8
measures
  6
ByBlock
 62
    0
370
   -2
100
AcDbLine
 10
318.6088686965837
 20
485.2611441599381
 11
327.2920268431535
 21
433.1621952805248
  0
LINE
  5
155
100
AcDbEntity
  8
measures
  6
ByBlock
 62
    0
370
   -2
100
AcDbLine
 10
328.3385984262806
 20
486.8827657815544
 11
337.0217565728504
 21
434.7838169021411
  0
LINE
  5
156
100
AcDbEntity
  8
measures
  6
ByBlock
 62
    0
370
   -2
100
AcDbLine
 10
327.0865281090218
 20
434.395187685315
 11
336.8162578387187
 21
436.0168093069313
  0
MTEXT
  5
157
100
AcDbEntity
  8
measures
  6
CONTINUOUS
 62
    0
370
   -2
100
AcDbMText
 10
331.6431448726727
 20
437.0554871033084
 30
0
 40
2.5
 41
5.972222222222688
 71
    5
 72
    1
  1
9,86
  7
STANDARD
210
0
220
0
230
1
 50
9.46232220802664
 73
    2
 44
1
  0
SOLID
  5
158
100
AcDbEntity
  8
measures
  6
ByBlock
 62
    0
370
   -2
100
AcDbTrace
 10
327.0865281090218
 20
434.395187685315
 30
0
 11
329.4840761424335
 21
435.2168058105901
 31
0
 12
329.6209496947708
 22
434.3955644965667
 32
0
 13
329.6209496947708
 23
434.3955644965667
 33
0
  0
SOLID
  5
159
100
AcDbEntity
  8
measures
  6
ByBlock
 62
    0
370
   -2
100
AcDbTrace
 10
336.8162578387187
 20
436.0168093069313
 30
0
 11
334.4187098053069
 21
435.1951911816562
 31
0
 12
334.2818362529697
 22
436.0164324956795
 32
0
 13
334.2818362529697
 23
436.0164324956795
 33
0
  0
ENDBLK
  5
8B
330
89
100
AcDbEntity
  8
0
100
AcDbBlockEnd
  0
BLOCK
  5
8D
330
8C
100
AcDbEntity
  8
0
100
AcDbBlockBegin
  2
*D33
 70
    1
 10
0
 20
0
  3
*D33
  1

  0
LINE
  5
15A
100
AcDbEntity
  8
measures
  6
ByBlock
 62
    0
370
   -2
100
AcDbLine
 10
320.4858490597995
 20
549.945634006133
 11
187.9858490598517
 21
549.945634006133
  0
MTEXT
  5
15B
100
AcDbEntity
  8
measures
  6
CONTINUOUS
 62
    0
370
   -2
100
AcDbMText
 10
254.2358490598256
 20
551.820634006133
 30
0
 40
2.5
 41
7.361111111111422
 71
    5
 72
    1
  1
132,5
  7
STANDARD
210
0
220
0
230
1
 50
0
 73
    2
 44
1
  0
SOLID
  5
15C
100
AcDbEntity
  8
measures
  6
ByBlock
 62
    0
370
   -2
100
AcDbTrace
 10
320.4858490597995
 20
549.945634006133
 30
0
 11
317.9858490597995
 21
549.5293493483601
 31
0
 12
317.9858490597995
 22
550.3619186639058
 32
0
 13
317.9858490597995
 23
550.3619186639058
 33
0
  0
SOLID
  5
15D
100
AcDbEntity
  8
measures
  6
ByBlock
 62
    0
370
   -2
100
AcDbTrace
 10
187.9858490598517
 20
549.945634006133
 30
0
 11
190.4858490598517
 21
550.3619186639058
 31
0
 12
190.4858490598517
 22
549.5293493483601
 32
0
 13
190.4858490598517
 23
549.5293493483601
 33
0
  0
LINE
  5
15E
100
AcDbEntity
  8
measures
  6
ByBlock
 62
    0
370
   -2
100
AcDbLine
 10
320.4858490597995
 20
534.6242619804347
 11
320.4858490597995
 21
551.195634006133
  0
LINE
  5
15F
100
AcDbEntity
  8
measures
  6
ByBlock
 62
    0
370
   -2
100
AcDbLine
 10
187.9858490598517
 20
534.6242619804291
 11
187.9858490598517
 21
551.195634006133
  0
ENDBLK
  5
8E
330
8C
100
AcDbEntity
  8
0
100
AcDbBlockEnd
  0
BLOCK
  5
90
330
8F
100
AcDbEntity
  8
0
100
AcDbBlockBegin
  2
*D35
 70
    1
 10
0
 20
0
  3
*D35
  1

  0
LINE
  5
160
100
AcDbEntity
  8
measures
  6
ByBlock
 62
    0
370
   -2
100
AcDbLine
 10
180.374243039661
 20
462.1313524408891
 11
168.0251045629552
 21
464.1895421870134
  0
LINE
  5
161
100
AcDbEntity
  8
measures
  6
ByBlock
 62
    0
370
   -2
100
AcDbLine
 10
184.4842177223078
 20
486.7912005366912
 11
172.1350792456021
 21
488.8493902828154
  0
LINE
  5
162
100
AcDbEntity
  8
measures
  6
ByBlock
 62
    0
370
   -2
100
AcDbLine
 10
169.2580969677453
 20
463.9840434528811
 11
173.3680716503922
 21
488.6438915486831
  0
MTEXT
  5
163
100
AcDbEntity
  8
measures
  6
CONTINUOUS
 62
    0
370
   -2
100
AcDbMText
 10
169.4635957018836
 20
476.6222156019805
 30
0
 40
2.5
 41
3.055555555555711
 71
    5
 72
    1
  1
25
  7
STANDARD
210
0
220
0
230
1
 50
80.53767779194453
 73
    2
 44
1
  0
SOLID
  5
164
100
AcDbEntity
  8
measures
  6
ByBlock
 62
    0
370
   -2
100
AcDbTrace
 10
169.2580969677453
 20
463.9840434528811
 30
0
 11
169.2584737789984
 21
466.51846503863
 31
0
 12
170.0797150930217
 22
466.3815914862924
 32
0
 13
170.0797150930217
 23
466.3815914862924
 33
0
  0
SOLID
  5
165
100
AcDbEntity
  8
measures
  6
ByBlock
 62
    0
370
   -2
100
AcDbTrace
 10
173.3680716503922
 20
488.6438915486831
 30
0
 11
173.3676948391392
 21
486.1094699629341
 31
0
 12
172.5464535251159
 22
486.2463435152717
 32
0
 13
172.5464535251159
 23
486.2463435152717
 33
0
  0
ENDBLK
  5
91
330
8F
100
AcDbEntity
  8
0
100
AcDbBlockEnd
  0
BLOCK
  5
93
330
92
100
AcDbEntity
  8
0
100
AcDbBlockBegin
  2
*D10
 70
    1
 10
0
 20
0
  3
*D10
  1

  0
LINE
  5
166
100
AcDbEntity
  8
measures
  6
ByBlock
 62
    0
370
   -2
100
AcDbLine
 10
345.0928616119666
 20
271.6311343997544
 11
345.0928616119666
 21
233.6311343997516
  0
MTEXT
  5
167
100
AcDbEntity
  8
measures
  6
CONTINUOUS
 62
    0
370
   -2
100
AcDbMText
 10
343.2178616119666
 20
252.631134399753
 30
0
 40
2.5
 41
3.055555555555711
 71
    5
 72
    1
  1
38
  7
STANDARD
210
0
220
0
230
1
 50
90
 73
    2
 44
1
  0
SOLID
  5
168
100
AcDbEntity
  8
measures
  6
ByBlock
 62
    0
370
   -2
100
AcDbTrace
 10
345.0928616119666
 20
271.6311343997544
 30
0
 11
345.5091462697395
 21
269.1311343997544
 31
0
 12
344.6765769541938
 22
269.1311343997544
 32
0
 13
344.6765769541938
 23
269.1311343997544
 33
0
  0
SOLID
  5
169
100
AcDbEntity
  8
measures
  6
ByBlock
 62
    0
370
   -2
100
AcDbTrace
 10
345.0928616119666
 20
233.6311343997516
 30
0
 11
344.6765769541938
 21
236.1311343997516
 31
0
 12
345.5091462697395
 22
236.1311343997516
 32
0
 13
345.5091462697395
 23
236.1311343997516
 33
0
  0
LINE
  5
16A
100
AcDbEntity
  8
measures
  6
ByBlock
 62
    0
370
   -2
100
AcDbLine
 10
254.8608490598016
 20
271.6311343997544
 11
346.3428616119666
 21
271.6311343997544
  0
LINE
  5
16B
100
AcDbEntity
  8
measures
  6
ByBlock
 62
    0
370
   -2
100
AcDbLine
 10
334.8608490598019
 20
233.6311343997516
 11
346.3428616119666
 21
233.6311343997516
  0
ENDBLK
  5
94
330
92
100
AcDbEntity
  8
0
100
AcDbBlockEnd
  0
BLOCK
  5
96
330
95
100
AcDbEntity
  8
0
100
AcDbBlockBegin
  2
*D12
 70
    1
 10
0
 20
0
  3
*D12
  1

  0
LINE
  5
16C
100
AcDbEntity
  8
measures
  6
ByBlock
 62
    0
370
   -2
100
AcDbLine
 10
187.9858490598517
 20
706.0153532638514
 11
320.485849058627
 21
706.0153532638514
  0
MTEXT
  5
16D
100
AcDbEntity
  8
measures
  6
CONTINUOUS
 62
    0
370
   -2
100
AcDbMText
 10
254.2358490592393
 20
707.8903532638514
 30
0
 40
2.5
 41
7.361111111111422
 71
    5
 72
    1
  1
132,5
  7
STANDARD
210
0
220
0
230
1
 50
0
 73
    2
 44
1
  0
SOLID
  5
16E
100
AcDbEntity
  8
measures
  6
ByBlock
 62
    0
370
   -2
100
AcDbTrace
 10
187.9858490598517
 20
706.0153532638514
 30
0
 11
190.4858490598517
 21
706.4316379216242
 31
0
 12
190.4858490598517
 22
705.5990686060785
 32
0
 13
190.4858490598517
 23
705.5990686060785
 33
0
  0
SOLID
  5
16F
100
AcDbEntity
  8
measures
  6
ByBlock
 62
    0
370
   -2
100
AcDbTrace
 10
320.485849058627
 20
706.0153532638514
 30
0
 11
317.985849058627
 21
705.5990686060785
 31
0
 12
317.985849058627
 22
706.4316379216242
 32
0
 13
317.985849058627
 23
706.4316379216242
 33
0
  0
LINE
  5
170
100
AcDbEntity
  8
measures
  6
ByBlock
 62
    0
370
   -2
100
AcDbLine
 10
187.9858490598517
 20
694.374582072638
 11
187.9858490598517
 21
707.2653532638514
  0
LINE
  5
171
100
AcDbEntity
  8
measures
  6
ByBlock
 62
    0
370
   -2
100
AcDbLine
 10
320.485849058627
 20
694.3745820796793
 11
320.485849058627
 21
707.2653532638514
  0
ENDBLK
  5
97
330
95
100
AcDbEntity
  8
0
100
AcDbBlockEnd
  0
BLOCK
  5
99
330
98
100
AcDbEntity
  8
0
100
AcDbBlockBegin
  2
*D18
 70
    1
 10
0
 20
0
  3
*D18
  1

  0
LINE
  5
172
100
AcDbEntity
  8
measures
  6
ByBlock
 62
    0
370
   -2
100
AcDbLine
 10
180.3385984268996
 20
488.1157581828336
 11
189.2866814502243
 21
541.8042563226446
  0
LINE
  5
173
100
AcDbEntity
  8
measures
  6
ByBlock
 62
    0
370
   -2
100
AcDbLine
 10
190.0683281566331
 20
486.4941365612073
 11
199.0164111799578
 21
540.1826347010183
  0
LINE
  5
174
100
AcDbEntity
  8
measures
  6
ByBlock
 62
    0
370
   -2
100
AcDbLine
 10
189.0811827160921
 20
540.5712639178545
 11
198.8109124458256
 21
538.9496422962281
  0
MTEXT
  5
175
100
AcDbEntity
  8
measures
  6
CONTINUOUS
 62
    0
370
   -2
100
AcDbMText
 10
194.2542956821569
 20
541.6099417142266
 30
0
 40
2.5
 41
5.972222222222688
 71
    5
 72
    1
  1
9,86
  7
STANDARD
210
0
220
0
230
1
 50
350.537677791951
 73
    2
 44
1
  0
SOLID
  5
176
100
AcDbEntity
  8
measures
  6
ByBlock
 62
    0
370
   -2
100
AcDbTrace
 10
189.0811827160921
 20
540.5712639178545
 30
0
 11
191.615604301841
 21
540.5708871066017
 31
0
 12
191.4787307495035
 22
539.7496457925785
 32
0
 13
191.4787307495035
 23
539.7496457925785
 33
0
  0
SOLID
  5
177
100
AcDbEntity
  8
measures
  6
ByBlock
 62
    0
370
   -2
100
AcDbTrace
 10
198.8109124458256
 20
538.9496422962281
 30
0
 11
196.2764908600766
 21
538.9500191074809
 31
0
 12
196.4133644124142
 22
539.7712604215042
 32
0
 13
196.4133644124142
 23
539.7712604215042
 33
0
  0
ENDBLK
  5
9A
330
98
100
AcDbEntity
  8
0
100
AcDbBlockEnd
  0
BLOCK
  5
9C
330
9B
100
AcDbEntity
  8
0
100
AcDbBlockBegin
  2
*D14
 70
    1
 10
0
 20
0
  3
*D14
  1

  0
LINE
  5
178
100
AcDbEntity
  8
measures
  6
ByBlock
 62
    0
370
   -2
100
AcDbLine
 10
171.8693528574206
 20
600.8523314397225
 11
152.9044786998903
 21
604.013143799319
  0
LINE
  5
179
100
AcDbEntity
  8
measures
  6
ByBlock
 62
    0
370
   -2
100
AcDbLine
 10
187.3693528574566
 20
693.8523314397041
 11
168.4044786999264
 21
697.0131437993006
  0
LINE
  5
17A
100
AcDbEntity
  8
measures
  6
ByBlock
 62
    0
370
   -2
100
AcDbLine
 10
154.1374711046804
 20
603.8076450651868
 11
169.6374711047165
 21
696.8076450651683
  0
MTEXT
  5
17B
100
AcDbEntity
  8
measures
  6
CONTINUOUS
 62
    0
370
   -2
100
AcDbMText
 10
160.0379824975132
 20
650.6158931663761
 30
0
 40
2.5
 41
8.194444444444756
 71
    5
 72
    1
  1
94,28
  7
STANDARD
210
0
220
0
230
1
 50
80.53767779195091
 73
    2
 44
1
  0
SOLID
  5
17C
100
AcDbEntity
  8
measures
  6
ByBlock
 62
    0
370
   -2
100
AcDbTrace
 10
154.1374711046804
 20
603.8076450651868
 30
0
 11
154.1378479159332
 21
606.3420666509357
 31
0
 12
154.9590892299564
 22
606.2051930985982
 32
0
 13
154.9590892299564
 23
606.2051930985982
 33
0
  0
SOLID
  5
17D
100
AcDbEntity
  8
measures
  6
ByBlock
 62
    0
370
   -2
100
AcDbTrace
 10
169.6374711047165
 20
696.8076450651683
 30
0
 11
169.6370942934637
 21
694.2732234794194
 31
0
 12
168.8158529794405
 22
694.4100970317569
 32
0
 13
168.8158529794405
 23
694.4100970317569
 33
0
  0
ENDBLK
  5
9D
330
9B
100
AcDbEntity
  8
0
100
AcDbBlockEnd
  0
BLOCK
  5
9F
330
9E
100
AcDbEntity
  8
0
100
AcDbBlockBegin
  2
*D23
 70
    1
 10
0
 20
0
  3
*D23
  1

  0
LINE
  5
17E
100
AcDbEntity
  8
measures
  6
ByBlock
 62
    0
370
   -2
100
AcDbLine
 10
269.2358490598003
 20
177.1071718285139
 11
334.2358490598037
 21
177.1071718285139
  0
MTEXT
  5
17F
100
AcDbEntity
  8
measures
  6
CONTINUOUS
 62
    0
370
   -2
100
AcDbMText
 10
301.735849059802
 20
178.9821718285139
 30
0
 40
2.5
 41
3.055555555555866
 71
    5
 72
    1
  1
65
  7
STANDARD
210
0
220
0
230
1
 50
0
 73
    2
 44
1
  0
SOLID
  5
180
100
AcDbEntity
  8
measures
  6
ByBlock
 62
    0
370
   -2
100
AcDbTrace
 10
269.2358490598003
 20
177.1071718285139
 30
0
 11
271.7358490598003
 21
177.5234564862868
 31
0
 12
271.7358490598003
 22
176.6908871707411
 32
0
 13
271.7358490598003
 23
176.6908871707411
 33
0
  0
SOLID
  5
181
100
AcDbEntity
  8
measures
  6
ByBlock
 62
    0
370
   -2
100
AcDbTrace
 10
334.2358490598037
 20
177.1071718285139
 30
0
 11
331.7358490598037
 21
176.6908871707411
 31
0
 12
331.7358490598037
 22
177.5234564862868
 32
0
 13
331.7358490598037
 23
177.5234564862868
 33
0
  0
LINE
  5
182
100
AcDbEntity
  8
measures
  6
ByBlock
 62
    0
370
   -2
100
AcDbLine
 10
269.2358490598003
 20
189.4109622446984
 11
269.2358490598003
 21
175.8571718285139
  0
LINE
  5
183
100
AcDbEntity
  8
measures
  6
ByBlock
 62
    0
370
   -2
100
AcDbLine
 10
334.2358490598037
 20
184.4109622447006
 11
334.2358490598037
 21
175.8571718285139
  0
ENDBLK
  5
A0
330
9E
100
AcDbEntity
  8
0
100
AcDbBlockEnd
  0
BLOCK
  5
A2
330
A1
100
AcDbEntity
  8
0
100
AcDbBlockBegin
  2
*D43
 70
    1
 10
0
 20
0
  3
*D43
  1

  0
LINE
  5
184
100
AcDbEntity
  8
measures
  6
ByBlock
 62
    0
370
   -2
100
AcDbLine
 10
418.0380461968028
 20
258.8360423598306
 11
423.004191318842
 21
271.0662264396735
  0
MTEXT
  5
185
100
AcDbEntity
  8
measures
  6
CONTINUOUS
 62
    0
370
   -2
100
AcDbMText
 10
420.3786446842403
 20
269.5840066352775
 30
0
 40
2.5
 41
4.027777777777933
 71
    5
 72
    1
  1
3,2
  7
STANDARD
210
0
220
0
230
1
 50
67.90007098106713
 73
    2
 44
1
  0
SOLID
  5
186
100
AcDbEntity
  8
measures
  6
ByBlock
 62
    0
370
   -2
100
AcDbTrace
 10
419.9191617733328
 20
263.4686878446196
 30
0
 11
419.3643038331115
 21
260.9957491914237
 31
0
 12
418.5929041370242
 22
261.3089810130264
 32
0
 13
418.5929041370242
 23
261.3089810130264
 33
0
  0
SOLID
  5
187
100
AcDbEntity
  8
measures
  6
ByBlock
 62
    0
370
   -2
100
AcDbTrace
 10
421.123075742312
 20
266.4335809548845
 30
0
 11
421.6779336825333
 21
268.9065196080804
 31
0
 12
422.4493333786206
 22
268.5932877864777
 32
0
 13
422.4493333786206
 23
268.5932877864777
 33
0
  0
ENDBLK
  5
A3
330
A1
100
AcDbEntity
  8
0
100
AcDbBlockEnd
  0
BLOCK
  5
A5
330
A4
100
AcDbEntity
  8
0
100
AcDbBlockBegin
  2
*D7
 70
    1
 10
0
 20
0
  3
*D7
  1

  0
LINE
  5
188
100
AcDbEntity
  8
measures
  6
ByBlock
 62
    0
370
   -2
100
AcDbLine
 10
369.8092500003183
 20
329.8111343997519
 11
369.8092500003183
 21
233.6311343997519
  0
MTEXT
  5
189
100
AcDbEntity
  8
measures
  6
CONTINUOUS
 62
    0
370
   -2
100
AcDbMText
 10
367.9342500003183
 20
281.7211343997519
 30
0
 40
2.5
 41
7.361111111111576
 71
    5
 72
    1
  1
96,18
  7
STANDARD
210
0
220
0
230
1
 50
90
 73
    2
 44
1
  0
SOLID
  5
18A
100
AcDbEntity
  8
measures
  6
ByBlock
 62
    0
370
   -2
100
AcDbTrace
 10
369.8092500003183
 20
329.8111343997519
 30
0
 11
370.2255346580911
 21
327.3111343997519
 31
0
 12
369.3929653425454
 22
327.3111343997519
 32
0
 13
369.3929653425454
 23
327.3111343997519
 33
0
  0
SOLID
  5
18B
100
AcDbEntity
  8
measures
  6
ByBlock
 62
    0
370
   -2
100
AcDbTrace
 10
369.8092500003183
 20
233.6311343997519
 30
0
 11
369.3929653425454
 21
236.1311343997519
 31
0
 12
370.2255346580911
 22
236.1311343997519
 32
0
 13
370.2255346580911
 23
236.1311343997519
 33
0
  0
LINE
  5
18C
100
AcDbEntity
  8
measures
  6
ByBlock
 62
    0
370
   -2
100
AcDbLine
 10
379.8961187578205
 20
329.8111343997519
 11
368.5592500003183
 21
329.8111343997519
  0
LINE
  5
18D
100
AcDbEntity
  8
measures
  6
ByBlock
 62
    0
370
   -2
100
AcDbLine
 10
379.8961187578205
 20
233.6311343997519
 11
368.5592500003183
 21
233.6311343997519
  0
ENDBLK
  5
A6
330
A4
100
AcDbEntity
  8
0
100
AcDbBlockEnd
  0
BLOCK
  5
A8
330
A7
100
AcDbEntity
  8
0
100
AcDbBlockBegin
  2
*D16
 70
    1
 10
0
 20
0
  3
*D16
  1

  0
LINE
  5
18E
100
AcDbEntity
  8
measures
  6
ByBlock
 62
    0
370
   -2
100
AcDbLine
 10
348.1897381564513
 20
440.99926198043
 11
348.1897381564513
 21
450.8632012187545
  0
MTEXT
  5
18F
100
AcDbEntity
  8
measures
  6
CONTINUOUS
 62
    0
370
   -2
100
AcDbMText
 10
346.3147381564513
 20
445.9312315995923
 30
0
 40
2.5
 41
5.972222222222688
 71
    5
 72
    1
  1
9,86
  7
STANDARD
210
0
220
0
230
1
 50
90
 73
    2
 44
1
  0
SOLID
  5
190
100
AcDbEntity
  8
measures
  6
ByBlock
 62
    0
370
   -2
100
AcDbTrace
 10
348.1897381564513
 20
440.99926198043
 30
0
 11
347.7734534986785
 21
443.49926198043
 31
0
 12
348.6060228142242
 22
443.49926198043
 32
0
 13
348.6060228142242
 23
443.49926198043
 33
0
  0
SOLID
  5
191
100
AcDbEntity
  8
measures
  6
ByBlock
 62
    0
370
   -2
100
AcDbTrace
 10
348.1897381564513
 20
450.8632012187545
 30
0
 11
348.6060228142242
 21
448.3632012187545
 31
0
 12
347.7734534986785
 22
448.3632012187545
 32
0
 13
347.7734534986785
 23
448.3632012187545
 33
0
  0
LINE
  5
192
100
AcDbEntity
  8
measures
  6
ByBlock
 62
    0
370
   -2
100
AcDbLine
 10
326.6108490598696
 20
440.99926198043
 11
349.4397381564513
 21
440.99926198043
  0
LINE
  5
193
100
AcDbEntity
  8
measures
  6
ByBlock
 62
    0
370
   -2
100
AcDbLine
 10
324.9668591868079
 20
450.8632012187545
 11
349.4397381564513
 21
450.8632012187545
  0
ENDBLK
  5
A9
330
A7
100
AcDbEntity
  8
0
100
AcDbBlockEnd
  0
BLOCK
  5
AB
330
AA
100
AcDbEntity
  8
0
100
AcDbBlockBegin
  2
*D26
 70
    1
 10
0
 20
0
  3
*D26
  1

  0
LINE
  5
194
100
AcDbEntity
  8
measures
  6
ByBlock
 62
    0
370
   -2
100
AcDbLine
 10
269.2358490598025
 20
395.3334164368399
 11
319.2358490598018
 21
395.3334164368399
  0
MTEXT
  5
195
100
AcDbEntity
  8
measures
  6
CONTINUOUS
 62
    0
370
   -2
100
AcDbMText
 10
294.2358490598021
 20
397.2084164368399
 30
0
 40
2.5
 41
3.055555555555711
 71
    5
 72
    1
  1
50
  7
STANDARD
210
0
220
0
230
1
 50
0
 73
    2
 44
1
  0
SOLID
  5
196
100
AcDbEntity
  8
measures
  6
ByBlock
 62
    0
370
   -2
100
AcDbTrace
 10
269.2358490598025
 20
395.3334164368399
 30
0
 11
271.7358490598025
 21
395.7497010946128
 31
0
 12
271.7358490598025
 22
394.9171317790671
 32
0
 13
271.7358490598025
 23
394.9171317790671
 33
0
  0
SOLID
  5
197
100
AcDbEntity
  8
measures
  6
ByBlock
 62
    0
370
   -2
100
AcDbTrace
 10
319.2358490598018
 20
395.3334164368399
 30
0
 11
316.7358490598018
 21
394.9171317790671
 31
0
 12
316.7358490598018
 22
395.7497010946128
 32
0
 13
316.7358490598018
 23
395.7497010946128
 33
0
  0
LINE
  5
198
100
AcDbEntity
  8
measures
  6
ByBlock
 62
    0
370
   -2
100
AcDbLine
 10
269.2358490598025
 20
384.3536147620172
 11
269.2358490598025
 21
396.5834164368399
  0
LINE
  5
199
100
AcDbEntity
  8
measures
  6
ByBlock
 62
    0
370
   -2
100
AcDbLine
 10
319.2358490598018
 20
389.3536147620185
 11
319.2358490598018
 21
396.5834164368399
  0
ENDBLK
  5
AC
330
AA
100
AcDbEntity
  8
0
100
AcDbBlockEnd
  0
BLOCK
  5
AE
330
AD
100
AcDbEntity
  8
0
100
AcDbBlockBegin
  2
*D22
 70
    1
 10
0
 20
0
  3
*D22
  1

  0
LINE
  5
19A
100
AcDbEntity
  8
measures
  6
ByBlock
 62
    0
370
   -2
100
AcDbLine
 10
239.2358490598028
 20
176.9097279357285
 11
269.2358490598003
 21
176.9097279357285
  0
MTEXT
  5
19B
100
AcDbEntity
  8
measures
  6
CONTINUOUS
 62
    0
370
   -2
100
AcDbMText
 10
254.2358490598016
 20
178.7847279357285
 30
0
 40
2.5
 41
3.055555555555711
 71
    5
 72
    1
  1
30
  7
STANDARD
210
0
220
0
230
1
 50
0
 73
    2
 44
1
  0
SOLID
  5
19C
100
AcDbEntity
  8
measures
  6
ByBlock
 62
    0
370
   -2
100
AcDbTrace
 10
239.2358490598028
 20
176.9097279357285
 30
0
 11
241.7358490598028
 21
177.3260125935014
 31
0
 12
241.7358490598028
 22
176.4934432779557
 32
0
 13
241.7358490598028
 23
176.4934432779557
 33
0
  0
SOLID
  5
19D
100
AcDbEntity
  8
measures
  6
ByBlock
 62
    0
370
   -2
100
AcDbTrace
 10
269.2358490598003
 20
176.9097279357285
 30
0
 11
266.7358490598003
 21
176.4934432779557
 31
0
 12
266.7358490598003
 22
177.3260125935014
 32
0
 13
266.7358490598003
 23
177.3260125935014
 33
0
  0
LINE
  5
19E
100
AcDbEntity
  8
measures
  6
ByBlock
 62
    0
370
   -2
100
AcDbLine
 10
239.2358490598028
 20
189.410962244698
 11
239.2358490598028
 21
175.6597279357285
  0
LINE
  5
19F
100
AcDbEntity
  8
measures
  6
ByBlock
 62
    0
370
   -2
100
AcDbLine
 10
269.2358490598003
 20
189.4109622446984
 11
269.2358490598003
 21
175.6597279357285
  0
ENDBLK
  5
AF
330
AD
100
AcDbEntity
  8
0
100
AcDbBlockEnd
  0
BLOCK
  5
B1
330
B0
100
AcDbEntity
  8
0
100
AcDbBlockBegin
  2
*D50
 70
    1
 10
0
 20
0
  3
*D50
  1

  0
LINE
  5
1A0
100
AcDbEntity
  8
measures
  6
ByBlock
 62
    0
370
   -2
100
AcDbLine
 10
179.7340068517246
 20
481.3071450834742
 11
190.4674209976812
 21
492.0697572557759
  0
MTEXT
  5
1A1
100
AcDbEntity
  8
measures
  6
CONTINUOUS
 62
    0
370
   -2
100
AcDbMText
 10
183.7730890679223
 20
488.0124742961822
 30
0
 40
2.5
 41
4.027777777777933
 71
    5
 72
    1
  1
5,2
  7
STANDARD
210
0
220
0
230
1
 50
45.0778247396089
 73
    2
 44
1
  0
SOLID
  5
1A2
100
AcDbEntity
  8
measures
  6
ByBlock
 62
    0
370
   -2
100
AcDbTrace
 10
183.2647351892103
 20
484.8474780348892
 30
0
 11
181.7941282786838
 21
482.7833539516499
 31
0
 12
181.2046137622511
 22
483.3712691667135
 32
0
 13
181.2046137622511
 23
483.3712691667135
 33
0
  0
SOLID
  5
1A3
100
AcDbEntity
  8
measures
  6
ByBlock
 62
    0
370
   -2
100
AcDbTrace
 10
186.9366926601955
 20
488.5294243043608
 30
0
 11
188.407299570722
 21
490.5935483876002
 31
0
 12
188.9968140871547
 22
490.0056331725365
 32
0
 13
188.9968140871547
 23
490.0056331725365
 33
0
  0
ENDBLK
  5
B2
330
B0
100
AcDbEntity
  8
0
100
AcDbBlockEnd
  0
BLOCK
  5
B4
330
B3
100
AcDbEntity
  8
0
100
AcDbBlockBegin
  2
*D40
 70
    1
 10
0
 20
0
  3
*D40
  1

  0
LINE
  5
1A4
100
AcDbEntity
  8
measures
  6
ByBlock
 62
    0
370
   -2
100
AcDbLine
 10
244.8967911109655
 20
380.3354252457485
 11
233.57490700863
 21
387.1218042782872
  0
MTEXT
  5
1A5
100
AcDbEntity
  8
measures
  6
CONTINUOUS
 62
    0
370
   -2
100
AcDbMText
 10
243.8355967422741
 20
383.1575409752802
 30
0
 40
2.5
 41
4.027777777777933
 71
    5
 72
    1
  1
3,2
  7
STANDARD
210
0
220
0
230
1
 50
329.061372453497
 73
    2
 44
1
  0
SOLID
  5
1A6
100
AcDbEntity
  8
measures
  6
ByBlock
 62
    0
370
   -2
100
AcDbTrace
 10
240.6081986479596
 20
382.9060233641344
 30
0
 11
242.9665149910593
 21
381.9777793540994
 31
0
 12
242.5384747678658
 22
381.2636692557836
 32
0
 13
242.5384747678658
 23
381.2636692557836
 33
0
  0
SOLID
  5
1A7
100
AcDbEntity
  8
measures
  6
ByBlock
 62
    0
370
   -2
100
AcDbTrace
 10
237.8634994716359
 20
384.5512061599013
 30
0
 11
235.5051831285362
 21
385.4794501699363
 31
0
 12
235.9332233517297
 22
386.1935602682522
 32
0
 13
235.9332233517297
 23
386.1935602682522
 33
0
  0
ENDBLK
  5
B5
330
B3
100
AcDbEntity
  8
0
100
AcDbBlockEnd
  0
BLOCK
  5
B7
330
B6
100
AcDbEntity
  8
0
100
AcDbBlockBegin
  2
*D9
 70
    1
 10
0
 20
0
  3
*D9
  1

  0
LINE
  5
1A8
100
AcDbEntity
  8
measures
  6
ByBlock
 62
    0
370
   -2
100
AcDbLine
 10
344.802513055594
 20
308.6311343997535
 11
344.802513055594
 21
271.6311343997544
  0
MTEXT
  5
1A9
100
AcDbEntity
  8
measures
  6
CONTINUOUS
 62
    0
370
   -2
100
AcDbMText
 10
342.927513055594
 20
290.1311343997539
 30
0
 40
2.5
 41
3.055555555555711
 71
    5
 72
    1
  1
37
  7
STANDARD
210
0
220
0
230
1
 50
90
 73
    2
 44
1
  0
SOLID
  5
1AA
100
AcDbEntity
  8
measures
  6
ByBlock
 62
    0
370
   -2
100
AcDbTrace
 10
344.802513055594
 20
308.6311343997535
 30
0
 11
345.2187977133668
 21
306.1311343997535
 31
0
 12
344.3862283978211
 22
306.1311343997535
 32
0
 13
344.3862283978211
 23
306.1311343997535
 33
0
  0
SOLID
  5
1AB
100
AcDbEntity
  8
measures
  6
ByBlock
 62
    0
370
   -2
100
AcDbTrace
 10
344.802513055594
 20
271.6311343997544
 30
0
 11
344.3862283978211
 21
274.1311343997544
 31
0
 12
345.2187977133668
 22
274.1311343997544
 32
0
 13
345.2187977133668
 23
274.1311343997544
 33
0
  0
LINE
  5
1AC
100
AcDbEntity
  8
measures
  6
ByBlock
 62
    0
370
   -2
100
AcDbLine
 10
254.8608490598016
 20
308.6311343997535
 11
346.052513055594
 21
308.6311343997535
  0
LINE
  5
1AD
100
AcDbEntity
  8
measures
  6
ByBlock
 62
    0
370
   -2
100
AcDbLine
 10
254.8608490598016
 20
271.6311343997544
 11
346.052513055594
 21
271.6311343997544
  0
ENDBLK
  5
B8
330
B6
100
AcDbEntity
  8
0
100
AcDbBlockEnd
  0
BLOCK
  5
BA
330
B9
100
AcDbEntity
  8
0
100
AcDbBlockBegin
  2
*D27
 70
    1
 10
0
 20
0
  3
*D27
  1

  0
LINE
  5
1AE
100
AcDbEntity
  8
measures
  6
ByBlock
 62
    0
370
   -2
100
AcDbLine
 10
189.235849059802
 20
336.4186351709766
 11
254.2358490598016
 21
336.4186351709766
  0
MTEXT
  5
1AF
100
AcDbEntity
  8
measures
  6
CONTINUOUS
 62
    0
370
   -2
100
AcDbMText
 10
221.7358490598018
 20
338.2936351709766
 30
0
 40
2.5
 41
3.055555555555866
 71
    5
 72
    1
  1
65
  7
STANDARD
210
0
220
0
230
1
 50
0
 73
    2
 44
1
  0
SOLID
  5
1B0
100
AcDbEntity
  8
measures
  6
ByBlock
 62
    0
370
   -2
100
AcDbTrace
 10
189.235849059802
 20
336.4186351709766
 30
0
 11
191.735849059802
 21
336.8349198287494
 31
0
 12
191.735849059802
 22
336.0023505132037
 32
0
 13
191.735849059802
 23
336.0023505132037
 33
0
  0
SOLID
  5
1B1
100
AcDbEntity
  8
measures
  6
ByBlock
 62
    0
370
   -2
100
AcDbTrace
 10
254.2358490598016
 20
336.4186351709766
 30
0
 11
251.7358490598016
 21
336.0023505132037
 31
0
 12
251.7358490598016
 22
336.8349198287494
 32
0
 13
251.7358490598016
 23
336.8349198287494
 33
0
  0
LINE
  5
1B2
100
AcDbEntity
  8
measures
  6
ByBlock
 62
    0
370
   -2
100
AcDbLine
 10
189.235849059802
 20
330.4361343997519
 11
189.235849059802
 21
337.6686351709766
  0
LINE
  5
1B3
100
AcDbEntity
  8
measures
  6
ByBlock
 62
    0
370
   -2
100
AcDbLine
 10
254.2358490598016
 20
309.2561343997535
 11
254.2358490598016
 21
337.6686351709766
  0
ENDBLK
  5
BB
330
B9
100
AcDbEntity
  8
0
100
AcDbBlockEnd
  0
BLOCK
  5
BD
330
BC
100
AcDbEntity
  8
0
100
AcDbBlockBegin
  2
*D28
 70
    1
 10
0
 20
0
  3
*D28
  1

  0
LINE
  5
1B4
100
AcDbEntity
  8
measures
  6
ByBlock
 62
    0
370
   -2
100
AcDbLine
 10
254.2358490598016
 20
336.4186351709766
 11
319.2358490598018
 21
336.4186351709766
  0
MTEXT
  5
1B5
100
AcDbEntity
  8
measures
  6
CONTINUOUS
 62
    0
370
   -2
100
AcDbMText
 10
286.7358490598017
 20
338.2936351709766
 30
0
 40
2.5
 41
3.055555555555866
 71
    5
 72
    1
  1
65
  7
STANDARD
210
0
220
0
230
1
 50
0
 73
    2
 44
1
  0
SOLID
  5
1B6
100
AcDbEntity
  8
measures
  6
ByBlock
 62
    0
370
   -2
100
AcDbTrace
 10
254.2358490598016
 20
336.4186351709766
 30
0
 11
256.7358490598016
 21
336.8349198287494
 31
0
 12
256.7358490598016
 22
336.0023505132037
 32
0
 13
256.7358490598016
 23
336.0023505132037
 33
0
  0
SOLID
  5
1B7
100
AcDbEntity
  8
measures
  6
ByBlock
 62
    0
370
   -2
100
AcDbTrace
 10
319.2358490598018
 20
336.4186351709766
 30
0
 11
316.7358490598018
 21
336.0023505132037
 31
0
 12
316.7358490598018
 22
336.8349198287494
 32
0
 13
316.7358490598018
 23
336.8349198287494
 33
0
  0
LINE
  5
1B8
100
AcDbEntity
  8
measures
  6
ByBlock
 62
    0
370
   -2
100
AcDbLine
 10
254.2358490598016
 20
309.2561343997535
 11
254.2358490598016
 21
337.6686351709766
  0
LINE
  5
1B9
100
AcDbEntity
  8
measures
  6
ByBlock
 62
    0
370
   -2
100
AcDbLine
 10
319.2358490598018
 20
330.4361343997519
 11
319.2358490598018
 21
337.6686351709766
  0
ENDBLK
  5
BE
330
BC
100
AcDbEntity
  8
0
100
AcDbBlockEnd
  0
BLOCK
  5
C0
330
BF
100
AcDbEntity
  8
0
100
AcDbBlockBegin
  2
*D20
 70
    1
 10
0
 20
0
  3
*D20
  1

  0
LINE
  5
1BA
100
AcDbEntity
  8
measures
  6
ByBlock
 62
    0
370
   -2
100
AcDbLine
 10
445.8283099094496
 20
233.6311343997519
 11
445.8283099094496
 21
324.9111343997516
  0
MTEXT
  5
1BB
100
AcDbEntity
  8
measures
  6
CONTINUOUS
 62
    0
370
   -2
100
AcDbMText
 10
443.9533099094496
 20
279.2711343997518
 30
0
 40
2.5
 41
7.361111111111422
 71
    5
 72
    1
  1
91,28
  7
STANDARD
210
0
220
0
230
1
 50
90
 73
    2
 44
1
  0
SOLID
  5
1BC
100
AcDbEntity
  8
measures
  6
ByBlock
 62
    0
370
   -2
100
AcDbTrace
 10
445.8283099094496
 20
233.6311343997519
 30
0
 11
445.4120252516768
 21
236.1311343997519
 31
0
 12
446.2445945672225
 22
236.1311343997519
 32
0
 13
446.2445945672225
 23
236.1311343997519
 33
0
  0
SOLID
  5
1BD
100
AcDbEntity
  8
measures
  6
ByBlock
 62
    0
370
   -2
100
AcDbTrace
 10
445.8283099094496
 20
324.9111343997516
 30
0
 11
446.2445945672225
 21
322.4111343997516
 31
0
 12
445.4120252516768
 22
322.4111343997516
 32
0
 13
445.4120252516768
 23
322.4111343997516
 33
0
  0
LINE
  5
1BE
100
AcDbEntity
  8
measures
  6
ByBlock
 62
    0
370
   -2
100
AcDbLine
 10
426.1461187578211
 20
233.6311343997519
 11
447.0783099094496
 21
233.6311343997519
  0
LINE
  5
1BF
100
AcDbEntity
  8
measures
  6
ByBlock
 62
    0
370
   -2
100
AcDbLine
 10
426.1461187578211
 20
324.9111343997516
 11
447.0783099094496
 21
324.9111343997516
  0
ENDBLK
  5
C1
330
BF
100
AcDbEntity
  8
0
100
AcDbBlockEnd
  0
BLOCK
  5
C3
330
C2
100
AcDbEntity
  8
0
100
AcDbBlockBegin
  2
*D32
 70
    1
 10
0
 20
0
  3
*D32
  1

  0
LINE
  5
1C0
100
AcDbEntity
  8
measures
  6
ByBlock
 62
    0
370
   -2
100
AcDbLine
 10
254.2358490598016
 20
541.6131243999795
 11
284.2358490598004
 21
541.6131243999795
  0
MTEXT
  5
1C1
100
AcDbEntity
  8
measures
  6
CONTINUOUS
 62
    0
370
   -2
100
AcDbMText
 10
269.235849059801
 20
543.4881243999795
 30
0
 40
2.5
 41
3.055555555555711
 71
    5
 72
    1
  1
30
  7
STANDARD
210
0
220
0
230
1
 50
0
 73
    2
 44
1
  0
SOLID
  5
1C2
100
AcDbEntity
  8
measures
  6
ByBlock
 62
    0
370
   -2
100
AcDbTrace
 10
254.2358490598016
 20
541.6131243999795
 30
0
 11
256.7358490598016
 21
542.0294090577523
 31
0
 12
256.7358490598016
 22
541.1968397422066
 32
0
 13
256.7358490598016
 23
541.1968397422066
 33
0
  0
SOLID
  5
1C3
100
AcDbEntity
  8
measures
  6
ByBlock
 62
    0
370
   -2
100
AcDbTrace
 10
284.2358490598004
 20
541.6131243999795
 30
0
 11
281.7358490598004
 21
541.1968397422066
 31
0
 12
281.7358490598004
 22
542.0294090577523
 32
0
 13
281.7358490598004
 23
542.0294090577523
 33
0
  0
LINE
  5
1C4
100
AcDbEntity
  8
measures
  6
ByBlock
 62
    0
370
   -2
100
AcDbLine
 10
254.2358490598016
 20
529.6922923647894
 11
254.2358490598016
 21
542.8631243999795
  0
LINE
  5
1C5
100
AcDbEntity
  8
measures
  6
ByBlock
 62
    0
370
   -2
100
AcDbLine
 10
284.2358490598004
 20
529.692292366365
 11
284.2358490598004
 21
542.8631243999795
  0
ENDBLK
  5
C4
330
C2
100
AcDbEntity
  8
0
100
AcDbBlockEnd
  0
BLOCK
  5
C6
330
C5
100
AcDbEntity
  8
0
100
AcDbBlockBegin
  2
*D5
 70
    1
 10
0
 20
0
  3
*D5
  1

  0
LINE
  5
1C6
100
AcDbEntity
  8
measures
  6
ByBlock
 62
    0
370
   -2
100
AcDbLine
 10
133.3813702483724
 20
220.3570994719297
 11
88.38137024837192
 21
220.3570994719297
  0
MTEXT
  5
1C7
100
AcDbEntity
  8
measures
  6
CONTINUOUS
 62
    0
370
   -2
100
AcDbMText
 10
110.8813702483722
 20
222.2320994719297
 30
0
 40
2.5
 41
3.333333333333488
 71
    5
 72
    1
  1
45
  7
STANDARD
210
0
220
0
230
1
 50
0
 73
    2
 44
1
  0
SOLID
  5
1C8
100
AcDbEntity
  8
measures
  6
ByBlock
 62
    0
370
   -2
100
AcDbTrace
 10
133.3813702483724
 20
220.3570994719297
 30
0
 11
130.8813702483724
 21
219.9408148141569
 31
0
 12
130.8813702483724
 22
220.7733841297025
 32
0
 13
130.8813702483724
 23
220.7733841297025
 33
0
  0
SOLID
  5
1C9
100
AcDbEntity
  8
measures
  6
ByBlock
 62
    0
370
   -2
100
AcDbTrace
 10
88.38137024837192
 20
220.3570994719297
 30
0
 11
90.88137024837192
 21
220.7733841297025
 31
0
 12
90.88137024837192
 22
219.9408148141569
 32
0
 13
90.88137024837192
 23
219.9408148141569
 33
0
  0
LINE
  5
1CA
100
AcDbEntity
  8
measures
  6
ByBlock
 62
    0
370
   -2
100
AcDbLine
 10
133.3813702483724
 20
233.0061343997519
 11
133.3813702483724
 21
219.1070994719297
  0
LINE
  5
1CB
100
AcDbEntity
  8
measures
  6
ByBlock
 62
    0
370
   -2
100
AcDbLine
 10
88.38137024837192
 20
233.0061343997519
 11
88.38137024837192
 21
219.1070994719297
  0
ENDBLK
  5
C7
330
C5
100
AcDbEntity
  8
0
100
AcDbBlockEnd
  0
BLOCK
  5
C9
330
C8
100
AcDbEntity
  8
0
100
AcDbBlockBegin
  2
*D34
 70
    1
 10
0
 20
0
  3
*D34
  1

  0
LINE
  5
1CC
100
AcDbEntity
  8
measures
  6
ByBlock
 62
    0
370
   -2
100
AcDbLine
 10
176.8693528574204
 20
441.1020113475132
 11
164.452975296031
 21
443.1714076077513
  0
LINE
  5
1CD
100
AcDbEntity
  8
measures
  6
ByBlock
 62
    0
370
   -2
100
AcDbLine
 10
180.374243039661
 20
462.1313524408891
 11
167.9578654782716
 21
464.2007487011273
  0
LINE
  5
1CE
100
AcDbEntity
  8
measures
  6
ByBlock
 62
    0
370
   -2
100
AcDbLine
 10
165.6859677008211
 20
442.965908873619
 11
169.1908578830617
 21
463.995249966995
  0
MTEXT
  5
1CF
100
AcDbEntity
  8
measures
  6
CONTINUOUS
 62
    0
370
   -2
100
AcDbMText
 10
165.5889241847563
 20
453.7888275215055
 30
0
 40
2.5
 41
7.361111111111267
 71
    5
 72
    1
  1
21,32
  7
STANDARD
210
0
220
0
230
1
 50
80.53767779194446
 73
    2
 44
1
  0
SOLID
  5
1D0
100
AcDbEntity
  8
measures
  6
ByBlock
 62
    0
370
   -2
100
AcDbTrace
 10
165.6859677008211
 20
442.965908873619
 30
0
 11
165.6863445120741
 21
445.500330459368
 31
0
 12
166.5075858260974
 22
445.3634569070304
 32
0
 13
166.5075858260974
 23
445.3634569070304
 33
0
  0
SOLID
  5
1D1
100
AcDbEntity
  8
measures
  6
ByBlock
 62
    0
370
   -2
100
AcDbTrace
 10
169.1908578830617
 20
463.995249966995
 30
0
 11
169.1904810718087
 21
461.460828381246
 31
0
 12
168.3692397577854
 22
461.5977019335837
 32
0
 13
168.3692397577854
 23
461.5977019335837
 33
0
  0
ENDBLK
  5
CA
330
C8
100
AcDbEntity
  8
0
100
AcDbBlockEnd
  0
BLOCK
  5
CC
330
CB
100
AcDbEntity
  8
0
100
AcDbBlockBegin
  2
*D42
 70
    1
 10
0
 20
0
  3
*D42
  1

  0
LINE
  5
1D2
100
AcDbEntity
  8
measures
  6
ByBlock
 62
    0
370
   -2
100
AcDbLine
 10
88.77423371786108
 20
260.2252172412316
 11
97.98850677889016
 21
269.6770515582725
  0
MTEXT
  5
1D3
100
AcDbEntity
  8
measures
  6
CONTINUOUS
 62
    0
370
   -2
100
AcDbMText
 10
94.99774072967355
 20
269.2952281463848
 30
0
 40
2.5
 41
4.027777777777933
 71
    5
 72
    1
  1
3,2
  7
STANDARD
210
0
220
0
230
1
 50
45.72915698242927
 73
    2
 44
1
  0
SOLID
  5
1D4
100
AcDbEntity
  8
measures
  6
ByBlock
 62
    0
370
   -2
100
AcDbTrace
 10
92.2644886652206
 20
263.805457512838
 30
0
 11
90.81744101078289
 21
261.7247494597745
 31
0
 12
90.22128137229879
 22
262.3059252942951
 32
0
 13
90.22128137229879
 23
262.3059252942951
 33
0
  0
SOLID
  5
1D5
100
AcDbEntity
  8
measures
  6
ByBlock
 62
    0
370
   -2
100
AcDbTrace
 10
94.49825183153064
 20
266.0968112866661
 30
0
 11
95.94529948596835
 21
268.1775193397296
 31
0
 12
96.54145912445244
 22
267.596343505209
 32
0
 13
96.54145912445244
 23
267.596343505209
 33
0
  0
ENDBLK
  5
CD
330
CB
100
AcDbEntity
  8
0
100
AcDbBlockEnd
  0
BLOCK
  5
CF
330
CE
100
AcDbEntity
  8
0
100
AcDbBlockBegin
  2
*D39
 70
    1
 10
0
 20
0
  3
*D39
  1

  0
LINE
  5
1D6
100
AcDbEntity
  8
measures
  6
ByBlock
 62
    0
370
   -2
100
AcDbLine
 10
435.0434292924571
 20
264.951134399752
 11
435.0434292924571
 21
294.951134399753
  0
MTEXT
  5
1D7
100
AcDbEntity
  8
measures
  6
CONTINUOUS
 62
    0
370
   -2
100
AcDbMText
 10
433.1684292924571
 20
279.9511343997525
 30
0
 40
2.5
 41
3.055555555555711
 71
    5
 72
    1
  1
30
  7
STANDARD
210
0
220
0
230
1
 50
90
 73
    2
 44
1
  0
SOLID
  5
1D8
100
AcDbEntity
  8
measures
  6
ByBlock
 62
    0
370
   -2
100
AcDbTrace
 10
435.0434292924571
 20
264.951134399752
 30
0
 11
434.6271446346843
 21
267.451134399752
 31
0
 12
435.45971395023
 22
267.451134399752
 32
0
 13
435.45971395023
 23
267.451134399752
 33
0
  0
SOLID
  5
1D9
100
AcDbEntity
  8
measures
  6
ByBlock
 62
    0
370
   -2
100
AcDbTrace
 10
435.0434292924571
 20
294.951134399753
 30
0
 11
435.45971395023
 21
292.451134399753
 31
0
 12
434.6271446346843
 22
292.451134399753
 32
0
 13
434.6271446346843
 23
292.451134399753
 33
0
  0
LINE
  5
1DA
100
AcDbEntity
  8
measures
  6
ByBlock
 62
    0
370
   -2
100
AcDbLine
 10
421.1461187578224
 20
264.951134399752
 11
436.2934292924571
 21
264.951134399752
  0
LINE
  5
1DB
100
AcDbEntity
  8
measures
  6
ByBlock
 62
    0
370
   -2
100
AcDbLine
 10
421.1461187578224
 20
294.951134399753
 11
436.2934292924571
 21
294.951134399753
  0
ENDBLK
  5
D0
330
CE
100
AcDbEntity
  8
0
100
AcDbBlockEnd
  0
BLOCK
  5
D2
330
D1
100
AcDbEntity
  8
0
100
AcDbBlockBegin
  2
*D6
 70
    1
 10
0
 20
0
  3
*D6
  1

  0
LINE
  5
1DC
100
AcDbEntity
  8
measures
  6
ByBlock
 62
    0
370
   -2
100
AcDbLine
 10
79.07750161743374
 20
324.911134399752
 11
79.07750161743374
 21
233.6311343997519
  0
MTEXT
  5
1DD
100
AcDbEntity
  8
measures
  6
CONTINUOUS
 62
    0
370
   -2
100
AcDbMText
 10
77.20250161743375
 20
279.271134399752
 30
0
 40
2.5
 41
7.361111111111422
 71
    5
 72
    1
  1
91,28
  7
STANDARD
210
0
220
0
230
1
 50
90
 73
    2
 44
1
  0
SOLID
  5
1DE
100
AcDbEntity
  8
measures
  6
ByBlock
 62
    0
370
   -2
100
AcDbTrace
 10
79.07750161743374
 20
324.911134399752
 30
0
 11
79.49378627520657
 21
322.411134399752
 31
0
 12
78.6612169596609
 22
322.411134399752
 32
0
 13
78.6612169596609
 23
322.411134399752
 33
0
  0
SOLID
  5
1DF
100
AcDbEntity
  8
measures
  6
ByBlock
 62
    0
370
   -2
100
AcDbTrace
 10
79.07750161743374
 20
233.6311343997519
 30
0
 11
78.6612169596609
 21
236.1311343997519
 31
0
 12
79.49378627520657
 22
236.1311343997519
 32
0
 13
79.49378627520657
 23
236.1311343997519
 33
0
  0
LINE
  5
1E0
100
AcDbEntity
  8
measures
  6
ByBlock
 62
    0
370
   -2
100
AcDbLine
 10
87.75637024837181
 20
324.911134399752
 11
77.82750161743374
 21
324.911134399752
  0
LINE
  5
1E1
100
AcDbEntity
  8
measures
  6
ByBlock
 62
    0
370
   -2
100
AcDbLine
 10
87.75637024837187
 20
233.6311343997519
 11
77.82750161743374
 21
233.6311343997519
  0
ENDBLK
  5
D3
330
D1
100
AcDbEntity
  8
0
100
AcDbBlockEnd
  0
BLOCK
  5
D5
330
D4
100
AcDbEntity
  8
0
100
AcDbBlockBegin
  2
*D36
 70
    1
 10
0
 20
0
  3
*D36
  1

  0
LINE
  5
1E2
100
AcDbEntity
  8
measures
  6
ByBlock
 62
    0
370
   -2
100
AcDbLine
 10
184.4842177223078
 20
486.7912005366912
 11
172.2905281326797
 21
488.8234821349691
  0
LINE
  5
1E3
100
AcDbEntity
  8
measures
  6
ByBlock
 62
    0
370
   -2
100
AcDbLine
 10
188.5941924049548
 20
511.451048632493
 11
176.4005028153266
 21
513.4833302307709
  0
LINE
  5
1E4
100
AcDbEntity
  8
measures
  6
ByBlock
 62
    0
370
   -2
100
AcDbLine
 10
173.5235205374698
 20
488.6179834008367
 11
177.6334952201167
 21
513.2778314966386
  0
MTEXT
  5
1E5
100
AcDbEntity
  8
measures
  6
CONTINUOUS
 62
    0
370
   -2
100
AcDbMText
 10
173.7290192716082
 20
501.2561555499361
 30
0
 40
2.5
 41
3.055555555555711
 71
    5
 72
    1
  1
25
  7
STANDARD
210
0
220
0
230
1
 50
80.53767779194438
 73
    2
 44
1
  0
SOLID
  5
1E6
100
AcDbEntity
  8
measures
  6
ByBlock
 62
    0
370
   -2
100
AcDbTrace
 10
173.5235205374698
 20
488.6179834008367
 30
0
 11
173.5238973487228
 21
491.1524049865857
 31
0
 12
174.3451386627461
 22
491.0155314342481
 32
0
 13
174.3451386627461
 23
491.0155314342481
 33
0
  0
SOLID
  5
1E7
100
AcDbEntity
  8
measures
  6
ByBlock
 62
    0
370
   -2
100
AcDbTrace
 10
177.6334952201167
 20
513.2778314966386
 30
0
 11
177.6331184088637
 21
510.7434099108896
 31
0
 12
176.8118770948404
 22
510.8802834632272
 32
0
 13
176.8118770948404
 23
510.8802834632272
 33
0
  0
ENDBLK
  5
D6
330
D4
100
AcDbEntity
  8
0
100
AcDbBlockEnd
  0
BLOCK
  5
D8
330
D7
100
AcDbEntity
  8
0
100
AcDbBlockBegin
  2
*D30
 70
    1
 10
0
 20
0
  3
*D30
  1

  0
LINE
  5
1E8
100
AcDbEntity
  8
measures
  6
ByBlock
 62
    0
370
   -2
100
AcDbLine
 10
254.2358490598016
 20
430.2953365744883
 11
284.2358490598006
 21
430.2953365744883
  0
MTEXT
  5
1E9
100
AcDbEntity
  8
measures
  6
CONTINUOUS
 62
    0
370
   -2
100
AcDbMText
 10
269.2358490598011
 20
432.1703365744883
 30
0
 40
2.5
 41
3.055555555555711
 71
    5
 72
    1
  1
30
  7
STANDARD
210
0
220
0
230
1
 50
0
 73
    2
 44
1
  0
SOLID
  5
1EA
100
AcDbEntity
  8
measures
  6
ByBlock
 62
    0
370
   -2
100
AcDbTrace
 10
254.2358490598016
 20
430.2953365744883
 30
0
 11
256.7358490598016
 21
430.7116212322612
 31
0
 12
256.7358490598016
 22
429.8790519167155
 32
0
 13
256.7358490598016
 23
429.8790519167155
 33
0
  0
SOLID
  5
1EB
100
AcDbEntity
  8
measures
  6
ByBlock
 62
    0
370
   -2
100
AcDbTrace
 10
284.2358490598006
 20
430.2953365744883
 30
0
 11
281.7358490598006
 21
429.8790519167155
 31
0
 12
281.7358490598006
 22
430.7116212322612
 32
0
 13
281.7358490598006
 23
430.7116212322612
 33
0
  0
LINE
  5
1EC
100
AcDbEntity
  8
measures
  6
ByBlock
 62
    0
370
   -2
100
AcDbLine
 10
254.2358490598016
 20
445.3062315996001
 11
254.2358490598016
 21
429.0453365744883
  0
LINE
  5
1ED
100
AcDbEntity
  8
measures
  6
ByBlock
 62
    0
370
   -2
100
AcDbLine
 10
284.2358490598006
 20
445.3062315995968
 11
284.2358490598006
 21
429.0453365744883
  0
ENDBLK
  5
D9
330
D7
100
AcDbEntity
  8
0
100
AcDbBlockEnd
  0
BLOCK
  5
DB
330
DA
100
AcDbEntity
  8
0
100
AcDbBlockBegin
  2
*D45
 70
    1
 10
0
 20
0
  3
*D45
  1

  0
LINE
  5
1EE
100
AcDbEntity
  8
measures
  6
ByBlock
 62
    0
370
   -2
100
AcDbLine
 10
325.8397681484591
 20
674.9038703120345
 11
312.6822508749352
 21
667.2933684102597
  0
MTEXT
  5
1EF
100
AcDbEntity
  8
measures
  6
CONTINUOUS
 62
    0
370
   -2
100
AcDbMText
 10
318.3222140468401
 20
672.7216683669272
 30
0
 40
2.5
 41
4.027777777777933
 71
    5
 72
    1
  1
5,2
  7
STANDARD
210
0
220
0
230
1
 50
30.04572107842369
 73
    2
 44
1
  0
SOLID
  5
1F0
100
AcDbEntity
  8
measures
  6
ByBlock
 62
    0
370
   -2
100
AcDbTrace
 10
321.5116374663789
 20
672.4004157390823
 30
0
 11
323.4672728613888
 21
674.0124899055156
 31
0
 12
323.8841327534493
 22
673.2917961456012
 32
0
 13
323.8841327534493
 23
673.2917961456012
 33
0
  0
SOLID
  5
1F1
100
AcDbEntity
  8
measures
  6
ByBlock
 62
    0
370
   -2
100
AcDbTrace
 10
317.0103815570155
 20
669.796822983212
 30
0
 11
315.0547461620056
 21
668.1847488167787
 31
0
 12
314.6378862699451
 22
668.9054425766931
 32
0
 13
314.6378862699451
 23
668.9054425766931
 33
0
  0
ENDBLK
  5
DC
330
DA
100
AcDbEntity
  8
0
100
AcDbBlockEnd
  0
BLOCK
  5
DE
330
DD
100
AcDbEntity
  8
0
100
AcDbBlockBegin
  2
*D44
 70
    1
 10
0
 20
0
  3
*D44
  1

  0
LINE
  5
1F2
100
AcDbEntity
  8
measures
  6
ByBlock
 62
    0
370
   -2
100
AcDbLine
 10
231.6249404599567
 20
607.4595641440096
 11
216.8467576596487
 21
603.9035392396145
  0
MTEXT
  5
1F3
100
AcDbEntity
  8
measures
  6
CONTINUOUS
 62
    0
370
   -2
100
AcDbMText
 10
223.797194671925
 20
607.5045183201395
 30
0
 40
2.5
 41
4.027777777777933
 71
    5
 72
    1
  1
5,2
  7
STANDARD
210
0
220
0
230
1
 50
13.52967843209237
 73
    2
 44
1
  0
SOLID
  5
1F4
100
AcDbEntity
  8
measures
  6
ByBlock
 62
    0
370
   -2
100
AcDbTrace
 10
226.7636961177501
 20
606.2898191096691
 30
0
 11
229.096928906593
 21
607.2794239143085
 31
0
 12
229.2917076711138
 22
606.4699593393702
 32
0
 13
229.2917076711138
 23
606.4699593393702
 33
0
  0
SOLID
  5
1F5
100
AcDbEntity
  8
measures
  6
ByBlock
 62
    0
370
   -2
100
AcDbTrace
 10
221.7080020018553
 20
605.073284273955
 30
0
 11
219.3747692130124
 21
604.0836794693156
 31
0
 12
219.1799904484916
 22
604.8931440442539
 32
0
 13
219.1799904484916
 23
604.8931440442539
 33
0
  0
ENDBLK
  5
DF
330
DD
100
AcDbEntity
  8
0
100
AcDbBlockEnd
  0
BLOCK
  5
E1
330
E0
100
AcDbEntity
  8
0
100
AcDbBlockBegin
  2
*D47
 70
    1
 10
0
 20
0
  3
*D47
  1

  0
LINE
  5
1F6
100
AcDbEntity
  8
measures
  6
ByBlock
 62
    0
370
   -2
100
AcDbLine
 10
178.1864836490984
 20
643.2838671910399
 11
192.0149442003076
 21
649.5936753326278
  0
MTEXT
  5
1F7
100
AcDbEntity
  8
measures
  6
CONTINUOUS
 62
    0
370
   -2
100
AcDbMText
 10
184.3223658809216
 20
648.1445846521968
 30
0
 40
2.5
 41
4.027777777777933
 71
    5
 72
    1
  1
5,2
  7
STANDARD
210
0
220
0
230
1
 50
24.52680797466854
 73
    2
 44
1
  0
SOLID
  5
1F8
100
AcDbEntity
  8
measures
  6
ByBlock
 62
    0
370
   -2
100
AcDbTrace
 10
182.735319356733
 20
645.359461974457
 30
0
 11
180.6337091557336
 21
643.9429424795849
 31
0
 12
180.2880938500977
 22
644.7003866859119
 32
0
 13
180.2880938500977
 23
644.7003866859119
 33
0
  0
SOLID
  5
1F9
100
AcDbEntity
  8
measures
  6
ByBlock
 62
    0
370
   -2
100
AcDbTrace
 10
187.466108492673
 20
647.5180805492107
 30
0
 11
189.5677186936723
 21
648.9346000440828
 31
0
 12
189.9133339993083
 22
648.1771558377558
 32
0
 13
189.9133339993083
 23
648.1771558377558
 33
0
  0
ENDBLK
  5
E2
330
E0
100
AcDbEntity
  8
0
100
AcDbBlockEnd
  0
BLOCK
  5
E4
330
E3
100
AcDbEntity
  8
0
100
AcDbBlockBegin
  2
*D4
 70
    1
 10
0
 20
0
  3
*D4
  1

  0
LINE
  5
1FA
100
AcDbEntity
  8
measures
  6
ByBlock
 62
    0
370
   -2
100
AcDbLine
 10
345.0552190758492
 20
343.728614762019
 11
345.0552190758492
 21
388.7286147620185
  0
MTEXT
  5
1FB
100
AcDbEntity
  8
measures
  6
CONTINUOUS
 62
    0
370
   -2
100
AcDbMText
 10
343.1802190758492
 20
366.2286147620188
 30
0
 40
2.5
 41
3.333333333333488
 71
    5
 72
    1
  1
45
  7
STANDARD
210
0
220
0
230
1
 50
90
 73
    2
 44
1
  0
SOLID
  5
1FC
100
AcDbEntity
  8
measures
  6
ByBlock
 62
    0
370
   -2
100
AcDbTrace
 10
345.0552190758492
 20
343.728614762019
 30
0
 11
344.6389344180764
 21
346.228614762019
 31
0
 12
345.4715037336221
 22
346.228614762019
 32
0
 13
345.4715037336221
 23
346.228614762019
 33
0
  0
SOLID
  5
1FD
100
AcDbEntity
  8
measures
  6
ByBlock
 62
    0
370
   -2
100
AcDbTrace
 10
345.0552190758492
 20
388.7286147620185
 30
0
 11
345.4715037336221
 21
386.2286147620185
 31
0
 12
344.6389344180764
 22
386.2286147620185
 32
0
 13
344.6389344180764
 23
386.2286147620185
 33
0
  0
LINE
  5
1FE
100
AcDbEntity
  8
measures
  6
ByBlock
 62
    0
370
   -2
100
AcDbLine
 10
319.8608490598018
 20
343.728614762019
 11
346.3052190758492
 21
343.728614762019
  0
LINE
  5
1FF
100
AcDbEntity
  8
measures
  6
ByBlock
 62
    0
370
   -2
100
AcDbLine
 10
319.8608490598018
 20
388.7286147620185
 11
346.3052190758492
 21
388.7286147620185
  0
ENDBLK
  5
E5
330
E3
100
AcDbEntity
  8
0
100
AcDbBlockEnd
  0
BLOCK
  5
E7
330
E6
100
AcDbEntity
  8
0
100
AcDbBlockBegin
  2
*D15
 70
    1
 10
0
 20
0
  3
*D15
  1

  0
LINE
  5
200
100
AcDbEntity
  8
measures
  6
ByBlock
 62
    0
370
   -2
100
AcDbLine
 10
363.0588032193709
 20
600.7495820726378
 11
363.0588032193709
 21
693.7495820796793
  0
MTEXT
  5
201
100
AcDbEntity
  8
measures
  6
CONTINUOUS
 62
    0
370
   -2
100
AcDbMText
 10
361.1838032193709
 20
647.2495820761585
 30
0
 40
2.5
 41
3.055555555556021
 71
    5
 72
    1
  1
93
  7
STANDARD
210
0
220
0
230
1
 50
90
 73
    2
 44
1
  0
SOLID
  5
202
100
AcDbEntity
  8
measures
  6
ByBlock
 62
    0
370
   -2
100
AcDbTrace
 10
363.0588032193709
 20
600.7495820726378
 30
0
 11
362.642518561598
 21
603.2495820726378
 31
0
 12
363.4750878771437
 22
603.2495820726378
 32
0
 13
363.4750878771437
 23
603.2495820726378
 33
0
  0
SOLID
  5
203
100
AcDbEntity
  8
measures
  6
ByBlock
 62
    0
370
   -2
100
AcDbTrace
 10
363.0588032193709
 20
693.7495820796793
 30
0
 11
363.4750878771437
 21
691.2495820796793
 31
0
 12
362.642518561598
 22
691.2495820796793
 32
0
 13
362.642518561598
 23
691.2495820796793
 33
0
  0
LINE
  5
204
100
AcDbEntity
  8
measures
  6
ByBlock
 62
    0
370
   -2
100
AcDbLine
 10
336.6108490598025
 20
600.7495820726378
 11
364.3088032193709
 21
600.7495820726378
  0
LINE
  5
205
100
AcDbEntity
  8
measures
  6
ByBlock
 62
    0
370
   -2
100
AcDbLine
 10
321.1108490586269
 20
693.7495820796793
 11
364.3088032193709
 21
693.7495820796793
  0
ENDBLK
  5
E8
330
E6
100
AcDbEntity
  8
0
100
AcDbBlockEnd
  0
BLOCK
  5
EA
330
E9
100
AcDbEntity
  8
0
100
AcDbBlockBegin
  2
*D46
 70
    1
 10
0
 20
0
  3
*D46
  1

  0
LINE
  5
206
100
AcDbEntity
  8
measures
  6
ByBlock
 62
    0
370
   -2
100
AcDbLine
 10
261.5786366236695
 20
690.7780896417437
 11
246.8930614959339
 21
686.8571352722529
  0
MTEXT
  5
207
100
AcDbEntity
  8
measures
  6
CONTINUOUS
 62
    0
370
   -2
100
AcDbMText
 10
253.7521787017231
 20
690.6291554415052
 30
0
 40
2.5
 41
4.027777777777933
 71
    5
 72
    1
  1
5,2
  7
STANDARD
210
0
220
0
230
1
 50
14.948903307397
 73
    2
 44
1
  0
SOLID
  5
208
100
AcDbEntity
  8
measures
  6
ByBlock
 62
    0
370
   -2
100
AcDbTrace
 10
256.7478553316512
 20
689.4883020202006
 30
0
 11
259.0558622179336
 21
690.5353918583568
 31
0
 12
259.2706297373871
 22
689.7309998035875
 32
0
 13
259.2706297373871
 23
689.7309998035875
 33
0
  0
SOLID
  5
209
100
AcDbEntity
  8
measures
  6
ByBlock
 62
    0
370
   -2
100
AcDbTrace
 10
251.7238427879522
 20
688.1469228937959
 30
0
 11
249.4158359016698
 21
687.0998330556398
 31
0
 12
249.2010683822163
 22
687.9042251104091
 32
0
 13
249.2010683822163
 23
687.9042251104091
 33
0
  0
ENDBLK
  5
EB
330
E9
100
AcDbEntity
  8
0
100
AcDbBlockEnd
  0
ENDSEC
  0
SECTION
  2
ENTITIES
  0
LINE
  5
20A
100
AcDbEntity
  8
builder
  6
ByLayer
 62
  256
370
   -1
100
AcDbLine
 10
254.2358490598016
 20
243.7573998027951
 11
254.2358490598016
 21
468.9240047867477
  0
LINE
  5
20B
100
AcDbEntity
  8
builder
  6
ByLayer
 62
  256
370
   -1
100
AcDbLine
 10
254.2358490598016
 20
468.9240047867477
 11
254.2358490598016
 21
730.0757959577809
  0
LINE
  5
20C
100
AcDbEntity
  8
builder
  6
ByLayer
 62
  256
370
   -1
100
AcDbLine
 10
334.2358490598037
 20
440.9992619804291
 11
174.235849059801
 21
440.9992619804474
  0
LINE
  5
20D
100
AcDbEntity
  8
builder
  6
ByLayer
 62
  256
370
   -1
100
AcDbLine
 10
189.235849059802
 20
533.9992619804291
 11
319.2358490598018
 21
533.9992619804351
  0
LINE
  5
20E
100
AcDbEntity
  8
builder
  6
ByLayer
 62
  256
370
   -1
100
AcDbLine
 10
319.2358490598018
 20
533.9992619804351
 11
319.2358591597225
 21
533.9992619804352
  0
LINE
  5
20F
100
AcDbEntity
  8
builder
  6
ByLayer
 62
  256
370
   -1
100
AcDbLine
 10
320.7358490597992
 20
532.499261980436
 11
335.7358490598014
 21
442.4992619804359
  0
LINE
  5
210
100
AcDbEntity
  8
builder
  6
ByLayer
 62
  256
370
   -1
100
AcDbLine
 10
187.7358490598521
 20
532.4992619804359
 11
172.7358490598141
 21
442.4992619804358
  0
LINE
  5
211
100
AcDbEntity
  8
0
  6
ByLayer
 62
  256
370
   -1
100
AcDbLine
 10
172.4858490598155
 20
440.9992619804476
 11
335.9858490598025
 21
440.9992619804289
  0
LINE
  5
212
100
AcDbEntity
  8
0
  6
ByLayer
 62
  256
370
   -1
100
AcDbLine
 10
335.9858490598025
 20
440.9992619804289
 11
320.4858490586269
 21
533.9992619874703
  0
LINE
  5
213
100
AcDbEntity
  8
0
  6
ByLayer
 62
  256
370
   -1
100
AcDbLine
 10
320.4858490586269
 20
533.9992619874703
 11
187.9858490598516
 21
533.9992619804291
  0
LINE
  5
214
100
AcDbEntity
  8
0
  6
ByLayer
 62
  256
370
   -1
100
AcDbLine
 10
187.9858490598516
 20
533.9992619804291
 11
172.4858490598155
 21
440.9992619804476
  0
LINE
  5
215
100
AcDbEntity
  8
builder
  6
ByLayer
 62
  256
370
   -1
100
AcDbLine
 10
187.9858490598516
 20
533.9992619804291
 11
172.4858490598155
 21
440.9992619804476
  0
DIMENSION
  5
216
100
AcDbEntity
  8
measures
  6
ByLayer
 62
  256
370
   -1
100
AcDbDimension
  2
*D1
 10
335.9858490598025
 20
417.1319811570487
 30
0
 11
254.235849059809
 21
419.0069811570487
 31
0
 70
   32
 71
    5
  3
Standard
 53
0
210
0
220
0
230
1
100
AcDbAlignedDimension
 13
172.4858490598155
 23
440.9992619804476
 33
0
 14
335.9858490598025
 24
440.9992619804289
 34
0
100
AcDbRotatedDimension
  0
DIMENSION
  5
217
100
AcDbEntity
  8
measures
  6
ByLayer
 62
  256
370
   -1
100
AcDbDimension
  2
*D2
 10
363.0588032193709
 20
533.9992619874704
 30
0
 11
361.1838032193709
 21
487.4992619839496
 31
0
 70
   32
 71
    5
  3
Standard
 53
0
210
0
220
0
230
1
100
AcDbAlignedDimension
 13
335.9858490598025
 23
440.9992619804289
 33
0
 14
320.4858490586268
 24
533.9992619874704
 34
0
 50
90
100
AcDbRotatedDimension
  0
LINE
  5
218
100
AcDbEntity
  8
builder
  6
CONTINUOUS
 62
  256
370
   -1
100
AcDbLine
 10
329.2358490598019
 20
233.6311343997519
 11
489.5444077819965
 21
233.6311343997519
  0
LINE
  5
219
100
AcDbEntity
  8
builder
  6
ByLayer
 62
  256
370
   -1
100
AcDbLine
 10
189.235849059802
 20
333.6311343997519
 11
189.235849059802
 21
323.6311343997519
  0
LINE
  5
21A
100
AcDbEntity
  8
builder
  6
ByLayer
 62
  256
370
   -1
100
AcDbLine
 10
319.2358490598018
 20
333.6311343997519
 11
319.2358490598018
 21
323.6311343997519
  0
LINE
  5
21B
100
AcDbEntity
  8
builder
  6
ByLayer
 62
  256
370
   -1
100
AcDbLine
 10
179.2358490598019
 20
233.6311343997517
 11
127.0648233632187
 21
233.6311343997517
  0
LINE
  5
21C
100
AcDbEntity
  8
builder
  6
ByLayer
 62
  256
370
   -1
100
AcDbLine
 10
380.5211187578205
 20
233.6311343997519
 11
380.5211187578205
 21
338.2156147620099
  0
LINE
  5
21D
100
AcDbEntity
  8
builder
  6
ByLayer
 62
  256
370
   -1
100
AcDbLine
 10
425.5211187578211
 20
233.6311343997519
 11
425.5211187578211
 21
338.9656147620104
  0
LINE
  5
21E
100
AcDbEntity
  8
0
  6
ByLayer
 62
  256
370
   -1
100
AcDbLine
 10
425.5211187578211
 20
233.6311343997519
 11
380.5211187578205
 21
233.6311343997519
  0
DIMENSION
  5
21F
100
AcDbEntity
  8
measures
  6
ByLayer
 62
  256
370
   -1
100
AcDbDimension
  2
*D3
 10
425.521118757821
 20
220.3570994719297
 30
0
 11
403.0211187578207
 21
222.2320994719297
 31
0
 70
   32
 71
    5
  3
Standard
 53
0
210
0
220
0
230
1
100
AcDbAlignedDimension
 13
380.5211187578205
 23
233.6311343997519
 33
0
 14
425.521118757821
 24
233.6311343997519
 34
0
100
AcDbRotatedDimension
  0
LINE
  5
220
100
AcDbEntity
  8
builder
  6
ByLayer
 62
  256
370
   -1
100
AcDbLine
 10
165.4895016174954
 20
343.728614762019
 11
331.775751617615
 21
343.728614762019
  0
LINE
  5
221
100
AcDbEntity
  8
builder
  6
ByLayer
 62
  256
370
   -1
100
AcDbLine
 10
319.2358490598018
 20
328.6311343997447
 11
319.2358490598018
 21
349.4996019530531
  0
LINE
  5
222
100
AcDbEntity
  8
builder
  6
ByLayer
 62
  256
370
   -1
100
AcDbLine
 10
319.2358490598018
 20
349.4996019530531
 11
319.2358490598018
 21
373.4656147620408
  0
LINE
  5
223
100
AcDbEntity
  8
builder
  6
ByLayer
 62
  256
370
   -1
100
AcDbLine
 10
165.4895016174954
 20
388.7286147620185
 11
331.775751617615
 21
388.7286147620185
  0
LINE
  5
224
100
AcDbEntity
  8
builder
  6
ByLayer
 62
  256
370
   -1
100
AcDbLine
 10
189.235849059802
 20
328.631134399745
 11
189.235849059802
 21
394.4251826570521
  0
LWPOLYLINE
  5
225
100
AcDbEntity
  8
0
  6
ByLayer
 62
  256
370
   -1
100
AcDbPolyline
 90
    4
 70
    1
 43
0
 10
189.235849059802
 20
388.7286147620185
 10
319.2358490598018
 20
388.7286147620185
 10
319.2358490598018
 20
343.728614762019
 10
189.235849059802
 20
343.728614762019
  0
DIMENSION
  5
226
100
AcDbEntity
  8
measures
  6
ByLayer
 62
  256
370
   -1
100
AcDbDimension
  2
*D4
 10
345.0552190758492
 20
388.7286147620185
 30
0
 11
343.1802190758492
 21
366.2286147620188
 31
0
 70
   32
 71
    5
  3
Standard
 53
0
210
0
220
0
230
1
100
AcDbAlignedDimension
 13
319.2358490598018
 23
343.728614762019
 33
0
 14
319.2358490598018
 24
388.7286147620185
 34
0
 50
90
100
AcDbRotatedDimension
  0
LINE
  5
227
100
AcDbEntity
  8
builder
  6
ByLayer
 62
  256
370
   -1
100
AcDbLine
 10
133.3813702483724
 20
233.6311343997519
 11
133.3813702483724
 21
338.2156147620099
  0
LINE
  5
228
100
AcDbEntity
  8
builder
  6
ByLayer
 62
  256
370
   -1
100
AcDbLine
 10
88.38137024837181
 20
233.6311343997519
 11
88.38137024837181
 21
338.9656147620104
  0
LINE
  5
229
100
AcDbEntity
  8
0
  6
ByLayer
 62
  256
370
   -1
100
AcDbLine
 10
88.38137024837187
 20
233.6311343997519
 11
133.3813702483724
 21
233.6311343997519
  0
DIMENSION
  5
22A
100
AcDbEntity
  8
measures
  6
ByLayer
 62
  256
370
   -1
100
AcDbDimension
  2
*D5
 10
88.38137024837192
 20
220.3570994719297
 30
0
 11
110.8813702483722
 21
222.2320994719297
 31
0
 70
   32
 71
    5
  3
Standard
 53
0
210
0
220
0
230
1
100
AcDbAlignedDimension
 13
133.3813702483724
 23
233.6311343997519
 33
0
 14
88.38137024837192
 24
233.6311343997519
 34
0
 50
180
100
AcDbRotatedDimension
  0
LINE
  5
22B
100
AcDbEntity
  8
0
  6
ByLayer
 62
  256
370
   -1
100
AcDbLine
 10
380.5211187578205
 20
329.8111343997519
 11
425.5211187578212
 21
324.9111343997516
  0
LINE
  5
22C
100
AcDbEntity
  8
0
  6
ByLayer
 62
  256
370
   -1
100
AcDbLine
 10
425.5211187578211
 20
233.6311343997519
 11
425.5211187578211
 21
324.9111343997516
  0
LINE
  5
22D
100
AcDbEntity
  8
0
  6
ByLayer
 62
  256
370
   -1
100
AcDbLine
 10
133.3813702483724
 20
329.8111343997519
 11
88.38137024837181
 21
324.911134399752
  0
LINE
  5
22E
100
AcDbEntity
  8
0
  6
ByLayer
 62
  256
370
   -1
100
AcDbLine
 10
88.38137024837181
 20
324.911134399752
 11
88.38137024837187
 21
233.6311343997519
  0
DIMENSION
  5
22F
100
AcDbEntity
  8
measures
  6
ByLayer
 62
  256
370
   -1
100
AcDbDimension
  2
*D6
 10
79.07750161743374
 20
233.6311343997519
 30
0
 11
77.20250161743375
 21
279.271134399752
 31
0
 70
   32
 71
    5
  3
Standard
 53
0
210
0
220
0
230
1
100
AcDbAlignedDimension
 13
88.38137024837181
 23
324.911134399752
 33
0
 14
88.38137024837187
 24
233.6311343997519
 34
0
 50
90
100
AcDbRotatedDimension
  0
LINE
  5
230
100
AcDbEntity
  8
builder
  6
ByLayer
 62
  256
370
   -1
100
AcDbLine
 10
234.2358490598018
 20
631.7495820726446
 11
274.2358490597995
 21
658.749582072643
  0
LINE
  5
231
100
AcDbEntity
  8
builder
  6
ByLayer
 62
  256
370
   -1
100
AcDbLine
 10
274.2358490597999
 20
631.7495820726442
 11
234.2358490598021
 21
658.7495820726452
  0
LINE
  5
232
100
AcDbEntity
  8
0
  6
ByLayer
 62
  256
370
   -1
100
AcDbLine
 10
380.5211187578205
 20
329.8111343997519
 11
380.5211187578205
 21
258.6311343997519
  0
LINE
  5
233
100
AcDbEntity
  8
0
  6
ByLayer
 62
  256
370
   -1
100
AcDbLine
 10
133.3813702483724
 20
329.8111343997519
 11
133.3813702483724
 21
258.631134399752
  0
LINE
  5
234
100
AcDbEntity
  8
0
  6
ByLayer
 62
  256
370
   -1
100
AcDbLine
 10
133.3813702483724
 20
258.631134399752
 11
133.3813702483724
 21
233.6311343997519
  0
LINE
  5
235
100
AcDbEntity
  8
0
  6
ByLayer
 62
  256
370
   -1
100
AcDbLine
 10
380.5211187578205
 20
233.6311343997519
 11
380.5211187578205
 21
258.6311343997519
  0
DIMENSION
  5
236
100
AcDbEntity
  8
measures
  6
ByLayer
 62
  256
370
   -1
100
AcDbDimension
  2
*D7
 10
369.8092500003183
 20
233.6311343997519
 30
0
 11
367.9342500003183
 21
281.7211343997519
 31
0
 70
   32
 71
    5
 72
    0
  3
Standard
 53
0
210
0
220
0
230
1
100
AcDbAlignedDimension
 13
380.5211187578205
 23
329.8111343997519
 33
0
 14
380.5211187578205
 24
233.6311343997519
 34
0
 50
90
100
AcDbRotatedDimension
  0
LINE
  5
237
100
AcDbEntity
  8
builder
  6
ByLayer
 62
  256
370
   -1
100
AcDbLine
 10
254.2358490598016
 20
243.7573998027951
 11
254.2358490598016
 21
227.5000000001969
  0
LINE
  5
238
100
AcDbEntity
  8
builder
  6
ByLayer
 62
  256
370
   -1
100
AcDbLine
 10
334.2358490598037
 20
230.0359622447005
 11
153.8352516174276
 21
230.0359622447005
  0
LINE
  5
239
100
AcDbEntity
  8
0
  6
ByLayer
 62
  256
370
   -1
100
AcDbLine
 10
334.2358490598037
 20
185.0359622447006
 11
334.2358490598037
 21
230.0359622447005
  0
LINE
  5
23A
100
AcDbEntity
  8
0
  6
ByLayer
 62
  256
370
   -1
100
AcDbLine
 10
334.2358490598037
 20
230.0359622447005
 11
174.235849059801
 21
230.0359622447005
  0
LINE
  5
23B
100
AcDbEntity
  8
0
  6
ByLayer
 62
  256
370
   -1
100
AcDbLine
 10
174.235849059801
 20
230.0359622447005
 11
174.235849059801
 21
185.0359622447004
  0
LINE
  5
23C
100
AcDbEntity
  8
0
  6
ByLayer
 62
  256
370
   -1
100
AcDbLine
 10
174.235849059801
 20
185.0359622447004
 11
334.2358490598037
 21
185.0359622447006
  0
DIMENSION
  5
23D
100
AcDbEntity
  8
measures
  6
ByLayer
 62
  256
370
   -1
100
AcDbDimension
  2
*D8
 10
345.0527933949769
 20
185.0359622447006
 30
0
 11
343.1777933949769
 21
207.5359622447006
 31
0
 70
   32
 71
    5
  3
Standard
 53
0
210
0
220
0
230
1
100
AcDbAlignedDimension
 13
334.2358490598037
 23
230.0359622447005
 33
0
 14
334.2358490598037
 24
185.0359622447006
 34
0
 50
90
100
AcDbRotatedDimension
  0
LINE
  5
23E
100
AcDbEntity
  8
builder
  6
ByLayer
 62
  256
370
   -1
100
AcDbLine
 10
174.2358490598015
 20
238.6311343997455
 11
174.2358490598015
 21
232.0009153573012
  0
CIRCLE
  5
23F
100
AcDbEntity
  8
0
  6
ByLayer
 62
  256
370
   -1
100
AcDbCircle
 10
254.2358490598016
 20
308.6311343997535
 40
3
  0
CIRCLE
  5
240
100
AcDbEntity
  8
0
  6
ByLayer
 62
  256
370
   -1
100
AcDbCircle
 10
254.2358490598016
 20
271.6311343997544
 40
3
  0
DIMENSION
  5
241
100
AcDbEntity
  8
measures
  6
ByLayer
 62
  256
370
   -1
100
AcDbDimension
  2
*D9
 10
344.802513055594
 20
271.6311343997544
 30
0
 11
342.927513055594
 21
290.1311343997539
 31
0
 70
   32
 71
    5
  3
Standard
 53
0
210
0
220
0
230
1
100
AcDbAlignedDimension
 13
254.2358490598016
 23
308.6311343997535
 33
0
 14
254.2358490598016
 24
271.6311343997544
 34
0
 50
90
100
AcDbRotatedDimension
  0
LINE
  5
242
100
AcDbEntity
  8
builder
  6
ByLayer
 62
  256
370
   -1
100
AcDbLine
 10
319.2358490598018
 20
323.6311343997513
 11
334.2358490598019
 21
233.6311343997516
  0
LINE
  5
243
100
AcDbEntity
  8
0
  6
ByLayer
 62
  256
370
   -1
100
AcDbLine
 10
174.2358490598015
 20
233.6311343997517
 11
334.2358490598016
 21
233.6311343997533
  0
DIMENSION
  5
244
100
AcDbEntity
  8
measures
  6
ByLayer
 62
  256
370
   -1
100
AcDbDimension
  2
*D10
 10
345.0928616119666
 20
233.6311343997516
 30
0
 11
343.2178616119666
 21
252.631134399753
 31
0
 70
   32
 71
    5
 72
    0
  3
Standard
 53
0
210
0
220
0
230
1
100
AcDbAlignedDimension
 13
254.2358490598016
 23
271.6311343997544
 33
0
 14
334.2358490598019
 24
233.6311343997516
 34
0
 50
90
100
AcDbRotatedDimension
  0
LINE
  5
245
100
AcDbEntity
  8
builder
  6
ByLayer
 62
  256
370
   -1
100
AcDbLine
 10
133.3813702483724
 20
329.8111343997519
 11
380.5211187578205
 21
329.8111343997519
  0
LINE
  5
246
100
AcDbEntity
  8
0
  6
ByLayer
 62
  256
370
   -1
100
AcDbLine
 10
174.2358490598015
 20
233.6311343997517
 11
189.235849059802
 21
329.8111343997519
  0
LINE
  5
247
100
AcDbEntity
  8
0
  6
ByLayer
 62
  256
370
   -1
100
AcDbLine
 10
189.235849059802
 20
329.8111343997519
 11
319.2358490598018
 21
329.8111343997519
  0
LINE
  5
248
100
AcDbEntity
  8
0
  6
ByLayer
 62
  256
370
   -1
100
AcDbLine
 10
319.2358490598018
 20
329.8111343997519
 11
334.2358490598016
 21
233.6311343997533
  0
DIMENSION
  5
249
100
AcDbEntity
  8
measures
  6
ByLayer
 62
  256
370
   -1
100
AcDbDimension
  2
*D11
 10
344.5978388588391
 20
329.8111343997519
 30
0
 11
342.7228388588391
 21
319.2211343997527
 31
0
 70
   32
 71
    5
  3
Standard
 53
0
210
0
220
0
230
1
100
AcDbAlignedDimension
 13
254.2358490598016
 23
308.6311343997535
 33
0
 14
319.2358490598018
 24
329.8111343997519
 34
0
 50
90
100
AcDbRotatedDimension
  0
LINE
  5
24A
100
AcDbEntity
  8
builder
  6
ByLayer
 62
  256
370
   -1
100
AcDbLine
 10
177.4858490598154
 20
440.999261980447
 11
192.9858490598624
 21
533.9992619804293
  0
LINE
  5
24B
100
AcDbEntity
  8
builder
  6
ByLayer
 62
  256
370
   -1
100
AcDbLine
 10
187.1638541233225
 20
529.0672923612669
 11
321.3078439951532
 21
529.0672923683119
  0
LINE
  5
24C
100
AcDbEntity
  8
builder
  6
ByLayer
 62
  256
370
   -1
100
AcDbLine
 10
315.4858490586353
 20
533.9992619872046
 11
330.9858490598361
 21
440.9992619804294
  0
LINE
  5
24D
100
AcDbEntity
  8
builder
  6
ByLayer
 62
  256
370
   -1
100
AcDbLine
 10
335.1638541232753
 20
445.9312315995915
 11
173.3078439963443
 21
445.9312315996087
  0
LINE
  5
24E
100
AcDbEntity
  8
builder
  6
ByLayer
 62
  256
370
   -1
100
AcDbLine
 10
99.69548650789673
 20
500.9226557391289
 11
260.7762116117705
 21
474.0758682217483
  0
LINE
  5
24F
100
AcDbEntity
  8
builder
  6
ByLayer
 62
  256
370
   -1
100
AcDbLine
 10
408.7762116172654
 20
500.9226557436263
 11
247.6954865011644
 21
474.0758682242728
  0
LINE
  5
250
100
AcDbEntity
  8
builder
  6
ByLayer
 62
  256
370
   -1
100
AcDbLine
 10
187.1638541233225
 20
524.1353227456243
 11
321.3078439951532
 21
524.1353227526693
  0
LINE
  5
251
100
AcDbEntity
  8
builder
  6
ByLayer
 62
  256
370
   -1
100
AcDbLine
 10
335.1638541232753
 20
450.8632012187533
 11
173.3078439963444
 21
450.8632012187705
  0
LINE
  5
252
100
AcDbEntity
  8
builder
  6
ByLayer
 62
  256
370
   -1
100
AcDbLine
 10
182.4858490598153
 20
440.9992619804464
 11
197.9858490598623
 21
533.9992619804286
  0
LINE
  5
253
100
AcDbEntity
  8
builder
  6
ByLayer
 62
  256
370
   -1
100
AcDbLine
 10
310.4858490586688
 20
533.9992619872052
 11
325.9858490598696
 21
440.99926198043
  0
LINE
  5
254
100
AcDbEntity
  8
builder
  6
ByLayer
 62
  256
370
   -1
100
AcDbLine
 10
274.2358490597995
 20
658.749582072643
 11
274.2358490597999
 21
631.7495820726442
  0
LINE
  5
255
100
AcDbEntity
  8
builder
  6
ByLayer
 62
  256
370
   -1
100
AcDbLine
 10
274.2358490597999
 20
631.7495820726442
 11
234.2358490598018
 21
631.7495820726446
  0
LINE
  5
256
100
AcDbEntity
  8
builder
  6
ByLayer
 62
  256
370
   -1
100
AcDbLine
 10
234.2358490598018
 20
631.7495820726446
 11
234.2358490598021
 21
658.7495820726452
  0
LINE
  5
257
100
AcDbEntity
  8
builder
  6
ByLayer
 62
  256
370
   -1
100
AcDbLine
 10
234.2358490598021
 20
658.7495820726452
 11
274.2358490597995
 21
658.749582072643
  0
LINE
  5
258
100
AcDbEntity
  8
builder
  6
ByLayer
 62
  256
370
   -1
100
AcDbLine
 10
334.2358490598037
 20
600.749582072638
 11
174.2358490598011
 21
600.7495820726563
  0
LINE
  5
259
100
AcDbEntity
  8
builder
  6
ByLayer
 62
  256
370
   -1
100
AcDbLine
 10
189.2358490598021
 20
693.749582072638
 11
319.2358490598019
 21
693.749582072644
  0
LINE
  5
25A
100
AcDbEntity
  8
builder
  6
ByLayer
 62
  256
370
   -1
100
AcDbLine
 10
319.2358490598019
 20
693.749582072644
 11
319.2358591597226
 21
693.7495820726441
  0
LINE
  5
25B
100
AcDbEntity
  8
builder
  6
ByLayer
 62
  256
370
   -1
100
AcDbLine
 10
320.7358490597992
 20
692.2495820726449
 11
335.7358490598015
 21
602.2495820726448
  0
LINE
  5
25C
100
AcDbEntity
  8
builder
  6
ByLayer
 62
  256
370
   -1
100
AcDbLine
 10
187.7358490598521
 20
692.2495820726448
 11
172.7358490598141
 21
602.2495820726447
  0
LINE
  5
25D
100
AcDbEntity
  8
0
  6
ByLayer
 62
  256
370
   -1
100
AcDbLine
 10
320.485849058627
 20
693.7495820796792
 11
187.9858490598517
 21
693.749582072638
  0
DIMENSION
  5
25E
100
AcDbEntity
  8
measures
  6
ByLayer
 62
  256
370
   -1
100
AcDbDimension
  2
*D12
 10
320.485849058627
 20
706.0153532638514
 30
0
 11
254.2358490592393
 21
707.8903532638514
 31
0
 70
   32
 71
    5
  3
Standard
 53
0
210
0
220
0
230
1
100
AcDbAlignedDimension
 13
187.9858490598517
 23
693.749582072638
 33
0
 14
320.485849058627
 24
693.7495820796793
 34
0
100
AcDbRotatedDimension
  0
LINE
  5
25F
100
AcDbEntity
  8
builder
  6
ByLayer
 62
  256
370
   -1
100
AcDbLine
 10
187.9858490598517
 20
693.749582072638
 11
172.4858490598156
 21
600.7495820726565
  0
DIMENSION
  5
260
100
AcDbEntity
  8
measures
  6
ByLayer
 62
  256
370
   -1
100
AcDbDimension
  2
*D13
 10
335.9858490598025
 20
576.8823012492576
 30
0
 11
254.2358490598091
 21
578.7573012492576
 31
0
 70
   32
 71
    5
  3
Standard
 53
0
210
0
220
0
230
1
100
AcDbAlignedDimension
 13
172.4858490598156
 23
600.7495820726565
 33
0
 14
335.9858490598025
 24
600.7495820726378
 34
0
100
AcDbRotatedDimension
  0
DIMENSION
  5
261
100
AcDbEntity
  8
measures
  6
ByLayer
 62
  256
370
   -1
100
AcDbDimension
  2
*D14
 10
169.6374711047165
 20
696.8076450651683
 30
0
 11
160.0379824975132
 21
650.6158931663761
 31
0
 70
   33
 71
    5
  3
Standard
 53
0
210
0
220
0
230
1
100
AcDbAlignedDimension
 13
172.4858490598156
 23
600.7495820726565
 33
0
 14
187.9858490598517
 24
693.7495820726381
 34
0
  0
DIMENSION
  5
262
100
AcDbEntity
  8
measures
  6
ByLayer
 62
  256
370
   -1
100
AcDbDimension
  2
*D15
 10
363.0588032193709
 20
693.7495820796793
 30
0
 11
361.1838032193709
 21
647.2495820761585
 31
0
 70
   32
 71
    5
  3
Standard
 53
0
210
0
220
0
230
1
100
AcDbAlignedDimension
 13
335.9858490598025
 23
600.7495820726378
 33
0
 14
320.4858490586269
 24
693.7495820796793
 34
0
 50
90
100
AcDbRotatedDimension
  0
LINE
  5
263
100
AcDbEntity
  8
builder
  6
ByLayer
 62
  256
370
   -1
100
AcDbLine
 10
177.4858490598155
 20
600.7495820726559
 11
192.9858490598624
 21
693.7495820726382
  0
LINE
  5
264
100
AcDbEntity
  8
builder
  6
ByLayer
 62
  256
370
   -1
100
AcDbLine
 10
187.1638541233225
 20
688.8176124534758
 11
321.3078439951533
 21
688.8176124605208
  0
LINE
  5
265
100
AcDbEntity
  8
builder
  6
ByLayer
 62
  256
370
   -1
100
AcDbLine
 10
315.4858490586353
 20
693.7495820794135
 11
330.9858490598361
 21
600.7495820726383
  0
LINE
  5
266
100
AcDbEntity
  8
builder
  6
ByLayer
 62
  256
370
   -1
100
AcDbLine
 10
335.1638541232754
 20
605.6815516918005
 11
173.3078439963444
 21
605.6815516918175
  0
LINE
  5
267
100
AcDbEntity
  8
builder
  6
ByLayer
 62
  256
370
   -1
100
AcDbLine
 10
99.69548650789679
 20
660.6729758313377
 11
260.7762116117706
 21
633.8261883139571
  0
LINE
  5
268
100
AcDbEntity
  8
builder
  6
ByLayer
 62
  256
370
   -1
100
AcDbLine
 10
408.7762116172655
 20
660.6729758358351
 11
247.6954865011644
 21
633.8261883164816
  0
LINE
  5
269
100
AcDbEntity
  8
builder
  6
ByLayer
 62
  256
370
   -1
100
AcDbLine
 10
187.1638541233225
 20
683.8856428378332
 11
321.3078439951533
 21
683.8856428448781
  0
LINE
  5
26A
100
AcDbEntity
  8
builder
  6
ByLayer
 62
  256
370
   -1
100
AcDbLine
 10
335.1638541232754
 20
610.6135213109621
 11
173.3078439963444
 21
610.6135213109794
  0
LINE
  5
26B
100
AcDbEntity
  8
builder
  6
ByLayer
 62
  256
370
   -1
100
AcDbLine
 10
182.4858490598153
 20
600.7495820726554
 11
197.9858490598623
 21
693.7495820726375
  0
LINE
  5
26C
100
AcDbEntity
  8
builder
  6
ByLayer
 62
  256
370
   -1
100
AcDbLine
 10
310.4858490586689
 20
693.749582079414
 11
325.9858490598697
 21
600.7495820726389
  0
LINE
  5
26D
100
AcDbEntity
  8
0
  6
ByLayer
 62
  256
370
   -1
100
AcDbLine
 10
184.1298389328744
 20
450.8632012187693
 11
324.3418591868079
 21
450.8632012187545
  0
LINE
  5
26E
100
AcDbEntity
  8
0
  6
ByLayer
 62
  256
370
   -1
100
AcDbLine
 10
324.3418591868079
 20
450.8632012187545
 11
312.1298389311794
 21
524.1353227521872
  0
LINE
  5
26F
100
AcDbEntity
  8
0
  6
ByLayer
 62
  256
370
   -1
100
AcDbLine
 10
312.1298389311794
 20
524.1353227521872
 11
196.3418591874699
 21
524.1353227461063
  0
LINE
  5
270
100
AcDbEntity
  8
0
  6
ByLayer
 62
  256
370
   -1
100
AcDbLine
 10
196.3418591874699
 20
524.1353227461063
 11
184.1298389328744
 21
450.8632012187693
  0
DIMENSION
  5
271
100
AcDbEntity
  8
measures
  6
ByLayer
 62
  256
370
   -1
100
AcDbDimension
  2
*D16
 10
348.1897381564513
 20
450.8632012187545
 30
0
 11
346.3147381564513
 21
445.9312315995923
 31
0
 70
   32
 71
    5
  3
Standard
 53
0
210
0
220
0
230
1
100
AcDbAlignedDimension
 13
325.9858490598696
 23
440.99926198043
 33
0
 14
324.3418591868079
 24
450.8632012187545
 34
0
 50
90
100
AcDbRotatedDimension
  0
DIMENSION
  5
272
100
AcDbEntity
  8
measures
  6
ByLayer
 62
  256
370
   -1
100
AcDbDimension
  2
*D17
 10
347.9652444503542
 20
524.1353227521872
 30
0
 11
346.0902444503542
 21
529.067292366311
 31
0
 70
   32
 71
    5
  3
Standard
 53
0
210
0
220
0
230
1
100
AcDbAlignedDimension
 13
310.4858490597972
 23
533.9992619804347
 33
0
 14
312.1298389311794
 24
524.1353227521872
 34
0
 50
90
100
AcDbRotatedDimension
  0
DIMENSION
  5
273
100
AcDbEntity
  8
measures
  6
ByLayer
 62
  256
370
   -1
100
AcDbDimension
  2
*D18
 10
198.8109124458256
 20
538.9496422962281
 30
0
 11
194.2542956821569
 21
541.6099417142266
 31
0
 70
   33
 71
    5
  3
Standard
 53
0
210
0
220
0
230
1
100
AcDbAlignedDimension
 13
180.2358490598335
 23
487.4992619804386
 33
0
 14
189.965578789567
 24
485.8776403588122
 34
0
  0
DIMENSION
  5
274
100
AcDbEntity
  8
measures
  6
ByLayer
 62
  256
370
   -1
100
AcDbDimension
  2
*D19
 10
336.8162578387187
 20
436.0168093069313
 30
0
 11
331.6431448726727
 21
437.0554871033084
 31
0
 70
   33
 71
    5
  3
Standard
 53
0
210
0
220
0
230
1
100
AcDbAlignedDimension
 13
318.5061193295178
 23
485.8776403623332
 33
0
 14
328.2358490592147
 24
487.4992619839495
 34
0
  0
LINE
  5
275
100
AcDbEntity
  8
builder
  6
ByLayer
 62
  256
370
   -1
100
AcDbLine
 10
406.7212242759384
 20
673.0028998837411
 11
245.6404991598373
 21
646.1561123643876
  0
LINE
  5
276
100
AcDbEntity
  8
builder
  6
ByLayer
 62
  256
370
   -1
100
AcDbLine
 10
410.8311989585926
 20
648.3430517879297
 11
249.7504738424916
 21
621.4962642685762
  0
LINE
  5
277
100
AcDbEntity
  8
builder
  6
ByLayer
 62
  256
370
   -1
100
AcDbLine
 10
101.7504738492203
 20
673.002899879239
 11
262.831198953094
 21
646.1561123618584
  0
LINE
  5
278
100
AcDbEntity
  8
builder
  6
ByLayer
 62
  256
370
   -1
100
AcDbLine
 10
97.64050953005378
 20
648.3430500561898
 11
258.7212346339276
 21
621.4962625388092
  0
LINE
  5
279
100
AcDbEntity
  8
builder
  6
ByLayer
 62
  256
370
   -1
100
AcDbLine
 10
420.5211187578224
 20
233.6311343997519
 11
420.5211187578224
 21
337.8979215121767
  0
LINE
  5
27A
100
AcDbEntity
  8
builder
  6
ByLayer
 62
  256
370
   -1
100
AcDbLine
 10
93.38137024837562
 20
233.6311343997519
 11
93.38137024837562
 21
337.8979215121767
  0
DIMENSION
  5
27B
100
AcDbEntity
  8
measures
  6
ByLayer
 62
  256
370
   -1
100
AcDbDimension
  2
*D20
 10
445.8283099094496
 20
324.9111343997516
 30
0
 11
443.9533099094496
 21
279.2711343997518
 31
0
 70
   32
 71
    5
  3
Standard
 53
0
210
0
220
0
230
1
100
AcDbAlignedDimension
 13
425.5211187578211
 23
233.6311343997519
 33
0
 14
425.5211187578211
 24
324.9111343997516
 34
0
 50
90
100
AcDbRotatedDimension
  0
LINE
  5
27C
100
AcDbEntity
  8
builder
  6
ByLayer
 62
  256
370
   -1
100
AcDbLine
 10
415.5211187578237
 20
233.6311343997519
 11
415.5211187578237
 21
337.8979215121767
  0
LINE
  5
27D
100
AcDbEntity
  8
builder
  6
ByLayer
 62
  256
370
   -1
100
AcDbLine
 10
98.38137024837937
 20
233.6311343997519
 11
98.38137024837937
 21
337.8979215121767
  0
LINE
  5
27E
100
AcDbEntity
  8
builder
  6
ByLayer
 62
  256
370
   -1
100
AcDbLine
 10
269.2358490598036
 20
471.9119937131313
 11
269.2358490597973
 21
419.9504694860661
  0
LINE
  5
27F
100
AcDbEntity
  8
builder
  6
ByLayer
 62
  256
370
   -1
100
AcDbLine
 10
239.2358490598054
 20
471.9119937131338
 11
239.2358490597992
 21
419.9504694860698
  0
LINE
  5
280
100
AcDbEntity
  8
builder
  6
ByLayer
 62
  256
370
   -1
100
AcDbLine
 10
254.2358490598016
 20
230.0359622447005
 11
254.2358490598016
 21
180.0688302202941
  0
LINE
  5
281
100
AcDbEntity
  8
builder
  6
ByLayer
 62
  256
370
   -1
100
AcDbLine
 10
269.2358490598026
 20
388.7286147620185
 11
269.2358490598003
 21
185.0359622447005
  0
LINE
  5
282
100
AcDbEntity
  8
builder
  6
ByLayer
 62
  256
370
   -1
100
AcDbLine
 10
239.2358490598029
 20
185.0359622447005
 11
239.2358490597976
 21
388.7286147620185
  0
LINE
  5
283
100
AcDbEntity
  8
builder
  6
ByLayer
 62
  256
370
   -1
100
AcDbLine
 10
174.235849059801
 20
190.0359622446971
 11
334.2358490598037
 21
190.0359622446993
  0
LINE
  5
284
100
AcDbEntity
  8
builder
  6
ByLayer
 62
  256
370
   -1
100
AcDbLine
 10
189.235849059802
 20
383.7286147620191
 11
319.2358490598018
 21
383.728614762016
  0
DIMENSION
  5
285
100
AcDbEntity
  8
measures
  6
ByLayer
 62
  256
370
   -1
100
AcDbDimension
  2
*D21
 10
239.2358490598028
 20
176.7122840429431
 30
0
 11
206.7358490598019
 21
178.5872840429431
 31
0
 70
   32
 71
    5
  3
Standard
 53
0
210
0
220
0
230
1
100
AcDbAlignedDimension
 13
174.235849059801
 23
185.0359622447004
 33
0
 14
239.2358490598028
 24
190.035962244698
 34
0
100
AcDbRotatedDimension
  0
DIMENSION
  5
286
100
AcDbEntity
  8
measures
  6
ByLayer
 62
  256
370
   -1
100
AcDbDimension
  2
*D22
 10
269.2358490598003
 20
176.9097279357285
 30
0
 11
254.2358490598016
 21
178.7847279357285
 31
0
 70
   32
 71
    5
  3
Standard
 53
0
210
0
220
0
230
1
100
AcDbAlignedDimension
 13
239.2358490598028
 23
190.035962244698
 33
0
 14
269.2358490598003
 24
190.0359622446984
 34
0
100
AcDbRotatedDimension
  0
DIMENSION
  5
287
100
AcDbEntity
  8
measures
  6
ByLayer
 62
  256
370
   -1
100
AcDbDimension
  2
*D23
 10
334.2358490598037
 20
177.1071718285139
 30
0
 11
301.735849059802
 21
178.9821718285139
 31
0
 70
   32
 71
    5
  3
Standard
 53
0
210
0
220
0
230
1
100
AcDbAlignedDimension
 13
269.2358490598003
 23
190.0359622446984
 33
0
 14
334.2358490598037
 24
185.0359622447006
 34
0
100
AcDbRotatedDimension
  0
DIMENSION
  5
288
100
AcDbEntity
  8
measures
  6
ByLayer
 62
  256
370
   -1
100
AcDbDimension
  2
*D24
 10
239.2358490597978
 20
394.8844290246458
 30
0
 11
214.2358490597999
 21
396.7594290246458
 31
0
 70
   32
 71
    5
  3
Standard
 53
0
210
0
220
0
230
1
100
AcDbAlignedDimension
 13
189.235849059802
 23
388.7286147620185
 33
0
 14
239.2358490597978
 24
383.7286147620179
 34
0
100
AcDbRotatedDimension
  0
DIMENSION
  5
289
100
AcDbEntity
  8
measures
  6
ByLayer
 62
  256
370
   -1
100
AcDbDimension
  2
*D25
 10
269.2358490598025
 20
394.8844290246458
 30
0
 11
254.2358490598002
 21
396.7594290246458
 31
0
 70
   32
 71
    5
  3
Standard
 53
0
210
0
220
0
230
1
100
AcDbAlignedDimension
 13
239.2358490597978
 23
383.7286147620179
 33
0
 14
269.2358490598025
 24
383.7286147620172
 34
0
100
AcDbRotatedDimension
  0
DIMENSION
  5
28A
100
AcDbEntity
  8
measures
  6
ByLayer
 62
  256
370
   -1
100
AcDbDimension
  2
*D26
 10
319.2358490598018
 20
395.3334164368399
 30
0
 11
294.2358490598021
 21
397.2084164368399
 31
0
 70
   32
 71
    5
  3
Standard
 53
0
210
0
220
0
230
1
100
AcDbAlignedDimension
 13
269.2358490598025
 23
383.7286147620172
 33
0
 14
319.2358490598018
 24
388.7286147620185
 34
0
100
AcDbRotatedDimension
  0
DIMENSION
  5
28B
100
AcDbEntity
  8
measures
  6
ByLayer
 62
  256
370
   -1
100
AcDbDimension
  2
*D27
 10
254.2358490598016
 20
336.4186351709766
 30
0
 11
221.7358490598018
 21
338.2936351709766
 31
0
 70
   32
 71
    5
  3
Standard
 53
0
210
0
220
0
230
1
100
AcDbAlignedDimension
 13
189.235849059802
 23
329.8111343997519
 33
0
 14
254.2358490598016
 24
308.6311343997535
 34
0
100
AcDbRotatedDimension
  0
DIMENSION
  5
28C
100
AcDbEntity
  8
measures
  6
ByLayer
 62
  256
370
   -1
100
AcDbDimension
  2
*D28
 10
319.2358490598018
 20
336.4186351709766
 30
0
 11
286.7358490598017
 21
338.2936351709766
 31
0
 70
   32
 71
    5
  3
Standard
 53
0
210
0
220
0
230
1
100
AcDbAlignedDimension
 13
254.2358490598016
 23
308.6311343997535
 33
0
 14
319.2358490598018
 24
329.8111343997519
 34
0
100
AcDbRotatedDimension
  0
LINE
  5
28D
100
AcDbEntity
  8
builder
  6
ByLayer
 62
  256
370
   -1
100
AcDbLine
 10
414.0602268082732
 20
628.9688846897941
 11
252.9795016921721
 21
602.1220971704406
  0
LINE
  5
28E
100
AcDbEntity
  8
builder
  6
ByLayer
 62
  256
370
   -1
100
AcDbLine
 10
305.4858490586055
 20
693.7495820794145
 11
320.9858490598062
 21
600.7495820726393
  0
LINE
  5
28F
100
AcDbEntity
  8
builder
  6
ByLayer
 62
  256
370
   -1
100
AcDbLine
 10
94.41148168094421
 20
628.9688829615815
 11
255.4922067848181
 21
602.1220954442009
  0
LINE
  5
290
100
AcDbEntity
  8
builder
  6
ByLayer
 62
  256
370
   -1
100
AcDbLine
 10
187.4858490598156
 20
600.7495820726547
 11
202.9858490598626
 21
693.7495820726368
  0
LINE
  5
291
100
AcDbEntity
  8
0
  6
ByLayer
 62
  256
370
   -1
100
AcDbLine
 10
189.1298389328748
 20
610.6135213109777
 11
187.4858490598156
 21
600.7495820726547
  0
LINE
  5
292
100
AcDbEntity
  8
0
  6
ByLayer
 62
  256
370
   -1
100
AcDbLine
 10
187.4858490598156
 20
600.7495820726547
 11
320.9858490598024
 21
600.7495820726624
  0
LINE
  5
293
100
AcDbEntity
  8
0
  6
ByLayer
 62
  256
370
   -1
100
AcDbLine
 10
320.9858490598024
 20
600.7495820726624
 11
318.9252696556227
 21
613.1130584976837
  0
LINE
  5
294
100
AcDbEntity
  8
0
  6
ByLayer
 62
  256
370
   -1
100
AcDbLine
 10
318.9252696556227
 20
613.1130584976837
 11
333.5198642502223
 21
615.5454909301174
  0
LINE
  5
295
100
AcDbEntity
  8
0
  6
ByLayer
 62
  256
370
   -1
100
AcDbLine
 10
189.1298389328748
 20
610.6135213109777
 11
189.5464284639963
 21
613.1130584976992
  0
LINE
  5
296
100
AcDbEntity
  8
0
  6
ByLayer
 62
  256
370
   -1
100
AcDbLine
 10
189.5464284639963
 20
613.1130584976992
 11
174.951833869402
 21
615.5454909301377
  0
LINE
  5
297
100
AcDbEntity
  8
0
  6
ByLayer
 62
  256
370
   -1
100
AcDbLine
 10
187.9858490598517
 20
693.749582072638
 11
174.951833869402
 21
615.5454909301377
  0
LINE
  5
298
100
AcDbEntity
  8
0
  6
ByLayer
 62
  256
370
   -1
100
AcDbLine
 10
320.485849058627
 20
693.7495820796792
 11
333.5198642502223
 21
615.5454909301174
  0
DIMENSION
  5
299
100
AcDbEntity
  8
measures
  6
ByLayer
 62
  256
370
   -1
100
AcDbDimension
  2
*D29
 10
254.2358490598016
 20
430.2924950349947
 30
0
 11
239.2358490598021
 21
432.1674950349947
 31
0
 70
   32
 71
    5
 72
    0
  3
Standard
 53
0
210
0
220
0
230
1
100
AcDbAlignedDimension
 13
224.2358490598026
 23
445.9312315996032
 33
0
 14
254.2358490598016
 24
445.9312315996001
 34
0
100
AcDbRotatedDimension
  0
DIMENSION
  5
29A
100
AcDbEntity
  8
measures
  6
ByLayer
 62
  256
370
   -1
100
AcDbDimension
  2
*D30
 10
284.2358490598006
 20
430.2953365744883
 30
0
 11
269.2358490598011
 21
432.1703365744883
 31
0
 70
   32
 71
    5
 72
    0
  3
Standard
 53
0
210
0
220
0
230
1
100
AcDbAlignedDimension
 13
254.2358490598016
 23
445.9312315996001
 33
0
 14
284.2358490598006
 24
445.9312315995968
 34
0
100
AcDbRotatedDimension
  0
DIMENSION
  5
29B
100
AcDbEntity
  8
measures
  6
ByLayer
 62
  256
370
   -1
100
AcDbDimension
  2
*D31
 10
254.2358490598016
 20
541.6131243999795
 30
0
 11
239.2358490598022
 21
543.4881243999795
 31
0
 70
   32
 71
    5
 72
    0
  3
Standard
 53
0
210
0
220
0
230
1
100
AcDbAlignedDimension
 13
224.2358490598028
 23
529.0672923632139
 33
0
 14
254.2358490598016
 24
529.0672923647894
 34
0
100
AcDbRotatedDimension
  0
DIMENSION
  5
29C
100
AcDbEntity
  8
measures
  6
ByLayer
 62
  256
370
   -1
100
AcDbDimension
  2
*D32
 10
284.2358490598004
 20
541.6131243999795
 30
0
 11
269.235849059801
 21
543.4881243999795
 31
0
 70
   32
 71
    5
 72
    0
  3
Standard
 53
0
210
0
220
0
230
1
100
AcDbAlignedDimension
 13
254.2358490598016
 23
529.0672923647894
 33
0
 14
284.2358490598004
 24
529.067292366365
 34
0
100
AcDbRotatedDimension
  0
DIMENSION
  5
29D
100
AcDbEntity
  8
measures
  6
ByLayer
 62
  256
370
   -1
100
AcDbDimension
  2
*D33
 10
187.9858490598517
 20
549.945634006133
 30
0
 11
254.2358490598256
 21
551.820634006133
 31
0
 70
   32
 71
    5
 72
    0
  3
Standard
 53
0
210
0
220
0
230
1
100
AcDbAlignedDimension
 13
320.4858490597995
 23
533.9992619804347
 33
0
 14
187.9858490598517
 24
533.9992619804291
 34
0
100
AcDbRotatedDimension
  0
DIMENSION
  5
29E
100
AcDbEntity
  8
measures
  6
ByLayer
 62
  256
370
   -1
100
AcDbDimension
  2
*D34
 10
169.1908578830617
 20
463.995249966995
 30
0
 11
165.5889241847563
 21
453.7888275215055
 31
0
 70
   33
 71
    5
 72
    0
  3
Standard
 53
0
210
0
220
0
230
1
100
AcDbAlignedDimension
 13
177.4858490598154
 23
440.999261980447
 33
0
 14
180.990739242056
 24
462.028603073823
 34
0
  0
DIMENSION
  5
29F
100
AcDbEntity
  8
measures
  6
ByLayer
 62
  256
370
   -1
100
AcDbDimension
  2
*D35
 10
173.3680716503922
 20
488.6438915486831
 30
0
 11
169.4635957018836
 21
476.6222156019805
 31
0
 70
   33
 71
    5
 72
    0
  3
Standard
 53
0
210
0
220
0
230
1
100
AcDbAlignedDimension
 13
180.990739242056
 23
462.028603073823
 33
0
 14
185.1007139247029
 24
486.688451169625
 34
0
  0
DIMENSION
  5
2A0
100
AcDbEntity
  8
measures
  6
ByLayer
 62
  256
370
   -1
100
AcDbDimension
  2
*D36
 10
177.6334952201167
 20
513.2778314966386
 30
0
 11
173.7290192716082
 21
501.2561555499361
 31
0
 70
   33
 71
    5
 72
    0
  3
Standard
 53
0
210
0
220
0
230
1
100
AcDbAlignedDimension
 13
185.1007139247029
 23
486.688451169625
 33
0
 14
189.2106886073498
 24
511.3482992654268
 34
0
  0
DIMENSION
  5
2A1
100
AcDbEntity
  8
measures
  6
ByLayer
 62
  256
370
   -1
100
AcDbDimension
  2
*D37
 10
181.5043165262573
 20
535.9128507363091
 30
0
 11
177.7672476927938
 21
524.8956174798736
 31
0
 70
   33
 71
    5
 72
    0
  3
Standard
 53
0
210
0
220
0
230
1
100
AcDbAlignedDimension
 13
189.2106886073498
 23
511.3482992654268
 33
0
 14
192.9858490599066
 24
533.9992619806948
 34
0
  0
LINE
  5
2A2
100
AcDbEntity
  8
builder
  6
ByLayer
 62
  256
370
   -1
100
AcDbLine
 10
415.5211187578237
 20
279.951134399753
 11
425.5211187578211
 21
279.9511343997522
  0
LINE
  5
2A3
100
AcDbEntity
  8
builder
  6
ByLayer
 62
  256
370
   -1
100
AcDbLine
 10
420.5211187578225
 20
294.951134399753
 11
86.52598296088632
 21
294.951134399753
  0
LINE
  5
2A4
100
AcDbEntity
  8
builder
  6
ByLayer
 62
  256
370
   -1
100
AcDbLine
 10
420.5211187578225
 20
264.951134399752
 11
86.10006122511233
 21
264.951134399752
  0
CIRCLE
  5
2A5
100
AcDbEntity
  8
0
  6
ByLayer
 62
  256
370
   -1
100
AcDbCircle
 10
420.5211187578224
 20
294.951134399753
 40
1.6
  0
CIRCLE
  5
2A6
100
AcDbEntity
  8
0
  6
ByLayer
 62
  256
370
   -1
100
AcDbCircle
 10
420.5211187578224
 20
264.951134399752
 40
1.6
  0
CIRCLE
  5
2A7
100
AcDbEntity
  8
0
  6
ByLayer
 62
  256
370
   -1
100
AcDbCircle
 10
93.38137024837562
 20
294.951134399753
 40
1.6
  0
CIRCLE
  5
2A8
100
AcDbEntity
  8
0
  6
ByLayer
 62
  256
370
   -1
100
AcDbCircle
 10
93.38137024837562
 20
264.951134399752
 40
1.6
  0
CIRCLE
  5
2A9
100
AcDbEntity
  8
0
  6
ByLayer
 62
  256
370
   -1
100
AcDbCircle
 10
239.2358490598028
 20
190.035962244698
 40
1.6
  0
CIRCLE
  5
2AA
100
AcDbEntity
  8
0
  6
ByLayer
 62
  256
370
   -1
100
AcDbCircle
 10
269.2358490598003
 20
190.0359622446984
 40
1.6
  0
CIRCLE
  5
2AB
100
AcDbEntity
  8
0
  6
ByLayer
 62
  256
370
   -1
100
AcDbCircle
 10
239.2358490597977
 20
383.7286147620179
 40
1.6
  0
CIRCLE
  5
2AC
100
AcDbEntity
  8
0
  6
ByLayer
 62
  256
370
   -1
100
AcDbCircle
 10
269.2358490598025
 20
383.7286147620172
 40
1.6
  0
DIMENSION
  5
2AD
100
AcDbEntity
  8
measures
  6
ByLayer
 62
  256
370
   -1
100
AcDbDimension
  2
*D38
 10
434.9830858191244
 20
264.951134399752
 30
0
 11
433.1080858191244
 21
249.291134399752
 31
0
 70
   32
 71
    5
 72
    0
  3
Standard
 53
0
210
0
220
0
230
1
100
AcDbAlignedDimension
 13
420.5211187578224
 23
233.6311343997519
 33
0
 14
420.5211187578224
 24
264.951134399752
 34
0
 50
90
100
AcDbRotatedDimension
  0
DIMENSION
  5
2AE
100
AcDbEntity
  8
measures
  6
ByLayer
 62
  256
370
   -1
100
AcDbDimension
  2
*D39
 10
435.0434292924571
 20
294.951134399753
 30
0
 11
433.1684292924571
 21
279.9511343997525
 31
0
 70
   32
 71
    5
 72
    0
  3
Standard
 53
0
210
0
220
0
230
1
100
AcDbAlignedDimension
 13
420.5211187578224
 23
264.951134399752
 33
0
 14
420.5211187578224
 24
294.951134399753
 34
0
 50
90
100
AcDbRotatedDimension
  0
DIMENSION
  5
2AF
100
AcDbEntity
  8
measures
  6
ByLayer
 62
  256
370
   -1
100
AcDbDimension
  2
*D40
 10
240.6081986479596
 20
382.9060233641344
 30
0
 11
240.1998233541924
 21
385.3368369356451
 31
0
 70
   35
 71
    5
 72
    0
  3
Standard
 53
0
210
0
220
0
230
1
100
AcDbDiametricDimension
 15
237.8634994716359
 25
384.5512061599013
 35
0
 40
0
  0
DIMENSION
  5
2B0
100
AcDbEntity
  8
measures
  6
ByLayer
 62
  256
370
   -1
100
AcDbDimension
  2
*D41
 10
267.8635128278084
 20
189.2133485647962
 30
0
 11
268.271848653665
 21
191.6441687665639
 31
0
 70
   35
 71
    5
 72
    0
  3
Standard
 53
0
210
0
220
0
230
1
100
AcDbDiametricDimension
 15
270.6081852917923
 25
190.8585759246006
 35
0
 40
0
  0
DIMENSION
  5
2B1
100
AcDbEntity
  8
measures
  6
ByLayer
 62
  256
370
   -1
100
AcDbDimension
  2
*D42
 10
92.2644886652206
 20
263.805457512838
 30
0
 11
92.03878014652318
 21
266.2599800050118
 31
0
 70
   35
 71
    5
 72
    0
  3
Standard
 53
0
210
0
220
0
230
1
100
AcDbDiametricDimension
 15
94.49825183153064
 25
266.0968112866661
 35
0
 40
0
  0
DIMENSION
  5
2B2
100
AcDbEntity
  8
measures
  6
ByLayer
 62
  256
370
   -1
100
AcDbDimension
  2
*D43
 10
419.9191617733328
 20
263.4686878446196
 30
0
 11
418.7838767010265
 21
265.6565527409508
 31
0
 70
   35
 71
    5
 72
    0
  3
Standard
 53
0
210
0
220
0
230
1
100
AcDbDiametricDimension
 15
421.123075742312
 25
266.4335809548845
 35
0
 40
0
  0
CIRCLE
  5
2B3
100
AcDbEntity
  8
0
  6
ByLayer
 62
  256
370
   -1
100
AcDbCircle
 10
319.2610095116972
 20
671.0986193611471
 40
2.6
  0
CIRCLE
  5
2B4
100
AcDbEntity
  8
0
  6
ByLayer
 62
  256
370
   -1
100
AcDbCircle
 10
323.3709841943494
 20
646.4387712653474
 40
2.6
  0
CIRCLE
  5
2B5
100
AcDbEntity
  8
0
  6
ByLayer
 62
  256
370
   -1
100
AcDbCircle
 10
327.4809588770017
 20
621.7789231695475
 40
2.6
  0
CIRCLE
  5
2B6
100
AcDbEntity
  8
0
  6
ByLayer
 62
  256
370
   -1
100
AcDbCircle
 10
284.2358490598007
 20
605.6815516918057
 40
2.6
  0
CIRCLE
  5
2B7
100
AcDbEntity
  8
0
  6
ByLayer
 62
  256
370
   -1
100
AcDbCircle
 10
254.2358490598017
 20
605.681551691809
 40
2.6
  0
CIRCLE
  5
2B8
100
AcDbEntity
  8
0
  6
ByLayer
 62
  256
370
   -1
100
AcDbCircle
 10
224.2358490598027
 20
605.681551691812
 40
2.6
  0
CIRCLE
  5
2B9
100
AcDbEntity
  8
0
  6
ByLayer
 62
  256
370
   -1
100
AcDbCircle
 10
180.9907392420561
 20
621.778923166032
 40
2.6
  0
CIRCLE
  5
2BA
100
AcDbEntity
  8
0
  6
ByLayer
 62
  256
370
   -1
100
AcDbCircle
 10
185.100713924703
 20
646.4387712618338
 40
2.6
  0
CIRCLE
  5
2BB
100
AcDbEntity
  8
0
  6
ByLayer
 62
  256
370
   -1
100
AcDbCircle
 10
189.2106886073498
 20
671.0986193576357
 40
2.6
  0
CIRCLE
  5
2BC
100
AcDbEntity
  8
0
  6
ByLayer
 62
  256
370
   -1
100
AcDbCircle
 10
224.2358490598028
 20
688.8176124554228
 40
2.6
  0
CIRCLE
  5
2BD
100
AcDbEntity
  8
0
  6
ByLayer
 62
  256
370
   -1
100
AcDbCircle
 10
254.2358490598017
 20
688.8176124569983
 40
2.6
  0
CIRCLE
  5
2BE
100
AcDbEntity
  8
0
  6
ByLayer
 62
  256
370
   -1
100
AcDbCircle
 10
284.2358490598004
 20
688.8176124585739
 40
2.6
  0
DIMENSION
  5
2BF
100
AcDbEntity
  8
measures
  6
ByLayer
 62
  256
370
   -1
100
AcDbDimension
  2
*D44
 10
226.7636961177501
 20
606.2898191096691
 30
0
 11
223.797194671925
 21
607.5045183201395
 31
0
 70
   35
 71
    5
 72
    0
  3
Standard
 53
0
210
0
220
0
230
1
100
AcDbDiametricDimension
 15
221.7080020018553
 25
605.073284273955
 35
0
 40
0
  0
DIMENSION
  5
2C0
100
AcDbEntity
  8
measures
  6
ByLayer
 62
  256
370
   -1
100
AcDbDimension
  2
*D45
 10
321.5116374663789
 20
672.4004157390823
 30
0
 11
318.3222140468401
 21
672.7216683669272
 31
0
 70
   35
 71
    5
 72
    0
  3
Standard
 53
0
210
0
220
0
230
1
100
AcDbDiametricDimension
 15
317.0103815570155
 25
669.796822983212
 35
0
 40
0
  0
DIMENSION
  5
2C1
100
AcDbEntity
  8
measures
  6
ByLayer
 62
  256
370
   -1
100
AcDbDimension
  2
*D46
 10
256.7478553316512
 20
689.4883020202006
 30
0
 11
253.7521787017231
 21
690.6291554415052
 31
0
 70
   35
 71
    5
 72
    0
  3
Standard
 53
0
210
0
220
0
230
1
100
AcDbDiametricDimension
 15
251.7238427879522
 25
688.1469228937959
 35
0
 40
0
  0
DIMENSION
  5
2C2
100
AcDbEntity
  8
measures
  6
ByLayer
 62
  256
370
   -1
100
AcDbDimension
  2
*D47
 10
182.735319356733
 20
645.359461974457
 30
0
 11
184.3223658809216
 21
648.1445846521968
 31
0
 70
   35
 71
    5
 72
    0
  3
Standard
 53
0
210
0
220
0
230
1
100
AcDbDiametricDimension
 15
187.466108492673
 25
647.5180805492107
 35
0
 40
0
  0
CIRCLE
  5
2C3
100
AcDbEntity
  8
0
  6
ByLayer
 62
  256
370
   -1
100
AcDbCircle
 10
327.4809588770017
 20
462.0286030773386
 40
2.6
  0
CIRCLE
  5
2C4
100
AcDbEntity
  8
0
  6
ByLayer
 62
  256
370
   -1
100
AcDbCircle
 10
323.3709841943494
 20
486.6884511731385
 40
2.6
  0
CIRCLE
  5
2C5
100
AcDbEntity
  8
0
  6
ByLayer
 62
  256
370
   -1
100
AcDbCircle
 10
319.2610095116971
 20
511.3482992689383
 40
2.6
  0
CIRCLE
  5
2C6
100
AcDbEntity
  8
0
  6
ByLayer
 62
  256
370
   -1
100
AcDbCircle
 10
284.2358490598004
 20
529.067292366365
 40
2.6
  0
CIRCLE
  5
2C7
100
AcDbEntity
  8
0
  6
ByLayer
 62
  256
370
   -1
100
AcDbCircle
 10
254.2358490598016
 20
529.0672923647894
 40
2.6
  0
CIRCLE
  5
2C8
100
AcDbEntity
  8
0
  6
ByLayer
 62
  256
370
   -1
100
AcDbCircle
 10
224.2358490598028
 20
529.0672923632139
 40
2.6
  0
CIRCLE
  5
2C9
100
AcDbEntity
  8
0
  6
ByLayer
 62
  256
370
   -1
100
AcDbCircle
 10
189.2106886073498
 20
511.3482992654268
 40
2.6
  0
CIRCLE
  5
2CA
100
AcDbEntity
  8
0
  6
ByLayer
 62
  256
370
   -1
100
AcDbCircle
 10
185.1007139247029
 20
486.688451169625
 40
2.6
  0
CIRCLE
  5
2CB
100
AcDbEntity
  8
0
  6
ByLayer
 62
  256
370
   -1
100
AcDbCircle
 10
180.990739242056
 20
462.028603073823
 40
2.6
  0
CIRCLE
  5
2CC
100
AcDbEntity
  8
0
  6
ByLayer
 62
  256
370
   -1
100
AcDbCircle
 10
224.2358490598026
 20
445.9312315996032
 40
2.6
  0
CIRCLE
  5
2CD
100
AcDbEntity
  8
0
  6
ByLayer
 62
  256
370
   -1
100
AcDbCircle
 10
254.2358490598016
 20
445.9312315996001
 40
2.6
  0
CIRCLE
  5
2CE
100
AcDbEntity
  8
0
  6
ByLayer
 62
  256
370
   -1
100
AcDbCircle
 10
284.2358490598006
 20
445.9312315995968
 40
2.6
  0
DIMENSION
  5
2CF
100
AcDbEntity
  8
measures
  6
ByLayer
 62
  256
370
   -1
100
AcDbDimension
  2
*D48
 10
251.7554586685772
 20
528.2877646185729
 30
0
 11
253.6736896274339
 21
530.856035435384
 31
0
 70
   35
 71
    5
 72
    0
  3
Standard
 53
0
210
0
220
0
230
1
100
AcDbDiametricDimension
 15
256.7162394510261
 25
529.846820111006
 35
0
 40
0
  0
DIMENSION
  5
2D0
100
AcDbEntity
  8
measures
  6
ByLayer
 62
  256
370
   -1
100
AcDbDimension
  2
*D49
 10
251.895995448569
 20
444.797615669048
 30
0
 11
253.4183375714227
 21
447.6186260307775
 31
0
 70
   35
 71
    5
 72
    0
  3
Standard
 53
0
210
0
220
0
230
1
100
AcDbDiametricDimension
 15
256.5757026710343
 25
447.0648475301522
 35
0
 40
0
  0
DIMENSION
  5
2D1
100
AcDbEntity
  8
measures
  6
ByLayer
 62
  256
370
   -1
100
AcDbDimension
  2
*D50
 10
183.2647351892103
 20
484.8474780348892
 30
0
 11
183.7730890679223
 21
488.0124742961822
 31
0
 70
   35
 71
    5
 72
    0
  3
Standard
 53
0
210
0
220
0
230
1
100
AcDbDiametricDimension
 15
186.9366926601955
 25
488.5294243043608
 35
0
 40
0
  0
DIMENSION
  5
2D2
100
AcDbEntity
  8
measures
  6
ByLayer
 62
  256
370
   -1
100
AcDbDimension
  2
*D51
 10
322.0601887765449
 20
484.4430524618485
 30
0
 11
321.7517062775537
 21
487.633736330209
 31
0
 70
   35
 71
    5
 72
    0
  3
Standard
 53
0
210
0
220
0
230
1
100
AcDbDiametricDimension
 15
324.6817796121538
 25
488.9338498844285
 35
0
 40
0
  0
LWPOLYLINE
  5
2D3
100
AcDbEntity
  8
internalComps
  6
ByLayer
 62
  256
370
   -1
100
AcDbPolyline
 90
    4
 70
    1
 43
0
 10
207.2358490598016
 20
285.8111343997519
 10
301.2358490598016
 20
285.8111343997519
 10
301.2358490598016
 20
329.8111343997519
 10
207.2358490598016
 20
329.8111343997519
  0
LWPOLYLINE
  5
2D4
100
AcDbEntity
  8
internalComps
  6
ByLayer
 62
  256
370
   -1
100
AcDbPolyline
 90
    4
 70
    1
 43
0
 10
208.7358490598016
 20
242.5543954583981
 10
299.7358490598016
 20
242.5543954583981
 10
299.7358490598016
 20
282.5543954583981
 10
208.7358490598016
 20
282.5543954583981
  0
CIRCLE
  5
2D5
100
AcDbEntity
  8
0
  6
ByLayer
 62
  256
370
   -1
100
AcDbCircle
 10
274.2358490597995
 20
658.749582072643
 40
3.1
  0
CIRCLE
  5
2D6
100
AcDbEntity
  8
0
  6
ByLayer
 62
  256
370
   -1
100
AcDbCircle
 10
274.2358490597999
 20
631.7495820726442
 40
3.1
  0
CIRCLE
  5
2D7
100
AcDbEntity
  8
0
  6
ByLayer
 62
  256
370
   -1
100
AcDbCircle
 10
234.2358490598018
 20
631.7495820726446
 40
3.1
  0
CIRCLE
  5
2D8
100
AcDbEntity
  8
0
  6
ByLayer
 62
  256
370
   -1
100
AcDbCircle
 10
234.2358490598021
 20
658.7495820726452
 40
3.1
  0
DIMENSION
  5
2D9
100
AcDbEntity
  8
measures
  6
ByLayer
 62
  256
370
   -1
100
AcDbDimension
  2
*D52
 10
277.2914426708373
 20
658.2267554434583
 30
0
 11
274.5520748435806
 21
660.5977233696417
 31
0
 70
   35
 71
    5
  3
Standard
 53
0
210
0
220
0
230
1
100
AcDbDiametricDimension
 15
271.1802554487616
 25
659.2724087018277
 35
0
 40
0
  0
ENDSEC
  0
SECTION
  2
OBJECTS
  0
DICTIONARY
  5
C
330
0
100
AcDbDictionary
281
    1
  3
ACAD_GROUP
350
D
  0
DICTIONARY
  5
D
330
C
100
AcDbDictionary
281
    1
  0
PLOTSETTINGS
  5
2DA
100
AcDbPlotSettings
  6
1x1
 40
0
 41
0
 42
0
 43
0
  0
ENDSEC
  0
EOF
