999
dxfrw 0.6.3
  0
SECTION
  2
HEADER
  9
$ACADVER
  1
AC1021
  9
$DWGCODEPAGE
  3
ANSI_1252
  9
$INSBASE
 10
0
 20
0
 30
0
  9
$EXTMIN
 10
65.56126953235039
 20
98.85566009366551
 30
0
  9
$EXTMAX
 10
489.5444077819965
 20
711.0153532638512
 30
0
  9
$LIMMIN
 10
0
 20
0
  9
$LIMMAX
 10
420
 20
297
  9
$ORTHOMODE
 70
    0
  9
$REGENMODE
 70
    1
  9
$FILLMODE
 70
    1
  9
$QTEXTMODE
 70
    0
  9
$MIRRTEXT
 70
    0
  9
$LTSCALE
 40
1
  9
$ATTMODE
 70
    0
  9
$TEXTSIZE
 40
2.5
  9
$TRACEWID
 40
15.68
  9
$TEXTSTYLE
  7
STANDARD
  9
$CLAYER
  8
builder
  9
$CELTYPE
  6
BYLAYER
  9
$CECOLOR
 62
  256
  9
$CELTSCALE
 40
1
  9
$DISPSILH
 70
    0
  9
$DIMSCALE
 40
1
  9
$DIMASZ
 40
2.5
  9
$DIMEXO
 40
0.625
  9
$DIMDLI
 40
3.75
  9
$DIMRND
 40
0
  9
$DIMDLE
 40
0
  9
$DIMEXE
 40
1.25
  9
$DIMTP
 40
0
  9
$DIMTM
 40
0
  9
$DIMTXT
 40
4
  9
$DIMCEN
 40
2.5
  9
$DIMTSZ
 40
0
  9
$DIMTOL
 70
    0
  9
$DIMLIM
 70
    0
  9
$DIMTIH
 70
    0
  9
$DIMTOH
 70
    0
  9
$DIMSE1
 70
    0
  9
$DIMSE2
 70
    0
  9
$DIMTAD
 70
    1
  9
$DIMZIN
 70
    8
  9
$DIMBLK
  1

  9
$DIMASO
 70
    1
  9
$DIMSHO
 70
    1
  9
$DIMPOST
  1

  9
$DIMAPOST
  1

  9
$DIMALT
 70
    0
  9
$DIMALTD
 70
    3
  9
$DIMALTF
 40
0.03937
  9
$DIMLFAC
 40
1
  9
$DIMTOFL
 70
    1
  9
$DIMTVP
 40
0
  9
$DIMTIX
 70
    0
  9
$DIMSOXD
 70
    0
  9
$DIMSAH
 70
    0
  9
$DIMBLK1
  1

  9
$DIMBLK2
  1

  9
$DIMSTYLE
  2
STANDARD
  9
$DIMCLRD
 70
    0
  9
$DIMCLRE
 70
    0
  9
$DIMCLRT
 70
    0
  9
$DIMTFAC
 40
1
  9
$DIMGAP
 40
1
  9
$DIMJUST
 70
    0
  9
$DIMSD1
 70
    0
  9
$DIMSD2
 70
    0
  9
$DIMTOLJ
 70
    0
  9
$DIMTZIN
 70
    8
  9
$DIMALTZ
 70
    0
  9
$DIMALTTZ
 70
    0
  9
$DIMUPT
 70
    0
  9
$DIMDEC
 70
    2
  9
$DIMTDEC
 70
    2
  9
$DIMALTU
 70
    2
  9
$DIMALTTD
 70
    3
  9
$DIMTXSTY
  7
standard
  9
$DIMAUNIT
 70
    0
  9
$DIMADEC
 70
    0
  9
$DIMALTRND
 40
0
  9
$DIMAZIN
 70
    0
  9
$DIMDSEP
 70
   44
  9
$DIMATFIT
 70
    3
  9
$DIMFRAC
 70
    0
  9
$DIMLDRBLK
  1
STANDARD
  9
$DIMLUNIT
 70
    2
  9
$DIMLWD
 70
   -2
  9
$DIMLWE
 70
   -2
  9
$DIMTMOVE
 70
    0
  9
$DIMFXL
 40
1
  9
$DIMFXLON
 70
    0
  9
$DIMJOGANG
 40
0.7854
  9
$DIMTFILL
 70
    0
  9
$DIMTFILLCLR
 70
    0
  9
$DIMARCSYM
 70
    0
  9
$DIMLTYPE
  6

  9
$DIMLTEX1
  6

  9
$DIMLTEX2
  6

  9
$LUNITS
 70
    2
  9
$LUPREC
 70
    4
  9
$SKETCHINC
 40
1
  9
$FILLETRAD
 40
0
  9
$AUNITS
 70
    0
  9
$AUPREC
 70
    2
  9
$MENU
  1
.
  9
$ELEVATION
 40
0
  9
$PELEVATION
 40
0
  9
$THICKNESS
 40
0
  9
$LIMCHECK
 70
    0
  9
$CHAMFERA
 40
0
  9
$CHAMFERB
 40
0
  9
$CHAMFERC
 40
0
  9
$CHAMFERD
 40
0
  9
$SKPOLY
 70
    0
  9
$USRTIMER
 70
    1
  9
$ANGBASE
 50
0
  9
$ANGDIR
 70
    0
  9
$PDMODE
 70
   34
  9
$PDSIZE
 40
0
  9
$PLINEWID
 40
0
  9
$SPLFRAME
 70
    0
  9
$SPLINETYPE
 70
    2
  9
$SPLINESEGS
 70
    8
  9
$HANDSEED
  5
20000
  9
$SURFTAB1
 70
    6
  9
$SURFTAB2
 70
    6
  9
$SURFTYPE
 70
    6
  9
$SURFU
 70
    6
  9
$SURFV
 70
    6
  9
$UCSBASE
  2

  9
$UCSNAME
  2

  9
$UCSORG
 10
0
 20
0
 30
0
  9
$UCSXDIR
 10
1
 20
0
 30
0
  9
$UCSYDIR
 10
0
 20
1
 30
0
  9
$UCSORTHOREF
  2

  9
$UCSORTHOVIEW
 70
    0
  9
$UCSORGTOP
 10
0
 20
0
 30
0
  9
$UCSORGBOTTOM
 10
0
 20
0
 30
0
  9
$UCSORGLEFT
 10
0
 20
0
 30
0
  9
$UCSORGRIGHT
 10
0
 20
0
 30
0
  9
$UCSORGFRONT
 10
0
 20
0
 30
0
  9
$UCSORGBACK
 10
0
 20
0
 30
0
  9
$PUCSBASE
  2

  9
$PUCSNAME
  2

  9
$PUCSORG
 10
0
 20
0
 30
0
  9
$PUCSXDIR
 10
1
 20
0
 30
0
  9
$PUCSYDIR
 10
0
 20
1
 30
0
  9
$PUCSORTHOREF
  2

  9
$PUCSORTHOVIEW
 70
    0
  9
$PUCSORGTOP
 10
0
 20
0
 30
0
  9
$PUCSORGBOTTOM
 10
0
 20
0
 30
0
  9
$PUCSORGLEFT
 10
0
 20
0
 30
0
  9
$PUCSORGRIGHT
 10
0
 20
0
 30
0
  9
$PUCSORGFRONT
 10
0
 20
0
 30
0
  9
$PUCSORGBACK
 10
0
 20
0
 30
0
  9
$USERI1
 70
    0
  9
$USERI2
 70
    0
  9
$USERI3
 70
    0
  9
$USERI4
 70
    0
  9
$USERI5
 70
    0
  9
$USERR1
 40
0
  9
$USERR2
 40
0
  9
$USERR3
 40
0
  9
$USERR4
 40
0
  9
$USERR5
 40
0
  9
$WORLDVIEW
 70
    1
  9
$SHADEDGE
 70
    3
  9
$SHADEDIF
 70
   70
  9
$TILEMODE
 70
    1
  9
$MAXACTVP
 70
   64
  9
$PINSBASE
 10
-18.72844604211295
 20
-34.14588281871858
 30
0
  9
$PLIMCHECK
 70
    0
  9
$PEXTMIN
 10
0
 20
0
 30
0
  9
$PEXTMAX
 10
0
 20
0
 30
0
  9
$GRIDMODE
 70
    1
  9
$SNAPSTYLE
 70
    0
  9
$GRIDUNIT
 10
0
 20
0
  9
$PLIMMIN
 10
0
 20
0
  9
$PLIMMAX
 10
210
 20
297
  9
$UNITMODE
 70
    0
  9
$VISRETAIN
 70
    1
  9
$PLINEGEN
 70
    0
  9
$PSLTSCALE
 70
    1
  9
$TREEDEPTH
 70
 3020
  9
$CMLSTYLE
  2
Standard
  9
$CMLJUST
 70
    0
  9
$CMLSCALE
 40
20
  9
$PROXYGRAPHICS
 70
    1
  9
$MEASUREMENT
 70
    1
  9
$CELWEIGHT
370
   -1
  9
$ENDCAPS
280
    0
  9
$JOINSTYLE
280
    0
  9
$LWDISPLAY
290
    0
  9
$INSUNITS
 70
    4
  9
$HYPERLINKBASE
  1

  9
$STYLESHEET
  1

  9
$XEDIT
290
    1
  9
$CEPSNTYPE
380
    0
  9
$PSTYLEMODE
290
    1
  9
$EXTNAMES
290
    1
  9
$PSVPSCALE
 40
0.4545454545454545
  9
$OLESTARTUP
290
    0
  9
$SORTENTS
280
  127
  9
$INDEXCTL
280
    0
  9
$HIDETEXT
280
    1
  9
$XCLIPFRAME
290
    0
  9
$HALOGAP
280
    0
  9
$OBSCOLOR
 70
  257
  9
$OBSLTYPE
280
    0
  9
$INTERSECTIONDISPLAY
280
    0
  9
$INTERSECTIONCOLOR
 70
  257
  9
$DIMASSOC
280
    1
  9
$PROJECTNAME
  1

  9
$CAMERADISPLAY
290
    0
  9
$LENSLENGTH
 40
50
  9
$CAMERAHEIGHT
 40
0
  9
$STEPSPERSEC
 40
2
  9
$STEPSIZE
 40
50
  9
$3DDWFPREC
 40
2
  9
$PSOLWIDTH
 40
5
  9
$PSOLHEIGHT
 40
80
  9
$LOFTANG1
 40
1.570796326794897
  9
$LOFTANG2
 40
1.570796326794897
  9
$LOFTMAG1
 40
0
  9
$LOFTMAG2
 40
0
  9
$LOFTPARAM
 70
    7
  9
$LOFTNORMALS
280
    1
  9
$LATITUDE
 40
1
  9
$LONGITUDE
 40
1
  9
$NORTHDIRECTION
 40
0
  9
$TIMEZONE
 70
-8000
  9
$LIGHTGLYPHDISPLAY
280
    1
  9
$TILEMODELIGHTSYNCH
280
    1
  9
$SOLIDHIST
280
    1
  9
$SHOWHIST
280
    1
  9
$DWFFRAME
280
    2
  9
$DGNFRAME
280
    0
  9
$REALWORLDSCALE
290
    1
  9
$INTERFERECOLOR
 62
    1
  9
$CSHADOW
280
    0
  9
$SHADOWPLANELOCATION
 40
0
  0
ENDSEC
  0
SECTION
  2
CLASSES
  0
ENDSEC
  0
SECTION
  2
TABLES
  0
TABLE
  2
VPORT
  5
8
330
0
100
AcDbSymbolTable
 70
    1
  0
VPORT
  5
31
330
2
100
AcDbSymbolTableRecord
100
AcDbViewportTableRecord
  2
*ACTIVE
 70
    0
 10
0
 20
0
 11
1
 21
1
 12
355.8078208327386
 22
446.5360823661251
 13
0
 23
0
 14
10
 24
10
 15
10
 25
10
 16
0
 26
0
 36
1
 17
0
 27
0
 37
0
 40
888.6997183932917
 41
1.797047970479705
 42
50
 43
0
 44
0
 50
0
 51
0
 71
    0
 72
  100
 73
    1
 74
    3
 75
    0
 76
    1
 77
    0
 78
    0
281
    0
 65
    1
110
0
120
0
130
0
111
1
121
0
131
0
112
0
122
1
132
0
 79
    0
146
0
348
10020
 60
    7
 61
    5
292
1
282
    1
141
0
142
0
 63
  250
421
3358443
  0
ENDTAB
  0
TABLE
  2
LTYPE
  5
5
330
0
100
AcDbSymbolTable
 70
    4
  0
LTYPE
  5
14
330
5
100
AcDbSymbolTableRecord
100
AcDbLinetypeTableRecord
  2
ByBlock
 70
    0
  3

 72
   65
 73
    0
 40
0
  0
LTYPE
  5
15
330
5
100
AcDbSymbolTableRecord
100
AcDbLinetypeTableRecord
  2
ByLayer
 70
    0
  3

 72
   65
 73
    0
 40
0
  0
LTYPE
  5
16
330
5
100
AcDbSymbolTableRecord
100
AcDbLinetypeTableRecord
  2
Continuous
 70
    0
  3
Solid line
 72
   65
 73
    0
 40
0
  0
LTYPE
  5
32
330
5
100
AcDbSymbolTableRecord
100
AcDbLinetypeTableRecord
  2
DOT
 70
    0
  3
Dot . . . . . . . . . . . . . . . . . . . . . .
 72
   65
 73
    2
 40
6.35
 49
0
 74
    0
 49
-6.35
 74
    0
  0
LTYPE
  5
33
330
5
100
AcDbSymbolTableRecord
100
AcDbLinetypeTableRecord
  2
DOTTINY
 70
    0
  3
Dot (.15x) .....................................
 72
   65
 73
    2
 40
0.9525
 49
0
 74
    0
 49
-0.9525
 74
    0
  0
LTYPE
  5
34
330
5
100
AcDbSymbolTableRecord
100
AcDbLinetypeTableRecord
  2
DOT2
 70
    0
  3
Dot (.5x) .....................................
 72
   65
 73
    2
 40
3.175
 49
0
 74
    0
 49
-3.175
 74
    0
  0
LTYPE
  5
35
330
5
100
AcDbSymbolTableRecord
100
AcDbLinetypeTableRecord
  2
DOTX2
 70
    0
  3
Dot (2x) .  .  .  .  .  .  .  .  .  .  .  .  .
 72
   65
 73
    2
 40
12.7
 49
0
 74
    0
 49
-12.7
 74
    0
  0
LTYPE
  5
36
330
5
100
AcDbSymbolTableRecord
100
AcDbLinetypeTableRecord
  2
DASHED
 70
    0
  3
Dashed _ _ _ _ _ _ _ _ _ _ _ _ _ _ _ _ _
 72
   65
 73
    2
 40
19.05
 49
12.7
 74
    0
 49
-6.35
 74
    0
  0
LTYPE
  5
37
330
5
100
AcDbSymbolTableRecord
100
AcDbLinetypeTableRecord
  2
DASHEDTINY
 70
    0
  3
Dashed (.15x) _ _ _ _ _ _ _ _ _ _ _ _ _ _ _ _ _
 72
   65
 73
    2
 40
2.8575
 49
1.905
 74
    0
 49
-0.9525
 74
    0
  0
LTYPE
  5
38
330
5
100
AcDbSymbolTableRecord
100
AcDbLinetypeTableRecord
  2
DASHED2
 70
    0
  3
Dashed (.5x) _ _ _ _ _ _ _ _ _ _ _ _ _ _ _ _ _
 72
   65
 73
    2
 40
9.524999999999999
 49
6.35
 74
    0
 49
-3.175
 74
    0
  0
LTYPE
  5
39
330
5
100
AcDbSymbolTableRecord
100
AcDbLinetypeTableRecord
  2
DASHEDX2
 70
    0
  3
Dashed (2x) ____  ____  ____  ____  ____  ___
 72
   65
 73
    2
 40
38.09999999999999
 49
25.4
 74
    0
 49
-12.7
 74
    0
  0
LTYPE
  5
3A
330
5
100
AcDbSymbolTableRecord
100
AcDbLinetypeTableRecord
  2
DASHDOT
 70
    0
  3
Dash dot __ . __ . __ . __ . __ . __ . __ . __
 72
   65
 73
    4
 40
25.4
 49
12.7
 74
    0
 49
-6.35
 74
    0
 49
0
 74
    0
 49
-6.35
 74
    0
  0
LTYPE
  5
3B
330
5
100
AcDbSymbolTableRecord
100
AcDbLinetypeTableRecord
  2
DASHDOTTINY
 70
    0
  3
Dash dot (.15x) _._._._._._._._._._._._._._._.
 72
   65
 73
    4
 40
3.81
 49
1.905
 74
    0
 49
-0.9525
 74
    0
 49
0
 74
    0
 49
-0.9525
 74
    0
  0
LTYPE
  5
3C
330
5
100
AcDbSymbolTableRecord
100
AcDbLinetypeTableRecord
  2
DASHDOT2
 70
    0
  3
Dash dot (.5x) _._._._._._._._._._._._._._._.
 72
   65
 73
    4
 40
12.7
 49
6.35
 74
    0
 49
-3.175
 74
    0
 49
0
 74
    0
 49
-3.175
 74
    0
  0
LTYPE
  5
3D
330
5
100
AcDbSymbolTableRecord
100
AcDbLinetypeTableRecord
  2
DASHDOTX2
 70
    0
  3
Dash dot (2x) ____  .  ____  .  ____  .  ___
 72
   65
 73
    4
 40
50.8
 49
25.4
 74
    0
 49
-12.7
 74
    0
 49
0
 74
    0
 49
-12.7
 74
    0
  0
LTYPE
  5
3E
330
5
100
AcDbSymbolTableRecord
100
AcDbLinetypeTableRecord
  2
DIVIDE
 70
    0
  3
Divide ____ . . ____ . . ____ . . ____ . . ____
 72
   65
 73
    6
 40
31.75
 49
12.7
 74
    0
 49
-6.35
 74
    0
 49
0
 74
    0
 49
-6.35
 74
    0
 49
0
 74
    0
 49
-6.35
 74
    0
  0
LTYPE
  5
3F
330
5
100
AcDbSymbolTableRecord
100
AcDbLinetypeTableRecord
  2
DIVIDETINY
 70
    0
  3
Divide (.15x) __..__..__..__..__..__..__..__.._
 72
   65
 73
    6
 40
4.7625
 49
1.905
 74
    0
 49
-0.9525
 74
    0
 49
0
 74
    0
 49
-0.9525
 74
    0
 49
0
 74
    0
 49
-0.9525
 74
    0
  0
LTYPE
  5
40
330
5
100
AcDbSymbolTableRecord
100
AcDbLinetypeTableRecord
  2
DIVIDE2
 70
    0
  3
Divide (.5x) __..__..__..__..__..__..__..__.._
 72
   65
 73
    6
 40
15.875
 49
6.35
 74
    0
 49
-3.175
 74
    0
 49
0
 74
    0
 49
-3.175
 74
    0
 49
0
 74
    0
 49
-3.175
 74
    0
  0
LTYPE
  5
41
330
5
100
AcDbSymbolTableRecord
100
AcDbLinetypeTableRecord
  2
DIVIDEX2
 70
    0
  3
Divide (2x) ________  .  .  ________  .  .  _
 72
   65
 73
    6
 40
63.5
 49
25.4
 74
    0
 49
-12.7
 74
    0
 49
0
 74
    0
 49
-12.7
 74
    0
 49
0
 74
    0
 49
-12.7
 74
    0
  0
LTYPE
  5
42
330
5
100
AcDbSymbolTableRecord
100
AcDbLinetypeTableRecord
  2
BORDER
 70
    0
  3
Border __ __ . __ __ . __ __ . __ __ . __ __ .
 72
   65
 73
    6
 40
44.45
 49
12.7
 74
    0
 49
-6.35
 74
    0
 49
12.7
 74
    0
 49
-6.35
 74
    0
 49
0
 74
    0
 49
-6.35
 74
    0
  0
LTYPE
  5
43
330
5
100
AcDbSymbolTableRecord
100
AcDbLinetypeTableRecord
  2
BORDERTINY
 70
    0
  3
Border (.15x) __.__.__.__.__.__.__.__.__.__.__.
 72
   65
 73
    6
 40
6.6675
 49
1.905
 74
    0
 49
-0.9525
 74
    0
 49
1.905
 74
    0
 49
-0.9525
 74
    0
 49
0
 74
    0
 49
-0.9525
 74
    0
  0
LTYPE
  5
44
330
5
100
AcDbSymbolTableRecord
100
AcDbLinetypeTableRecord
  2
BORDER2
 70
    0
  3
Border (.5x) __.__.__.__.__.__.__.__.__.__.__.
 72
   65
 73
    6
 40
22.225
 49
6.35
 74
    0
 49
-3.175
 74
    0
 49
6.35
 74
    0
 49
-3.175
 74
    0
 49
0
 74
    0
 49
-3.175
 74
    0
  0
LTYPE
  5
45
330
5
100
AcDbSymbolTableRecord
100
AcDbLinetypeTableRecord
  2
BORDERX2
 70
    0
  3
Border (2x) ____  ____  .  ____  ____  .  ___
 72
   65
 73
    6
 40
88.89999999999999
 49
25.4
 74
    0
 49
-12.7
 74
    0
 49
25.4
 74
    0
 49
-12.7
 74
    0
 49
0
 74
    0
 49
-12.7
 74
    0
  0
LTYPE
  5
46
330
5
100
AcDbSymbolTableRecord
100
AcDbLinetypeTableRecord
  2
CENTER
 70
    0
  3
Center ____ _ ____ _ ____ _ ____ _ ____ _ ____
 72
   65
 73
    4
 40
50.8
 49
31.75
 74
    0
 49
-6.35
 74
    0
 49
6.35
 74
    0
 49
-6.35
 74
    0
  0
LTYPE
  5
47
330
5
100
AcDbSymbolTableRecord
100
AcDbLinetypeTableRecord
  2
CENTERTINY
 70
    0
  3
Center (.15x) ___ _ ___ _ ___ _ ___ _ ___ _ ___
 72
   65
 73
    4
 40
7.619999999999999
 49
4.7625
 74
    0
 49
-0.9525
 74
    0
 49
0.9525
 74
    0
 49
-0.9525
 74
    0
  0
LTYPE
  5
48
330
5
100
AcDbSymbolTableRecord
100
AcDbLinetypeTableRecord
  2
CENTER2
 70
    0
  3
Center (.5x) ___ _ ___ _ ___ _ ___ _ ___ _ ___
 72
   65
 73
    4
 40
28.575
 49
19.05
 74
    0
 49
-3.175
 74
    0
 49
3.175
 74
    0
 49
-3.175
 74
    0
  0
LTYPE
  5
49
330
5
100
AcDbSymbolTableRecord
100
AcDbLinetypeTableRecord
  2
CENTERX2
 70
    0
  3
Center (2x) ________  __  ________  __  _____
 72
   65
 73
    4
 40
101.6
 49
63.5
 74
    0
 49
-12.7
 74
    0
 49
12.7
 74
    0
 49
-12.7
 74
    0
  0
ENDTAB
  0
TABLE
  2
LAYER
  5
2
330
0
100
AcDbSymbolTable
 70
    1
  0
LAYER
  5
10
330
2
100
AcDbSymbolTableRecord
100
AcDbLayerTableRecord
  2
0
 70
    0
 62
    7
  6
CONTINUOUS
370
   70
390
F
  0
LAYER
  5
4A
330
2
100
AcDbSymbolTableRecord
100
AcDbLayerTableRecord
  2
builder
 70
    0
 62
  253
420
10526884
  6
DASHED
370
   13
390
F
  0
LAYER
  5
4B
330
2
100
AcDbSymbolTableRecord
100
AcDbLayerTableRecord
  2
insideComps_meta
 70
    0
 62
    4
  6
DASHEDTINY
370
    9
390
F
  0
LAYER
  5
4C
330
2
100
AcDbSymbolTableRecord
100
AcDbLayerTableRecord
  2
measures
 70
    0
 62
    6
  6
CONTINUOUS
370
    9
390
F
  0
ENDTAB
  0
TABLE
  2
STYLE
  5
3
330
0
100
AcDbSymbolTable
 70
    3
  0
STYLE
  5
4D
330
2
100
AcDbSymbolTableRecord
100
AcDbTextStyleTableRecord
  2
Standard
 70
    0
 40
0
 41
1
 50
0
 71
    0
 42
1
  3
txt
  4

  0
ENDTAB
  0
TABLE
  2
VIEW
  5
6
330
0
100
AcDbSymbolTable
 70
    0
  0
ENDTAB
  0
TABLE
  2
UCS
  5
7
330
0
100
AcDbSymbolTable
 70
    0
  0
ENDTAB
  0
TABLE
  2
APPID
  5
9
330
0
100
AcDbSymbolTable
 70
    1
  0
APPID
  5
12
330
9
100
AcDbSymbolTableRecord
100
AcDbRegAppTableRecord
  2
ACAD
 70
    0
  0
APPID
  5
4E
330
9
100
AcDbSymbolTableRecord
100
AcDbRegAppTableRecord
  2
LibreCad
 70
    0
  0
ENDTAB
  0
TABLE
  2
DIMSTYLE
  5
A
330
0
100
AcDbSymbolTable
 70
    1
100
AcDbDimStyleTable
 71
    1
  0
DIMSTYLE
105
4F
330
A
100
AcDbSymbolTableRecord
100
AcDbDimStyleTableRecord
  2
Standard
 70
    0
 40
1
 41
2.5
 42
0.625
 43
0.38
 44
1.25
 45
0
 46
0
 47
0
 48
0
 49
1
140
4
141
0.09
142
0
143
25.4
144
1
145
0
146
1
147
1
148
0
 71
    0
 72
    0
 73
    0
 74
    1
 75
    0
 76
    0
 77
    0
 78
    8
 79
    0
170
    0
171
    2
172
    0
173
    0
174
    0
175
    0
176
    0
177
    0
178
    0
179
    0
271
    2
272
    4
273
    2
274
    2
275
    0
276
    0
277
    2
278
   44
279
    0
280
    0
281
    0
282
    0
283
    1
284
    0
285
    0
286
    0
288
    0
289
    3
340
4D
  0
ENDTAB
  0
TABLE
  2
BLOCK_RECORD
  5
1
330
0
100
AcDbSymbolTable
 70
    2
  0
BLOCK_RECORD
  5
1F
330
1
100
AcDbSymbolTableRecord
100
AcDbBlockTableRecord
  2
*Model_Space
 70
    0
280
    1
281
    0
  0
BLOCK_RECORD
  5
1E
330
1
100
AcDbSymbolTableRecord
100
AcDbBlockTableRecord
  2
*Paper_Space
 70
    0
280
    1
281
    0
  0
BLOCK_RECORD
  5
50
330
1
100
AcDbSymbolTableRecord
100
AcDbBlockTableRecord
  2
*D10
 70
    0
280
    1
281
    0
  0
BLOCK_RECORD
  5
53
330
1
100
AcDbSymbolTableRecord
100
AcDbBlockTableRecord
  2
*D32
 70
    0
280
    1
281
    0
  0
BLOCK_RECORD
  5
56
330
1
100
AcDbSymbolTableRecord
100
AcDbBlockTableRecord
  2
*D12
 70
    0
280
    1
281
    0
  0
BLOCK_RECORD
  5
59
330
1
100
AcDbSymbolTableRecord
100
AcDbBlockTableRecord
  2
*D17
 70
    0
280
    1
281
    0
  0
BLOCK_RECORD
  5
5C
330
1
100
AcDbSymbolTableRecord
100
AcDbBlockTableRecord
  2
*D30
 70
    0
280
    1
281
    0
  0
BLOCK_RECORD
  5
5F
330
1
100
AcDbSymbolTableRecord
100
AcDbBlockTableRecord
  2
*D1
 70
    0
280
    1
281
    0
  0
BLOCK_RECORD
  5
62
330
1
100
AcDbSymbolTableRecord
100
AcDbBlockTableRecord
  2
*D9
 70
    0
280
    1
281
    0
  0
BLOCK_RECORD
  5
65
330
1
100
AcDbSymbolTableRecord
100
AcDbBlockTableRecord
  2
*D29
 70
    0
280
    1
281
    0
  0
BLOCK_RECORD
  5
68
330
1
100
AcDbSymbolTableRecord
100
AcDbBlockTableRecord
  2
*D4
 70
    0
280
    1
281
    0
  0
BLOCK_RECORD
  5
6B
330
1
100
AcDbSymbolTableRecord
100
AcDbBlockTableRecord
  2
*D5
 70
    0
280
    1
281
    0
  0
BLOCK_RECORD
  5
6E
330
1
100
AcDbSymbolTableRecord
100
AcDbBlockTableRecord
  2
*D16
 70
    0
280
    1
281
    0
  0
BLOCK_RECORD
  5
71
330
1
100
AcDbSymbolTableRecord
100
AcDbBlockTableRecord
  2
*D7
 70
    0
280
    1
281
    0
  0
BLOCK_RECORD
  5
74
330
1
100
AcDbSymbolTableRecord
100
AcDbBlockTableRecord
  2
*D23
 70
    0
280
    1
281
    0
  0
BLOCK_RECORD
  5
77
330
1
100
AcDbSymbolTableRecord
100
AcDbBlockTableRecord
  2
*D31
 70
    0
280
    1
281
    0
  0
BLOCK_RECORD
  5
7A
330
1
100
AcDbSymbolTableRecord
100
AcDbBlockTableRecord
  2
*D15
 70
    0
280
    1
281
    0
  0
BLOCK_RECORD
  5
7D
330
1
100
AcDbSymbolTableRecord
100
AcDbBlockTableRecord
  2
*D26
 70
    0
280
    1
281
    0
  0
BLOCK_RECORD
  5
80
330
1
100
AcDbSymbolTableRecord
100
AcDbBlockTableRecord
  2
*D24
 70
    0
280
    1
281
    0
  0
BLOCK_RECORD
  5
83
330
1
100
AcDbSymbolTableRecord
100
AcDbBlockTableRecord
  2
*D8
 70
    0
280
    1
281
    0
  0
BLOCK_RECORD
  5
86
330
1
100
AcDbSymbolTableRecord
100
AcDbBlockTableRecord
  2
*D22
 70
    0
280
    1
281
    0
  0
BLOCK_RECORD
  5
89
330
1
100
AcDbSymbolTableRecord
100
AcDbBlockTableRecord
  2
*D28
 70
    0
280
    1
281
    0
  0
BLOCK_RECORD
  5
8C
330
1
100
AcDbSymbolTableRecord
100
AcDbBlockTableRecord
  2
*D14
 70
    0
280
    1
281
    0
  0
BLOCK_RECORD
  5
8F
330
1
100
AcDbSymbolTableRecord
100
AcDbBlockTableRecord
  2
*D33
 70
    0
280
    1
281
    0
  0
BLOCK_RECORD
  5
92
330
1
100
AcDbSymbolTableRecord
100
AcDbBlockTableRecord
  2
*D6
 70
    0
280
    1
281
    0
  0
BLOCK_RECORD
  5
95
330
1
100
AcDbSymbolTableRecord
100
AcDbBlockTableRecord
  2
*D35
 70
    0
280
    1
281
    0
  0
BLOCK_RECORD
  5
98
330
1
100
AcDbSymbolTableRecord
100
AcDbBlockTableRecord
  2
*D2
 70
    0
280
    1
281
    0
  0
BLOCK_RECORD
  5
9B
330
1
100
AcDbSymbolTableRecord
100
AcDbBlockTableRecord
  2
*D25
 70
    0
280
    1
281
    0
  0
BLOCK_RECORD
  5
9E
330
1
100
AcDbSymbolTableRecord
100
AcDbBlockTableRecord
  2
*D18
 70
    0
280
    1
281
    0
  0
BLOCK_RECORD
  5
A1
330
1
100
AcDbSymbolTableRecord
100
AcDbBlockTableRecord
  2
*D21
 70
    0
280
    1
281
    0
  0
BLOCK_RECORD
  5
A4
330
1
100
AcDbSymbolTableRecord
100
AcDbBlockTableRecord
  2
*D11
 70
    0
280
    1
281
    0
  0
BLOCK_RECORD
  5
A7
330
1
100
AcDbSymbolTableRecord
100
AcDbBlockTableRecord
  2
*D3
 70
    0
280
    1
281
    0
  0
BLOCK_RECORD
  5
AA
330
1
100
AcDbSymbolTableRecord
100
AcDbBlockTableRecord
  2
*D27
 70
    0
280
    1
281
    0
  0
BLOCK_RECORD
  5
AD
330
1
100
AcDbSymbolTableRecord
100
AcDbBlockTableRecord
  2
*D34
 70
    0
280
    1
281
    0
  0
BLOCK_RECORD
  5
B0
330
1
100
AcDbSymbolTableRecord
100
AcDbBlockTableRecord
  2
*D19
 70
    0
280
    1
281
    0
  0
BLOCK_RECORD
  5
B3
330
1
100
AcDbSymbolTableRecord
100
AcDbBlockTableRecord
  2
*D13
 70
    0
280
    1
281
    0
  0
BLOCK_RECORD
  5
B6
330
1
100
AcDbSymbolTableRecord
100
AcDbBlockTableRecord
  2
*D20
 70
    0
280
    1
281
    0
  0
ENDTAB
  0
ENDSEC
  0
SECTION
  2
BLOCKS
  0
BLOCK
  5
20
330
1F
100
AcDbEntity
  8
0
100
AcDbBlockBegin
  2
*Model_Space
 70
    0
 10
0
 20
0
 30
0
  3
*Model_Space
  1

  0
ENDBLK
  5
21
330
1F
100
AcDbEntity
  8
0
100
AcDbBlockEnd
  0
BLOCK
  5
1C
330
1B
100
AcDbEntity
  8
0
100
AcDbBlockBegin
  2
*Paper_Space
 70
    0
 10
0
 20
0
 30
0
  3
*Paper_Space
  1

  0
ENDBLK
  5
1D
330
1F
100
AcDbEntity
  8
0
100
AcDbBlockEnd
  0
BLOCK
  5
51
330
50
100
AcDbEntity
  8
0
100
AcDbBlockBegin
  2
*D10
 70
    1
 10
0
 20
0
  3
*D10
  1

  0
LINE
  5
B9
100
AcDbEntity
  8
measures
  6
ByBlock
 62
    0
370
   -2
100
AcDbLine
 10
274.2358490597995
 20
700.1574300657823
 11
234.2358490598021
 21
700.1574300657823
  0
MTEXT
  5
BA
100
AcDbEntity
  8
measures
  6
CONTINUOUS
 62
    0
370
   -2
100
AcDbMText
 10
254.2358490598008
 20
703.1574300657823
 30
0
 40
4
 41
5.333333333333333
 71
    5
 72
    1
  1
40
  7
standard
210
0
220
0
230
1
 50
0
 73
    2
 44
1
  0
SOLID
  5
BB
100
AcDbEntity
  8
measures
  6
ByBlock
 62
    0
370
   -2
100
AcDbTrace
 10
274.2358490597995
 20
700.1574300657823
 30
0
 11
271.7358490597995
 21
699.7411454080094
 31
0
 12
271.7358490597995
 22
700.5737147235551
 32
0
 13
271.7358490597995
 23
700.5737147235551
 33
0
  0
SOLID
  5
BC
100
AcDbEntity
  8
measures
  6
ByBlock
 62
    0
370
   -2
100
AcDbTrace
 10
234.2358490598021
 20
700.1574300657823
 30
0
 11
236.7358490598021
 21
700.5737147235551
 31
0
 12
236.7358490598021
 22
699.7411454080094
 32
0
 13
236.7358490598021
 23
699.7411454080094
 33
0
  0
LINE
  5
BD
100
AcDbEntity
  8
measures
  6
ByBlock
 62
    0
370
   -2
100
AcDbLine
 10
274.2358490597995
 20
659.374582072643
 11
274.2358490597995
 21
701.4074300657823
  0
LINE
  5
BE
100
AcDbEntity
  8
measures
  6
ByBlock
 62
    0
370
   -2
100
AcDbLine
 10
234.2358490598021
 20
659.3745820726452
 11
234.2358490598021
 21
701.4074300657823
  0
ENDBLK
  5
52
330
50
100
AcDbEntity
  8
0
100
AcDbBlockEnd
  0
BLOCK
  5
54
330
53
100
AcDbEntity
  8
0
100
AcDbBlockBegin
  2
*D32
 70
    1
 10
0
 20
0
  3
*D32
  1

  0
LINE
  5
BF
100
AcDbEntity
  8
measures
  6
ByBlock
 62
    0
370
   -2
100
AcDbLine
 10
435.4871266075275
 20
276.320618779959
 11
435.4871266075275
 21
254.3206187799567
  0
MTEXT
  5
C0
100
AcDbEntity
  8
measures
  6
CONTINUOUS
 62
    0
370
   -2
100
AcDbMText
 10
432.4871266075275
 20
265.3206187799579
 30
0
 40
4
 41
4.888888888888888
 71
    5
 72
    1
  1
22
  7
standard
210
0
220
0
230
1
 50
90
 73
    2
 44
1
  0
SOLID
  5
C1
100
AcDbEntity
  8
measures
  6
ByBlock
 62
    0
370
   -2
100
AcDbTrace
 10
435.4871266075275
 20
276.320618779959
 30
0
 11
435.9034112653003
 21
273.820618779959
 31
0
 12
435.0708419497547
 22
273.820618779959
 32
0
 13
435.0708419497547
 23
273.820618779959
 33
0
  0
SOLID
  5
C2
100
AcDbEntity
  8
measures
  6
ByBlock
 62
    0
370
   -2
100
AcDbTrace
 10
435.4871266075275
 20
254.3206187799567
 30
0
 11
435.0708419497547
 21
256.8206187799567
 31
0
 12
435.9034112653003
 22
256.8206187799567
 32
0
 13
435.9034112653003
 23
256.8206187799567
 33
0
  0
LINE
  5
C3
100
AcDbEntity
  8
measures
  6
ByBlock
 62
    0
370
   -2
100
AcDbLine
 10
421.1461187578224
 20
276.320618779959
 11
436.7371266075275
 21
276.320618779959
  0
LINE
  5
C4
100
AcDbEntity
  8
measures
  6
ByBlock
 62
    0
370
   -2
100
AcDbLine
 10
421.1461187578224
 20
254.3206187799567
 11
436.7371266075275
 21
254.3206187799567
  0
ENDBLK
  5
55
330
53
100
AcDbEntity
  8
0
100
AcDbBlockEnd
  0
BLOCK
  5
57
330
56
100
AcDbEntity
  8
0
100
AcDbBlockBegin
  2
*D12
 70
    1
 10
0
 20
0
  3
*D12
  1

  0
LINE
  5
C5
100
AcDbEntity
  8
measures
  6
ByBlock
 62
    0
370
   -2
100
AcDbLine
 10
174.235849059801
 20
100.1056600936655
 11
334.2358490598037
 21
100.1056600936655
  0
MTEXT
  5
C6
100
AcDbEntity
  8
measures
  6
CONTINUOUS
 62
    0
370
   -2
100
AcDbMText
 10
254.2358490598023
 20
103.1056600936655
 30
0
 40
4
 41
7.111111111111359
 71
    5
 72
    1
  1
160
  7
standard
210
0
220
0
230
1
 50
0
 73
    2
 44
1
  0
SOLID
  5
C7
100
AcDbEntity
  8
measures
  6
ByBlock
 62
    0
370
   -2
100
AcDbTrace
 10
174.235849059801
 20
100.1056600936655
 30
0
 11
176.735849059801
 21
100.5219447514383
 31
0
 12
176.735849059801
 22
99.68937543589267
 32
0
 13
176.735849059801
 23
99.68937543589267
 33
0
  0
SOLID
  5
C8
100
AcDbEntity
  8
measures
  6
ByBlock
 62
    0
370
   -2
100
AcDbTrace
 10
334.2358490598037
 20
100.1056600936655
 30
0
 11
331.7358490598037
 21
99.68937543589267
 31
0
 12
331.7358490598037
 22
100.5219447514383
 32
0
 13
331.7358490598037
 23
100.5219447514383
 33
0
  0
LINE
  5
C9
100
AcDbEntity
  8
measures
  6
ByBlock
 62
    0
370
   -2
100
AcDbLine
 10
174.235849059801
 20
110.9742182684299
 11
174.235849059801
 21
98.85566009366551
  0
LINE
  5
CA
100
AcDbEntity
  8
measures
  6
ByBlock
 62
    0
370
   -2
100
AcDbLine
 10
334.2358490598037
 20
110.9742182684301
 11
334.2358490598037
 21
98.85566009366551
  0
ENDBLK
  5
58
330
56
100
AcDbEntity
  8
0
100
AcDbBlockEnd
  0
BLOCK
  5
5A
330
59
100
AcDbEntity
  8
0
100
AcDbBlockBegin
  2
*D17
 70
    1
 10
0
 20
0
  3
*D17
  1

  0
LINE
  5
CB
100
AcDbEntity
  8
measures
  6
ByBlock
 62
    0
370
   -2
100
AcDbLine
 10
344.802513055594
 20
254.5406187799545
 11
344.802513055594
 21
236.5406187799582
  0
MTEXT
  5
CC
100
AcDbEntity
  8
measures
  6
CONTINUOUS
 62
    0
370
   -2
100
AcDbMText
 10
341.802513055594
 20
245.5406187799564
 30
0
 40
4
 41
4
 71
    5
 72
    1
  1
18
  7
standard
210
0
220
0
230
1
 50
90
 73
    2
 44
1
  0
SOLID
  5
CD
100
AcDbEntity
  8
measures
  6
ByBlock
 62
    0
370
   -2
100
AcDbTrace
 10
344.802513055594
 20
254.5406187799545
 30
0
 11
345.2187977133668
 21
252.0406187799545
 31
0
 12
344.3862283978211
 22
252.0406187799545
 32
0
 13
344.3862283978211
 23
252.0406187799545
 33
0
  0
SOLID
  5
CE
100
AcDbEntity
  8
measures
  6
ByBlock
 62
    0
370
   -2
100
AcDbTrace
 10
344.802513055594
 20
236.5406187799582
 30
0
 11
344.3862283978211
 21
239.0406187799582
 31
0
 12
345.2187977133668
 22
239.0406187799582
 32
0
 13
345.2187977133668
 23
239.0406187799582
 33
0
  0
LINE
  5
CF
100
AcDbEntity
  8
measures
  6
ByBlock
 62
    0
370
   -2
100
AcDbLine
 10
254.8608490598016
 20
254.5406187799545
 11
346.052513055594
 21
254.5406187799545
  0
LINE
  5
D0
100
AcDbEntity
  8
measures
  6
ByBlock
 62
    0
370
   -2
100
AcDbLine
 10
254.8608490598016
 20
236.5406187799582
 11
346.052513055594
 21
236.5406187799582
  0
ENDBLK
  5
5B
330
59
100
AcDbEntity
  8
0
100
AcDbBlockEnd
  0
BLOCK
  5
5D
330
5C
100
AcDbEntity
  8
0
100
AcDbBlockBegin
  2
*D30
 70
    1
 10
0
 20
0
  3
*D30
  1

  0
LINE
  5
D1
100
AcDbEntity
  8
measures
  6
ByBlock
 62
    0
370
   -2
100
AcDbLine
 10
187.3693528574566
 20
534.1020113474951
 11
160.4356903916267
 21
538.5909550918115
  0
LINE
  5
D2
100
AcDbEntity
  8
measures
  6
ByBlock
 62
    0
370
   -2
100
AcDbLine
 10
171.8693528574205
 20
441.1020113475137
 11
144.9356903915906
 21
445.59095509183
  0
LINE
  5
D3
100
AcDbEntity
  8
measures
  6
ByBlock
 62
    0
370
   -2
100
AcDbLine
 10
161.6686827964168
 20
538.3854563576792
 11
146.1686827963807
 21
445.3854563576978
  0
MTEXT
  5
D4
100
AcDbEntity
  8
measures
  6
CONTINUOUS
 62
    0
370
   -2
100
AcDbMText
 10
150.9595010249026
 20
492.3786533196059
 30
0
 40
4
 41
13.11111111111161
 71
    5
 72
    1
  1
94,28
  7
standard
210
0
220
0
230
1
 50
80.53767779195087
 73
    2
 44
1
  0
SOLID
  5
D5
100
AcDbEntity
  8
measures
  6
ByBlock
 62
    0
370
   -2
100
AcDbTrace
 10
161.6686827964168
 20
538.3854563576792
 30
0
 11
161.668305985164
 21
535.8510347719302
 31
0
 12
160.8470646711407
 22
535.9879083242678
 32
0
 13
160.8470646711407
 23
535.9879083242678
 33
0
  0
SOLID
  5
D6
100
AcDbEntity
  8
measures
  6
ByBlock
 62
    0
370
   -2
100
AcDbTrace
 10
146.1686827963807
 20
445.3854563576978
 30
0
 11
146.1690596076334
 21
447.9198779434468
 31
0
 12
146.9903009216567
 22
447.7830043911092
 32
0
 13
146.9903009216567
 23
447.7830043911092
 33
0
  0
ENDBLK
  5
5E
330
5C
100
AcDbEntity
  8
0
100
AcDbBlockEnd
  0
BLOCK
  5
60
330
5F
100
AcDbEntity
  8
0
100
AcDbBlockBegin
  2
*D1
 70
    1
 10
0
 20
0
  3
*D1
  1

  0
LINE
  5
D7
100
AcDbEntity
  8
measures
  6
ByBlock
 62
    0
370
   -2
100
AcDbLine
 10
187.9858490598516
 20
546.2650331716425
 11
320.4858490586269
 21
546.2650331716425
  0
MTEXT
  5
D8
100
AcDbEntity
  8
measures
  6
CONTINUOUS
 62
    0
370
   -2
100
AcDbMText
 10
254.2358490592393
 20
549.2650331716425
 30
0
 40
4
 41
11.77777777777827
 71
    5
 72
    1
  1
132,5
  7
standard
210
0
220
0
230
1
 50
0
 73
    2
 44
1
  0
SOLID
  5
D9
100
AcDbEntity
  8
measures
  6
ByBlock
 62
    0
370
   -2
100
AcDbTrace
 10
187.9858490598516
 20
546.2650331716425
 30
0
 11
190.4858490598516
 21
546.6813178294153
 31
0
 12
190.4858490598516
 22
545.8487485138696
 32
0
 13
190.4858490598516
 23
545.8487485138696
 33
0
  0
SOLID
  5
DA
100
AcDbEntity
  8
measures
  6
ByBlock
 62
    0
370
   -2
100
AcDbTrace
 10
320.4858490586269
 20
546.2650331716425
 30
0
 11
317.9858490586269
 21
545.8487485138696
 31
0
 12
317.9858490586269
 22
546.6813178294153
 32
0
 13
317.9858490586269
 23
546.6813178294153
 33
0
  0
LINE
  5
DB
100
AcDbEntity
  8
measures
  6
ByBlock
 62
    0
370
   -2
100
AcDbLine
 10
187.9858490598516
 20
534.6242619804291
 11
187.9858490598516
 21
547.5150331716425
  0
LINE
  5
DC
100
AcDbEntity
  8
measures
  6
ByBlock
 62
    0
370
   -2
100
AcDbLine
 10
320.4858490586269
 20
534.6242619874704
 11
320.4858490586269
 21
547.5150331716425
  0
ENDBLK
  5
61
330
5F
100
AcDbEntity
  8
0
100
AcDbBlockEnd
  0
BLOCK
  5
63
330
62
100
AcDbEntity
  8
0
100
AcDbBlockBegin
  2
*D9
 70
    1
 10
0
 20
0
  3
*D9
  1

  0
LINE
  5
DD
100
AcDbEntity
  8
measures
  6
ByBlock
 62
    0
370
   -2
100
AcDbLine
 10
351.7853464226791
 20
658.749582072643
 11
351.7853464226791
 21
693.7495820796792
  0
MTEXT
  5
DE
100
AcDbEntity
  8
measures
  6
CONTINUOUS
 62
    0
370
   -2
100
AcDbMText
 10
348.7853464226791
 20
676.249582076161
 30
0
 40
4
 41
4.888888888889385
 71
    5
 72
    1
  1
35
  7
standard
210
0
220
0
230
1
 50
90
 73
    2
 44
1
  0
SOLID
  5
DF
100
AcDbEntity
  8
measures
  6
ByBlock
 62
    0
370
   -2
100
AcDbTrace
 10
351.7853464226791
 20
658.749582072643
 30
0
 11
351.3690617649062
 21
661.249582072643
 31
0
 12
352.2016310804519
 22
661.249582072643
 32
0
 13
352.2016310804519
 23
661.249582072643
 33
0
  0
SOLID
  5
E0
100
AcDbEntity
  8
measures
  6
ByBlock
 62
    0
370
   -2
100
AcDbTrace
 10
351.7853464226791
 20
693.7495820796792
 30
0
 11
352.2016310804519
 21
691.2495820796792
 31
0
 12
351.3690617649062
 22
691.2495820796792
 32
0
 13
351.3690617649062
 23
691.2495820796792
 33
0
  0
LINE
  5
E1
100
AcDbEntity
  8
measures
  6
ByBlock
 62
    0
370
   -2
100
AcDbLine
 10
274.8608490597995
 20
658.749582072643
 11
353.0353464226791
 21
658.749582072643
  0
LINE
  5
E2
100
AcDbEntity
  8
measures
  6
ByBlock
 62
    0
370
   -2
100
AcDbLine
 10
321.1108490586269
 20
693.7495820796792
 11
353.0353464226791
 21
693.7495820796792
  0
ENDBLK
  5
64
330
62
100
AcDbEntity
  8
0
100
AcDbBlockEnd
  0
BLOCK
  5
66
330
65
100
AcDbEntity
  8
0
100
AcDbBlockBegin
  2
*D29
 70
    1
 10
0
 20
0
  3
*D29
  1

  0
LINE
  5
E3
100
AcDbEntity
  8
measures
  6
ByBlock
 62
    0
370
   -2
100
AcDbLine
 10
178.903229204167
 20
483.3052694278869
 11
166.7915502358806
 21
485.3238825892731
  0
LINE
  5
E4
100
AcDbEntity
  8
measures
  6
ByBlock
 62
    0
370
   -2
100
AcDbLine
 10
171.8693528574205
 20
441.1020113475137
 11
159.757673889134
 21
443.1206245088999
  0
LINE
  5
E5
100
AcDbEntity
  8
measures
  6
ByBlock
 62
    0
370
   -2
100
AcDbLine
 10
168.0245426406707
 20
485.1183838551408
 11
160.9906662939241
 21
442.9151257747677
  0
MTEXT
  5
E6
100
AcDbEntity
  8
measures
  6
CONTINUOUS
 62
    0
370
   -2
100
AcDbMText
 10
161.5484226958012
 20
464.5099517768716
 30
0
 40
4
 41
13.11111111111111
 71
    5
 72
    1
  1
42,79
  7
standard
210
0
220
0
230
1
 50
80.53767779195097
 73
    2
 44
1
  0
SOLID
  5
E7
100
AcDbEntity
  8
measures
  6
ByBlock
 62
    0
370
   -2
100
AcDbTrace
 10
168.0245426406707
 20
485.1183838551408
 30
0
 11
168.0241658294179
 21
482.5839622693919
 31
0
 12
167.2029245153946
 22
482.7208358217295
 32
0
 13
167.2029245153946
 23
482.7208358217295
 33
0
  0
SOLID
  5
E8
100
AcDbEntity
  8
measures
  6
ByBlock
 62
    0
370
   -2
100
AcDbTrace
 10
160.9906662939241
 20
442.9151257747677
 30
0
 11
160.9910431051769
 21
445.4495473605166
 31
0
 12
161.8122844192002
 22
445.3126738081791
 32
0
 13
161.8122844192002
 23
445.3126738081791
 33
0
  0
ENDBLK
  5
67
330
65
100
AcDbEntity
  8
0
100
AcDbBlockEnd
  0
BLOCK
  5
69
330
68
100
AcDbEntity
  8
0
100
AcDbBlockBegin
  2
*D4
 70
    1
 10
0
 20
0
  3
*D4
  1

  0
LINE
  5
E9
100
AcDbEntity
  8
measures
  6
ByBlock
 62
    0
370
   -2
100
AcDbLine
 10
345.0552190758492
 20
343.728614762019
 11
345.0552190758492
 21
388.7286147620185
  0
MTEXT
  5
EA
100
AcDbEntity
  8
measures
  6
CONTINUOUS
 62
    0
370
   -2
100
AcDbMText
 10
342.0552190758492
 20
366.2286147620188
 30
0
 40
4
 41
5.333333333333581
 71
    5
 72
    1
  1
45
  7
standard
210
0
220
0
230
1
 50
90
 73
    2
 44
1
  0
SOLID
  5
EB
100
AcDbEntity
  8
measures
  6
ByBlock
 62
    0
370
   -2
100
AcDbTrace
 10
345.0552190758492
 20
343.728614762019
 30
0
 11
344.6389344180764
 21
346.228614762019
 31
0
 12
345.4715037336221
 22
346.228614762019
 32
0
 13
345.4715037336221
 23
346.228614762019
 33
0
  0
SOLID
  5
EC
100
AcDbEntity
  8
measures
  6
ByBlock
 62
    0
370
   -2
100
AcDbTrace
 10
345.0552190758492
 20
388.7286147620185
 30
0
 11
345.4715037336221
 21
386.2286147620185
 31
0
 12
344.6389344180764
 22
386.2286147620185
 32
0
 13
344.6389344180764
 23
386.2286147620185
 33
0
  0
LINE
  5
ED
100
AcDbEntity
  8
measures
  6
ByBlock
 62
    0
370
   -2
100
AcDbLine
 10
319.8608490598018
 20
343.728614762019
 11
346.3052190758492
 21
343.728614762019
  0
LINE
  5
EE
100
AcDbEntity
  8
measures
  6
ByBlock
 62
    0
370
   -2
100
AcDbLine
 10
319.8608490598018
 20
388.7286147620185
 11
346.3052190758492
 21
388.7286147620185
  0
ENDBLK
  5
6A
330
68
100
AcDbEntity
  8
0
100
AcDbBlockEnd
  0
BLOCK
  5
6C
330
6B
100
AcDbEntity
  8
0
100
AcDbBlockBegin
  2
*D5
 70
    1
 10
0
 20
0
  3
*D5
  1

  0
LINE
  5
EF
100
AcDbEntity
  8
measures
  6
ByBlock
 62
    0
370
   -2
100
AcDbLine
 10
187.9858490598516
 20
706.0153532638512
 11
320.4858490586269
 21
706.0153532638512
  0
MTEXT
  5
F0
100
AcDbEntity
  8
measures
  6
CONTINUOUS
 62
    0
370
   -2
100
AcDbMText
 10
254.2358490592393
 20
709.0153532638512
 30
0
 40
4
 41
11.77777777777827
 71
    5
 72
    1
  1
132,5
  7
standard
210
0
220
0
230
1
 50
0
 73
    2
 44
1
  0
SOLID
  5
F1
100
AcDbEntity
  8
measures
  6
ByBlock
 62
    0
370
   -2
100
AcDbTrace
 10
187.9858490598516
 20
706.0153532638512
 30
0
 11
190.4858490598516
 21
706.4316379216241
 31
0
 12
190.4858490598516
 22
705.5990686060784
 32
0
 13
190.4858490598516
 23
705.5990686060784
 33
0
  0
SOLID
  5
F2
100
AcDbEntity
  8
measures
  6
ByBlock
 62
    0
370
   -2
100
AcDbTrace
 10
320.4858490586269
 20
706.0153532638512
 30
0
 11
317.9858490586269
 21
705.5990686060784
 31
0
 12
317.9858490586269
 22
706.4316379216241
 32
0
 13
317.9858490586269
 23
706.4316379216241
 33
0
  0
LINE
  5
F3
100
AcDbEntity
  8
measures
  6
ByBlock
 62
    0
370
   -2
100
AcDbLine
 10
187.9858490598516
 20
694.374582072638
 11
187.9858490598516
 21
707.2653532638512
  0
LINE
  5
F4
100
AcDbEntity
  8
measures
  6
ByBlock
 62
    0
370
   -2
100
AcDbLine
 10
320.4858490586269
 20
694.3745820796792
 11
320.4858490586269
 21
707.2653532638512
  0
ENDBLK
  5
6D
330
6B
100
AcDbEntity
  8
0
100
AcDbBlockEnd
  0
BLOCK
  5
6F
330
6E
100
AcDbEntity
  8
0
100
AcDbBlockBegin
  2
*D16
 70
    1
 10
0
 20
0
  3
*D16
  1

  0
LINE
  5
F5
100
AcDbEntity
  8
measures
  6
ByBlock
 62
    0
370
   -2
100
AcDbLine
 10
344.802513055594
 20
291.5406187799536
 11
344.802513055594
 21
254.5406187799545
  0
MTEXT
  5
F6
100
AcDbEntity
  8
measures
  6
CONTINUOUS
 62
    0
370
   -2
100
AcDbMText
 10
341.802513055594
 20
273.0406187799541
 30
0
 40
4
 41
4.888888888889136
 71
    5
 72
    1
  1
37
  7
standard
210
0
220
0
230
1
 50
90
 73
    2
 44
1
  0
SOLID
  5
F7
100
AcDbEntity
  8
measures
  6
ByBlock
 62
    0
370
   -2
100
AcDbTrace
 10
344.802513055594
 20
291.5406187799536
 30
0
 11
345.2187977133668
 21
289.0406187799536
 31
0
 12
344.3862283978211
 22
289.0406187799536
 32
0
 13
344.3862283978211
 23
289.0406187799536
 33
0
  0
SOLID
  5
F8
100
AcDbEntity
  8
measures
  6
ByBlock
 62
    0
370
   -2
100
AcDbTrace
 10
344.802513055594
 20
254.5406187799545
 30
0
 11
344.3862283978211
 21
257.0406187799545
 31
0
 12
345.2187977133668
 22
257.0406187799545
 32
0
 13
345.2187977133668
 23
257.0406187799545
 33
0
  0
LINE
  5
F9
100
AcDbEntity
  8
measures
  6
ByBlock
 62
    0
370
   -2
100
AcDbLine
 10
254.8608490598016
 20
291.5406187799536
 11
346.052513055594
 21
291.5406187799536
  0
LINE
  5
FA
100
AcDbEntity
  8
measures
  6
ByBlock
 62
    0
370
   -2
100
AcDbLine
 10
254.8608490598016
 20
254.5406187799545
 11
346.052513055594
 21
254.5406187799545
  0
ENDBLK
  5
70
330
6E
100
AcDbEntity
  8
0
100
AcDbBlockEnd
  0
BLOCK
  5
72
330
71
100
AcDbEntity
  8
0
100
AcDbBlockBegin
  2
*D7
 70
    1
 10
0
 20
0
  3
*D7
  1

  0
LINE
  5
FB
100
AcDbEntity
  8
measures
  6
ByBlock
 62
    0
370
   -2
100
AcDbLine
 10
352.1909166047181
 20
600.7495820726376
 11
352.1909166047181
 21
631.7495820726442
  0
MTEXT
  5
FC
100
AcDbEntity
  8
measures
  6
CONTINUOUS
 62
    0
370
   -2
100
AcDbMText
 10
349.1909166047181
 20
616.2495820726409
 30
0
 40
4
 41
4.000000000000248
 71
    5
 72
    1
  1
31
  7
standard
210
0
220
0
230
1
 50
90
 73
    2
 44
1
  0
SOLID
  5
FD
100
AcDbEntity
  8
measures
  6
ByBlock
 62
    0
370
   -2
100
AcDbTrace
 10
352.1909166047181
 20
600.7495820726376
 30
0
 11
351.7746319469452
 21
603.2495820726376
 31
0
 12
352.6072012624909
 22
603.2495820726376
 32
0
 13
352.6072012624909
 23
603.2495820726376
 33
0
  0
SOLID
  5
FE
100
AcDbEntity
  8
measures
  6
ByBlock
 62
    0
370
   -2
100
AcDbTrace
 10
352.1909166047181
 20
631.7495820726442
 30
0
 11
352.6072012624909
 21
629.2495820726442
 31
0
 12
351.7746319469452
 22
629.2495820726442
 32
0
 13
351.7746319469452
 23
629.2495820726442
 33
0
  0
LINE
  5
FF
100
AcDbEntity
  8
measures
  6
ByBlock
 62
    0
370
   -2
100
AcDbLine
 10
336.6108490598026
 20
600.7495820726376
 11
353.4409166047181
 21
600.7495820726376
  0
LINE
  5
100
100
AcDbEntity
  8
measures
  6
ByBlock
 62
    0
370
   -2
100
AcDbLine
 10
274.8608490597999
 20
631.7495820726442
 11
353.4409166047181
 21
631.7495820726442
  0
ENDBLK
  5
73
330
71
100
AcDbEntity
  8
0
100
AcDbBlockEnd
  0
BLOCK
  5
75
330
74
100
AcDbEntity
  8
0
100
AcDbBlockBegin
  2
*D23
 70
    1
 10
0
 20
0
  3
*D23
  1

  0
LINE
  5
101
100
AcDbEntity
  8
measures
  6
ByBlock
 62
    0
370
   -2
100
AcDbLine
 10
136.2398112538035
 20
236.6241179969227
 11
154.1529711420222
 21
239.0389413843878
  0
LINE
  5
102
100
AcDbEntity
  8
measures
  6
ByBlock
 62
    0
370
   -2
100
AcDbLine
 10
126.2398112538052
 20
310.8041179969228
 11
144.1529711420239
 21
313.2189413843878
  0
LINE
  5
103
100
AcDbEntity
  8
measures
  6
ByBlock
 62
    0
370
   -2
100
AcDbLine
 10
152.9141767591381
 20
238.8719429504589
 11
142.9141767591398
 21
313.051942950459
  0
MTEXT
  5
104
100
AcDbEntity
  8
measures
  6
CONTINUOUS
 62
    0
370
   -2
100
AcDbMText
 10
150.8872832780609
 20
276.3627391918881
 30
0
 40
4
 41
13.11111111111136
 71
    5
 72
    1
  1
74,85
  7
standard
210
0
220
0
230
1
 50
277.6776000320855
 73
    2
 44
1
  0
SOLID
  5
105
100
AcDbEntity
  8
measures
  6
ByBlock
 62
    0
370
   -2
100
AcDbTrace
 10
152.9141767591381
 20
238.8719429504589
 30
0
 11
152.1676270146966
 21
241.2939166074939
 31
0
 12
152.9927327678643
 22
241.4051468249606
 32
0
 13
152.9927327678643
 23
241.4051468249606
 33
0
  0
SOLID
  5
106
100
AcDbEntity
  8
measures
  6
ByBlock
 62
    0
370
   -2
100
AcDbTrace
 10
142.9141767591398
 20
313.051942950459
 30
0
 11
143.6607265035813
 21
310.629969293424
 31
0
 12
142.8356207504135
 22
310.5187390759574
 32
0
 13
142.8356207504135
 23
310.5187390759574
 33
0
  0
ENDBLK
  5
76
330
74
100
AcDbEntity
  8
0
100
AcDbBlockEnd
  0
BLOCK
  5
78
330
77
100
AcDbEntity
  8
0
100
AcDbBlockBegin
  2
*D31
 70
    1
 10
0
 20
0
  3
*D31
  1

  0
LINE
  5
107
100
AcDbEntity
  8
measures
  6
ByBlock
 62
    0
370
   -2
100
AcDbLine
 10
435.4689328431039
 20
305.8206187799581
 11
435.4689328431039
 21
276.320618779959
  0
MTEXT
  5
108
100
AcDbEntity
  8
measures
  6
CONTINUOUS
 62
    0
370
   -2
100
AcDbMText
 10
432.4689328431039
 20
291.0706187799586
 30
0
 40
4
 41
9.555555555556053
 71
    5
 72
    1
  1
29,5
  7
standard
210
0
220
0
230
1
 50
90
 73
    2
 44
1
  0
SOLID
  5
109
100
AcDbEntity
  8
measures
  6
ByBlock
 62
    0
370
   -2
100
AcDbTrace
 10
435.4689328431039
 20
305.8206187799581
 30
0
 11
435.8852175008768
 21
303.3206187799581
 31
0
 12
435.0526481853311
 22
303.3206187799581
 32
0
 13
435.0526481853311
 23
303.3206187799581
 33
0
  0
SOLID
  5
10A
100
AcDbEntity
  8
measures
  6
ByBlock
 62
    0
370
   -2
100
AcDbTrace
 10
435.4689328431039
 20
276.320618779959
 30
0
 11
435.0526481853311
 21
278.820618779959
 31
0
 12
435.8852175008768
 22
278.820618779959
 32
0
 13
435.8852175008768
 23
278.820618779959
 33
0
  0
LINE
  5
10B
100
AcDbEntity
  8
measures
  6
ByBlock
 62
    0
370
   -2
100
AcDbLine
 10
421.1461187578224
 20
305.8206187799581
 11
436.7189328431039
 21
305.8206187799581
  0
LINE
  5
10C
100
AcDbEntity
  8
measures
  6
ByBlock
 62
    0
370
   -2
100
AcDbLine
 10
421.1461187578224
 20
276.320618779959
 11
436.7189328431039
 21
276.320618779959
  0
ENDBLK
  5
79
330
77
100
AcDbEntity
  8
0
100
AcDbBlockEnd
  0
BLOCK
  5
7B
330
7A
100
AcDbEntity
  8
0
100
AcDbBlockBegin
  2
*D15
 70
    1
 10
0
 20
0
  3
*D15
  1

  0
LINE
  5
10D
100
AcDbEntity
  8
measures
  6
ByBlock
 62
    0
370
   -2
100
AcDbLine
 10
178.2358490598
 20
208.8827295371468
 11
330.2358490598055
 21
208.8827295371468
  0
MTEXT
  5
10E
100
AcDbEntity
  8
measures
  6
CONTINUOUS
 62
    0
370
   -2
100
AcDbMText
 10
254.2358490598027
 20
211.8827295371468
 30
0
 40
4
 41
7.111111111111358
 71
    5
 72
    1
  1
152
  7
standard
210
0
220
0
230
1
 50
0
 73
    2
 44
1
  0
SOLID
  5
10F
100
AcDbEntity
  8
measures
  6
ByBlock
 62
    0
370
   -2
100
AcDbTrace
 10
178.2358490598
 20
208.8827295371468
 30
0
 11
180.7358490598
 21
209.2990141949196
 31
0
 12
180.7358490598
 22
208.4664448793739
 32
0
 13
180.7358490598
 23
208.4664448793739
 33
0
  0
SOLID
  5
110
100
AcDbEntity
  8
measures
  6
ByBlock
 62
    0
370
   -2
100
AcDbTrace
 10
330.2358490598055
 20
208.8827295371468
 30
0
 11
327.7358490598055
 21
208.4664448793739
 31
0
 12
327.7358490598055
 22
209.2990141949196
 32
0
 13
327.7358490598055
 23
209.2990141949196
 33
0
  0
LINE
  5
111
100
AcDbEntity
  8
measures
  6
ByBlock
 62
    0
370
   -2
100
AcDbLine
 10
178.2358490598
 20
201.1512755177056
 11
178.2358490598
 21
210.1327295371468
  0
LINE
  5
112
100
AcDbEntity
  8
measures
  6
ByBlock
 62
    0
370
   -2
100
AcDbLine
 10
330.2358490598055
 20
201.1512755177062
 11
330.2358490598055
 21
210.1327295371468
  0
ENDBLK
  5
7C
330
7A
100
AcDbEntity
  8
0
100
AcDbBlockEnd
  0
BLOCK
  5
7E
330
7D
100
AcDbEntity
  8
0
100
AcDbBlockBegin
  2
*D26
 70
    1
 10
0
 20
0
  3
*D26
  1

  0
LINE
  5
113
100
AcDbEntity
  8
measures
  6
ByBlock
 62
    0
370
   -2
100
AcDbLine
 10
177.5635869689069
 20
236.6223685730094
 11
167.4989305201594
 21
237.9502302033694
  0
LINE
  5
114
100
AcDbEntity
  8
measures
  6
ByBlock
 62
    0
370
   -2
100
AcDbLine
 10
187.3662185478536
 20
310.9223685730011
 11
177.3015620991061
 21
312.2502302033611
  0
LINE
  5
115
100
AcDbEntity
  8
measures
  6
ByBlock
 62
    0
370
   -2
100
AcDbLine
 10
168.738191544054
 20
237.7867306172673
 11
178.5408231230007
 21
312.086730617259
  0
MTEXT
  5
116
100
AcDbEntity
  8
measures
  6
CONTINUOUS
 62
    0
370
   -2
100
AcDbMText
 10
170.6652808761802
 20
275.3291296239083
 30
0
 40
4
 41
13.5555555555558
 71
    5
 72
    1
  1
74,94
  7
standard
210
0
220
0
230
1
 50
82.48419544663005
 73
    2
 44
1
  0
SOLID
  5
117
100
AcDbEntity
  8
measures
  6
ByBlock
 62
    0
370
   -2
100
AcDbTrace
 10
168.738191544054
 20
237.7867306172673
 30
0
 11
168.6524824352797
 21
240.3197025604538
 31
0
 12
169.4778989972368
 22
240.2108027696594
 32
0
 13
169.4778989972368
 23
240.2108027696594
 33
0
  0
SOLID
  5
118
100
AcDbEntity
  8
measures
  6
ByBlock
 62
    0
370
   -2
100
AcDbTrace
 10
178.5408231230007
 20
312.086730617259
 30
0
 11
178.626532231775
 21
309.5537586740725
 31
0
 12
177.8011156698179
 22
309.6626584648669
 32
0
 13
177.8011156698179
 23
309.6626584648669
 33
0
  0
ENDBLK
  5
7F
330
7D
100
AcDbEntity
  8
0
100
AcDbBlockEnd
  0
BLOCK
  5
81
330
80
100
AcDbEntity
  8
0
100
AcDbBlockBegin
  2
*D24
 70
    1
 10
0
 20
0
  3
*D24
  1

  0
LINE
  5
119
100
AcDbEntity
  8
measures
  6
ByBlock
 62
    0
370
   -2
100
AcDbLine
 10
80.55275841430523
 20
306.4419461600775
 11
79.00354465739065
 21
320.6694194378638
  0
LINE
  5
11A
100
AcDbEntity
  8
measures
  6
ByBlock
 62
    0
370
   -2
100
AcDbLine
 10
125.5527584143057
 20
311.3419461600777
 11
124.0035446573911
 21
325.569419437864
  0
LINE
  5
11B
100
AcDbEntity
  8
measures
  6
ByBlock
 62
    0
370
   -2
100
AcDbLine
 10
79.13885595350553
 20
319.4267646776252
 11
124.138855953506
 21
324.3267646776254
  0
MTEXT
  5
11C
100
AcDbEntity
  8
measures
  6
CONTINUOUS
 62
    0
370
   -2
100
AcDbMText
 10
101.31410884283
 20
324.859136102198
 30
0
 40
4
 41
13.11111111111136
 71
    5
 72
    1
  1
45,27
  7
standard
210
0
220
0
230
1
 50
6.214390041356268
 73
    2
 44
1
  0
SOLID
  5
11D
100
AcDbEntity
  8
measures
  6
ByBlock
 62
    0
370
   -2
100
AcDbTrace
 10
79.13885595350553
 20
319.4267646776252
 30
0
 11
81.57910306070599
 21
320.1112257591315
 31
0
 12
81.66922788725955
 22
319.2835487805783
 32
0
 13
81.66922788725955
 23
319.2835487805783
 33
0
  0
SOLID
  5
11E
100
AcDbEntity
  8
measures
  6
ByBlock
 62
    0
370
   -2
100
AcDbTrace
 10
124.138855953506
 20
324.3267646776254
 30
0
 11
121.6986088463055
 21
323.6423035961191
 31
0
 12
121.6084840197519
 22
324.4699805746723
 32
0
 13
121.6084840197519
 23
324.4699805746723
 33
0
  0
ENDBLK
  5
82
330
80
100
AcDbEntity
  8
0
100
AcDbBlockEnd
  0
BLOCK
  5
84
330
83
100
AcDbEntity
  8
0
100
AcDbBlockBegin
  2
*D8
 70
    1
 10
0
 20
0
  3
*D8
  1

  0
LINE
  5
11F
100
AcDbEntity
  8
measures
  6
ByBlock
 62
    0
370
   -2
100
AcDbLine
 10
351.9787297726822
 20
631.7495820726442
 11
351.9787297726822
 21
658.749582072643
  0
MTEXT
  5
120
100
AcDbEntity
  8
measures
  6
CONTINUOUS
 62
    0
370
   -2
100
AcDbMText
 10
348.9787297726822
 20
645.2495820726435
 30
0
 40
4
 41
4.888888888888888
 71
    5
 72
    1
  1
27
  7
standard
210
0
220
0
230
1
 50
90
 73
    2
 44
1
  0
SOLID
  5
121
100
AcDbEntity
  8
measures
  6
ByBlock
 62
    0
370
   -2
100
AcDbTrace
 10
351.9787297726822
 20
631.7495820726442
 30
0
 11
351.5624451149093
 21
634.2495820726442
 31
0
 12
352.395014430455
 22
634.2495820726442
 32
0
 13
352.395014430455
 23
634.2495820726442
 33
0
  0
SOLID
  5
122
100
AcDbEntity
  8
measures
  6
ByBlock
 62
    0
370
   -2
100
AcDbTrace
 10
351.9787297726822
 20
658.749582072643
 30
0
 11
352.395014430455
 21
656.249582072643
 31
0
 12
351.5624451149093
 22
656.249582072643
 32
0
 13
351.5624451149093
 23
656.249582072643
 33
0
  0
LINE
  5
123
100
AcDbEntity
  8
measures
  6
ByBlock
 62
    0
370
   -2
100
AcDbLine
 10
274.8608490597999
 20
631.7495820726442
 11
353.2287297726822
 21
631.7495820726442
  0
LINE
  5
124
100
AcDbEntity
  8
measures
  6
ByBlock
 62
    0
370
   -2
100
AcDbLine
 10
274.8608490597995
 20
658.749582072643
 11
353.2287297726822
 21
658.749582072643
  0
ENDBLK
  5
85
330
83
100
AcDbEntity
  8
0
100
AcDbBlockEnd
  0
BLOCK
  5
87
330
86
100
AcDbEntity
  8
0
100
AcDbBlockBegin
  2
*D22
 70
    1
 10
0
 20
0
  3
*D22
  1

  0
LINE
  5
125
100
AcDbEntity
  8
measures
  6
ByBlock
 62
    0
370
   -2
100
AcDbLine
 10
126.2007119941663
 20
211.3084996072369
 11
141.3090123140306
 21
205.2651794792922
  0
LINE
  5
126
100
AcDbEntity
  8
measures
  6
ByBlock
 62
    0
370
   -2
100
AcDbLine
 10
136.2007119941647
 20
236.308499607237
 11
151.309012314029
 21
230.2651794792923
  0
LINE
  5
127
100
AcDbEntity
  8
measures
  6
ByBlock
 62
    0
370
   -2
100
AcDbLine
 10
140.148416450424
 20
205.7294178247348
 11
150.1484164504224
 21
230.7294178247348
  0
MTEXT
  5
128
100
AcDbEntity
  8
measures
  6
CONTINUOUS
 62
    0
370
   -2
100
AcDbMText
 10
142.3629863777674
 20
219.343589853797
 30
0
 40
4
 41
12.66666666666741
 71
    5
 72
    1
  1
26,93
  7
standard
210
0
220
0
230
1
 50
68.19859051365141
 73
    2
 44
1
  0
SOLID
  5
129
100
AcDbEntity
  8
measures
  6
ByBlock
 62
    0
370
   -2
100
AcDbTrace
 10
140.148416450424
 20
205.7294178247348
 30
0
 11
140.6903825397939
 21
208.205213792554
 31
0
 12
141.4634037428244
 22
207.8960053113419
 32
0
 13
141.4634037428244
 23
207.8960053113419
 33
0
  0
SOLID
  5
12A
100
AcDbEntity
  8
measures
  6
ByBlock
 62
    0
370
   -2
100
AcDbTrace
 10
150.1484164504224
 20
230.7294178247348
 30
0
 11
149.6064503610525
 21
228.2536218569156
 31
0
 12
148.8334291580221
 22
228.5628303381277
 32
0
 13
148.8334291580221
 23
228.5628303381277
 33
0
  0
ENDBLK
  5
88
330
86
100
AcDbEntity
  8
0
100
AcDbBlockEnd
  0
BLOCK
  5
8A
330
89
100
AcDbEntity
  8
0
100
AcDbBlockBegin
  2
*D28
 70
    1
 10
0
 20
0
  3
*D28
  1

  0
LINE
  5
12B
100
AcDbEntity
  8
measures
  6
ByBlock
 62
    0
370
   -2
100
AcDbLine
 10
182.5200069248939
 20
505.005935752193
 11
170.6324534565235
 21
506.9871946635931
  0
LINE
  5
12C
100
AcDbEntity
  8
measures
  6
ByBlock
 62
    0
370
   -2
100
AcDbLine
 10
178.903229204167
 20
483.3052694278869
 11
167.0156757357966
 21
485.286528339287
  0
LINE
  5
12D
100
AcDbEntity
  8
measures
  6
ByBlock
 62
    0
370
   -2
100
AcDbLine
 10
171.8654458613136
 20
506.7816959294609
 11
168.2486681405867
 21
485.0810296051548
  0
MTEXT
  5
12E
100
AcDbEntity
  8
measures
  6
CONTINUOUS
 62
    0
370
   -2
100
AcDbMText
 10
167.0978752294538
 20
496.4245597292252
 30
0
 40
4
 41
4.888888888888888
 71
    5
 72
    1
  1
22
  7
standard
210
0
220
0
230
1
 50
80.53767779195071
 73
    2
 44
1
  0
SOLID
  5
12F
100
AcDbEntity
  8
measures
  6
ByBlock
 62
    0
370
   -2
100
AcDbTrace
 10
171.8654458613136
 20
506.7816959294609
 30
0
 11
171.8650690500608
 21
504.2472743437119
 31
0
 12
171.0438277360375
 22
504.3841478960495
 32
0
 13
171.0438277360375
 23
504.3841478960495
 33
0
  0
SOLID
  5
130
100
AcDbEntity
  8
measures
  6
ByBlock
 62
    0
370
   -2
100
AcDbTrace
 10
168.2486681405867
 20
485.0810296051548
 30
0
 11
168.2490449518395
 21
487.6154511909038
 31
0
 12
169.0702862658627
 22
487.4785776385662
 32
0
 13
169.0702862658627
 23
487.4785776385662
 33
0
  0
ENDBLK
  5
8B
330
89
100
AcDbEntity
  8
0
100
AcDbBlockEnd
  0
BLOCK
  5
8D
330
8C
100
AcDbEntity
  8
0
100
AcDbBlockBegin
  2
*D14
 70
    1
 10
0
 20
0
  3
*D14
  1

  0
LINE
  5
131
100
AcDbEntity
  8
measures
  6
ByBlock
 62
    0
370
   -2
100
AcDbLine
 10
344.9913868676507
 20
173.6262755177057
 11
344.9913868676507
 21
200.5262755177062
  0
MTEXT
  5
132
100
AcDbEntity
  8
measures
  6
CONTINUOUS
 62
    0
370
   -2
100
AcDbMText
 10
341.9913868676507
 20
187.0762755177059
 30
0
 40
4
 41
9.555555555555806
 71
    5
 72
    1
  1
26,9
  7
standard
210
0
220
0
230
1
 50
90
 73
    2
 44
1
  0
SOLID
  5
133
100
AcDbEntity
  8
measures
  6
ByBlock
 62
    0
370
   -2
100
AcDbTrace
 10
344.9913868676507
 20
173.6262755177057
 30
0
 11
344.5751022098779
 21
176.1262755177057
 31
0
 12
345.4076715254236
 22
176.1262755177057
 32
0
 13
345.4076715254236
 23
176.1262755177057
 33
0
  0
SOLID
  5
134
100
AcDbEntity
  8
measures
  6
ByBlock
 62
    0
370
   -2
100
AcDbTrace
 10
344.9913868676507
 20
200.5262755177062
 30
0
 11
345.4076715254236
 21
198.0262755177062
 31
0
 12
344.5751022098779
 22
198.0262755177062
 32
0
 13
344.5751022098779
 23
198.0262755177062
 33
0
  0
LINE
  5
135
100
AcDbEntity
  8
measures
  6
ByBlock
 62
    0
370
   -2
100
AcDbLine
 10
334.8608490598037
 20
173.6262755177057
 11
346.2413868676507
 21
173.6262755177057
  0
LINE
  5
136
100
AcDbEntity
  8
measures
  6
ByBlock
 62
    0
370
   -2
100
AcDbLine
 10
330.8608490598055
 20
200.5262755177062
 11
346.2413868676507
 21
200.5262755177062
  0
ENDBLK
  5
8E
330
8C
100
AcDbEntity
  8
0
100
AcDbBlockEnd
  0
BLOCK
  5
90
330
8F
100
AcDbEntity
  8
0
100
AcDbBlockBegin
  2
*D33
 70
    1
 10
0
 20
0
  3
*D33
  1

  0
LINE
  5
137
100
AcDbEntity
  8
measures
  6
ByBlock
 62
    0
370
   -2
100
AcDbLine
 10
435.2184732289922
 20
254.3206187799567
 11
435.2184732289922
 21
211.5406187799582
  0
MTEXT
  5
138
100
AcDbEntity
  8
measures
  6
CONTINUOUS
 62
    0
370
   -2
100
AcDbMText
 10
432.2184732289922
 20
232.9306187799575
 30
0
 40
4
 41
13.11111111111111
 71
    5
 72
    1
  1
42,78
  7
standard
210
0
220
0
230
1
 50
90
 73
    2
 44
1
  0
SOLID
  5
139
100
AcDbEntity
  8
measures
  6
ByBlock
 62
    0
370
   -2
100
AcDbTrace
 10
435.2184732289922
 20
254.3206187799567
 30
0
 11
435.634757886765
 21
251.8206187799567
 31
0
 12
434.8021885712193
 22
251.8206187799567
 32
0
 13
434.8021885712193
 23
251.8206187799567
 33
0
  0
SOLID
  5
13A
100
AcDbEntity
  8
measures
  6
ByBlock
 62
    0
370
   -2
100
AcDbTrace
 10
435.2184732289922
 20
211.5406187799582
 30
0
 11
434.8021885712193
 21
214.0406187799582
 31
0
 12
435.634757886765
 22
214.0406187799582
 32
0
 13
435.634757886765
 23
214.0406187799582
 33
0
  0
LINE
  5
13B
100
AcDbEntity
  8
measures
  6
ByBlock
 62
    0
370
   -2
100
AcDbLine
 10
421.1461187578224
 20
254.3206187799567
 11
436.4684732289922
 21
254.3206187799567
  0
LINE
  5
13C
100
AcDbEntity
  8
measures
  6
ByBlock
 62
    0
370
   -2
100
AcDbLine
 10
421.1461187578224
 20
211.5406187799582
 11
436.4684732289922
 21
211.5406187799582
  0
ENDBLK
  5
91
330
8F
100
AcDbEntity
  8
0
100
AcDbBlockEnd
  0
BLOCK
  5
93
330
92
100
AcDbEntity
  8
0
100
AcDbBlockBegin
  2
*D6
 70
    1
 10
0
 20
0
  3
*D6
  1

  0
LINE
  5
13D
100
AcDbEntity
  8
measures
  6
ByBlock
 62
    0
370
   -2
100
AcDbLine
 10
172.4858490598155
 20
576.8823012492576
 11
335.9858490598025
 21
576.8823012492576
  0
MTEXT
  5
13E
100
AcDbEntity
  8
measures
  6
CONTINUOUS
 62
    0
370
   -2
100
AcDbMText
 10
254.235849059809
 20
579.8823012492576
 30
0
 40
4
 41
11.77777777777852
 71
    5
 72
    1
  1
163,5
  7
standard
210
0
220
0
230
1
 50
0
 73
    2
 44
1
  0
SOLID
  5
13F
100
AcDbEntity
  8
measures
  6
ByBlock
 62
    0
370
   -2
100
AcDbTrace
 10
172.4858490598155
 20
576.8823012492576
 30
0
 11
174.9858490598155
 21
577.2985859070304
 31
0
 12
174.9858490598155
 22
576.4660165914847
 32
0
 13
174.9858490598155
 23
576.4660165914847
 33
0
  0
SOLID
  5
140
100
AcDbEntity
  8
measures
  6
ByBlock
 62
    0
370
   -2
100
AcDbTrace
 10
335.9858490598025
 20
576.8823012492576
 30
0
 11
333.4858490598025
 21
576.4660165914847
 31
0
 12
333.4858490598025
 22
577.2985859070304
 32
0
 13
333.4858490598025
 23
577.2985859070304
 33
0
  0
LINE
  5
141
100
AcDbEntity
  8
measures
  6
ByBlock
 62
    0
370
   -2
100
AcDbLine
 10
172.4858490598155
 20
600.1245820726565
 11
172.4858490598155
 21
575.6323012492576
  0
LINE
  5
142
100
AcDbEntity
  8
measures
  6
ByBlock
 62
    0
370
   -2
100
AcDbLine
 10
335.9858490598025
 20
600.1245820726377
 11
335.9858490598025
 21
575.6323012492576
  0
ENDBLK
  5
94
330
92
100
AcDbEntity
  8
0
100
AcDbBlockEnd
  0
BLOCK
  5
96
330
95
100
AcDbEntity
  8
0
100
AcDbBlockBegin
  2
*D35
 70
    1
 10
0
 20
0
  3
*D35
  1

  0
LINE
  5
143
100
AcDbEntity
  8
measures
  6
ByBlock
 62
    0
370
   -2
100
AcDbLine
 10
415.5211187578224
 20
201.958880659219
 11
430.5211187578211
 21
201.958880659219
  0
MTEXT
  5
144
100
AcDbEntity
  8
measures
  6
CONTINUOUS
 62
    0
370
   -2
100
AcDbMText
 10
423.0211187578218
 20
204.958880659219
 30
0
 40
4
 41
1.777777777778026
 71
    5
 72
    1
  1
5
  7
standard
210
0
220
0
230
1
 50
0
 73
    2
 44
1
  0
SOLID
  5
145
100
AcDbEntity
  8
measures
  6
ByBlock
 62
    0
370
   -2
100
AcDbTrace
 10
420.5211187578224
 20
201.958880659219
 30
0
 11
418.0211187578224
 21
201.5425960014462
 31
0
 12
418.0211187578224
 22
202.3751653169919
 32
0
 13
418.0211187578224
 23
202.3751653169919
 33
0
  0
SOLID
  5
146
100
AcDbEntity
  8
measures
  6
ByBlock
 62
    0
370
   -2
100
AcDbTrace
 10
425.5211187578211
 20
201.958880659219
 30
0
 11
428.0211187578211
 21
202.3751653169919
 31
0
 12
428.0211187578211
 22
201.5425960014462
 32
0
 13
428.0211187578211
 23
201.5425960014462
 33
0
  0
LINE
  5
147
100
AcDbEntity
  8
measures
  6
ByBlock
 62
    0
370
   -2
100
AcDbLine
 10
420.5211187578224
 20
253.735502651983
 11
420.5211187578224
 21
200.708880659219
  0
LINE
  5
148
100
AcDbEntity
  8
measures
  6
ByBlock
 62
    0
370
   -2
100
AcDbLine
 10
425.5211187578211
 20
210.9156187799582
 11
425.5211187578211
 21
200.708880659219
  0
ENDBLK
  5
97
330
95
100
AcDbEntity
  8
0
100
AcDbBlockEnd
  0
BLOCK
  5
99
330
98
100
AcDbEntity
  8
0
100
AcDbBlockBegin
  2
*D2
 70
    1
 10
0
 20
0
  3
*D2
  1

  0
LINE
  5
149
100
AcDbEntity
  8
measures
  6
ByBlock
 62
    0
370
   -2
100
AcDbLine
 10
172.4858490598155
 20
417.1319811570487
 11
335.9858490598025
 21
417.1319811570487
  0
MTEXT
  5
14A
100
AcDbEntity
  8
measures
  6
CONTINUOUS
 62
    0
370
   -2
100
AcDbMText
 10
254.235849059809
 20
420.1319811570487
 30
0
 40
4
 41
11.77777777777852
 71
    5
 72
    1
  1
163,5
  7
standard
210
0
220
0
230
1
 50
0
 73
    2
 44
1
  0
SOLID
  5
14B
100
AcDbEntity
  8
measures
  6
ByBlock
 62
    0
370
   -2
100
AcDbTrace
 10
172.4858490598155
 20
417.1319811570487
 30
0
 11
174.9858490598155
 21
417.5482658148215
 31
0
 12
174.9858490598155
 22
416.7156964992759
 32
0
 13
174.9858490598155
 23
416.7156964992759
 33
0
  0
SOLID
  5
14C
100
AcDbEntity
  8
measures
  6
ByBlock
 62
    0
370
   -2
100
AcDbTrace
 10
335.9858490598025
 20
417.1319811570487
 30
0
 11
333.4858490598025
 21
416.7156964992759
 31
0
 12
333.4858490598025
 22
417.5482658148215
 32
0
 13
333.4858490598025
 23
417.5482658148215
 33
0
  0
LINE
  5
14D
100
AcDbEntity
  8
measures
  6
ByBlock
 62
    0
370
   -2
100
AcDbLine
 10
172.4858490598155
 20
440.3742619804476
 11
172.4858490598155
 21
415.8819811570487
  0
LINE
  5
14E
100
AcDbEntity
  8
measures
  6
ByBlock
 62
    0
370
   -2
100
AcDbLine
 10
335.9858490598025
 20
440.3742619804289
 11
335.9858490598025
 21
415.8819811570487
  0
ENDBLK
  5
9A
330
98
100
AcDbEntity
  8
0
100
AcDbBlockEnd
  0
BLOCK
  5
9C
330
9B
100
AcDbEntity
  8
0
100
AcDbBlockBegin
  2
*D25
 70
    1
 10
0
 20
0
  3
*D25
  1

  0
LINE
  5
14F
100
AcDbEntity
  8
measures
  6
ByBlock
 62
    0
370
   -2
100
AcDbLine
 10
187.9858490598008
 20
395.2708051077636
 11
320.4858490598026
 21
395.2708051077636
  0
MTEXT
  5
150
100
AcDbEntity
  8
measures
  6
CONTINUOUS
 62
    0
370
   -2
100
AcDbMText
 10
254.2358490598017
 20
398.2708051077636
 30
0
 40
4
 41
11.77777777777827
 71
    5
 72
    1
  1
132,5
  7
standard
210
0
220
0
230
1
 50
0
 73
    2
 44
1
  0
SOLID
  5
151
100
AcDbEntity
  8
measures
  6
ByBlock
 62
    0
370
   -2
100
AcDbTrace
 10
187.9858490598008
 20
395.2708051077636
 30
0
 11
190.4858490598008
 21
395.6870897655364
 31
0
 12
190.4858490598008
 22
394.8545204499907
 32
0
 13
190.4858490598008
 23
394.8545204499907
 33
0
  0
SOLID
  5
152
100
AcDbEntity
  8
measures
  6
ByBlock
 62
    0
370
   -2
100
AcDbTrace
 10
320.4858490598026
 20
395.2708051077636
 30
0
 11
317.9858490598026
 21
394.8545204499907
 31
0
 12
317.9858490598026
 22
395.6870897655364
 32
0
 13
317.9858490598026
 23
395.6870897655364
 33
0
  0
LINE
  5
153
100
AcDbEntity
  8
measures
  6
ByBlock
 62
    0
370
   -2
100
AcDbLine
 10
187.9858490598008
 20
389.3536147620185
 11
187.9858490598008
 21
396.5208051077636
  0
LINE
  5
154
100
AcDbEntity
  8
measures
  6
ByBlock
 62
    0
370
   -2
100
AcDbLine
 10
320.4858490598026
 20
389.3536147620185
 11
320.4858490598026
 21
396.5208051077636
  0
ENDBLK
  5
9D
330
9B
100
AcDbEntity
  8
0
100
AcDbBlockEnd
  0
BLOCK
  5
9F
330
9E
100
AcDbEntity
  8
0
100
AcDbBlockBegin
  2
*D18
 70
    1
 10
0
 20
0
  3
*D18
  1

  0
LINE
  5
155
100
AcDbEntity
  8
measures
  6
ByBlock
 62
    0
370
   -2
100
AcDbLine
 10
360.9142204983818
 20
236.5406187799582
 11
360.9142204983818
 21
211.5406187799583
  0
MTEXT
  5
156
100
AcDbEntity
  8
measures
  6
CONTINUOUS
 62
    0
370
   -2
100
AcDbMText
 10
357.9142204983818
 20
224.0406187799583
 30
0
 40
4
 41
4.888888888889136
 71
    5
 72
    1
  1
25
  7
standard
210
0
220
0
230
1
 50
90
 73
    2
 44
1
  0
SOLID
  5
157
100
AcDbEntity
  8
measures
  6
ByBlock
 62
    0
370
   -2
100
AcDbTrace
 10
360.9142204983818
 20
236.5406187799582
 30
0
 11
361.3305051561546
 21
234.0406187799582
 31
0
 12
360.4979358406089
 22
234.0406187799582
 32
0
 13
360.4979358406089
 23
234.0406187799582
 33
0
  0
SOLID
  5
158
100
AcDbEntity
  8
measures
  6
ByBlock
 62
    0
370
   -2
100
AcDbTrace
 10
360.9142204983818
 20
211.5406187799583
 30
0
 11
360.4979358406089
 21
214.0406187799583
 31
0
 12
361.3305051561546
 22
214.0406187799583
 32
0
 13
361.3305051561546
 23
214.0406187799583
 33
0
  0
LINE
  5
159
100
AcDbEntity
  8
measures
  6
ByBlock
 62
    0
370
   -2
100
AcDbLine
 10
369.8961187578223
 20
236.5406187799582
 11
359.6642204983818
 21
236.5406187799582
  0
LINE
  5
15A
100
AcDbEntity
  8
measures
  6
ByBlock
 62
    0
370
   -2
100
AcDbLine
 10
379.8961187578205
 20
211.5406187799583
 11
359.6642204983818
 21
211.5406187799583
  0
ENDBLK
  5
A0
330
9E
100
AcDbEntity
  8
0
100
AcDbBlockEnd
  0
BLOCK
  5
A2
330
A1
100
AcDbEntity
  8
0
100
AcDbBlockBegin
  2
*D21
 70
    1
 10
0
 20
0
  3
*D21
  1

  0
LINE
  5
15B
100
AcDbEntity
  8
measures
  6
ByBlock
 62
    0
370
   -2
100
AcDbLine
 10
70.56126953235034
 20
211.5406187799583
 11
70.56126953235044
 21
305.8206187799581
  0
MTEXT
  5
15C
100
AcDbEntity
  8
measures
  6
CONTINUOUS
 62
    0
370
   -2
100
AcDbMText
 10
67.56126953235039
 20
258.6806187799582
 30
0
 40
4
 41
13.11111111111161
 71
    5
 72
    1
  1
94,28
  7
standard
210
0
220
0
230
1
 50
89.99999999999994
 73
    2
 44
1
  0
SOLID
  5
15D
100
AcDbEntity
  8
measures
  6
ByBlock
 62
    0
370
   -2
100
AcDbTrace
 10
70.56126953235034
 20
211.5406187799583
 30
0
 11
70.1449848745775
 21
214.0406187799583
 31
0
 12
70.97755419012319
 22
214.0406187799583
 32
0
 13
70.97755419012319
 23
214.0406187799583
 33
0
  0
SOLID
  5
15E
100
AcDbEntity
  8
measures
  6
ByBlock
 62
    0
370
   -2
100
AcDbTrace
 10
70.56126953235044
 20
305.8206187799581
 30
0
 11
70.97755419012327
 21
303.3206187799581
 31
0
 12
70.14498487457759
 22
303.3206187799581
 32
0
 13
70.14498487457759
 23
303.3206187799581
 33
0
  0
LINE
  5
15F
100
AcDbEntity
  8
measures
  6
ByBlock
 62
    0
370
   -2
100
AcDbLine
 10
79.99541406236241
 20
211.5406187799583
 11
69.31126953235034
 21
211.5406187799583
  0
LINE
  5
160
100
AcDbEntity
  8
measures
  6
ByBlock
 62
    0
370
   -2
100
AcDbLine
 10
79.99541406236234
 20
305.8206187799581
 11
69.31126953235044
 21
305.8206187799581
  0
ENDBLK
  5
A3
330
A1
100
AcDbEntity
  8
0
100
AcDbBlockEnd
  0
BLOCK
  5
A5
330
A4
100
AcDbEntity
  8
0
100
AcDbBlockBegin
  2
*D11
 70
    1
 10
0
 20
0
  3
*D11
  1

  0
LINE
  5
161
100
AcDbEntity
  8
measures
  6
ByBlock
 62
    0
370
   -2
100
AcDbLine
 10
178.1832174808542
 20
226.4351670371606
 11
330.28848063875
 21
226.4351670371606
  0
MTEXT
  5
162
100
AcDbEntity
  8
measures
  6
CONTINUOUS
 62
    0
370
   -2
100
AcDbMText
 10
254.2358490598021
 20
229.4351670371606
 30
0
 40
4
 41
13.11111111111136
 71
    5
 72
    1
  1
152,11
  7
standard
210
0
220
0
230
1
 50
0
 73
    2
 44
1
  0
SOLID
  5
163
100
AcDbEntity
  8
measures
  6
ByBlock
 62
    0
370
   -2
100
AcDbTrace
 10
178.1832174808542
 20
226.4351670371606
 30
0
 11
180.6832174808542
 21
226.8514516949334
 31
0
 12
180.6832174808542
 22
226.0188823793877
 32
0
 13
180.6832174808542
 23
226.0188823793877
 33
0
  0
SOLID
  5
164
100
AcDbEntity
  8
measures
  6
ByBlock
 62
    0
370
   -2
100
AcDbTrace
 10
330.28848063875
 20
226.4351670371606
 30
0
 11
327.78848063875
 21
226.0188823793877
 31
0
 12
327.78848063875
 22
226.8514516949334
 32
0
 13
327.78848063875
 23
226.8514516949334
 33
0
  0
LINE
  5
165
100
AcDbEntity
  8
measures
  6
ByBlock
 62
    0
370
   -2
100
AcDbLine
 10
178.1832174808542
 20
235.9156187799583
 11
178.1832174808542
 21
225.1851670371606
  0
LINE
  5
166
100
AcDbEntity
  8
measures
  6
ByBlock
 62
    0
370
   -2
100
AcDbLine
 10
330.28848063875
 20
235.9156187799582
 11
330.28848063875
 21
225.1851670371606
  0
ENDBLK
  5
A6
330
A4
100
AcDbEntity
  8
0
100
AcDbBlockEnd
  0
BLOCK
  5
A8
330
A7
100
AcDbEntity
  8
0
100
AcDbBlockBegin
  2
*D3
 70
    1
 10
0
 20
0
  3
*D3
  1

  0
LINE
  5
167
100
AcDbEntity
  8
measures
  6
ByBlock
 62
    0
370
   -2
100
AcDbLine
 10
363.0588032193709
 20
440.9992619804289
 11
363.0588032193709
 21
533.9992619874704
  0
MTEXT
  5
168
100
AcDbEntity
  8
measures
  6
CONTINUOUS
 62
    0
370
   -2
100
AcDbMText
 10
360.0588032193709
 20
487.4992619839496
 30
0
 40
4
 41
4.888888888889633
 71
    5
 72
    1
  1
93
  7
standard
210
0
220
0
230
1
 50
90
 73
    2
 44
1
  0
SOLID
  5
169
100
AcDbEntity
  8
measures
  6
ByBlock
 62
    0
370
   -2
100
AcDbTrace
 10
363.0588032193709
 20
440.9992619804289
 30
0
 11
362.642518561598
 21
443.4992619804289
 31
0
 12
363.4750878771437
 22
443.4992619804289
 32
0
 13
363.4750878771437
 23
443.4992619804289
 33
0
  0
SOLID
  5
16A
100
AcDbEntity
  8
measures
  6
ByBlock
 62
    0
370
   -2
100
AcDbTrace
 10
363.0588032193709
 20
533.9992619874704
 30
0
 11
363.4750878771437
 21
531.4992619874704
 31
0
 12
362.642518561598
 22
531.4992619874704
 32
0
 13
362.642518561598
 23
531.4992619874704
 33
0
  0
LINE
  5
16B
100
AcDbEntity
  8
measures
  6
ByBlock
 62
    0
370
   -2
100
AcDbLine
 10
336.6108490598025
 20
440.9992619804289
 11
364.3088032193709
 21
440.9992619804289
  0
LINE
  5
16C
100
AcDbEntity
  8
measures
  6
ByBlock
 62
    0
370
   -2
100
AcDbLine
 10
321.1108490586268
 20
533.9992619874704
 11
364.3088032193709
 21
533.9992619874704
  0
ENDBLK
  5
A9
330
A7
100
AcDbEntity
  8
0
100
AcDbBlockEnd
  0
BLOCK
  5
AB
330
AA
100
AcDbEntity
  8
0
100
AcDbBlockBegin
  2
*D27
 70
    1
 10
0
 20
0
  3
*D27
  1

  0
LINE
  5
16D
100
AcDbEntity
  8
measures
  6
ByBlock
 62
    0
370
   -2
100
AcDbLine
 10
187.3693528574566
 20
534.1020113474951
 11
175.5778531747662
 21
536.0672612946153
  0
LINE
  5
16E
100
AcDbEntity
  8
measures
  6
ByBlock
 62
    0
370
   -2
100
AcDbLine
 10
182.5200069248939
 20
505.005935752193
 11
170.7285072422035
 21
506.9711856993131
  0
LINE
  5
16F
100
AcDbEntity
  8
measures
  6
ByBlock
 62
    0
370
   -2
100
AcDbLine
 10
176.8108455795563
 20
535.861762560483
 11
171.9614996469936
 21
506.7656869651809
  0
MTEXT
  5
170
100
AcDbEntity
  8
measures
  6
CONTINUOUS
 62
    0
370
   -2
100
AcDbMText
 10
171.4269908417788
 20
521.8069217247493
 30
0
 40
4
 41
9.555555555556053
 71
    5
 72
    1
  1
29,5
  7
standard
210
0
220
0
230
1
 50
80.53767779195071
 73
    2
 44
1
  0
SOLID
  5
171
100
AcDbEntity
  8
measures
  6
ByBlock
 62
    0
370
   -2
100
AcDbTrace
 10
176.8108455795563
 20
535.861762560483
 30
0
 11
176.8104687683035
 21
533.3273409747341
 31
0
 12
175.9892274542802
 22
533.4642145270716
 32
0
 13
175.9892274542802
 23
533.4642145270716
 33
0
  0
SOLID
  5
172
100
AcDbEntity
  8
measures
  6
ByBlock
 62
    0
370
   -2
100
AcDbTrace
 10
171.9614996469936
 20
506.7656869651809
 30
0
 11
171.9618764582464
 21
509.3001085509298
 31
0
 12
172.7831177722696
 22
509.1632349985923
 32
0
 13
172.7831177722696
 23
509.1632349985923
 33
0
  0
ENDBLK
  5
AC
330
AA
100
AcDbEntity
  8
0
100
AcDbBlockEnd
  0
BLOCK
  5
AE
330
AD
100
AcDbEntity
  8
0
100
AcDbBlockBegin
  2
*D34
 70
    1
 10
0
 20
0
  3
*D34
  1

  0
LINE
  5
173
100
AcDbEntity
  8
measures
  6
ByBlock
 62
    0
370
   -2
100
AcDbLine
 10
380.5211187578205
 20
201.7852272794604
 11
420.5211187578224
 21
201.7852272794604
  0
MTEXT
  5
174
100
AcDbEntity
  8
measures
  6
CONTINUOUS
 62
    0
370
   -2
100
AcDbMText
 10
400.5211187578215
 20
204.7852272794604
 30
0
 40
4
 41
5.333333333333333
 71
    5
 72
    1
  1
40
  7
standard
210
0
220
0
230
1
 50
0
 73
    2
 44
1
  0
SOLID
  5
175
100
AcDbEntity
  8
measures
  6
ByBlock
 62
    0
370
   -2
100
AcDbTrace
 10
380.5211187578205
 20
201.7852272794604
 30
0
 11
383.0211187578205
 21
202.2015119372332
 31
0
 12
383.0211187578205
 22
201.3689426216876
 32
0
 13
383.0211187578205
 23
201.3689426216876
 33
0
  0
SOLID
  5
176
100
AcDbEntity
  8
measures
  6
ByBlock
 62
    0
370
   -2
100
AcDbTrace
 10
420.5211187578224
 20
201.7852272794604
 30
0
 11
418.0211187578224
 21
201.3689426216876
 31
0
 12
418.0211187578224
 22
202.2015119372332
 32
0
 13
418.0211187578224
 23
202.2015119372332
 33
0
  0
LINE
  5
177
100
AcDbEntity
  8
measures
  6
ByBlock
 62
    0
370
   -2
100
AcDbLine
 10
380.5211187578205
 20
210.9156187799582
 11
380.5211187578205
 21
200.5352272794604
  0
LINE
  5
178
100
AcDbEntity
  8
measures
  6
ByBlock
 62
    0
370
   -2
100
AcDbLine
 10
420.5211187578224
 20
253.735502651983
 11
420.5211187578224
 21
200.5352272794604
  0
ENDBLK
  5
AF
330
AD
100
AcDbEntity
  8
0
100
AcDbBlockEnd
  0
BLOCK
  5
B1
330
B0
100
AcDbEntity
  8
0
100
AcDbBlockBegin
  2
*D19
 70
    1
 10
0
 20
0
  3
*D19
  1

  0
LINE
  5
179
100
AcDbEntity
  8
measures
  6
ByBlock
 62
    0
370
   -2
100
AcDbLine
 10
360.5980650840206
 20
310.7206187799582
 11
360.5980650840206
 21
236.5406187799582
  0
MTEXT
  5
17A
100
AcDbEntity
  8
measures
  6
CONTINUOUS
 62
    0
370
   -2
100
AcDbMText
 10
357.5980650840206
 20
273.6306187799582
 30
0
 40
4
 41
12.22222222222222
 71
    5
 72
    1
  1
74,18
  7
standard
210
0
220
0
230
1
 50
90
 73
    2
 44
1
  0
SOLID
  5
17B
100
AcDbEntity
  8
measures
  6
ByBlock
 62
    0
370
   -2
100
AcDbTrace
 10
360.5980650840206
 20
310.7206187799582
 30
0
 11
361.0143497417935
 21
308.2206187799582
 31
0
 12
360.1817804262478
 22
308.2206187799582
 32
0
 13
360.1817804262478
 23
308.2206187799582
 33
0
  0
SOLID
  5
17C
100
AcDbEntity
  8
measures
  6
ByBlock
 62
    0
370
   -2
100
AcDbTrace
 10
360.5980650840206
 20
236.5406187799582
 30
0
 11
360.1817804262478
 21
239.0406187799582
 31
0
 12
361.0143497417935
 22
239.0406187799582
 32
0
 13
361.0143497417935
 23
239.0406187799582
 33
0
  0
LINE
  5
17D
100
AcDbEntity
  8
measures
  6
ByBlock
 62
    0
370
   -2
100
AcDbLine
 10
379.8961187578205
 20
310.7206187799582
 11
359.3480650840206
 21
310.7206187799582
  0
LINE
  5
17E
100
AcDbEntity
  8
measures
  6
ByBlock
 62
    0
370
   -2
100
AcDbLine
 10
379.8961187578205
 20
236.5406187799582
 11
359.3480650840206
 21
236.5406187799582
  0
ENDBLK
  5
B2
330
B0
100
AcDbEntity
  8
0
100
AcDbBlockEnd
  0
BLOCK
  5
B4
330
B3
100
AcDbEntity
  8
0
100
AcDbBlockBegin
  2
*D13
 70
    1
 10
0
 20
0
  3
*D13
  1

  0
LINE
  5
17F
100
AcDbEntity
  8
measures
  6
ByBlock
 62
    0
370
   -2
100
AcDbLine
 10
345.0527933949769
 20
156.59921826843
 11
345.0527933949769
 21
111.5992182684301
  0
MTEXT
  5
180
100
AcDbEntity
  8
measures
  6
CONTINUOUS
 62
    0
370
   -2
100
AcDbMText
 10
342.0527933949769
 20
134.0992182684301
 30
0
 40
4
 41
5.333333333333581
 71
    5
 72
    1
  1
45
  7
standard
210
0
220
0
230
1
 50
90
 73
    2
 44
1
  0
SOLID
  5
181
100
AcDbEntity
  8
measures
  6
ByBlock
 62
    0
370
   -2
100
AcDbTrace
 10
345.0527933949769
 20
156.59921826843
 30
0
 11
345.4690780527498
 21
154.09921826843
 31
0
 12
344.6365087372041
 22
154.09921826843
 32
0
 13
344.6365087372041
 23
154.09921826843
 33
0
  0
SOLID
  5
182
100
AcDbEntity
  8
measures
  6
ByBlock
 62
    0
370
   -2
100
AcDbTrace
 10
345.0527933949769
 20
111.5992182684301
 30
0
 11
344.6365087372041
 21
114.0992182684301
 31
0
 12
345.4690780527498
 22
114.0992182684301
 32
0
 13
345.4690780527498
 23
114.0992182684301
 33
0
  0
LINE
  5
183
100
AcDbEntity
  8
measures
  6
ByBlock
 62
    0
370
   -2
100
AcDbLine
 10
334.8608490598037
 20
156.59921826843
 11
346.3027933949769
 21
156.59921826843
  0
LINE
  5
184
100
AcDbEntity
  8
measures
  6
ByBlock
 62
    0
370
   -2
100
AcDbLine
 10
334.8608490598037
 20
111.5992182684301
 11
346.3027933949769
 21
111.5992182684301
  0
ENDBLK
  5
B5
330
B3
100
AcDbEntity
  8
0
100
AcDbBlockEnd
  0
BLOCK
  5
B7
330
B6
100
AcDbEntity
  8
0
100
AcDbBlockBegin
  2
*D20
 70
    1
 10
0
 20
0
  3
*D20
  1

  0
LINE
  5
185
100
AcDbEntity
  8
measures
  6
ByBlock
 62
    0
370
   -2
100
AcDbLine
 10
125.620414062363
 20
198.266583852136
 11
80.6204140623625
 21
198.2665838521361
  0
MTEXT
  5
186
100
AcDbEntity
  8
measures
  6
CONTINUOUS
 62
    0
370
   -2
100
AcDbMText
 10
103.1204140623627
 20
201.2665838521361
 30
0
 40
4
 41
5.333333333333581
 71
    5
 72
    1
  1
45
  7
standard
210
0
220
0
230
1
 50
359.9999999999999
 73
    2
 44
1
  0
SOLID
  5
187
100
AcDbEntity
  8
measures
  6
ByBlock
 62
    0
370
   -2
100
AcDbTrace
 10
125.620414062363
 20
198.266583852136
 30
0
 11
123.120414062363
 21
197.8502991943632
 31
0
 12
123.120414062363
 22
198.6828685099089
 32
0
 13
123.120414062363
 23
198.6828685099089
 33
0
  0
SOLID
  5
188
100
AcDbEntity
  8
measures
  6
ByBlock
 62
    0
370
   -2
100
AcDbTrace
 10
80.6204140623625
 20
198.2665838521361
 30
0
 11
83.1204140623625
 21
198.682868509909
 31
0
 12
83.1204140623625
 22
197.8502991943633
 32
0
 13
83.1204140623625
 23
197.8502991943633
 33
0
  0
LINE
  5
189
100
AcDbEntity
  8
measures
  6
ByBlock
 62
    0
370
   -2
100
AcDbLine
 10
125.620414062363
 20
210.9156187799582
 11
125.620414062363
 21
197.016583852136
  0
LINE
  5
18A
100
AcDbEntity
  8
measures
  6
ByBlock
 62
    0
370
   -2
100
AcDbLine
 10
80.62041406236253
 20
210.9156187799583
 11
80.6204140623625
 21
197.0165838521361
  0
ENDBLK
  5
B8
330
B6
100
AcDbEntity
  8
0
100
AcDbBlockEnd
  0
ENDSEC
  0
SECTION
  2
ENTITIES
  0
LINE
  5
18B
100
AcDbEntity
  8
builder
  6
ByLayer
 62
  256
370
   -1
100
AcDbLine
 10
254.2358490598016
 20
243.7573998027951
 11
254.2358490598016
 21
468.9240047867477
  0
LINE
  5
18C
100
AcDbEntity
  8
builder
  6
ByLayer
 62
  256
370
   -1
100
AcDbLine
 10
334.2358490598037
 20
440.9992619804291
 11
174.235849059801
 21
440.9992619804474
  0
LINE
  5
18D
100
AcDbEntity
  8
builder
  6
ByLayer
 62
  256
370
   -1
100
AcDbLine
 10
189.235849059802
 20
533.9992619804291
 11
319.2358490598018
 21
533.9992619804351
  0
LINE
  5
18E
100
AcDbEntity
  8
builder
  6
ByLayer
 62
  256
370
   -1
100
AcDbLine
 10
319.2358490598018
 20
533.9992619804351
 11
319.2358591597225
 21
533.9992619804352
  0
LINE
  5
18F
100
AcDbEntity
  8
builder
  6
ByLayer
 62
  256
370
   -1
100
AcDbLine
 10
320.7358490597992
 20
532.499261980436
 11
335.7358490598014
 21
442.4992619804359
  0
LINE
  5
190
100
AcDbEntity
  8
builder
  6
ByLayer
 62
  256
370
   -1
100
AcDbLine
 10
187.7358490598521
 20
532.4992619804359
 11
172.7358490598141
 21
442.4992619804358
  0
LINE
  5
191
100
AcDbEntity
  8
0
  6
ByLayer
 62
  256
370
   -1
100
AcDbLine
 10
172.4858490598155
 20
440.9992619804476
 11
335.9858490598025
 21
440.9992619804289
  0
LINE
  5
192
100
AcDbEntity
  8
0
  6
ByLayer
 62
  256
370
   -1
100
AcDbLine
 10
335.9858490598025
 20
440.9992619804289
 11
320.4858490586269
 21
533.9992619874703
  0
LINE
  5
193
100
AcDbEntity
  8
0
  6
ByLayer
 62
  256
370
   -1
100
AcDbLine
 10
320.4858490586269
 20
533.9992619874703
 11
187.9858490598516
 21
533.9992619804291
  0
LINE
  5
194
100
AcDbEntity
  8
0
  6
ByLayer
 62
  256
370
   -1
100
AcDbLine
 10
187.9858490598516
 20
533.9992619804291
 11
172.4858490598155
 21
440.9992619804476
  0
DIMENSION
  5
195
100
AcDbEntity
  8
measures
  6
ByLayer
 62
  256
370
   -1
100
AcDbDimension
  2
*D1
 10
320.4858490586269
 20
546.2650331716425
 30
0
 11
254.2358490592393
 21
549.2650331716425
 31
0
 70
   32
 71
    5
 72
    0
  3
Standard
 53
0
210
0
220
0
230
1
100
AcDbAlignedDimension
 13
187.9858490598516
 23
533.9992619804291
 33
0
 14
320.4858490586269
 24
533.9992619874704
 34
0
100
AcDbRotatedDimension
  0
LINE
  5
196
100
AcDbEntity
  8
builder
  6
ByLayer
 62
  256
370
   -1
100
AcDbLine
 10
187.9858490598516
 20
533.9992619804291
 11
172.4858490598155
 21
440.9992619804476
  0
DIMENSION
  5
197
100
AcDbEntity
  8
measures
  6
ByLayer
 62
  256
370
   -1
100
AcDbDimension
  2
*D2
 10
335.9858490598025
 20
417.1319811570487
 30
0
 11
254.235849059809
 21
420.1319811570487
 31
0
 70
   32
 71
    5
 72
    0
  3
Standard
 53
0
210
0
220
0
230
1
100
AcDbAlignedDimension
 13
172.4858490598155
 23
440.9992619804476
 33
0
 14
335.9858490598025
 24
440.9992619804289
 34
0
100
AcDbRotatedDimension
  0
DIMENSION
  5
198
100
AcDbEntity
  8
measures
  6
ByLayer
 62
  256
370
   -1
100
AcDbDimension
  2
*D3
 10
363.0588032193709
 20
533.9992619874704
 30
0
 11
360.0588032193709
 21
487.4992619839496
 31
0
 70
   32
 71
    5
 72
    0
  3
Standard
 53
0
210
0
220
0
230
1
100
AcDbAlignedDimension
 13
335.9858490598025
 23
440.9992619804289
 33
0
 14
320.4858490586268
 24
533.9992619874704
 34
0
 50
90
100
AcDbRotatedDimension
  0
LINE
  5
199
100
AcDbEntity
  8
builder
  6
ByLayer
 62
  256
370
   -1
100
AcDbLine
 10
165.4895016174954
 20
343.728614762019
 11
331.775751617615
 21
343.728614762019
  0
LINE
  5
19A
100
AcDbEntity
  8
builder
  6
ByLayer
 62
  256
370
   -1
100
AcDbLine
 10
165.4895016174954
 20
388.7286147620185
 11
331.775751617615
 21
388.7286147620185
  0
DIMENSION
  5
19B
100
AcDbEntity
  8
measures
  6
ByLayer
 62
  256
370
   -1
100
AcDbDimension
  2
*D4
 10
345.0552190758492
 20
388.7286147620185
 30
0
 11
342.0552190758492
 21
366.2286147620188
 31
0
 70
   32
 71
    5
 72
    0
  3
Standard
 53
0
210
0
220
0
230
1
100
AcDbAlignedDimension
 13
319.2358490598018
 23
343.728614762019
 33
0
 14
319.2358490598018
 24
388.7286147620185
 34
0
 50
90
100
AcDbRotatedDimension
  0
LINE
  5
19C
100
AcDbEntity
  8
builder
  6
ByLayer
 62
  256
370
   -1
100
AcDbLine
 10
274.6286464558016
 20
692.2495820726448
 11
274.6286464558027
 21
602.2495820726448
  0
LINE
  5
19D
100
AcDbEntity
  8
builder
  6
ByLayer
 62
  256
370
   -1
100
AcDbLine
 10
234.628646455805
 20
692.2495820726448
 11
234.628646455804
 21
602.2495820726448
  0
LINE
  5
19E
100
AcDbEntity
  8
builder
  6
ByLayer
 62
  256
370
   -1
100
AcDbLine
 10
189.235849059802
 20
693.749582072638
 11
319.2358490598018
 21
693.749582072644
  0
LINE
  5
19F
100
AcDbEntity
  8
builder
  6
ByLayer
 62
  256
370
   -1
100
AcDbLine
 10
319.2358490598018
 20
693.749582072644
 11
319.2358591597225
 21
693.749582072644
  0
LINE
  5
1A0
100
AcDbEntity
  8
builder
  6
ByLayer
 62
  256
370
   -1
100
AcDbLine
 10
320.7358490597992
 20
692.2495820726449
 11
335.7358490598014
 21
602.2495820726448
  0
LINE
  5
1A1
100
AcDbEntity
  8
0
  6
ByLayer
 62
  256
370
   -1
100
AcDbLine
 10
320.4858490586269
 20
693.7495820796792
 11
187.9858490598516
 21
693.749582072638
  0
DIMENSION
  5
1A2
100
AcDbEntity
  8
measures
  6
ByLayer
 62
  256
370
   -1
100
AcDbDimension
  2
*D5
 10
320.4858490586269
 20
706.0153532638512
 30
0
 11
254.2358490592393
 21
709.0153532638512
 31
0
 70
   32
 71
    5
 72
    0
  3
Standard
 53
0
210
0
220
0
230
1
100
AcDbAlignedDimension
 13
187.9858490598516
 23
693.749582072638
 33
0
 14
320.4858490586269
 24
693.7495820796792
 34
0
100
AcDbRotatedDimension
  0
LINE
  5
1A3
100
AcDbEntity
  8
builder
  6
ByLayer
 62
  256
370
   -1
100
AcDbLine
 10
254.2358490598016
 20
622.7495820726482
 11
163.4299635196037
 21
622.7495820726482
  0
LINE
  5
1A4
100
AcDbEntity
  8
builder
  6
ByLayer
 62
  256
370
   -1
100
AcDbLine
 10
254.2358490598016
 20
612.2495820726489
 11
322.3955016175767
 21
612.2495820726489
  0
LINE
  5
1A5
100
AcDbEntity
  8
builder
  6
ByLayer
 62
  256
370
   -1
100
AcDbLine
 10
254.2358447063191
 20
612.2495820726489
 11
187.0925016174938
 21
612.2495820726489
  0
DIMENSION
  5
1A6
100
AcDbEntity
  8
measures
  6
ByLayer
 62
  256
370
   -1
100
AcDbDimension
  2
*D6
 10
335.9858490598025
 20
576.8823012492576
 30
0
 11
254.235849059809
 21
579.8823012492576
 31
0
 70
   32
 71
    5
 72
    0
  3
Standard
 53
0
210
0
220
0
230
1
100
AcDbAlignedDimension
 13
172.4858490598155
 23
600.7495820726565
 33
0
 14
335.9858490598025
 24
600.7495820726377
 34
0
100
AcDbRotatedDimension
  0
LINE
  5
1A7
100
AcDbEntity
  8
builder
  6
ByLayer
 62
  256
370
   -1
100
AcDbLine
 10
335.9858490598025
 20
600.7495820726377
 11
310.3191823928556
 21
622.7495820726482
  0
LINE
  5
1A8
100
AcDbEntity
  8
builder
  6
ByLayer
 62
  256
370
   -1
100
AcDbLine
 10
310.3191823928556
 20
622.7495820726482
 11
332.3191823931336
 21
622.7495820726482
  0
LINE
  5
1A9
100
AcDbEntity
  8
builder
  6
ByLayer
 62
  256
370
   -1
100
AcDbLine
 10
332.3191823931336
 20
622.7495820726482
 11
313.9858490598008
 21
600.7495820726404
  0
CIRCLE
  5
1AA
100
AcDbEntity
  8
builder
  6
ByLayer
 62
  256
370
   -1
100
AcDbCircle
 10
317.9117484165433
 20
616.2416683381267
 40
10
  0
LINE
  5
1AB
100
AcDbEntity
  8
builder
  6
ByLayer
 62
  256
370
   -1
100
AcDbLine
 10
172.4858490598155
 20
600.7495820726565
 11
198.1525157264908
 21
622.7495820726482
  0
LINE
  5
1AC
100
AcDbEntity
  8
builder
  6
ByLayer
 62
  256
370
   -1
100
AcDbLine
 10
198.1525157264908
 20
622.7495820726482
 11
194.485849059816
 21
600.749582072654
  0
LINE
  5
1AD
100
AcDbEntity
  8
builder
  6
ByLayer
 62
  256
370
   -1
100
AcDbLine
 10
194.485849059816
 20
600.749582072654
 11
176.15251572649
 21
622.7495820726482
  0
CIRCLE
  5
1AE
100
AcDbEntity
  8
builder
  6
ByLayer
 62
  256
370
   -1
100
AcDbCircle
 10
190.5599497028361
 20
616.2416683380917
 40
10
  0
CIRCLE
  5
1AF
100
AcDbEntity
  8
0
  6
ByLayer
 62
  256
370
   -1
100
AcDbCircle
 10
274.2358490597999
 20
631.7495820726442
 40
2.5
  0
CIRCLE
  5
1B0
100
AcDbEntity
  8
0
  6
ByLayer
 62
  256
370
   -1
100
AcDbCircle
 10
274.2358490597995
 20
658.749582072643
 40
2.5
  0
CIRCLE
  5
1B1
100
AcDbEntity
  8
0
  6
ByLayer
 62
  256
370
   -1
100
AcDbCircle
 10
234.2358490598021
 20
658.7495820726452
 40
2.5
  0
CIRCLE
  5
1B2
100
AcDbEntity
  8
0
  6
ByLayer
 62
  256
370
   -1
100
AcDbCircle
 10
234.2358490598018
 20
631.7495820726446
 40
2.5
  0
LINE
  5
1B3
100
AcDbEntity
  8
builder
  6
ByLayer
 62
  256
370
   -1
100
AcDbLine
 10
234.2358490598018
 20
631.7495820726446
 11
274.2358490597995
 21
658.749582072643
  0
LINE
  5
1B4
100
AcDbEntity
  8
builder
  6
ByLayer
 62
  256
370
   -1
100
AcDbLine
 10
274.2358490597999
 20
631.7495820726442
 11
234.2358490598021
 21
658.7495820726452
  0
DIMENSION
  5
1B5
100
AcDbEntity
  8
measures
  6
ByLayer
 62
  256
370
   -1
100
AcDbDimension
  2
*D7
 10
352.1909166047181
 20
631.7495820726442
 30
0
 11
349.1909166047181
 21
616.2495820726409
 31
0
 70
   32
 71
    5
 72
    0
  3
Standard
 53
0
210
0
220
0
230
1
100
AcDbAlignedDimension
 13
335.9858490598026
 23
600.7495820726376
 33
0
 14
274.2358490597999
 24
631.7495820726442
 34
0
 50
90
100
AcDbRotatedDimension
  0
DIMENSION
  5
1B6
100
AcDbEntity
  8
measures
  6
ByLayer
 62
  256
370
   -1
100
AcDbDimension
  2
*D8
 10
351.9787297726822
 20
658.749582072643
 30
0
 11
348.9787297726822
 21
645.2495820726435
 31
0
 70
   32
 71
    5
 72
    0
  3
Standard
 53
0
210
0
220
0
230
1
100
AcDbAlignedDimension
 13
274.2358490597999
 23
631.7495820726442
 33
0
 14
274.2358490597995
 24
658.749582072643
 34
0
 50
90
100
AcDbRotatedDimension
  0
DIMENSION
  5
1B7
100
AcDbEntity
  8
measures
  6
ByLayer
 62
  256
370
   -1
100
AcDbDimension
  2
*D9
 10
351.7853464226791
 20
693.7495820796792
 30
0
 11
348.7853464226791
 21
676.249582076161
 31
0
 70
   32
 71
    5
 72
    0
  3
Standard
 53
0
210
0
220
0
230
1
100
AcDbAlignedDimension
 13
274.2358490597995
 23
658.749582072643
 33
0
 14
320.4858490586269
 24
693.7495820796792
 34
0
 50
90
100
AcDbRotatedDimension
  0
DIMENSION
  5
1B8
100
AcDbEntity
  8
measures
  6
ByLayer
 62
  256
370
   -1
100
AcDbDimension
  2
*D10
 10
234.2358490598021
 20
700.1574300657823
 30
0
 11
254.2358490598008
 21
703.1574300657823
 31
0
 70
   32
 71
    5
 72
    0
  3
Standard
 53
0
210
0
220
0
230
1
100
AcDbAlignedDimension
 13
274.2358490597995
 23
658.749582072643
 33
0
 14
234.2358490598021
 24
658.7495820726452
 34
0
100
AcDbRotatedDimension
  0
LINE
  5
1B9
100
AcDbEntity
  8
builder
  6
ByLayer
 62
  256
370
   -1
100
AcDbLine
 10
327.0784150832679
 20
627.2416683382005
 11
308.7450817499351
 21
605.2416683381927
  0
LINE
  5
1BA
100
AcDbEntity
  8
builder
  6
ByLayer
 62
  256
370
   -1
100
AcDbLine
 10
329.5840050631556
 20
593.0673692766585
 11
303.9173383962087
 21
615.067369276669
  0
LINE
  5
1BB
100
AcDbEntity
  8
builder
  6
ByLayer
 62
  256
370
   -1
100
AcDbLine
 10
343.5784150834934
 20
607.257495807164
 11
317.9117484165466
 21
629.2574958071745
  0
CIRCLE
  5
1BC
100
AcDbEntity
  8
builder
  6
ByLayer
 62
  256
370
   -1
100
AcDbCircle
 10
317.912
 20
616.242
 40
10
  0
LINE
  5
1BD
100
AcDbEntity
  8
0
  6
ByLayer
 62
  256
370
   -1
100
AcDbLine
 10
320.621423467751
 20
600.7495820726394
 11
311.5101706402863
 21
608.5597750066154
  0
LINE
  5
1BE
100
AcDbEntity
  8
0
  6
ByLayer
 62
  256
370
   -1
100
AcDbLine
 10
324.3138586335417
 20
623.9242005985277
 11
333.4549937186023
 21
615.9347141198373
  0
ARC
  5
1BF
100
AcDbEntity
  8
0
  6
ByLayer
 62
  256
370
   -1
100
AcDbCircle
 10
317.9120190672606
 20
616.2419841106192
 40
9.999999999979606
100
AcDbArc
 50
50.19446195151473
 51
230.1943958651733
  0
LINE
  5
1C0
100
AcDbEntity
  8
builder
  6
ByLayer
 62
  256
370
   -1
100
AcDbLine
 10
199.7266163694997
 20
605.2416683380937
 11
181.3932830361737
 21
627.2416683380879
  0
LINE
  5
1C1
100
AcDbEntity
  8
builder
  6
ByLayer
 62
  256
370
   -1
100
AcDbLine
 10
348.8191823931771
 20
611.7495820726037
 11
323.1525157262303
 21
633.7495820726142
  0
CIRCLE
  5
1C2
100
AcDbEntity
  8
builder
  6
ByLayer
 62
  256
370
   -1
100
AcDbCircle
 10
190.56
 20
616.242
 40
10
  0
LINE
  5
1C3
100
AcDbEntity
  8
builder
  6
ByLayer
 62
  256
370
   -1
100
AcDbLine
 10
166.0840050631714
 20
608.4317948686304
 11
191.7506717298467
 21
630.4317948686221
  0
LINE
  5
1C4
100
AcDbEntity
  8
builder
  6
ByLayer
 62
  256
370
   -1
100
AcDbLine
 10
177.5573313844918
 20
592.1309936133802
 11
203.2239980511671
 21
614.1309936133719
  0
LINE
  5
1C5
100
AcDbEntity
  8
0
  6
ByLayer
 62
  256
370
   -1
100
AcDbLine
 10
187.6123512536529
 20
600.7495820726548
 11
196.96179369948
 21
608.5594555421178
  0
LINE
  5
1C6
100
AcDbEntity
  8
0
  6
ByLayer
 62
  256
370
   -1
100
AcDbLine
 10
184.158105706192
 20
623.9238811340656
 11
175.0465866584798
 21
616.1140076646035
  0
ARC
  5
1C7
100
AcDbEntity
  8
0
  6
ByLayer
 62
  256
370
   -1
100
AcDbCircle
 10
190.5597917606241
 20
616.2416815913405
 40
10.00011129419776
100
AcDbArc
 50
309.8062176999068
 51
129.8049245163275
  0
LINE
  5
1C8
100
AcDbEntity
  8
0
  6
ByLayer
 62
  256
370
   -1
100
AcDbLine
 10
187.6123512536529
 20
600.7495820726548
 11
320.6214234681433
 21
600.7495820723032
  0
LINE
  5
1C9
100
AcDbEntity
  8
0
  6
ByLayer
 62
  256
370
   -1
100
AcDbLine
 10
175.0465866584798
 20
616.1140076646035
 11
187.9858490598516
 21
693.749582072638
  0
LINE
  5
1CA
100
AcDbEntity
  8
0
  6
ByLayer
 62
  256
370
   -1
100
AcDbLine
 10
333.4549937186023
 20
615.9347141198373
 11
320.4858490586269
 21
693.7495820796792
  0
LINE
  5
1CB
100
AcDbEntity
  8
builder
  6
ByLayer
 62
  256
370
   -1
100
AcDbLine
 10
187.1638541233225
 20
529.0672923612669
 11
321.3078439951532
 21
529.0672923683119
  0
LINE
  5
1CC
100
AcDbEntity
  8
builder
  6
ByLayer
 62
  256
370
   -1
100
AcDbLine
 10
315.4858490586353
 20
533.9992619872046
 11
330.9858490598141
 21
440.9992619804294
  0
LINE
  5
1CD
100
AcDbEntity
  8
builder
  6
ByLayer
 62
  256
370
   -1
100
AcDbLine
 10
335.1638541232757
 20
445.9312315995892
 11
173.3078439963438
 21
445.9312315996057
  0
LINE
  5
1CE
100
AcDbEntity
  8
builder
  6
ByLayer
 62
  256
370
   -1
100
AcDbLine
 10
177.4858490598236
 20
440.999261980447
 11
192.9858490598493
 21
533.9992619806949
  0
LINE
  5
1CF
100
AcDbEntity
  8
builder
  6
ByLayer
 62
  256
370
   -1
100
AcDbLine
 10
325.9858490597973
 20
440.99926198043
 11
310.4858490597719
 21
533.9992619869389
  0
LINE
  5
1D0
100
AcDbEntity
  8
builder
  6
ByLayer
 62
  256
370
   -1
100
AcDbLine
 10
182.4858490598139
 20
440.9992619804465
 11
197.9858490598477
 21
533.9992619809605
  0
LINE
  5
1D1
100
AcDbEntity
  8
builder
  6
ByLayer
 62
  256
370
   -1
100
AcDbLine
 10
254.2358490598016
 20
524.0672923648024
 11
330.4409528361322
 21
524.0672923648024
  0
LINE
  5
1D2
100
AcDbEntity
  8
builder
  6
ByLayer
 62
  256
370
   -1
100
AcDbLine
 10
254.2358496034401
 20
524.0672923648024
 11
181.6004150036507
 21
524.0672923648024
  0
LINE
  5
1D3
100
AcDbEntity
  8
builder
  6
ByLayer
 62
  256
370
   -1
100
AcDbLine
 10
254.2358490598016
 20
450.9312315996012
 11
338.6334651330891
 21
450.9312315996012
  0
LINE
  5
1D4
100
AcDbEntity
  8
builder
  6
ByLayer
 62
  256
370
   -1
100
AcDbLine
 10
254.2358490598016
 20
450.9312315996011
 11
168.8915273114804
 21
450.9312315996011
  0
LINE
  5
1D5
100
AcDbEntity
  8
0
  6
ByLayer
 62
  256
370
   -1
100
AcDbLine
 10
196.3305207904935
 20
524.0672923648024
 11
312.1411773300148
 21
524.0672923648024
  0
LINE
  5
1D6
100
AcDbEntity
  8
0
  6
ByLayer
 62
  256
370
   -1
100
AcDbLine
 10
312.1411773300148
 20
524.0672923648024
 11
324.3191823932832
 21
450.9992619801981
  0
LINE
  5
1D7
100
AcDbEntity
  8
0
  6
ByLayer
 62
  256
370
   -1
100
AcDbLine
 10
324.3191823932832
 20
450.9992619801981
 11
184.1411773296674
 21
450.9312315996011
  0
LINE
  5
1D8
100
AcDbEntity
  8
0
  6
ByLayer
 62
  256
370
   -1
100
AcDbLine
 10
184.1411773296674
 20
450.9312315996011
 11
196.3305207904935
 21
524.0672923648024
  0
LINE
  5
1D9
100
AcDbEntity
  8
builder
  6
ByLayer
 62
  256
370
   -1
100
AcDbLine
 10
254.2358490531432
 20
648.7476279843281
 11
254.2358490531432
 21
457.0740000004998
  0
CIRCLE
  5
1DA
100
AcDbEntity
  8
0
  6
ByLayer
 62
  256
370
   -1
100
AcDbCircle
 10
283.1885077929151
 20
529.06729236631
 40
2.2
  0
CIRCLE
  5
1DB
100
AcDbEntity
  8
0
  6
ByLayer
 62
  256
370
   -1
100
AcDbCircle
 10
254.2358490531432
 20
529.0672923647894
 40
2.2
  0
CIRCLE
  5
1DC
100
AcDbEntity
  8
0
  6
ByLayer
 62
  256
370
   -1
100
AcDbCircle
 10
225.2831903266882
 20
529.0672923632688
 40
2.2
  0
CIRCLE
  5
1DD
100
AcDbEntity
  8
0
  6
ByLayer
 62
  256
370
   -1
100
AcDbCircle
 10
219.4534137251828
 20
445.9312315996011
 40
2.2
  0
CIRCLE
  5
1DE
100
AcDbEntity
  8
0
  6
ByLayer
 62
  256
370
   -1
100
AcDbCircle
 10
254.2358490598016
 20
445.9312315995975
 40
2.2
  0
CIRCLE
  5
1DF
100
AcDbEntity
  8
0
  6
ByLayer
 62
  256
370
   -1
100
AcDbCircle
 10
289.0182843944205
 20
445.931231599594
 40
2.2
  0
CIRCLE
  5
1E0
100
AcDbEntity
  8
0
  6
ByLayer
 62
  256
370
   -1
100
AcDbCircle
 10
189.8097568524827
 20
514.9427087364761
 40
2.2
  0
CIRCLE
  5
1E1
100
AcDbEntity
  8
0
  6
ByLayer
 62
  256
370
   -1
100
AcDbCircle
 10
186.1929791317683
 20
493.2420424121676
 40
2.2
  0
CIRCLE
  5
1E2
100
AcDbEntity
  8
0
  6
ByLayer
 62
  256
370
   -1
100
AcDbCircle
 10
182.5762014110539
 20
471.5413760878593
 40
2.2
  0
CIRCLE
  5
1E3
100
AcDbEntity
  8
0
  6
ByLayer
 62
  256
370
   -1
100
AcDbCircle
 10
325.8898275101986
 20
471.5753912780243
 40
2.2
  0
CIRCLE
  5
1E4
100
AcDbEntity
  8
0
  6
ByLayer
 62
  256
370
   -1
100
AcDbCircle
 10
322.2730497894695
 20
493.2760576023297
 40
2.2
  0
CIRCLE
  5
1E5
100
AcDbEntity
  8
0
  6
ByLayer
 62
  256
370
   -1
100
AcDbCircle
 10
318.6562720687403
 20
514.976723926635
 40
2.2
  0
CIRCLE
  5
1E6
100
AcDbEntity
  8
0
  6
ByLayer
 62
  256
370
   -1
100
AcDbCircle
 10
283.1885077862567
 20
688.8176124583506
 40
2.2
  0
CIRCLE
  5
1E7
100
AcDbEntity
  8
0
  6
ByLayer
 62
  256
370
   -1
100
AcDbCircle
 10
254.2358490464848
 20
688.8176124568299
 40
2.2
  0
CIRCLE
  5
1E8
100
AcDbEntity
  8
0
  6
ByLayer
 62
  256
370
   -1
100
AcDbCircle
 10
225.2831903200298
 20
688.8176124553095
 40
2.2
  0
CIRCLE
  5
1E9
100
AcDbEntity
  8
0
  6
ByLayer
 62
  256
370
   -1
100
AcDbCircle
 10
219.4534137185244
 20
605.6815516916416
 40
2.2
  0
CIRCLE
  5
1EA
100
AcDbEntity
  8
0
  6
ByLayer
 62
  256
370
   -1
100
AcDbCircle
 10
254.2358490531432
 20
605.6815516916381
 40
2.2
  0
CIRCLE
  5
1EB
100
AcDbEntity
  8
0
  6
ByLayer
 62
  256
370
   -1
100
AcDbCircle
 10
289.0182843877621
 20
605.6815516916345
 40
2.2
  0
CIRCLE
  5
1EC
100
AcDbEntity
  8
0
  6
ByLayer
 62
  256
370
   -1
100
AcDbCircle
 10
189.8097568458243
 20
674.6930288285166
 40
2.2
  0
CIRCLE
  5
1ED
100
AcDbEntity
  8
0
  6
ByLayer
 62
  256
370
   -1
100
AcDbCircle
 10
186.1929791251099
 20
652.9923625042081
 40
2.2
  0
CIRCLE
  5
1EE
100
AcDbEntity
  8
0
  6
ByLayer
 62
  256
370
   -1
100
AcDbCircle
 10
182.5762014043954
 20
631.2916961798999
 40
2.2
  0
CIRCLE
  5
1EF
100
AcDbEntity
  8
0
  6
ByLayer
 62
  256
370
   -1
100
AcDbCircle
 10
325.8898275035402
 20
631.3257113700648
 40
2.2
  0
CIRCLE
  5
1F0
100
AcDbEntity
  8
0
  6
ByLayer
 62
  256
370
   -1
100
AcDbCircle
 10
322.2730497828111
 20
653.0263776943702
 40
2.2
  0
CIRCLE
  5
1F1
100
AcDbEntity
  8
0
  6
ByLayer
 62
  256
370
   -1
100
AcDbCircle
 10
318.6562720620819
 20
674.7270440186755
 40
2.2
  0
CIRCLE
  5
1F2
100
AcDbEntity
  8
builder
  6
ByLayer
 62
  256
370
   -1
100
AcDbCircle
 10
325.8898275035402
 20
631.3257113700648
 40
4
  0
CIRCLE
  5
1F3
100
AcDbEntity
  8
builder
  6
ByLayer
 62
  256
370
   -1
100
AcDbCircle
 10
322.2730497828111
 20
653.0263776943702
 40
4
  0
CIRCLE
  5
1F4
100
AcDbEntity
  8
builder
  6
ByLayer
 62
  256
370
   -1
100
AcDbCircle
 10
318.6562720620819
 20
674.7270440186755
 40
4
  0
CIRCLE
  5
1F5
100
AcDbEntity
  8
builder
  6
ByLayer
 62
  256
370
   -1
100
AcDbCircle
 10
283.1885077862567
 20
688.8176124583506
 40
4
  0
CIRCLE
  5
1F6
100
AcDbEntity
  8
builder
  6
ByLayer
 62
  256
370
   -1
100
AcDbCircle
 10
254.2358490464848
 20
688.8176124568299
 40
4
  0
CIRCLE
  5
1F7
100
AcDbEntity
  8
builder
  6
ByLayer
 62
  256
370
   -1
100
AcDbCircle
 10
225.2831903200298
 20
688.8176124553095
 40
4
  0
CIRCLE
  5
1F8
100
AcDbEntity
  8
builder
  6
ByLayer
 62
  256
370
   -1
100
AcDbCircle
 10
189.8097568458243
 20
674.6930288285166
 40
4
  0
CIRCLE
  5
1F9
100
AcDbEntity
  8
builder
  6
ByLayer
 62
  256
370
   -1
100
AcDbCircle
 10
186.1929791251099
 20
652.9923625042081
 40
4
  0
CIRCLE
  5
1FA
100
AcDbEntity
  8
builder
  6
ByLayer
 62
  256
370
   -1
100
AcDbCircle
 10
182.5762014043954
 20
631.2916961798999
 40
4
  0
CIRCLE
  5
1FB
100
AcDbEntity
  8
builder
  6
ByLayer
 62
  256
370
   -1
100
AcDbCircle
 10
219.4534137185244
 20
605.6815516916416
 40
4
  0
CIRCLE
  5
1FC
100
AcDbEntity
  8
builder
  6
ByLayer
 62
  256
370
   -1
100
AcDbCircle
 10
254.2358490531432
 20
605.6815516916381
 40
4
  0
CIRCLE
  5
1FD
100
AcDbEntity
  8
builder
  6
ByLayer
 62
  256
370
   -1
100
AcDbCircle
 10
289.0182843877621
 20
605.6815516916345
 40
4
  0
LINE
  5
1FE
100
AcDbEntity
  8
builder
  6
ByLayer
 62
  256
370
   -1
100
AcDbLine
 10
339.2579892450029
 20
507.2586121504756
 11
301.671332613207
 21
500.9941693784895
  0
LINE
  5
1FF
100
AcDbEntity
  8
builder
  6
ByLayer
 62
  256
370
   -1
100
AcDbLine
 10
342.8747669657321
 20
485.55794582617
 11
305.2881103339361
 21
479.2935030541839
  0
LINE
  5
200
100
AcDbEntity
  8
builder
  6
ByLayer
 62
  256
370
   -1
100
AcDbLine
 10
206.794696308026
 20
500.9601541883414
 11
169.2080396762249
 21
507.2245969603019
  0
LINE
  5
201
100
AcDbEntity
  8
builder
  6
ByLayer
 62
  256
370
   -1
100
AcDbLine
 10
203.1779185873116
 20
479.2594878640332
 11
165.5912619555106
 21
485.5239306359937
  0
LINE
  5
202
100
AcDbEntity
  8
builder
  6
ByLayer
 62
  256
370
   -1
100
AcDbLine
 10
80.62041406236241
 20
233.6311343997519
 11
80.62041406236251
 21
338.9656147620105
  0
LINE
  5
203
100
AcDbEntity
  8
builder
  6
CONTINUOUS
 62
  256
370
   -1
100
AcDbLine
 10
329.2358490598019
 20
211.5406187799582
 11
489.5444077819965
 21
211.5406187799582
  0
LINE
  5
204
100
AcDbEntity
  8
builder
  6
ByLayer
 62
  256
370
   -1
100
AcDbLine
 10
179.2358490598019
 20
211.540618779958
 11
127.0648233632187
 21
211.540618779958
  0
LINE
  5
205
100
AcDbEntity
  8
builder
  6
ByLayer
 62
  256
370
   -1
100
AcDbLine
 10
174.235849059801
 20
211.540618779958
 11
174.235849059801
 21
145.6873491420755
  0
LINE
  5
206
100
AcDbEntity
  8
builder
  6
ByLayer
 62
  256
370
   -1
100
AcDbLine
 10
334.2358490598037
 20
211.5406187799582
 11
334.2358490598037
 21
144.2660991420751
  0
LINE
  5
207
100
AcDbEntity
  8
builder
  6
ByLayer
 62
  256
370
   -1
100
AcDbLine
 10
380.5211187578205
 20
211.5406187799582
 11
380.5211187578205
 21
316.1250991422162
  0
LINE
  5
208
100
AcDbEntity
  8
builder
  6
ByLayer
 62
  256
370
   -1
100
AcDbLine
 10
425.5211187578211
 20
211.5406187799582
 11
425.5211187578211
 21
316.8750991422167
  0
LINE
  5
209
100
AcDbEntity
  8
0
  6
ByLayer
 62
  256
370
   -1
100
AcDbLine
 10
425.5211187578211
 20
211.5406187799582
 11
380.5211187578205
 21
211.5406187799582
  0
LINE
  5
20A
100
AcDbEntity
  8
0
  6
ByLayer
 62
  256
370
   -1
100
AcDbLine
 10
425.5211187578211
 20
211.5406187799582
 11
425.5211187578211
 21
302.8206187799579
  0
LINE
  5
20B
100
AcDbEntity
  8
builder
  6
ByLayer
 62
  256
370
   -1
100
AcDbLine
 10
380.5211187578205
 20
236.5406187799582
 11
133.3813702483724
 21
236.5406187799583
  0
LINE
  5
20C
100
AcDbEntity
  8
0
  6
ByLayer
 62
  256
370
   -1
100
AcDbLine
 10
370.5211187578222
 20
236.5406187799583
 11
380.5211187578205
 21
211.5406187799582
  0
LINE
  5
20D
100
AcDbEntity
  8
0
  6
ByLayer
 62
  256
370
   -1
100
AcDbLine
 10
178.1832174808542
 20
236.5406187799583
 11
330.2884806387501
 21
236.5406187799582
  0
DIMENSION
  5
20E
100
AcDbEntity
  8
measures
  6
ByLayer
 62
  256
370
   -1
100
AcDbDimension
  2
*D11
 10
330.28848063875
 20
226.4351670371606
 30
0
 11
254.2358490598021
 21
229.4351670371606
 31
0
 70
   32
 71
    5
 72
    0
  3
Standard
 53
0
210
0
220
0
230
1
100
AcDbAlignedDimension
 13
178.1832174808542
 23
236.5406187799583
 33
0
 14
330.28848063875
 24
236.5406187799582
 34
0
100
AcDbRotatedDimension
  0
LINE
  5
20F
100
AcDbEntity
  8
builder
  6
ByLayer
 62
  256
370
   -1
100
AcDbLine
 10
334.2358490598037
 20
156.59921826843
 11
153.8352516174276
 21
156.59921826843
  0
LINE
  5
210
100
AcDbEntity
  8
0
  6
ByLayer
 62
  256
370
   -1
100
AcDbLine
 10
334.2358490598037
 20
111.5992182684301
 11
334.2358490598037
 21
156.59921826843
  0
LINE
  5
211
100
AcDbEntity
  8
0
  6
ByLayer
 62
  256
370
   -1
100
AcDbLine
 10
334.2358490598037
 20
156.59921826843
 11
174.235849059801
 21
156.59921826843
  0
LINE
  5
212
100
AcDbEntity
  8
0
  6
ByLayer
 62
  256
370
   -1
100
AcDbLine
 10
174.235849059801
 20
156.59921826843
 11
174.235849059801
 21
111.5992182684299
  0
LINE
  5
213
100
AcDbEntity
  8
0
  6
ByLayer
 62
  256
370
   -1
100
AcDbLine
 10
174.235849059801
 20
111.5992182684299
 11
334.2358490598037
 21
111.5992182684301
  0
DIMENSION
  5
214
100
AcDbEntity
  8
measures
  6
ByLayer
 62
  256
370
   -1
100
AcDbDimension
  2
*D12
 10
334.2358490598037
 20
100.1056600936655
 30
0
 11
254.2358490598023
 21
103.1056600936655
 31
0
 70
   32
 71
    5
 72
    0
  3
Standard
 53
0
210
0
220
0
230
1
100
AcDbAlignedDimension
 13
174.235849059801
 23
111.5992182684299
 33
0
 14
334.2358490598037
 24
111.5992182684301
 34
0
100
AcDbRotatedDimension
  0
DIMENSION
  5
215
100
AcDbEntity
  8
measures
  6
ByLayer
 62
  256
370
   -1
100
AcDbDimension
  2
*D13
 10
345.0527933949769
 20
111.5992182684301
 30
0
 11
342.0527933949769
 21
134.0992182684301
 31
0
 70
   32
 71
    5
 72
    0
  3
Standard
 53
0
210
0
220
0
230
1
100
AcDbAlignedDimension
 13
334.2358490598037
 23
156.59921826843
 33
0
 14
334.2358490598037
 24
111.5992182684301
 34
0
 50
90
100
AcDbRotatedDimension
  0
LINE
  5
216
100
AcDbEntity
  8
builder
  6
ByLayer
 62
  256
370
   -1
100
AcDbLine
 10
149.4446894040481
 20
173.6262755177057
 11
346.2345755909632
 21
173.6262755177057
  0
LINE
  5
217
100
AcDbEntity
  8
builder
  6
ByLayer
 62
  256
370
   -1
100
AcDbLine
 10
334.2358490598037
 20
200.5262755177062
 11
174.235849059801
 21
200.5262755177055
  0
LINE
  5
218
100
AcDbEntity
  8
0
  6
ByLayer
 62
  256
370
   -1
100
AcDbLine
 10
334.2358490598037
 20
173.6262755177057
 11
330.2358490598055
 21
200.5262755177062
  0
LINE
  5
219
100
AcDbEntity
  8
0
  6
ByLayer
 62
  256
370
   -1
100
AcDbLine
 10
330.2358490598055
 20
200.5262755177062
 11
178.2358490598
 21
200.5262755177056
  0
LINE
  5
21A
100
AcDbEntity
  8
0
  6
ByLayer
 62
  256
370
   -1
100
AcDbLine
 10
178.2358490598
 20
200.5262755177056
 11
174.235849059801
 21
173.6262755177057
  0
LINE
  5
21B
100
AcDbEntity
  8
0
  6
ByLayer
 62
  256
370
   -1
100
AcDbLine
 10
174.235849059801
 20
173.6262755177057
 11
334.2358490598037
 21
173.6262755177057
  0
DIMENSION
  5
21C
100
AcDbEntity
  8
measures
  6
ByLayer
 62
  256
370
   -1
100
AcDbDimension
  2
*D14
 10
344.9913868676507
 20
200.5262755177062
 30
0
 11
341.9913868676507
 21
187.0762755177059
 31
0
 70
   32
 71
    5
 72
    0
  3
Standard
 53
0
210
0
220
0
230
1
100
AcDbAlignedDimension
 13
334.2358490598037
 23
173.6262755177057
 33
0
 14
330.2358490598055
 24
200.5262755177062
 34
0
 50
90
100
AcDbRotatedDimension
  0
DIMENSION
  5
21D
100
AcDbEntity
  8
measures
  6
ByLayer
 62
  256
370
   -1
100
AcDbDimension
  2
*D15
 10
330.2358490598055
 20
208.8827295371468
 30
0
 11
254.2358490598027
 21
211.8827295371468
 31
0
 70
   32
 71
    5
 72
    0
  3
Standard
 53
0
210
0
220
0
230
1
100
AcDbAlignedDimension
 13
178.2358490598
 23
200.5262755177056
 33
0
 14
330.2358490598055
 24
200.5262755177062
 34
0
100
AcDbRotatedDimension
  0
CIRCLE
  5
21E
100
AcDbEntity
  8
0
  6
ByLayer
 62
  256
370
   -1
100
AcDbCircle
 10
254.2358490598016
 20
291.5406187799536
 40
3
  0
CIRCLE
  5
21F
100
AcDbEntity
  8
0
  6
ByLayer
 62
  256
370
   -1
100
AcDbCircle
 10
254.2358490598016
 20
254.5406187799545
 40
3
  0
DIMENSION
  5
220
100
AcDbEntity
  8
measures
  6
ByLayer
 62
  256
370
   -1
100
AcDbDimension
  2
*D16
 10
344.802513055594
 20
254.5406187799545
 30
0
 11
341.802513055594
 21
273.0406187799541
 31
0
 70
   32
 71
    5
 72
    0
  3
Standard
 53
0
210
0
220
0
230
1
100
AcDbAlignedDimension
 13
254.2358490598016
 23
291.5406187799536
 33
0
 14
254.2358490598016
 24
254.5406187799545
 34
0
 50
90
100
AcDbRotatedDimension
  0
DIMENSION
  5
221
100
AcDbEntity
  8
measures
  6
ByLayer
 62
  256
370
   -1
100
AcDbDimension
  2
*D17
 10
344.802513055594
 20
236.5406187799582
 30
0
 11
341.802513055594
 21
245.5406187799564
 31
0
 70
   32
 71
    5
 72
    0
  3
Standard
 53
0
210
0
220
0
230
1
100
AcDbAlignedDimension
 13
254.2358490598016
 23
254.5406187799545
 33
0
 14
254.2358490598016
 24
236.5406187799582
 34
0
 50
90
100
AcDbRotatedDimension
  0
DIMENSION
  5
222
100
AcDbEntity
  8
measures
  6
ByLayer
 62
  256
370
   -1
100
AcDbDimension
  2
*D18
 10
360.9142204983818
 20
211.5406187799583
 30
0
 11
357.9142204983818
 21
224.0406187799583
 31
0
 70
   32
 71
    5
 72
    0
  3
Standard
 53
0
210
0
220
0
230
1
100
AcDbAlignedDimension
 13
370.5211187578223
 23
236.5406187799582
 33
0
 14
380.5211187578205
 24
211.5406187799583
 34
0
 50
90
100
AcDbRotatedDimension
  0
LINE
  5
223
100
AcDbEntity
  8
builder
  6
ByLayer
 62
  256
370
   -1
100
AcDbLine
 10
420.5211187578224
 20
211.5406187799582
 11
420.5211187578224
 21
315.0845123057067
  0
LINE
  5
224
100
AcDbEntity
  8
0
  6
ByLayer
 62
  256
370
   -1
100
AcDbLine
 10
380.5211187578205
 20
310.7206187799584
 11
425.5211187578213
 21
305.8206187799581
  0
LINE
  5
225
100
AcDbEntity
  8
0
  6
ByLayer
 62
  256
370
   -1
100
AcDbLine
 10
425.5211187578211
 20
305.8206187799581
 11
425.5211187578211
 21
302.8206187799579
  0
LINE
  5
226
100
AcDbEntity
  8
0
  6
ByLayer
 62
  256
370
   -1
100
AcDbLine
 10
380.5211187578205
 20
310.7206187799584
 11
370.5211187578222
 21
236.5406187799583
  0
DIMENSION
  5
227
100
AcDbEntity
  8
measures
  6
ByLayer
 62
  256
370
   -1
100
AcDbDimension
  2
*D19
 10
360.5980650840206
 20
236.5406187799582
 30
0
 11
357.5980650840206
 21
273.6306187799582
 31
0
 70
   32
 71
    5
  3
Standard
 53
0
210
0
220
0
230
1
100
AcDbAlignedDimension
 13
380.5211187578205
 23
310.7206187799582
 33
0
 14
380.5211187578205
 24
236.5406187799582
 34
0
 50
90
100
AcDbRotatedDimension
  0
LINE
  5
228
100
AcDbEntity
  8
0
  6
ByLayer
 62
  256
370
   -1
100
AcDbLine
 10
80.62041406236241
 20
211.5406187799583
 11
125.620414062363
 21
211.5406187799582
  0
DIMENSION
  5
229
100
AcDbEntity
  8
measures
  6
ByLayer
 62
  256
370
   -1
100
AcDbDimension
  2
*D20
 10
80.62041406236251
 20
198.2665838521361
 30
0
 11
103.1204140623627
 21
201.2665838521361
 31
0
 70
   32
 71
    5
 72
    0
  3
Standard
 53
0
210
0
220
0
230
1
100
AcDbAlignedDimension
 13
125.620414062363
 23
211.5406187799582
 33
0
 14
80.62041406236253
 24
211.5406187799583
 34
0
 50
179.9999999999999
100
AcDbRotatedDimension
  0
LINE
  5
22A
100
AcDbEntity
  8
0
  6
ByLayer
 62
  256
370
   -1
100
AcDbLine
 10
80.62041406236241
 20
211.5406187799583
 11
80.6204140623625
 21
302.8206187799579
  0
LINE
  5
22B
100
AcDbEntity
  8
0
  6
ByLayer
 62
  256
370
   -1
100
AcDbLine
 10
135.6204140623614
 20
236.5406187799583
 11
125.620414062363
 21
211.5406187799582
  0
LINE
  5
22C
100
AcDbEntity
  8
0
  6
ByLayer
 62
  256
370
   -1
100
AcDbLine
 10
125.6204140623631
 20
310.7206187799584
 11
80.62041406236234
 21
305.8206187799581
  0
LINE
  5
22D
100
AcDbEntity
  8
0
  6
ByLayer
 62
  256
370
   -1
100
AcDbLine
 10
80.62041406236251
 20
305.8206187799581
 11
80.6204140623625
 21
302.8206187799579
  0
LINE
  5
22E
100
AcDbEntity
  8
0
  6
ByLayer
 62
  256
370
   -1
100
AcDbLine
 10
125.6204140623631
 20
310.7206187799584
 11
135.6204140623614
 21
236.5406187799583
  0
DIMENSION
  5
22F
100
AcDbEntity
  8
measures
  6
ByLayer
 62
  256
370
   -1
100
AcDbDimension
  2
*D21
 10
70.56126953235044
 20
305.8206187799582
 30
0
 11
67.56126953235039
 21
258.6806187799582
 31
0
 70
   32
 71
    5
  3
Standard
 53
0
210
0
220
0
230
1
100
AcDbAlignedDimension
 13
80.62041406236241
 23
211.5406187799583
 33
0
 14
80.62041406236234
 24
305.8206187799581
 34
0
 50
89.99999999999994
100
AcDbRotatedDimension
  0
DIMENSION
  5
230
100
AcDbEntity
  8
measures
  6
ByLayer
 62
  256
370
   -1
100
AcDbDimension
  2
*D22
 10
150.1484164504224
 20
230.7294178247348
 30
0
 11
142.3629863777674
 21
219.343589853797
 31
0
 70
   33
 71
    5
  3
Standard
 53
0
210
0
220
0
230
1
100
AcDbAlignedDimension
 13
125.620414062363
 23
211.5406187799582
 33
0
 14
135.6204140623614
 24
236.5406187799583
 34
0
  0
DIMENSION
  5
231
100
AcDbEntity
  8
measures
  6
ByLayer
 62
  256
370
   -1
100
AcDbDimension
  2
*D23
 10
142.9141767591398
 20
313.051942950459
 30
0
 11
150.8872832780609
 21
276.3627391918881
 31
0
 70
   33
 71
    5
  3
Standard
 53
0
210
0
220
0
230
1
100
AcDbAlignedDimension
 13
135.6204140623614
 23
236.5406187799583
 33
0
 14
125.6204140623631
 24
310.7206187799584
 34
0
  0
DIMENSION
  5
232
100
AcDbEntity
  8
measures
  6
ByLayer
 62
  256
370
   -1
100
AcDbDimension
  2
*D24
 10
124.138855953506
 20
324.3267646776254
 30
0
 11
101.31410884283
 21
324.859136102198
 31
0
 70
   33
 71
    5
  3
Standard
 53
0
210
0
220
0
230
1
100
AcDbAlignedDimension
 13
80.62041406236267
 23
305.8206187799581
 33
0
 14
125.6204140623631
 24
310.7206187799584
 34
0
  0
LINE
  5
233
100
AcDbEntity
  8
0
  6
ByLayer
 62
  256
370
   -1
100
AcDbLine
 10
320.4858490598024
 20
343.728614762019
 11
320.4858490598026
 21
388.7286147620185
  0
LINE
  5
234
100
AcDbEntity
  8
0
  6
ByLayer
 62
  256
370
   -1
100
AcDbLine
 10
187.9858490598008
 20
388.7286147620185
 11
187.9858490598009
 21
343.728614762019
  0
LINE
  5
235
100
AcDbEntity
  8
0
  6
ByLayer
 62
  256
370
   -1
100
AcDbLine
 10
187.9858490598008
 20
388.7286147620185
 11
320.4858490598026
 21
388.7286147620185
  0
LINE
  5
236
100
AcDbEntity
  8
0
  6
ByLayer
 62
  256
370
   -1
100
AcDbLine
 10
320.4858490598024
 20
343.728614762019
 11
187.9858490598009
 21
343.7286160780246
  0
DIMENSION
  5
237
100
AcDbEntity
  8
measures
  6
ByLayer
 62
  256
370
   -1
100
AcDbDimension
  2
*D25
 10
320.4858490598026
 20
395.2708051077636
 30
0
 11
254.2358490598017
 21
398.2708051077636
 31
0
 70
   32
 71
    5
  3
Standard
 53
0
210
0
220
0
230
1
100
AcDbAlignedDimension
 13
187.9858490598008
 23
388.7286147620185
 33
0
 14
320.4858490598026
 24
388.7286147620185
 34
0
100
AcDbRotatedDimension
  0
LINE
  5
238
100
AcDbEntity
  8
builder
  6
ByLayer
 62
  256
370
   -1
100
AcDbLine
 10
187.9858490598009
 20
343.728614762019
 11
187.9858490598009
 21
236.5406187799583
  0
LINE
  5
239
100
AcDbEntity
  8
builder
  6
ByLayer
 62
  256
370
   -1
100
AcDbLine
 10
320.4858490598024
 20
343.728614762019
 11
320.4858490598024
 21
281.5000000003826
  0
LINE
  5
23A
100
AcDbEntity
  8
builder
  6
ByLayer
 62
  256
370
   -1
100
AcDbLine
 10
254.2358490598015
 20
310.84061877995
 11
327.7500000004453
 21
310.84061877995
  0
LINE
  5
23B
100
AcDbEntity
  8
builder
  6
ByLayer
 62
  256
370
   -1
100
AcDbLine
 10
254.2358490598015
 20
310.84061877995
 11
175.7500000002387
 21
310.84061877995
  0
LINE
  5
23C
100
AcDbEntity
  8
0
  6
ByLayer
 62
  256
370
   -1
100
AcDbLine
 10
178.1832174808542
 20
236.5406187799583
 11
187.9858490598009
 21
310.84061877995
  0
DIMENSION
  5
23D
100
AcDbEntity
  8
measures
  6
ByLayer
 62
  256
370
   -1
100
AcDbDimension
  2
*D26
 10
178.5408231230007
 20
312.086730617259
 30
0
 11
170.6652808761802
 21
275.3291296239083
 31
0
 70
   33
 71
    5
  3
Standard
 53
0
210
0
220
0
230
1
100
AcDbAlignedDimension
 13
178.1832174808542
 23
236.5406187799583
 33
0
 14
187.9858490598009
 24
310.84061877995
 34
0
  0
LINE
  5
23E
100
AcDbEntity
  8
0
  6
ByLayer
 62
  256
370
   -1
100
AcDbLine
 10
187.9858490598009
 20
310.84061877995
 11
320.4858490598024
 21
310.84061877995
  0
LINE
  5
23F
100
AcDbEntity
  8
0
  6
ByLayer
 62
  256
370
   -1
100
AcDbLine
 10
320.4858490598024
 20
310.84061877995
 11
330.2884806387501
 21
236.5406187799582
  0
LINE
  5
240
100
AcDbEntity
  8
builder
  6
ByLayer
 62
  256
370
   -1
100
AcDbLine
 10
425.5211187578211
 20
254.360502651983
 11
408.4256352068758
 21
254.360502651983
  0
LINE
  5
241
100
AcDbEntity
  8
builder
  6
ByLayer
 62
  256
370
   -1
100
AcDbLine
 10
85.62041406236082
 20
211.5406187799583
 11
85.62041406236082
 21
333.392895405614
  0
LINE
  5
242
100
AcDbEntity
  8
builder
  6
ByLayer
 62
  256
370
   -1
100
AcDbLine
 10
334.2358490598037
 20
116.5992182684335
 11
174.235849059801
 21
116.5992182684302
  0
LINE
  5
243
100
AcDbEntity
  8
builder
  6
ByLayer
 62
  256
370
   -1
100
AcDbLine
 10
254.2358490598016
 20
243.7573998027951
 11
254.2358490598016
 21
106.5422950694186
  0
LINE
  5
244
100
AcDbEntity
  8
builder
  6
ByLayer
 62
  256
370
   -1
100
AcDbLine
 10
289.0182843944205
 20
445.931231599594
 11
289.0182843944205
 21
106.2452113092376
  0
LINE
  5
245
100
AcDbEntity
  8
builder
  6
ByLayer
 62
  256
370
   -1
100
AcDbLine
 10
219.4534137251828
 20
445.9312315996011
 11
219.4534137251828
 21
106.4119374378047
  0
CIRCLE
  5
246
100
AcDbEntity
  8
0
  6
ByLayer
 62
  256
370
   -1
100
AcDbCircle
 10
271.6258490597999
 20
116.5992182684322
 40
2
  0
CIRCLE
  5
247
100
AcDbEntity
  8
0
  6
ByLayer
 62
  256
370
   -1
100
AcDbCircle
 10
236.8458490598032
 20
116.5992182684315
 40
2
  0
DIMENSION
  5
248
100
AcDbEntity
  8
measures
  6
ByLayer
 62
  256
370
   -1
100
AcDbDimension
  2
*D27
 10
171.9614996469936
 20
506.7656869651809
 30
0
 11
171.4269908417788
 21
521.8069217247493
 31
0
 70
   33
 71
    5
 72
    0
  3
Standard
 53
0
210
0
220
0
230
1
100
AcDbAlignedDimension
 13
187.9858490598516
 23
533.9992619804291
 33
0
 14
183.1365031272889
 24
504.9031863851269
 34
0
  0
DIMENSION
  5
249
100
AcDbEntity
  8
measures
  6
ByLayer
 62
  256
370
   -1
100
AcDbDimension
  2
*D28
 10
168.2486681405867
 20
485.0810296051548
 30
0
 11
167.0978752294538
 21
496.4245597292252
 31
0
 70
   33
 71
    5
 72
    0
  3
Standard
 53
0
210
0
220
0
230
1
100
AcDbAlignedDimension
 13
183.136503127289
 23
504.9031863851269
 33
0
 14
179.5197254065621
 24
483.2025200608208
 34
0
  0
DIMENSION
  5
24A
100
AcDbEntity
  8
measures
  6
ByLayer
 62
  256
370
   -1
100
AcDbDimension
  2
*D29
 10
160.9906662939241
 20
442.9151257747677
 30
0
 11
161.5484226958012
 21
464.5099517768716
 31
0
 70
   33
 71
    5
 72
    0
  3
Standard
 53
0
210
0
220
0
230
1
100
AcDbAlignedDimension
 13
179.5197254065621
 23
483.2025200608208
 33
0
 14
172.4858490598155
 24
440.9992619804476
 34
0
  0
DIMENSION
  5
24B
100
AcDbEntity
  8
measures
  6
ByLayer
 62
  256
370
   -1
100
AcDbDimension
  2
*D30
 10
146.1686827963807
 20
445.3854563576978
 30
0
 11
150.9595010249026
 21
492.3786533196059
 31
0
 70
   33
 71
    5
 72
    0
  3
Standard
 53
0
210
0
220
0
230
1
100
AcDbAlignedDimension
 13
187.9858490598516
 23
533.9992619804291
 33
0
 14
172.4858490598155
 24
440.9992619804476
 34
0
  0
LINE
  5
24C
100
AcDbEntity
  8
builder
  6
ByLayer
 62
  256
370
   -1
100
AcDbLine
 10
425.5211187578211
 20
305.8206187799581
 11
409.3190705232987
 21
305.8206187799581
  0
CIRCLE
  5
24D
100
AcDbEntity
  8
0
  6
ByLayer
 62
  256
370
   -1
100
AcDbCircle
 10
420.5211187578224
 20
276.320618779959
 40
2.2
  0
DIMENSION
  5
24E
100
AcDbEntity
  8
measures
  6
ByLayer
 62
  256
370
   -1
100
AcDbDimension
  2
*D31
 10
435.4689328431039
 20
276.320618779959
 30
0
 11
432.4689328431039
 21
291.0706187799586
 31
0
 70
   32
 71
    5
 72
    0
  3
Standard
 53
0
210
0
220
0
230
1
100
AcDbAlignedDimension
 13
420.5211187578224
 23
305.8206187799581
 33
0
 14
420.5211187578224
 24
276.320618779959
 34
0
 50
90
100
AcDbRotatedDimension
  0
CIRCLE
  5
24F
100
AcDbEntity
  8
0
  6
ByLayer
 62
  256
370
   -1
100
AcDbCircle
 10
420.5211187578224
 20
254.3206187799567
 40
2.2
  0
DIMENSION
  5
250
100
AcDbEntity
  8
measures
  6
ByLayer
 62
  256
370
   -1
100
AcDbDimension
  2
*D32
 10
435.4871266075275
 20
254.3206187799567
 30
0
 11
432.4871266075275
 21
265.3206187799579
 31
0
 70
   32
 71
    5
 72
    0
  3
Standard
 53
0
210
0
220
0
230
1
100
AcDbAlignedDimension
 13
420.5211187578224
 23
276.320618779959
 33
0
 14
420.5211187578224
 24
254.3206187799567
 34
0
 50
90
100
AcDbRotatedDimension
  0
DIMENSION
  5
251
100
AcDbEntity
  8
measures
  6
ByLayer
 62
  256
370
   -1
100
AcDbDimension
  2
*D33
 10
435.2184732289922
 20
211.5406187799582
 30
0
 11
432.2184732289922
 21
232.9306187799575
 31
0
 70
   32
 71
    5
 72
    0
  3
Standard
 53
0
210
0
220
0
230
1
100
AcDbAlignedDimension
 13
420.5211187578224
 23
254.3206187799567
 33
0
 14
420.5211187578224
 24
211.5406187799582
 34
0
 50
90
100
AcDbRotatedDimension
  0
DIMENSION
  5
252
100
AcDbEntity
  8
measures
  6
ByLayer
 62
  256
370
   -1
100
AcDbDimension
  2
*D34
 10
420.5211187578224
 20
201.7852272794604
 30
0
 11
400.5211187578215
 21
204.7852272794604
 31
0
 70
   32
 71
    5
 72
    0
  3
Standard
 53
0
210
0
220
0
230
1
100
AcDbAlignedDimension
 13
380.5211187578205
 23
211.5406187799582
 33
0
 14
420.5211187578224
 24
254.360502651983
 34
0
100
AcDbRotatedDimension
  0
DIMENSION
  5
253
100
AcDbEntity
  8
measures
  6
ByLayer
 62
  256
370
   -1
100
AcDbDimension
  2
*D35
 10
425.5211187578211
 20
201.958880659219
 30
0
 11
423.0211187578218
 21
204.958880659219
 31
0
 70
   32
 71
    5
 72
    0
  3
Standard
 53
0
210
0
220
0
230
1
100
AcDbAlignedDimension
 13
420.5211187578224
 23
254.360502651983
 33
0
 14
425.5211187578211
 24
211.5406187799582
 34
0
100
AcDbRotatedDimension
  0
LINE
  5
254
100
AcDbEntity
  8
builder
  6
ByLayer
 62
  256
370
   -1
100
AcDbLine
 10
75.62041406236369
 20
254.3206187799568
 11
88.99912104048389
 21
254.3206187799568
  0
LINE
  5
255
100
AcDbEntity
  8
builder
  6
ByLayer
 62
  256
370
   -1
100
AcDbLine
 10
75.62041406236369
 20
276.3206187799591
 11
88.43359842863013
 21
276.3206187799591
  0
CIRCLE
  5
256
100
AcDbEntity
  8
0
  6
ByLayer
 62
  256
370
   -1
100
AcDbCircle
 10
85.62041406236082
 20
276.3206187799591
 40
2.2
  0
CIRCLE
  5
257
100
AcDbEntity
  8
0
  6
ByLayer
 62
  256
370
   -1
100
AcDbCircle
 10
85.62041406236082
 20
254.3206187799568
 40
2.2
  0
LWPOLYLINE
  5
258
100
AcDbEntity
  8
insideComps_meta
  6
ByLayer
 62
  256
370
   -1
100
AcDbPolyline
 90
    4
 70
    1
 43
0
 10
197.7358490598015
 20
247.84061877995
 10
310.7358490598015
 20
247.84061877995
 10
310.7358490598015
 20
310.84061877995
 10
197.7358490598015
 20
310.84061877995
  0
ENDSEC
  0
SECTION
  2
OBJECTS
  0
DICTIONARY
  5
C
330
0
100
AcDbDictionary
281
    1
  3
ACAD_GROUP
350
D
  0
DICTIONARY
  5
D
330
C
100
AcDbDictionary
281
    1
  0
PLOTSETTINGS
  5
259
100
AcDbPlotSettings
  6
1x1
 40
2.82
 41
2.82
 42
2.82
 43
5.64
  0
ENDSEC
  0
EOF
