999
dxfrw 0.6.3
  0
SECTION
  2
HEADER
  9
$ACADVER
  1
AC1021
  9
$DWGCODEPAGE
  3
ANSI_1252
  9
$INSBASE
 10
0
 20
0
 30
0
  9
$EXTMIN
 10
75.95250161743375
 20
172.292404069936
 30
0
  9
$EXTMAX
 10
447.0783099094496
 20
709.1403532638514
 30
0
  9
$LIMMIN
 10
0
 20
0
  9
$LIMMAX
 10
420
 20
297
  9
$ORTHOMODE
 70
    0
  9
$REGENMODE
 70
    1
  9
$FILLMODE
 70
    1
  9
$QTEXTMODE
 70
    0
  9
$MIRRTEXT
 70
    0
  9
$LTSCALE
 40
1
  9
$ATTMODE
 70
    0
  9
$TEXTSIZE
 40
2.5
  9
$TRACEWID
 40
15.68
  9
$TEXTSTYLE
  7
STANDARD
  9
$CLAYER
  8
measures
  9
$CELTYPE
  6
BYLAYER
  9
$CECOLOR
 62
  256
  9
$CELTSCALE
 40
1
  9
$DISPSILH
 70
    0
  9
$DIMSCALE
 40
1
  9
$DIMASZ
 40
2.5
  9
$DIMEXO
 40
0.625
  9
$DIMDLI
 40
3.75
  9
$DIMRND
 40
0
  9
$DIMDLE
 40
0
  9
$DIMEXE
 40
1.25
  9
$DIMTP
 40
0
  9
$DIMTM
 40
0
  9
$DIMTXT
 40
2.5
  9
$DIMCEN
 40
2.5
  9
$DIMTSZ
 40
0
  9
$DIMTOL
 70
    0
  9
$DIMLIM
 70
    0
  9
$DIMTIH
 70
    0
  9
$DIMTOH
 70
    0
  9
$DIMSE1
 70
    0
  9
$DIMSE2
 70
    0
  9
$DIMTAD
 70
    1
  9
$DIMZIN
 70
    8
  9
$DIMBLK
  1

  9
$DIMASO
 70
    1
  9
$DIMSHO
 70
    1
  9
$DIMPOST
  1

  9
$DIMAPOST
  1

  9
$DIMALT
 70
    0
  9
$DIMALTD
 70
    3
  9
$DIMALTF
 40
0.03937
  9
$DIMLFAC
 40
1
  9
$DIMTOFL
 70
    1
  9
$DIMTVP
 40
0
  9
$DIMTIX
 70
    0
  9
$DIMSOXD
 70
    0
  9
$DIMSAH
 70
    0
  9
$DIMBLK1
  1

  9
$DIMBLK2
  1

  9
$DIMSTYLE
  2
STANDARD
  9
$DIMCLRD
 70
    0
  9
$DIMCLRE
 70
    0
  9
$DIMCLRT
 70
    0
  9
$DIMTFAC
 40
1
  9
$DIMGAP
 40
0.625
  9
$DIMJUST
 70
    0
  9
$DIMSD1
 70
    0
  9
$DIMSD2
 70
    0
  9
$DIMTOLJ
 70
    0
  9
$DIMTZIN
 70
    8
  9
$DIMALTZ
 70
    0
  9
$DIMALTTZ
 70
    0
  9
$DIMUPT
 70
    0
  9
$DIMDEC
 70
    2
  9
$DIMTDEC
 70
    2
  9
$DIMALTU
 70
    2
  9
$DIMALTTD
 70
    3
  9
$DIMTXSTY
  7
STANDARD
  9
$DIMAUNIT
 70
    0
  9
$DIMADEC
 70
    0
  9
$DIMALTRND
 40
0
  9
$DIMAZIN
 70
    0
  9
$DIMDSEP
 70
   44
  9
$DIMATFIT
 70
    3
  9
$DIMFRAC
 70
    0
  9
$DIMLDRBLK
  1
STANDARD
  9
$DIMLUNIT
 70
    2
  9
$DIMLWD
 70
   -2
  9
$DIMLWE
 70
   -2
  9
$DIMTMOVE
 70
    0
  9
$DIMFXL
 40
1
  9
$DIMFXLON
 70
    0
  9
$DIMJOGANG
 40
0.7854
  9
$DIMTFILL
 70
    0
  9
$DIMTFILLCLR
 70
    0
  9
$DIMARCSYM
 70
    0
  9
$DIMLTYPE
  6

  9
$DIMLTEX1
  6

  9
$DIMLTEX2
  6

  9
$LUNITS
 70
    2
  9
$LUPREC
 70
    4
  9
$SKETCHINC
 40
1
  9
$FILLETRAD
 40
0
  9
$AUNITS
 70
    0
  9
$AUPREC
 70
    2
  9
$MENU
  1
.
  9
$ELEVATION
 40
0
  9
$PELEVATION
 40
0
  9
$THICKNESS
 40
0
  9
$LIMCHECK
 70
    0
  9
$CHAMFERA
 40
0
  9
$CHAMFERB
 40
0
  9
$CHAMFERC
 40
0
  9
$CHAMFERD
 40
0
  9
$SKPOLY
 70
    0
  9
$USRTIMER
 70
    1
  9
$ANGBASE
 50
0
  9
$ANGDIR
 70
    0
  9
$PDMODE
 70
   34
  9
$PDSIZE
 40
0
  9
$PLINEWID
 40
0
  9
$SPLFRAME
 70
    0
  9
$SPLINETYPE
 70
    2
  9
$SPLINESEGS
 70
    8
  9
$HANDSEED
  5
20000
  9
$SURFTAB1
 70
    6
  9
$SURFTAB2
 70
    6
  9
$SURFTYPE
 70
    6
  9
$SURFU
 70
    6
  9
$SURFV
 70
    6
  9
$UCSBASE
  2

  9
$UCSNAME
  2

  9
$UCSORG
 10
0
 20
0
 30
0
  9
$UCSXDIR
 10
1
 20
0
 30
0
  9
$UCSYDIR
 10
0
 20
1
 30
0
  9
$UCSORTHOREF
  2

  9
$UCSORTHOVIEW
 70
    0
  9
$UCSORGTOP
 10
0
 20
0
 30
0
  9
$UCSORGBOTTOM
 10
0
 20
0
 30
0
  9
$UCSORGLEFT
 10
0
 20
0
 30
0
  9
$UCSORGRIGHT
 10
0
 20
0
 30
0
  9
$UCSORGFRONT
 10
0
 20
0
 30
0
  9
$UCSORGBACK
 10
0
 20
0
 30
0
  9
$PUCSBASE
  2

  9
$PUCSNAME
  2

  9
$PUCSORG
 10
0
 20
0
 30
0
  9
$PUCSXDIR
 10
1
 20
0
 30
0
  9
$PUCSYDIR
 10
0
 20
1
 30
0
  9
$PUCSORTHOREF
  2

  9
$PUCSORTHOVIEW
 70
    0
  9
$PUCSORGTOP
 10
0
 20
0
 30
0
  9
$PUCSORGBOTTOM
 10
0
 20
0
 30
0
  9
$PUCSORGLEFT
 10
0
 20
0
 30
0
  9
$PUCSORGRIGHT
 10
0
 20
0
 30
0
  9
$PUCSORGFRONT
 10
0
 20
0
 30
0
  9
$PUCSORGBACK
 10
0
 20
0
 30
0
  9
$USERI1
 70
    0
  9
$USERI2
 70
    0
  9
$USERI3
 70
    0
  9
$USERI4
 70
    0
  9
$USERI5
 70
    0
  9
$USERR1
 40
0
  9
$USERR2
 40
0
  9
$USERR3
 40
0
  9
$USERR4
 40
0
  9
$USERR5
 40
0
  9
$WORLDVIEW
 70
    1
  9
$SHADEDGE
 70
    3
  9
$SHADEDIF
 70
   70
  9
$TILEMODE
 70
    1
  9
$MAXACTVP
 70
   64
  9
$PINSBASE
 10
0
 20
0
 30
0
  9
$PLIMCHECK
 70
    0
  9
$PEXTMIN
 10
0
 20
0
 30
0
  9
$PEXTMAX
 10
0
 20
0
 30
0
  9
$GRIDMODE
 70
    1
  9
$SNAPSTYLE
 70
    0
  9
$PLIMMIN
 10
0
 20
0
  9
$PLIMMAX
 10
297
 20
210
  9
$UNITMODE
 70
    0
  9
$VISRETAIN
 70
    1
  9
$PLINEGEN
 70
    0
  9
$PSLTSCALE
 70
    1
  9
$TREEDEPTH
 70
 3020
  9
$CMLSTYLE
  2
Standard
  9
$CMLJUST
 70
    0
  9
$CMLSCALE
 40
20
  9
$PROXYGRAPHICS
 70
    1
  9
$MEASUREMENT
 70
    1
  9
$CELWEIGHT
370
   -1
  9
$ENDCAPS
280
    0
  9
$JOINSTYLE
280
    0
  9
$LWDISPLAY
290
    0
  9
$INSUNITS
 70
    4
  9
$HYPERLINKBASE
  1

  9
$STYLESHEET
  1

  9
$XEDIT
290
    1
  9
$CEPSNTYPE
380
    0
  9
$PSTYLEMODE
290
    1
  9
$EXTNAMES
290
    1
  9
$PSVPSCALE
 40
1
  9
$OLESTARTUP
290
    0
  9
$SORTENTS
280
  127
  9
$INDEXCTL
280
    0
  9
$HIDETEXT
280
    1
  9
$XCLIPFRAME
290
    0
  9
$HALOGAP
280
    0
  9
$OBSCOLOR
 70
  257
  9
$OBSLTYPE
280
    0
  9
$INTERSECTIONDISPLAY
280
    0
  9
$INTERSECTIONCOLOR
 70
  257
  9
$DIMASSOC
280
    1
  9
$PROJECTNAME
  1

  9
$CAMERADISPLAY
290
    0
  9
$LENSLENGTH
 40
50
  9
$CAMERAHEIGHT
 40
0
  9
$STEPSPERSEC
 40
2
  9
$STEPSIZE
 40
50
  9
$3DDWFPREC
 40
2
  9
$PSOLWIDTH
 40
5
  9
$PSOLHEIGHT
 40
80
  9
$LOFTANG1
 40
1.570796326794897
  9
$LOFTANG2
 40
1.570796326794897
  9
$LOFTMAG1
 40
0
  9
$LOFTMAG2
 40
0
  9
$LOFTPARAM
 70
    7
  9
$LOFTNORMALS
280
    1
  9
$LATITUDE
 40
1
  9
$LONGITUDE
 40
1
  9
$NORTHDIRECTION
 40
0
  9
$TIMEZONE
 70
-8000
  9
$LIGHTGLYPHDISPLAY
280
    1
  9
$TILEMODELIGHTSYNCH
280
    1
  9
$SOLIDHIST
280
    1
  9
$SHOWHIST
280
    1
  9
$DWFFRAME
280
    2
  9
$DGNFRAME
280
    0
  9
$REALWORLDSCALE
290
    1
  9
$INTERFERECOLOR
 62
    1
  9
$CSHADOW
280
    0
  9
$SHADOWPLANELOCATION
 40
0
  0
ENDSEC
  0
SECTION
  2
CLASSES
  0
ENDSEC
  0
SECTION
  2
TABLES
  0
TABLE
  2
VPORT
  5
8
330
0
100
AcDbSymbolTable
 70
    1
  0
VPORT
  5
31
330
2
100
AcDbSymbolTableRecord
100
AcDbViewportTableRecord
  2
*ACTIVE
 70
    0
 10
0
 20
0
 11
1
 21
1
 12
219.5502982285908
 22
300.3761515751374
 13
0
 23
0
 14
10
 24
10
 15
10
 25
10
 16
0
 26
0
 36
1
 17
0
 27
0
 37
0
 40
235.94764370105
 41
1.874538745387454
 42
50
 43
0
 44
0
 50
0
 51
0
 71
    0
 72
  100
 73
    1
 74
    3
 75
    0
 76
    1
 77
    0
 78
    0
281
    0
 65
    1
110
0
120
0
130
0
111
1
121
0
131
0
112
0
122
1
132
0
 79
    0
146
0
348
10020
 60
    7
 61
    5
292
1
282
    1
141
0
142
0
 63
  250
421
3358443
  0
ENDTAB
  0
TABLE
  2
LTYPE
  5
5
330
0
100
AcDbSymbolTable
 70
    4
  0
LTYPE
  5
14
330
5
100
AcDbSymbolTableRecord
100
AcDbLinetypeTableRecord
  2
ByBlock
 70
    0
  3

 72
   65
 73
    0
 40
0
  0
LTYPE
  5
15
330
5
100
AcDbSymbolTableRecord
100
AcDbLinetypeTableRecord
  2
ByLayer
 70
    0
  3

 72
   65
 73
    0
 40
0
  0
LTYPE
  5
16
330
5
100
AcDbSymbolTableRecord
100
AcDbLinetypeTableRecord
  2
Continuous
 70
    0
  3
Solid line
 72
   65
 73
    0
 40
0
  0
LTYPE
  5
32
330
5
100
AcDbSymbolTableRecord
100
AcDbLinetypeTableRecord
  2
DOT
 70
    0
  3
Dot . . . . . . . . . . . . . . . . . . . . . .
 72
   65
 73
    2
 40
6.35
 49
0
 74
    0
 49
-6.35
 74
    0
  0
LTYPE
  5
33
330
5
100
AcDbSymbolTableRecord
100
AcDbLinetypeTableRecord
  2
DOTTINY
 70
    0
  3
Dot (.15x) .....................................
 72
   65
 73
    2
 40
0.9525
 49
0
 74
    0
 49
-0.9525
 74
    0
  0
LTYPE
  5
34
330
5
100
AcDbSymbolTableRecord
100
AcDbLinetypeTableRecord
  2
DOT2
 70
    0
  3
Dot (.5x) .....................................
 72
   65
 73
    2
 40
3.175
 49
0
 74
    0
 49
-3.175
 74
    0
  0
LTYPE
  5
35
330
5
100
AcDbSymbolTableRecord
100
AcDbLinetypeTableRecord
  2
DOTX2
 70
    0
  3
Dot (2x) .  .  .  .  .  .  .  .  .  .  .  .  .
 72
   65
 73
    2
 40
12.7
 49
0
 74
    0
 49
-12.7
 74
    0
  0
LTYPE
  5
36
330
5
100
AcDbSymbolTableRecord
100
AcDbLinetypeTableRecord
  2
DASHED
 70
    0
  3
Dashed _ _ _ _ _ _ _ _ _ _ _ _ _ _ _ _ _
 72
   65
 73
    2
 40
19.05
 49
12.7
 74
    0
 49
-6.35
 74
    0
  0
LTYPE
  5
37
330
5
100
AcDbSymbolTableRecord
100
AcDbLinetypeTableRecord
  2
DASHEDTINY
 70
    0
  3
Dashed (.15x) _ _ _ _ _ _ _ _ _ _ _ _ _ _ _ _ _
 72
   65
 73
    2
 40
2.8575
 49
1.905
 74
    0
 49
-0.9525
 74
    0
  0
LTYPE
  5
38
330
5
100
AcDbSymbolTableRecord
100
AcDbLinetypeTableRecord
  2
DASHED2
 70
    0
  3
Dashed (.5x) _ _ _ _ _ _ _ _ _ _ _ _ _ _ _ _ _
 72
   65
 73
    2
 40
9.524999999999999
 49
6.35
 74
    0
 49
-3.175
 74
    0
  0
LTYPE
  5
39
330
5
100
AcDbSymbolTableRecord
100
AcDbLinetypeTableRecord
  2
DASHEDX2
 70
    0
  3
Dashed (2x) ____  ____  ____  ____  ____  ___
 72
   65
 73
    2
 40
38.09999999999999
 49
25.4
 74
    0
 49
-12.7
 74
    0
  0
LTYPE
  5
3A
330
5
100
AcDbSymbolTableRecord
100
AcDbLinetypeTableRecord
  2
DASHDOT
 70
    0
  3
Dash dot __ . __ . __ . __ . __ . __ . __ . __
 72
   65
 73
    4
 40
25.4
 49
12.7
 74
    0
 49
-6.35
 74
    0
 49
0
 74
    0
 49
-6.35
 74
    0
  0
LTYPE
  5
3B
330
5
100
AcDbSymbolTableRecord
100
AcDbLinetypeTableRecord
  2
DASHDOTTINY
 70
    0
  3
Dash dot (.15x) _._._._._._._._._._._._._._._.
 72
   65
 73
    4
 40
3.81
 49
1.905
 74
    0
 49
-0.9525
 74
    0
 49
0
 74
    0
 49
-0.9525
 74
    0
  0
LTYPE
  5
3C
330
5
100
AcDbSymbolTableRecord
100
AcDbLinetypeTableRecord
  2
DASHDOT2
 70
    0
  3
Dash dot (.5x) _._._._._._._._._._._._._._._.
 72
   65
 73
    4
 40
12.7
 49
6.35
 74
    0
 49
-3.175
 74
    0
 49
0
 74
    0
 49
-3.175
 74
    0
  0
LTYPE
  5
3D
330
5
100
AcDbSymbolTableRecord
100
AcDbLinetypeTableRecord
  2
DASHDOTX2
 70
    0
  3
Dash dot (2x) ____  .  ____  .  ____  .  ___
 72
   65
 73
    4
 40
50.8
 49
25.4
 74
    0
 49
-12.7
 74
    0
 49
0
 74
    0
 49
-12.7
 74
    0
  0
LTYPE
  5
3E
330
5
100
AcDbSymbolTableRecord
100
AcDbLinetypeTableRecord
  2
DIVIDE
 70
    0
  3
Divide ____ . . ____ . . ____ . . ____ . . ____
 72
   65
 73
    6
 40
31.75
 49
12.7
 74
    0
 49
-6.35
 74
    0
 49
0
 74
    0
 49
-6.35
 74
    0
 49
0
 74
    0
 49
-6.35
 74
    0
  0
LTYPE
  5
3F
330
5
100
AcDbSymbolTableRecord
100
AcDbLinetypeTableRecord
  2
DIVIDETINY
 70
    0
  3
Divide (.15x) __..__..__..__..__..__..__..__.._
 72
   65
 73
    6
 40
4.7625
 49
1.905
 74
    0
 49
-0.9525
 74
    0
 49
0
 74
    0
 49
-0.9525
 74
    0
 49
0
 74
    0
 49
-0.9525
 74
    0
  0
LTYPE
  5
40
330
5
100
AcDbSymbolTableRecord
100
AcDbLinetypeTableRecord
  2
DIVIDE2
 70
    0
  3
Divide (.5x) __..__..__..__..__..__..__..__.._
 72
   65
 73
    6
 40
15.875
 49
6.35
 74
    0
 49
-3.175
 74
    0
 49
0
 74
    0
 49
-3.175
 74
    0
 49
0
 74
    0
 49
-3.175
 74
    0
  0
LTYPE
  5
41
330
5
100
AcDbSymbolTableRecord
100
AcDbLinetypeTableRecord
  2
DIVIDEX2
 70
    0
  3
Divide (2x) ________  .  .  ________  .  .  _
 72
   65
 73
    6
 40
63.5
 49
25.4
 74
    0
 49
-12.7
 74
    0
 49
0
 74
    0
 49
-12.7
 74
    0
 49
0
 74
    0
 49
-12.7
 74
    0
  0
LTYPE
  5
42
330
5
100
AcDbSymbolTableRecord
100
AcDbLinetypeTableRecord
  2
BORDER
 70
    0
  3
Border __ __ . __ __ . __ __ . __ __ . __ __ .
 72
   65
 73
    6
 40
44.45
 49
12.7
 74
    0
 49
-6.35
 74
    0
 49
12.7
 74
    0
 49
-6.35
 74
    0
 49
0
 74
    0
 49
-6.35
 74
    0
  0
LTYPE
  5
43
330
5
100
AcDbSymbolTableRecord
100
AcDbLinetypeTableRecord
  2
BORDERTINY
 70
    0
  3
Border (.15x) __.__.__.__.__.__.__.__.__.__.__.
 72
   65
 73
    6
 40
6.6675
 49
1.905
 74
    0
 49
-0.9525
 74
    0
 49
1.905
 74
    0
 49
-0.9525
 74
    0
 49
0
 74
    0
 49
-0.9525
 74
    0
  0
LTYPE
  5
44
330
5
100
AcDbSymbolTableRecord
100
AcDbLinetypeTableRecord
  2
BORDER2
 70
    0
  3
Border (.5x) __.__.__.__.__.__.__.__.__.__.__.
 72
   65
 73
    6
 40
22.225
 49
6.35
 74
    0
 49
-3.175
 74
    0
 49
6.35
 74
    0
 49
-3.175
 74
    0
 49
0
 74
    0
 49
-3.175
 74
    0
  0
LTYPE
  5
45
330
5
100
AcDbSymbolTableRecord
100
AcDbLinetypeTableRecord
  2
BORDERX2
 70
    0
  3
Border (2x) ____  ____  .  ____  ____  .  ___
 72
   65
 73
    6
 40
88.89999999999999
 49
25.4
 74
    0
 49
-12.7
 74
    0
 49
25.4
 74
    0
 49
-12.7
 74
    0
 49
0
 74
    0
 49
-12.7
 74
    0
  0
LTYPE
  5
46
330
5
100
AcDbSymbolTableRecord
100
AcDbLinetypeTableRecord
  2
CENTER
 70
    0
  3
Center ____ _ ____ _ ____ _ ____ _ ____ _ ____
 72
   65
 73
    4
 40
50.8
 49
31.75
 74
    0
 49
-6.35
 74
    0
 49
6.35
 74
    0
 49
-6.35
 74
    0
  0
LTYPE
  5
47
330
5
100
AcDbSymbolTableRecord
100
AcDbLinetypeTableRecord
  2
CENTERTINY
 70
    0
  3
Center (.15x) ___ _ ___ _ ___ _ ___ _ ___ _ ___
 72
   65
 73
    4
 40
7.619999999999999
 49
4.7625
 74
    0
 49
-0.9525
 74
    0
 49
0.9525
 74
    0
 49
-0.9525
 74
    0
  0
LTYPE
  5
48
330
5
100
AcDbSymbolTableRecord
100
AcDbLinetypeTableRecord
  2
CENTER2
 70
    0
  3
Center (.5x) ___ _ ___ _ ___ _ ___ _ ___ _ ___
 72
   65
 73
    4
 40
28.575
 49
19.05
 74
    0
 49
-3.175
 74
    0
 49
3.175
 74
    0
 49
-3.175
 74
    0
  0
LTYPE
  5
49
330
5
100
AcDbSymbolTableRecord
100
AcDbLinetypeTableRecord
  2
CENTERX2
 70
    0
  3
Center (2x) ________  __  ________  __  _____
 72
   65
 73
    4
 40
101.6
 49
63.5
 74
    0
 49
-12.7
 74
    0
 49
12.7
 74
    0
 49
-12.7
 74
    0
  0
ENDTAB
  0
TABLE
  2
LAYER
  5
2
330
0
100
AcDbSymbolTable
 70
    1
  0
LAYER
  5
10
330
2
100
AcDbSymbolTableRecord
100
AcDbLayerTableRecord
  2
0
 70
    0
 62
    7
  6
CONTINUOUS
370
   70
390
F
  0
LAYER
  5
4A
330
2
100
AcDbSymbolTableRecord
100
AcDbLayerTableRecord
  2
builder
 70
    1
 62
  253
420
10526884
  6
DASHED
370
   13
390
F
  0
LAYER
  5
4B
330
2
100
AcDbSymbolTableRecord
100
AcDbLayerTableRecord
  2
measures
 70
    0
 62
    6
  6
CONTINUOUS
370
   35
390
F
  0
ENDTAB
  0
TABLE
  2
STYLE
  5
3
330
0
100
AcDbSymbolTable
 70
    3
  0
STYLE
  5
4C
330
2
100
AcDbSymbolTableRecord
100
AcDbTextStyleTableRecord
  2
Standard
 70
    0
 40
0
 41
1
 50
0
 71
    0
 42
1
  3
txt
  4

  0
ENDTAB
  0
TABLE
  2
VIEW
  5
6
330
0
100
AcDbSymbolTable
 70
    0
  0
ENDTAB
  0
TABLE
  2
UCS
  5
7
330
0
100
AcDbSymbolTable
 70
    0
  0
ENDTAB
  0
TABLE
  2
APPID
  5
9
330
0
100
AcDbSymbolTable
 70
    1
  0
APPID
  5
12
330
9
100
AcDbSymbolTableRecord
100
AcDbRegAppTableRecord
  2
ACAD
 70
    0
  0
APPID
  5
4D
330
9
100
AcDbSymbolTableRecord
100
AcDbRegAppTableRecord
  2
LibreCad
 70
    0
  0
ENDTAB
  0
TABLE
  2
DIMSTYLE
  5
A
330
0
100
AcDbSymbolTable
 70
    1
100
AcDbDimStyleTable
 71
    1
  0
DIMSTYLE
105
4E
330
A
100
AcDbSymbolTableRecord
100
AcDbDimStyleTableRecord
  2
Standard
 70
    0
 40
1
 41
2.5
 42
0.625
 43
0.38
 44
1.25
 45
0
 46
0
 47
0
 48
0
 49
1
140
2.5
141
0.09
142
0
143
25.4
144
1
145
0
146
1
147
0.625
148
0
 71
    0
 72
    0
 73
    0
 74
    1
 75
    0
 76
    0
 77
    0
 78
    8
 79
    0
170
    0
171
    2
172
    0
173
    0
174
    0
175
    0
176
    0
177
    0
178
    0
179
    0
271
    2
272
    4
273
    2
274
    2
275
    0
276
    0
277
    2
278
   44
279
    0
280
    0
281
    0
282
    0
283
    1
284
    0
285
    0
286
    0
288
    0
289
    3
340
4C
  0
ENDTAB
  0
TABLE
  2
BLOCK_RECORD
  5
1
330
0
100
AcDbSymbolTable
 70
    2
  0
BLOCK_RECORD
  5
1F
330
1
100
AcDbSymbolTableRecord
100
AcDbBlockTableRecord
  2
*Model_Space
 70
    0
280
    1
281
    0
  0
BLOCK_RECORD
  5
1E
330
1
100
AcDbSymbolTableRecord
100
AcDbBlockTableRecord
  2
*Paper_Space
 70
    0
280
    1
281
    0
  0
BLOCK_RECORD
  5
4F
330
1
100
AcDbSymbolTableRecord
100
AcDbBlockTableRecord
  2
*D10
 70
    0
280
    1
281
    0
  0
BLOCK_RECORD
  5
52
330
1
100
AcDbSymbolTableRecord
100
AcDbBlockTableRecord
  2
*D29
 70
    0
280
    1
281
    0
  0
BLOCK_RECORD
  5
55
330
1
100
AcDbSymbolTableRecord
100
AcDbBlockTableRecord
  2
*D2
 70
    0
280
    1
281
    0
  0
BLOCK_RECORD
  5
58
330
1
100
AcDbSymbolTableRecord
100
AcDbBlockTableRecord
  2
*D31
 70
    0
280
    1
281
    0
  0
BLOCK_RECORD
  5
5B
330
1
100
AcDbSymbolTableRecord
100
AcDbBlockTableRecord
  2
*D21
 70
    0
280
    1
281
    0
  0
BLOCK_RECORD
  5
5E
330
1
100
AcDbSymbolTableRecord
100
AcDbBlockTableRecord
  2
*D4
 70
    0
280
    1
281
    0
  0
BLOCK_RECORD
  5
61
330
1
100
AcDbSymbolTableRecord
100
AcDbBlockTableRecord
  2
*D23
 70
    0
280
    1
281
    0
  0
BLOCK_RECORD
  5
64
330
1
100
AcDbSymbolTableRecord
100
AcDbBlockTableRecord
  2
*D25
 70
    0
280
    1
281
    0
  0
BLOCK_RECORD
  5
67
330
1
100
AcDbSymbolTableRecord
100
AcDbBlockTableRecord
  2
*D30
 70
    0
280
    1
281
    0
  0
BLOCK_RECORD
  5
6A
330
1
100
AcDbSymbolTableRecord
100
AcDbBlockTableRecord
  2
*D19
 70
    0
280
    1
281
    0
  0
BLOCK_RECORD
  5
6D
330
1
100
AcDbSymbolTableRecord
100
AcDbBlockTableRecord
  2
*D11
 70
    0
280
    1
281
    0
  0
BLOCK_RECORD
  5
70
330
1
100
AcDbSymbolTableRecord
100
AcDbBlockTableRecord
  2
*D32
 70
    0
280
    1
281
    0
  0
BLOCK_RECORD
  5
73
330
1
100
AcDbSymbolTableRecord
100
AcDbBlockTableRecord
  2
*D22
 70
    0
280
    1
281
    0
  0
BLOCK_RECORD
  5
76
330
1
100
AcDbSymbolTableRecord
100
AcDbBlockTableRecord
  2
*D7
 70
    0
280
    1
281
    0
  0
BLOCK_RECORD
  5
79
330
1
100
AcDbSymbolTableRecord
100
AcDbBlockTableRecord
  2
*D20
 70
    0
280
    1
281
    0
  0
BLOCK_RECORD
  5
7C
330
1
100
AcDbSymbolTableRecord
100
AcDbBlockTableRecord
  2
*D9
 70
    0
280
    1
281
    0
  0
BLOCK_RECORD
  5
7F
330
1
100
AcDbSymbolTableRecord
100
AcDbBlockTableRecord
  2
*D12
 70
    0
280
    1
281
    0
  0
BLOCK_RECORD
  5
82
330
1
100
AcDbSymbolTableRecord
100
AcDbBlockTableRecord
  2
*D17
 70
    0
280
    1
281
    0
  0
BLOCK_RECORD
  5
85
330
1
100
AcDbSymbolTableRecord
100
AcDbBlockTableRecord
  2
*D28
 70
    0
280
    1
281
    0
  0
BLOCK_RECORD
  5
88
330
1
100
AcDbSymbolTableRecord
100
AcDbBlockTableRecord
  2
*D8
 70
    0
280
    1
281
    0
  0
BLOCK_RECORD
  5
8B
330
1
100
AcDbSymbolTableRecord
100
AcDbBlockTableRecord
  2
*D16
 70
    0
280
    1
281
    0
  0
BLOCK_RECORD
  5
8E
330
1
100
AcDbSymbolTableRecord
100
AcDbBlockTableRecord
  2
*D24
 70
    0
280
    1
281
    0
  0
BLOCK_RECORD
  5
91
330
1
100
AcDbSymbolTableRecord
100
AcDbBlockTableRecord
  2
*D14
 70
    0
280
    1
281
    0
  0
BLOCK_RECORD
  5
94
330
1
100
AcDbSymbolTableRecord
100
AcDbBlockTableRecord
  2
*D27
 70
    0
280
    1
281
    0
  0
BLOCK_RECORD
  5
97
330
1
100
AcDbSymbolTableRecord
100
AcDbBlockTableRecord
  2
*D3
 70
    0
280
    1
281
    0
  0
BLOCK_RECORD
  5
9A
330
1
100
AcDbSymbolTableRecord
100
AcDbBlockTableRecord
  2
*D13
 70
    0
280
    1
281
    0
  0
BLOCK_RECORD
  5
9D
330
1
100
AcDbSymbolTableRecord
100
AcDbBlockTableRecord
  2
*D15
 70
    0
280
    1
281
    0
  0
BLOCK_RECORD
  5
A0
330
1
100
AcDbSymbolTableRecord
100
AcDbBlockTableRecord
  2
*D6
 70
    0
280
    1
281
    0
  0
BLOCK_RECORD
  5
A3
330
1
100
AcDbSymbolTableRecord
100
AcDbBlockTableRecord
  2
*D18
 70
    0
280
    1
281
    0
  0
BLOCK_RECORD
  5
A6
330
1
100
AcDbSymbolTableRecord
100
AcDbBlockTableRecord
  2
*D1
 70
    0
280
    1
281
    0
  0
BLOCK_RECORD
  5
A9
330
1
100
AcDbSymbolTableRecord
100
AcDbBlockTableRecord
  2
*D26
 70
    0
280
    1
281
    0
  0
BLOCK_RECORD
  5
AC
330
1
100
AcDbSymbolTableRecord
100
AcDbBlockTableRecord
  2
*D5
 70
    0
280
    1
281
    0
  0
ENDTAB
  0
ENDSEC
  0
SECTION
  2
BLOCKS
  0
BLOCK
  5
20
330
1F
100
AcDbEntity
  8
0
100
AcDbBlockBegin
  2
*Model_Space
 70
    0
 10
0
 20
0
 30
0
  3
*Model_Space
  1

  0
ENDBLK
  5
21
330
1F
100
AcDbEntity
  8
0
100
AcDbBlockEnd
  0
BLOCK
  5
1C
330
1B
100
AcDbEntity
  8
0
100
AcDbBlockBegin
  2
*Paper_Space
 70
    0
 10
0
 20
0
 30
0
  3
*Paper_Space
  1

  0
ENDBLK
  5
1D
330
1F
100
AcDbEntity
  8
0
100
AcDbBlockEnd
  0
BLOCK
  5
50
330
4F
100
AcDbEntity
  8
0
100
AcDbBlockBegin
  2
*D10
 70
    1
 10
0
 20
0
  3
*D10
  1

  0
LINE
  5
AF
100
AcDbEntity
  8
measures
  6
ByBlock
 62
    0
370
   -2
100
AcDbLine
 10
345.0527933949769
 20
230.0359622447005
 11
345.0527933949769
 21
185.0359622447006
  0
MTEXT
  5
B0
100
AcDbEntity
  8
measures
  6
CONTINUOUS
 62
    0
370
   -2
100
AcDbMText
 10
343.1777933949769
 20
207.5359622447006
 30
0
 40
2.5
 41
3.333333333333488
 71
    5
 72
    1
  1
45
  7
STANDARD
210
0
220
0
230
1
 50
90
 73
    2
 44
1
  0
SOLID
  5
B1
100
AcDbEntity
  8
measures
  6
ByBlock
 62
    0
370
   -2
100
AcDbTrace
 10
345.0527933949769
 20
230.0359622447005
 30
0
 11
345.4690780527498
 21
227.5359622447005
 31
0
 12
344.6365087372041
 22
227.5359622447005
 32
0
 13
344.6365087372041
 23
227.5359622447005
 33
0
  0
SOLID
  5
B2
100
AcDbEntity
  8
measures
  6
ByBlock
 62
    0
370
   -2
100
AcDbTrace
 10
345.0527933949769
 20
185.0359622447006
 30
0
 11
344.6365087372041
 21
187.5359622447006
 31
0
 12
345.4690780527498
 22
187.5359622447006
 32
0
 13
345.4690780527498
 23
187.5359622447006
 33
0
  0
LINE
  5
B3
100
AcDbEntity
  8
measures
  6
ByBlock
 62
    0
370
   -2
100
AcDbLine
 10
334.8608490598037
 20
230.0359622447005
 11
346.3027933949769
 21
230.0359622447005
  0
LINE
  5
B4
100
AcDbEntity
  8
measures
  6
ByBlock
 62
    0
370
   -2
100
AcDbLine
 10
334.8608490598037
 20
185.0359622447006
 11
346.3027933949769
 21
185.0359622447006
  0
ENDBLK
  5
51
330
4F
100
AcDbEntity
  8
0
100
AcDbBlockEnd
  0
BLOCK
  5
53
330
52
100
AcDbEntity
  8
0
100
AcDbBlockBegin
  2
*D29
 70
    1
 10
0
 20
0
  3
*D29
  1

  0
LINE
  5
B5
100
AcDbEntity
  8
measures
  6
ByBlock
 62
    0
370
   -2
100
AcDbLine
 10
239.2358490597978
 20
394.8844290246458
 11
269.2358490598025
 21
394.8844290246458
  0
MTEXT
  5
B6
100
AcDbEntity
  8
measures
  6
CONTINUOUS
 62
    0
370
   -2
100
AcDbMText
 10
254.2358490598002
 20
396.7594290246458
 30
0
 40
2.5
 41
3.055555555555711
 71
    5
 72
    1
  1
30
  7
STANDARD
210
0
220
0
230
1
 50
0
 73
    2
 44
1
  0
SOLID
  5
B7
100
AcDbEntity
  8
measures
  6
ByBlock
 62
    0
370
   -2
100
AcDbTrace
 10
239.2358490597978
 20
394.8844290246458
 30
0
 11
241.7358490597978
 21
395.3007136824186
 31
0
 12
241.7358490597978
 22
394.4681443668729
 32
0
 13
241.7358490597978
 23
394.4681443668729
 33
0
  0
SOLID
  5
B8
100
AcDbEntity
  8
measures
  6
ByBlock
 62
    0
370
   -2
100
AcDbTrace
 10
269.2358490598025
 20
394.8844290246458
 30
0
 11
266.7358490598025
 21
394.4681443668729
 31
0
 12
266.7358490598025
 22
395.3007136824186
 32
0
 13
266.7358490598025
 23
395.3007136824186
 33
0
  0
LINE
  5
B9
100
AcDbEntity
  8
measures
  6
ByBlock
 62
    0
370
   -2
100
AcDbLine
 10
239.2358490597978
 20
384.3536147620179
 11
239.2358490597978
 21
396.1344290246458
  0
LINE
  5
BA
100
AcDbEntity
  8
measures
  6
ByBlock
 62
    0
370
   -2
100
AcDbLine
 10
269.2358490598025
 20
384.3536147620172
 11
269.2358490598025
 21
396.1344290246458
  0
ENDBLK
  5
54
330
52
100
AcDbEntity
  8
0
100
AcDbBlockEnd
  0
BLOCK
  5
56
330
55
100
AcDbEntity
  8
0
100
AcDbBlockBegin
  2
*D2
 70
    1
 10
0
 20
0
  3
*D2
  1

  0
LINE
  5
BB
100
AcDbEntity
  8
measures
  6
ByBlock
 62
    0
370
   -2
100
AcDbLine
 10
172.4858490598155
 20
417.1319811570487
 11
335.9858490598025
 21
417.1319811570487
  0
MTEXT
  5
BC
100
AcDbEntity
  8
measures
  6
CONTINUOUS
 62
    0
370
   -2
100
AcDbMText
 10
254.235849059809
 20
419.0069811570487
 30
0
 40
2.5
 41
7.361111111111576
 71
    5
 72
    1
  1
163,5
  7
STANDARD
210
0
220
0
230
1
 50
0
 73
    2
 44
1
  0
SOLID
  5
BD
100
AcDbEntity
  8
measures
  6
ByBlock
 62
    0
370
   -2
100
AcDbTrace
 10
172.4858490598155
 20
417.1319811570487
 30
0
 11
174.9858490598155
 21
417.5482658148215
 31
0
 12
174.9858490598155
 22
416.7156964992759
 32
0
 13
174.9858490598155
 23
416.7156964992759
 33
0
  0
SOLID
  5
BE
100
AcDbEntity
  8
measures
  6
ByBlock
 62
    0
370
   -2
100
AcDbTrace
 10
335.9858490598025
 20
417.1319811570487
 30
0
 11
333.4858490598025
 21
416.7156964992759
 31
0
 12
333.4858490598025
 22
417.5482658148215
 32
0
 13
333.4858490598025
 23
417.5482658148215
 33
0
  0
LINE
  5
BF
100
AcDbEntity
  8
measures
  6
ByBlock
 62
    0
370
   -2
100
AcDbLine
 10
172.4858490598155
 20
440.3742619804476
 11
172.4858490598155
 21
415.8819811570487
  0
LINE
  5
C0
100
AcDbEntity
  8
measures
  6
ByBlock
 62
    0
370
   -2
100
AcDbLine
 10
335.9858490598025
 20
440.3742619804289
 11
335.9858490598025
 21
415.8819811570487
  0
ENDBLK
  5
57
330
55
100
AcDbEntity
  8
0
100
AcDbBlockEnd
  0
BLOCK
  5
59
330
58
100
AcDbEntity
  8
0
100
AcDbBlockBegin
  2
*D31
 70
    1
 10
0
 20
0
  3
*D31
  1

  0
LINE
  5
C1
100
AcDbEntity
  8
measures
  6
ByBlock
 62
    0
370
   -2
100
AcDbLine
 10
189.235849059802
 20
336.4186351709766
 11
254.2358490598016
 21
336.4186351709766
  0
MTEXT
  5
C2
100
AcDbEntity
  8
measures
  6
CONTINUOUS
 62
    0
370
   -2
100
AcDbMText
 10
221.7358490598018
 20
338.2936351709766
 30
0
 40
2.5
 41
3.055555555555866
 71
    5
 72
    1
  1
65
  7
STANDARD
210
0
220
0
230
1
 50
0
 73
    2
 44
1
  0
SOLID
  5
C3
100
AcDbEntity
  8
measures
  6
ByBlock
 62
    0
370
   -2
100
AcDbTrace
 10
189.235849059802
 20
336.4186351709766
 30
0
 11
191.735849059802
 21
336.8349198287495
 31
0
 12
191.735849059802
 22
336.0023505132038
 32
0
 13
191.735849059802
 23
336.0023505132038
 33
0
  0
SOLID
  5
C4
100
AcDbEntity
  8
measures
  6
ByBlock
 62
    0
370
   -2
100
AcDbTrace
 10
254.2358490598016
 20
336.4186351709766
 30
0
 11
251.7358490598016
 21
336.0023505132038
 31
0
 12
251.7358490598016
 22
336.8349198287495
 32
0
 13
251.7358490598016
 23
336.8349198287495
 33
0
  0
LINE
  5
C5
100
AcDbEntity
  8
measures
  6
ByBlock
 62
    0
370
   -2
100
AcDbLine
 10
189.235849059802
 20
330.4361343997519
 11
189.235849059802
 21
337.6686351709766
  0
LINE
  5
C6
100
AcDbEntity
  8
measures
  6
ByBlock
 62
    0
370
   -2
100
AcDbLine
 10
254.2358490598016
 20
309.2561343997535
 11
254.2358490598016
 21
337.6686351709766
  0
ENDBLK
  5
5A
330
58
100
AcDbEntity
  8
0
100
AcDbBlockEnd
  0
BLOCK
  5
5C
330
5B
100
AcDbEntity
  8
0
100
AcDbBlockBegin
  2
*D21
 70
    1
 10
0
 20
0
  3
*D21
  1

  0
LINE
  5
C7
100
AcDbEntity
  8
measures
  6
ByBlock
 62
    0
370
   -2
100
AcDbLine
 10
318.6088686965837
 20
485.2611441599381
 11
327.2920268431536
 21
433.1621952805248
  0
LINE
  5
C8
100
AcDbEntity
  8
measures
  6
ByBlock
 62
    0
370
   -2
100
AcDbLine
 10
328.3385984262806
 20
486.8827657815544
 11
337.0217565728504
 21
434.7838169021411
  0
LINE
  5
C9
100
AcDbEntity
  8
measures
  6
ByBlock
 62
    0
370
   -2
100
AcDbLine
 10
327.0865281090219
 20
434.395187685315
 11
336.8162578387187
 21
436.0168093069313
  0
MTEXT
  5
CA
100
AcDbEntity
  8
measures
  6
CONTINUOUS
 62
    0
370
   -2
100
AcDbMText
 10
331.6431448726727
 20
437.0554871033084
 30
0
 40
2.5
 41
5.972222222222688
 71
    5
 72
    1
  1
9,86
  7
STANDARD
210
0
220
0
230
1
 50
9.46232220802664
 73
    2
 44
1
  0
SOLID
  5
CB
100
AcDbEntity
  8
measures
  6
ByBlock
 62
    0
370
   -2
100
AcDbTrace
 10
327.0865281090219
 20
434.395187685315
 30
0
 11
329.4840761424336
 21
435.2168058105901
 31
0
 12
329.6209496947708
 22
434.3955644965667
 32
0
 13
329.6209496947708
 23
434.3955644965667
 33
0
  0
SOLID
  5
CC
100
AcDbEntity
  8
measures
  6
ByBlock
 62
    0
370
   -2
100
AcDbTrace
 10
336.8162578387187
 20
436.0168093069313
 30
0
 11
334.418709805307
 21
435.1951911816562
 31
0
 12
334.2818362529698
 22
436.0164324956795
 32
0
 13
334.2818362529698
 23
436.0164324956795
 33
0
  0
ENDBLK
  5
5D
330
5B
100
AcDbEntity
  8
0
100
AcDbBlockEnd
  0
BLOCK
  5
5F
330
5E
100
AcDbEntity
  8
0
100
AcDbBlockBegin
  2
*D4
 70
    1
 10
0
 20
0
  3
*D4
  1

  0
LINE
  5
CD
100
AcDbEntity
  8
measures
  6
ByBlock
 62
    0
370
   -2
100
AcDbLine
 10
363.0588032193709
 20
440.9992619804289
 11
363.0588032193709
 21
533.9992619874704
  0
MTEXT
  5
CE
100
AcDbEntity
  8
measures
  6
CONTINUOUS
 62
    0
370
   -2
100
AcDbMText
 10
361.1838032193709
 20
487.4992619839496
 30
0
 40
2.5
 41
3.055555555556021
 71
    5
 72
    1
  1
93
  7
STANDARD
210
0
220
0
230
1
 50
90
 73
    2
 44
1
  0
SOLID
  5
CF
100
AcDbEntity
  8
measures
  6
ByBlock
 62
    0
370
   -2
100
AcDbTrace
 10
363.0588032193709
 20
440.9992619804289
 30
0
 11
362.642518561598
 21
443.4992619804289
 31
0
 12
363.4750878771437
 22
443.4992619804289
 32
0
 13
363.4750878771437
 23
443.4992619804289
 33
0
  0
SOLID
  5
D0
100
AcDbEntity
  8
measures
  6
ByBlock
 62
    0
370
   -2
100
AcDbTrace
 10
363.0588032193709
 20
533.9992619874704
 30
0
 11
363.4750878771437
 21
531.4992619874704
 31
0
 12
362.642518561598
 22
531.4992619874704
 32
0
 13
362.642518561598
 23
531.4992619874704
 33
0
  0
LINE
  5
D1
100
AcDbEntity
  8
measures
  6
ByBlock
 62
    0
370
   -2
100
AcDbLine
 10
336.6108490598025
 20
440.9992619804289
 11
364.3088032193709
 21
440.9992619804289
  0
LINE
  5
D2
100
AcDbEntity
  8
measures
  6
ByBlock
 62
    0
370
   -2
100
AcDbLine
 10
321.1108490586268
 20
533.9992619874704
 11
364.3088032193709
 21
533.9992619874704
  0
ENDBLK
  5
60
330
5E
100
AcDbEntity
  8
0
100
AcDbBlockEnd
  0
BLOCK
  5
62
330
61
100
AcDbEntity
  8
0
100
AcDbBlockBegin
  2
*D23
 70
    1
 10
0
 20
0
  3
*D23
  1

  0
LINE
  5
D3
100
AcDbEntity
  8
measures
  6
ByBlock
 62
    0
370
   -2
100
AcDbLine
 10
436.35100305575
 20
268.2711343997492
 11
436.35100305575
 21
292.4611343997503
  0
MTEXT
  5
D4
100
AcDbEntity
  8
measures
  6
CONTINUOUS
 62
    0
370
   -2
100
AcDbMText
 10
434.47600305575
 20
280.3661343997497
 30
0
 40
2.5
 41
7.638888888888889
 71
    5
 72
    1
  1
24,19
  7
STANDARD
210
0
220
0
230
1
 50
90
 73
    2
 44
1
  0
SOLID
  5
D5
100
AcDbEntity
  8
measures
  6
ByBlock
 62
    0
370
   -2
100
AcDbTrace
 10
436.35100305575
 20
268.2711343997492
 30
0
 11
435.9347183979772
 21
270.7711343997492
 31
0
 12
436.7672877135229
 22
270.7711343997492
 32
0
 13
436.7672877135229
 23
270.7711343997492
 33
0
  0
SOLID
  5
D6
100
AcDbEntity
  8
measures
  6
ByBlock
 62
    0
370
   -2
100
AcDbTrace
 10
436.35100305575
 20
292.4611343997503
 30
0
 11
436.7672877135229
 21
289.9611343997503
 31
0
 12
435.9347183979772
 22
289.9611343997503
 32
0
 13
435.9347183979772
 23
289.9611343997503
 33
0
  0
LINE
  5
D7
100
AcDbEntity
  8
measures
  6
ByBlock
 62
    0
370
   -2
100
AcDbLine
 10
421.1461187578224
 20
268.2711343997492
 11
437.60100305575
 21
268.2711343997492
  0
LINE
  5
D8
100
AcDbEntity
  8
measures
  6
ByBlock
 62
    0
370
   -2
100
AcDbLine
 10
421.1461187578225
 20
292.4611343997503
 11
437.60100305575
 21
292.4611343997503
  0
ENDBLK
  5
63
330
61
100
AcDbEntity
  8
0
100
AcDbBlockEnd
  0
BLOCK
  5
65
330
64
100
AcDbEntity
  8
0
100
AcDbBlockBegin
  2
*D25
 70
    1
 10
0
 20
0
  3
*D25
  1

  0
LINE
  5
D9
100
AcDbEntity
  8
measures
  6
ByBlock
 62
    0
370
   -2
100
AcDbLine
 10
174.235849059801
 20
176.7122840429431
 11
239.2358490598028
 21
176.7122840429431
  0
MTEXT
  5
DA
100
AcDbEntity
  8
measures
  6
CONTINUOUS
 62
    0
370
   -2
100
AcDbMText
 10
206.7358490598019
 20
178.5872840429431
 30
0
 40
2.5
 41
3.055555555555866
 71
    5
 72
    1
  1
65
  7
STANDARD
210
0
220
0
230
1
 50
0
 73
    2
 44
1
  0
SOLID
  5
DB
100
AcDbEntity
  8
measures
  6
ByBlock
 62
    0
370
   -2
100
AcDbTrace
 10
174.235849059801
 20
176.7122840429431
 30
0
 11
176.735849059801
 21
177.1285687007159
 31
0
 12
176.735849059801
 22
176.2959993851702
 32
0
 13
176.735849059801
 23
176.2959993851702
 33
0
  0
SOLID
  5
DC
100
AcDbEntity
  8
measures
  6
ByBlock
 62
    0
370
   -2
100
AcDbTrace
 10
239.2358490598028
 20
176.7122840429431
 30
0
 11
236.7358490598028
 21
176.2959993851702
 31
0
 12
236.7358490598028
 22
177.1285687007159
 32
0
 13
236.7358490598028
 23
177.1285687007159
 33
0
  0
LINE
  5
DD
100
AcDbEntity
  8
measures
  6
ByBlock
 62
    0
370
   -2
100
AcDbLine
 10
174.235849059801
 20
184.4109622447004
 11
174.235849059801
 21
175.4622840429431
  0
LINE
  5
DE
100
AcDbEntity
  8
measures
  6
ByBlock
 62
    0
370
   -2
100
AcDbLine
 10
239.2358490598028
 20
189.410962244698
 11
239.2358490598028
 21
175.4622840429431
  0
ENDBLK
  5
66
330
64
100
AcDbEntity
  8
0
100
AcDbBlockEnd
  0
BLOCK
  5
68
330
67
100
AcDbEntity
  8
0
100
AcDbBlockBegin
  2
*D30
 70
    1
 10
0
 20
0
  3
*D30
  1

  0
LINE
  5
DF
100
AcDbEntity
  8
measures
  6
ByBlock
 62
    0
370
   -2
100
AcDbLine
 10
269.2358490598025
 20
395.3334164368399
 11
319.2358490598018
 21
395.3334164368399
  0
MTEXT
  5
E0
100
AcDbEntity
  8
measures
  6
CONTINUOUS
 62
    0
370
   -2
100
AcDbMText
 10
294.2358490598021
 20
397.2084164368399
 30
0
 40
2.5
 41
3.055555555555711
 71
    5
 72
    1
  1
50
  7
STANDARD
210
0
220
0
230
1
 50
0
 73
    2
 44
1
  0
SOLID
  5
E1
100
AcDbEntity
  8
measures
  6
ByBlock
 62
    0
370
   -2
100
AcDbTrace
 10
269.2358490598025
 20
395.3334164368399
 30
0
 11
271.7358490598025
 21
395.7497010946127
 31
0
 12
271.7358490598025
 22
394.917131779067
 32
0
 13
271.7358490598025
 23
394.917131779067
 33
0
  0
SOLID
  5
E2
100
AcDbEntity
  8
measures
  6
ByBlock
 62
    0
370
   -2
100
AcDbTrace
 10
319.2358490598018
 20
395.3334164368399
 30
0
 11
316.7358490598018
 21
394.917131779067
 31
0
 12
316.7358490598018
 22
395.7497010946127
 32
0
 13
316.7358490598018
 23
395.7497010946127
 33
0
  0
LINE
  5
E3
100
AcDbEntity
  8
measures
  6
ByBlock
 62
    0
370
   -2
100
AcDbLine
 10
269.2358490598025
 20
384.3536147620172
 11
269.2358490598025
 21
396.5834164368399
  0
LINE
  5
E4
100
AcDbEntity
  8
measures
  6
ByBlock
 62
    0
370
   -2
100
AcDbLine
 10
319.2358490598018
 20
389.3536147620185
 11
319.2358490598018
 21
396.5834164368399
  0
ENDBLK
  5
69
330
67
100
AcDbEntity
  8
0
100
AcDbBlockEnd
  0
BLOCK
  5
6B
330
6A
100
AcDbEntity
  8
0
100
AcDbBlockBegin
  2
*D19
 70
    1
 10
0
 20
0
  3
*D19
  1

  0
LINE
  5
E5
100
AcDbEntity
  8
measures
  6
ByBlock
 62
    0
370
   -2
100
AcDbLine
 10
347.9652444503542
 20
533.9992619804347
 11
347.9652444503542
 21
524.1353227521872
  0
MTEXT
  5
E6
100
AcDbEntity
  8
measures
  6
CONTINUOUS
 62
    0
370
   -2
100
AcDbMText
 10
346.0902444503542
 20
529.067292366311
 30
0
 40
2.5
 41
5.972222222222688
 71
    5
 72
    1
  1
9,86
  7
STANDARD
210
0
220
0
230
1
 50
90
 73
    2
 44
1
  0
SOLID
  5
E7
100
AcDbEntity
  8
measures
  6
ByBlock
 62
    0
370
   -2
100
AcDbTrace
 10
347.9652444503542
 20
533.9992619804347
 30
0
 11
348.3815291081271
 21
531.4992619804347
 31
0
 12
347.5489597925814
 22
531.4992619804347
 32
0
 13
347.5489597925814
 23
531.4992619804347
 33
0
  0
SOLID
  5
E8
100
AcDbEntity
  8
measures
  6
ByBlock
 62
    0
370
   -2
100
AcDbTrace
 10
347.9652444503542
 20
524.1353227521872
 30
0
 11
347.5489597925814
 21
526.6353227521872
 31
0
 12
348.3815291081271
 22
526.6353227521872
 32
0
 13
348.3815291081271
 23
526.6353227521872
 33
0
  0
LINE
  5
E9
100
AcDbEntity
  8
measures
  6
ByBlock
 62
    0
370
   -2
100
AcDbLine
 10
311.1108490597972
 20
533.9992619804347
 11
349.2152444503542
 21
533.9992619804347
  0
LINE
  5
EA
100
AcDbEntity
  8
measures
  6
ByBlock
 62
    0
370
   -2
100
AcDbLine
 10
312.7548389311794
 20
524.1353227521872
 11
349.2152444503542
 21
524.1353227521872
  0
ENDBLK
  5
6C
330
6A
100
AcDbEntity
  8
0
100
AcDbBlockEnd
  0
BLOCK
  5
6E
330
6D
100
AcDbEntity
  8
0
100
AcDbBlockBegin
  2
*D11
 70
    1
 10
0
 20
0
  3
*D11
  1

  0
LINE
  5
EB
100
AcDbEntity
  8
measures
  6
ByBlock
 62
    0
370
   -2
100
AcDbLine
 10
344.802513055594
 20
308.6311343997535
 11
344.802513055594
 21
271.6311343997544
  0
MTEXT
  5
EC
100
AcDbEntity
  8
measures
  6
CONTINUOUS
 62
    0
370
   -2
100
AcDbMText
 10
342.927513055594
 20
290.1311343997539
 30
0
 40
2.5
 41
3.055555555555711
 71
    5
 72
    1
  1
37
  7
STANDARD
210
0
220
0
230
1
 50
90
 73
    2
 44
1
  0
SOLID
  5
ED
100
AcDbEntity
  8
measures
  6
ByBlock
 62
    0
370
   -2
100
AcDbTrace
 10
344.802513055594
 20
308.6311343997535
 30
0
 11
345.2187977133668
 21
306.1311343997535
 31
0
 12
344.3862283978211
 22
306.1311343997535
 32
0
 13
344.3862283978211
 23
306.1311343997535
 33
0
  0
SOLID
  5
EE
100
AcDbEntity
  8
measures
  6
ByBlock
 62
    0
370
   -2
100
AcDbTrace
 10
344.802513055594
 20
271.6311343997544
 30
0
 11
344.3862283978211
 21
274.1311343997544
 31
0
 12
345.2187977133668
 22
274.1311343997544
 32
0
 13
345.2187977133668
 23
274.1311343997544
 33
0
  0
LINE
  5
EF
100
AcDbEntity
  8
measures
  6
ByBlock
 62
    0
370
   -2
100
AcDbLine
 10
254.8608490598016
 20
308.6311343997535
 11
346.052513055594
 21
308.6311343997535
  0
LINE
  5
F0
100
AcDbEntity
  8
measures
  6
ByBlock
 62
    0
370
   -2
100
AcDbLine
 10
254.8608490598016
 20
271.6311343997544
 11
346.052513055594
 21
271.6311343997544
  0
ENDBLK
  5
6F
330
6D
100
AcDbEntity
  8
0
100
AcDbBlockEnd
  0
BLOCK
  5
71
330
70
100
AcDbEntity
  8
0
100
AcDbBlockBegin
  2
*D32
 70
    1
 10
0
 20
0
  3
*D32
  1

  0
LINE
  5
F1
100
AcDbEntity
  8
measures
  6
ByBlock
 62
    0
370
   -2
100
AcDbLine
 10
254.2358490598016
 20
336.4186351709766
 11
319.2358490598018
 21
336.4186351709766
  0
MTEXT
  5
F2
100
AcDbEntity
  8
measures
  6
CONTINUOUS
 62
    0
370
   -2
100
AcDbMText
 10
286.7358490598017
 20
338.2936351709766
 30
0
 40
2.5
 41
3.055555555555866
 71
    5
 72
    1
  1
65
  7
STANDARD
210
0
220
0
230
1
 50
0
 73
    2
 44
1
  0
SOLID
  5
F3
100
AcDbEntity
  8
measures
  6
ByBlock
 62
    0
370
   -2
100
AcDbTrace
 10
254.2358490598016
 20
336.4186351709766
 30
0
 11
256.7358490598016
 21
336.8349198287495
 31
0
 12
256.7358490598016
 22
336.0023505132038
 32
0
 13
256.7358490598016
 23
336.0023505132038
 33
0
  0
SOLID
  5
F4
100
AcDbEntity
  8
measures
  6
ByBlock
 62
    0
370
   -2
100
AcDbTrace
 10
319.2358490598018
 20
336.4186351709766
 30
0
 11
316.7358490598018
 21
336.0023505132038
 31
0
 12
316.7358490598018
 22
336.8349198287495
 32
0
 13
316.7358490598018
 23
336.8349198287495
 33
0
  0
LINE
  5
F5
100
AcDbEntity
  8
measures
  6
ByBlock
 62
    0
370
   -2
100
AcDbLine
 10
254.2358490598016
 20
309.2561343997535
 11
254.2358490598016
 21
337.6686351709766
  0
LINE
  5
F6
100
AcDbEntity
  8
measures
  6
ByBlock
 62
    0
370
   -2
100
AcDbLine
 10
319.2358490598018
 20
330.4361343997519
 11
319.2358490598018
 21
337.6686351709766
  0
ENDBLK
  5
72
330
70
100
AcDbEntity
  8
0
100
AcDbBlockEnd
  0
BLOCK
  5
74
330
73
100
AcDbEntity
  8
0
100
AcDbBlockBegin
  2
*D22
 70
    1
 10
0
 20
0
  3
*D22
  1

  0
LINE
  5
F7
100
AcDbEntity
  8
measures
  6
ByBlock
 62
    0
370
   -2
100
AcDbLine
 10
436.35100305575
 20
233.6311343997519
 11
436.35100305575
 21
268.2711343997492
  0
MTEXT
  5
F8
100
AcDbEntity
  8
measures
  6
CONTINUOUS
 62
    0
370
   -2
100
AcDbMText
 10
434.47600305575
 20
250.9511343997505
 30
0
 40
2.5
 41
8.472222222222534
 71
    5
 72
    1
  1
34,64
  7
STANDARD
210
0
220
0
230
1
 50
90
 73
    2
 44
1
  0
SOLID
  5
F9
100
AcDbEntity
  8
measures
  6
ByBlock
 62
    0
370
   -2
100
AcDbTrace
 10
436.35100305575
 20
233.6311343997519
 30
0
 11
435.9347183979772
 21
236.1311343997519
 31
0
 12
436.7672877135229
 22
236.1311343997519
 32
0
 13
436.7672877135229
 23
236.1311343997519
 33
0
  0
SOLID
  5
FA
100
AcDbEntity
  8
measures
  6
ByBlock
 62
    0
370
   -2
100
AcDbTrace
 10
436.35100305575
 20
268.2711343997492
 30
0
 11
436.7672877135229
 21
265.7711343997492
 31
0
 12
435.9347183979772
 22
265.7711343997492
 32
0
 13
435.9347183979772
 23
265.7711343997492
 33
0
  0
LINE
  5
FB
100
AcDbEntity
  8
measures
  6
ByBlock
 62
    0
370
   -2
100
AcDbLine
 10
421.1461187578224
 20
233.6311343997519
 11
437.60100305575
 21
233.6311343997519
  0
LINE
  5
FC
100
AcDbEntity
  8
measures
  6
ByBlock
 62
    0
370
   -2
100
AcDbLine
 10
421.1461187578224
 20
268.2711343997492
 11
437.60100305575
 21
268.2711343997492
  0
ENDBLK
  5
75
330
73
100
AcDbEntity
  8
0
100
AcDbBlockEnd
  0
BLOCK
  5
77
330
76
100
AcDbEntity
  8
0
100
AcDbBlockBegin
  2
*D7
 70
    1
 10
0
 20
0
  3
*D7
  1

  0
LINE
  5
FD
100
AcDbEntity
  8
measures
  6
ByBlock
 62
    0
370
   -2
100
AcDbLine
 10
133.3813702483724
 20
220.3570994719297
 11
88.38137024837192
 21
220.3570994719297
  0
MTEXT
  5
FE
100
AcDbEntity
  8
measures
  6
CONTINUOUS
 62
    0
370
   -2
100
AcDbMText
 10
110.8813702483722
 20
222.2320994719297
 30
0
 40
2.5
 41
3.333333333333488
 71
    5
 72
    1
  1
45
  7
STANDARD
210
0
220
0
230
1
 50
0
 73
    2
 44
1
  0
SOLID
  5
FF
100
AcDbEntity
  8
measures
  6
ByBlock
 62
    0
370
   -2
100
AcDbTrace
 10
133.3813702483724
 20
220.3570994719297
 30
0
 11
130.8813702483724
 21
219.9408148141569
 31
0
 12
130.8813702483724
 22
220.7733841297025
 32
0
 13
130.8813702483724
 23
220.7733841297025
 33
0
  0
SOLID
  5
100
100
AcDbEntity
  8
measures
  6
ByBlock
 62
    0
370
   -2
100
AcDbTrace
 10
88.38137024837192
 20
220.3570994719297
 30
0
 11
90.88137024837192
 21
220.7733841297025
 31
0
 12
90.88137024837192
 22
219.9408148141569
 32
0
 13
90.88137024837192
 23
219.9408148141569
 33
0
  0
LINE
  5
101
100
AcDbEntity
  8
measures
  6
ByBlock
 62
    0
370
   -2
100
AcDbLine
 10
133.3813702483724
 20
233.0061343997519
 11
133.3813702483724
 21
219.1070994719297
  0
LINE
  5
102
100
AcDbEntity
  8
measures
  6
ByBlock
 62
    0
370
   -2
100
AcDbLine
 10
88.38137024837192
 20
233.0061343997519
 11
88.38137024837192
 21
219.1070994719297
  0
ENDBLK
  5
78
330
76
100
AcDbEntity
  8
0
100
AcDbBlockEnd
  0
BLOCK
  5
7A
330
79
100
AcDbEntity
  8
0
100
AcDbBlockBegin
  2
*D20
 70
    1
 10
0
 20
0
  3
*D20
  1

  0
LINE
  5
103
100
AcDbEntity
  8
measures
  6
ByBlock
 62
    0
370
   -2
100
AcDbLine
 10
180.3385984268996
 20
488.1157581828336
 11
189.286681450224
 21
541.8042563226447
  0
LINE
  5
104
100
AcDbEntity
  8
measures
  6
ByBlock
 62
    0
370
   -2
100
AcDbLine
 10
190.0683281566331
 20
486.4941365612073
 11
199.0164111799575
 21
540.1826347010184
  0
LINE
  5
105
100
AcDbEntity
  8
measures
  6
ByBlock
 62
    0
370
   -2
100
AcDbLine
 10
189.0811827160918
 20
540.5712639178546
 11
198.8109124458253
 21
538.9496422962283
  0
MTEXT
  5
106
100
AcDbEntity
  8
measures
  6
CONTINUOUS
 62
    0
370
   -2
100
AcDbMText
 10
194.2542956821569
 20
541.6099417142266
 30
0
 40
2.5
 41
5.972222222222688
 71
    5
 72
    1
  1
9,86
  7
STANDARD
210
0
220
0
230
1
 50
350.537677791951
 73
    2
 44
1
  0
SOLID
  5
107
100
AcDbEntity
  8
measures
  6
ByBlock
 62
    0
370
   -2
100
AcDbTrace
 10
189.0811827160918
 20
540.5712639178546
 30
0
 11
191.6156043018408
 21
540.5708871066018
 31
0
 12
191.4787307495032
 22
539.7496457925786
 32
0
 13
191.4787307495032
 23
539.7496457925786
 33
0
  0
SOLID
  5
108
100
AcDbEntity
  8
measures
  6
ByBlock
 62
    0
370
   -2
100
AcDbTrace
 10
198.8109124458253
 20
538.9496422962283
 30
0
 11
196.2764908600763
 21
538.950019107481
 31
0
 12
196.4133644124139
 22
539.7712604215043
 32
0
 13
196.4133644124139
 23
539.7712604215043
 33
0
  0
ENDBLK
  5
7B
330
79
100
AcDbEntity
  8
0
100
AcDbBlockEnd
  0
BLOCK
  5
7D
330
7C
100
AcDbEntity
  8
0
100
AcDbBlockBegin
  2
*D9
 70
    1
 10
0
 20
0
  3
*D9
  1

  0
LINE
  5
109
100
AcDbEntity
  8
measures
  6
ByBlock
 62
    0
370
   -2
100
AcDbLine
 10
369.8092500003183
 20
329.8111343997519
 11
369.8092500003183
 21
233.6311343997519
  0
MTEXT
  5
10A
100
AcDbEntity
  8
measures
  6
CONTINUOUS
 62
    0
370
   -2
100
AcDbMText
 10
367.9342500003183
 20
281.7211343997519
 30
0
 40
2.5
 41
7.361111111111576
 71
    5
 72
    1
  1
96,18
  7
STANDARD
210
0
220
0
230
1
 50
90
 73
    2
 44
1
  0
SOLID
  5
10B
100
AcDbEntity
  8
measures
  6
ByBlock
 62
    0
370
   -2
100
AcDbTrace
 10
369.8092500003183
 20
329.8111343997519
 30
0
 11
370.2255346580911
 21
327.3111343997519
 31
0
 12
369.3929653425454
 22
327.3111343997519
 32
0
 13
369.3929653425454
 23
327.3111343997519
 33
0
  0
SOLID
  5
10C
100
AcDbEntity
  8
measures
  6
ByBlock
 62
    0
370
   -2
100
AcDbTrace
 10
369.8092500003183
 20
233.6311343997519
 30
0
 11
369.3929653425454
 21
236.1311343997519
 31
0
 12
370.2255346580911
 22
236.1311343997519
 32
0
 13
370.2255346580911
 23
236.1311343997519
 33
0
  0
LINE
  5
10D
100
AcDbEntity
  8
measures
  6
ByBlock
 62
    0
370
   -2
100
AcDbLine
 10
379.8961187578205
 20
329.8111343997519
 11
368.5592500003183
 21
329.8111343997519
  0
LINE
  5
10E
100
AcDbEntity
  8
measures
  6
ByBlock
 62
    0
370
   -2
100
AcDbLine
 10
379.8961187578205
 20
233.6311343997519
 11
368.5592500003183
 21
233.6311343997519
  0
ENDBLK
  5
7E
330
7C
100
AcDbEntity
  8
0
100
AcDbBlockEnd
  0
BLOCK
  5
80
330
7F
100
AcDbEntity
  8
0
100
AcDbBlockBegin
  2
*D12
 70
    1
 10
0
 20
0
  3
*D12
  1

  0
LINE
  5
10F
100
AcDbEntity
  8
measures
  6
ByBlock
 62
    0
370
   -2
100
AcDbLine
 10
345.0928616119666
 20
271.6311343997544
 11
345.0928616119666
 21
233.6311343997516
  0
MTEXT
  5
110
100
AcDbEntity
  8
measures
  6
CONTINUOUS
 62
    0
370
   -2
100
AcDbMText
 10
343.2178616119666
 20
252.631134399753
 30
0
 40
2.5
 41
3.055555555555711
 71
    5
 72
    1
  1
38
  7
STANDARD
210
0
220
0
230
1
 50
90
 73
    2
 44
1
  0
SOLID
  5
111
100
AcDbEntity
  8
measures
  6
ByBlock
 62
    0
370
   -2
100
AcDbTrace
 10
345.0928616119666
 20
271.6311343997544
 30
0
 11
345.5091462697394
 21
269.1311343997544
 31
0
 12
344.6765769541937
 22
269.1311343997544
 32
0
 13
344.6765769541937
 23
269.1311343997544
 33
0
  0
SOLID
  5
112
100
AcDbEntity
  8
measures
  6
ByBlock
 62
    0
370
   -2
100
AcDbTrace
 10
345.0928616119666
 20
233.6311343997516
 30
0
 11
344.6765769541937
 21
236.1311343997516
 31
0
 12
345.5091462697394
 22
236.1311343997516
 32
0
 13
345.5091462697394
 23
236.1311343997516
 33
0
  0
LINE
  5
113
100
AcDbEntity
  8
measures
  6
ByBlock
 62
    0
370
   -2
100
AcDbLine
 10
254.8608490598016
 20
271.6311343997544
 11
346.3428616119666
 21
271.6311343997544
  0
LINE
  5
114
100
AcDbEntity
  8
measures
  6
ByBlock
 62
    0
370
   -2
100
AcDbLine
 10
334.8608490598019
 20
233.6311343997516
 11
346.3428616119666
 21
233.6311343997516
  0
ENDBLK
  5
81
330
7F
100
AcDbEntity
  8
0
100
AcDbBlockEnd
  0
BLOCK
  5
83
330
82
100
AcDbEntity
  8
0
100
AcDbBlockBegin
  2
*D17
 70
    1
 10
0
 20
0
  3
*D17
  1

  0
LINE
  5
115
100
AcDbEntity
  8
measures
  6
ByBlock
 62
    0
370
   -2
100
AcDbLine
 10
363.0588032193709
 20
600.7495820726378
 11
363.0588032193709
 21
693.7495820796793
  0
MTEXT
  5
116
100
AcDbEntity
  8
measures
  6
CONTINUOUS
 62
    0
370
   -2
100
AcDbMText
 10
361.1838032193709
 20
647.2495820761585
 30
0
 40
2.5
 41
3.055555555556021
 71
    5
 72
    1
  1
93
  7
STANDARD
210
0
220
0
230
1
 50
90
 73
    2
 44
1
  0
SOLID
  5
117
100
AcDbEntity
  8
measures
  6
ByBlock
 62
    0
370
   -2
100
AcDbTrace
 10
363.0588032193709
 20
600.7495820726378
 30
0
 11
362.6425185615981
 21
603.2495820726378
 31
0
 12
363.4750878771438
 22
603.2495820726378
 32
0
 13
363.4750878771438
 23
603.2495820726378
 33
0
  0
SOLID
  5
118
100
AcDbEntity
  8
measures
  6
ByBlock
 62
    0
370
   -2
100
AcDbTrace
 10
363.0588032193709
 20
693.7495820796793
 30
0
 11
363.4750878771438
 21
691.2495820796793
 31
0
 12
362.6425185615981
 22
691.2495820796793
 32
0
 13
362.6425185615981
 23
691.2495820796793
 33
0
  0
LINE
  5
119
100
AcDbEntity
  8
measures
  6
ByBlock
 62
    0
370
   -2
100
AcDbLine
 10
336.6108490598025
 20
600.7495820726378
 11
364.3088032193709
 21
600.7495820726378
  0
LINE
  5
11A
100
AcDbEntity
  8
measures
  6
ByBlock
 62
    0
370
   -2
100
AcDbLine
 10
321.1108490586269
 20
693.7495820796793
 11
364.3088032193709
 21
693.7495820796793
  0
ENDBLK
  5
84
330
82
100
AcDbEntity
  8
0
100
AcDbBlockEnd
  0
BLOCK
  5
86
330
85
100
AcDbEntity
  8
0
100
AcDbBlockBegin
  2
*D28
 70
    1
 10
0
 20
0
  3
*D28
  1

  0
LINE
  5
11B
100
AcDbEntity
  8
measures
  6
ByBlock
 62
    0
370
   -2
100
AcDbLine
 10
189.235849059802
 20
394.8844290246458
 11
239.2358490597978
 21
394.8844290246458
  0
MTEXT
  5
11C
100
AcDbEntity
  8
measures
  6
CONTINUOUS
 62
    0
370
   -2
100
AcDbMText
 10
214.2358490597999
 20
396.7594290246458
 30
0
 40
2.5
 41
3.055555555555711
 71
    5
 72
    1
  1
50
  7
STANDARD
210
0
220
0
230
1
 50
0
 73
    2
 44
1
  0
SOLID
  5
11D
100
AcDbEntity
  8
measures
  6
ByBlock
 62
    0
370
   -2
100
AcDbTrace
 10
189.235849059802
 20
394.8844290246458
 30
0
 11
191.735849059802
 21
395.3007136824186
 31
0
 12
191.735849059802
 22
394.4681443668729
 32
0
 13
191.735849059802
 23
394.4681443668729
 33
0
  0
SOLID
  5
11E
100
AcDbEntity
  8
measures
  6
ByBlock
 62
    0
370
   -2
100
AcDbTrace
 10
239.2358490597978
 20
394.8844290246458
 30
0
 11
236.7358490597978
 21
394.4681443668729
 31
0
 12
236.7358490597978
 22
395.3007136824186
 32
0
 13
236.7358490597978
 23
395.3007136824186
 33
0
  0
LINE
  5
11F
100
AcDbEntity
  8
measures
  6
ByBlock
 62
    0
370
   -2
100
AcDbLine
 10
189.235849059802
 20
389.3536147620185
 11
189.235849059802
 21
396.1344290246458
  0
LINE
  5
120
100
AcDbEntity
  8
measures
  6
ByBlock
 62
    0
370
   -2
100
AcDbLine
 10
239.2358490597978
 20
384.3536147620179
 11
239.2358490597978
 21
396.1344290246458
  0
ENDBLK
  5
87
330
85
100
AcDbEntity
  8
0
100
AcDbBlockEnd
  0
BLOCK
  5
89
330
88
100
AcDbEntity
  8
0
100
AcDbBlockBegin
  2
*D8
 70
    1
 10
0
 20
0
  3
*D8
  1

  0
LINE
  5
121
100
AcDbEntity
  8
measures
  6
ByBlock
 62
    0
370
   -2
100
AcDbLine
 10
79.07750161743374
 20
324.911134399752
 11
79.07750161743374
 21
233.6311343997519
  0
MTEXT
  5
122
100
AcDbEntity
  8
measures
  6
CONTINUOUS
 62
    0
370
   -2
100
AcDbMText
 10
77.20250161743375
 20
279.271134399752
 30
0
 40
2.5
 41
7.361111111111422
 71
    5
 72
    1
  1
91,28
  7
STANDARD
210
0
220
0
230
1
 50
90
 73
    2
 44
1
  0
SOLID
  5
123
100
AcDbEntity
  8
measures
  6
ByBlock
 62
    0
370
   -2
100
AcDbTrace
 10
79.07750161743374
 20
324.911134399752
 30
0
 11
79.49378627520657
 21
322.411134399752
 31
0
 12
78.6612169596609
 22
322.411134399752
 32
0
 13
78.6612169596609
 23
322.411134399752
 33
0
  0
SOLID
  5
124
100
AcDbEntity
  8
measures
  6
ByBlock
 62
    0
370
   -2
100
AcDbTrace
 10
79.07750161743374
 20
233.6311343997519
 30
0
 11
78.6612169596609
 21
236.1311343997519
 31
0
 12
79.49378627520657
 22
236.1311343997519
 32
0
 13
79.49378627520657
 23
236.1311343997519
 33
0
  0
LINE
  5
125
100
AcDbEntity
  8
measures
  6
ByBlock
 62
    0
370
   -2
100
AcDbLine
 10
87.75637024837181
 20
324.911134399752
 11
77.82750161743374
 21
324.911134399752
  0
LINE
  5
126
100
AcDbEntity
  8
measures
  6
ByBlock
 62
    0
370
   -2
100
AcDbLine
 10
87.75637024837187
 20
233.6311343997519
 11
77.82750161743374
 21
233.6311343997519
  0
ENDBLK
  5
8A
330
88
100
AcDbEntity
  8
0
100
AcDbBlockEnd
  0
BLOCK
  5
8C
330
8B
100
AcDbEntity
  8
0
100
AcDbBlockBegin
  2
*D16
 70
    1
 10
0
 20
0
  3
*D16
  1

  0
LINE
  5
127
100
AcDbEntity
  8
measures
  6
ByBlock
 62
    0
370
   -2
100
AcDbLine
 10
171.8693528574205
 20
600.8523314397225
 11
152.9044786998903
 21
604.013143799319
  0
LINE
  5
128
100
AcDbEntity
  8
measures
  6
ByBlock
 62
    0
370
   -2
100
AcDbLine
 10
187.3693528574566
 20
693.8523314397041
 11
168.4044786999264
 21
697.0131437993006
  0
LINE
  5
129
100
AcDbEntity
  8
measures
  6
ByBlock
 62
    0
370
   -2
100
AcDbLine
 10
154.1374711046804
 20
603.8076450651868
 11
169.6374711047165
 21
696.8076450651683
  0
MTEXT
  5
12A
100
AcDbEntity
  8
measures
  6
CONTINUOUS
 62
    0
370
   -2
100
AcDbMText
 10
160.0379824975132
 20
650.6158931663761
 30
0
 40
2.5
 41
8.194444444444756
 71
    5
 72
    1
  1
94,28
  7
STANDARD
210
0
220
0
230
1
 50
80.53767779195091
 73
    2
 44
1
  0
SOLID
  5
12B
100
AcDbEntity
  8
measures
  6
ByBlock
 62
    0
370
   -2
100
AcDbTrace
 10
154.1374711046804
 20
603.8076450651868
 30
0
 11
154.1378479159331
 21
606.3420666509357
 31
0
 12
154.9590892299564
 22
606.2051930985982
 32
0
 13
154.9590892299564
 23
606.2051930985982
 33
0
  0
SOLID
  5
12C
100
AcDbEntity
  8
measures
  6
ByBlock
 62
    0
370
   -2
100
AcDbTrace
 10
169.6374711047165
 20
696.8076450651683
 30
0
 11
169.6370942934637
 21
694.2732234794194
 31
0
 12
168.8158529794404
 22
694.4100970317569
 32
0
 13
168.8158529794404
 23
694.4100970317569
 33
0
  0
ENDBLK
  5
8D
330
8B
100
AcDbEntity
  8
0
100
AcDbBlockEnd
  0
BLOCK
  5
8F
330
8E
100
AcDbEntity
  8
0
100
AcDbBlockBegin
  2
*D24
 70
    1
 10
0
 20
0
  3
*D24
  1

  0
LINE
  5
12D
100
AcDbEntity
  8
measures
  6
ByBlock
 62
    0
370
   -2
100
AcDbLine
 10
445.8283099094496
 20
233.6311343997519
 11
445.8283099094496
 21
324.9111343997516
  0
MTEXT
  5
12E
100
AcDbEntity
  8
measures
  6
CONTINUOUS
 62
    0
370
   -2
100
AcDbMText
 10
443.9533099094496
 20
279.2711343997518
 30
0
 40
2.5
 41
7.361111111111422
 71
    5
 72
    1
  1
91,28
  7
STANDARD
210
0
220
0
230
1
 50
90
 73
    2
 44
1
  0
SOLID
  5
12F
100
AcDbEntity
  8
measures
  6
ByBlock
 62
    0
370
   -2
100
AcDbTrace
 10
445.8283099094496
 20
233.6311343997519
 30
0
 11
445.4120252516767
 21
236.1311343997519
 31
0
 12
446.2445945672224
 22
236.1311343997519
 32
0
 13
446.2445945672224
 23
236.1311343997519
 33
0
  0
SOLID
  5
130
100
AcDbEntity
  8
measures
  6
ByBlock
 62
    0
370
   -2
100
AcDbTrace
 10
445.8283099094496
 20
324.9111343997516
 30
0
 11
446.2445945672224
 21
322.4111343997516
 31
0
 12
445.4120252516767
 22
322.4111343997516
 32
0
 13
445.4120252516767
 23
322.4111343997516
 33
0
  0
LINE
  5
131
100
AcDbEntity
  8
measures
  6
ByBlock
 62
    0
370
   -2
100
AcDbLine
 10
426.1461187578211
 20
233.6311343997519
 11
447.0783099094496
 21
233.6311343997519
  0
LINE
  5
132
100
AcDbEntity
  8
measures
  6
ByBlock
 62
    0
370
   -2
100
AcDbLine
 10
426.1461187578211
 20
324.9111343997516
 11
447.0783099094496
 21
324.9111343997516
  0
ENDBLK
  5
90
330
8E
100
AcDbEntity
  8
0
100
AcDbBlockEnd
  0
BLOCK
  5
92
330
91
100
AcDbEntity
  8
0
100
AcDbBlockBegin
  2
*D14
 70
    1
 10
0
 20
0
  3
*D14
  1

  0
LINE
  5
133
100
AcDbEntity
  8
measures
  6
ByBlock
 62
    0
370
   -2
100
AcDbLine
 10
187.9858490598517
 20
706.0153532638514
 11
320.485849058627
 21
706.0153532638514
  0
MTEXT
  5
134
100
AcDbEntity
  8
measures
  6
CONTINUOUS
 62
    0
370
   -2
100
AcDbMText
 10
254.2358490592393
 20
707.8903532638514
 30
0
 40
2.5
 41
7.361111111111422
 71
    5
 72
    1
  1
132,5
  7
STANDARD
210
0
220
0
230
1
 50
0
 73
    2
 44
1
  0
SOLID
  5
135
100
AcDbEntity
  8
measures
  6
ByBlock
 62
    0
370
   -2
100
AcDbTrace
 10
187.9858490598517
 20
706.0153532638514
 30
0
 11
190.4858490598517
 21
706.4316379216242
 31
0
 12
190.4858490598517
 22
705.5990686060785
 32
0
 13
190.4858490598517
 23
705.5990686060785
 33
0
  0
SOLID
  5
136
100
AcDbEntity
  8
measures
  6
ByBlock
 62
    0
370
   -2
100
AcDbTrace
 10
320.485849058627
 20
706.0153532638514
 30
0
 11
317.985849058627
 21
705.5990686060785
 31
0
 12
317.985849058627
 22
706.4316379216242
 32
0
 13
317.985849058627
 23
706.4316379216242
 33
0
  0
LINE
  5
137
100
AcDbEntity
  8
measures
  6
ByBlock
 62
    0
370
   -2
100
AcDbLine
 10
187.9858490598517
 20
694.374582072638
 11
187.9858490598517
 21
707.2653532638514
  0
LINE
  5
138
100
AcDbEntity
  8
measures
  6
ByBlock
 62
    0
370
   -2
100
AcDbLine
 10
320.485849058627
 20
694.3745820796793
 11
320.485849058627
 21
707.2653532638514
  0
ENDBLK
  5
93
330
91
100
AcDbEntity
  8
0
100
AcDbBlockEnd
  0
BLOCK
  5
95
330
94
100
AcDbEntity
  8
0
100
AcDbBlockBegin
  2
*D27
 70
    1
 10
0
 20
0
  3
*D27
  1

  0
LINE
  5
139
100
AcDbEntity
  8
measures
  6
ByBlock
 62
    0
370
   -2
100
AcDbLine
 10
269.2358490598003
 20
177.1071718285139
 11
334.2358490598037
 21
177.1071718285139
  0
MTEXT
  5
13A
100
AcDbEntity
  8
measures
  6
CONTINUOUS
 62
    0
370
   -2
100
AcDbMText
 10
301.735849059802
 20
178.9821718285139
 30
0
 40
2.5
 41
3.055555555555866
 71
    5
 72
    1
  1
65
  7
STANDARD
210
0
220
0
230
1
 50
0
 73
    2
 44
1
  0
SOLID
  5
13B
100
AcDbEntity
  8
measures
  6
ByBlock
 62
    0
370
   -2
100
AcDbTrace
 10
269.2358490598003
 20
177.1071718285139
 30
0
 11
271.7358490598003
 21
177.5234564862867
 31
0
 12
271.7358490598003
 22
176.690887170741
 32
0
 13
271.7358490598003
 23
176.690887170741
 33
0
  0
SOLID
  5
13C
100
AcDbEntity
  8
measures
  6
ByBlock
 62
    0
370
   -2
100
AcDbTrace
 10
334.2358490598037
 20
177.1071718285139
 30
0
 11
331.7358490598037
 21
176.690887170741
 31
0
 12
331.7358490598037
 22
177.5234564862867
 32
0
 13
331.7358490598037
 23
177.5234564862867
 33
0
  0
LINE
  5
13D
100
AcDbEntity
  8
measures
  6
ByBlock
 62
    0
370
   -2
100
AcDbLine
 10
269.2358490598003
 20
189.4109622446984
 11
269.2358490598003
 21
175.8571718285139
  0
LINE
  5
13E
100
AcDbEntity
  8
measures
  6
ByBlock
 62
    0
370
   -2
100
AcDbLine
 10
334.2358490598037
 20
184.4109622447006
 11
334.2358490598037
 21
175.8571718285139
  0
ENDBLK
  5
96
330
94
100
AcDbEntity
  8
0
100
AcDbBlockEnd
  0
BLOCK
  5
98
330
97
100
AcDbEntity
  8
0
100
AcDbBlockBegin
  2
*D3
 70
    1
 10
0
 20
0
  3
*D3
  1

  0
LINE
  5
13F
100
AcDbEntity
  8
measures
  6
ByBlock
 62
    0
370
   -2
100
AcDbLine
 10
171.8693528574205
 20
441.1020113475137
 11
152.9044786998902
 21
444.2628237071101
  0
LINE
  5
140
100
AcDbEntity
  8
measures
  6
ByBlock
 62
    0
370
   -2
100
AcDbLine
 10
187.3693528574566
 20
534.1020113474952
 11
168.4044786999263
 21
537.2628237070917
  0
LINE
  5
141
100
AcDbEntity
  8
measures
  6
ByBlock
 62
    0
370
   -2
100
AcDbLine
 10
154.1374711046803
 20
444.0573249729779
 11
169.6374711047164
 21
537.0573249729595
  0
MTEXT
  5
142
100
AcDbEntity
  8
measures
  6
CONTINUOUS
 62
    0
370
   -2
100
AcDbMText
 10
160.0379824975131
 20
490.8655730741671
 30
0
 40
2.5
 41
8.194444444444756
 71
    5
 72
    1
  1
94,28
  7
STANDARD
210
0
220
0
230
1
 50
80.53767779195091
 73
    2
 44
1
  0
SOLID
  5
143
100
AcDbEntity
  8
measures
  6
ByBlock
 62
    0
370
   -2
100
AcDbTrace
 10
154.1374711046803
 20
444.0573249729779
 30
0
 11
154.1378479159331
 21
446.5917465587269
 31
0
 12
154.9590892299564
 22
446.4548730063893
 32
0
 13
154.9590892299564
 23
446.4548730063893
 33
0
  0
SOLID
  5
144
100
AcDbEntity
  8
measures
  6
ByBlock
 62
    0
370
   -2
100
AcDbTrace
 10
169.6374711047164
 20
537.0573249729595
 30
0
 11
169.6370942934637
 21
534.5229033872105
 31
0
 12
168.8158529794404
 22
534.659776939548
 32
0
 13
168.8158529794404
 23
534.659776939548
 33
0
  0
ENDBLK
  5
99
330
97
100
AcDbEntity
  8
0
100
AcDbBlockEnd
  0
BLOCK
  5
9B
330
9A
100
AcDbEntity
  8
0
100
AcDbBlockBegin
  2
*D13
 70
    1
 10
0
 20
0
  3
*D13
  1

  0
LINE
  5
145
100
AcDbEntity
  8
measures
  6
ByBlock
 62
    0
370
   -2
100
AcDbLine
 10
344.5978388588391
 20
308.6311343997535
 11
344.5978388588391
 21
329.8111343997519
  0
MTEXT
  5
146
100
AcDbEntity
  8
measures
  6
CONTINUOUS
 62
    0
370
   -2
100
AcDbMText
 10
342.7228388588391
 20
319.2211343997527
 30
0
 40
2.5
 41
6.805555555555555
 71
    5
 72
    1
  1
21,18
  7
STANDARD
210
0
220
0
230
1
 50
90
 73
    2
 44
1
  0
SOLID
  5
147
100
AcDbEntity
  8
measures
  6
ByBlock
 62
    0
370
   -2
100
AcDbTrace
 10
344.5978388588391
 20
308.6311343997535
 30
0
 11
344.1815542010663
 21
311.1311343997535
 31
0
 12
345.014123516612
 22
311.1311343997535
 32
0
 13
345.014123516612
 23
311.1311343997535
 33
0
  0
SOLID
  5
148
100
AcDbEntity
  8
measures
  6
ByBlock
 62
    0
370
   -2
100
AcDbTrace
 10
344.5978388588391
 20
329.8111343997519
 30
0
 11
345.014123516612
 21
327.3111343997519
 31
0
 12
344.1815542010663
 22
327.3111343997519
 32
0
 13
344.1815542010663
 23
327.3111343997519
 33
0
  0
LINE
  5
149
100
AcDbEntity
  8
measures
  6
ByBlock
 62
    0
370
   -2
100
AcDbLine
 10
254.8608490598016
 20
308.6311343997535
 11
345.8478388588391
 21
308.6311343997535
  0
LINE
  5
14A
100
AcDbEntity
  8
measures
  6
ByBlock
 62
    0
370
   -2
100
AcDbLine
 10
319.8608490598018
 20
329.8111343997519
 11
345.8478388588391
 21
329.8111343997519
  0
ENDBLK
  5
9C
330
9A
100
AcDbEntity
  8
0
100
AcDbBlockEnd
  0
BLOCK
  5
9E
330
9D
100
AcDbEntity
  8
0
100
AcDbBlockBegin
  2
*D15
 70
    1
 10
0
 20
0
  3
*D15
  1

  0
LINE
  5
14B
100
AcDbEntity
  8
measures
  6
ByBlock
 62
    0
370
   -2
100
AcDbLine
 10
172.4858490598156
 20
576.8823012492576
 11
335.9858490598025
 21
576.8823012492576
  0
MTEXT
  5
14C
100
AcDbEntity
  8
measures
  6
CONTINUOUS
 62
    0
370
   -2
100
AcDbMText
 10
254.2358490598091
 20
578.7573012492576
 30
0
 40
2.5
 41
7.361111111111576
 71
    5
 72
    1
  1
163,5
  7
STANDARD
210
0
220
0
230
1
 50
0
 73
    2
 44
1
  0
SOLID
  5
14D
100
AcDbEntity
  8
measures
  6
ByBlock
 62
    0
370
   -2
100
AcDbTrace
 10
172.4858490598156
 20
576.8823012492576
 30
0
 11
174.9858490598156
 21
577.2985859070304
 31
0
 12
174.9858490598156
 22
576.4660165914847
 32
0
 13
174.9858490598156
 23
576.4660165914847
 33
0
  0
SOLID
  5
14E
100
AcDbEntity
  8
measures
  6
ByBlock
 62
    0
370
   -2
100
AcDbTrace
 10
335.9858490598025
 20
576.8823012492576
 30
0
 11
333.4858490598025
 21
576.4660165914847
 31
0
 12
333.4858490598025
 22
577.2985859070304
 32
0
 13
333.4858490598025
 23
577.2985859070304
 33
0
  0
LINE
  5
14F
100
AcDbEntity
  8
measures
  6
ByBlock
 62
    0
370
   -2
100
AcDbLine
 10
172.4858490598156
 20
600.1245820726565
 11
172.4858490598156
 21
575.6323012492576
  0
LINE
  5
150
100
AcDbEntity
  8
measures
  6
ByBlock
 62
    0
370
   -2
100
AcDbLine
 10
335.9858490598025
 20
600.1245820726378
 11
335.9858490598025
 21
575.6323012492576
  0
ENDBLK
  5
9F
330
9D
100
AcDbEntity
  8
0
100
AcDbBlockEnd
  0
BLOCK
  5
A1
330
A0
100
AcDbEntity
  8
0
100
AcDbBlockBegin
  2
*D6
 70
    1
 10
0
 20
0
  3
*D6
  1

  0
LINE
  5
151
100
AcDbEntity
  8
measures
  6
ByBlock
 62
    0
370
   -2
100
AcDbLine
 10
345.0552190758492
 20
343.728614762019
 11
345.0552190758492
 21
388.7286147620185
  0
MTEXT
  5
152
100
AcDbEntity
  8
measures
  6
CONTINUOUS
 62
    0
370
   -2
100
AcDbMText
 10
343.1802190758492
 20
366.2286147620188
 30
0
 40
2.5
 41
3.333333333333488
 71
    5
 72
    1
  1
45
  7
STANDARD
210
0
220
0
230
1
 50
90
 73
    2
 44
1
  0
SOLID
  5
153
100
AcDbEntity
  8
measures
  6
ByBlock
 62
    0
370
   -2
100
AcDbTrace
 10
345.0552190758492
 20
343.728614762019
 30
0
 11
344.6389344180764
 21
346.228614762019
 31
0
 12
345.4715037336221
 22
346.228614762019
 32
0
 13
345.4715037336221
 23
346.228614762019
 33
0
  0
SOLID
  5
154
100
AcDbEntity
  8
measures
  6
ByBlock
 62
    0
370
   -2
100
AcDbTrace
 10
345.0552190758492
 20
388.7286147620185
 30
0
 11
345.4715037336221
 21
386.2286147620185
 31
0
 12
344.6389344180764
 22
386.2286147620185
 32
0
 13
344.6389344180764
 23
386.2286147620185
 33
0
  0
LINE
  5
155
100
AcDbEntity
  8
measures
  6
ByBlock
 62
    0
370
   -2
100
AcDbLine
 10
319.8608490598018
 20
343.728614762019
 11
346.3052190758492
 21
343.728614762019
  0
LINE
  5
156
100
AcDbEntity
  8
measures
  6
ByBlock
 62
    0
370
   -2
100
AcDbLine
 10
319.8608490598018
 20
388.7286147620185
 11
346.3052190758492
 21
388.7286147620185
  0
ENDBLK
  5
A2
330
A0
100
AcDbEntity
  8
0
100
AcDbBlockEnd
  0
BLOCK
  5
A4
330
A3
100
AcDbEntity
  8
0
100
AcDbBlockBegin
  2
*D18
 70
    1
 10
0
 20
0
  3
*D18
  1

  0
LINE
  5
157
100
AcDbEntity
  8
measures
  6
ByBlock
 62
    0
370
   -2
100
AcDbLine
 10
348.1897381564513
 20
440.99926198043
 11
348.1897381564513
 21
450.8632012187545
  0
MTEXT
  5
158
100
AcDbEntity
  8
measures
  6
CONTINUOUS
 62
    0
370
   -2
100
AcDbMText
 10
346.3147381564513
 20
445.9312315995923
 30
0
 40
2.5
 41
5.972222222222688
 71
    5
 72
    1
  1
9,86
  7
STANDARD
210
0
220
0
230
1
 50
90
 73
    2
 44
1
  0
SOLID
  5
159
100
AcDbEntity
  8
measures
  6
ByBlock
 62
    0
370
   -2
100
AcDbTrace
 10
348.1897381564513
 20
440.99926198043
 30
0
 11
347.7734534986784
 21
443.49926198043
 31
0
 12
348.6060228142241
 22
443.49926198043
 32
0
 13
348.6060228142241
 23
443.49926198043
 33
0
  0
SOLID
  5
15A
100
AcDbEntity
  8
measures
  6
ByBlock
 62
    0
370
   -2
100
AcDbTrace
 10
348.1897381564513
 20
450.8632012187545
 30
0
 11
348.6060228142241
 21
448.3632012187545
 31
0
 12
347.7734534986784
 22
448.3632012187545
 32
0
 13
347.7734534986784
 23
448.3632012187545
 33
0
  0
LINE
  5
15B
100
AcDbEntity
  8
measures
  6
ByBlock
 62
    0
370
   -2
100
AcDbLine
 10
326.6108490598696
 20
440.99926198043
 11
349.4397381564513
 21
440.99926198043
  0
LINE
  5
15C
100
AcDbEntity
  8
measures
  6
ByBlock
 62
    0
370
   -2
100
AcDbLine
 10
324.9668591868079
 20
450.8632012187545
 11
349.4397381564513
 21
450.8632012187545
  0
ENDBLK
  5
A5
330
A3
100
AcDbEntity
  8
0
100
AcDbBlockEnd
  0
BLOCK
  5
A7
330
A6
100
AcDbEntity
  8
0
100
AcDbBlockBegin
  2
*D1
 70
    1
 10
0
 20
0
  3
*D1
  1

  0
LINE
  5
15D
100
AcDbEntity
  8
measures
  6
ByBlock
 62
    0
370
   -2
100
AcDbLine
 10
187.9858490598516
 20
546.2650331716425
 11
320.4858490586269
 21
546.2650331716425
  0
MTEXT
  5
15E
100
AcDbEntity
  8
measures
  6
CONTINUOUS
 62
    0
370
   -2
100
AcDbMText
 10
254.2358490592392
 20
548.1400331716425
 30
0
 40
2.5
 41
7.361111111111422
 71
    5
 72
    1
  1
132,5
  7
STANDARD
210
0
220
0
230
1
 50
0
 73
    2
 44
1
  0
SOLID
  5
15F
100
AcDbEntity
  8
measures
  6
ByBlock
 62
    0
370
   -2
100
AcDbTrace
 10
187.9858490598516
 20
546.2650331716425
 30
0
 11
190.4858490598516
 21
546.6813178294153
 31
0
 12
190.4858490598516
 22
545.8487485138696
 32
0
 13
190.4858490598516
 23
545.8487485138696
 33
0
  0
SOLID
  5
160
100
AcDbEntity
  8
measures
  6
ByBlock
 62
    0
370
   -2
100
AcDbTrace
 10
320.4858490586269
 20
546.2650331716425
 30
0
 11
317.9858490586269
 21
545.8487485138696
 31
0
 12
317.9858490586269
 22
546.6813178294153
 32
0
 13
317.9858490586269
 23
546.6813178294153
 33
0
  0
LINE
  5
161
100
AcDbEntity
  8
measures
  6
ByBlock
 62
    0
370
   -2
100
AcDbLine
 10
187.9858490598516
 20
534.6242619804291
 11
187.9858490598516
 21
547.5150331716425
  0
LINE
  5
162
100
AcDbEntity
  8
measures
  6
ByBlock
 62
    0
370
   -2
100
AcDbLine
 10
320.4858490586269
 20
534.6242619874704
 11
320.4858490586269
 21
547.5150331716425
  0
ENDBLK
  5
A8
330
A6
100
AcDbEntity
  8
0
100
AcDbBlockEnd
  0
BLOCK
  5
AA
330
A9
100
AcDbEntity
  8
0
100
AcDbBlockBegin
  2
*D26
 70
    1
 10
0
 20
0
  3
*D26
  1

  0
LINE
  5
163
100
AcDbEntity
  8
measures
  6
ByBlock
 62
    0
370
   -2
100
AcDbLine
 10
239.2358490598028
 20
176.9097279357285
 11
269.2358490598003
 21
176.9097279357285
  0
MTEXT
  5
164
100
AcDbEntity
  8
measures
  6
CONTINUOUS
 62
    0
370
   -2
100
AcDbMText
 10
254.2358490598016
 20
178.7847279357285
 30
0
 40
2.5
 41
3.055555555555711
 71
    5
 72
    1
  1
30
  7
STANDARD
210
0
220
0
230
1
 50
0
 73
    2
 44
1
  0
SOLID
  5
165
100
AcDbEntity
  8
measures
  6
ByBlock
 62
    0
370
   -2
100
AcDbTrace
 10
239.2358490598028
 20
176.9097279357285
 30
0
 11
241.7358490598028
 21
177.3260125935013
 31
0
 12
241.7358490598028
 22
176.4934432779556
 32
0
 13
241.7358490598028
 23
176.4934432779556
 33
0
  0
SOLID
  5
166
100
AcDbEntity
  8
measures
  6
ByBlock
 62
    0
370
   -2
100
AcDbTrace
 10
269.2358490598003
 20
176.9097279357285
 30
0
 11
266.7358490598003
 21
176.4934432779556
 31
0
 12
266.7358490598003
 22
177.3260125935013
 32
0
 13
266.7358490598003
 23
177.3260125935013
 33
0
  0
LINE
  5
167
100
AcDbEntity
  8
measures
  6
ByBlock
 62
    0
370
   -2
100
AcDbLine
 10
239.2358490598028
 20
189.410962244698
 11
239.2358490598028
 21
175.6597279357285
  0
LINE
  5
168
100
AcDbEntity
  8
measures
  6
ByBlock
 62
    0
370
   -2
100
AcDbLine
 10
269.2358490598003
 20
189.4109622446984
 11
269.2358490598003
 21
175.6597279357285
  0
ENDBLK
  5
AB
330
A9
100
AcDbEntity
  8
0
100
AcDbBlockEnd
  0
BLOCK
  5
AD
330
AC
100
AcDbEntity
  8
0
100
AcDbBlockBegin
  2
*D5
 70
    1
 10
0
 20
0
  3
*D5
  1

  0
LINE
  5
169
100
AcDbEntity
  8
measures
  6
ByBlock
 62
    0
370
   -2
100
AcDbLine
 10
380.5211187578205
 20
220.3570994719297
 11
425.521118757821
 21
220.3570994719297
  0
MTEXT
  5
16A
100
AcDbEntity
  8
measures
  6
CONTINUOUS
 62
    0
370
   -2
100
AcDbMText
 10
403.0211187578207
 20
222.2320994719297
 30
0
 40
2.5
 41
3.333333333333488
 71
    5
 72
    1
  1
45
  7
STANDARD
210
0
220
0
230
1
 50
0
 73
    2
 44
1
  0
SOLID
  5
16B
100
AcDbEntity
  8
measures
  6
ByBlock
 62
    0
370
   -2
100
AcDbTrace
 10
380.5211187578205
 20
220.3570994719297
 30
0
 11
383.0211187578205
 21
220.7733841297025
 31
0
 12
383.0211187578205
 22
219.9408148141569
 32
0
 13
383.0211187578205
 23
219.9408148141569
 33
0
  0
SOLID
  5
16C
100
AcDbEntity
  8
measures
  6
ByBlock
 62
    0
370
   -2
100
AcDbTrace
 10
425.521118757821
 20
220.3570994719297
 30
0
 11
423.021118757821
 21
219.9408148141569
 31
0
 12
423.021118757821
 22
220.7733841297025
 32
0
 13
423.021118757821
 23
220.7733841297025
 33
0
  0
LINE
  5
16D
100
AcDbEntity
  8
measures
  6
ByBlock
 62
    0
370
   -2
100
AcDbLine
 10
380.5211187578205
 20
233.0061343997519
 11
380.5211187578205
 21
219.1070994719297
  0
LINE
  5
16E
100
AcDbEntity
  8
measures
  6
ByBlock
 62
    0
370
   -2
100
AcDbLine
 10
425.521118757821
 20
233.0061343997519
 11
425.521118757821
 21
219.1070994719297
  0
ENDBLK
  5
AE
330
AC
100
AcDbEntity
  8
0
100
AcDbBlockEnd
  0
ENDSEC
  0
SECTION
  2
ENTITIES
  0
LINE
  5
16F
100
AcDbEntity
  8
builder
  6
ByLayer
 62
  256
370
   -1
100
AcDbLine
 10
254.2358490598016
 20
243.7573998027951
 11
254.2358490598016
 21
468.9240047867477
  0
LINE
  5
170
100
AcDbEntity
  8
builder
  6
ByLayer
 62
  256
370
   -1
100
AcDbLine
 10
254.2358490598016
 20
468.9240047867477
 11
254.2358490598016
 21
730.0757959577809
  0
LINE
  5
171
100
AcDbEntity
  8
builder
  6
ByLayer
 62
  256
370
   -1
100
AcDbLine
 10
334.2358490598037
 20
440.9992619804291
 11
174.235849059801
 21
440.9992619804474
  0
LINE
  5
172
100
AcDbEntity
  8
builder
  6
ByLayer
 62
  256
370
   -1
100
AcDbLine
 10
189.235849059802
 20
533.9992619804291
 11
319.2358490598018
 21
533.9992619804351
  0
LINE
  5
173
100
AcDbEntity
  8
builder
  6
ByLayer
 62
  256
370
   -1
100
AcDbLine
 10
319.2358490598018
 20
533.9992619804351
 11
319.2358591597225
 21
533.9992619804352
  0
LINE
  5
174
100
AcDbEntity
  8
builder
  6
ByLayer
 62
  256
370
   -1
100
AcDbLine
 10
320.7358490597992
 20
532.499261980436
 11
335.7358490598014
 21
442.4992619804359
  0
LINE
  5
175
100
AcDbEntity
  8
builder
  6
ByLayer
 62
  256
370
   -1
100
AcDbLine
 10
187.7358490598521
 20
532.4992619804359
 11
172.7358490598141
 21
442.4992619804358
  0
LINE
  5
176
100
AcDbEntity
  8
0
  6
ByLayer
 62
  256
370
   -1
100
AcDbLine
 10
172.4858490598155
 20
440.9992619804476
 11
335.9858490598025
 21
440.9992619804289
  0
LINE
  5
177
100
AcDbEntity
  8
0
  6
ByLayer
 62
  256
370
   -1
100
AcDbLine
 10
335.9858490598025
 20
440.9992619804289
 11
320.4858490586269
 21
533.9992619874703
  0
LINE
  5
178
100
AcDbEntity
  8
0
  6
ByLayer
 62
  256
370
   -1
100
AcDbLine
 10
320.4858490586269
 20
533.9992619874703
 11
187.9858490598516
 21
533.9992619804291
  0
LINE
  5
179
100
AcDbEntity
  8
0
  6
ByLayer
 62
  256
370
   -1
100
AcDbLine
 10
187.9858490598516
 20
533.9992619804291
 11
172.4858490598155
 21
440.9992619804476
  0
DIMENSION
  5
17A
100
AcDbEntity
  8
measures
  6
ByLayer
 62
  256
370
   -1
100
AcDbDimension
  2
*D1
 10
320.4858490586269
 20
546.2650331716425
 30
0
 11
254.2358490592392
 21
548.1400331716425
 31
0
 70
   32
 71
    5
  3
Standard
 53
0
210
0
220
0
230
1
100
AcDbAlignedDimension
 13
187.9858490598516
 23
533.9992619804291
 33
0
 14
320.4858490586269
 24
533.9992619874704
 34
0
100
AcDbRotatedDimension
  0
LINE
  5
17B
100
AcDbEntity
  8
builder
  6
ByLayer
 62
  256
370
   -1
100
AcDbLine
 10
187.9858490598516
 20
533.9992619804291
 11
172.4858490598155
 21
440.9992619804476
  0
DIMENSION
  5
17C
100
AcDbEntity
  8
measures
  6
ByLayer
 62
  256
370
   -1
100
AcDbDimension
  2
*D2
 10
335.9858490598025
 20
417.1319811570487
 30
0
 11
254.235849059809
 21
419.0069811570487
 31
0
 70
   32
 71
    5
  3
Standard
 53
0
210
0
220
0
230
1
100
AcDbAlignedDimension
 13
172.4858490598155
 23
440.9992619804476
 33
0
 14
335.9858490598025
 24
440.9992619804289
 34
0
100
AcDbRotatedDimension
  0
DIMENSION
  5
17D
100
AcDbEntity
  8
measures
  6
ByLayer
 62
  256
370
   -1
100
AcDbDimension
  2
*D3
 10
169.6374711047164
 20
537.0573249729595
 30
0
 11
160.0379824975131
 21
490.8655730741671
 31
0
 70
   33
 71
    5
  3
Standard
 53
0
210
0
220
0
230
1
100
AcDbAlignedDimension
 13
172.4858490598155
 23
440.9992619804476
 33
0
 14
187.9858490598516
 24
533.9992619804292
 34
0
  0
DIMENSION
  5
17E
100
AcDbEntity
  8
measures
  6
ByLayer
 62
  256
370
   -1
100
AcDbDimension
  2
*D4
 10
363.0588032193709
 20
533.9992619874704
 30
0
 11
361.1838032193709
 21
487.4992619839496
 31
0
 70
   32
 71
    5
  3
Standard
 53
0
210
0
220
0
230
1
100
AcDbAlignedDimension
 13
335.9858490598025
 23
440.9992619804289
 33
0
 14
320.4858490586268
 24
533.9992619874704
 34
0
 50
90
100
AcDbRotatedDimension
  0
LINE
  5
17F
100
AcDbEntity
  8
builder
  6
CONTINUOUS
 62
  256
370
   -1
100
AcDbLine
 10
329.2358490598019
 20
233.6311343997519
 11
489.5444077819965
 21
233.6311343997519
  0
LINE
  5
180
100
AcDbEntity
  8
builder
  6
ByLayer
 62
  256
370
   -1
100
AcDbLine
 10
189.235849059802
 20
333.6311343997519
 11
189.235849059802
 21
323.6311343997519
  0
LINE
  5
181
100
AcDbEntity
  8
builder
  6
ByLayer
 62
  256
370
   -1
100
AcDbLine
 10
319.2358490598018
 20
333.6311343997519
 11
319.2358490598018
 21
323.6311343997519
  0
LINE
  5
182
100
AcDbEntity
  8
builder
  6
ByLayer
 62
  256
370
   -1
100
AcDbLine
 10
179.2358490598019
 20
233.6311343997517
 11
127.0648233632187
 21
233.6311343997517
  0
LINE
  5
183
100
AcDbEntity
  8
builder
  6
ByLayer
 62
  256
370
   -1
100
AcDbLine
 10
380.5211187578205
 20
233.6311343997519
 11
380.5211187578205
 21
338.2156147620099
  0
LINE
  5
184
100
AcDbEntity
  8
builder
  6
ByLayer
 62
  256
370
   -1
100
AcDbLine
 10
425.5211187578211
 20
233.6311343997519
 11
425.5211187578211
 21
338.9656147620104
  0
LINE
  5
185
100
AcDbEntity
  8
0
  6
ByLayer
 62
  256
370
   -1
100
AcDbLine
 10
425.5211187578211
 20
233.6311343997519
 11
380.5211187578205
 21
233.6311343997519
  0
DIMENSION
  5
186
100
AcDbEntity
  8
measures
  6
ByLayer
 62
  256
370
   -1
100
AcDbDimension
  2
*D5
 10
425.521118757821
 20
220.3570994719297
 30
0
 11
403.0211187578207
 21
222.2320994719297
 31
0
 70
   32
 71
    5
  3
Standard
 53
0
210
0
220
0
230
1
100
AcDbAlignedDimension
 13
380.5211187578205
 23
233.6311343997519
 33
0
 14
425.521118757821
 24
233.6311343997519
 34
0
100
AcDbRotatedDimension
  0
LINE
  5
187
100
AcDbEntity
  8
builder
  6
ByLayer
 62
  256
370
   -1
100
AcDbLine
 10
165.4895016174954
 20
343.728614762019
 11
331.775751617615
 21
343.728614762019
  0
LINE
  5
188
100
AcDbEntity
  8
builder
  6
ByLayer
 62
  256
370
   -1
100
AcDbLine
 10
319.2358490598018
 20
328.6311343997447
 11
319.2358490598018
 21
349.4996019530531
  0
LINE
  5
189
100
AcDbEntity
  8
builder
  6
ByLayer
 62
  256
370
   -1
100
AcDbLine
 10
319.2358490598018
 20
349.4996019530531
 11
319.2358490598018
 21
373.4656147620408
  0
LINE
  5
18A
100
AcDbEntity
  8
builder
  6
ByLayer
 62
  256
370
   -1
100
AcDbLine
 10
165.4895016174954
 20
388.7286147620185
 11
331.775751617615
 21
388.7286147620185
  0
LINE
  5
18B
100
AcDbEntity
  8
builder
  6
ByLayer
 62
  256
370
   -1
100
AcDbLine
 10
189.235849059802
 20
328.631134399745
 11
189.235849059802
 21
394.4251826570521
  0
LWPOLYLINE
  5
18C
100
AcDbEntity
  8
0
  6
ByLayer
 62
  256
370
   -1
100
AcDbPolyline
 90
    4
 70
    1
 43
0
 10
189.235849059802
 20
388.7286147620185
 10
319.2358490598018
 20
388.7286147620185
 10
319.2358490598018
 20
343.728614762019
 10
189.235849059802
 20
343.728614762019
  0
DIMENSION
  5
18D
100
AcDbEntity
  8
measures
  6
ByLayer
 62
  256
370
   -1
100
AcDbDimension
  2
*D6
 10
345.0552190758492
 20
388.7286147620185
 30
0
 11
343.1802190758492
 21
366.2286147620188
 31
0
 70
   32
 71
    5
  3
Standard
 53
0
210
0
220
0
230
1
100
AcDbAlignedDimension
 13
319.2358490598018
 23
343.728614762019
 33
0
 14
319.2358490598018
 24
388.7286147620185
 34
0
 50
90
100
AcDbRotatedDimension
  0
LINE
  5
18E
100
AcDbEntity
  8
builder
  6
ByLayer
 62
  256
370
   -1
100
AcDbLine
 10
133.3813702483724
 20
233.6311343997519
 11
133.3813702483724
 21
338.2156147620099
  0
LINE
  5
18F
100
AcDbEntity
  8
builder
  6
ByLayer
 62
  256
370
   -1
100
AcDbLine
 10
88.38137024837181
 20
233.6311343997519
 11
88.38137024837181
 21
338.9656147620104
  0
LINE
  5
190
100
AcDbEntity
  8
0
  6
ByLayer
 62
  256
370
   -1
100
AcDbLine
 10
88.38137024837187
 20
233.6311343997519
 11
133.3813702483724
 21
233.6311343997519
  0
DIMENSION
  5
191
100
AcDbEntity
  8
measures
  6
ByLayer
 62
  256
370
   -1
100
AcDbDimension
  2
*D7
 10
88.38137024837192
 20
220.3570994719297
 30
0
 11
110.8813702483722
 21
222.2320994719297
 31
0
 70
   32
 71
    5
  3
Standard
 53
0
210
0
220
0
230
1
100
AcDbAlignedDimension
 13
133.3813702483724
 23
233.6311343997519
 33
0
 14
88.38137024837192
 24
233.6311343997519
 34
0
 50
180
100
AcDbRotatedDimension
  0
LINE
  5
192
100
AcDbEntity
  8
0
  6
ByLayer
 62
  256
370
   -1
100
AcDbLine
 10
380.5211187578205
 20
329.8111343997519
 11
425.5211187578212
 21
324.9111343997516
  0
LINE
  5
193
100
AcDbEntity
  8
0
  6
ByLayer
 62
  256
370
   -1
100
AcDbLine
 10
425.5211187578211
 20
233.6311343997519
 11
425.5211187578211
 21
324.9111343997516
  0
LINE
  5
194
100
AcDbEntity
  8
0
  6
ByLayer
 62
  256
370
   -1
100
AcDbLine
 10
133.3813702483724
 20
329.8111343997519
 11
88.38137024837181
 21
324.911134399752
  0
LINE
  5
195
100
AcDbEntity
  8
0
  6
ByLayer
 62
  256
370
   -1
100
AcDbLine
 10
88.38137024837181
 20
324.911134399752
 11
88.38137024837187
 21
233.6311343997519
  0
DIMENSION
  5
196
100
AcDbEntity
  8
measures
  6
ByLayer
 62
  256
370
   -1
100
AcDbDimension
  2
*D8
 10
79.07750161743374
 20
233.6311343997519
 30
0
 11
77.20250161743375
 21
279.271134399752
 31
0
 70
   32
 71
    5
  3
Standard
 53
0
210
0
220
0
230
1
100
AcDbAlignedDimension
 13
88.38137024837181
 23
324.911134399752
 33
0
 14
88.38137024837187
 24
233.6311343997519
 34
0
 50
90
100
AcDbRotatedDimension
  0
CIRCLE
  5
197
100
AcDbEntity
  8
0
  6
ByLayer
 62
  256
370
   -1
100
AcDbCircle
 10
274.2358490597999
 20
631.7495820726442
 40
2.5
  0
CIRCLE
  5
198
100
AcDbEntity
  8
0
  6
ByLayer
 62
  256
370
   -1
100
AcDbCircle
 10
274.2358490597995
 20
658.749582072643
 40
2.5
  0
CIRCLE
  5
199
100
AcDbEntity
  8
0
  6
ByLayer
 62
  256
370
   -1
100
AcDbCircle
 10
234.2358490598021
 20
658.7495820726452
 40
2.5
  0
CIRCLE
  5
19A
100
AcDbEntity
  8
0
  6
ByLayer
 62
  256
370
   -1
100
AcDbCircle
 10
234.2358490598018
 20
631.7495820726446
 40
2.5
  0
LINE
  5
19B
100
AcDbEntity
  8
builder
  6
ByLayer
 62
  256
370
   -1
100
AcDbLine
 10
234.2358490598018
 20
631.7495820726446
 11
274.2358490597995
 21
658.749582072643
  0
LINE
  5
19C
100
AcDbEntity
  8
builder
  6
ByLayer
 62
  256
370
   -1
100
AcDbLine
 10
274.2358490597999
 20
631.7495820726442
 11
234.2358490598021
 21
658.7495820726452
  0
LINE
  5
19D
100
AcDbEntity
  8
0
  6
ByLayer
 62
  256
370
   -1
100
AcDbLine
 10
380.5211187578205
 20
329.8111343997519
 11
380.5211187578205
 21
258.6311343997519
  0
LINE
  5
19E
100
AcDbEntity
  8
0
  6
ByLayer
 62
  256
370
   -1
100
AcDbLine
 10
133.3813702483724
 20
329.8111343997519
 11
133.3813702483724
 21
258.631134399752
  0
LINE
  5
19F
100
AcDbEntity
  8
0
  6
ByLayer
 62
  256
370
   -1
100
AcDbLine
 10
133.3813702483724
 20
258.631134399752
 11
133.3813702483724
 21
233.6311343997519
  0
LINE
  5
1A0
100
AcDbEntity
  8
0
  6
ByLayer
 62
  256
370
   -1
100
AcDbLine
 10
380.5211187578205
 20
233.6311343997519
 11
380.5211187578205
 21
258.6311343997519
  0
DIMENSION
  5
1A1
100
AcDbEntity
  8
measures
  6
ByLayer
 62
  256
370
   -1
100
AcDbDimension
  2
*D9
 10
369.8092500003183
 20
233.6311343997519
 30
0
 11
367.9342500003183
 21
281.7211343997519
 31
0
 70
   32
 71
    5
 72
    0
  3
Standard
 53
0
210
0
220
0
230
1
100
AcDbAlignedDimension
 13
380.5211187578205
 23
329.8111343997519
 33
0
 14
380.5211187578205
 24
233.6311343997519
 34
0
 50
90
100
AcDbRotatedDimension
  0
LINE
  5
1A2
100
AcDbEntity
  8
builder
  6
ByLayer
 62
  256
370
   -1
100
AcDbLine
 10
254.2358490598016
 20
243.7573998027951
 11
254.2358490598016
 21
227.5000000001969
  0
LINE
  5
1A3
100
AcDbEntity
  8
builder
  6
ByLayer
 62
  256
370
   -1
100
AcDbLine
 10
334.2358490598037
 20
230.0359622447005
 11
153.8352516174276
 21
230.0359622447005
  0
LINE
  5
1A4
100
AcDbEntity
  8
0
  6
ByLayer
 62
  256
370
   -1
100
AcDbLine
 10
334.2358490598037
 20
185.0359622447006
 11
334.2358490598037
 21
230.0359622447005
  0
LINE
  5
1A5
100
AcDbEntity
  8
0
  6
ByLayer
 62
  256
370
   -1
100
AcDbLine
 10
334.2358490598037
 20
230.0359622447005
 11
174.235849059801
 21
230.0359622447005
  0
LINE
  5
1A6
100
AcDbEntity
  8
0
  6
ByLayer
 62
  256
370
   -1
100
AcDbLine
 10
174.235849059801
 20
230.0359622447005
 11
174.235849059801
 21
185.0359622447004
  0
LINE
  5
1A7
100
AcDbEntity
  8
0
  6
ByLayer
 62
  256
370
   -1
100
AcDbLine
 10
174.235849059801
 20
185.0359622447004
 11
334.2358490598037
 21
185.0359622447006
  0
DIMENSION
  5
1A8
100
AcDbEntity
  8
measures
  6
ByLayer
 62
  256
370
   -1
100
AcDbDimension
  2
*D10
 10
345.0527933949769
 20
185.0359622447006
 30
0
 11
343.1777933949769
 21
207.5359622447006
 31
0
 70
   32
 71
    5
  3
Standard
 53
0
210
0
220
0
230
1
100
AcDbAlignedDimension
 13
334.2358490598037
 23
230.0359622447005
 33
0
 14
334.2358490598037
 24
185.0359622447006
 34
0
 50
90
100
AcDbRotatedDimension
  0
LINE
  5
1A9
100
AcDbEntity
  8
builder
  6
ByLayer
 62
  256
370
   -1
100
AcDbLine
 10
174.2358490598015
 20
238.6311343997455
 11
174.2358490598015
 21
232.0009153573012
  0
CIRCLE
  5
1AA
100
AcDbEntity
  8
0
  6
ByLayer
 62
  256
370
   -1
100
AcDbCircle
 10
254.2358490598016
 20
308.6311343997535
 40
3
  0
CIRCLE
  5
1AB
100
AcDbEntity
  8
0
  6
ByLayer
 62
  256
370
   -1
100
AcDbCircle
 10
254.2358490598016
 20
271.6311343997544
 40
3
  0
DIMENSION
  5
1AC
100
AcDbEntity
  8
measures
  6
ByLayer
 62
  256
370
   -1
100
AcDbDimension
  2
*D11
 10
344.802513055594
 20
271.6311343997544
 30
0
 11
342.927513055594
 21
290.1311343997539
 31
0
 70
   32
 71
    5
  3
Standard
 53
0
210
0
220
0
230
1
100
AcDbAlignedDimension
 13
254.2358490598016
 23
308.6311343997535
 33
0
 14
254.2358490598016
 24
271.6311343997544
 34
0
 50
90
100
AcDbRotatedDimension
  0
LINE
  5
1AD
100
AcDbEntity
  8
builder
  6
ByLayer
 62
  256
370
   -1
100
AcDbLine
 10
319.2358490598018
 20
323.6311343997513
 11
334.2358490598019
 21
233.6311343997516
  0
LINE
  5
1AE
100
AcDbEntity
  8
0
  6
ByLayer
 62
  256
370
   -1
100
AcDbLine
 10
174.2358490598015
 20
233.6311343997517
 11
334.2358490598016
 21
233.6311343997533
  0
DIMENSION
  5
1AF
100
AcDbEntity
  8
measures
  6
ByLayer
 62
  256
370
   -1
100
AcDbDimension
  2
*D12
 10
345.0928616119666
 20
233.6311343997516
 30
0
 11
343.2178616119666
 21
252.631134399753
 31
0
 70
   32
 71
    5
 72
    0
  3
Standard
 53
0
210
0
220
0
230
1
100
AcDbAlignedDimension
 13
254.2358490598016
 23
271.6311343997544
 33
0
 14
334.2358490598019
 24
233.6311343997516
 34
0
 50
90
100
AcDbRotatedDimension
  0
LINE
  5
1B0
100
AcDbEntity
  8
builder
  6
ByLayer
 62
  256
370
   -1
100
AcDbLine
 10
133.3813702483724
 20
329.8111343997519
 11
380.5211187578205
 21
329.8111343997519
  0
LINE
  5
1B1
100
AcDbEntity
  8
0
  6
ByLayer
 62
  256
370
   -1
100
AcDbLine
 10
174.2358490598015
 20
233.6311343997517
 11
189.235849059802
 21
329.8111343997519
  0
LINE
  5
1B2
100
AcDbEntity
  8
0
  6
ByLayer
 62
  256
370
   -1
100
AcDbLine
 10
189.235849059802
 20
329.8111343997519
 11
319.2358490598018
 21
329.8111343997519
  0
LINE
  5
1B3
100
AcDbEntity
  8
0
  6
ByLayer
 62
  256
370
   -1
100
AcDbLine
 10
319.2358490598018
 20
329.8111343997519
 11
334.2358490598016
 21
233.6311343997533
  0
LINE
  5
1B4
100
AcDbEntity
  8
measures
  6
CONTINUOUS
 62
    0
370
   70
100
AcDbLine
 10
344.822
 20
329.811
 11
344.822
 21
308.631
  0
LINE
  5
1B5
100
AcDbEntity
  8
measures
  6
CONTINUOUS
 62
    0
370
   70
100
AcDbLine
 10
254.861
 20
308.631
 11
346.072
 21
308.631
  0
DIMENSION
  5
1B6
100
AcDbEntity
  8
measures
  6
ByLayer
 62
  256
370
   -1
100
AcDbDimension
  2
*D13
 10
344.5978388588391
 20
329.8111343997519
 30
0
 11
342.7228388588391
 21
319.2211343997527
 31
0
 70
   32
 71
    5
  3
Standard
 53
0
210
0
220
0
230
1
100
AcDbAlignedDimension
 13
254.2358490598016
 23
308.6311343997535
 33
0
 14
319.2358490598018
 24
329.8111343997519
 34
0
 50
90
100
AcDbRotatedDimension
  0
LINE
  5
1B7
100
AcDbEntity
  8
builder
  6
ByLayer
 62
  256
370
   -1
100
AcDbLine
 10
177.4858490598154
 20
440.999261980447
 11
192.9858490598624
 21
533.9992619804293
  0
LINE
  5
1B8
100
AcDbEntity
  8
builder
  6
ByLayer
 62
  256
370
   -1
100
AcDbLine
 10
187.1638541233225
 20
529.0672923612669
 11
321.3078439951532
 21
529.0672923683119
  0
LINE
  5
1B9
100
AcDbEntity
  8
builder
  6
ByLayer
 62
  256
370
   -1
100
AcDbLine
 10
315.4858490586353
 20
533.9992619872046
 11
330.9858490598361
 21
440.9992619804294
  0
LINE
  5
1BA
100
AcDbEntity
  8
builder
  6
ByLayer
 62
  256
370
   -1
100
AcDbLine
 10
335.1638541232753
 20
445.9312315995915
 11
173.3078439963443
 21
445.9312315996087
  0
LINE
  5
1BB
100
AcDbEntity
  8
builder
  6
ByLayer
 62
  256
370
   -1
100
AcDbLine
 10
99.69548650789673
 20
500.9226557391289
 11
260.7762116117705
 21
474.0758682217483
  0
LINE
  5
1BC
100
AcDbEntity
  8
builder
  6
ByLayer
 62
  256
370
   -1
100
AcDbLine
 10
408.7762116172654
 20
500.9226557436263
 11
247.6954865011644
 21
474.0758682242728
  0
CIRCLE
  5
1BD
100
AcDbEntity
  8
0
  6
ByLayer
 62
  256
370
   -1
100
AcDbCircle
 10
254.2358490598016
 20
529.0672923647894
 40
2
  0
CIRCLE
  5
1BE
100
AcDbEntity
  8
0
  6
ByLayer
 62
  256
370
   -1
100
AcDbCircle
 10
284.2358490598004
 20
529.067292366365
 40
2
  0
CIRCLE
  5
1BF
100
AcDbEntity
  8
0
  6
ByLayer
 62
  256
370
   -1
100
AcDbCircle
 10
224.2358490598028
 20
529.0672923632139
 40
2
  0
CIRCLE
  5
1C0
100
AcDbEntity
  8
0
  6
ByLayer
 62
  256
370
   -1
100
AcDbCircle
 10
224.2358490598026
 20
445.9312315996032
 40
2
  0
CIRCLE
  5
1C1
100
AcDbEntity
  8
0
  6
ByLayer
 62
  256
370
   -1
100
AcDbCircle
 10
254.2358490598016
 20
445.9312315996001
 40
2
  0
CIRCLE
  5
1C2
100
AcDbEntity
  8
0
  6
ByLayer
 62
  256
370
   -1
100
AcDbCircle
 10
284.2358490598006
 20
445.9312315995968
 40
2
  0
CIRCLE
  5
1C3
100
AcDbEntity
  8
0
  6
ByLayer
 62
  256
370
   -1
100
AcDbCircle
 10
323.3709841943494
 20
486.6884511731385
 40
2
  0
CIRCLE
  5
1C4
100
AcDbEntity
  8
0
  6
ByLayer
 62
  256
370
   -1
100
AcDbCircle
 10
185.1007139247029
 20
486.688451169625
 40
2
  0
CIRCLE
  5
1C5
100
AcDbEntity
  8
0
  6
ByLayer
 62
  256
370
   -1
100
AcDbCircle
 10
180.990739242056
 20
462.028603073823
 40
2
  0
CIRCLE
  5
1C6
100
AcDbEntity
  8
0
  6
ByLayer
 62
  256
370
   -1
100
AcDbCircle
 10
189.2106886073498
 20
511.3482992654268
 40
2
  0
CIRCLE
  5
1C7
100
AcDbEntity
  8
0
  6
ByLayer
 62
  256
370
   -1
100
AcDbCircle
 10
319.2610095116971
 20
511.3482992689383
 40
2
  0
CIRCLE
  5
1C8
100
AcDbEntity
  8
0
  6
ByLayer
 62
  256
370
   -1
100
AcDbCircle
 10
327.4809588770017
 20
462.0286030773386
 40
2
  0
LINE
  5
1C9
100
AcDbEntity
  8
builder
  6
ByLayer
 62
  256
370
   -1
100
AcDbLine
 10
187.1638541233225
 20
524.1353227456243
 11
321.3078439951532
 21
524.1353227526693
  0
LINE
  5
1CA
100
AcDbEntity
  8
builder
  6
ByLayer
 62
  256
370
   -1
100
AcDbLine
 10
335.1638541232753
 20
450.8632012187533
 11
173.3078439963444
 21
450.8632012187705
  0
LINE
  5
1CB
100
AcDbEntity
  8
builder
  6
ByLayer
 62
  256
370
   -1
100
AcDbLine
 10
182.4858490598153
 20
440.9992619804464
 11
197.9858490598623
 21
533.9992619804286
  0
LINE
  5
1CC
100
AcDbEntity
  8
builder
  6
ByLayer
 62
  256
370
   -1
100
AcDbLine
 10
310.4858490586688
 20
533.9992619872052
 11
325.9858490598696
 21
440.99926198043
  0
LINE
  5
1CD
100
AcDbEntity
  8
builder
  6
ByLayer
 62
  256
370
   -1
100
AcDbLine
 10
274.2358490597995
 20
658.749582072643
 11
274.2358490597999
 21
631.7495820726442
  0
LINE
  5
1CE
100
AcDbEntity
  8
builder
  6
ByLayer
 62
  256
370
   -1
100
AcDbLine
 10
274.2358490597999
 20
631.7495820726442
 11
234.2358490598018
 21
631.7495820726446
  0
LINE
  5
1CF
100
AcDbEntity
  8
builder
  6
ByLayer
 62
  256
370
   -1
100
AcDbLine
 10
234.2358490598018
 20
631.7495820726446
 11
234.2358490598021
 21
658.7495820726452
  0
LINE
  5
1D0
100
AcDbEntity
  8
builder
  6
ByLayer
 62
  256
370
   -1
100
AcDbLine
 10
234.2358490598021
 20
658.7495820726452
 11
274.2358490597995
 21
658.749582072643
  0
LINE
  5
1D1
100
AcDbEntity
  8
builder
  6
ByLayer
 62
  256
370
   -1
100
AcDbLine
 10
334.2358490598037
 20
600.749582072638
 11
174.2358490598011
 21
600.7495820726563
  0
LINE
  5
1D2
100
AcDbEntity
  8
builder
  6
ByLayer
 62
  256
370
   -1
100
AcDbLine
 10
189.2358490598021
 20
693.749582072638
 11
319.2358490598019
 21
693.749582072644
  0
LINE
  5
1D3
100
AcDbEntity
  8
builder
  6
ByLayer
 62
  256
370
   -1
100
AcDbLine
 10
319.2358490598019
 20
693.749582072644
 11
319.2358591597226
 21
693.7495820726441
  0
LINE
  5
1D4
100
AcDbEntity
  8
builder
  6
ByLayer
 62
  256
370
   -1
100
AcDbLine
 10
320.7358490597992
 20
692.2495820726449
 11
335.7358490598015
 21
602.2495820726448
  0
LINE
  5
1D5
100
AcDbEntity
  8
builder
  6
ByLayer
 62
  256
370
   -1
100
AcDbLine
 10
187.7358490598521
 20
692.2495820726448
 11
172.7358490598141
 21
602.2495820726447
  0
LINE
  5
1D6
100
AcDbEntity
  8
0
  6
ByLayer
 62
  256
370
   -1
100
AcDbLine
 10
172.4858490598156
 20
600.7495820726565
 11
335.9858490598025
 21
600.7495820726378
  0
LINE
  5
1D7
100
AcDbEntity
  8
0
  6
ByLayer
 62
  256
370
   -1
100
AcDbLine
 10
335.9858490598025
 20
600.7495820726378
 11
320.485849058627
 21
693.7495820796792
  0
LINE
  5
1D8
100
AcDbEntity
  8
0
  6
ByLayer
 62
  256
370
   -1
100
AcDbLine
 10
320.485849058627
 20
693.7495820796792
 11
187.9858490598517
 21
693.749582072638
  0
LINE
  5
1D9
100
AcDbEntity
  8
0
  6
ByLayer
 62
  256
370
   -1
100
AcDbLine
 10
187.9858490598517
 20
693.749582072638
 11
172.4858490598156
 21
600.7495820726565
  0
DIMENSION
  5
1DA
100
AcDbEntity
  8
measures
  6
ByLayer
 62
  256
370
   -1
100
AcDbDimension
  2
*D14
 10
320.485849058627
 20
706.0153532638514
 30
0
 11
254.2358490592393
 21
707.8903532638514
 31
0
 70
   32
 71
    5
  3
Standard
 53
0
210
0
220
0
230
1
100
AcDbAlignedDimension
 13
187.9858490598517
 23
693.749582072638
 33
0
 14
320.485849058627
 24
693.7495820796793
 34
0
100
AcDbRotatedDimension
  0
LINE
  5
1DB
100
AcDbEntity
  8
builder
  6
ByLayer
 62
  256
370
   -1
100
AcDbLine
 10
187.9858490598517
 20
693.749582072638
 11
172.4858490598156
 21
600.7495820726565
  0
DIMENSION
  5
1DC
100
AcDbEntity
  8
measures
  6
ByLayer
 62
  256
370
   -1
100
AcDbDimension
  2
*D15
 10
335.9858490598025
 20
576.8823012492576
 30
0
 11
254.2358490598091
 21
578.7573012492576
 31
0
 70
   32
 71
    5
  3
Standard
 53
0
210
0
220
0
230
1
100
AcDbAlignedDimension
 13
172.4858490598156
 23
600.7495820726565
 33
0
 14
335.9858490598025
 24
600.7495820726378
 34
0
100
AcDbRotatedDimension
  0
DIMENSION
  5
1DD
100
AcDbEntity
  8
measures
  6
ByLayer
 62
  256
370
   -1
100
AcDbDimension
  2
*D16
 10
169.6374711047165
 20
696.8076450651683
 30
0
 11
160.0379824975132
 21
650.6158931663761
 31
0
 70
   33
 71
    5
  3
Standard
 53
0
210
0
220
0
230
1
100
AcDbAlignedDimension
 13
172.4858490598156
 23
600.7495820726565
 33
0
 14
187.9858490598517
 24
693.7495820726381
 34
0
  0
DIMENSION
  5
1DE
100
AcDbEntity
  8
measures
  6
ByLayer
 62
  256
370
   -1
100
AcDbDimension
  2
*D17
 10
363.0588032193709
 20
693.7495820796793
 30
0
 11
361.1838032193709
 21
647.2495820761585
 31
0
 70
   32
 71
    5
  3
Standard
 53
0
210
0
220
0
230
1
100
AcDbAlignedDimension
 13
335.9858490598025
 23
600.7495820726378
 33
0
 14
320.4858490586269
 24
693.7495820796793
 34
0
 50
90
100
AcDbRotatedDimension
  0
LINE
  5
1DF
100
AcDbEntity
  8
builder
  6
ByLayer
 62
  256
370
   -1
100
AcDbLine
 10
177.4858490598155
 20
600.7495820726559
 11
192.9858490598624
 21
693.7495820726382
  0
LINE
  5
1E0
100
AcDbEntity
  8
builder
  6
ByLayer
 62
  256
370
   -1
100
AcDbLine
 10
187.1638541233225
 20
688.8176124534758
 11
321.3078439951533
 21
688.8176124605208
  0
LINE
  5
1E1
100
AcDbEntity
  8
builder
  6
ByLayer
 62
  256
370
   -1
100
AcDbLine
 10
315.4858490586353
 20
693.7495820794135
 11
330.9858490598361
 21
600.7495820726383
  0
LINE
  5
1E2
100
AcDbEntity
  8
builder
  6
ByLayer
 62
  256
370
   -1
100
AcDbLine
 10
335.1638541232754
 20
605.6815516918005
 11
173.3078439963444
 21
605.6815516918175
  0
LINE
  5
1E3
100
AcDbEntity
  8
builder
  6
ByLayer
 62
  256
370
   -1
100
AcDbLine
 10
99.69548650789679
 20
660.6729758313377
 11
260.7762116117706
 21
633.8261883139571
  0
LINE
  5
1E4
100
AcDbEntity
  8
builder
  6
ByLayer
 62
  256
370
   -1
100
AcDbLine
 10
408.7762116172655
 20
660.6729758358351
 11
247.6954865011644
 21
633.8261883164816
  0
CIRCLE
  5
1E5
100
AcDbEntity
  8
0
  6
ByLayer
 62
  256
370
   -1
100
AcDbCircle
 10
254.2358490598017
 20
688.8176124569983
 40
2
  0
CIRCLE
  5
1E6
100
AcDbEntity
  8
0
  6
ByLayer
 62
  256
370
   -1
100
AcDbCircle
 10
284.2358490598004
 20
688.8176124585739
 40
2
  0
CIRCLE
  5
1E7
100
AcDbEntity
  8
0
  6
ByLayer
 62
  256
370
   -1
100
AcDbCircle
 10
224.2358490598028
 20
688.8176124554228
 40
2
  0
CIRCLE
  5
1E8
100
AcDbEntity
  8
0
  6
ByLayer
 62
  256
370
   -1
100
AcDbCircle
 10
224.2358490598027
 20
605.681551691812
 40
2
  0
CIRCLE
  5
1E9
100
AcDbEntity
  8
0
  6
ByLayer
 62
  256
370
   -1
100
AcDbCircle
 10
254.2358490598017
 20
605.681551691809
 40
2
  0
CIRCLE
  5
1EA
100
AcDbEntity
  8
0
  6
ByLayer
 62
  256
370
   -1
100
AcDbCircle
 10
284.2358490598007
 20
605.6815516918057
 40
2
  0
CIRCLE
  5
1EB
100
AcDbEntity
  8
0
  6
ByLayer
 62
  256
370
   -1
100
AcDbCircle
 10
323.3709841943494
 20
646.4387712653474
 40
2
  0
CIRCLE
  5
1EC
100
AcDbEntity
  8
0
  6
ByLayer
 62
  256
370
   -1
100
AcDbCircle
 10
185.100713924703
 20
646.4387712618338
 40
2
  0
CIRCLE
  5
1ED
100
AcDbEntity
  8
0
  6
ByLayer
 62
  256
370
   -1
100
AcDbCircle
 10
180.9907392420561
 20
621.778923166032
 40
2
  0
CIRCLE
  5
1EE
100
AcDbEntity
  8
0
  6
ByLayer
 62
  256
370
   -1
100
AcDbCircle
 10
189.2106886073498
 20
671.0986193576357
 40
2
  0
CIRCLE
  5
1EF
100
AcDbEntity
  8
0
  6
ByLayer
 62
  256
370
   -1
100
AcDbCircle
 10
319.2610095116972
 20
671.0986193611471
 40
2
  0
CIRCLE
  5
1F0
100
AcDbEntity
  8
0
  6
ByLayer
 62
  256
370
   -1
100
AcDbCircle
 10
327.4809588770017
 20
621.7789231695475
 40
2
  0
LINE
  5
1F1
100
AcDbEntity
  8
builder
  6
ByLayer
 62
  256
370
   -1
100
AcDbLine
 10
187.1638541233225
 20
683.8856428378332
 11
321.3078439951533
 21
683.8856428448781
  0
LINE
  5
1F2
100
AcDbEntity
  8
builder
  6
ByLayer
 62
  256
370
   -1
100
AcDbLine
 10
335.1638541232754
 20
610.6135213109621
 11
173.3078439963444
 21
610.6135213109794
  0
LINE
  5
1F3
100
AcDbEntity
  8
builder
  6
ByLayer
 62
  256
370
   -1
100
AcDbLine
 10
182.4858490598153
 20
600.7495820726554
 11
197.9858490598623
 21
693.7495820726375
  0
LINE
  5
1F4
100
AcDbEntity
  8
builder
  6
ByLayer
 62
  256
370
   -1
100
AcDbLine
 10
310.4858490586689
 20
693.749582079414
 11
325.9858490598697
 21
600.7495820726389
  0
LINE
  5
1F5
100
AcDbEntity
  8
0
  6
ByLayer
 62
  256
370
   -1
100
AcDbLine
 10
184.1298389328744
 20
450.8632012187693
 11
324.3418591868079
 21
450.8632012187545
  0
LINE
  5
1F6
100
AcDbEntity
  8
0
  6
ByLayer
 62
  256
370
   -1
100
AcDbLine
 10
324.3418591868079
 20
450.8632012187545
 11
312.1298389311794
 21
524.1353227521872
  0
LINE
  5
1F7
100
AcDbEntity
  8
0
  6
ByLayer
 62
  256
370
   -1
100
AcDbLine
 10
312.1298389311794
 20
524.1353227521872
 11
196.3418591874699
 21
524.1353227461063
  0
LINE
  5
1F8
100
AcDbEntity
  8
0
  6
ByLayer
 62
  256
370
   -1
100
AcDbLine
 10
196.3418591874699
 20
524.1353227461063
 11
184.1298389328744
 21
450.8632012187693
  0
DIMENSION
  5
1F9
100
AcDbEntity
  8
measures
  6
ByLayer
 62
  256
370
   -1
100
AcDbDimension
  2
*D18
 10
348.1897381564513
 20
450.8632012187545
 30
0
 11
346.3147381564513
 21
445.9312315995923
 31
0
 70
   32
 71
    5
  3
Standard
 53
0
210
0
220
0
230
1
100
AcDbAlignedDimension
 13
325.9858490598696
 23
440.99926198043
 33
0
 14
324.3418591868079
 24
450.8632012187545
 34
0
 50
90
100
AcDbRotatedDimension
  0
DIMENSION
  5
1FA
100
AcDbEntity
  8
measures
  6
ByLayer
 62
  256
370
   -1
100
AcDbDimension
  2
*D19
 10
347.9652444503542
 20
524.1353227521872
 30
0
 11
346.0902444503542
 21
529.067292366311
 31
0
 70
   32
 71
    5
  3
Standard
 53
0
210
0
220
0
230
1
100
AcDbAlignedDimension
 13
310.4858490597972
 23
533.9992619804347
 33
0
 14
312.1298389311794
 24
524.1353227521872
 34
0
 50
90
100
AcDbRotatedDimension
  0
DIMENSION
  5
1FB
100
AcDbEntity
  8
measures
  6
ByLayer
 62
  256
370
   -1
100
AcDbDimension
  2
*D20
 10
198.8109124458253
 20
538.9496422962283
 30
0
 11
194.2542956821569
 21
541.6099417142266
 31
0
 70
   33
 71
    5
  3
Standard
 53
0
210
0
220
0
230
1
100
AcDbAlignedDimension
 13
180.2358490598335
 23
487.4992619804386
 33
0
 14
189.965578789567
 24
485.8776403588122
 34
0
  0
DIMENSION
  5
1FC
100
AcDbEntity
  8
measures
  6
ByLayer
 62
  256
370
   -1
100
AcDbDimension
  2
*D21
 10
336.8162578387187
 20
436.0168093069313
 30
0
 11
331.6431448726727
 21
437.0554871033084
 31
0
 70
   33
 71
    5
  3
Standard
 53
0
210
0
220
0
230
1
100
AcDbAlignedDimension
 13
318.5061193295178
 23
485.8776403623332
 33
0
 14
328.2358490592147
 24
487.4992619839495
 34
0
  0
LINE
  5
1FD
100
AcDbEntity
  8
builder
  6
ByLayer
 62
  256
370
   -1
100
AcDbLine
 10
406.7212242759384
 20
673.0028998837411
 11
245.6404991598373
 21
646.1561123643876
  0
LINE
  5
1FE
100
AcDbEntity
  8
builder
  6
ByLayer
 62
  256
370
   -1
100
AcDbLine
 10
410.8311989585926
 20
648.3430517879297
 11
249.7504738424916
 21
621.4962642685762
  0
LINE
  5
1FF
100
AcDbEntity
  8
builder
  6
ByLayer
 62
  256
370
   -1
100
AcDbLine
 10
101.7504738492203
 20
673.002899879239
 11
262.831198953094
 21
646.1561123618584
  0
LINE
  5
200
100
AcDbEntity
  8
builder
  6
ByLayer
 62
  256
370
   -1
100
AcDbLine
 10
97.64050953005378
 20
648.3430500561898
 11
258.7212346339276
 21
621.4962625388092
  0
LINE
  5
201
100
AcDbEntity
  8
builder
  6
ByLayer
 62
  256
370
   -1
100
AcDbLine
 10
420.5211187578224
 20
233.6311343997519
 11
420.5211187578224
 21
337.8979215121767
  0
LINE
  5
202
100
AcDbEntity
  8
builder
  6
ByLayer
 62
  256
370
   -1
100
AcDbLine
 10
93.38137024837562
 20
233.6311343997519
 11
93.38137024837562
 21
337.8979215121767
  0
CIRCLE
  5
203
100
AcDbEntity
  8
0
  6
ByLayer
 62
  256
370
   -1
100
AcDbCircle
 10
420.5211187578224
 20
268.2711343997492
 40
2.1
  0
CIRCLE
  5
204
100
AcDbEntity
  8
0
  6
ByLayer
 62
  256
370
   -1
100
AcDbCircle
 10
420.5211187578225
 20
292.4611343997503
 40
2.1
  0
CIRCLE
  5
205
100
AcDbEntity
  8
0
  6
ByLayer
 62
  256
370
   -1
100
AcDbCircle
 10
93.38137024837563
 20
268.2711343997517
 40
2.1
  0
CIRCLE
  5
206
100
AcDbEntity
  8
0
  6
ByLayer
 62
  256
370
   -1
100
AcDbCircle
 10
93.38137024837565
 20
292.4611343997517
 40
2.1
  0
DIMENSION
  5
207
100
AcDbEntity
  8
measures
  6
ByLayer
 62
  256
370
   -1
100
AcDbDimension
  2
*D22
 10
436.35100305575
 20
268.2711343997492
 30
0
 11
434.47600305575
 21
250.9511343997505
 31
0
 70
   32
 71
    5
  3
Standard
 53
0
210
0
220
0
230
1
100
AcDbAlignedDimension
 13
420.5211187578224
 23
233.6311343997519
 33
0
 14
420.5211187578224
 24
268.2711343997492
 34
0
 50
90
100
AcDbRotatedDimension
  0
DIMENSION
  5
208
100
AcDbEntity
  8
measures
  6
ByLayer
 62
  256
370
   -1
100
AcDbDimension
  2
*D23
 10
436.35100305575
 20
292.4611343997503
 30
0
 11
434.47600305575
 21
280.3661343997497
 31
0
 70
   32
 71
    5
  3
Standard
 53
0
210
0
220
0
230
1
100
AcDbAlignedDimension
 13
420.5211187578224
 23
268.2711343997492
 33
0
 14
420.5211187578225
 24
292.4611343997503
 34
0
 50
90
100
AcDbRotatedDimension
  0
DIMENSION
  5
209
100
AcDbEntity
  8
measures
  6
ByLayer
 62
  256
370
   -1
100
AcDbDimension
  2
*D24
 10
445.8283099094496
 20
324.9111343997516
 30
0
 11
443.9533099094496
 21
279.2711343997518
 31
0
 70
   32
 71
    5
  3
Standard
 53
0
210
0
220
0
230
1
100
AcDbAlignedDimension
 13
425.5211187578211
 23
233.6311343997519
 33
0
 14
425.5211187578211
 24
324.9111343997516
 34
0
 50
90
100
AcDbRotatedDimension
  0
LINE
  5
20A
100
AcDbEntity
  8
builder
  6
ByLayer
 62
  256
370
   -1
100
AcDbLine
 10
415.5211187578237
 20
233.6311343997519
 11
415.5211187578237
 21
337.8979215121767
  0
LINE
  5
20B
100
AcDbEntity
  8
builder
  6
ByLayer
 62
  256
370
   -1
100
AcDbLine
 10
98.38137024837937
 20
233.6311343997519
 11
98.38137024837937
 21
337.8979215121767
  0
LINE
  5
20C
100
AcDbEntity
  8
builder
  6
ByLayer
 62
  256
370
   -1
100
AcDbLine
 10
269.2358490598036
 20
471.9119937131313
 11
269.2358490597973
 21
419.9504694860661
  0
LINE
  5
20D
100
AcDbEntity
  8
builder
  6
ByLayer
 62
  256
370
   -1
100
AcDbLine
 10
239.2358490598054
 20
471.9119937131338
 11
239.2358490597992
 21
419.9504694860698
  0
LINE
  5
20E
100
AcDbEntity
  8
builder
  6
ByLayer
 62
  256
370
   -1
100
AcDbLine
 10
254.2358490598016
 20
230.0359622447005
 11
254.2358490598016
 21
180.0688302202941
  0
LINE
  5
20F
100
AcDbEntity
  8
builder
  6
ByLayer
 62
  256
370
   -1
100
AcDbLine
 10
269.2358490598026
 20
388.7286147620185
 11
269.2358490598003
 21
185.0359622447005
  0
LINE
  5
210
100
AcDbEntity
  8
builder
  6
ByLayer
 62
  256
370
   -1
100
AcDbLine
 10
239.2358490598029
 20
185.0359622447005
 11
239.2358490597976
 21
388.7286147620185
  0
LINE
  5
211
100
AcDbEntity
  8
builder
  6
ByLayer
 62
  256
370
   -1
100
AcDbLine
 10
174.235849059801
 20
190.0359622446971
 11
334.2358490598037
 21
190.0359622446993
  0
LINE
  5
212
100
AcDbEntity
  8
builder
  6
ByLayer
 62
  256
370
   -1
100
AcDbLine
 10
189.235849059802
 20
383.7286147620191
 11
319.2358490598018
 21
383.728614762016
  0
CIRCLE
  5
213
100
AcDbEntity
  8
0
  6
ByLayer
 62
  256
370
   -1
100
AcDbCircle
 10
239.2358490598028
 20
190.035962244698
 40
2.2
  0
CIRCLE
  5
214
100
AcDbEntity
  8
0
  6
ByLayer
 62
  256
370
   -1
100
AcDbCircle
 10
269.2358490598003
 20
190.0359622446984
 40
2.2
  0
CIRCLE
  5
215
100
AcDbEntity
  8
0
  6
ByLayer
 62
  256
370
   -1
100
AcDbCircle
 10
239.2358490597978
 20
383.7286147620179
 40
2.2
  0
CIRCLE
  5
216
100
AcDbEntity
  8
0
  6
ByLayer
 62
  256
370
   -1
100
AcDbCircle
 10
269.2358490598025
 20
383.7286147620172
 40
2.2
  0
DIMENSION
  5
217
100
AcDbEntity
  8
measures
  6
ByLayer
 62
  256
370
   -1
100
AcDbDimension
  2
*D25
 10
239.2358490598028
 20
176.7122840429431
 30
0
 11
206.7358490598019
 21
178.5872840429431
 31
0
 70
   32
 71
    5
  3
Standard
 53
0
210
0
220
0
230
1
100
AcDbAlignedDimension
 13
174.235849059801
 23
185.0359622447004
 33
0
 14
239.2358490598028
 24
190.035962244698
 34
0
100
AcDbRotatedDimension
  0
DIMENSION
  5
218
100
AcDbEntity
  8
measures
  6
ByLayer
 62
  256
370
   -1
100
AcDbDimension
  2
*D26
 10
269.2358490598003
 20
176.9097279357285
 30
0
 11
254.2358490598016
 21
178.7847279357285
 31
0
 70
   32
 71
    5
  3
Standard
 53
0
210
0
220
0
230
1
100
AcDbAlignedDimension
 13
239.2358490598028
 23
190.035962244698
 33
0
 14
269.2358490598003
 24
190.0359622446984
 34
0
100
AcDbRotatedDimension
  0
DIMENSION
  5
219
100
AcDbEntity
  8
measures
  6
ByLayer
 62
  256
370
   -1
100
AcDbDimension
  2
*D27
 10
334.2358490598037
 20
177.1071718285139
 30
0
 11
301.735849059802
 21
178.9821718285139
 31
0
 70
   32
 71
    5
  3
Standard
 53
0
210
0
220
0
230
1
100
AcDbAlignedDimension
 13
269.2358490598003
 23
190.0359622446984
 33
0
 14
334.2358490598037
 24
185.0359622447006
 34
0
100
AcDbRotatedDimension
  0
DIMENSION
  5
21A
100
AcDbEntity
  8
measures
  6
ByLayer
 62
  256
370
   -1
100
AcDbDimension
  2
*D28
 10
239.2358490597978
 20
394.8844290246458
 30
0
 11
214.2358490597999
 21
396.7594290246458
 31
0
 70
   32
 71
    5
  3
Standard
 53
0
210
0
220
0
230
1
100
AcDbAlignedDimension
 13
189.235849059802
 23
388.7286147620185
 33
0
 14
239.2358490597978
 24
383.7286147620179
 34
0
100
AcDbRotatedDimension
  0
DIMENSION
  5
21B
100
AcDbEntity
  8
measures
  6
ByLayer
 62
  256
370
   -1
100
AcDbDimension
  2
*D29
 10
269.2358490598025
 20
394.8844290246458
 30
0
 11
254.2358490598002
 21
396.7594290246458
 31
0
 70
   32
 71
    5
  3
Standard
 53
0
210
0
220
0
230
1
100
AcDbAlignedDimension
 13
239.2358490597978
 23
383.7286147620179
 33
0
 14
269.2358490598025
 24
383.7286147620172
 34
0
100
AcDbRotatedDimension
  0
DIMENSION
  5
21C
100
AcDbEntity
  8
measures
  6
ByLayer
 62
  256
370
   -1
100
AcDbDimension
  2
*D30
 10
319.2358490598018
 20
395.3334164368399
 30
0
 11
294.2358490598021
 21
397.2084164368399
 31
0
 70
   32
 71
    5
  3
Standard
 53
0
210
0
220
0
230
1
100
AcDbAlignedDimension
 13
269.2358490598025
 23
383.7286147620172
 33
0
 14
319.2358490598018
 24
388.7286147620185
 34
0
100
AcDbRotatedDimension
  0
DIMENSION
  5
21D
100
AcDbEntity
  8
measures
  6
ByLayer
 62
  256
370
   -1
100
AcDbDimension
  2
*D31
 10
254.2358490598016
 20
336.4186351709766
 30
0
 11
221.7358490598018
 21
338.2936351709766
 31
0
 70
   32
 71
    5
  3
Standard
 53
0
210
0
220
0
230
1
100
AcDbAlignedDimension
 13
189.235849059802
 23
329.8111343997519
 33
0
 14
254.2358490598016
 24
308.6311343997535
 34
0
100
AcDbRotatedDimension
  0
DIMENSION
  5
21E
100
AcDbEntity
  8
measures
  6
ByLayer
 62
  256
370
   -1
100
AcDbDimension
  2
*D32
 10
319.2358490598018
 20
336.4186351709766
 30
0
 11
286.7358490598017
 21
338.2936351709766
 31
0
 70
   32
 71
    5
  3
Standard
 53
0
210
0
220
0
230
1
100
AcDbAlignedDimension
 13
254.2358490598016
 23
308.6311343997535
 33
0
 14
319.2358490598018
 24
329.8111343997519
 34
0
100
AcDbRotatedDimension
  0
ENDSEC
  0
SECTION
  2
OBJECTS
  0
DICTIONARY
  5
C
330
0
100
AcDbDictionary
281
    1
  3
ACAD_GROUP
350
D
  0
DICTIONARY
  5
D
330
C
100
AcDbDictionary
281
    1
  0
PLOTSETTINGS
  5
21F
100
AcDbPlotSettings
  6
1x1
 40
0
 41
0
 42
0
 43
0
  0
ENDSEC
  0
EOF
