999
dxfrw 0.6.3
  0
SECTION
  2
HEADER
  9
$ACADVER
  1
AC1021
  9
$DWGCODEPAGE
  3
ANSI_1252
  9
$INSBASE
 10
0
 20
0
 30
0
  9
$EXTMIN
 10
68.32837605026555
 20
51.16551963789414
 30
0
  9
$EXTMAX
 10
408.4619613018941
 20
576.3153271795803
 30
0
  9
$LIMMIN
 10
0
 20
0
  9
$LIMMAX
 10
420
 20
297
  9
$ORTHOMODE
 70
    0
  9
$REGENMODE
 70
    1
  9
$FILLMODE
 70
    1
  9
$QTEXTMODE
 70
    0
  9
$MIRRTEXT
 70
    0
  9
$LTSCALE
 40
1
  9
$ATTMODE
 70
    0
  9
$TEXTSIZE
 40
2.5
  9
$TRACEWID
 40
15.68
  9
$TEXTSTYLE
  7
STANDARD
  9
$CLAYER
  8
measures
  9
$CELTYPE
  6
BYLAYER
  9
$CECOLOR
 62
  256
  9
$CELTSCALE
 40
1
  9
$DISPSILH
 70
    0
  9
$DIMSCALE
 40
1
  9
$DIMASZ
 40
2.5
  9
$DIMEXO
 40
0.625
  9
$DIMDLI
 40
3.75
  9
$DIMRND
 40
0
  9
$DIMDLE
 40
0
  9
$DIMEXE
 40
1.25
  9
$DIMTP
 40
0
  9
$DIMTM
 40
0
  9
$DIMTXT
 40
2.5
  9
$DIMCEN
 40
2.5
  9
$DIMTSZ
 40
0
  9
$DIMTOL
 70
    0
  9
$DIMLIM
 70
    0
  9
$DIMTIH
 70
    0
  9
$DIMTOH
 70
    0
  9
$DIMSE1
 70
    0
  9
$DIMSE2
 70
    0
  9
$DIMTAD
 70
    1
  9
$DIMZIN
 70
    8
  9
$DIMBLK
  1

  9
$DIMASO
 70
    1
  9
$DIMSHO
 70
    1
  9
$DIMPOST
  1

  9
$DIMAPOST
  1

  9
$DIMALT
 70
    0
  9
$DIMALTD
 70
    3
  9
$DIMALTF
 40
0.03937
  9
$DIMLFAC
 40
1
  9
$DIMTOFL
 70
    1
  9
$DIMTVP
 40
0
  9
$DIMTIX
 70
    0
  9
$DIMSOXD
 70
    0
  9
$DIMSAH
 70
    0
  9
$DIMBLK1
  1

  9
$DIMBLK2
  1

  9
$DIMSTYLE
  2
STANDARD
  9
$DIMCLRD
 70
    0
  9
$DIMCLRE
 70
    0
  9
$DIMCLRT
 70
    0
  9
$DIMTFAC
 40
1
  9
$DIMGAP
 40
0.625
  9
$DIMJUST
 70
    0
  9
$DIMSD1
 70
    0
  9
$DIMSD2
 70
    0
  9
$DIMTOLJ
 70
    0
  9
$DIMTZIN
 70
    8
  9
$DIMALTZ
 70
    0
  9
$DIMALTTZ
 70
    0
  9
$DIMUPT
 70
    0
  9
$DIMDEC
 70
    2
  9
$DIMTDEC
 70
    2
  9
$DIMALTU
 70
    2
  9
$DIMALTTD
 70
    3
  9
$DIMTXSTY
  7
STANDARD
  9
$DIMAUNIT
 70
    0
  9
$DIMADEC
 70
    0
  9
$DIMALTRND
 40
0
  9
$DIMAZIN
 70
    0
  9
$DIMDSEP
 70
   44
  9
$DIMATFIT
 70
    3
  9
$DIMFRAC
 70
    0
  9
$DIMLDRBLK
  1
STANDARD
  9
$DIMLUNIT
 70
    2
  9
$DIMLWD
 70
   -2
  9
$DIMLWE
 70
   -2
  9
$DIMTMOVE
 70
    0
  9
$DIMFXL
 40
1
  9
$DIMFXLON
 70
    0
  9
$DIMJOGANG
 40
0.7854
  9
$DIMTFILL
 70
    0
  9
$DIMTFILLCLR
 70
    0
  9
$DIMARCSYM
 70
    0
  9
$DIMLTYPE
  6

  9
$DIMLTEX1
  6

  9
$DIMLTEX2
  6

  9
$LUNITS
 70
    2
  9
$LUPREC
 70
    4
  9
$SKETCHINC
 40
1
  9
$FILLETRAD
 40
0
  9
$AUNITS
 70
    0
  9
$AUPREC
 70
    2
  9
$MENU
  1
.
  9
$ELEVATION
 40
0
  9
$PELEVATION
 40
0
  9
$THICKNESS
 40
0
  9
$LIMCHECK
 70
    0
  9
$CHAMFERA
 40
0
  9
$CHAMFERB
 40
0
  9
$CHAMFERC
 40
0
  9
$CHAMFERD
 40
0
  9
$SKPOLY
 70
    0
  9
$USRTIMER
 70
    1
  9
$ANGBASE
 50
0
  9
$ANGDIR
 70
    0
  9
$PDMODE
 70
   34
  9
$PDSIZE
 40
0
  9
$PLINEWID
 40
0
  9
$SPLFRAME
 70
    0
  9
$SPLINETYPE
 70
    2
  9
$SPLINESEGS
 70
    8
  9
$HANDSEED
  5
20000
  9
$SURFTAB1
 70
    6
  9
$SURFTAB2
 70
    6
  9
$SURFTYPE
 70
    6
  9
$SURFU
 70
    6
  9
$SURFV
 70
    6
  9
$UCSBASE
  2

  9
$UCSNAME
  2

  9
$UCSORG
 10
0
 20
0
 30
0
  9
$UCSXDIR
 10
1
 20
0
 30
0
  9
$UCSYDIR
 10
0
 20
1
 30
0
  9
$UCSORTHOREF
  2

  9
$UCSORTHOVIEW
 70
    0
  9
$UCSORGTOP
 10
0
 20
0
 30
0
  9
$UCSORGBOTTOM
 10
0
 20
0
 30
0
  9
$UCSORGLEFT
 10
0
 20
0
 30
0
  9
$UCSORGRIGHT
 10
0
 20
0
 30
0
  9
$UCSORGFRONT
 10
0
 20
0
 30
0
  9
$UCSORGBACK
 10
0
 20
0
 30
0
  9
$PUCSBASE
  2

  9
$PUCSNAME
  2

  9
$PUCSORG
 10
0
 20
0
 30
0
  9
$PUCSXDIR
 10
1
 20
0
 30
0
  9
$PUCSYDIR
 10
0
 20
1
 30
0
  9
$PUCSORTHOREF
  2

  9
$PUCSORTHOVIEW
 70
    0
  9
$PUCSORGTOP
 10
0
 20
0
 30
0
  9
$PUCSORGBOTTOM
 10
0
 20
0
 30
0
  9
$PUCSORGLEFT
 10
0
 20
0
 30
0
  9
$PUCSORGRIGHT
 10
0
 20
0
 30
0
  9
$PUCSORGFRONT
 10
0
 20
0
 30
0
  9
$PUCSORGBACK
 10
0
 20
0
 30
0
  9
$USERI1
 70
    0
  9
$USERI2
 70
    0
  9
$USERI3
 70
    0
  9
$USERI4
 70
    0
  9
$USERI5
 70
    0
  9
$USERR1
 40
0
  9
$USERR2
 40
0
  9
$USERR3
 40
0
  9
$USERR4
 40
0
  9
$USERR5
 40
0
  9
$WORLDVIEW
 70
    1
  9
$SHADEDGE
 70
    3
  9
$SHADEDIF
 70
   70
  9
$TILEMODE
 70
    1
  9
$MAXACTVP
 70
   64
  9
$PINSBASE
 10
0
 20
0
 30
0
  9
$PLIMCHECK
 70
    0
  9
$PEXTMIN
 10
0
 20
0
 30
0
  9
$PEXTMAX
 10
0
 20
0
 30
0
  9
$GRIDMODE
 70
    1
  9
$SNAPSTYLE
 70
    0
  9
$PLIMMIN
 10
0
 20
0
  9
$PLIMMAX
 10
297
 20
210
  9
$UNITMODE
 70
    0
  9
$VISRETAIN
 70
    1
  9
$PLINEGEN
 70
    0
  9
$PSLTSCALE
 70
    1
  9
$TREEDEPTH
 70
 3020
  9
$CMLSTYLE
  2
Standard
  9
$CMLJUST
 70
    0
  9
$CMLSCALE
 40
20
  9
$PROXYGRAPHICS
 70
    1
  9
$MEASUREMENT
 70
    1
  9
$CELWEIGHT
370
   -1
  9
$ENDCAPS
280
    0
  9
$JOINSTYLE
280
    0
  9
$LWDISPLAY
290
    0
  9
$INSUNITS
 70
    4
  9
$HYPERLINKBASE
  1

  9
$STYLESHEET
  1

  9
$XEDIT
290
    1
  9
$CEPSNTYPE
380
    0
  9
$PSTYLEMODE
290
    1
  9
$EXTNAMES
290
    1
  9
$PSVPSCALE
 40
1
  9
$OLESTARTUP
290
    0
  9
$SORTENTS
280
  127
  9
$INDEXCTL
280
    0
  9
$HIDETEXT
280
    1
  9
$XCLIPFRAME
290
    0
  9
$HALOGAP
280
    0
  9
$OBSCOLOR
 70
  257
  9
$OBSLTYPE
280
    0
  9
$INTERSECTIONDISPLAY
280
    0
  9
$INTERSECTIONCOLOR
 70
  257
  9
$DIMASSOC
280
    1
  9
$PROJECTNAME
  1

  9
$CAMERADISPLAY
290
    0
  9
$LENSLENGTH
 40
50
  9
$CAMERAHEIGHT
 40
0
  9
$STEPSPERSEC
 40
2
  9
$STEPSIZE
 40
50
  9
$3DDWFPREC
 40
2
  9
$PSOLWIDTH
 40
5
  9
$PSOLHEIGHT
 40
80
  9
$LOFTANG1
 40
1.570796326794897
  9
$LOFTANG2
 40
1.570796326794897
  9
$LOFTMAG1
 40
0
  9
$LOFTMAG2
 40
0
  9
$LOFTPARAM
 70
    7
  9
$LOFTNORMALS
280
    1
  9
$LATITUDE
 40
1
  9
$LONGITUDE
 40
1
  9
$NORTHDIRECTION
 40
0
  9
$TIMEZONE
 70
-8000
  9
$LIGHTGLYPHDISPLAY
280
    1
  9
$TILEMODELIGHTSYNCH
280
    1
  9
$SOLIDHIST
280
    1
  9
$SHOWHIST
280
    1
  9
$DWFFRAME
280
    2
  9
$DGNFRAME
280
    0
  9
$REALWORLDSCALE
290
    1
  9
$INTERFERECOLOR
 62
    1
  9
$CSHADOW
280
    0
  9
$SHADOWPLANELOCATION
 40
0
  0
ENDSEC
  0
SECTION
  2
CLASSES
  0
ENDSEC
  0
SECTION
  2
TABLES
  0
TABLE
  2
VPORT
  5
8
330
0
100
AcDbSymbolTable
 70
    1
  0
VPORT
  5
31
330
2
100
AcDbSymbolTableRecord
100
AcDbViewportTableRecord
  2
*ACTIVE
 70
    0
 10
0
 20
0
 11
1
 21
1
 12
790.5289907829646
 22
463.9077569957282
 13
0
 23
0
 14
10
 24
10
 15
10
 25
10
 16
0
 26
0
 36
1
 17
0
 27
0
 37
0
 40
1226.52685020334
 41
1.91389913899139
 42
50
 43
0
 44
0
 50
0
 51
0
 71
    0
 72
  100
 73
    1
 74
    3
 75
    0
 76
    1
 77
    0
 78
    0
281
    0
 65
    1
110
0
120
0
130
0
111
1
121
0
131
0
112
0
122
1
132
0
 79
    0
146
0
348
10020
 60
    7
 61
    5
292
1
282
    1
141
0
142
0
 63
  250
421
3358443
  0
ENDTAB
  0
TABLE
  2
LTYPE
  5
5
330
0
100
AcDbSymbolTable
 70
    4
  0
LTYPE
  5
14
330
5
100
AcDbSymbolTableRecord
100
AcDbLinetypeTableRecord
  2
ByBlock
 70
    0
  3

 72
   65
 73
    0
 40
0
  0
LTYPE
  5
15
330
5
100
AcDbSymbolTableRecord
100
AcDbLinetypeTableRecord
  2
ByLayer
 70
    0
  3

 72
   65
 73
    0
 40
0
  0
LTYPE
  5
16
330
5
100
AcDbSymbolTableRecord
100
AcDbLinetypeTableRecord
  2
Continuous
 70
    0
  3
Solid line
 72
   65
 73
    0
 40
0
  0
LTYPE
  5
32
330
5
100
AcDbSymbolTableRecord
100
AcDbLinetypeTableRecord
  2
DOT
 70
    0
  3
Dot . . . . . . . . . . . . . . . . . . . . . .
 72
   65
 73
    2
 40
6.35
 49
0
 74
    0
 49
-6.35
 74
    0
  0
LTYPE
  5
33
330
5
100
AcDbSymbolTableRecord
100
AcDbLinetypeTableRecord
  2
DOTTINY
 70
    0
  3
Dot (.15x) .....................................
 72
   65
 73
    2
 40
0.9525
 49
0
 74
    0
 49
-0.9525
 74
    0
  0
LTYPE
  5
34
330
5
100
AcDbSymbolTableRecord
100
AcDbLinetypeTableRecord
  2
DOT2
 70
    0
  3
Dot (.5x) .....................................
 72
   65
 73
    2
 40
3.175
 49
0
 74
    0
 49
-3.175
 74
    0
  0
LTYPE
  5
35
330
5
100
AcDbSymbolTableRecord
100
AcDbLinetypeTableRecord
  2
DOTX2
 70
    0
  3
Dot (2x) .  .  .  .  .  .  .  .  .  .  .  .  .
 72
   65
 73
    2
 40
12.7
 49
0
 74
    0
 49
-12.7
 74
    0
  0
LTYPE
  5
36
330
5
100
AcDbSymbolTableRecord
100
AcDbLinetypeTableRecord
  2
DASHED
 70
    0
  3
Dashed _ _ _ _ _ _ _ _ _ _ _ _ _ _ _ _ _
 72
   65
 73
    2
 40
19.05
 49
12.7
 74
    0
 49
-6.35
 74
    0
  0
LTYPE
  5
37
330
5
100
AcDbSymbolTableRecord
100
AcDbLinetypeTableRecord
  2
DASHEDTINY
 70
    0
  3
Dashed (.15x) _ _ _ _ _ _ _ _ _ _ _ _ _ _ _ _ _
 72
   65
 73
    2
 40
2.8575
 49
1.905
 74
    0
 49
-0.9525
 74
    0
  0
LTYPE
  5
38
330
5
100
AcDbSymbolTableRecord
100
AcDbLinetypeTableRecord
  2
DASHED2
 70
    0
  3
Dashed (.5x) _ _ _ _ _ _ _ _ _ _ _ _ _ _ _ _ _
 72
   65
 73
    2
 40
9.524999999999999
 49
6.35
 74
    0
 49
-3.175
 74
    0
  0
LTYPE
  5
39
330
5
100
AcDbSymbolTableRecord
100
AcDbLinetypeTableRecord
  2
DASHEDX2
 70
    0
  3
Dashed (2x) ____  ____  ____  ____  ____  ___
 72
   65
 73
    2
 40
38.09999999999999
 49
25.4
 74
    0
 49
-12.7
 74
    0
  0
LTYPE
  5
3A
330
5
100
AcDbSymbolTableRecord
100
AcDbLinetypeTableRecord
  2
DASHDOT
 70
    0
  3
Dash dot __ . __ . __ . __ . __ . __ . __ . __
 72
   65
 73
    4
 40
25.4
 49
12.7
 74
    0
 49
-6.35
 74
    0
 49
0
 74
    0
 49
-6.35
 74
    0
  0
LTYPE
  5
3B
330
5
100
AcDbSymbolTableRecord
100
AcDbLinetypeTableRecord
  2
DASHDOTTINY
 70
    0
  3
Dash dot (.15x) _._._._._._._._._._._._._._._.
 72
   65
 73
    4
 40
3.81
 49
1.905
 74
    0
 49
-0.9525
 74
    0
 49
0
 74
    0
 49
-0.9525
 74
    0
  0
LTYPE
  5
3C
330
5
100
AcDbSymbolTableRecord
100
AcDbLinetypeTableRecord
  2
DASHDOT2
 70
    0
  3
Dash dot (.5x) _._._._._._._._._._._._._._._.
 72
   65
 73
    4
 40
12.7
 49
6.35
 74
    0
 49
-3.175
 74
    0
 49
0
 74
    0
 49
-3.175
 74
    0
  0
LTYPE
  5
3D
330
5
100
AcDbSymbolTableRecord
100
AcDbLinetypeTableRecord
  2
DASHDOTX2
 70
    0
  3
Dash dot (2x) ____  .  ____  .  ____  .  ___
 72
   65
 73
    4
 40
50.8
 49
25.4
 74
    0
 49
-12.7
 74
    0
 49
0
 74
    0
 49
-12.7
 74
    0
  0
LTYPE
  5
3E
330
5
100
AcDbSymbolTableRecord
100
AcDbLinetypeTableRecord
  2
DIVIDE
 70
    0
  3
Divide ____ . . ____ . . ____ . . ____ . . ____
 72
   65
 73
    6
 40
31.75
 49
12.7
 74
    0
 49
-6.35
 74
    0
 49
0
 74
    0
 49
-6.35
 74
    0
 49
0
 74
    0
 49
-6.35
 74
    0
  0
LTYPE
  5
3F
330
5
100
AcDbSymbolTableRecord
100
AcDbLinetypeTableRecord
  2
DIVIDETINY
 70
    0
  3
Divide (.15x) __..__..__..__..__..__..__..__.._
 72
   65
 73
    6
 40
4.7625
 49
1.905
 74
    0
 49
-0.9525
 74
    0
 49
0
 74
    0
 49
-0.9525
 74
    0
 49
0
 74
    0
 49
-0.9525
 74
    0
  0
LTYPE
  5
40
330
5
100
AcDbSymbolTableRecord
100
AcDbLinetypeTableRecord
  2
DIVIDE2
 70
    0
  3
Divide (.5x) __..__..__..__..__..__..__..__.._
 72
   65
 73
    6
 40
15.875
 49
6.35
 74
    0
 49
-3.175
 74
    0
 49
0
 74
    0
 49
-3.175
 74
    0
 49
0
 74
    0
 49
-3.175
 74
    0
  0
LTYPE
  5
41
330
5
100
AcDbSymbolTableRecord
100
AcDbLinetypeTableRecord
  2
DIVIDEX2
 70
    0
  3
Divide (2x) ________  .  .  ________  .  .  _
 72
   65
 73
    6
 40
63.5
 49
25.4
 74
    0
 49
-12.7
 74
    0
 49
0
 74
    0
 49
-12.7
 74
    0
 49
0
 74
    0
 49
-12.7
 74
    0
  0
LTYPE
  5
42
330
5
100
AcDbSymbolTableRecord
100
AcDbLinetypeTableRecord
  2
BORDER
 70
    0
  3
Border __ __ . __ __ . __ __ . __ __ . __ __ .
 72
   65
 73
    6
 40
44.45
 49
12.7
 74
    0
 49
-6.35
 74
    0
 49
12.7
 74
    0
 49
-6.35
 74
    0
 49
0
 74
    0
 49
-6.35
 74
    0
  0
LTYPE
  5
43
330
5
100
AcDbSymbolTableRecord
100
AcDbLinetypeTableRecord
  2
BORDERTINY
 70
    0
  3
Border (.15x) __.__.__.__.__.__.__.__.__.__.__.
 72
   65
 73
    6
 40
6.6675
 49
1.905
 74
    0
 49
-0.9525
 74
    0
 49
1.905
 74
    0
 49
-0.9525
 74
    0
 49
0
 74
    0
 49
-0.9525
 74
    0
  0
LTYPE
  5
44
330
5
100
AcDbSymbolTableRecord
100
AcDbLinetypeTableRecord
  2
BORDER2
 70
    0
  3
Border (.5x) __.__.__.__.__.__.__.__.__.__.__.
 72
   65
 73
    6
 40
22.225
 49
6.35
 74
    0
 49
-3.175
 74
    0
 49
6.35
 74
    0
 49
-3.175
 74
    0
 49
0
 74
    0
 49
-3.175
 74
    0
  0
LTYPE
  5
45
330
5
100
AcDbSymbolTableRecord
100
AcDbLinetypeTableRecord
  2
BORDERX2
 70
    0
  3
Border (2x) ____  ____  .  ____  ____  .  ___
 72
   65
 73
    6
 40
88.89999999999999
 49
25.4
 74
    0
 49
-12.7
 74
    0
 49
25.4
 74
    0
 49
-12.7
 74
    0
 49
0
 74
    0
 49
-12.7
 74
    0
  0
LTYPE
  5
46
330
5
100
AcDbSymbolTableRecord
100
AcDbLinetypeTableRecord
  2
CENTER
 70
    0
  3
Center ____ _ ____ _ ____ _ ____ _ ____ _ ____
 72
   65
 73
    4
 40
50.8
 49
31.75
 74
    0
 49
-6.35
 74
    0
 49
6.35
 74
    0
 49
-6.35
 74
    0
  0
LTYPE
  5
47
330
5
100
AcDbSymbolTableRecord
100
AcDbLinetypeTableRecord
  2
CENTERTINY
 70
    0
  3
Center (.15x) ___ _ ___ _ ___ _ ___ _ ___ _ ___
 72
   65
 73
    4
 40
7.619999999999999
 49
4.7625
 74
    0
 49
-0.9525
 74
    0
 49
0.9525
 74
    0
 49
-0.9525
 74
    0
  0
LTYPE
  5
48
330
5
100
AcDbSymbolTableRecord
100
AcDbLinetypeTableRecord
  2
CENTER2
 70
    0
  3
Center (.5x) ___ _ ___ _ ___ _ ___ _ ___ _ ___
 72
   65
 73
    4
 40
28.575
 49
19.05
 74
    0
 49
-3.175
 74
    0
 49
3.175
 74
    0
 49
-3.175
 74
    0
  0
LTYPE
  5
49
330
5
100
AcDbSymbolTableRecord
100
AcDbLinetypeTableRecord
  2
CENTERX2
 70
    0
  3
Center (2x) ________  __  ________  __  _____
 72
   65
 73
    4
 40
101.6
 49
63.5
 74
    0
 49
-12.7
 74
    0
 49
12.7
 74
    0
 49
-12.7
 74
    0
  0
ENDTAB
  0
TABLE
  2
LAYER
  5
2
330
0
100
AcDbSymbolTable
 70
    1
  0
LAYER
  5
10
330
2
100
AcDbSymbolTableRecord
100
AcDbLayerTableRecord
  2
0
 70
    0
 62
    7
  6
CONTINUOUS
370
   70
390
F
  0
LAYER
  5
4A
330
2
100
AcDbSymbolTableRecord
100
AcDbLayerTableRecord
  2
builder
 70
    1
 62
    8
  6
DASHED
370
   13
390
F
  0
LAYER
  5
4B
330
2
100
AcDbSymbolTableRecord
100
AcDbLayerTableRecord
  2
measures
 70
    0
 62
    6
  6
CONTINUOUS
370
   35
390
F
  0
ENDTAB
  0
TABLE
  2
STYLE
  5
3
330
0
100
AcDbSymbolTable
 70
    3
  0
STYLE
  5
4C
330
2
100
AcDbSymbolTableRecord
100
AcDbTextStyleTableRecord
  2
Standard
 70
    0
 40
0
 41
1
 50
0
 71
    0
 42
1
  3
txt
  4

  0
ENDTAB
  0
TABLE
  2
VIEW
  5
6
330
0
100
AcDbSymbolTable
 70
    0
  0
ENDTAB
  0
TABLE
  2
UCS
  5
7
330
0
100
AcDbSymbolTable
 70
    0
  0
ENDTAB
  0
TABLE
  2
APPID
  5
9
330
0
100
AcDbSymbolTable
 70
    1
  0
APPID
  5
12
330
9
100
AcDbSymbolTableRecord
100
AcDbRegAppTableRecord
  2
ACAD
 70
    0
  0
APPID
  5
4D
330
9
100
AcDbSymbolTableRecord
100
AcDbRegAppTableRecord
  2
LibreCad
 70
    0
  0
ENDTAB
  0
TABLE
  2
DIMSTYLE
  5
A
330
0
100
AcDbSymbolTable
 70
    1
100
AcDbDimStyleTable
 71
    1
  0
DIMSTYLE
105
4E
330
A
100
AcDbSymbolTableRecord
100
AcDbDimStyleTableRecord
  2
Standard
 70
    0
 40
1
 41
2.5
 42
0.625
 43
0.38
 44
1.25
 45
0
 46
0
 47
0
 48
0
 49
1
140
2.5
141
0.09
142
0
143
25.4
144
1
145
0
146
1
147
0.625
148
0
 71
    0
 72
    0
 73
    0
 74
    1
 75
    0
 76
    0
 77
    0
 78
    8
 79
    0
170
    0
171
    2
172
    0
173
    0
174
    0
175
    0
176
    0
177
    0
178
    0
179
    0
271
    2
272
    4
273
    2
274
    2
275
    0
276
    0
277
    2
278
   44
279
    0
280
    0
281
    0
282
    0
283
    1
284
    0
285
    0
286
    0
288
    0
289
    3
340
STANDARD
341

371
   -2
372
   -2
  0
ENDTAB
  0
TABLE
  2
BLOCK_RECORD
  5
1
330
0
100
AcDbSymbolTable
 70
    2
  0
BLOCK_RECORD
  5
1F
330
1
100
AcDbSymbolTableRecord
100
AcDbBlockTableRecord
  2
*Model_Space
 70
    0
280
    1
281
    0
  0
BLOCK_RECORD
  5
1E
330
1
100
AcDbSymbolTableRecord
100
AcDbBlockTableRecord
  2
*Paper_Space
 70
    0
280
    1
281
    0
  0
BLOCK_RECORD
  5
4F
330
1
100
AcDbSymbolTableRecord
100
AcDbBlockTableRecord
  2
*D14
 70
    0
280
    1
281
    0
  0
BLOCK_RECORD
  5
52
330
1
100
AcDbSymbolTableRecord
100
AcDbBlockTableRecord
  2
*D2
 70
    0
280
    1
281
    0
  0
BLOCK_RECORD
  5
55
330
1
100
AcDbSymbolTableRecord
100
AcDbBlockTableRecord
  2
*D7
 70
    0
280
    1
281
    0
  0
BLOCK_RECORD
  5
58
330
1
100
AcDbSymbolTableRecord
100
AcDbBlockTableRecord
  2
*D18
 70
    0
280
    1
281
    0
  0
BLOCK_RECORD
  5
5B
330
1
100
AcDbSymbolTableRecord
100
AcDbBlockTableRecord
  2
*D28
 70
    0
280
    1
281
    0
  0
BLOCK_RECORD
  5
5E
330
1
100
AcDbSymbolTableRecord
100
AcDbBlockTableRecord
  2
*D3
 70
    0
280
    1
281
    0
  0
BLOCK_RECORD
  5
61
330
1
100
AcDbSymbolTableRecord
100
AcDbBlockTableRecord
  2
*D24
 70
    0
280
    1
281
    0
  0
BLOCK_RECORD
  5
64
330
1
100
AcDbSymbolTableRecord
100
AcDbBlockTableRecord
  2
*D9
 70
    0
280
    1
281
    0
  0
BLOCK_RECORD
  5
67
330
1
100
AcDbSymbolTableRecord
100
AcDbBlockTableRecord
  2
*D30
 70
    0
280
    1
281
    0
  0
BLOCK_RECORD
  5
6A
330
1
100
AcDbSymbolTableRecord
100
AcDbBlockTableRecord
  2
*D16
 70
    0
280
    1
281
    0
  0
BLOCK_RECORD
  5
6D
330
1
100
AcDbSymbolTableRecord
100
AcDbBlockTableRecord
  2
*D31
 70
    0
280
    1
281
    0
  0
BLOCK_RECORD
  5
70
330
1
100
AcDbSymbolTableRecord
100
AcDbBlockTableRecord
  2
*D27
 70
    0
280
    1
281
    0
  0
BLOCK_RECORD
  5
73
330
1
100
AcDbSymbolTableRecord
100
AcDbBlockTableRecord
  2
*D10
 70
    0
280
    1
281
    0
  0
BLOCK_RECORD
  5
76
330
1
100
AcDbSymbolTableRecord
100
AcDbBlockTableRecord
  2
*D5
 70
    0
280
    1
281
    0
  0
BLOCK_RECORD
  5
79
330
1
100
AcDbSymbolTableRecord
100
AcDbBlockTableRecord
  2
*D29
 70
    0
280
    1
281
    0
  0
BLOCK_RECORD
  5
7C
330
1
100
AcDbSymbolTableRecord
100
AcDbBlockTableRecord
  2
*D15
 70
    0
280
    1
281
    0
  0
BLOCK_RECORD
  5
7F
330
1
100
AcDbSymbolTableRecord
100
AcDbBlockTableRecord
  2
*D25
 70
    0
280
    1
281
    0
  0
BLOCK_RECORD
  5
82
330
1
100
AcDbSymbolTableRecord
100
AcDbBlockTableRecord
  2
*D11
 70
    0
280
    1
281
    0
  0
BLOCK_RECORD
  5
85
330
1
100
AcDbSymbolTableRecord
100
AcDbBlockTableRecord
  2
*D6
 70
    0
280
    1
281
    0
  0
BLOCK_RECORD
  5
88
330
1
100
AcDbSymbolTableRecord
100
AcDbBlockTableRecord
  2
*D8
 70
    0
280
    1
281
    0
  0
BLOCK_RECORD
  5
8B
330
1
100
AcDbSymbolTableRecord
100
AcDbBlockTableRecord
  2
*D13
 70
    0
280
    1
281
    0
  0
BLOCK_RECORD
  5
8E
330
1
100
AcDbSymbolTableRecord
100
AcDbBlockTableRecord
  2
*D19
 70
    0
280
    1
281
    0
  0
BLOCK_RECORD
  5
91
330
1
100
AcDbSymbolTableRecord
100
AcDbBlockTableRecord
  2
*D26
 70
    0
280
    1
281
    0
  0
BLOCK_RECORD
  5
94
330
1
100
AcDbSymbolTableRecord
100
AcDbBlockTableRecord
  2
*D17
 70
    0
280
    1
281
    0
  0
BLOCK_RECORD
  5
97
330
1
100
AcDbSymbolTableRecord
100
AcDbBlockTableRecord
  2
*D21
 70
    0
280
    1
281
    0
  0
BLOCK_RECORD
  5
9A
330
1
100
AcDbSymbolTableRecord
100
AcDbBlockTableRecord
  2
*D12
 70
    0
280
    1
281
    0
  0
BLOCK_RECORD
  5
9D
330
1
100
AcDbSymbolTableRecord
100
AcDbBlockTableRecord
  2
*D23
 70
    0
280
    1
281
    0
  0
BLOCK_RECORD
  5
A0
330
1
100
AcDbSymbolTableRecord
100
AcDbBlockTableRecord
  2
*D4
 70
    0
280
    1
281
    0
  0
BLOCK_RECORD
  5
A3
330
1
100
AcDbSymbolTableRecord
100
AcDbBlockTableRecord
  2
*D20
 70
    0
280
    1
281
    0
  0
BLOCK_RECORD
  5
A6
330
1
100
AcDbSymbolTableRecord
100
AcDbBlockTableRecord
  2
*D22
 70
    0
280
    1
281
    0
  0
BLOCK_RECORD
  5
A9
330
1
100
AcDbSymbolTableRecord
100
AcDbBlockTableRecord
  2
*D1
 70
    0
280
    1
281
    0
  0
ENDTAB
  0
ENDSEC
  0
SECTION
  2
BLOCKS
  0
BLOCK
  5
20
330
1F
100
AcDbEntity
  8
0
100
AcDbBlockBegin
  2
*Model_Space
 70
    0
 10
0
 20
0
 30
0
  3
*Model_Space
  1

  0
ENDBLK
  5
21
330
1F
100
AcDbEntity
  8
0
100
AcDbBlockEnd
  0
BLOCK
  5
1C
330
1B
100
AcDbEntity
  8
0
100
AcDbBlockBegin
  2
*Paper_Space
 70
    0
 10
0
 20
0
 30
0
  3
*Paper_Space
  1

  0
ENDBLK
  5
1D
330
1F
100
AcDbEntity
  8
0
100
AcDbBlockEnd
  0
BLOCK
  5
50
330
4F
100
AcDbEntity
  8
0
100
AcDbBlockBegin
  2
*D14
 70
    1
 10
0
 20
0
  3
*D14
  1

  0
LINE
  5
AC
100
AcDbEntity
  8
measures
  6
ByBlock
 62
    0
370
   -2
100
AcDbLine
 10
321.4599824099711
 20
345.8000774750755
 11
321.4599824099711
 21
384.0691931494379
  0
MTEXT
  5
AD
100
AcDbEntity
  8
measures
  6
CONTINUOUS
 62
    0
370
   -2
100
AcDbMText
 10
319.5849824099711
 20
364.9346353122567
 30
0
 40
2.5
 41
7.916666666666822
 71
    5
 72
    1
  1
38,27
  7
STANDARD
210
0
220
0
230
1
 50
90
 73
    2
 44
1
  0
SOLID
  5
AE
100
AcDbEntity
  8
measures
  6
ByBlock
 62
    0
370
   -2
100
AcDbTrace
 10
321.4599824099711
 20
345.8000774750755
 30
0
 11
321.0436977521983
 21
348.3000774750755
 31
0
 12
321.876267067744
 22
348.3000774750755
 32
0
 13
321.876267067744
 23
348.3000774750755
 33
0
  0
SOLID
  5
AF
100
AcDbEntity
  8
measures
  6
ByBlock
 62
    0
370
   -2
100
AcDbTrace
 10
321.4599824099711
 20
384.0691931494379
 30
0
 11
321.876267067744
 21
381.5691931494379
 31
0
 12
321.0436977521983
 22
381.5691931494379
 32
0
 13
321.0436977521983
 23
381.5691931494379
 33
0
  0
LINE
  5
B0
100
AcDbEntity
  8
measures
  6
ByBlock
 62
    0
370
   -2
100
AcDbLine
 10
294.9072470978593
 20
345.8000774750755
 11
322.7099824099711
 21
345.8000774750755
  0
LINE
  5
B1
100
AcDbEntity
  8
measures
  6
ByBlock
 62
    0
370
   -2
100
AcDbLine
 10
289.6544029688227
 20
384.0691931494379
 11
322.7099824099711
 21
384.0691931494379
  0
ENDBLK
  5
51
330
4F
100
AcDbEntity
  8
0
100
AcDbBlockEnd
  0
BLOCK
  5
53
330
52
100
AcDbEntity
  8
0
100
AcDbBlockBegin
  2
*D2
 70
    1
 10
0
 20
0
  3
*D2
  1

  0
LINE
  5
B2
100
AcDbEntity
  8
measures
  6
ByBlock
 62
    0
370
   -2
100
AcDbLine
 10
209.27439483841
 20
211.2500000000447
 11
249.2743948384074
 21
211.2500000000447
  0
MTEXT
  5
B3
100
AcDbEntity
  8
measures
  6
CONTINUOUS
 62
    0
370
   -2
100
AcDbMText
 10
229.2743948384087
 20
213.1250000000447
 30
0
 40
2.5
 41
3.333333333333333
 71
    5
 72
    1
  1
40
  7
STANDARD
210
0
220
0
230
1
 50
0
 73
    2
 44
1
  0
SOLID
  5
B4
100
AcDbEntity
  8
measures
  6
ByBlock
 62
    0
370
   -2
100
AcDbTrace
 10
209.27439483841
 20
211.2500000000447
 30
0
 11
211.77439483841
 21
211.6662846578176
 31
0
 12
211.77439483841
 22
210.8337153422719
 32
0
 13
211.77439483841
 23
210.8337153422719
 33
0
  0
SOLID
  5
B5
100
AcDbEntity
  8
measures
  6
ByBlock
 62
    0
370
   -2
100
AcDbTrace
 10
249.2743948384074
 20
211.2500000000447
 30
0
 11
246.7743948384074
 21
210.8337153422719
 31
0
 12
246.7743948384074
 22
211.6662846578176
 32
0
 13
246.7743948384074
 23
211.6662846578176
 33
0
  0
LINE
  5
B6
100
AcDbEntity
  8
measures
  6
ByBlock
 62
    0
370
   -2
100
AcDbLine
 10
209.27439483841
 20
173.2905196378962
 11
209.27439483841
 21
212.5000000000447
  0
LINE
  5
B7
100
AcDbEntity
  8
measures
  6
ByBlock
 62
    0
370
   -2
100
AcDbLine
 10
249.2743948384074
 20
173.2905196378939
 11
249.2743948384074
 21
212.5000000000447
  0
ENDBLK
  5
54
330
52
100
AcDbEntity
  8
0
100
AcDbBlockEnd
  0
BLOCK
  5
56
330
55
100
AcDbEntity
  8
0
100
AcDbBlockBegin
  2
*D7
 70
    1
 10
0
 20
0
  3
*D7
  1

  0
LINE
  5
B8
100
AcDbEntity
  8
measures
  6
ByBlock
 62
    0
370
   -2
100
AcDbLine
 10
148.265101240012
 20
116.2682690049616
 11
139.6014593592874
 21
117.7122093184157
  0
LINE
  5
B9
100
AcDbEntity
  8
measures
  6
ByBlock
 62
    0
370
   -2
100
AcDbLine
 10
163.2651012400123
 20
206.2682690049615
 11
154.6014593592878
 21
207.7122093184157
  0
LINE
  5
BA
100
AcDbEntity
  8
measures
  6
ByBlock
 62
    0
370
   -2
100
AcDbLine
 10
140.8344517640776
 20
117.506710584284
 11
155.8344517640779
 21
207.506710584284
  0
MTEXT
  5
BB
100
AcDbEntity
  8
measures
  6
CONTINUOUS
 62
    0
370
   -2
100
AcDbMText
 10
146.4849631568925
 20
162.8149586854815
 30
0
 40
2.5
 41
7.638888888889044
 71
    5
 72
    1
  1
91,24
  7
STANDARD
210
0
220
0
230
1
 50
80.53767779197419
 73
    2
 44
1
  0
SOLID
  5
BC
100
AcDbEntity
  8
measures
  6
ByBlock
 62
    0
370
   -2
100
AcDbTrace
 10
140.8344517640776
 20
117.506710584284
 30
0
 11
140.8348285753293
 21
120.041132170033
 31
0
 12
141.6560698893527
 22
119.9042586176957
 32
0
 13
141.6560698893527
 23
119.9042586176957
 33
0
  0
SOLID
  5
BD
100
AcDbEntity
  8
measures
  6
ByBlock
 62
    0
370
   -2
100
AcDbTrace
 10
155.8344517640779
 20
207.506710584284
 30
0
 11
155.8340749528262
 21
204.972288998535
 31
0
 12
155.0128336388028
 22
205.1091625508722
 32
0
 13
155.0128336388028
 23
205.1091625508722
 33
0
  0
ENDBLK
  5
57
330
55
100
AcDbEntity
  8
0
100
AcDbBlockEnd
  0
BLOCK
  5
59
330
58
100
AcDbEntity
  8
0
100
AcDbBlockBegin
  2
*D18
 70
    1
 10
0
 20
0
  3
*D18
  1

  0
LINE
  5
BE
100
AcDbEntity
  8
measures
  6
ByBlock
 62
    0
370
   -2
100
AcDbLine
 10
353.8815974424093
 20
104.511724269161
 11
398.8815974424091
 21
104.511724269161
  0
MTEXT
  5
BF
100
AcDbEntity
  8
measures
  6
CONTINUOUS
 62
    0
370
   -2
100
AcDbMText
 10
376.3815974424092
 20
106.386724269161
 30
0
 40
2.5
 41
3.333333333333488
 71
    5
 72
    1
  1
45
  7
STANDARD
210
0
220
0
230
1
 50
0
 73
    2
 44
1
  0
SOLID
  5
C0
100
AcDbEntity
  8
measures
  6
ByBlock
 62
    0
370
   -2
100
AcDbTrace
 10
353.8815974424093
 20
104.511724269161
 30
0
 11
356.3815974424093
 21
104.9280089269338
 31
0
 12
356.3815974424093
 22
104.0954396113881
 32
0
 13
356.3815974424093
 23
104.0954396113881
 33
0
  0
SOLID
  5
C1
100
AcDbEntity
  8
measures
  6
ByBlock
 62
    0
370
   -2
100
AcDbTrace
 10
398.8815974424091
 20
104.511724269161
 30
0
 11
396.3815974424091
 21
104.0954396113881
 31
0
 12
396.3815974424091
 22
104.9280089269338
 32
0
 13
396.3815974424091
 23
104.9280089269338
 33
0
  0
LINE
  5
C2
100
AcDbEntity
  8
measures
  6
ByBlock
 62
    0
370
   -2
100
AcDbLine
 10
353.8815974424093
 20
115.5405196378957
 11
353.8815974424093
 21
103.261724269161
  0
LINE
  5
C3
100
AcDbEntity
  8
measures
  6
ByBlock
 62
    0
370
   -2
100
AcDbLine
 10
398.8815974424091
 20
115.5405196378957
 11
398.8815974424091
 21
103.261724269161
  0
ENDBLK
  5
5A
330
58
100
AcDbEntity
  8
0
100
AcDbBlockEnd
  0
BLOCK
  5
5C
330
5B
100
AcDbEntity
  8
0
100
AcDbBlockBegin
  2
*D28
 70
    1
 10
0
 20
0
  3
*D28
  1

  0
LINE
  5
C4
100
AcDbEntity
  8
measures
  6
ByBlock
 62
    0
370
   -2
100
AcDbLine
 10
122.9087399097504
 20
104.511724269161
 11
77.90873990975058
 21
104.511724269161
  0
MTEXT
  5
C5
100
AcDbEntity
  8
measures
  6
CONTINUOUS
 62
    0
370
   -2
100
AcDbMText
 10
100.4087399097505
 20
106.386724269161
 30
0
 40
2.5
 41
3.333333333333488
 71
    5
 72
    1
  1
45
  7
STANDARD
210
0
220
0
230
1
 50
0
 73
    2
 44
1
  0
SOLID
  5
C6
100
AcDbEntity
  8
measures
  6
ByBlock
 62
    0
370
   -2
100
AcDbTrace
 10
122.9087399097504
 20
104.511724269161
 30
0
 11
120.4087399097504
 21
104.0954396113881
 31
0
 12
120.4087399097504
 22
104.9280089269338
 32
0
 13
120.4087399097504
 23
104.9280089269338
 33
0
  0
SOLID
  5
C7
100
AcDbEntity
  8
measures
  6
ByBlock
 62
    0
370
   -2
100
AcDbTrace
 10
77.90873990975058
 20
104.511724269161
 30
0
 11
80.40873990975058
 21
104.9280089269338
 31
0
 12
80.40873990975058
 22
104.0954396113881
 32
0
 13
80.40873990975058
 23
104.0954396113881
 33
0
  0
LINE
  5
C8
100
AcDbEntity
  8
measures
  6
ByBlock
 62
    0
370
   -2
100
AcDbLine
 10
122.9087399097504
 20
115.5405196378957
 11
122.9087399097504
 21
103.261724269161
  0
LINE
  5
C9
100
AcDbEntity
  8
measures
  6
ByBlock
 62
    0
370
   -2
100
AcDbLine
 10
77.90873990975058
 20
115.5405196378957
 11
77.90873990975058
 21
103.261724269161
  0
ENDBLK
  5
5D
330
5B
100
AcDbEntity
  8
0
100
AcDbBlockEnd
  0
BLOCK
  5
5F
330
5E
100
AcDbEntity
  8
0
100
AcDbBlockBegin
  2
*D3
 70
    1
 10
0
 20
0
  3
*D3
  1

  0
LINE
  5
CA
100
AcDbEntity
  8
measures
  6
ByBlock
 62
    0
370
   -2
100
AcDbLine
 10
163.8815974424074
 20
218.2500000000462
 11
293.8815974424072
 21
218.2500000000462
  0
MTEXT
  5
CB
100
AcDbEntity
  8
measures
  6
CONTINUOUS
 62
    0
370
   -2
100
AcDbMText
 10
228.8815974424073
 20
220.1250000000462
 30
0
 40
2.5
 41
4.444444444444599
 71
    5
 72
    1
  1
130
  7
STANDARD
210
0
220
0
230
1
 50
0
 73
    2
 44
1
  0
SOLID
  5
CC
100
AcDbEntity
  8
measures
  6
ByBlock
 62
    0
370
   -2
100
AcDbTrace
 10
163.8815974424074
 20
218.2500000000462
 30
0
 11
166.3815974424074
 21
218.6662846578191
 31
0
 12
166.3815974424074
 22
217.8337153422734
 32
0
 13
166.3815974424074
 23
217.8337153422734
 33
0
  0
SOLID
  5
CD
100
AcDbEntity
  8
measures
  6
ByBlock
 62
    0
370
   -2
100
AcDbTrace
 10
293.8815974424072
 20
218.2500000000462
 30
0
 11
291.3815974424072
 21
217.8337153422734
 31
0
 12
291.3815974424072
 22
218.6662846578191
 32
0
 13
291.3815974424072
 23
218.6662846578191
 33
0
  0
LINE
  5
CE
100
AcDbEntity
  8
measures
  6
ByBlock
 62
    0
370
   -2
100
AcDbLine
 10
163.8815974424074
 20
206.7905196378957
 11
163.8815974424074
 21
219.5000000000462
  0
LINE
  5
CF
100
AcDbEntity
  8
measures
  6
ByBlock
 62
    0
370
   -2
100
AcDbLine
 10
293.8815974424072
 20
206.7905196378961
 11
293.8815974424072
 21
219.5000000000462
  0
ENDBLK
  5
60
330
5E
100
AcDbEntity
  8
0
100
AcDbBlockEnd
  0
BLOCK
  5
62
330
61
100
AcDbEntity
  8
0
100
AcDbBlockBegin
  2
*D24
 70
    1
 10
0
 20
0
  3
*D24
  1

  0
LINE
  5
D0
100
AcDbEntity
  8
measures
  6
ByBlock
 62
    0
370
   -2
100
AcDbLine
 10
333.53100207215
 20
317.4346353122597
 11
333.53100207215
 21
415.434635312265
  0
MTEXT
  5
D1
100
AcDbEntity
  8
measures
  6
CONTINUOUS
 62
    0
370
   -2
100
AcDbMText
 10
331.65600207215
 20
366.4346353122623
 30
0
 40
2.5
 41
3.055555555555711
 71
    5
 72
    1
  1
98
  7
STANDARD
210
0
220
0
230
1
 50
90
 73
    2
 44
1
  0
SOLID
  5
D2
100
AcDbEntity
  8
measures
  6
ByBlock
 62
    0
370
   -2
100
AcDbTrace
 10
333.53100207215
 20
317.4346353122597
 30
0
 11
333.1147174143771
 21
319.9346353122597
 31
0
 12
333.9472867299228
 22
319.9346353122597
 32
0
 13
333.9472867299228
 23
319.9346353122597
 33
0
  0
SOLID
  5
D3
100
AcDbEntity
  8
measures
  6
ByBlock
 62
    0
370
   -2
100
AcDbTrace
 10
333.53100207215
 20
415.434635312265
 30
0
 11
333.9472867299228
 21
412.934635312265
 31
0
 12
333.1147174143771
 22
412.934635312265
 32
0
 13
333.1147174143771
 23
412.934635312265
 33
0
  0
LINE
  5
D4
100
AcDbEntity
  8
measures
  6
ByBlock
 62
    0
370
   -2
100
AcDbLine
 10
310.8007064503109
 20
317.4346353122597
 11
334.78100207215
 21
317.4346353122597
  0
LINE
  5
D5
100
AcDbEntity
  8
measures
  6
ByBlock
 62
    0
370
   -2
100
AcDbLine
 10
297.3491616321318
 20
415.434635312265
 11
334.78100207215
 21
415.434635312265
  0
ENDBLK
  5
63
330
61
100
AcDbEntity
  8
0
100
AcDbBlockEnd
  0
BLOCK
  5
65
330
64
100
AcDbEntity
  8
0
100
AcDbBlockBegin
  2
*D9
 70
    1
 10
0
 20
0
  3
*D9
  1

  0
LINE
  5
D6
100
AcDbEntity
  8
measures
  6
ByBlock
 62
    0
370
   -2
100
AcDbLine
 10
148.8815974424071
 20
106.7500000000291
 11
308.8815974424089
 21
106.7500000000291
  0
MTEXT
  5
D7
100
AcDbEntity
  8
measures
  6
CONTINUOUS
 62
    0
370
   -2
100
AcDbMText
 10
228.881597442408
 20
108.6250000000291
 30
0
 40
2.5
 41
4.444444444444599
 71
    5
 72
    1
  1
160
  7
STANDARD
210
0
220
0
230
1
 50
0
 73
    2
 44
1
  0
SOLID
  5
D8
100
AcDbEntity
  8
measures
  6
ByBlock
 62
    0
370
   -2
100
AcDbTrace
 10
148.8815974424071
 20
106.7500000000291
 30
0
 11
151.3815974424071
 21
107.166284657802
 31
0
 12
151.3815974424071
 22
106.3337153422563
 32
0
 13
151.3815974424071
 23
106.3337153422563
 33
0
  0
SOLID
  5
D9
100
AcDbEntity
  8
measures
  6
ByBlock
 62
    0
370
   -2
100
AcDbTrace
 10
308.8815974424089
 20
106.7500000000291
 30
0
 11
306.3815974424089
 21
106.3337153422563
 31
0
 12
306.3815974424089
 22
107.166284657802
 32
0
 13
306.3815974424089
 23
107.166284657802
 33
0
  0
LINE
  5
DA
100
AcDbEntity
  8
measures
  6
ByBlock
 62
    0
370
   -2
100
AcDbLine
 10
148.8815974424071
 20
115.5405196378957
 11
148.8815974424071
 21
105.5000000000291
  0
LINE
  5
DB
100
AcDbEntity
  8
measures
  6
ByBlock
 62
    0
370
   -2
100
AcDbLine
 10
308.8815974424089
 20
115.5405196378958
 11
308.8815974424089
 21
105.5000000000291
  0
ENDBLK
  5
66
330
64
100
AcDbEntity
  8
0
100
AcDbBlockEnd
  0
BLOCK
  5
68
330
67
100
AcDbEntity
  8
0
100
AcDbBlockBegin
  2
*D30
 70
    1
 10
0
 20
0
  3
*D30
  1

  0
LINE
  5
DC
100
AcDbEntity
  8
measures
  6
ByBlock
 62
    0
370
   -2
100
AcDbLine
 10
69.57837605026556
 20
116.1655196378957
 11
69.57837605026555
 21
212.1655196378953
  0
MTEXT
  5
DD
100
AcDbEntity
  8
measures
  6
CONTINUOUS
 62
    0
370
   -2
100
AcDbMText
 10
71.45337605026555
 20
164.1655196378955
 30
0
 40
2.5
 41
3.055555555555866
 71
    5
 72
    1
  1
96
  7
STANDARD
210
0
220
0
230
1
 50
270
 73
    2
 44
1
  0
SOLID
  5
DE
100
AcDbEntity
  8
measures
  6
ByBlock
 62
    0
370
   -2
100
AcDbTrace
 10
69.57837605026556
 20
116.1655196378957
 30
0
 11
69.16209139249273
 21
118.6655196378957
 31
0
 12
69.9946607080384
 22
118.6655196378957
 32
0
 13
69.9946607080384
 23
118.6655196378957
 33
0
  0
SOLID
  5
DF
100
AcDbEntity
  8
measures
  6
ByBlock
 62
    0
370
   -2
100
AcDbTrace
 10
69.57837605026555
 20
212.1655196378953
 30
0
 11
69.99466070803838
 21
209.6655196378953
 31
0
 12
69.16209139249271
 22
209.6655196378953
 32
0
 13
69.16209139249271
 23
209.6655196378953
 33
0
  0
LINE
  5
E0
100
AcDbEntity
  8
measures
  6
ByBlock
 62
    0
370
   -2
100
AcDbLine
 10
77.28373990975058
 20
116.1655196378957
 11
68.32837605026556
 21
116.1655196378957
  0
LINE
  5
E1
100
AcDbEntity
  8
measures
  6
ByBlock
 62
    0
370
   -2
100
AcDbLine
 10
77.28373990975052
 20
212.1655196378953
 11
68.32837605026555
 21
212.1655196378953
  0
ENDBLK
  5
69
330
67
100
AcDbEntity
  8
0
100
AcDbBlockEnd
  0
BLOCK
  5
6B
330
6A
100
AcDbEntity
  8
0
100
AcDbBlockBegin
  2
*D16
 70
    1
 10
0
 20
0
  3
*D16
  1

  0
LINE
  5
E2
100
AcDbEntity
  8
measures
  6
ByBlock
 62
    0
370
   -2
100
AcDbLine
 10
163.4809477869639
 20
287.2686703211547
 11
294.2822470978593
 21
287.2686703211547
  0
MTEXT
  5
E3
100
AcDbEntity
  8
measures
  6
CONTINUOUS
 62
    0
370
   -2
100
AcDbMText
 10
228.8815974424116
 20
289.1436703211547
 30
0
 40
2.5
 41
7.361111111111266
 71
    5
 72
    1
  1
130,8
  7
STANDARD
210
0
220
0
230
1
 50
0
 73
    2
 44
1
  0
SOLID
  5
E4
100
AcDbEntity
  8
measures
  6
ByBlock
 62
    0
370
   -2
100
AcDbTrace
 10
163.4809477869639
 20
287.2686703211547
 30
0
 11
165.9809477869639
 21
287.6849549789275
 31
0
 12
165.9809477869639
 22
286.8523856633818
 32
0
 13
165.9809477869639
 23
286.8523856633818
 33
0
  0
SOLID
  5
E5
100
AcDbEntity
  8
measures
  6
ByBlock
 62
    0
370
   -2
100
AcDbTrace
 10
294.2822470978593
 20
287.2686703211547
 30
0
 11
291.7822470978593
 21
286.8523856633818
 31
0
 12
291.7822470978593
 22
287.6849549789275
 32
0
 13
291.7822470978593
 23
287.6849549789275
 33
0
  0
LINE
  5
E6
100
AcDbEntity
  8
measures
  6
ByBlock
 62
    0
370
   -2
100
AcDbLine
 10
163.4809477869639
 20
345.1750774750755
 11
163.4809477869639
 21
286.0186703211547
  0
LINE
  5
E7
100
AcDbEntity
  8
measures
  6
ByBlock
 62
    0
370
   -2
100
AcDbLine
 10
294.2822470978593
 20
345.1750774750755
 11
294.2822470978593
 21
286.0186703211547
  0
ENDBLK
  5
6C
330
6A
100
AcDbEntity
  8
0
100
AcDbBlockEnd
  0
BLOCK
  5
6E
330
6D
100
AcDbEntity
  8
0
100
AcDbBlockBegin
  2
*D31
 70
    1
 10
0
 20
0
  3
*D31
  1

  0
LINE
  5
E8
100
AcDbEntity
  8
measures
  6
ByBlock
 62
    0
370
   -2
100
AcDbLine
 10
122.9744842393586
 20
208.0270521657045
 11
123.7257858734181
 21
215.1296936641663
  0
LINE
  5
E9
100
AcDbEntity
  8
measures
  6
ByBlock
 62
    0
370
   -2
100
AcDbLine
 10
77.97448423935873
 20
212.7870521657041
 11
78.72578587341822
 21
219.8896936641659
  0
LINE
  5
EA
100
AcDbEntity
  8
measures
  6
ByBlock
 62
    0
370
   -2
100
AcDbLine
 10
123.5942972142017
 20
213.8866286085487
 11
78.59429721420179
 21
218.6466286085483
  0
MTEXT
  5
EB
100
AcDbEntity
  8
measures
  6
CONTINUOUS
 62
    0
370
   -2
100
AcDbMText
 10
101.2915302030264
 20
218.1312261919749
 30
0
 40
2.5
 41
8.194444444444756
 71
    5
 72
    1
  1
45,25
  7
STANDARD
210
0
220
0
230
1
 50
353.9618331893054
 73
    2
 44
1
  0
SOLID
  5
EC
100
AcDbEntity
  8
measures
  6
ByBlock
 62
    0
370
   -2
100
AcDbTrace
 10
123.5942972142017
 20
213.8866286085487
 30
0
 11
121.0643777337642
 21
213.7356307979679
 31
0
 12
121.1519564721689
 22
214.5635810559953
 32
0
 13
121.1519564721689
 23
214.5635810559953
 33
0
  0
SOLID
  5
ED
100
AcDbEntity
  8
measures
  6
ByBlock
 62
    0
370
   -2
100
AcDbTrace
 10
78.59429721420179
 20
218.6466286085483
 30
0
 11
81.12421669463923
 21
218.7976264191292
 31
0
 12
81.03663795623456
 22
217.9696761611018
 32
0
 13
81.03663795623456
 23
217.9696761611018
 33
0
  0
ENDBLK
  5
6F
330
6D
100
AcDbEntity
  8
0
100
AcDbBlockEnd
  0
BLOCK
  5
71
330
70
100
AcDbEntity
  8
0
100
AcDbBlockBegin
  2
*D27
 70
    1
 10
0
 20
0
  3
*D27
  1

  0
LINE
  5
EE
100
AcDbEntity
  8
measures
  6
ByBlock
 62
    0
370
   -2
100
AcDbLine
 10
353.8158531128011
 20
208.0270521657045
 11
353.0645514787416
 21
215.1296936641663
  0
LINE
  5
EF
100
AcDbEntity
  8
measures
  6
ByBlock
 62
    0
370
   -2
100
AcDbLine
 10
398.8158531128009
 20
212.7870521657041
 11
398.0645514787415
 21
219.8896936641659
  0
LINE
  5
F0
100
AcDbEntity
  8
measures
  6
ByBlock
 62
    0
370
   -2
100
AcDbLine
 10
353.196040137958
 20
213.8866286085487
 11
398.1960401379579
 21
218.6466286085483
  0
MTEXT
  5
F1
100
AcDbEntity
  8
measures
  6
CONTINUOUS
 62
    0
370
   -2
100
AcDbMText
 10
375.4988071491333
 20
218.1312261919749
 30
0
 40
2.5
 41
8.194444444444756
 71
    5
 72
    1
  1
45,25
  7
STANDARD
210
0
220
0
230
1
 50
6.038166810694642
 73
    2
 44
1
  0
SOLID
  5
F2
100
AcDbEntity
  8
measures
  6
ByBlock
 62
    0
370
   -2
100
AcDbTrace
 10
353.196040137958
 20
213.8866286085487
 30
0
 11
355.6383808799908
 21
214.5635810559953
 31
0
 12
355.7259596183954
 22
213.7356307979679
 32
0
 13
355.7259596183954
 23
213.7356307979679
 33
0
  0
SOLID
  5
F3
100
AcDbEntity
  8
measures
  6
ByBlock
 62
    0
370
   -2
100
AcDbTrace
 10
398.1960401379579
 20
218.6466286085483
 30
0
 11
395.7536993959251
 21
217.9696761611018
 31
0
 12
395.6661206575204
 22
218.7976264191292
 32
0
 13
395.6661206575204
 23
218.7976264191292
 33
0
  0
ENDBLK
  5
72
330
70
100
AcDbEntity
  8
0
100
AcDbBlockEnd
  0
BLOCK
  5
74
330
73
100
AcDbEntity
  8
0
100
AcDbBlockBegin
  2
*D10
 70
    1
 10
0
 20
0
  3
*D10
  1

  0
LINE
  5
F4
100
AcDbEntity
  8
measures
  6
ByBlock
 62
    0
370
   -2
100
AcDbLine
 10
161.0390332526914
 20
446.8410000001654
 11
296.7241616321318
 21
446.8410000001654
  0
MTEXT
  5
F5
100
AcDbEntity
  8
measures
  6
CONTINUOUS
 62
    0
370
   -2
100
AcDbMText
 10
228.8815974424116
 20
448.7160000001654
 30
0
 40
2.5
 41
9.305555555556021
 71
    5
 72
    1
  1
135,69
  7
STANDARD
210
0
220
0
230
1
 50
0
 73
    2
 44
1
  0
SOLID
  5
F6
100
AcDbEntity
  8
measures
  6
ByBlock
 62
    0
370
   -2
100
AcDbTrace
 10
161.0390332526914
 20
446.8410000001654
 30
0
 11
163.5390332526914
 21
447.2572846579382
 31
0
 12
163.5390332526914
 22
446.4247153423925
 32
0
 13
163.5390332526914
 23
446.4247153423925
 33
0
  0
SOLID
  5
F7
100
AcDbEntity
  8
measures
  6
ByBlock
 62
    0
370
   -2
100
AcDbTrace
 10
296.7241616321318
 20
446.8410000001654
 30
0
 11
294.2241616321318
 21
446.4247153423925
 31
0
 12
294.2241616321318
 22
447.2572846579382
 32
0
 13
294.2241616321318
 23
447.2572846579382
 33
0
  0
LINE
  5
F8
100
AcDbEntity
  8
measures
  6
ByBlock
 62
    0
370
   -2
100
AcDbLine
 10
161.0390332526914
 20
416.0596353122389
 11
161.0390332526914
 21
448.0910000001654
  0
LINE
  5
F9
100
AcDbEntity
  8
measures
  6
ByBlock
 62
    0
370
   -2
100
AcDbLine
 10
296.7241616321318
 20
416.0596353122649
 11
296.7241616321318
 21
448.0910000001654
  0
ENDBLK
  5
75
330
73
100
AcDbEntity
  8
0
100
AcDbBlockEnd
  0
BLOCK
  5
77
330
76
100
AcDbEntity
  8
0
100
AcDbBlockBegin
  2
*D5
 70
    1
 10
0
 20
0
  3
*D5
  1

  0
LINE
  5
FA
100
AcDbEntity
  8
measures
  6
ByBlock
 62
    0
370
   -2
100
AcDbLine
 10
320.095666146153
 20
145.6655196378951
 11
320.095666146153
 21
172.6655196378939
  0
MTEXT
  5
FB
100
AcDbEntity
  8
measures
  6
CONTINUOUS
 62
    0
370
   -2
100
AcDbMText
 10
318.220666146153
 20
159.1655196378945
 30
0
 40
2.5
 41
3.055555555555556
 71
    5
 72
    1
  1
27
  7
STANDARD
210
0
220
0
230
1
 50
90
 73
    2
 44
1
  0
SOLID
  5
FC
100
AcDbEntity
  8
measures
  6
ByBlock
 62
    0
370
   -2
100
AcDbTrace
 10
320.095666146153
 20
145.6655196378951
 30
0
 11
319.6793814883802
 21
148.1655196378951
 31
0
 12
320.5119508039259
 22
148.1655196378951
 32
0
 13
320.5119508039259
 23
148.1655196378951
 33
0
  0
SOLID
  5
FD
100
AcDbEntity
  8
measures
  6
ByBlock
 62
    0
370
   -2
100
AcDbTrace
 10
320.095666146153
 20
172.6655196378939
 30
0
 11
320.5119508039259
 21
170.1655196378939
 31
0
 12
319.6793814883802
 22
170.1655196378939
 32
0
 13
319.6793814883802
 23
170.1655196378939
 33
0
  0
LINE
  5
FE
100
AcDbEntity
  8
measures
  6
ByBlock
 62
    0
370
   -2
100
AcDbLine
 10
249.8993948384077
 20
145.6655196378951
 11
321.345666146153
 21
145.6655196378951
  0
LINE
  5
FF
100
AcDbEntity
  8
measures
  6
ByBlock
 62
    0
370
   -2
100
AcDbLine
 10
249.8993948384074
 20
172.6655196378939
 11
321.345666146153
 21
172.6655196378939
  0
ENDBLK
  5
78
330
76
100
AcDbEntity
  8
0
100
AcDbBlockEnd
  0
BLOCK
  5
7A
330
79
100
AcDbEntity
  8
0
100
AcDbBlockBegin
  2
*D29
 70
    1
 10
0
 20
0
  3
*D29
  1

  0
LINE
  5
100
100
AcDbEntity
  8
measures
  6
ByBlock
 62
    0
370
   -2
100
AcDbLine
 10
131.0014548087263
 20
116.1655196378957
 11
131.0014548087263
 21
207.4055196378958
  0
MTEXT
  5
101
100
AcDbEntity
  8
measures
  6
CONTINUOUS
 62
    0
370
   -2
100
AcDbMText
 10
132.8764548087263
 20
161.7855196378958
 30
0
 40
2.5
 41
7.638888888889044
 71
    5
 72
    1
  1
91,24
  7
STANDARD
210
0
220
0
230
1
 50
270
 73
    2
 44
1
  0
SOLID
  5
102
100
AcDbEntity
  8
measures
  6
ByBlock
 62
    0
370
   -2
100
AcDbTrace
 10
131.0014548087263
 20
116.1655196378957
 30
0
 11
130.5851701509535
 21
118.6655196378957
 31
0
 12
131.4177394664992
 22
118.6655196378957
 32
0
 13
131.4177394664992
 23
118.6655196378957
 33
0
  0
SOLID
  5
103
100
AcDbEntity
  8
measures
  6
ByBlock
 62
    0
370
   -2
100
AcDbTrace
 10
131.0014548087263
 20
207.4055196378958
 30
0
 11
131.4177394664991
 21
204.9055196378958
 31
0
 12
130.5851701509534
 22
204.9055196378958
 32
0
 13
130.5851701509534
 23
204.9055196378958
 33
0
  0
LINE
  5
104
100
AcDbEntity
  8
measures
  6
ByBlock
 62
    0
370
   -2
100
AcDbLine
 10
123.5337399097504
 20
116.1655196378957
 11
132.2514548087263
 21
116.1655196378957
  0
LINE
  5
105
100
AcDbEntity
  8
measures
  6
ByBlock
 62
    0
370
   -2
100
AcDbLine
 10
123.5337399097505
 20
207.4055196378958
 11
132.2514548087263
 21
207.4055196378958
  0
ENDBLK
  5
7B
330
79
100
AcDbEntity
  8
0
100
AcDbBlockEnd
  0
BLOCK
  5
7D
330
7C
100
AcDbEntity
  8
0
100
AcDbBlockBegin
  2
*D15
 70
    1
 10
0
 20
0
  3
*D15
  1

  0
LINE
  5
106
100
AcDbEntity
  8
measures
  6
ByBlock
 62
    0
370
   -2
100
AcDbLine
 10
172.382862495683
 20
294.5822007082533
 11
285.3803323891378
 21
294.5822007082533
  0
MTEXT
  5
107
100
AcDbEntity
  8
measures
  6
CONTINUOUS
 62
    0
370
   -2
100
AcDbMText
 10
228.8815974424104
 20
296.4572007082533
 30
0
 40
2.5
 41
3.888888888889044
 71
    5
 72
    1
  1
113
  7
STANDARD
210
0
220
0
230
1
 50
0
 73
    2
 44
1
  0
SOLID
  5
108
100
AcDbEntity
  8
measures
  6
ByBlock
 62
    0
370
   -2
100
AcDbTrace
 10
172.382862495683
 20
294.5822007082533
 30
0
 11
174.882862495683
 21
294.9984853660262
 31
0
 12
174.882862495683
 22
294.1659160504805
 32
0
 13
174.882862495683
 23
294.1659160504805
 33
0
  0
SOLID
  5
109
100
AcDbEntity
  8
measures
  6
ByBlock
 62
    0
370
   -2
100
AcDbTrace
 10
285.3803323891378
 20
294.5822007082533
 30
0
 11
282.8803323891378
 21
294.1659160504805
 31
0
 12
282.8803323891378
 22
294.9984853660262
 32
0
 13
282.8803323891378
 23
294.9984853660262
 33
0
  0
LINE
  5
10A
100
AcDbEntity
  8
measures
  6
ByBlock
 62
    0
370
   -2
100
AcDbLine
 10
172.382862495683
 20
337.1750774750755
 11
172.382862495683
 21
293.3322007082533
  0
LINE
  5
10B
100
AcDbEntity
  8
measures
  6
ByBlock
 62
    0
370
   -2
100
AcDbLine
 10
285.3803323891378
 20
337.1750774750755
 11
285.3803323891378
 21
293.3322007082533
  0
ENDBLK
  5
7E
330
7C
100
AcDbEntity
  8
0
100
AcDbBlockEnd
  0
BLOCK
  5
80
330
7F
100
AcDbEntity
  8
0
100
AcDbBlockBegin
  2
*D25
 70
    1
 10
0
 20
0
  3
*D25
  1

  0
LINE
  5
10C
100
AcDbEntity
  8
measures
  6
ByBlock
 62
    0
370
   -2
100
AcDbLine
 10
345.7888825434334
 20
116.1655196378957
 11
345.7888825434334
 21
207.4055196378958
  0
MTEXT
  5
10D
100
AcDbEntity
  8
measures
  6
CONTINUOUS
 62
    0
370
   -2
100
AcDbMText
 10
343.9138825434334
 20
161.7855196378958
 30
0
 40
2.5
 41
7.638888888889044
 71
    5
 72
    1
  1
91,24
  7
STANDARD
210
0
220
0
230
1
 50
90
 73
    2
 44
1
  0
SOLID
  5
10E
100
AcDbEntity
  8
measures
  6
ByBlock
 62
    0
370
   -2
100
AcDbTrace
 10
345.7888825434334
 20
116.1655196378957
 30
0
 11
345.3725978856605
 21
118.6655196378957
 31
0
 12
346.2051672012062
 22
118.6655196378957
 32
0
 13
346.2051672012062
 23
118.6655196378957
 33
0
  0
SOLID
  5
10F
100
AcDbEntity
  8
measures
  6
ByBlock
 62
    0
370
   -2
100
AcDbTrace
 10
345.7888825434334
 20
207.4055196378958
 30
0
 11
346.2051672012062
 21
204.9055196378958
 31
0
 12
345.3725978856605
 22
204.9055196378958
 32
0
 13
345.3725978856605
 23
204.9055196378958
 33
0
  0
LINE
  5
110
100
AcDbEntity
  8
measures
  6
ByBlock
 62
    0
370
   -2
100
AcDbLine
 10
353.2565974424093
 20
116.1655196378957
 11
344.5388825434334
 21
116.1655196378957
  0
LINE
  5
111
100
AcDbEntity
  8
measures
  6
ByBlock
 62
    0
370
   -2
100
AcDbLine
 10
353.2565974424092
 20
207.4055196378958
 11
344.5388825434334
 21
207.4055196378958
  0
ENDBLK
  5
81
330
7F
100
AcDbEntity
  8
0
100
AcDbBlockEnd
  0
BLOCK
  5
83
330
82
100
AcDbEntity
  8
0
100
AcDbBlockBegin
  2
*D11
 70
    1
 10
0
 20
0
  3
*D11
  1

  0
LINE
  5
112
100
AcDbEntity
  8
measures
  6
ByBlock
 62
    0
370
   -2
100
AcDbLine
 10
168.7337919160057
 20
441.4402500001634
 11
289.0294029688227
 21
441.4402500001634
  0
MTEXT
  5
113
100
AcDbEntity
  8
measures
  6
CONTINUOUS
 62
    0
370
   -2
100
AcDbMText
 10
228.8815974424142
 20
443.3152500001634
 30
0
 40
2.5
 41
7.361111111111267
 71
    5
 72
    1
  1
120,3
  7
STANDARD
210
0
220
0
230
1
 50
0
 73
    2
 44
1
  0
SOLID
  5
114
100
AcDbEntity
  8
measures
  6
ByBlock
 62
    0
370
   -2
100
AcDbTrace
 10
168.7337919160057
 20
441.4402500001634
 30
0
 11
171.2337919160057
 21
441.8565346579362
 31
0
 12
171.2337919160057
 22
441.0239653423905
 32
0
 13
171.2337919160057
 23
441.0239653423905
 33
0
  0
SOLID
  5
115
100
AcDbEntity
  8
measures
  6
ByBlock
 62
    0
370
   -2
100
AcDbTrace
 10
289.0294029688227
 20
441.4402500001634
 30
0
 11
286.5294029688227
 21
441.0239653423905
 31
0
 12
286.5294029688227
 22
441.8565346579362
 32
0
 13
286.5294029688227
 23
441.8565346579362
 33
0
  0
LINE
  5
116
100
AcDbEntity
  8
measures
  6
ByBlock
 62
    0
370
   -2
100
AcDbLine
 10
168.7337919160057
 20
384.6941931494379
 11
168.7337919160057
 21
442.6902500001634
  0
LINE
  5
117
100
AcDbEntity
  8
measures
  6
ByBlock
 62
    0
370
   -2
100
AcDbLine
 10
289.0294029688227
 20
384.6941931494379
 11
289.0294029688227
 21
442.6902500001634
  0
ENDBLK
  5
84
330
82
100
AcDbEntity
  8
0
100
AcDbBlockEnd
  0
BLOCK
  5
86
330
85
100
AcDbEntity
  8
0
100
AcDbBlockBegin
  2
*D6
 70
    1
 10
0
 20
0
  3
*D6
  1

  0
LINE
  5
118
100
AcDbEntity
  8
measures
  6
ByBlock
 62
    0
370
   -2
100
AcDbLine
 10
320.2408801644735
 20
172.6655196378939
 11
320.2408801644735
 21
206.1655196378957
  0
MTEXT
  5
119
100
AcDbEntity
  8
measures
  6
CONTINUOUS
 62
    0
370
   -2
100
AcDbMText
 10
318.3658801644735
 20
189.4155196378948
 30
0
 40
2.5
 41
5.972222222222687
 71
    5
 72
    1
  1
33,5
  7
STANDARD
210
0
220
0
230
1
 50
90
 73
    2
 44
1
  0
SOLID
  5
11A
100
AcDbEntity
  8
measures
  6
ByBlock
 62
    0
370
   -2
100
AcDbTrace
 10
320.2408801644735
 20
172.6655196378939
 30
0
 11
319.8245955067006
 21
175.1655196378939
 31
0
 12
320.6571648222463
 22
175.1655196378939
 32
0
 13
320.6571648222463
 23
175.1655196378939
 33
0
  0
SOLID
  5
11B
100
AcDbEntity
  8
measures
  6
ByBlock
 62
    0
370
   -2
100
AcDbTrace
 10
320.2408801644735
 20
206.1655196378957
 30
0
 11
320.6571648222463
 21
203.6655196378957
 31
0
 12
319.8245955067006
 22
203.6655196378957
 32
0
 13
319.8245955067006
 23
203.6655196378957
 33
0
  0
LINE
  5
11C
100
AcDbEntity
  8
measures
  6
ByBlock
 62
    0
370
   -2
100
AcDbLine
 10
249.8993948384074
 20
172.6655196378939
 11
321.4908801644735
 21
172.6655196378939
  0
LINE
  5
11D
100
AcDbEntity
  8
measures
  6
ByBlock
 62
    0
370
   -2
100
AcDbLine
 10
294.5065974424072
 20
206.1655196378957
 11
321.4908801644735
 21
206.1655196378957
  0
ENDBLK
  5
87
330
85
100
AcDbEntity
  8
0
100
AcDbBlockEnd
  0
BLOCK
  5
89
330
88
100
AcDbEntity
  8
0
100
AcDbBlockBegin
  2
*D8
 70
    1
 10
0
 20
0
  3
*D8
  1

  0
LINE
  5
11E
100
AcDbEntity
  8
measures
  6
ByBlock
 62
    0
370
   -2
100
AcDbLine
 10
327.456000000082
 20
116.1655196378957
 11
327.456000000082
 21
206.1655196378957
  0
MTEXT
  5
11F
100
AcDbEntity
  8
measures
  6
CONTINUOUS
 62
    0
370
   -2
100
AcDbMText
 10
325.581000000082
 20
161.1655196378957
 30
0
 40
2.5
 41
3.055555555555711
 71
    5
 72
    1
  1
90
  7
STANDARD
210
0
220
0
230
1
 50
90
 73
    2
 44
1
  0
SOLID
  5
120
100
AcDbEntity
  8
measures
  6
ByBlock
 62
    0
370
   -2
100
AcDbTrace
 10
327.456000000082
 20
116.1655196378957
 30
0
 11
327.0397153423091
 21
118.6655196378957
 31
0
 12
327.8722846578548
 22
118.6655196378957
 32
0
 13
327.8722846578548
 23
118.6655196378957
 33
0
  0
SOLID
  5
121
100
AcDbEntity
  8
measures
  6
ByBlock
 62
    0
370
   -2
100
AcDbTrace
 10
327.456000000082
 20
206.1655196378957
 30
0
 11
327.8722846578548
 21
203.6655196378957
 31
0
 12
327.0397153423091
 22
203.6655196378957
 32
0
 13
327.0397153423091
 23
203.6655196378957
 33
0
  0
LINE
  5
122
100
AcDbEntity
  8
measures
  6
ByBlock
 62
    0
370
   -2
100
AcDbLine
 10
309.5065974424089
 20
116.1655196378957
 11
328.706000000082
 21
116.1655196378957
  0
LINE
  5
123
100
AcDbEntity
  8
measures
  6
ByBlock
 62
    0
370
   -2
100
AcDbLine
 10
294.5065974424072
 20
206.1655196378957
 11
328.706000000082
 21
206.1655196378957
  0
ENDBLK
  5
8A
330
88
100
AcDbEntity
  8
0
100
AcDbBlockEnd
  0
BLOCK
  5
8C
330
8B
100
AcDbEntity
  8
0
100
AcDbBlockBegin
  2
*D13
 70
    1
 10
0
 20
0
  3
*D13
  1

  0
LINE
  5
124
100
AcDbEntity
  8
measures
  6
ByBlock
 62
    0
370
   -2
100
AcDbLine
 10
328.0245000001229
 20
337.8000774750755
 11
328.0245000001229
 21
393.638997472452
  0
MTEXT
  5
125
100
AcDbEntity
  8
measures
  6
CONTINUOUS
 62
    0
370
   -2
100
AcDbMText
 10
326.1495000001229
 20
365.7195374737638
 30
0
 40
2.5
 41
8.194444444444756
 71
    5
 72
    1
  1
55,84
  7
STANDARD
210
0
220
0
230
1
 50
90
 73
    2
 44
1
  0
SOLID
  5
126
100
AcDbEntity
  8
measures
  6
ByBlock
 62
    0
370
   -2
100
AcDbTrace
 10
328.0245000001229
 20
337.8000774750755
 30
0
 11
327.6082153423501
 21
340.3000774750755
 31
0
 12
328.4407846578958
 22
340.3000774750755
 32
0
 13
328.4407846578958
 23
340.3000774750755
 33
0
  0
SOLID
  5
127
100
AcDbEntity
  8
measures
  6
ByBlock
 62
    0
370
   -2
100
AcDbTrace
 10
328.0245000001229
 20
393.638997472452
 30
0
 11
328.4407846578958
 21
391.138997472452
 31
0
 12
327.6082153423501
 22
391.138997472452
 32
0
 13
327.6082153423501
 23
391.138997472452
 33
0
  0
LINE
  5
128
100
AcDbEntity
  8
measures
  6
ByBlock
 62
    0
370
   -2
100
AcDbLine
 10
286.0053323891378
 20
337.8000774750755
 11
329.2745000001229
 21
337.8000774750755
  0
LINE
  5
129
100
AcDbEntity
  8
measures
  6
ByBlock
 62
    0
370
   -2
100
AcDbLine
 10
278.3408452978759
 20
393.638997472452
 11
329.2745000001229
 21
393.638997472452
  0
ENDBLK
  5
8D
330
8B
100
AcDbEntity
  8
0
100
AcDbBlockEnd
  0
BLOCK
  5
8F
330
8E
100
AcDbEntity
  8
0
100
AcDbBlockBegin
  2
*D19
 70
    1
 10
0
 20
0
  3
*D19
  1

  0
LINE
  5
12A
100
AcDbEntity
  8
measures
  6
ByBlock
 62
    0
370
   -2
100
AcDbLine
 10
310.4010000001253
 20
226.7287359502974
 11
310.4010000001253
 21
272.008735950298
  0
MTEXT
  5
12B
100
AcDbEntity
  8
measures
  6
CONTINUOUS
 62
    0
370
   -2
100
AcDbMText
 10
308.5260000001253
 20
249.3687359502977
 30
0
 40
2.5
 41
8.194444444444601
 71
    5
 72
    1
  1
45,28
  7
STANDARD
210
0
220
0
230
1
 50
90
 73
    2
 44
1
  0
SOLID
  5
12C
100
AcDbEntity
  8
measures
  6
ByBlock
 62
    0
370
   -2
100
AcDbTrace
 10
310.4010000001253
 20
226.7287359502974
 30
0
 11
309.9847153423524
 21
229.2287359502974
 31
0
 12
310.8172846578981
 22
229.2287359502974
 32
0
 13
310.8172846578981
 23
229.2287359502974
 33
0
  0
SOLID
  5
12D
100
AcDbEntity
  8
measures
  6
ByBlock
 62
    0
370
   -2
100
AcDbTrace
 10
310.4010000001253
 20
272.008735950298
 30
0
 11
310.8172846578981
 21
269.508735950298
 31
0
 12
309.9847153423524
 22
269.508735950298
 32
0
 13
309.9847153423524
 23
269.508735950298
 33
0
  0
LINE
  5
12E
100
AcDbEntity
  8
measures
  6
ByBlock
 62
    0
370
   -2
100
AcDbLine
 10
294.5065974424072
 20
226.7287359502974
 11
311.6510000001253
 21
226.7287359502974
  0
LINE
  5
12F
100
AcDbEntity
  8
measures
  6
ByBlock
 62
    0
370
   -2
100
AcDbLine
 10
294.5065974424072
 20
272.008735950298
 11
311.6510000001253
 21
272.008735950298
  0
ENDBLK
  5
90
330
8E
100
AcDbEntity
  8
0
100
AcDbBlockEnd
  0
BLOCK
  5
92
330
91
100
AcDbEntity
  8
0
100
AcDbBlockBegin
  2
*D26
 70
    1
 10
0
 20
0
  3
*D26
  1

  0
LINE
  5
130
100
AcDbEntity
  8
measures
  6
ByBlock
 62
    0
370
   -2
100
AcDbLine
 10
407.2119613018941
 20
116.1655196378957
 11
407.2119613018941
 21
212.1655196378953
  0
MTEXT
  5
131
100
AcDbEntity
  8
measures
  6
CONTINUOUS
 62
    0
370
   -2
100
AcDbMText
 10
405.3369613018941
 20
164.1655196378955
 30
0
 40
2.5
 41
3.055555555555866
 71
    5
 72
    1
  1
96
  7
STANDARD
210
0
220
0
230
1
 50
90
 73
    2
 44
1
  0
SOLID
  5
132
100
AcDbEntity
  8
measures
  6
ByBlock
 62
    0
370
   -2
100
AcDbTrace
 10
407.2119613018941
 20
116.1655196378957
 30
0
 11
406.7956766441213
 21
118.6655196378957
 31
0
 12
407.628245959667
 22
118.6655196378957
 32
0
 13
407.628245959667
 23
118.6655196378957
 33
0
  0
SOLID
  5
133
100
AcDbEntity
  8
measures
  6
ByBlock
 62
    0
370
   -2
100
AcDbTrace
 10
407.2119613018941
 20
212.1655196378953
 30
0
 11
407.628245959667
 21
209.6655196378953
 31
0
 12
406.7956766441213
 22
209.6655196378953
 32
0
 13
406.7956766441213
 23
209.6655196378953
 33
0
  0
LINE
  5
134
100
AcDbEntity
  8
measures
  6
ByBlock
 62
    0
370
   -2
100
AcDbLine
 10
399.5065974424091
 20
116.1655196378957
 11
408.4619613018941
 21
116.1655196378957
  0
LINE
  5
135
100
AcDbEntity
  8
measures
  6
ByBlock
 62
    0
370
   -2
100
AcDbLine
 10
399.5065974424091
 20
212.1655196378953
 11
408.4619613018941
 21
212.1655196378953
  0
ENDBLK
  5
93
330
91
100
AcDbEntity
  8
0
100
AcDbBlockEnd
  0
BLOCK
  5
95
330
94
100
AcDbEntity
  8
0
100
AcDbBlockBegin
  2
*D17
 70
    1
 10
0
 20
0
  3
*D17
  1

  0
LINE
  5
136
100
AcDbEntity
  8
measures
  6
ByBlock
 62
    0
370
   -2
100
AcDbLine
 10
320.0000000001239
 20
96.16551963789588
 11
320.0000000001239
 21
51.16551963789414
  0
MTEXT
  5
137
100
AcDbEntity
  8
measures
  6
CONTINUOUS
 62
    0
370
   -2
100
AcDbMText
 10
318.1250000001239
 20
73.66551963789502
 30
0
 40
2.5
 41
3.333333333333488
 71
    5
 72
    1
  1
45
  7
STANDARD
210
0
220
0
230
1
 50
90
 73
    2
 44
1
  0
SOLID
  5
138
100
AcDbEntity
  8
measures
  6
ByBlock
 62
    0
370
   -2
100
AcDbTrace
 10
320.0000000001239
 20
96.16551963789588
 30
0
 11
320.4162846578968
 21
93.66551963789588
 31
0
 12
319.5837153423511
 22
93.66551963789588
 32
0
 13
319.5837153423511
 23
93.66551963789588
 33
0
  0
SOLID
  5
139
100
AcDbEntity
  8
measures
  6
ByBlock
 62
    0
370
   -2
100
AcDbTrace
 10
320.0000000001239
 20
51.16551963789414
 30
0
 11
319.5837153423511
 21
53.66551963789414
 31
0
 12
320.4162846578968
 22
53.66551963789414
 32
0
 13
320.4162846578968
 23
53.66551963789414
 33
0
  0
LINE
  5
13A
100
AcDbEntity
  8
measures
  6
ByBlock
 62
    0
370
   -2
100
AcDbLine
 10
309.5065974424089
 20
96.16551963789588
 11
321.2500000001239
 21
96.16551963789588
  0
LINE
  5
13B
100
AcDbEntity
  8
measures
  6
ByBlock
 62
    0
370
   -2
100
AcDbLine
 10
309.5065974424089
 20
51.16551963789414
 11
321.2500000001239
 21
51.16551963789414
  0
ENDBLK
  5
96
330
94
100
AcDbEntity
  8
0
100
AcDbBlockEnd
  0
BLOCK
  5
98
330
97
100
AcDbEntity
  8
0
100
AcDbBlockBegin
  2
*D21
 70
    1
 10
0
 20
0
  3
*D21
  1

  0
LINE
  5
13C
100
AcDbEntity
  8
measures
  6
ByBlock
 62
    0
370
   -2
100
AcDbLine
 10
327.8364116096439
 20
403.6389974724356
 11
327.8364116096439
 21
393.638997472452
  0
MTEXT
  5
13D
100
AcDbEntity
  8
measures
  6
CONTINUOUS
 62
    0
370
   -2
100
AcDbMText
 10
325.9614116096439
 20
398.6389974724437
 30
0
 40
2.5
 41
2.5
 71
    5
 72
    1
  1
10
  7
STANDARD
210
0
220
0
230
1
 50
90
 73
    2
 44
1
  0
SOLID
  5
13E
100
AcDbEntity
  8
measures
  6
ByBlock
 62
    0
370
   -2
100
AcDbTrace
 10
327.8364116096439
 20
403.6389974724356
 30
0
 11
328.2526962674168
 21
401.1389974724356
 31
0
 12
327.4201269518711
 22
401.1389974724356
 32
0
 13
327.4201269518711
 23
401.1389974724356
 33
0
  0
SOLID
  5
13F
100
AcDbEntity
  8
measures
  6
ByBlock
 62
    0
370
   -2
100
AcDbTrace
 10
327.8364116096439
 20
393.638997472452
 30
0
 11
327.4201269518711
 21
396.138997472452
 31
0
 12
328.2526962674168
 22
396.138997472452
 32
0
 13
328.2526962674168
 23
396.138997472452
 33
0
  0
LINE
  5
140
100
AcDbEntity
  8
measures
  6
ByBlock
 62
    0
370
   -2
100
AcDbLine
 10
254.8993948384066
 20
403.6389974724356
 11
329.0864116096439
 21
403.6389974724356
  0
LINE
  5
141
100
AcDbEntity
  8
measures
  6
ByBlock
 62
    0
370
   -2
100
AcDbLine
 10
278.3408452978758
 20
393.638997472452
 11
329.0864116096439
 21
393.638997472452
  0
ENDBLK
  5
99
330
97
100
AcDbEntity
  8
0
100
AcDbBlockEnd
  0
BLOCK
  5
9B
330
9A
100
AcDbEntity
  8
0
100
AcDbBlockBegin
  2
*D12
 70
    1
 10
0
 20
0
  3
*D12
  1

  0
LINE
  5
142
100
AcDbEntity
  8
measures
  6
ByBlock
 62
    0
370
   -2
100
AcDbLine
 10
180.047349586946
 20
436.0395000001614
 11
277.7158452978758
 21
436.0395000001614
  0
MTEXT
  5
143
100
AcDbEntity
  8
measures
  6
CONTINUOUS
 62
    0
370
   -2
100
AcDbMText
 10
228.8815974424109
 20
437.9145000001614
 30
0
 40
2.5
 41
7.916666666666977
 71
    5
 72
    1
  1
97,67
  7
STANDARD
210
0
220
0
230
1
 50
0
 73
    2
 44
1
  0
SOLID
  5
144
100
AcDbEntity
  8
measures
  6
ByBlock
 62
    0
370
   -2
100
AcDbTrace
 10
180.047349586946
 20
436.0395000001614
 30
0
 11
182.547349586946
 21
436.4557846579342
 31
0
 12
182.547349586946
 22
435.6232153423885
 32
0
 13
182.547349586946
 23
435.6232153423885
 33
0
  0
SOLID
  5
145
100
AcDbEntity
  8
measures
  6
ByBlock
 62
    0
370
   -2
100
AcDbTrace
 10
277.7158452978758
 20
436.0395000001614
 30
0
 11
275.2158452978758
 21
435.6232153423885
 31
0
 12
275.2158452978758
 22
436.4557846579342
 32
0
 13
275.2158452978758
 23
436.4557846579342
 33
0
  0
LINE
  5
146
100
AcDbEntity
  8
measures
  6
ByBlock
 62
    0
370
   -2
100
AcDbLine
 10
180.047349586946
 20
394.2639974724341
 11
180.047349586946
 21
437.2895000001614
  0
LINE
  5
147
100
AcDbEntity
  8
measures
  6
ByBlock
 62
    0
370
   -2
100
AcDbLine
 10
277.7158452978758
 20
394.263997472452
 11
277.7158452978758
 21
437.2895000001614
  0
ENDBLK
  5
9C
330
9A
100
AcDbEntity
  8
0
100
AcDbBlockEnd
  0
BLOCK
  5
9E
330
9D
100
AcDbEntity
  8
0
100
AcDbBlockBegin
  2
*D23
 70
    1
 10
0
 20
0
  3
*D23
  1

  0
LINE
  5
148
100
AcDbEntity
  8
measures
  6
ByBlock
 62
    0
370
   -2
100
AcDbLine
 10
160.4198389958787
 20
415.5196263254703
 11
154.7167563043018
 21
416.3024352277925
  0
LINE
  5
149
100
AcDbEntity
  8
measures
  6
ByBlock
 62
    0
370
   -2
100
AcDbLine
 10
146.9682941776942
 20
317.5196263254912
 11
141.2652114861174
 21
318.3024352278134
  0
LINE
  5
14A
100
AcDbEntity
  8
measures
  6
ByBlock
 62
    0
370
   -2
100
AcDbLine
 10
155.9551448179273
 20
416.1324532013296
 11
142.5035999997429
 21
318.1324532013505
  0
MTEXT
  5
14B
100
AcDbEntity
  8
measures
  6
CONTINUOUS
 62
    0
370
   -2
100
AcDbMText
 10
147.3717896383968
 20
367.3874262410344
 30
0
 40
2.5
 41
7.916666666666822
 71
    5
 72
    1
  1
98,92
  7
STANDARD
210
0
220
0
230
1
 50
82.18438256308916
 73
    2
 44
1
  0
SOLID
  5
14C
100
AcDbEntity
  8
measures
  6
ByBlock
 62
    0
370
   -2
100
AcDbTrace
 10
155.9551448179273
 20
416.1324532013296
 30
0
 11
156.0275984758691
 21
413.5990674463077
 31
0
 12
155.2027630541341
 22
413.7122849018495
 32
0
 13
155.2027630541341
 23
413.7122849018495
 33
0
  0
SOLID
  5
14D
100
AcDbEntity
  8
measures
  6
ByBlock
 62
    0
370
   -2
100
AcDbTrace
 10
142.5035999997429
 20
318.1324532013505
 30
0
 11
142.4311463418011
 21
320.6658389563725
 31
0
 12
143.2559817635362
 22
320.5526215008306
 32
0
 13
143.2559817635362
 23
320.5526215008306
 33
0
  0
ENDBLK
  5
9F
330
9D
100
AcDbEntity
  8
0
100
AcDbBlockEnd
  0
BLOCK
  5
A1
330
A0
100
AcDbEntity
  8
0
100
AcDbBlockBegin
  2
*D4
 70
    1
 10
0
 20
0
  3
*D4
  1

  0
LINE
  5
14E
100
AcDbEntity
  8
measures
  6
ByBlock
 62
    0
370
   -2
100
AcDbLine
 10
320.0000000000677
 20
116.1655196378959
 11
320.0000000000677
 21
145.6655196378951
  0
MTEXT
  5
14F
100
AcDbEntity
  8
measures
  6
CONTINUOUS
 62
    0
370
   -2
100
AcDbMText
 10
318.1250000000677
 20
130.9155196378955
 30
0
 40
2.5
 41
5.972222222222378
 71
    5
 72
    1
  1
29,5
  7
STANDARD
210
0
220
0
230
1
 50
90
 73
    2
 44
1
  0
SOLID
  5
150
100
AcDbEntity
  8
measures
  6
ByBlock
 62
    0
370
   -2
100
AcDbTrace
 10
320.0000000000677
 20
116.1655196378959
 30
0
 11
319.5837153422949
 21
118.6655196378959
 31
0
 12
320.4162846578405
 22
118.6655196378959
 32
0
 13
320.4162846578405
 23
118.6655196378959
 33
0
  0
SOLID
  5
151
100
AcDbEntity
  8
measures
  6
ByBlock
 62
    0
370
   -2
100
AcDbTrace
 10
320.0000000000677
 20
145.6655196378951
 30
0
 11
320.4162846578405
 21
143.1655196378951
 31
0
 12
319.5837153422949
 22
143.1655196378951
 32
0
 13
319.5837153422949
 23
143.1655196378951
 33
0
  0
LINE
  5
152
100
AcDbEntity
  8
measures
  6
ByBlock
 62
    0
370
   -2
100
AcDbLine
 10
304.5065974424073
 20
116.1655196378959
 11
321.2500000000677
 21
116.1655196378959
  0
LINE
  5
153
100
AcDbEntity
  8
measures
  6
ByBlock
 62
    0
370
   -2
100
AcDbLine
 10
249.8993948384077
 20
145.6655196378951
 11
321.2500000000677
 21
145.6655196378951
  0
ENDBLK
  5
A2
330
A0
100
AcDbEntity
  8
0
100
AcDbBlockEnd
  0
BLOCK
  5
A4
330
A3
100
AcDbEntity
  8
0
100
AcDbBlockBegin
  2
*D20
 70
    1
 10
0
 20
0
  3
*D20
  1

  0
LINE
  5
154
100
AcDbEntity
  8
measures
  6
ByBlock
 62
    0
370
   -2
100
AcDbLine
 10
204.2743948384105
 20
427.7346007231881
 11
254.2743948384066
 21
427.7346007231881
  0
MTEXT
  5
155
100
AcDbEntity
  8
measures
  6
CONTINUOUS
 62
    0
370
   -2
100
AcDbMText
 10
229.2743948384086
 20
429.6096007231881
 30
0
 40
2.5
 41
3.055555555555711
 71
    5
 72
    1
  1
50
  7
STANDARD
210
0
220
0
230
1
 50
0
 73
    2
 44
1
  0
SOLID
  5
156
100
AcDbEntity
  8
measures
  6
ByBlock
 62
    0
370
   -2
100
AcDbTrace
 10
204.2743948384105
 20
427.7346007231881
 30
0
 11
206.7743948384105
 21
428.150885380961
 31
0
 12
206.7743948384105
 22
427.3183160654153
 32
0
 13
206.7743948384105
 23
427.3183160654153
 33
0
  0
SOLID
  5
157
100
AcDbEntity
  8
measures
  6
ByBlock
 62
    0
370
   -2
100
AcDbTrace
 10
254.2743948384066
 20
427.7346007231881
 30
0
 11
251.7743948384066
 21
427.3183160654153
 31
0
 12
251.7743948384066
 22
428.150885380961
 32
0
 13
251.7743948384066
 23
428.150885380961
 33
0
  0
LINE
  5
158
100
AcDbEntity
  8
measures
  6
ByBlock
 62
    0
370
   -2
100
AcDbLine
 10
204.2743948384105
 20
404.2639974724353
 11
204.2743948384105
 21
428.9846007231881
  0
LINE
  5
159
100
AcDbEntity
  8
measures
  6
ByBlock
 62
    0
370
   -2
100
AcDbLine
 10
254.2743948384066
 20
404.2639974724356
 11
254.2743948384066
 21
428.9846007231881
  0
ENDBLK
  5
A5
330
A3
100
AcDbEntity
  8
0
100
AcDbBlockEnd
  0
BLOCK
  5
A7
330
A6
100
AcDbEntity
  8
0
100
AcDbBlockBegin
  2
*D22
 70
    1
 10
0
 20
0
  3
*D22
  1

  0
LINE
  5
15A
100
AcDbEntity
  8
measures
  6
ByBlock
 62
    0
370
   -2
100
AcDbLine
 10
328.0024301390437
 20
337.8000774750755
 11
328.0024301390437
 21
327.8000774750755
  0
MTEXT
  5
15B
100
AcDbEntity
  8
measures
  6
CONTINUOUS
 62
    0
370
   -2
100
AcDbMText
 10
326.1274301390437
 20
332.8000774750755
 30
0
 40
2.5
 41
2.5
 71
    5
 72
    1
  1
10
  7
STANDARD
210
0
220
0
230
1
 50
90
 73
    2
 44
1
  0
SOLID
  5
15C
100
AcDbEntity
  8
measures
  6
ByBlock
 62
    0
370
   -2
100
AcDbTrace
 10
328.0024301390437
 20
337.8000774750755
 30
0
 11
328.4187147968166
 21
335.3000774750755
 31
0
 12
327.5861454812709
 22
335.3000774750755
 32
0
 13
327.5861454812709
 23
335.3000774750755
 33
0
  0
SOLID
  5
15D
100
AcDbEntity
  8
measures
  6
ByBlock
 62
    0
370
   -2
100
AcDbTrace
 10
328.0024301390437
 20
327.8000774750755
 30
0
 11
327.5861454812709
 21
330.3000774750755
 31
0
 12
328.4187147968166
 22
330.3000774750755
 32
0
 13
328.4187147968166
 23
330.3000774750755
 33
0
  0
LINE
  5
15E
100
AcDbEntity
  8
measures
  6
ByBlock
 62
    0
370
   -2
100
AcDbLine
 10
286.0053323891378
 20
337.8000774750755
 11
329.2524301390437
 21
337.8000774750755
  0
LINE
  5
15F
100
AcDbEntity
  8
measures
  6
ByBlock
 62
    0
370
   -2
100
AcDbLine
 10
256.8993948384083
 20
327.8000774750755
 11
329.2524301390437
 21
327.8000774750755
  0
ENDBLK
  5
A8
330
A6
100
AcDbEntity
  8
0
100
AcDbBlockEnd
  0
BLOCK
  5
AA
330
A9
100
AcDbEntity
  8
0
100
AcDbBlockBegin
  2
*D1
 70
    1
 10
0
 20
0
  3
*D1
  1

  0
LINE
  5
160
100
AcDbEntity
  8
measures
  6
ByBlock
 62
    0
370
   -2
100
AcDbLine
 10
202.2743948384093
 20
300.8555253871041
 11
256.2743948384083
 21
300.8555253871041
  0
MTEXT
  5
161
100
AcDbEntity
  8
measures
  6
CONTINUOUS
 62
    0
370
   -2
100
AcDbMText
 10
229.2743948384088
 20
302.7305253871041
 30
0
 40
2.5
 41
3.333333333333488
 71
    5
 72
    1
  1
54
  7
STANDARD
210
0
220
0
230
1
 50
0
 73
    2
 44
1
  0
SOLID
  5
162
100
AcDbEntity
  8
measures
  6
ByBlock
 62
    0
370
   -2
100
AcDbTrace
 10
202.2743948384093
 20
300.8555253871041
 30
0
 11
204.7743948384093
 21
301.2718100448769
 31
0
 12
204.7743948384093
 22
300.4392407293312
 32
0
 13
204.7743948384093
 23
300.4392407293312
 33
0
  0
SOLID
  5
163
100
AcDbEntity
  8
measures
  6
ByBlock
 62
    0
370
   -2
100
AcDbTrace
 10
256.2743948384083
 20
300.8555253871041
 30
0
 11
253.7743948384083
 21
300.4392407293312
 31
0
 12
253.7743948384083
 22
301.2718100448769
 32
0
 13
253.7743948384083
 23
301.2718100448769
 33
0
  0
LINE
  5
164
100
AcDbEntity
  8
measures
  6
ByBlock
 62
    0
370
   -2
100
AcDbLine
 10
202.2743948384093
 20
327.1750774750755
 11
202.2743948384093
 21
299.6055253871041
  0
LINE
  5
165
100
AcDbEntity
  8
measures
  6
ByBlock
 62
    0
370
   -2
100
AcDbLine
 10
256.2743948384083
 20
327.1750774750755
 11
256.2743948384083
 21
299.6055253871041
  0
ENDBLK
  5
AB
330
A9
100
AcDbEntity
  8
0
100
AcDbBlockEnd
  0
ENDSEC
  0
SECTION
  2
ENTITIES
  0
LINE
  5
166
100
AcDbEntity
  8
0
  6
ByLayer
 62
  256
370
   -1
100
AcDbLine
 10
163.8815974424074
 20
206.1655196378957
 11
293.8815974424072
 21
206.1655196378957
  0
LINE
  5
167
100
AcDbEntity
  8
0
  6
ByLayer
 62
  256
370
   -1
100
AcDbLine
 10
303.8815974424073
 20
116.1655196378957
 11
153.8815974424073
 21
116.1655196378957
  0
LINE
  5
168
100
AcDbEntity
  8
builder
  6
ByLayer
 62
  256
370
   -1
100
AcDbLine
 10
229.2743948384087
 20
-58.96428217400999
 11
229.2743948384088
 21
201.2953214498019
  0
LINE
  5
169
100
AcDbEntity
  8
builder
  6
ByLayer
 62
  256
370
   -1
100
AcDbLine
 10
229.2743948384088
 20
201.2953214498019
 11
229.2743948384088
 21
492.6589281137877
  0
LINE
  5
16A
100
AcDbEntity
  8
builder
  6
ByLayer
 62
  256
370
   -1
100
AcDbLine
 10
303.1280013917836
 20
337.8000774750755
 11
154.6351934930312
 21
337.8000774750755
  0
LINE
  5
16B
100
AcDbEntity
  8
builder
  6
ByLayer
 62
  256
370
   -1
100
AcDbLine
 10
167.4625433395456
 20
345.8000774750755
 11
316.6545000000484
 21
345.8000774750755
  0
LINE
  5
16C
100
AcDbEntity
  8
builder
  6
ByLayer
 62
  256
370
   -1
100
AcDbLine
 10
303.1280013917836
 20
327.8000774750755
 11
154.6351934930312
 21
327.8000774750755
  0
CIRCLE
  5
16D
100
AcDbEntity
  8
0
  6
ByLayer
 62
  256
370
   -1
100
AcDbCircle
 10
202.2743948384093
 20
327.8000774750755
 40
3
  0
CIRCLE
  5
16E
100
AcDbEntity
  8
0
  6
ByLayer
 62
  256
370
   -1
100
AcDbCircle
 10
256.2743948384083
 20
327.8000774750755
 40
3
  0
DIMENSION
  5
16F
100
AcDbEntity
  8
measures
  6
CONTINUOUS
 62
  256
370
   -1
100
AcDbDimension
  2
*D1
 10
256.2743948384083
 20
300.8555253871041
 30
0
 11
229.2743948384088
 21
302.7305253871041
 31
0
 70
   32
 71
    5
  3
Standard
 53
0
210
0
220
0
230
1
100
AcDbAlignedDimension
 13
202.2743948384093
 23
327.8000774750755
 33
0
 14
256.2743948384083
 24
327.8000774750755
 34
0
100
AcDbRotatedDimension
  0
LINE
  5
170
100
AcDbEntity
  8
builder
  6
ByLayer
 62
  256
370
   -1
100
AcDbLine
 10
249.274394838407
 20
206.1655196378957
 11
249.2743948384081
 21
116.1655196378957
  0
LINE
  5
171
100
AcDbEntity
  8
builder
  6
ByLayer
 62
  256
370
   -1
100
AcDbLine
 10
209.2743948384104
 20
206.1655196378957
 11
209.2743948384094
 21
116.1655196378957
  0
CIRCLE
  5
172
100
AcDbEntity
  8
0
  6
ByLayer
 62
  256
370
   -1
100
AcDbCircle
 10
249.2743948384077
 20
145.6655196378951
 40
2.5
  0
CIRCLE
  5
173
100
AcDbEntity
  8
0
  6
ByLayer
 62
  256
370
   -1
100
AcDbCircle
 10
249.2743948384074
 20
172.6655196378939
 40
2.5
  0
CIRCLE
  5
174
100
AcDbEntity
  8
0
  6
ByLayer
 62
  256
370
   -1
100
AcDbCircle
 10
209.27439483841
 20
172.6655196378962
 40
2.5
  0
CIRCLE
  5
175
100
AcDbEntity
  8
0
  6
ByLayer
 62
  256
370
   -1
100
AcDbCircle
 10
209.2743948384097
 20
145.6655196378955
 40
2.5
  0
DIMENSION
  5
176
100
AcDbEntity
  8
measures
  6
ByLayer
 62
  256
370
   -1
100
AcDbDimension
  2
*D2
 10
249.2743948384074
 20
211.2500000000447
 30
0
 11
229.2743948384087
 21
213.1250000000447
 31
0
 70
   32
 71
    5
 72
    0
  3
Standard
 53
0
210
0
220
0
230
1
100
AcDbAlignedDimension
 13
209.27439483841
 23
172.6655196378962
 33
0
 14
249.2743948384074
 24
172.6655196378939
 34
0
100
AcDbRotatedDimension
  0
DIMENSION
  5
177
100
AcDbEntity
  8
measures
  6
ByLayer
 62
  256
370
   -1
100
AcDbDimension
  2
*D3
 10
293.8815974424072
 20
218.2500000000462
 30
0
 11
228.8815974424073
 21
220.1250000000462
 31
0
 70
   32
 71
    5
 72
    0
  3
Standard
 53
0
210
0
220
0
230
1
100
AcDbAlignedDimension
 13
163.8815974424074
 23
206.1655196378957
 33
0
 14
293.8815974424072
 24
206.1655196378961
 34
0
100
AcDbRotatedDimension
  0
DIMENSION
  5
178
100
AcDbEntity
  8
measures
  6
ByLayer
 62
  256
370
   -1
100
AcDbDimension
  2
*D4
 10
320.0000000000677
 20
145.6655196378951
 30
0
 11
318.1250000000677
 21
130.9155196378955
 31
0
 70
   32
 71
    5
 72
    0
  3
Standard
 53
0
210
0
220
0
230
1
100
AcDbAlignedDimension
 13
303.8815974424073
 23
116.1655196378959
 33
0
 14
249.2743948384077
 24
145.6655196378951
 34
0
 50
90
100
AcDbRotatedDimension
  0
DIMENSION
  5
179
100
AcDbEntity
  8
measures
  6
ByLayer
 62
  256
370
   -1
100
AcDbDimension
  2
*D5
 10
320.095666146153
 20
172.6655196378939
 30
0
 11
318.220666146153
 21
159.1655196378945
 31
0
 70
   32
 71
    5
 72
    0
  3
Standard
 53
0
210
0
220
0
230
1
100
AcDbAlignedDimension
 13
249.2743948384077
 23
145.6655196378951
 33
0
 14
249.2743948384074
 24
172.6655196378939
 34
0
 50
90
100
AcDbRotatedDimension
  0
DIMENSION
  5
17A
100
AcDbEntity
  8
measures
  6
ByLayer
 62
  256
370
   -1
100
AcDbDimension
  2
*D6
 10
320.2408801644735
 20
206.1655196378957
 30
0
 11
318.3658801644735
 21
189.4155196378948
 31
0
 70
   32
 71
    5
 72
    0
  3
Standard
 53
0
210
0
220
0
230
1
100
AcDbAlignedDimension
 13
249.2743948384074
 23
172.6655196378939
 33
0
 14
293.8815974424072
 24
206.1655196378957
 34
0
 50
90
100
AcDbRotatedDimension
  0
LINE
  5
17B
100
AcDbEntity
  8
builder
  6
ByLayer
 62
  256
370
   -1
100
AcDbLine
 10
153.8815974424073
 20
116.1655196378957
 11
144.4155481822814
 21
116.1655196378957
  0
LINE
  5
17C
100
AcDbEntity
  8
0
  6
ByLayer
 62
  256
370
   -1
100
AcDbLine
 10
148.8815974424071
 20
116.1655196378957
 11
163.8815974424074
 21
206.1655196378957
  0
LINE
  5
17D
100
AcDbEntity
  8
0
  6
ByLayer
 62
  256
370
   -1
100
AcDbLine
 10
293.8815974424072
 20
206.1655196378957
 11
308.8815974424089
 21
116.1655196378957
  0
LINE
  5
17E
100
AcDbEntity
  8
0
  6
ByLayer
 62
  256
370
   -1
100
AcDbLine
 10
308.8815974424089
 20
116.1655196378957
 11
303.8815974424073
 21
116.1655196378957
  0
LINE
  5
17F
100
AcDbEntity
  8
0
  6
ByLayer
 62
  256
370
   -1
100
AcDbLine
 10
303.8815974424073
 20
116.1655196378957
 11
153.8815974424073
 21
116.1655196378957
  0
LINE
  5
180
100
AcDbEntity
  8
0
  6
ByLayer
 62
  256
370
   -1
100
AcDbLine
 10
153.8815974424073
 20
116.1655196378957
 11
148.8815974424071
 21
116.1655196378957
  0
DIMENSION
  5
181
100
AcDbEntity
  8
measures
  6
ByLayer
 62
  256
370
   -1
100
AcDbDimension
  2
*D7
 10
155.8344517640779
 20
207.506710584284
 30
0
 11
146.4849631568925
 21
162.8149586854815
 31
0
 70
   33
 71
    5
  3
Standard
 53
0
210
0
220
0
230
1
100
AcDbAlignedDimension
 13
148.8815974424071
 23
116.1655196378957
 33
0
 14
163.8815974424074
 24
206.1655196378957
 34
0
  0
DIMENSION
  5
182
100
AcDbEntity
  8
measures
  6
ByLayer
 62
  256
370
   -1
100
AcDbDimension
  2
*D8
 10
327.456000000082
 20
206.1655196378957
 30
0
 11
325.581000000082
 21
161.1655196378957
 31
0
 70
   32
 71
    5
  3
Standard
 53
0
210
0
220
0
230
1
100
AcDbAlignedDimension
 13
308.8815974424089
 23
116.1655196378957
 33
0
 14
293.8815974424072
 24
206.1655196378957
 34
0
 50
90
100
AcDbRotatedDimension
  0
DIMENSION
  5
183
100
AcDbEntity
  8
measures
  6
ByLayer
 62
  256
370
   -1
100
AcDbDimension
  2
*D9
 10
308.8815974424089
 20
106.7500000000291
 30
0
 11
228.881597442408
 21
108.6250000000291
 31
0
 70
   32
 71
    5
  3
Standard
 53
0
210
0
220
0
230
1
100
AcDbAlignedDimension
 13
148.8815974424071
 23
116.1655196378957
 33
0
 14
308.8815974424089
 24
116.1655196378958
 34
0
100
AcDbRotatedDimension
  0
LINE
  5
184
100
AcDbEntity
  8
builder
  6
ByLayer
 62
  256
370
   -1
100
AcDbLine
 10
148.8815974424071
 20
415.4346353122365
 11
308.8815974424089
 21
415.4346353122673
  0
LINE
  5
185
100
AcDbEntity
  8
0
  6
ByLayer
 62
  256
370
   -1
100
AcDbLine
 10
296.7241616321318
 20
415.4346353122649
 11
161.0390332526914
 21
415.4346353122389
  0
LINE
  5
186
100
AcDbEntity
  8
builder
  6
ByLayer
 62
  256
370
   -1
100
AcDbLine
 10
158.0473495869448
 20
393.63899747243
 11
299.7158452978765
 21
393.638997472456
  0
LINE
  5
187
100
AcDbEntity
  8
0
  6
ByLayer
 62
  256
370
   -1
100
AcDbLine
 10
180.047349586946
 20
393.6389974724341
 11
277.7158452978759
 21
393.638997472452
  0
LINE
  5
188
100
AcDbEntity
  8
0
  6
ByLayer
 62
  256
370
   -1
100
AcDbLine
 10
277.7158452978759
 20
393.638997472452
 11
285.3803323891378
 21
337.8000774750755
  0
LINE
  5
189
100
AcDbEntity
  8
0
  6
ByLayer
 62
  256
370
   -1
100
AcDbLine
 10
285.3803323891378
 20
337.8000774750755
 11
172.382862495683
 21
337.8000774750755
  0
LINE
  5
18A
100
AcDbEntity
  8
0
  6
ByLayer
 62
  256
370
   -1
100
AcDbLine
 10
172.382862495683
 20
337.8000774750755
 11
180.047349586946
 21
393.6389974724341
  0
CIRCLE
  5
18B
100
AcDbEntity
  8
0
  6
ByLayer
 62
  256
370
   -1
100
AcDbCircle
 10
294.2822470978593
 20
345.8000774750755
 40
3
  0
CIRCLE
  5
18C
100
AcDbEntity
  8
0
  6
ByLayer
 62
  256
370
   -1
100
AcDbCircle
 10
163.4809477869639
 20
345.8000774750755
 40
3
  0
LINE
  5
18D
100
AcDbEntity
  8
builder
  6
ByLayer
 62
  256
370
   -1
100
AcDbLine
 10
171.1591117478075
 20
384.0691931494379
 11
309.8325000000473
 21
384.0691931494379
  0
CIRCLE
  5
18E
100
AcDbEntity
  8
0
  6
ByLayer
 62
  256
370
   -1
100
AcDbCircle
 10
289.0294029688227
 20
384.0691931494379
 40
3
  0
CIRCLE
  5
18F
100
AcDbEntity
  8
0
  6
ByLayer
 62
  256
370
   -1
100
AcDbCircle
 10
168.7337919160057
 20
384.0691931494379
 40
3
  0
DIMENSION
  5
190
100
AcDbEntity
  8
measures
  6
ByLayer
 62
  256
370
   -1
100
AcDbDimension
  2
*D10
 10
296.7241616321318
 20
446.8410000001654
 30
0
 11
228.8815974424116
 21
448.7160000001654
 31
0
 70
   32
 71
    5
  3
Standard
 53
0
210
0
220
0
230
1
100
AcDbAlignedDimension
 13
161.0390332526914
 23
415.4346353122389
 33
0
 14
296.7241616321318
 24
415.4346353122649
 34
0
100
AcDbRotatedDimension
  0
DIMENSION
  5
191
100
AcDbEntity
  8
measures
  6
ByLayer
 62
  256
370
   -1
100
AcDbDimension
  2
*D11
 10
289.0294029688227
 20
441.4402500001634
 30
0
 11
228.8815974424142
 21
443.3152500001634
 31
0
 70
   32
 71
    5
  3
Standard
 53
0
210
0
220
0
230
1
100
AcDbAlignedDimension
 13
168.7337919160057
 23
384.0691931494379
 33
0
 14
289.0294029688227
 24
384.0691931494379
 34
0
100
AcDbRotatedDimension
  0
DIMENSION
  5
192
100
AcDbEntity
  8
measures
  6
ByLayer
 62
  256
370
   -1
100
AcDbDimension
  2
*D12
 10
277.7158452978758
 20
436.0395000001614
 30
0
 11
228.8815974424109
 21
437.9145000001614
 31
0
 70
   32
 71
    5
  3
Standard
 53
0
210
0
220
0
230
1
100
AcDbAlignedDimension
 13
180.047349586946
 23
393.6389974724341
 33
0
 14
277.7158452978758
 24
393.638997472452
 34
0
100
AcDbRotatedDimension
  0
DIMENSION
  5
193
100
AcDbEntity
  8
measures
  6
ByLayer
 62
  256
370
   -1
100
AcDbDimension
  2
*D13
 10
328.0245000001229
 20
393.638997472452
 30
0
 11
326.1495000001229
 21
365.7195374737638
 31
0
 70
   32
 71
    5
  3
Standard
 53
0
210
0
220
0
230
1
100
AcDbAlignedDimension
 13
285.3803323891378
 23
337.8000774750755
 33
0
 14
277.7158452978759
 24
393.638997472452
 34
0
 50
90
100
AcDbRotatedDimension
  0
DIMENSION
  5
194
100
AcDbEntity
  8
measures
  6
ByLayer
 62
  256
370
   -1
100
AcDbDimension
  2
*D14
 10
321.4599824099711
 20
384.0691931494379
 30
0
 11
319.5849824099711
 21
364.9346353122567
 31
0
 70
   32
 71
    5
  3
Standard
 53
0
210
0
220
0
230
1
100
AcDbAlignedDimension
 13
294.2822470978593
 23
345.8000774750755
 33
0
 14
289.0294029688227
 24
384.0691931494379
 34
0
 50
90
100
AcDbRotatedDimension
  0
DIMENSION
  5
195
100
AcDbEntity
  8
measures
  6
ByLayer
 62
  256
370
   -1
100
AcDbDimension
  2
*D15
 10
285.3803323891378
 20
294.5822007082533
 30
0
 11
228.8815974424104
 21
296.4572007082533
 31
0
 70
   32
 71
    5
  3
Standard
 53
0
210
0
220
0
230
1
100
AcDbAlignedDimension
 13
172.382862495683
 23
337.8000774750755
 33
0
 14
285.3803323891378
 24
337.8000774750755
 34
0
100
AcDbRotatedDimension
  0
DIMENSION
  5
196
100
AcDbEntity
  8
measures
  6
ByLayer
 62
  256
370
   -1
100
AcDbDimension
  2
*D16
 10
294.2822470978593
 20
287.2686703211547
 30
0
 11
228.8815974424116
 21
289.1436703211547
 31
0
 70
   32
 71
    5
  3
Standard
 53
0
210
0
220
0
230
1
100
AcDbAlignedDimension
 13
163.4809477869639
 23
345.8000774750755
 33
0
 14
294.2822470978593
 24
345.8000774750755
 34
0
100
AcDbRotatedDimension
  0
LINE
  5
197
100
AcDbEntity
  8
builder
  6
ByLayer
 62
  256
370
   -1
100
AcDbLine
 10
293.8815974424072
 20
266.7287359502982
 11
293.8815974424072
 21
276.9757582501068
  0
LINE
  5
198
100
AcDbEntity
  8
builder
  6
ByLayer
 62
  256
370
   -1
100
AcDbLine
 10
163.8815974424074
 20
266.7287359502982
 11
163.8815974424074
 21
277.298950500107
  0
LINE
  5
199
100
AcDbEntity
  8
builder
  6
ByLayer
 62
  256
370
   -1
100
AcDbLine
 10
148.8815974424071
 20
116.1655196378957
 11
148.8815974424071
 21
31.33596913803086
  0
LINE
  5
19A
100
AcDbEntity
  8
builder
  6
ByLayer
 62
  256
370
   -1
100
AcDbLine
 10
308.8815974424089
 20
116.1655196378957
 11
308.8815974424089
 21
35.93191127827539
  0
LWPOLYLINE
  5
19B
100
AcDbEntity
  8
0
  6
ByLayer
 62
  256
370
   -1
100
AcDbPolyline
 90
    4
 70
    1
 43
0
 10
308.8815974424089
 20
51.16551963789414
 10
148.8815974424071
 20
51.16551963789414
 10
148.8815974424071
 20
96.16551963789588
 10
308.8815974424089
 20
96.16551963789588
  0
DIMENSION
  5
19C
100
AcDbEntity
  8
measures
  6
ByLayer
 62
  256
370
   -1
100
AcDbDimension
  2
*D17
 10
320.0000000001239
 20
51.16551963789414
 30
0
 11
318.1250000001239
 21
73.66551963789502
 31
0
 70
   32
 71
    5
  3
Standard
 53
0
210
0
220
0
230
1
100
AcDbAlignedDimension
 13
308.8815974424089
 23
96.16551963789588
 33
0
 14
308.8815974424089
 24
51.16551963789414
 34
0
 50
90
100
AcDbRotatedDimension
  0
LINE
  5
19D
100
AcDbEntity
  8
builder
  6
ByLayer
 62
  256
370
   -1
100
AcDbLine
 10
353.8815974424093
 20
116.1655196378957
 11
353.8815974424093
 21
221.2500000000862
  0
LINE
  5
19E
100
AcDbEntity
  8
0
  6
ByLayer
 62
  256
370
   -1
100
AcDbLine
 10
398.8815974424091
 20
116.1655196378957
 11
353.8815974424093
 21
116.1655196378957
  0
DIMENSION
  5
19F
100
AcDbEntity
  8
measures
  6
ByLayer
 62
  256
370
   -1
100
AcDbDimension
  2
*D18
 10
398.8815974424091
 20
104.511724269161
 30
0
 11
376.3815974424092
 21
106.386724269161
 31
0
 70
   32
 71
    5
  3
Standard
 53
0
210
0
220
0
230
1
100
AcDbAlignedDimension
 13
353.8815974424093
 23
116.1655196378957
 33
0
 14
398.8815974424091
 24
116.1655196378957
 34
0
100
AcDbRotatedDimension
  0
LWPOLYLINE
  5
1A0
100
AcDbEntity
  8
0
  6
ByLayer
 62
  256
370
   -1
100
AcDbPolyline
 90
    4
 70
    1
 43
0
 10
293.8815974424072
 20
226.7287359502974
 10
163.8815974424074
 20
226.7287359502974
 10
163.8815974424074
 20
272.008735950298
 10
293.8815974424072
 20
272.008735950298
  0
DIMENSION
  5
1A1
100
AcDbEntity
  8
measures
  6
ByLayer
 62
  256
370
   -1
100
AcDbDimension
  2
*D19
 10
310.4010000001253
 20
272.008735950298
 30
0
 11
308.5260000001253
 21
249.3687359502977
 31
0
 70
   32
 71
    5
  3
Standard
 53
0
210
0
220
0
230
1
100
AcDbAlignedDimension
 13
293.8815974424072
 23
226.7287359502974
 33
0
 14
293.8815974424072
 24
272.008735950298
 34
0
 50
90
100
AcDbRotatedDimension
  0
LINE
  5
1A2
100
AcDbEntity
  8
builder
  6
ByLayer
 62
  256
370
   -1
100
AcDbLine
 10
353.8815974424093
 20
116.1655196378957
 11
85.62041406228579
 21
116.1655196378957
  0
LINE
  5
1A3
100
AcDbEntity
  8
builder
  6
ByLayer
 62
  256
370
   -1
100
AcDbLine
 10
131.1866430053048
 20
106.1987110042944
 11
131.1866430053048
 21
220.114283361842
  0
CIRCLE
  5
1A4
100
AcDbEntity
  8
0
  6
ByLayer
 62
  256
370
   -1
100
AcDbCircle
 10
204.2743948384105
 20
403.6389974724353
 40
3
  0
CIRCLE
  5
1A5
100
AcDbEntity
  8
0
  6
ByLayer
 62
  256
370
   -1
100
AcDbCircle
 10
254.2743948384066
 20
403.6389974724356
 40
3
  0
DIMENSION
  5
1A6
100
AcDbEntity
  8
measures
  6
ByLayer
 62
  256
370
   -1
100
AcDbDimension
  2
*D20
 10
254.2743948384066
 20
427.7346007231881
 30
0
 11
229.2743948384086
 21
429.6096007231881
 31
0
 70
   32
 71
    5
  3
Standard
 53
0
210
0
220
0
230
1
100
AcDbAlignedDimension
 13
204.2743948384105
 23
403.6389974724353
 33
0
 14
254.2743948384066
 24
403.6389974724356
 34
0
100
AcDbRotatedDimension
  0
LINE
  5
1A7
100
AcDbEntity
  8
builder
  6
ByLayer
 62
  256
370
   -1
100
AcDbLine
 10
254.2743948384066
 20
403.6389974724356
 11
204.2743948384105
 21
403.6389974724353
  0
DIMENSION
  5
1A8
100
AcDbEntity
  8
measures
  6
ByLayer
 62
  256
370
   -1
100
AcDbDimension
  2
*D21
 10
327.8364116096439
 20
393.638997472452
 30
0
 11
325.9614116096439
 21
398.6389974724437
 31
0
 70
   32
 71
    5
  3
Standard
 53
0
210
0
220
0
230
1
100
AcDbAlignedDimension
 13
254.2743948384066
 23
403.6389974724356
 33
0
 14
277.7158452978758
 24
393.638997472452
 34
0
 50
90
100
AcDbRotatedDimension
  0
DIMENSION
  5
1A9
100
AcDbEntity
  8
measures
  6
ByLayer
 62
  256
370
   -1
100
AcDbDimension
  2
*D22
 10
328.0024301390437
 20
327.8000774750755
 30
0
 11
326.1274301390437
 21
332.8000774750755
 31
0
 70
   32
 71
    5
  3
Standard
 53
0
210
0
220
0
230
1
100
AcDbAlignedDimension
 13
285.3803323891378
 23
337.8000774750755
 33
0
 14
256.2743948384083
 24
327.8000774750755
 34
0
 50
90
100
AcDbRotatedDimension
  0
LINE
  5
1AA
100
AcDbEntity
  8
builder
  6
ByLayer
 62
  256
370
   -1
100
AcDbLine
 10
398.8815974424091
 20
116.1655196378957
 11
398.8815974424091
 21
228.2321899737176
  0
LINE
  5
1AB
100
AcDbEntity
  8
builder
  6
ByLayer
 62
  256
370
   -1
100
AcDbLine
 10
305.5574949654304
 20
317.4346353122597
 11
152.2056999193844
 21
317.4346353122598
  0
LINE
  5
1AC
100
AcDbEntity
  8
0
  6
ByLayer
 62
  256
370
   -1
100
AcDbLine
 10
147.587488434507
 20
317.4346353122598
 11
310.1757064503109
 21
317.4346353122597
  0
LINE
  5
1AD
100
AcDbEntity
  8
0
  6
ByLayer
 62
  256
370
   -1
100
AcDbLine
 10
161.0390332526914
 20
415.4346353122389
 11
147.587488434507
 21
317.4346353122598
  0
LINE
  5
1AE
100
AcDbEntity
  8
0
  6
ByLayer
 62
  256
370
   -1
100
AcDbLine
 10
310.1757064503109
 20
317.4346353122597
 11
296.7241616321318
 21
415.4346353122649
  0
DIMENSION
  5
1AF
100
AcDbEntity
  8
measures
  6
ByLayer
 62
  256
370
   -1
100
AcDbDimension
  2
*D23
 10
142.5035999997429
 20
318.1324532013505
 30
0
 11
147.3717896383968
 21
367.3874262410344
 31
0
 70
   33
 71
    5
  3
Standard
 53
0
210
0
220
0
230
1
100
AcDbAlignedDimension
 13
161.0390332526914
 23
415.4346353122389
 33
0
 14
147.587488434507
 24
317.4346353122598
 34
0
  0
DIMENSION
  5
1B0
100
AcDbEntity
  8
measures
  6
ByLayer
 62
  256
370
   -1
100
AcDbDimension
  2
*D24
 10
333.53100207215
 20
415.434635312265
 30
0
 11
331.65600207215
 21
366.4346353122623
 31
0
 70
   32
 71
    5
  3
Standard
 53
0
210
0
220
0
230
1
100
AcDbAlignedDimension
 13
310.1757064503109
 23
317.4346353122597
 33
0
 14
296.7241616321318
 24
415.434635312265
 34
0
 50
90
100
AcDbRotatedDimension
  0
LINE
  5
1B1
100
AcDbEntity
  8
builder
  6
ByLayer
 62
  256
370
   -1
100
AcDbLine
 10
303.1280013917836
 20
498.6807693423909
 11
154.6351934930312
 21
498.6807693423909
  0
LINE
  5
1B2
100
AcDbEntity
  8
builder
  6
ByLayer
 62
  256
370
   -1
100
AcDbLine
 10
167.4625433395456
 20
506.6807693423909
 11
316.6545000000484
 21
506.6807693423909
  0
LINE
  5
1B3
100
AcDbEntity
  8
builder
  6
ByLayer
 62
  256
370
   -1
100
AcDbLine
 10
303.1280013917836
 20
488.6807693423909
 11
154.6351934930312
 21
488.6807693423909
  0
CIRCLE
  5
1B4
100
AcDbEntity
  8
0
  6
ByLayer
 62
  256
370
   -1
100
AcDbCircle
 10
202.2743948384093
 20
488.6807693423909
 40
3
  0
CIRCLE
  5
1B5
100
AcDbEntity
  8
0
  6
ByLayer
 62
  256
370
   -1
100
AcDbCircle
 10
256.2743948384083
 20
488.6807693423909
 40
3
  0
LINE
  5
1B6
100
AcDbEntity
  8
builder
  6
ByLayer
 62
  256
370
   -1
100
AcDbLine
 10
148.8815974424071
 20
576.315327179552
 11
308.8815974424089
 21
576.3153271795827
  0
LINE
  5
1B7
100
AcDbEntity
  8
0
  6
ByLayer
 62
  256
370
   -1
100
AcDbLine
 10
296.7241616321318
 20
576.3153271795803
 11
161.0390332526914
 21
576.3153271795543
  0
LINE
  5
1B8
100
AcDbEntity
  8
builder
  6
ByLayer
 62
  256
370
   -1
100
AcDbLine
 10
158.0473495869448
 20
554.5196893397455
 11
299.7158452978765
 21
554.5196893397714
  0
LINE
  5
1B9
100
AcDbEntity
  8
0
  6
ByLayer
 62
  256
370
   -1
100
AcDbLine
 10
180.047349586946
 20
554.5196893397494
 11
277.7158452978759
 21
554.5196893397674
  0
LINE
  5
1BA
100
AcDbEntity
  8
0
  6
ByLayer
 62
  256
370
   -1
100
AcDbLine
 10
277.7158452978759
 20
554.5196893397674
 11
285.3803323891378
 21
498.6807693423909
  0
LINE
  5
1BB
100
AcDbEntity
  8
0
  6
ByLayer
 62
  256
370
   -1
100
AcDbLine
 10
285.3803323891378
 20
498.6807693423909
 11
172.382862495683
 21
498.6807693423909
  0
LINE
  5
1BC
100
AcDbEntity
  8
0
  6
ByLayer
 62
  256
370
   -1
100
AcDbLine
 10
172.382862495683
 20
498.6807693423909
 11
180.047349586946
 21
554.5196893397494
  0
CIRCLE
  5
1BD
100
AcDbEntity
  8
0
  6
ByLayer
 62
  256
370
   -1
100
AcDbCircle
 10
294.2822470978593
 20
506.6807693423909
 40
3
  0
CIRCLE
  5
1BE
100
AcDbEntity
  8
0
  6
ByLayer
 62
  256
370
   -1
100
AcDbCircle
 10
163.4809477869639
 20
506.6807693423909
 40
3
  0
LINE
  5
1BF
100
AcDbEntity
  8
builder
  6
ByLayer
 62
  256
370
   -1
100
AcDbLine
 10
171.1591117478075
 20
544.9498850167533
 11
309.8325000000473
 21
544.9498850167533
  0
CIRCLE
  5
1C0
100
AcDbEntity
  8
0
  6
ByLayer
 62
  256
370
   -1
100
AcDbCircle
 10
289.0294029688227
 20
544.9498850167533
 40
3
  0
CIRCLE
  5
1C1
100
AcDbEntity
  8
0
  6
ByLayer
 62
  256
370
   -1
100
AcDbCircle
 10
168.7337919160057
 20
544.9498850167533
 40
3
  0
CIRCLE
  5
1C2
100
AcDbEntity
  8
0
  6
ByLayer
 62
  256
370
   -1
100
AcDbCircle
 10
204.2743948384105
 20
564.5196893397508
 40
3
  0
CIRCLE
  5
1C3
100
AcDbEntity
  8
0
  6
ByLayer
 62
  256
370
   -1
100
AcDbCircle
 10
254.2743948384066
 20
564.519689339751
 40
3
  0
LINE
  5
1C4
100
AcDbEntity
  8
builder
  6
ByLayer
 62
  256
370
   -1
100
AcDbLine
 10
254.2743948384066
 20
564.519689339751
 11
204.2743948384105
 21
564.5196893397508
  0
LINE
  5
1C5
100
AcDbEntity
  8
builder
  6
ByLayer
 62
  256
370
   -1
100
AcDbLine
 10
305.5574949654304
 20
478.3153271795751
 11
152.2056999193844
 21
478.3153271795752
  0
LINE
  5
1C6
100
AcDbEntity
  8
0
  6
ByLayer
 62
  256
370
   -1
100
AcDbLine
 10
147.587488434507
 20
478.3153271795752
 11
310.1757064503109
 21
478.3153271795751
  0
LINE
  5
1C7
100
AcDbEntity
  8
0
  6
ByLayer
 62
  256
370
   -1
100
AcDbLine
 10
161.0390332526914
 20
576.3153271795543
 11
147.587488434507
 21
478.3153271795752
  0
LINE
  5
1C8
100
AcDbEntity
  8
0
  6
ByLayer
 62
  256
370
   -1
100
AcDbLine
 10
310.1757064503109
 20
478.3153271795751
 11
296.7241616321318
 21
576.3153271795803
  0
LINE
  5
1C9
100
AcDbEntity
  8
0
  6
ByLayer
 62
  256
370
   -1
100
AcDbLine
 10
353.8815974424093
 20
207.4055196378957
 11
353.8815974424093
 21
116.1655196378957
  0
DIMENSION
  5
1CA
100
AcDbEntity
  8
measures
  6
ByLayer
 62
  256
370
   -1
100
AcDbDimension
  2
*D25
 10
345.7888825434334
 20
207.4055196378958
 30
0
 11
343.9138825434334
 21
161.7855196378958
 31
0
 70
   32
 71
    5
  3
Standard
 53
0
210
0
220
0
230
1
100
AcDbAlignedDimension
 13
353.8815974424093
 23
116.1655196378957
 33
0
 14
353.8815974424092
 24
207.4055196378958
 34
0
 50
90
100
AcDbRotatedDimension
  0
LINE
  5
1CB
100
AcDbEntity
  8
0
  6
ByLayer
 62
  256
370
   -1
100
AcDbLine
 10
353.8815974424093
 20
207.4055196378957
 11
398.8815974424092
 21
212.1655196378953
  0
LINE
  5
1CC
100
AcDbEntity
  8
0
  6
ByLayer
 62
  256
370
   -1
100
AcDbLine
 10
398.8815974424092
 20
212.1655196378953
 11
398.8815974424091
 21
116.1655196378957
  0
DIMENSION
  5
1CD
100
AcDbEntity
  8
measures
  6
ByLayer
 62
  256
370
   -1
100
AcDbDimension
  2
*D26
 10
407.2119613018941
 20
212.1655196378953
 30
0
 11
405.3369613018941
 21
164.1655196378955
 31
0
 70
   32
 71
    5
  3
Standard
 53
0
210
0
220
0
230
1
100
AcDbAlignedDimension
 13
398.8815974424091
 23
116.1655196378957
 33
0
 14
398.8815974424091
 24
212.1655196378953
 34
0
 50
90
100
AcDbRotatedDimension
  0
DIMENSION
  5
1CE
100
AcDbEntity
  8
measures
  6
ByLayer
 62
  256
370
   -1
100
AcDbDimension
  2
*D27
 10
398.1960401379579
 20
218.6466286085483
 30
0
 11
375.4988071491333
 21
218.1312261919749
 31
0
 70
   33
 71
    5
  3
Standard
 53
0
210
0
220
0
230
1
100
AcDbAlignedDimension
 13
353.8815974424093
 23
207.4055196378957
 33
0
 14
398.8815974424091
 24
212.1655196378953
 34
0
  0
LINE
  5
1CF
100
AcDbEntity
  8
builder
  6
ByLayer
 62
  256
370
   -1
100
AcDbLine
 10
122.9087399097504
 20
116.1655196378957
 11
122.9087399097504
 21
221.2500000000862
  0
LINE
  5
1D0
100
AcDbEntity
  8
0
  6
ByLayer
 62
  256
370
   -1
100
AcDbLine
 10
77.90873990975052
 20
116.1655196378957
 11
122.9087399097504
 21
116.1655196378957
  0
DIMENSION
  5
1D1
100
AcDbEntity
  8
measures
  6
ByLayer
 62
  256
370
   -1
100
AcDbDimension
  2
*D28
 10
77.90873990975058
 20
104.511724269161
 30
0
 11
100.4087399097505
 21
106.386724269161
 31
0
 70
   32
 71
    5
  3
Standard
 53
0
210
0
220
0
230
1
100
AcDbAlignedDimension
 13
122.9087399097504
 23
116.1655196378957
 33
0
 14
77.90873990975058
 24
116.1655196378957
 34
0
 50
180
100
AcDbRotatedDimension
  0
LINE
  5
1D2
100
AcDbEntity
  8
builder
  6
ByLayer
 62
  256
370
   -1
100
AcDbLine
 10
77.90873990975052
 20
116.1655196378957
 11
77.90873990975052
 21
228.2321899737176
  0
LINE
  5
1D3
100
AcDbEntity
  8
0
  6
ByLayer
 62
  256
370
   -1
100
AcDbLine
 10
122.9087399097504
 20
207.4055196378957
 11
122.9087399097504
 21
116.1655196378957
  0
DIMENSION
  5
1D4
100
AcDbEntity
  8
measures
  6
ByLayer
 62
  256
370
   -1
100
AcDbDimension
  2
*D29
 10
131.0014548087263
 20
207.4055196378958
 30
0
 11
132.8764548087263
 21
161.7855196378958
 31
0
 70
   32
 71
    5
  3
Standard
 53
0
210
0
220
0
230
1
100
AcDbAlignedDimension
 13
122.9087399097504
 23
116.1655196378957
 33
0
 14
122.9087399097505
 24
207.4055196378958
 34
0
 50
90.00000000000001
100
AcDbRotatedDimension
  0
LINE
  5
1D5
100
AcDbEntity
  8
0
  6
ByLayer
 62
  256
370
   -1
100
AcDbLine
 10
122.9087399097504
 20
207.4055196378957
 11
77.90873990975047
 21
212.1655196378953
  0
LINE
  5
1D6
100
AcDbEntity
  8
0
  6
ByLayer
 62
  256
370
   -1
100
AcDbLine
 10
77.90873990975047
 20
212.1655196378953
 11
77.90873990975052
 21
116.1655196378957
  0
DIMENSION
  5
1D7
100
AcDbEntity
  8
measures
  6
ByLayer
 62
  256
370
   -1
100
AcDbDimension
  2
*D30
 10
69.57837605026555
 20
212.1655196378953
 30
0
 11
71.45337605026555
 21
164.1655196378955
 31
0
 70
   32
 71
    5
  3
Standard
 53
0
210
0
220
0
230
1
100
AcDbAlignedDimension
 13
77.90873990975058
 23
116.1655196378957
 33
0
 14
77.90873990975052
 24
212.1655196378953
 34
0
 50
90.00000000000001
100
AcDbRotatedDimension
  0
DIMENSION
  5
1D8
100
AcDbEntity
  8
measures
  6
ByLayer
 62
  256
370
   -1
100
AcDbDimension
  2
*D31
 10
78.59429721420179
 20
218.6466286085483
 30
0
 11
101.2915302030264
 21
218.1312261919749
 31
0
 70
   33
 71
    5
  3
Standard
 53
0
210
0
220
0
230
1
100
AcDbAlignedDimension
 13
122.9087399097504
 23
207.4055196378957
 33
0
 14
77.90873990975052
 24
212.1655196378953
 34
0
  0
ENDSEC
  0
SECTION
  2
OBJECTS
  0
DICTIONARY
  5
C
330
0
100
AcDbDictionary
281
    1
  3
ACAD_GROUP
350
D
  0
DICTIONARY
  5
D
330
C
100
AcDbDictionary
281
    1
  0
PLOTSETTINGS
  5
1D9
100
AcDbPlotSettings
  6
1x1
 40
0
 41
0
 42
0
 43
0
  0
ENDSEC
  0
EOF
