999
dxfrw 0.6.3
  0
SECTION
  2
HEADER
  9
$ACADVER
  1
AC1021
  9
$DWGCODEPAGE
  3
ANSI_1252
  9
$INSBASE
 10
0
 20
0
 30
0
  9
$EXTMIN
 10
75.95250161743374
 20
120.9461757134592
 30
0
  9
$EXTMAX
 10
489.5444077819965
 20
730.0757959577809
 30
0
  9
$LIMMIN
 10
0
 20
0
  9
$LIMMAX
 10
420
 20
297
  9
$ORTHOMODE
 70
    0
  9
$REGENMODE
 70
    1
  9
$FILLMODE
 70
    1
  9
$QTEXTMODE
 70
    0
  9
$MIRRTEXT
 70
    0
  9
$LTSCALE
 40
1
  9
$ATTMODE
 70
    0
  9
$TEXTSIZE
 40
2.5
  9
$TRACEWID
 40
15.68
  9
$TEXTSTYLE
  7
STANDARD
  9
$CLAYER
  8
measures
  9
$CELTYPE
  6
BYLAYER
  9
$CECOLOR
 62
  256
  9
$CELTSCALE
 40
1
  9
$DISPSILH
 70
    0
  9
$DIMSCALE
 40
1
  9
$DIMASZ
 40
2.5
  9
$DIMEXO
 40
0.625
  9
$DIMDLI
 40
3.75
  9
$DIMRND
 40
0
  9
$DIMDLE
 40
0
  9
$DIMEXE
 40
1.25
  9
$DIMTP
 40
0
  9
$DIMTM
 40
0
  9
$DIMTXT
 40
2.5
  9
$DIMCEN
 40
2.5
  9
$DIMTSZ
 40
0
  9
$DIMTOL
 70
    0
  9
$DIMLIM
 70
    0
  9
$DIMTIH
 70
    0
  9
$DIMTOH
 70
    0
  9
$DIMSE1
 70
    0
  9
$DIMSE2
 70
    0
  9
$DIMTAD
 70
    1
  9
$DIMZIN
 70
    8
  9
$DIMBLK
  1

  9
$DIMASO
 70
    1
  9
$DIMSHO
 70
    1
  9
$DIMPOST
  1

  9
$DIMAPOST
  1

  9
$DIMALT
 70
    0
  9
$DIMALTD
 70
    3
  9
$DIMALTF
 40
0.03937
  9
$DIMLFAC
 40
1
  9
$DIMTOFL
 70
    1
  9
$DIMTVP
 40
0
  9
$DIMTIX
 70
    0
  9
$DIMSOXD
 70
    0
  9
$DIMSAH
 70
    0
  9
$DIMBLK1
  1

  9
$DIMBLK2
  1

  9
$DIMSTYLE
  2
STANDARD
  9
$DIMCLRD
 70
    0
  9
$DIMCLRE
 70
    0
  9
$DIMCLRT
 70
    0
  9
$DIMTFAC
 40
1
  9
$DIMGAP
 40
0.625
  9
$DIMJUST
 70
    0
  9
$DIMSD1
 70
    0
  9
$DIMSD2
 70
    0
  9
$DIMTOLJ
 70
    0
  9
$DIMTZIN
 70
    8
  9
$DIMALTZ
 70
    0
  9
$DIMALTTZ
 70
    0
  9
$DIMUPT
 70
    0
  9
$DIMDEC
 70
    2
  9
$DIMTDEC
 70
    2
  9
$DIMALTU
 70
    2
  9
$DIMALTTD
 70
    3
  9
$DIMTXSTY
  7
STANDARD
  9
$DIMAUNIT
 70
    0
  9
$DIMADEC
 70
    0
  9
$DIMALTRND
 40
0
  9
$DIMAZIN
 70
    0
  9
$DIMDSEP
 70
   44
  9
$DIMATFIT
 70
    3
  9
$DIMFRAC
 70
    0
  9
$DIMLDRBLK
  1
STANDARD
  9
$DIMLUNIT
 70
    2
  9
$DIMLWD
 70
   -2
  9
$DIMLWE
 70
   -2
  9
$DIMTMOVE
 70
    0
  9
$DIMFXL
 40
1
  9
$DIMFXLON
 70
    0
  9
$DIMJOGANG
 40
0.7854
  9
$DIMTFILL
 70
    0
  9
$DIMTFILLCLR
 70
    0
  9
$DIMARCSYM
 70
    0
  9
$DIMLTYPE
  6

  9
$DIMLTEX1
  6

  9
$DIMLTEX2
  6

  9
$LUNITS
 70
    2
  9
$LUPREC
 70
    4
  9
$SKETCHINC
 40
1
  9
$FILLETRAD
 40
0
  9
$AUNITS
 70
    0
  9
$AUPREC
 70
    2
  9
$MENU
  1
.
  9
$ELEVATION
 40
0
  9
$PELEVATION
 40
0
  9
$THICKNESS
 40
0
  9
$LIMCHECK
 70
    0
  9
$CHAMFERA
 40
0
  9
$CHAMFERB
 40
0
  9
$CHAMFERC
 40
0
  9
$CHAMFERD
 40
0
  9
$SKPOLY
 70
    0
  9
$USRTIMER
 70
    1
  9
$ANGBASE
 50
0
  9
$ANGDIR
 70
    0
  9
$PDMODE
 70
   34
  9
$PDSIZE
 40
0
  9
$PLINEWID
 40
0
  9
$SPLFRAME
 70
    0
  9
$SPLINETYPE
 70
    2
  9
$SPLINESEGS
 70
    8
  9
$HANDSEED
  5
20000
  9
$SURFTAB1
 70
    6
  9
$SURFTAB2
 70
    6
  9
$SURFTYPE
 70
    6
  9
$SURFU
 70
    6
  9
$SURFV
 70
    6
  9
$UCSBASE
  2

  9
$UCSNAME
  2

  9
$UCSORG
 10
0
 20
0
 30
0
  9
$UCSXDIR
 10
1
 20
0
 30
0
  9
$UCSYDIR
 10
0
 20
1
 30
0
  9
$UCSORTHOREF
  2

  9
$UCSORTHOVIEW
 70
    0
  9
$UCSORGTOP
 10
0
 20
0
 30
0
  9
$UCSORGBOTTOM
 10
0
 20
0
 30
0
  9
$UCSORGLEFT
 10
0
 20
0
 30
0
  9
$UCSORGRIGHT
 10
0
 20
0
 30
0
  9
$UCSORGFRONT
 10
0
 20
0
 30
0
  9
$UCSORGBACK
 10
0
 20
0
 30
0
  9
$PUCSBASE
  2

  9
$PUCSNAME
  2

  9
$PUCSORG
 10
0
 20
0
 30
0
  9
$PUCSXDIR
 10
1
 20
0
 30
0
  9
$PUCSYDIR
 10
0
 20
1
 30
0
  9
$PUCSORTHOREF
  2

  9
$PUCSORTHOVIEW
 70
    0
  9
$PUCSORGTOP
 10
0
 20
0
 30
0
  9
$PUCSORGBOTTOM
 10
0
 20
0
 30
0
  9
$PUCSORGLEFT
 10
0
 20
0
 30
0
  9
$PUCSORGRIGHT
 10
0
 20
0
 30
0
  9
$PUCSORGFRONT
 10
0
 20
0
 30
0
  9
$PUCSORGBACK
 10
0
 20
0
 30
0
  9
$USERI1
 70
    0
  9
$USERI2
 70
    0
  9
$USERI3
 70
    0
  9
$USERI4
 70
    0
  9
$USERI5
 70
    0
  9
$USERR1
 40
0
  9
$USERR2
 40
0
  9
$USERR3
 40
0
  9
$USERR4
 40
0
  9
$USERR5
 40
0
  9
$WORLDVIEW
 70
    1
  9
$SHADEDGE
 70
    3
  9
$SHADEDIF
 70
   70
  9
$TILEMODE
 70
    1
  9
$MAXACTVP
 70
   64
  9
$PINSBASE
 10
0
 20
0
 30
0
  9
$PLIMCHECK
 70
    0
  9
$PEXTMIN
 10
0
 20
0
 30
0
  9
$PEXTMAX
 10
0
 20
0
 30
0
  9
$GRIDMODE
 70
    1
  9
$SNAPSTYLE
 70
    0
  9
$PLIMMIN
 10
0
 20
0
  9
$PLIMMAX
 10
297
 20
210
  9
$UNITMODE
 70
    0
  9
$VISRETAIN
 70
    1
  9
$PLINEGEN
 70
    0
  9
$PSLTSCALE
 70
    1
  9
$TREEDEPTH
 70
 3020
  9
$CMLSTYLE
  2
Standard
  9
$CMLJUST
 70
    0
  9
$CMLSCALE
 40
20
  9
$PROXYGRAPHICS
 70
    1
  9
$MEASUREMENT
 70
    1
  9
$CELWEIGHT
370
   -1
  9
$ENDCAPS
280
    0
  9
$JOINSTYLE
280
    0
  9
$LWDISPLAY
290
    0
  9
$INSUNITS
 70
    4
  9
$HYPERLINKBASE
  1

  9
$STYLESHEET
  1

  9
$XEDIT
290
    1
  9
$CEPSNTYPE
380
    0
  9
$PSTYLEMODE
290
    1
  9
$EXTNAMES
290
    1
  9
$PSVPSCALE
 40
1
  9
$OLESTARTUP
290
    0
  9
$SORTENTS
280
  127
  9
$INDEXCTL
280
    0
  9
$HIDETEXT
280
    1
  9
$XCLIPFRAME
290
    0
  9
$HALOGAP
280
    0
  9
$OBSCOLOR
 70
  257
  9
$OBSLTYPE
280
    0
  9
$INTERSECTIONDISPLAY
280
    0
  9
$INTERSECTIONCOLOR
 70
  257
  9
$DIMASSOC
280
    1
  9
$PROJECTNAME
  1

  9
$CAMERADISPLAY
290
    0
  9
$LENSLENGTH
 40
50
  9
$CAMERAHEIGHT
 40
0
  9
$STEPSPERSEC
 40
2
  9
$STEPSIZE
 40
50
  9
$3DDWFPREC
 40
2
  9
$PSOLWIDTH
 40
5
  9
$PSOLHEIGHT
 40
80
  9
$LOFTANG1
 40
1.570796326794897
  9
$LOFTANG2
 40
1.570796326794897
  9
$LOFTMAG1
 40
0
  9
$LOFTMAG2
 40
0
  9
$LOFTPARAM
 70
    7
  9
$LOFTNORMALS
280
    1
  9
$LATITUDE
 40
1
  9
$LONGITUDE
 40
1
  9
$NORTHDIRECTION
 40
0
  9
$TIMEZONE
 70
-8000
  9
$LIGHTGLYPHDISPLAY
280
    1
  9
$TILEMODELIGHTSYNCH
280
    1
  9
$SOLIDHIST
280
    1
  9
$SHOWHIST
280
    1
  9
$DWFFRAME
280
    2
  9
$DGNFRAME
280
    0
  9
$REALWORLDSCALE
290
    1
  9
$INTERFERECOLOR
 62
    1
  9
$CSHADOW
280
    0
  9
$SHADOWPLANELOCATION
 40
0
  0
ENDSEC
  0
SECTION
  2
CLASSES
  0
ENDSEC
  0
SECTION
  2
TABLES
  0
TABLE
  2
VPORT
  5
8
330
0
100
AcDbSymbolTable
 70
    1
  0
VPORT
  5
31
330
2
100
AcDbSymbolTableRecord
100
AcDbViewportTableRecord
  2
*ACTIVE
 70
    0
 10
0
 20
0
 11
1
 21
1
 12
331.6324514852884
 22
254.2515461387211
 13
0
 23
0
 14
10
 24
10
 15
10
 25
10
 16
0
 26
0
 36
1
 17
0
 27
0
 37
0
 40
499.2910797361843
 41
1.91389913899139
 42
50
 43
0
 44
0
 50
0
 51
0
 71
    0
 72
  100
 73
    1
 74
    3
 75
    0
 76
    1
 77
    0
 78
    0
281
    0
 65
    1
110
0
120
0
130
0
111
1
121
0
131
0
112
0
122
1
132
0
 79
    0
146
0
348
10020
 60
    7
 61
    5
292
1
282
    1
141
0
142
0
 63
  250
421
3358443
  0
ENDTAB
  0
TABLE
  2
LTYPE
  5
5
330
0
100
AcDbSymbolTable
 70
    4
  0
LTYPE
  5
14
330
5
100
AcDbSymbolTableRecord
100
AcDbLinetypeTableRecord
  2
ByBlock
 70
    0
  3

 72
   65
 73
    0
 40
0
  0
LTYPE
  5
15
330
5
100
AcDbSymbolTableRecord
100
AcDbLinetypeTableRecord
  2
ByLayer
 70
    0
  3

 72
   65
 73
    0
 40
0
  0
LTYPE
  5
16
330
5
100
AcDbSymbolTableRecord
100
AcDbLinetypeTableRecord
  2
Continuous
 70
    0
  3
Solid line
 72
   65
 73
    0
 40
0
  0
LTYPE
  5
32
330
5
100
AcDbSymbolTableRecord
100
AcDbLinetypeTableRecord
  2
DOT
 70
    0
  3
Dot . . . . . . . . . . . . . . . . . . . . . .
 72
   65
 73
    2
 40
6.35
 49
0
 74
    0
 49
-6.35
 74
    0
  0
LTYPE
  5
33
330
5
100
AcDbSymbolTableRecord
100
AcDbLinetypeTableRecord
  2
DOTTINY
 70
    0
  3
Dot (.15x) .....................................
 72
   65
 73
    2
 40
0.9525
 49
0
 74
    0
 49
-0.9525
 74
    0
  0
LTYPE
  5
34
330
5
100
AcDbSymbolTableRecord
100
AcDbLinetypeTableRecord
  2
DOT2
 70
    0
  3
Dot (.5x) .....................................
 72
   65
 73
    2
 40
3.175
 49
0
 74
    0
 49
-3.175
 74
    0
  0
LTYPE
  5
35
330
5
100
AcDbSymbolTableRecord
100
AcDbLinetypeTableRecord
  2
DOTX2
 70
    0
  3
Dot (2x) .  .  .  .  .  .  .  .  .  .  .  .  .
 72
   65
 73
    2
 40
12.7
 49
0
 74
    0
 49
-12.7
 74
    0
  0
LTYPE
  5
36
330
5
100
AcDbSymbolTableRecord
100
AcDbLinetypeTableRecord
  2
DASHED
 70
    0
  3
Dashed _ _ _ _ _ _ _ _ _ _ _ _ _ _ _ _ _
 72
   65
 73
    2
 40
19.05
 49
12.7
 74
    0
 49
-6.35
 74
    0
  0
LTYPE
  5
37
330
5
100
AcDbSymbolTableRecord
100
AcDbLinetypeTableRecord
  2
DASHEDTINY
 70
    0
  3
Dashed (.15x) _ _ _ _ _ _ _ _ _ _ _ _ _ _ _ _ _
 72
   65
 73
    2
 40
2.8575
 49
1.905
 74
    0
 49
-0.9525
 74
    0
  0
LTYPE
  5
38
330
5
100
AcDbSymbolTableRecord
100
AcDbLinetypeTableRecord
  2
DASHED2
 70
    0
  3
Dashed (.5x) _ _ _ _ _ _ _ _ _ _ _ _ _ _ _ _ _
 72
   65
 73
    2
 40
9.524999999999999
 49
6.35
 74
    0
 49
-3.175
 74
    0
  0
LTYPE
  5
39
330
5
100
AcDbSymbolTableRecord
100
AcDbLinetypeTableRecord
  2
DASHEDX2
 70
    0
  3
Dashed (2x) ____  ____  ____  ____  ____  ___
 72
   65
 73
    2
 40
38.09999999999999
 49
25.4
 74
    0
 49
-12.7
 74
    0
  0
LTYPE
  5
3A
330
5
100
AcDbSymbolTableRecord
100
AcDbLinetypeTableRecord
  2
DASHDOT
 70
    0
  3
Dash dot __ . __ . __ . __ . __ . __ . __ . __
 72
   65
 73
    4
 40
25.4
 49
12.7
 74
    0
 49
-6.35
 74
    0
 49
0
 74
    0
 49
-6.35
 74
    0
  0
LTYPE
  5
3B
330
5
100
AcDbSymbolTableRecord
100
AcDbLinetypeTableRecord
  2
DASHDOTTINY
 70
    0
  3
Dash dot (.15x) _._._._._._._._._._._._._._._.
 72
   65
 73
    4
 40
3.81
 49
1.905
 74
    0
 49
-0.9525
 74
    0
 49
0
 74
    0
 49
-0.9525
 74
    0
  0
LTYPE
  5
3C
330
5
100
AcDbSymbolTableRecord
100
AcDbLinetypeTableRecord
  2
DASHDOT2
 70
    0
  3
Dash dot (.5x) _._._._._._._._._._._._._._._.
 72
   65
 73
    4
 40
12.7
 49
6.35
 74
    0
 49
-3.175
 74
    0
 49
0
 74
    0
 49
-3.175
 74
    0
  0
LTYPE
  5
3D
330
5
100
AcDbSymbolTableRecord
100
AcDbLinetypeTableRecord
  2
DASHDOTX2
 70
    0
  3
Dash dot (2x) ____  .  ____  .  ____  .  ___
 72
   65
 73
    4
 40
50.8
 49
25.4
 74
    0
 49
-12.7
 74
    0
 49
0
 74
    0
 49
-12.7
 74
    0
  0
LTYPE
  5
3E
330
5
100
AcDbSymbolTableRecord
100
AcDbLinetypeTableRecord
  2
DIVIDE
 70
    0
  3
Divide ____ . . ____ . . ____ . . ____ . . ____
 72
   65
 73
    6
 40
31.75
 49
12.7
 74
    0
 49
-6.35
 74
    0
 49
0
 74
    0
 49
-6.35
 74
    0
 49
0
 74
    0
 49
-6.35
 74
    0
  0
LTYPE
  5
3F
330
5
100
AcDbSymbolTableRecord
100
AcDbLinetypeTableRecord
  2
DIVIDETINY
 70
    0
  3
Divide (.15x) __..__..__..__..__..__..__..__.._
 72
   65
 73
    6
 40
4.7625
 49
1.905
 74
    0
 49
-0.9525
 74
    0
 49
0
 74
    0
 49
-0.9525
 74
    0
 49
0
 74
    0
 49
-0.9525
 74
    0
  0
LTYPE
  5
40
330
5
100
AcDbSymbolTableRecord
100
AcDbLinetypeTableRecord
  2
DIVIDE2
 70
    0
  3
Divide (.5x) __..__..__..__..__..__..__..__.._
 72
   65
 73
    6
 40
15.875
 49
6.35
 74
    0
 49
-3.175
 74
    0
 49
0
 74
    0
 49
-3.175
 74
    0
 49
0
 74
    0
 49
-3.175
 74
    0
  0
LTYPE
  5
41
330
5
100
AcDbSymbolTableRecord
100
AcDbLinetypeTableRecord
  2
DIVIDEX2
 70
    0
  3
Divide (2x) ________  .  .  ________  .  .  _
 72
   65
 73
    6
 40
63.5
 49
25.4
 74
    0
 49
-12.7
 74
    0
 49
0
 74
    0
 49
-12.7
 74
    0
 49
0
 74
    0
 49
-12.7
 74
    0
  0
LTYPE
  5
42
330
5
100
AcDbSymbolTableRecord
100
AcDbLinetypeTableRecord
  2
BORDER
 70
    0
  3
Border __ __ . __ __ . __ __ . __ __ . __ __ .
 72
   65
 73
    6
 40
44.45
 49
12.7
 74
    0
 49
-6.35
 74
    0
 49
12.7
 74
    0
 49
-6.35
 74
    0
 49
0
 74
    0
 49
-6.35
 74
    0
  0
LTYPE
  5
43
330
5
100
AcDbSymbolTableRecord
100
AcDbLinetypeTableRecord
  2
BORDERTINY
 70
    0
  3
Border (.15x) __.__.__.__.__.__.__.__.__.__.__.
 72
   65
 73
    6
 40
6.6675
 49
1.905
 74
    0
 49
-0.9525
 74
    0
 49
1.905
 74
    0
 49
-0.9525
 74
    0
 49
0
 74
    0
 49
-0.9525
 74
    0
  0
LTYPE
  5
44
330
5
100
AcDbSymbolTableRecord
100
AcDbLinetypeTableRecord
  2
BORDER2
 70
    0
  3
Border (.5x) __.__.__.__.__.__.__.__.__.__.__.
 72
   65
 73
    6
 40
22.225
 49
6.35
 74
    0
 49
-3.175
 74
    0
 49
6.35
 74
    0
 49
-3.175
 74
    0
 49
0
 74
    0
 49
-3.175
 74
    0
  0
LTYPE
  5
45
330
5
100
AcDbSymbolTableRecord
100
AcDbLinetypeTableRecord
  2
BORDERX2
 70
    0
  3
Border (2x) ____  ____  .  ____  ____  .  ___
 72
   65
 73
    6
 40
88.89999999999999
 49
25.4
 74
    0
 49
-12.7
 74
    0
 49
25.4
 74
    0
 49
-12.7
 74
    0
 49
0
 74
    0
 49
-12.7
 74
    0
  0
LTYPE
  5
46
330
5
100
AcDbSymbolTableRecord
100
AcDbLinetypeTableRecord
  2
CENTER
 70
    0
  3
Center ____ _ ____ _ ____ _ ____ _ ____ _ ____
 72
   65
 73
    4
 40
50.8
 49
31.75
 74
    0
 49
-6.35
 74
    0
 49
6.35
 74
    0
 49
-6.35
 74
    0
  0
LTYPE
  5
47
330
5
100
AcDbSymbolTableRecord
100
AcDbLinetypeTableRecord
  2
CENTERTINY
 70
    0
  3
Center (.15x) ___ _ ___ _ ___ _ ___ _ ___ _ ___
 72
   65
 73
    4
 40
7.619999999999999
 49
4.7625
 74
    0
 49
-0.9525
 74
    0
 49
0.9525
 74
    0
 49
-0.9525
 74
    0
  0
LTYPE
  5
48
330
5
100
AcDbSymbolTableRecord
100
AcDbLinetypeTableRecord
  2
CENTER2
 70
    0
  3
Center (.5x) ___ _ ___ _ ___ _ ___ _ ___ _ ___
 72
   65
 73
    4
 40
28.575
 49
19.05
 74
    0
 49
-3.175
 74
    0
 49
3.175
 74
    0
 49
-3.175
 74
    0
  0
LTYPE
  5
49
330
5
100
AcDbSymbolTableRecord
100
AcDbLinetypeTableRecord
  2
CENTERX2
 70
    0
  3
Center (2x) ________  __  ________  __  _____
 72
   65
 73
    4
 40
101.6
 49
63.5
 74
    0
 49
-12.7
 74
    0
 49
12.7
 74
    0
 49
-12.7
 74
    0
  0
ENDTAB
  0
TABLE
  2
LAYER
  5
2
330
0
100
AcDbSymbolTable
 70
    1
  0
LAYER
  5
10
330
2
100
AcDbSymbolTableRecord
100
AcDbLayerTableRecord
  2
0
 70
    0
 62
    7
  6
CONTINUOUS
370
   70
390
F
  0
LAYER
  5
4A
330
2
100
AcDbSymbolTableRecord
100
AcDbLayerTableRecord
  2
builder
 70
    1
 62
  253
420
10526884
  6
DASHED
370
   13
390
F
  0
LAYER
  5
4B
330
2
100
AcDbSymbolTableRecord
100
AcDbLayerTableRecord
  2
measures
 70
    0
 62
    6
  6
CONTINUOUS
370
   35
390
F
  0
ENDTAB
  0
TABLE
  2
STYLE
  5
3
330
0
100
AcDbSymbolTable
 70
    3
  0
STYLE
  5
4C
330
2
100
AcDbSymbolTableRecord
100
AcDbTextStyleTableRecord
  2
Standard
 70
    0
 40
0
 41
1
 50
0
 71
    0
 42
1
  3
txt
  4

  0
ENDTAB
  0
TABLE
  2
VIEW
  5
6
330
0
100
AcDbSymbolTable
 70
    0
  0
ENDTAB
  0
TABLE
  2
UCS
  5
7
330
0
100
AcDbSymbolTable
 70
    0
  0
ENDTAB
  0
TABLE
  2
APPID
  5
9
330
0
100
AcDbSymbolTable
 70
    1
  0
APPID
  5
12
330
9
100
AcDbSymbolTableRecord
100
AcDbRegAppTableRecord
  2
ACAD
 70
    0
  0
APPID
  5
4D
330
9
100
AcDbSymbolTableRecord
100
AcDbRegAppTableRecord
  2
LibreCad
 70
    0
  0
ENDTAB
  0
TABLE
  2
DIMSTYLE
  5
A
330
0
100
AcDbSymbolTable
 70
    1
100
AcDbDimStyleTable
 71
    1
  0
DIMSTYLE
105
4E
330
A
100
AcDbSymbolTableRecord
100
AcDbDimStyleTableRecord
  2
Standard
 70
    0
 40
1
 41
2.5
 42
0.625
 43
0.38
 44
1.25
 45
0
 46
0
 47
0
 48
0
 49
1
140
2.5
141
0.09
142
0
143
25.4
144
1
145
0
146
1
147
0.625
148
0
 71
    0
 72
    0
 73
    0
 74
    1
 75
    0
 76
    0
 77
    0
 78
    8
 79
    0
170
    0
171
    2
172
    0
173
    0
174
    0
175
    0
176
    0
177
    0
178
    0
179
    0
271
    2
272
    4
273
    2
274
    2
275
    0
276
    0
277
    2
278
   44
279
    0
280
    0
281
    0
282
    0
283
    1
284
    0
285
    0
286
    0
288
    0
289
    3
340
STANDARD
341

371
   -2
372
   -2
  0
ENDTAB
  0
TABLE
  2
BLOCK_RECORD
  5
1
330
0
100
AcDbSymbolTable
 70
    2
  0
BLOCK_RECORD
  5
1F
330
1
100
AcDbSymbolTableRecord
100
AcDbBlockTableRecord
  2
*Model_Space
 70
    0
280
    1
281
    0
  0
BLOCK_RECORD
  5
1E
330
1
100
AcDbSymbolTableRecord
100
AcDbBlockTableRecord
  2
*Paper_Space
 70
    0
280
    1
281
    0
  0
BLOCK_RECORD
  5
4F
330
1
100
AcDbSymbolTableRecord
100
AcDbBlockTableRecord
  2
*D18
 70
    0
280
    1
281
    0
  0
BLOCK_RECORD
  5
52
330
1
100
AcDbSymbolTableRecord
100
AcDbBlockTableRecord
  2
*D16
 70
    0
280
    1
281
    0
  0
BLOCK_RECORD
  5
55
330
1
100
AcDbSymbolTableRecord
100
AcDbBlockTableRecord
  2
*D17
 70
    0
280
    1
281
    0
  0
BLOCK_RECORD
  5
58
330
1
100
AcDbSymbolTableRecord
100
AcDbBlockTableRecord
  2
*D36
 70
    0
280
    1
281
    0
  0
BLOCK_RECORD
  5
5B
330
1
100
AcDbSymbolTableRecord
100
AcDbBlockTableRecord
  2
*D9
 70
    0
280
    1
281
    0
  0
BLOCK_RECORD
  5
5E
330
1
100
AcDbSymbolTableRecord
100
AcDbBlockTableRecord
  2
*D38
 70
    0
280
    1
281
    0
  0
BLOCK_RECORD
  5
61
330
1
100
AcDbSymbolTableRecord
100
AcDbBlockTableRecord
  2
*D19
 70
    0
280
    1
281
    0
  0
BLOCK_RECORD
  5
64
330
1
100
AcDbSymbolTableRecord
100
AcDbBlockTableRecord
  2
*D28
 70
    0
280
    1
281
    0
  0
BLOCK_RECORD
  5
67
330
1
100
AcDbSymbolTableRecord
100
AcDbBlockTableRecord
  2
*D13
 70
    0
280
    1
281
    0
  0
BLOCK_RECORD
  5
6A
330
1
100
AcDbSymbolTableRecord
100
AcDbBlockTableRecord
  2
*D39
 70
    0
280
    1
281
    0
  0
BLOCK_RECORD
  5
6D
330
1
100
AcDbSymbolTableRecord
100
AcDbBlockTableRecord
  2
*D21
 70
    0
280
    1
281
    0
  0
BLOCK_RECORD
  5
70
330
1
100
AcDbSymbolTableRecord
100
AcDbBlockTableRecord
  2
*D34
 70
    0
280
    1
281
    0
  0
BLOCK_RECORD
  5
73
330
1
100
AcDbSymbolTableRecord
100
AcDbBlockTableRecord
  2
*D10
 70
    0
280
    1
281
    0
  0
BLOCK_RECORD
  5
76
330
1
100
AcDbSymbolTableRecord
100
AcDbBlockTableRecord
  2
*D23
 70
    0
280
    1
281
    0
  0
BLOCK_RECORD
  5
79
330
1
100
AcDbSymbolTableRecord
100
AcDbBlockTableRecord
  2
*D20
 70
    0
280
    1
281
    0
  0
BLOCK_RECORD
  5
7C
330
1
100
AcDbSymbolTableRecord
100
AcDbBlockTableRecord
  2
*D26
 70
    0
280
    1
281
    0
  0
BLOCK_RECORD
  5
7F
330
1
100
AcDbSymbolTableRecord
100
AcDbBlockTableRecord
  2
*D7
 70
    0
280
    1
281
    0
  0
BLOCK_RECORD
  5
82
330
1
100
AcDbSymbolTableRecord
100
AcDbBlockTableRecord
  2
*D6
 70
    0
280
    1
281
    0
  0
BLOCK_RECORD
  5
85
330
1
100
AcDbSymbolTableRecord
100
AcDbBlockTableRecord
  2
*D32
 70
    0
280
    1
281
    0
  0
BLOCK_RECORD
  5
88
330
1
100
AcDbSymbolTableRecord
100
AcDbBlockTableRecord
  2
*D3
 70
    0
280
    1
281
    0
  0
BLOCK_RECORD
  5
8B
330
1
100
AcDbSymbolTableRecord
100
AcDbBlockTableRecord
  2
*D27
 70
    0
280
    1
281
    0
  0
BLOCK_RECORD
  5
8E
330
1
100
AcDbSymbolTableRecord
100
AcDbBlockTableRecord
  2
*D31
 70
    0
280
    1
281
    0
  0
BLOCK_RECORD
  5
91
330
1
100
AcDbSymbolTableRecord
100
AcDbBlockTableRecord
  2
*D35
 70
    0
280
    1
281
    0
  0
BLOCK_RECORD
  5
94
330
1
100
AcDbSymbolTableRecord
100
AcDbBlockTableRecord
  2
*D2
 70
    0
280
    1
281
    0
  0
BLOCK_RECORD
  5
97
330
1
100
AcDbSymbolTableRecord
100
AcDbBlockTableRecord
  2
*D5
 70
    0
280
    1
281
    0
  0
BLOCK_RECORD
  5
9A
330
1
100
AcDbSymbolTableRecord
100
AcDbBlockTableRecord
  2
*D24
 70
    0
280
    1
281
    0
  0
BLOCK_RECORD
  5
9D
330
1
100
AcDbSymbolTableRecord
100
AcDbBlockTableRecord
  2
*D12
 70
    0
280
    1
281
    0
  0
BLOCK_RECORD
  5
A0
330
1
100
AcDbSymbolTableRecord
100
AcDbBlockTableRecord
  2
*D30
 70
    0
280
    1
281
    0
  0
BLOCK_RECORD
  5
A3
330
1
100
AcDbSymbolTableRecord
100
AcDbBlockTableRecord
  2
*D8
 70
    0
280
    1
281
    0
  0
BLOCK_RECORD
  5
A6
330
1
100
AcDbSymbolTableRecord
100
AcDbBlockTableRecord
  2
*D11
 70
    0
280
    1
281
    0
  0
BLOCK_RECORD
  5
A9
330
1
100
AcDbSymbolTableRecord
100
AcDbBlockTableRecord
  2
*D25
 70
    0
280
    1
281
    0
  0
BLOCK_RECORD
  5
AC
330
1
100
AcDbSymbolTableRecord
100
AcDbBlockTableRecord
  2
*D1
 70
    0
280
    1
281
    0
  0
BLOCK_RECORD
  5
AF
330
1
100
AcDbSymbolTableRecord
100
AcDbBlockTableRecord
  2
*D29
 70
    0
280
    1
281
    0
  0
BLOCK_RECORD
  5
B2
330
1
100
AcDbSymbolTableRecord
100
AcDbBlockTableRecord
  2
*D4
 70
    0
280
    1
281
    0
  0
BLOCK_RECORD
  5
B5
330
1
100
AcDbSymbolTableRecord
100
AcDbBlockTableRecord
  2
*D15
 70
    0
280
    1
281
    0
  0
BLOCK_RECORD
  5
B8
330
1
100
AcDbSymbolTableRecord
100
AcDbBlockTableRecord
  2
*D22
 70
    0
280
    1
281
    0
  0
BLOCK_RECORD
  5
BB
330
1
100
AcDbSymbolTableRecord
100
AcDbBlockTableRecord
  2
*D33
 70
    0
280
    1
281
    0
  0
BLOCK_RECORD
  5
BE
330
1
100
AcDbSymbolTableRecord
100
AcDbBlockTableRecord
  2
*D37
 70
    0
280
    1
281
    0
  0
BLOCK_RECORD
  5
C1
330
1
100
AcDbSymbolTableRecord
100
AcDbBlockTableRecord
  2
*D14
 70
    0
280
    1
281
    0
  0
ENDTAB
  0
ENDSEC
  0
SECTION
  2
BLOCKS
  0
BLOCK
  5
20
330
1F
100
AcDbEntity
  8
0
100
AcDbBlockBegin
  2
*Model_Space
 70
    0
 10
0
 20
0
 30
0
  3
*Model_Space
  1

  0
ENDBLK
  5
21
330
1F
100
AcDbEntity
  8
0
100
AcDbBlockEnd
  0
BLOCK
  5
1C
330
1B
100
AcDbEntity
  8
0
100
AcDbBlockBegin
  2
*Paper_Space
 70
    0
 10
0
 20
0
 30
0
  3
*Paper_Space
  1

  0
ENDBLK
  5
1D
330
1F
100
AcDbEntity
  8
0
100
AcDbBlockEnd
  0
BLOCK
  5
50
330
4F
100
AcDbEntity
  8
0
100
AcDbBlockBegin
  2
*D18
 70
    1
 10
0
 20
0
  3
*D18
  1

  0
LINE
  5
C4
100
AcDbEntity
  8
measures
  6
ByBlock
 62
    0
370
   -2
100
AcDbLine
 10
189.3376053463729
 20
476.9115262811251
 11
170.7230772875422
 21
480.0139476242696
  0
LINE
  5
C5
100
AcDbEntity
  8
measures
  6
ByBlock
 62
    0
370
   -2
100
AcDbLine
 10
187.0360195240985
 20
463.1020113475054
 11
168.4214914652678
 21
466.2044326906499
  0
LINE
  5
C6
100
AcDbEntity
  8
measures
  6
ByBlock
 62
    0
370
   -2
100
AcDbLine
 10
171.9560696923323
 20
479.8084488901375
 11
169.6544838700579
 21
465.9989339565178
  0
MTEXT
  5
C7
100
AcDbEntity
  8
measures
  6
CONTINUOUS
 62
    0
370
   -2
100
AcDbMText
 10
168.9557881740099
 20
473.2119395245257
 30
0
 40
2.5
 41
2.777777777777778
 71
    5
 72
    1
  1
14
  7
STANDARD
210
0
220
0
230
1
 50
80.53767779195641
 73
    2
 44
1
  0
SOLID
  5
C8
100
AcDbEntity
  8
measures
  6
ByBlock
 62
    0
370
   -2
100
AcDbTrace
 10
171.9560696923323
 20
479.8084488901375
 30
0
 11
171.9556928810798
 21
477.2740273043885
 31
0
 12
171.1344515670565
 22
477.410900856726
 32
0
 13
171.1344515670565
 23
477.410900856726
 33
0
  0
SOLID
  5
C9
100
AcDbEntity
  8
measures
  6
ByBlock
 62
    0
370
   -2
100
AcDbTrace
 10
169.6544838700579
 20
465.9989339565178
 30
0
 11
169.6548606813104
 21
468.5333555422667
 31
0
 12
170.4761019953337
 22
468.3964819899293
 32
0
 13
170.4761019953337
 23
468.3964819899293
 33
0
  0
ENDBLK
  5
51
330
4F
100
AcDbEntity
  8
0
100
AcDbBlockEnd
  0
BLOCK
  5
53
330
52
100
AcDbEntity
  8
0
100
AcDbBlockBegin
  2
*D16
 70
    1
 10
0
 20
0
  3
*D16
  1

  0
LINE
  5
CA
100
AcDbEntity
  8
measures
  6
ByBlock
 62
    0
370
   -2
100
AcDbLine
 10
195.2026861907797
 20
512.1020113474975
 11
176.9697342284271
 21
515.1408366745625
  0
LINE
  5
CB
100
AcDbEntity
  8
measures
  6
ByBlock
 62
    0
370
   -2
100
AcDbLine
 10
193.7230953050289
 20
503.2244660330105
 11
175.4901433426763
 21
506.2632913600753
  0
LINE
  5
CC
100
AcDbEntity
  8
measures
  6
ByBlock
 62
    0
370
   -2
100
AcDbLine
 10
178.2027266332172
 20
514.9353379404304
 11
176.7231357474664
 21
506.0577926259432
  0
MTEXT
  5
CD
100
AcDbEntity
  8
measures
  6
CONTINUOUS
 62
    0
370
   -2
100
AcDbMText
 10
175.6134425831566
 20
510.8048133843848
 30
0
 40
2.5
 41
1.111111111111266
 71
    5
 72
    1
  1
9
  7
STANDARD
210
0
220
0
230
1
 50
80.5376777919559
 73
    2
 44
1
  0
SOLID
  5
CE
100
AcDbEntity
  8
measures
  6
ByBlock
 62
    0
370
   -2
100
AcDbTrace
 10
178.2027266332172
 20
514.9353379404304
 30
0
 11
178.2023498219646
 21
512.4009163546814
 31
0
 12
177.3811085079413
 22
512.5377899070189
 32
0
 13
177.3811085079413
 23
512.5377899070189
 33
0
  0
SOLID
  5
CF
100
AcDbEntity
  8
measures
  6
ByBlock
 62
    0
370
   -2
100
AcDbTrace
 10
176.7231357474664
 20
506.0577926259432
 30
0
 11
176.7235125587189
 21
508.5922142116922
 31
0
 12
177.5447538727422
 22
508.4553406593546
 32
0
 13
177.5447538727422
 23
508.4553406593546
 33
0
  0
ENDBLK
  5
54
330
52
100
AcDbEntity
  8
0
100
AcDbBlockEnd
  0
BLOCK
  5
56
330
55
100
AcDbEntity
  8
0
100
AcDbBlockBegin
  2
*D17
 70
    1
 10
0
 20
0
  3
*D17
  1

  0
LINE
  5
D0
100
AcDbEntity
  8
measures
  6
ByBlock
 62
    0
370
   -2
100
AcDbLine
 10
193.7230953050289
 20
503.2244660330105
 11
175.1335862578979
 21
506.3227175408716
  0
LINE
  5
D1
100
AcDbEntity
  8
measures
  6
ByBlock
 62
    0
370
   -2
100
AcDbLine
 10
189.3376053463729
 20
476.9115262811251
 11
170.7480962992419
 21
480.0097777889862
  0
LINE
  5
D2
100
AcDbEntity
  8
measures
  6
ByBlock
 62
    0
370
   -2
100
AcDbLine
 10
176.366578662688
 20
506.1172188067395
 11
171.981088704032
 21
479.8042790548541
  0
MTEXT
  5
D3
100
AcDbEntity
  8
measures
  6
CONTINUOUS
 62
    0
370
   -2
100
AcDbMText
 10
172.3243450761749
 20
493.268997031995
 30
0
 40
2.5
 41
7.916666666666978
 71
    5
 72
    1
  1
26,68
  7
STANDARD
210
0
220
0
230
1
 50
80.53767779195651
 73
    2
 44
1
  0
SOLID
  5
D4
100
AcDbEntity
  8
measures
  6
ByBlock
 62
    0
370
   -2
100
AcDbTrace
 10
176.366578662688
 20
506.1172188067395
 30
0
 11
176.3662018514355
 21
503.5827972209905
 31
0
 12
175.5449605374122
 22
503.719670773328
 32
0
 13
175.5449605374122
 23
503.719670773328
 33
0
  0
SOLID
  5
D5
100
AcDbEntity
  8
measures
  6
ByBlock
 62
    0
370
   -2
100
AcDbTrace
 10
171.981088704032
 20
479.8042790548541
 30
0
 11
171.9814655152845
 21
482.3387006406031
 31
0
 12
172.8027068293078
 22
482.2018270882656
 32
0
 13
172.8027068293078
 23
482.2018270882656
 33
0
  0
ENDBLK
  5
57
330
55
100
AcDbEntity
  8
0
100
AcDbBlockEnd
  0
BLOCK
  5
59
330
58
100
AcDbEntity
  8
0
100
AcDbBlockBegin
  2
*D36
 70
    1
 10
0
 20
0
  3
*D36
  1

  0
LINE
  5
D6
100
AcDbEntity
  8
measures
  6
ByBlock
 62
    0
370
   -2
100
AcDbLine
 10
188.6197165931811
 20
328.7360428530537
 11
176.1138770574578
 21
330.865403589737
  0
LINE
  5
D7
100
AcDbEntity
  8
measures
  6
ByBlock
 62
    0
370
   -2
100
AcDbLine
 10
176.5230161362531
 20
257.6915306574878
 11
164.0171766005298
 21
259.820891394171
  0
LINE
  5
D8
100
AcDbEntity
  8
measures
  6
ByBlock
 62
    0
370
   -2
100
AcDbLine
 10
177.3461419906997
 20
330.6555866831197
 11
165.2494415337717
 21
259.6110744875538
  0
MTEXT
  5
D9
100
AcDbEntity
  8
measures
  6
CONTINUOUS
 62
    0
370
   -2
100
AcDbMText
 10
169.449394362373
 20
295.4480559452626
 30
0
 40
2.5
 41
7.916666666666667
 71
    5
 72
    1
  1
72,07
  7
STANDARD
210
0
220
0
230
1
 50
80.33695813339676
 73
    2
 44
1
  0
SOLID
  5
DA
100
AcDbEntity
  8
measures
  6
ByBlock
 62
    0
370
   -2
100
AcDbTrace
 10
177.3461419906997
 20
330.6555866831197
 30
0
 11
177.3368865662813
 21
328.1211819693031
 31
0
 12
176.5161297886492
 22
328.2609316639689
 32
0
 13
176.5161297886492
 23
328.2609316639689
 33
0
  0
SOLID
  5
DB
100
AcDbEntity
  8
measures
  6
ByBlock
 62
    0
370
   -2
100
AcDbTrace
 10
165.2494415337717
 20
259.6110744875538
 30
0
 11
165.2586969581901
 21
262.1454792013704
 31
0
 12
166.0794537358222
 22
262.0057295067047
 32
0
 13
166.0794537358222
 23
262.0057295067047
 33
0
  0
ENDBLK
  5
5A
330
58
100
AcDbEntity
  8
0
100
AcDbBlockEnd
  0
BLOCK
  5
5C
330
5B
100
AcDbEntity
  8
0
100
AcDbBlockBegin
  2
*D9
 70
    1
 10
0
 20
0
  3
*D9
  1

  0
LINE
  5
DC
100
AcDbEntity
  8
measures
  6
ByBlock
 62
    0
370
   -2
100
AcDbLine
 10
345.0552190758492
 20
343.728614762019
 11
345.0552190758492
 21
388.7286147620185
  0
MTEXT
  5
DD
100
AcDbEntity
  8
measures
  6
CONTINUOUS
 62
    0
370
   -2
100
AcDbMText
 10
343.1802190758492
 20
366.2286147620188
 30
0
 40
2.5
 41
3.333333333333488
 71
    5
 72
    1
  1
45
  7
STANDARD
210
0
220
0
230
1
 50
90
 73
    2
 44
1
  0
SOLID
  5
DE
100
AcDbEntity
  8
measures
  6
ByBlock
 62
    0
370
   -2
100
AcDbTrace
 10
345.0552190758492
 20
343.728614762019
 30
0
 11
344.6389344180764
 21
346.228614762019
 31
0
 12
345.4715037336221
 22
346.228614762019
 32
0
 13
345.4715037336221
 23
346.228614762019
 33
0
  0
SOLID
  5
DF
100
AcDbEntity
  8
measures
  6
ByBlock
 62
    0
370
   -2
100
AcDbTrace
 10
345.0552190758492
 20
388.7286147620185
 30
0
 11
345.4715037336221
 21
386.2286147620185
 31
0
 12
344.6389344180764
 22
386.2286147620185
 32
0
 13
344.6389344180764
 23
386.2286147620185
 33
0
  0
LINE
  5
E0
100
AcDbEntity
  8
measures
  6
ByBlock
 62
    0
370
   -2
100
AcDbLine
 10
319.8608490598018
 20
343.728614762019
 11
346.3052190758492
 21
343.728614762019
  0
LINE
  5
E1
100
AcDbEntity
  8
measures
  6
ByBlock
 62
    0
370
   -2
100
AcDbLine
 10
319.8608490598018
 20
388.7286147620185
 11
346.3052190758492
 21
388.7286147620185
  0
ENDBLK
  5
5D
330
5B
100
AcDbEntity
  8
0
100
AcDbBlockEnd
  0
BLOCK
  5
5F
330
5E
100
AcDbEntity
  8
0
100
AcDbBlockBegin
  2
*D38
 70
    1
 10
0
 20
0
  3
*D38
  1

  0
LINE
  5
E2
100
AcDbEntity
  8
measures
  6
ByBlock
 62
    0
370
   -2
100
AcDbLine
 10
134.0002922203944
 20
329.8980860676392
 11
145.408954667549
 21
331.5008765210186
  0
LINE
  5
E3
100
AcDbEntity
  8
measures
  6
ByBlock
 62
    0
370
   -2
100
AcDbLine
 10
144.0002922203945
 20
258.7180860676393
 11
155.408954667549
 21
260.3208765210187
  0
LINE
  5
E4
100
AcDbEntity
  8
measures
  6
ByBlock
 62
    0
370
   -2
100
AcDbLine
 10
144.1711107235049
 20
331.326973185244
 11
154.171110723505
 21
260.1469731852441
  0
MTEXT
  5
E5
100
AcDbEntity
  8
measures
  6
CONTINUOUS
 62
    0
370
   -2
100
AcDbMText
 10
151.027876639571
 20
295.997828188906
 30
0
 40
2.5
 41
7.361111111111112
 71
    5
 72
    1
  1
71,88
  7
STANDARD
210
0
220
0
230
1
 50
277.997082052826
 73
    2
 44
1
  0
SOLID
  5
E6
100
AcDbEntity
  8
measures
  6
ByBlock
 62
    0
370
   -2
100
AcDbTrace
 10
144.1711107235049
 20
331.326973185244
 30
0
 11
144.9311537491523
 21
328.9091999296508
 31
0
 12
144.1066810409562
 22
328.7933706646611
 32
0
 13
144.1066810409562
 23
328.7933706646611
 33
0
  0
SOLID
  5
E7
100
AcDbEntity
  8
measures
  6
ByBlock
 62
    0
370
   -2
100
AcDbTrace
 10
154.171110723505
 20
260.1469731852441
 30
0
 11
153.4110676978577
 21
262.5647464408373
 31
0
 12
154.2355404060537
 22
262.6805757058269
 32
0
 13
154.2355404060537
 23
262.6805757058269
 33
0
  0
ENDBLK
  5
60
330
5E
100
AcDbEntity
  8
0
100
AcDbBlockEnd
  0
BLOCK
  5
62
330
61
100
AcDbEntity
  8
0
100
AcDbBlockBegin
  2
*D19
 70
    1
 10
0
 20
0
  3
*D19
  1

  0
LINE
  5
E8
100
AcDbEntity
  8
measures
  6
ByBlock
 62
    0
370
   -2
100
AcDbLine
 10
187.9858490598516
 20
706.0153532638512
 11
320.4858490586269
 21
706.0153532638512
  0
MTEXT
  5
E9
100
AcDbEntity
  8
measures
  6
CONTINUOUS
 62
    0
370
   -2
100
AcDbMText
 10
254.2358490592392
 20
707.8903532638512
 30
0
 40
2.5
 41
7.361111111111422
 71
    5
 72
    1
  1
132,5
  7
STANDARD
210
0
220
0
230
1
 50
0
 73
    2
 44
1
  0
SOLID
  5
EA
100
AcDbEntity
  8
measures
  6
ByBlock
 62
    0
370
   -2
100
AcDbTrace
 10
187.9858490598516
 20
706.0153532638512
 30
0
 11
190.4858490598516
 21
706.4316379216241
 31
0
 12
190.4858490598516
 22
705.5990686060784
 32
0
 13
190.4858490598516
 23
705.5990686060784
 33
0
  0
SOLID
  5
EB
100
AcDbEntity
  8
measures
  6
ByBlock
 62
    0
370
   -2
100
AcDbTrace
 10
320.4858490586269
 20
706.0153532638512
 30
0
 11
317.9858490586269
 21
705.5990686060784
 31
0
 12
317.9858490586269
 22
706.4316379216241
 32
0
 13
317.9858490586269
 23
706.4316379216241
 33
0
  0
LINE
  5
EC
100
AcDbEntity
  8
measures
  6
ByBlock
 62
    0
370
   -2
100
AcDbLine
 10
187.9858490598516
 20
694.374582072638
 11
187.9858490598516
 21
707.2653532638512
  0
LINE
  5
ED
100
AcDbEntity
  8
measures
  6
ByBlock
 62
    0
370
   -2
100
AcDbLine
 10
320.4858490586269
 20
694.3745820796792
 11
320.4858490586269
 21
707.2653532638512
  0
ENDBLK
  5
63
330
61
100
AcDbEntity
  8
0
100
AcDbBlockEnd
  0
BLOCK
  5
65
330
64
100
AcDbEntity
  8
0
100
AcDbBlockBegin
  2
*D28
 70
    1
 10
0
 20
0
  3
*D28
  1

  0
LINE
  5
EE
100
AcDbEntity
  8
measures
  6
ByBlock
 62
    0
370
   -2
100
AcDbLine
 10
174.235849059801
 20
122.1961757134592
 11
334.2358490598037
 21
122.1961757134592
  0
MTEXT
  5
EF
100
AcDbEntity
  8
measures
  6
CONTINUOUS
 62
    0
370
   -2
100
AcDbMText
 10
254.2358490598023
 20
124.0711757134592
 30
0
 40
2.5
 41
4.444444444444599
 71
    5
 72
    1
  1
160
  7
STANDARD
210
0
220
0
230
1
 50
0
 73
    2
 44
1
  0
SOLID
  5
F0
100
AcDbEntity
  8
measures
  6
ByBlock
 62
    0
370
   -2
100
AcDbTrace
 10
174.235849059801
 20
122.1961757134592
 30
0
 11
176.735849059801
 21
122.612460371232
 31
0
 12
176.735849059801
 22
121.7798910556864
 32
0
 13
176.735849059801
 23
121.7798910556864
 33
0
  0
SOLID
  5
F1
100
AcDbEntity
  8
measures
  6
ByBlock
 62
    0
370
   -2
100
AcDbTrace
 10
334.2358490598037
 20
122.1961757134592
 30
0
 11
331.7358490598037
 21
121.7798910556864
 31
0
 12
331.7358490598037
 22
122.612460371232
 32
0
 13
331.7358490598037
 23
122.612460371232
 33
0
  0
LINE
  5
F2
100
AcDbEntity
  8
measures
  6
ByBlock
 62
    0
370
   -2
100
AcDbLine
 10
174.235849059801
 20
133.0647338882236
 11
174.235849059801
 21
120.9461757134592
  0
LINE
  5
F3
100
AcDbEntity
  8
measures
  6
ByBlock
 62
    0
370
   -2
100
AcDbLine
 10
334.2358490598037
 20
133.0647338882238
 11
334.2358490598037
 21
120.9461757134592
  0
ENDBLK
  5
66
330
64
100
AcDbEntity
  8
0
100
AcDbBlockEnd
  0
BLOCK
  5
68
330
67
100
AcDbEntity
  8
0
100
AcDbBlockBegin
  2
*D13
 70
    1
 10
0
 20
0
  3
*D13
  1

  0
LINE
  5
F4
100
AcDbEntity
  8
measures
  6
ByBlock
 62
    0
370
   -2
100
AcDbLine
 10
79.07750161743374
 20
324.911134399752
 11
79.07750161743374
 21
233.6311343997519
  0
MTEXT
  5
F5
100
AcDbEntity
  8
measures
  6
CONTINUOUS
 62
    0
370
   -2
100
AcDbMText
 10
77.20250161743375
 20
279.271134399752
 30
0
 40
2.5
 41
7.361111111111266
 71
    5
 72
    1
  1
91,28
  7
STANDARD
210
0
220
0
230
1
 50
90
 73
    2
 44
1
  0
SOLID
  5
F6
100
AcDbEntity
  8
measures
  6
ByBlock
 62
    0
370
   -2
100
AcDbTrace
 10
79.07750161743374
 20
324.911134399752
 30
0
 11
79.49378627520657
 21
322.411134399752
 31
0
 12
78.6612169596609
 22
322.411134399752
 32
0
 13
78.6612169596609
 23
322.411134399752
 33
0
  0
SOLID
  5
F7
100
AcDbEntity
  8
measures
  6
ByBlock
 62
    0
370
   -2
100
AcDbTrace
 10
79.07750161743374
 20
233.6311343997519
 30
0
 11
78.6612169596609
 21
236.1311343997519
 31
0
 12
79.49378627520657
 22
236.1311343997519
 32
0
 13
79.49378627520657
 23
236.1311343997519
 33
0
  0
LINE
  5
F8
100
AcDbEntity
  8
measures
  6
ByBlock
 62
    0
370
   -2
100
AcDbLine
 10
87.75637024837181
 20
324.911134399752
 11
77.82750161743374
 21
324.911134399752
  0
LINE
  5
F9
100
AcDbEntity
  8
measures
  6
ByBlock
 62
    0
370
   -2
100
AcDbLine
 10
87.75637024837187
 20
233.6311343997519
 11
77.82750161743374
 21
233.6311343997519
  0
ENDBLK
  5
69
330
67
100
AcDbEntity
  8
0
100
AcDbBlockEnd
  0
BLOCK
  5
6B
330
6A
100
AcDbEntity
  8
0
100
AcDbBlockBegin
  2
*D39
 70
    1
 10
0
 20
0
  3
*D39
  1

  0
LINE
  5
FA
100
AcDbEntity
  8
measures
  6
ByBlock
 62
    0
370
   -2
100
AcDbLine
 10
360.8805640112919
 20
329.8111343997519
 11
360.8805640112919
 21
258.631134399752
  0
MTEXT
  5
FB
100
AcDbEntity
  8
measures
  6
CONTINUOUS
 62
    0
370
   -2
100
AcDbMText
 10
359.0055640112919
 20
294.221134399752
 30
0
 40
2.5
 41
6.805555555555556
 71
    5
 72
    1
  1
71,18
  7
STANDARD
210
0
220
0
230
1
 50
90
 73
    2
 44
1
  0
SOLID
  5
FC
100
AcDbEntity
  8
measures
  6
ByBlock
 62
    0
370
   -2
100
AcDbTrace
 10
360.8805640112919
 20
329.8111343997519
 30
0
 11
361.2968486690647
 21
327.3111343997519
 31
0
 12
360.464279353519
 22
327.3111343997519
 32
0
 13
360.464279353519
 23
327.3111343997519
 33
0
  0
SOLID
  5
FD
100
AcDbEntity
  8
measures
  6
ByBlock
 62
    0
370
   -2
100
AcDbTrace
 10
360.8805640112919
 20
258.631134399752
 30
0
 11
360.464279353519
 21
261.131134399752
 31
0
 12
361.2968486690647
 22
261.131134399752
 32
0
 13
361.2968486690647
 23
261.131134399752
 33
0
  0
LINE
  5
FE
100
AcDbEntity
  8
measures
  6
ByBlock
 62
    0
370
   -2
100
AcDbLine
 10
379.8961187578205
 20
329.8111343997519
 11
359.6305640112919
 21
329.8111343997519
  0
LINE
  5
FF
100
AcDbEntity
  8
measures
  6
ByBlock
 62
    0
370
   -2
100
AcDbLine
 10
369.8961187578221
 20
258.631134399752
 11
359.6305640112919
 21
258.631134399752
  0
ENDBLK
  5
6C
330
6A
100
AcDbEntity
  8
0
100
AcDbBlockEnd
  0
BLOCK
  5
6E
330
6D
100
AcDbEntity
  8
0
100
AcDbBlockBegin
  2
*D21
 70
    1
 10
0
 20
0
  3
*D21
  1

  0
LINE
  5
100
100
AcDbEntity
  8
measures
  6
ByBlock
 62
    0
370
   -2
100
AcDbLine
 10
190.5599497028361
 20
424.9251826570872
 11
317.9117484165433
 21
424.9251826570872
  0
MTEXT
  5
101
100
AcDbEntity
  8
measures
  6
CONTINUOUS
 62
    0
370
   -2
100
AcDbMText
 10
254.2358490596897
 20
426.8001826570872
 30
0
 40
2.5
 41
9.305555555555866
 71
    5
 72
    1
  1
127,35
  7
STANDARD
210
0
220
0
230
1
 50
0
 73
    2
 44
1
  0
SOLID
  5
102
100
AcDbEntity
  8
measures
  6
ByBlock
 62
    0
370
   -2
100
AcDbTrace
 10
190.5599497028361
 20
424.9251826570872
 30
0
 11
193.0599497028361
 21
425.34146731486
 31
0
 12
193.0599497028361
 22
424.5088979993143
 32
0
 13
193.0599497028361
 23
424.5088979993143
 33
0
  0
SOLID
  5
103
100
AcDbEntity
  8
measures
  6
ByBlock
 62
    0
370
   -2
100
AcDbTrace
 10
317.9117484165433
 20
424.9251826570872
 30
0
 11
315.4117484165433
 21
424.5088979993143
 31
0
 12
315.4117484165433
 22
425.34146731486
 32
0
 13
315.4117484165433
 23
425.34146731486
 33
0
  0
LINE
  5
104
100
AcDbEntity
  8
measures
  6
ByBlock
 62
    0
370
   -2
100
AcDbLine
 10
190.5599497028361
 20
455.8663482458828
 11
190.5599497028361
 21
423.6751826570872
  0
LINE
  5
105
100
AcDbEntity
  8
measures
  6
ByBlock
 62
    0
370
   -2
100
AcDbLine
 10
317.9117484165433
 20
455.8663482459178
 11
317.9117484165433
 21
423.6751826570872
  0
ENDBLK
  5
6F
330
6D
100
AcDbEntity
  8
0
100
AcDbBlockEnd
  0
BLOCK
  5
71
330
70
100
AcDbEntity
  8
0
100
AcDbBlockBegin
  2
*D34
 70
    1
 10
0
 20
0
  3
*D34
  1

  0
LINE
  5
106
100
AcDbEntity
  8
measures
  6
ByBlock
 62
    0
370
   -2
100
AcDbLine
 10
344.802513055594
 20
313.6311343997473
 11
344.802513055594
 21
276.6311343997482
  0
MTEXT
  5
107
100
AcDbEntity
  8
measures
  6
CONTINUOUS
 62
    0
370
   -2
100
AcDbMText
 10
342.927513055594
 20
295.1311343997477
 30
0
 40
2.5
 41
3.055555555555711
 71
    5
 72
    1
  1
37
  7
STANDARD
210
0
220
0
230
1
 50
90
 73
    2
 44
1
  0
SOLID
  5
108
100
AcDbEntity
  8
measures
  6
ByBlock
 62
    0
370
   -2
100
AcDbTrace
 10
344.802513055594
 20
313.6311343997473
 30
0
 11
345.2187977133668
 21
311.1311343997473
 31
0
 12
344.3862283978211
 22
311.1311343997473
 32
0
 13
344.3862283978211
 23
311.1311343997473
 33
0
  0
SOLID
  5
109
100
AcDbEntity
  8
measures
  6
ByBlock
 62
    0
370
   -2
100
AcDbTrace
 10
344.802513055594
 20
276.6311343997482
 30
0
 11
344.3862283978211
 21
279.1311343997482
 31
0
 12
345.2187977133668
 22
279.1311343997482
 32
0
 13
345.2187977133668
 23
279.1311343997482
 33
0
  0
LINE
  5
10A
100
AcDbEntity
  8
measures
  6
ByBlock
 62
    0
370
   -2
100
AcDbLine
 10
254.8608490598016
 20
313.6311343997473
 11
346.052513055594
 21
313.6311343997473
  0
LINE
  5
10B
100
AcDbEntity
  8
measures
  6
ByBlock
 62
    0
370
   -2
100
AcDbLine
 10
254.8608490598016
 20
276.6311343997482
 11
346.052513055594
 21
276.6311343997482
  0
ENDBLK
  5
72
330
70
100
AcDbEntity
  8
0
100
AcDbBlockEnd
  0
BLOCK
  5
74
330
73
100
AcDbEntity
  8
0
100
AcDbBlockBegin
  2
*D10
 70
    1
 10
0
 20
0
  3
*D10
  1

  0
LINE
  5
10C
100
AcDbEntity
  8
measures
  6
ByBlock
 62
    0
370
   -2
100
AcDbLine
 10
189.235849059802
 20
397.1751826570545
 11
319.2358490598018
 21
397.1751826570545
  0
MTEXT
  5
10D
100
AcDbEntity
  8
measures
  6
CONTINUOUS
 62
    0
370
   -2
100
AcDbMText
 10
254.2358490598019
 20
399.0501826570545
 30
0
 40
2.5
 41
4.444444444444599
 71
    5
 72
    1
  1
130
  7
STANDARD
210
0
220
0
230
1
 50
0
 73
    2
 44
1
  0
SOLID
  5
10E
100
AcDbEntity
  8
measures
  6
ByBlock
 62
    0
370
   -2
100
AcDbTrace
 10
189.235849059802
 20
397.1751826570545
 30
0
 11
191.735849059802
 21
397.5914673148274
 31
0
 12
191.735849059802
 22
396.7588979992817
 32
0
 13
191.735849059802
 23
396.7588979992817
 33
0
  0
SOLID
  5
10F
100
AcDbEntity
  8
measures
  6
ByBlock
 62
    0
370
   -2
100
AcDbTrace
 10
319.2358490598018
 20
397.1751826570545
 30
0
 11
316.7358490598018
 21
396.7588979992817
 31
0
 12
316.7358490598018
 22
397.5914673148274
 32
0
 13
316.7358490598018
 23
397.5914673148274
 33
0
  0
LINE
  5
110
100
AcDbEntity
  8
measures
  6
ByBlock
 62
    0
370
   -2
100
AcDbLine
 10
189.235849059802
 20
389.3536147620185
 11
189.235849059802
 21
398.4251826570545
  0
LINE
  5
111
100
AcDbEntity
  8
measures
  6
ByBlock
 62
    0
370
   -2
100
AcDbLine
 10
319.2358490598018
 20
389.3536147620185
 11
319.2358490598018
 21
398.4251826570545
  0
ENDBLK
  5
75
330
73
100
AcDbEntity
  8
0
100
AcDbBlockEnd
  0
BLOCK
  5
77
330
76
100
AcDbEntity
  8
0
100
AcDbBlockBegin
  2
*D23
 70
    1
 10
0
 20
0
  3
*D23
  1

  0
LINE
  5
112
100
AcDbEntity
  8
measures
  6
ByBlock
 62
    0
370
   -2
100
AcDbLine
 10
351.9787297726822
 20
631.7495820726442
 11
351.9787297726822
 21
658.749582072643
  0
MTEXT
  5
113
100
AcDbEntity
  8
measures
  6
CONTINUOUS
 62
    0
370
   -2
100
AcDbMText
 10
350.1037297726822
 20
645.2495820726435
 30
0
 40
2.5
 41
3.055555555555556
 71
    5
 72
    1
  1
27
  7
STANDARD
210
0
220
0
230
1
 50
90
 73
    2
 44
1
  0
SOLID
  5
114
100
AcDbEntity
  8
measures
  6
ByBlock
 62
    0
370
   -2
100
AcDbTrace
 10
351.9787297726822
 20
631.7495820726442
 30
0
 11
351.5624451149093
 21
634.2495820726442
 31
0
 12
352.395014430455
 22
634.2495820726442
 32
0
 13
352.395014430455
 23
634.2495820726442
 33
0
  0
SOLID
  5
115
100
AcDbEntity
  8
measures
  6
ByBlock
 62
    0
370
   -2
100
AcDbTrace
 10
351.9787297726822
 20
658.749582072643
 30
0
 11
352.395014430455
 21
656.249582072643
 31
0
 12
351.5624451149093
 22
656.249582072643
 32
0
 13
351.5624451149093
 23
656.249582072643
 33
0
  0
LINE
  5
116
100
AcDbEntity
  8
measures
  6
ByBlock
 62
    0
370
   -2
100
AcDbLine
 10
274.8608490597999
 20
631.7495820726442
 11
353.2287297726822
 21
631.7495820726442
  0
LINE
  5
117
100
AcDbEntity
  8
measures
  6
ByBlock
 62
    0
370
   -2
100
AcDbLine
 10
274.8608490597995
 20
658.749582072643
 11
353.2287297726822
 21
658.749582072643
  0
ENDBLK
  5
78
330
76
100
AcDbEntity
  8
0
100
AcDbBlockEnd
  0
BLOCK
  5
7A
330
79
100
AcDbEntity
  8
0
100
AcDbBlockBegin
  2
*D20
 70
    1
 10
0
 20
0
  3
*D20
  1

  0
LINE
  5
118
100
AcDbEntity
  8
measures
  6
ByBlock
 62
    0
370
   -2
100
AcDbLine
 10
172.4858490598155
 20
576.8823012492576
 11
335.9858490598025
 21
576.8823012492576
  0
MTEXT
  5
119
100
AcDbEntity
  8
measures
  6
CONTINUOUS
 62
    0
370
   -2
100
AcDbMText
 10
254.235849059809
 20
578.7573012492576
 30
0
 40
2.5
 41
7.361111111111576
 71
    5
 72
    1
  1
163,5
  7
STANDARD
210
0
220
0
230
1
 50
0
 73
    2
 44
1
  0
SOLID
  5
11A
100
AcDbEntity
  8
measures
  6
ByBlock
 62
    0
370
   -2
100
AcDbTrace
 10
172.4858490598155
 20
576.8823012492576
 30
0
 11
174.9858490598155
 21
577.2985859070304
 31
0
 12
174.9858490598155
 22
576.4660165914847
 32
0
 13
174.9858490598155
 23
576.4660165914847
 33
0
  0
SOLID
  5
11B
100
AcDbEntity
  8
measures
  6
ByBlock
 62
    0
370
   -2
100
AcDbTrace
 10
335.9858490598025
 20
576.8823012492576
 30
0
 11
333.4858490598025
 21
576.4660165914847
 31
0
 12
333.4858490598025
 22
577.2985859070304
 32
0
 13
333.4858490598025
 23
577.2985859070304
 33
0
  0
LINE
  5
11C
100
AcDbEntity
  8
measures
  6
ByBlock
 62
    0
370
   -2
100
AcDbLine
 10
172.4858490598155
 20
600.1245820726565
 11
172.4858490598155
 21
575.6323012492576
  0
LINE
  5
11D
100
AcDbEntity
  8
measures
  6
ByBlock
 62
    0
370
   -2
100
AcDbLine
 10
335.9858490598025
 20
600.1245820726377
 11
335.9858490598025
 21
575.6323012492576
  0
ENDBLK
  5
7B
330
79
100
AcDbEntity
  8
0
100
AcDbBlockEnd
  0
BLOCK
  5
7D
330
7C
100
AcDbEntity
  8
0
100
AcDbBlockBegin
  2
*D26
 70
    1
 10
0
 20
0
  3
*D26
  1

  0
LINE
  5
11E
100
AcDbEntity
  8
measures
  6
ByBlock
 62
    0
370
   -2
100
AcDbLine
 10
274.2358490597995
 20
700.1574300657823
 11
234.2358490598021
 21
700.1574300657823
  0
MTEXT
  5
11F
100
AcDbEntity
  8
measures
  6
CONTINUOUS
 62
    0
370
   -2
100
AcDbMText
 10
254.2358490598008
 20
702.0324300657823
 30
0
 40
2.5
 41
3.333333333333333
 71
    5
 72
    1
  1
40
  7
STANDARD
210
0
220
0
230
1
 50
0
 73
    2
 44
1
  0
SOLID
  5
120
100
AcDbEntity
  8
measures
  6
ByBlock
 62
    0
370
   -2
100
AcDbTrace
 10
274.2358490597995
 20
700.1574300657823
 30
0
 11
271.7358490597995
 21
699.7411454080094
 31
0
 12
271.7358490597995
 22
700.5737147235551
 32
0
 13
271.7358490597995
 23
700.5737147235551
 33
0
  0
SOLID
  5
121
100
AcDbEntity
  8
measures
  6
ByBlock
 62
    0
370
   -2
100
AcDbTrace
 10
234.2358490598021
 20
700.1574300657823
 30
0
 11
236.7358490598021
 21
700.5737147235551
 31
0
 12
236.7358490598021
 22
699.7411454080094
 32
0
 13
236.7358490598021
 23
699.7411454080094
 33
0
  0
LINE
  5
122
100
AcDbEntity
  8
measures
  6
ByBlock
 62
    0
370
   -2
100
AcDbLine
 10
274.2358490597995
 20
659.374582072643
 11
274.2358490597995
 21
701.4074300657823
  0
LINE
  5
123
100
AcDbEntity
  8
measures
  6
ByBlock
 62
    0
370
   -2
100
AcDbLine
 10
234.2358490598021
 20
659.3745820726452
 11
234.2358490598021
 21
701.4074300657823
  0
ENDBLK
  5
7E
330
7C
100
AcDbEntity
  8
0
100
AcDbBlockEnd
  0
BLOCK
  5
80
330
7F
100
AcDbEntity
  8
0
100
AcDbBlockBegin
  2
*D7
 70
    1
 10
0
 20
0
  3
*D7
  1

  0
LINE
  5
124
100
AcDbEntity
  8
measures
  6
ByBlock
 62
    0
370
   -2
100
AcDbLine
 10
380.5211187578205
 20
220.3570994719297
 11
425.521118757821
 21
220.3570994719297
  0
MTEXT
  5
125
100
AcDbEntity
  8
measures
  6
CONTINUOUS
 62
    0
370
   -2
100
AcDbMText
 10
403.0211187578207
 20
222.2320994719297
 30
0
 40
2.5
 41
3.333333333333488
 71
    5
 72
    1
  1
45
  7
STANDARD
210
0
220
0
230
1
 50
0
 73
    2
 44
1
  0
SOLID
  5
126
100
AcDbEntity
  8
measures
  6
ByBlock
 62
    0
370
   -2
100
AcDbTrace
 10
380.5211187578205
 20
220.3570994719297
 30
0
 11
383.0211187578205
 21
220.7733841297025
 31
0
 12
383.0211187578205
 22
219.9408148141569
 32
0
 13
383.0211187578205
 23
219.9408148141569
 33
0
  0
SOLID
  5
127
100
AcDbEntity
  8
measures
  6
ByBlock
 62
    0
370
   -2
100
AcDbTrace
 10
425.521118757821
 20
220.3570994719297
 30
0
 11
423.021118757821
 21
219.9408148141569
 31
0
 12
423.021118757821
 22
220.7733841297025
 32
0
 13
423.021118757821
 23
220.7733841297025
 33
0
  0
LINE
  5
128
100
AcDbEntity
  8
measures
  6
ByBlock
 62
    0
370
   -2
100
AcDbLine
 10
380.5211187578205
 20
233.0061343997519
 11
380.5211187578205
 21
219.1070994719297
  0
LINE
  5
129
100
AcDbEntity
  8
measures
  6
ByBlock
 62
    0
370
   -2
100
AcDbLine
 10
425.521118757821
 20
233.0061343997519
 11
425.521118757821
 21
219.1070994719297
  0
ENDBLK
  5
81
330
7F
100
AcDbEntity
  8
0
100
AcDbBlockEnd
  0
BLOCK
  5
83
330
82
100
AcDbEntity
  8
0
100
AcDbBlockBegin
  2
*D6
 70
    1
 10
0
 20
0
  3
*D6
  1

  0
LINE
  5
12A
100
AcDbEntity
  8
measures
  6
ByBlock
 62
    0
370
   -2
100
AcDbLine
 10
363.0588032193709
 20
440.9992619804289
 11
363.0588032193709
 21
533.9992619874704
  0
MTEXT
  5
12B
100
AcDbEntity
  8
measures
  6
CONTINUOUS
 62
    0
370
   -2
100
AcDbMText
 10
361.1838032193709
 20
487.4992619839496
 30
0
 40
2.5
 41
3.055555555555866
 71
    5
 72
    1
  1
93
  7
STANDARD
210
0
220
0
230
1
 50
90
 73
    2
 44
1
  0
SOLID
  5
12C
100
AcDbEntity
  8
measures
  6
ByBlock
 62
    0
370
   -2
100
AcDbTrace
 10
363.0588032193709
 20
440.9992619804289
 30
0
 11
362.642518561598
 21
443.4992619804289
 31
0
 12
363.4750878771437
 22
443.4992619804289
 32
0
 13
363.4750878771437
 23
443.4992619804289
 33
0
  0
SOLID
  5
12D
100
AcDbEntity
  8
measures
  6
ByBlock
 62
    0
370
   -2
100
AcDbTrace
 10
363.0588032193709
 20
533.9992619874704
 30
0
 11
363.4750878771437
 21
531.4992619874704
 31
0
 12
362.642518561598
 22
531.4992619874704
 32
0
 13
362.642518561598
 23
531.4992619874704
 33
0
  0
LINE
  5
12E
100
AcDbEntity
  8
measures
  6
ByBlock
 62
    0
370
   -2
100
AcDbLine
 10
336.6108490598025
 20
440.9992619804289
 11
364.3088032193709
 21
440.9992619804289
  0
LINE
  5
12F
100
AcDbEntity
  8
measures
  6
ByBlock
 62
    0
370
   -2
100
AcDbLine
 10
321.1108490586268
 20
533.9992619874704
 11
364.3088032193709
 21
533.9992619874704
  0
ENDBLK
  5
84
330
82
100
AcDbEntity
  8
0
100
AcDbBlockEnd
  0
BLOCK
  5
86
330
85
100
AcDbEntity
  8
0
100
AcDbBlockBegin
  2
*D32
 70
    1
 10
0
 20
0
  3
*D32
  1

  0
LINE
  5
130
100
AcDbEntity
  8
measures
  6
ByBlock
 62
    0
370
   -2
100
AcDbLine
 10
178.2358490598
 20
230.9732451569405
 11
330.2358490598055
 21
230.9732451569405
  0
MTEXT
  5
131
100
AcDbEntity
  8
measures
  6
CONTINUOUS
 62
    0
370
   -2
100
AcDbMText
 10
254.2358490598027
 20
232.8482451569405
 30
0
 40
2.5
 41
4.444444444444599
 71
    5
 72
    1
  1
152
  7
STANDARD
210
0
220
0
230
1
 50
0
 73
    2
 44
1
  0
SOLID
  5
132
100
AcDbEntity
  8
measures
  6
ByBlock
 62
    0
370
   -2
100
AcDbTrace
 10
178.2358490598
 20
230.9732451569405
 30
0
 11
180.7358490598
 21
231.3895298147133
 31
0
 12
180.7358490598
 22
230.5569604991676
 32
0
 13
180.7358490598
 23
230.5569604991676
 33
0
  0
SOLID
  5
133
100
AcDbEntity
  8
measures
  6
ByBlock
 62
    0
370
   -2
100
AcDbTrace
 10
330.2358490598055
 20
230.9732451569405
 30
0
 11
327.7358490598055
 21
230.5569604991676
 31
0
 12
327.7358490598055
 22
231.3895298147133
 32
0
 13
327.7358490598055
 23
231.3895298147133
 33
0
  0
LINE
  5
134
100
AcDbEntity
  8
measures
  6
ByBlock
 62
    0
370
   -2
100
AcDbLine
 10
178.2358490598
 20
223.2417911374993
 11
178.2358490598
 21
232.2232451569405
  0
LINE
  5
135
100
AcDbEntity
  8
measures
  6
ByBlock
 62
    0
370
   -2
100
AcDbLine
 10
330.2358490598055
 20
223.2417911374999
 11
330.2358490598055
 21
232.2232451569405
  0
ENDBLK
  5
87
330
85
100
AcDbEntity
  8
0
100
AcDbBlockEnd
  0
BLOCK
  5
89
330
88
100
AcDbEntity
  8
0
100
AcDbBlockBegin
  2
*D3
 70
    1
 10
0
 20
0
  3
*D3
  1

  0
LINE
  5
136
100
AcDbEntity
  8
measures
  6
ByBlock
 62
    0
370
   -2
100
AcDbLine
 10
172.4858490598155
 20
417.1319811570487
 11
335.9858490598025
 21
417.1319811570487
  0
MTEXT
  5
137
100
AcDbEntity
  8
measures
  6
CONTINUOUS
 62
    0
370
   -2
100
AcDbMText
 10
254.235849059809
 20
419.0069811570487
 30
0
 40
2.5
 41
7.361111111111576
 71
    5
 72
    1
  1
163,5
  7
STANDARD
210
0
220
0
230
1
 50
0
 73
    2
 44
1
  0
SOLID
  5
138
100
AcDbEntity
  8
measures
  6
ByBlock
 62
    0
370
   -2
100
AcDbTrace
 10
172.4858490598155
 20
417.1319811570487
 30
0
 11
174.9858490598155
 21
417.5482658148215
 31
0
 12
174.9858490598155
 22
416.7156964992759
 32
0
 13
174.9858490598155
 23
416.7156964992759
 33
0
  0
SOLID
  5
139
100
AcDbEntity
  8
measures
  6
ByBlock
 62
    0
370
   -2
100
AcDbTrace
 10
335.9858490598025
 20
417.1319811570487
 30
0
 11
333.4858490598025
 21
416.7156964992759
 31
0
 12
333.4858490598025
 22
417.5482658148215
 32
0
 13
333.4858490598025
 23
417.5482658148215
 33
0
  0
LINE
  5
13A
100
AcDbEntity
  8
measures
  6
ByBlock
 62
    0
370
   -2
100
AcDbLine
 10
172.4858490598155
 20
440.3742619804476
 11
172.4858490598155
 21
415.8819811570487
  0
LINE
  5
13B
100
AcDbEntity
  8
measures
  6
ByBlock
 62
    0
370
   -2
100
AcDbLine
 10
335.9858490598025
 20
440.3742619804289
 11
335.9858490598025
 21
415.8819811570487
  0
ENDBLK
  5
8A
330
88
100
AcDbEntity
  8
0
100
AcDbBlockEnd
  0
BLOCK
  5
8C
330
8B
100
AcDbEntity
  8
0
100
AcDbBlockBegin
  2
*D27
 70
    1
 10
0
 20
0
  3
*D27
  1

  0
LINE
  5
13C
100
AcDbEntity
  8
measures
  6
ByBlock
 62
    0
370
   -2
100
AcDbLine
 10
178.1832174808542
 20
248.5256826569543
 11
330.28848063875
 21
248.5256826569543
  0
MTEXT
  5
13D
100
AcDbEntity
  8
measures
  6
CONTINUOUS
 62
    0
370
   -2
100
AcDbMText
 10
254.2358490598021
 20
250.4006826569543
 30
0
 40
2.5
 41
8.194444444444599
 71
    5
 72
    1
  1
152,11
  7
STANDARD
210
0
220
0
230
1
 50
0
 73
    2
 44
1
  0
SOLID
  5
13E
100
AcDbEntity
  8
measures
  6
ByBlock
 62
    0
370
   -2
100
AcDbTrace
 10
178.1832174808542
 20
248.5256826569543
 30
0
 11
180.6832174808542
 21
248.9419673147272
 31
0
 12
180.6832174808542
 22
248.1093979991815
 32
0
 13
180.6832174808542
 23
248.1093979991815
 33
0
  0
SOLID
  5
13F
100
AcDbEntity
  8
measures
  6
ByBlock
 62
    0
370
   -2
100
AcDbTrace
 10
330.28848063875
 20
248.5256826569543
 30
0
 11
327.78848063875
 21
248.1093979991815
 31
0
 12
327.78848063875
 22
248.9419673147272
 32
0
 13
327.78848063875
 23
248.9419673147272
 33
0
  0
LINE
  5
140
100
AcDbEntity
  8
measures
  6
ByBlock
 62
    0
370
   -2
100
AcDbLine
 10
178.1832174808542
 20
258.006134399752
 11
178.1832174808542
 21
247.2756826569543
  0
LINE
  5
141
100
AcDbEntity
  8
measures
  6
ByBlock
 62
    0
370
   -2
100
AcDbLine
 10
330.28848063875
 20
258.0061343997519
 11
330.28848063875
 21
247.2756826569543
  0
ENDBLK
  5
8D
330
8B
100
AcDbEntity
  8
0
100
AcDbBlockEnd
  0
BLOCK
  5
8F
330
8E
100
AcDbEntity
  8
0
100
AcDbBlockBegin
  2
*D31
 70
    1
 10
0
 20
0
  3
*D31
  1

  0
LINE
  5
142
100
AcDbEntity
  8
measures
  6
ByBlock
 62
    0
370
   -2
100
AcDbLine
 10
344.9913868676507
 20
195.7167911374994
 11
344.9913868676507
 21
222.6167911374999
  0
MTEXT
  5
143
100
AcDbEntity
  8
measures
  6
CONTINUOUS
 62
    0
370
   -2
100
AcDbMText
 10
343.1163868676507
 20
209.1667911374997
 30
0
 40
2.5
 41
5.972222222222378
 71
    5
 72
    1
  1
26,9
  7
STANDARD
210
0
220
0
230
1
 50
90
 73
    2
 44
1
  0
SOLID
  5
144
100
AcDbEntity
  8
measures
  6
ByBlock
 62
    0
370
   -2
100
AcDbTrace
 10
344.9913868676507
 20
195.7167911374994
 30
0
 11
344.5751022098779
 21
198.2167911374994
 31
0
 12
345.4076715254236
 22
198.2167911374994
 32
0
 13
345.4076715254236
 23
198.2167911374994
 33
0
  0
SOLID
  5
145
100
AcDbEntity
  8
measures
  6
ByBlock
 62
    0
370
   -2
100
AcDbTrace
 10
344.9913868676507
 20
222.6167911374999
 30
0
 11
345.4076715254236
 21
220.1167911374999
 31
0
 12
344.5751022098779
 22
220.1167911374999
 32
0
 13
344.5751022098779
 23
220.1167911374999
 33
0
  0
LINE
  5
146
100
AcDbEntity
  8
measures
  6
ByBlock
 62
    0
370
   -2
100
AcDbLine
 10
334.8608490598037
 20
195.7167911374994
 11
346.2413868676507
 21
195.7167911374994
  0
LINE
  5
147
100
AcDbEntity
  8
measures
  6
ByBlock
 62
    0
370
   -2
100
AcDbLine
 10
330.8608490598055
 20
222.6167911374999
 11
346.2413868676507
 21
222.6167911374999
  0
ENDBLK
  5
90
330
8E
100
AcDbEntity
  8
0
100
AcDbBlockEnd
  0
BLOCK
  5
92
330
91
100
AcDbEntity
  8
0
100
AcDbBlockBegin
  2
*D35
 70
    1
 10
0
 20
0
  3
*D35
  1

  0
LINE
  5
148
100
AcDbEntity
  8
measures
  6
ByBlock
 62
    0
370
   -2
100
AcDbLine
 10
344.802513055594
 20
276.6311343997482
 11
344.802513055594
 21
258.6311343997519
  0
MTEXT
  5
149
100
AcDbEntity
  8
measures
  6
CONTINUOUS
 62
    0
370
   -2
100
AcDbMText
 10
342.927513055594
 20
267.6311343997501
 30
0
 40
2.5
 41
2.5
 71
    5
 72
    1
  1
18
  7
STANDARD
210
0
220
0
230
1
 50
90
 73
    2
 44
1
  0
SOLID
  5
14A
100
AcDbEntity
  8
measures
  6
ByBlock
 62
    0
370
   -2
100
AcDbTrace
 10
344.802513055594
 20
276.6311343997482
 30
0
 11
345.2187977133668
 21
274.1311343997482
 31
0
 12
344.3862283978211
 22
274.1311343997482
 32
0
 13
344.3862283978211
 23
274.1311343997482
 33
0
  0
SOLID
  5
14B
100
AcDbEntity
  8
measures
  6
ByBlock
 62
    0
370
   -2
100
AcDbTrace
 10
344.802513055594
 20
258.6311343997519
 30
0
 11
344.3862283978211
 21
261.1311343997519
 31
0
 12
345.2187977133668
 22
261.1311343997519
 32
0
 13
345.2187977133668
 23
261.1311343997519
 33
0
  0
LINE
  5
14C
100
AcDbEntity
  8
measures
  6
ByBlock
 62
    0
370
   -2
100
AcDbLine
 10
254.8608490598016
 20
276.6311343997482
 11
346.052513055594
 21
276.6311343997482
  0
LINE
  5
14D
100
AcDbEntity
  8
measures
  6
ByBlock
 62
    0
370
   -2
100
AcDbLine
 10
254.8608490598016
 20
258.6311343997519
 11
346.052513055594
 21
258.6311343997519
  0
ENDBLK
  5
93
330
91
100
AcDbEntity
  8
0
100
AcDbBlockEnd
  0
BLOCK
  5
95
330
94
100
AcDbEntity
  8
0
100
AcDbBlockBegin
  2
*D2
 70
    1
 10
0
 20
0
  3
*D2
  1

  0
LINE
  5
14E
100
AcDbEntity
  8
measures
  6
ByBlock
 62
    0
370
   -2
100
AcDbLine
 10
227.2358490598008
 20
431.9988246570584
 11
281.235849059802
 21
431.9988246570584
  0
MTEXT
  5
14F
100
AcDbEntity
  8
measures
  6
CONTINUOUS
 62
    0
370
   -2
100
AcDbMText
 10
254.2358490598014
 20
433.8738246570584
 30
0
 40
2.5
 41
3.333333333333488
 71
    5
 72
    1
  1
54
  7
STANDARD
210
0
220
0
230
1
 50
0
 73
    2
 44
1
  0
SOLID
  5
150
100
AcDbEntity
  8
measures
  6
ByBlock
 62
    0
370
   -2
100
AcDbTrace
 10
227.2358490598008
 20
431.9988246570584
 30
0
 11
229.7358490598008
 21
432.4151093148312
 31
0
 12
229.7358490598008
 22
431.5825399992855
 32
0
 13
229.7358490598008
 23
431.5825399992855
 33
0
  0
SOLID
  5
151
100
AcDbEntity
  8
measures
  6
ByBlock
 62
    0
370
   -2
100
AcDbTrace
 10
281.235849059802
 20
431.9988246570584
 30
0
 11
278.735849059802
 21
431.5825399992855
 31
0
 12
278.735849059802
 22
432.4151093148312
 32
0
 13
278.735849059802
 23
432.4151093148312
 33
0
  0
LINE
  5
152
100
AcDbEntity
  8
measures
  6
ByBlock
 62
    0
370
   -2
100
AcDbLine
 10
227.2358490598008
 20
451.87426198044
 11
227.2358490598008
 21
430.7488246570584
  0
LINE
  5
153
100
AcDbEntity
  8
measures
  6
ByBlock
 62
    0
370
   -2
100
AcDbLine
 10
281.235849059802
 20
451.87426198044
 11
281.235849059802
 21
430.7488246570584
  0
ENDBLK
  5
96
330
94
100
AcDbEntity
  8
0
100
AcDbBlockEnd
  0
BLOCK
  5
98
330
97
100
AcDbEntity
  8
0
100
AcDbBlockBegin
  2
*D5
 70
    1
 10
0
 20
0
  3
*D5
  1

  0
LINE
  5
154
100
AcDbEntity
  8
measures
  6
ByBlock
 62
    0
370
   -2
100
AcDbLine
 10
353.5045939248645
 20
462.9992619804393
 11
353.5045939248645
 21
511.9992619804314
  0
MTEXT
  5
155
100
AcDbEntity
  8
measures
  6
CONTINUOUS
 62
    0
370
   -2
100
AcDbMText
 10
351.6295939248645
 20
487.4992619804353
 30
0
 40
2.5
 41
3.333333333333333
 71
    5
 72
    1
  1
49
  7
STANDARD
210
0
220
0
230
1
 50
90
 73
    2
 44
1
  0
SOLID
  5
156
100
AcDbEntity
  8
measures
  6
ByBlock
 62
    0
370
   -2
100
AcDbTrace
 10
353.5045939248645
 20
462.9992619804393
 30
0
 11
353.0883092670916
 21
465.4992619804393
 31
0
 12
353.9208785826373
 22
465.4992619804393
 32
0
 13
353.9208785826373
 23
465.4992619804393
 33
0
  0
SOLID
  5
157
100
AcDbEntity
  8
measures
  6
ByBlock
 62
    0
370
   -2
100
AcDbTrace
 10
353.5045939248645
 20
511.9992619804314
 30
0
 11
353.9208785826373
 21
509.4992619804314
 31
0
 12
353.0883092670916
 22
509.4992619804314
 32
0
 13
353.0883092670916
 23
509.4992619804314
 33
0
  0
LINE
  5
158
100
AcDbEntity
  8
measures
  6
ByBlock
 62
    0
370
   -2
100
AcDbLine
 10
310.9441823928556
 20
462.9992619804393
 11
354.7545939248645
 21
462.9992619804393
  0
LINE
  5
159
100
AcDbEntity
  8
measures
  6
ByBlock
 62
    0
370
   -2
100
AcDbLine
 10
302.7775157255726
 20
511.9992619804314
 11
354.7545939248645
 21
511.9992619804314
  0
ENDBLK
  5
99
330
97
100
AcDbEntity
  8
0
100
AcDbBlockEnd
  0
BLOCK
  5
9B
330
9A
100
AcDbEntity
  8
0
100
AcDbBlockBegin
  2
*D24
 70
    1
 10
0
 20
0
  3
*D24
  1

  0
LINE
  5
15A
100
AcDbEntity
  8
measures
  6
ByBlock
 62
    0
370
   -2
100
AcDbLine
 10
351.7853464226791
 20
658.749582072643
 11
351.7853464226791
 21
693.7495820796792
  0
MTEXT
  5
15B
100
AcDbEntity
  8
measures
  6
CONTINUOUS
 62
    0
370
   -2
100
AcDbMText
 10
349.9103464226791
 20
676.249582076161
 30
0
 40
2.5
 41
3.055555555555866
 71
    5
 72
    1
  1
35
  7
STANDARD
210
0
220
0
230
1
 50
90
 73
    2
 44
1
  0
SOLID
  5
15C
100
AcDbEntity
  8
measures
  6
ByBlock
 62
    0
370
   -2
100
AcDbTrace
 10
351.7853464226791
 20
658.749582072643
 30
0
 11
351.3690617649062
 21
661.249582072643
 31
0
 12
352.2016310804519
 22
661.249582072643
 32
0
 13
352.2016310804519
 23
661.249582072643
 33
0
  0
SOLID
  5
15D
100
AcDbEntity
  8
measures
  6
ByBlock
 62
    0
370
   -2
100
AcDbTrace
 10
351.7853464226791
 20
693.7495820796792
 30
0
 11
352.2016310804519
 21
691.2495820796792
 31
0
 12
351.3690617649062
 22
691.2495820796792
 32
0
 13
351.3690617649062
 23
691.2495820796792
 33
0
  0
LINE
  5
15E
100
AcDbEntity
  8
measures
  6
ByBlock
 62
    0
370
   -2
100
AcDbLine
 10
274.8608490597995
 20
658.749582072643
 11
353.0353464226791
 21
658.749582072643
  0
LINE
  5
15F
100
AcDbEntity
  8
measures
  6
ByBlock
 62
    0
370
   -2
100
AcDbLine
 10
321.1108490586269
 20
693.7495820796792
 11
353.0353464226791
 21
693.7495820796792
  0
ENDBLK
  5
9C
330
9A
100
AcDbEntity
  8
0
100
AcDbBlockEnd
  0
BLOCK
  5
9E
330
9D
100
AcDbEntity
  8
0
100
AcDbBlockBegin
  2
*D12
 70
    1
 10
0
 20
0
  3
*D12
  1

  0
LINE
  5
160
100
AcDbEntity
  8
measures
  6
ByBlock
 62
    0
370
   -2
100
AcDbLine
 10
437.6551296341949
 20
324.9111343997516
 11
437.6551296341949
 21
233.6311343997519
  0
MTEXT
  5
161
100
AcDbEntity
  8
measures
  6
CONTINUOUS
 62
    0
370
   -2
100
AcDbMText
 10
435.7801296341949
 20
279.2711343997518
 30
0
 40
2.5
 41
7.361111111111266
 71
    5
 72
    1
  1
91,28
  7
STANDARD
210
0
220
0
230
1
 50
90
 73
    2
 44
1
  0
SOLID
  5
162
100
AcDbEntity
  8
measures
  6
ByBlock
 62
    0
370
   -2
100
AcDbTrace
 10
437.6551296341949
 20
324.9111343997516
 30
0
 11
438.0714142919678
 21
322.4111343997516
 31
0
 12
437.2388449764221
 22
322.4111343997516
 32
0
 13
437.2388449764221
 23
322.4111343997516
 33
0
  0
SOLID
  5
163
100
AcDbEntity
  8
measures
  6
ByBlock
 62
    0
370
   -2
100
AcDbTrace
 10
437.6551296341949
 20
233.6311343997519
 30
0
 11
437.2388449764221
 21
236.1311343997519
 31
0
 12
438.0714142919678
 22
236.1311343997519
 32
0
 13
438.0714142919678
 23
236.1311343997519
 33
0
  0
LINE
  5
164
100
AcDbEntity
  8
measures
  6
ByBlock
 62
    0
370
   -2
100
AcDbLine
 10
426.1461187578211
 20
324.9111343997516
 11
438.9051296341949
 21
324.9111343997516
  0
LINE
  5
165
100
AcDbEntity
  8
measures
  6
ByBlock
 62
    0
370
   -2
100
AcDbLine
 10
426.1461187578211
 20
233.6311343997519
 11
438.9051296341949
 21
233.6311343997519
  0
ENDBLK
  5
9F
330
9D
100
AcDbEntity
  8
0
100
AcDbBlockEnd
  0
BLOCK
  5
A1
330
A0
100
AcDbEntity
  8
0
100
AcDbBlockBegin
  2
*D30
 70
    1
 10
0
 20
0
  3
*D30
  1

  0
LINE
  5
166
100
AcDbEntity
  8
measures
  6
ByBlock
 62
    0
370
   -2
100
AcDbLine
 10
133.9616681801757
 20
233.3990152270306
 11
146.624004112621
 21
228.3340808540525
  0
LINE
  5
167
100
AcDbEntity
  8
measures
  6
ByBlock
 62
    0
370
   -2
100
AcDbLine
 10
143.9616681801758
 20
258.3990152270307
 11
156.6240041126211
 21
253.3340808540526
  0
LINE
  5
168
100
AcDbEntity
  8
measures
  6
ByBlock
 62
    0
370
   -2
100
AcDbLine
 10
145.4634082490144
 20
228.7983191994951
 11
155.4634082490145
 21
253.7983191994952
  0
MTEXT
  5
169
100
AcDbEntity
  8
measures
  6
CONTINUOUS
 62
    0
370
   -2
100
AcDbMText
 10
148.7225144536046
 20
241.994676717659
 30
0
 40
2.5
 41
7.916666666666977
 71
    5
 72
    1
  1
26,93
  7
STANDARD
210
0
220
0
230
1
 50
68.19859051364811
 73
    2
 44
1
  0
SOLID
  5
16A
100
AcDbEntity
  8
measures
  6
ByBlock
 62
    0
370
   -2
100
AcDbTrace
 10
145.4634082490144
 20
228.7983191994951
 30
0
 11
146.0053743383844
 21
231.2741151673143
 31
0
 12
146.7783955414149
 22
230.9649066861022
 32
0
 13
146.7783955414149
 23
230.9649066861022
 33
0
  0
SOLID
  5
16B
100
AcDbEntity
  8
measures
  6
ByBlock
 62
    0
370
   -2
100
AcDbTrace
 10
155.4634082490145
 20
253.7983191994952
 30
0
 11
154.9214421596445
 21
251.322523231676
 31
0
 12
154.148420956614
 22
251.6317317128882
 32
0
 13
154.148420956614
 23
251.6317317128882
 33
0
  0
ENDBLK
  5
A2
330
A0
100
AcDbEntity
  8
0
100
AcDbBlockEnd
  0
BLOCK
  5
A4
330
A3
100
AcDbEntity
  8
0
100
AcDbBlockBegin
  2
*D8
 70
    1
 10
0
 20
0
  3
*D8
  1

  0
LINE
  5
16C
100
AcDbEntity
  8
measures
  6
ByBlock
 62
    0
370
   -2
100
AcDbLine
 10
189.235849059802
 20
335.4160304622176
 11
319.2358490598018
 21
335.4160304622176
  0
MTEXT
  5
16D
100
AcDbEntity
  8
measures
  6
CONTINUOUS
 62
    0
370
   -2
100
AcDbMText
 10
254.2358490598019
 20
337.2910304622176
 30
0
 40
2.5
 41
4.444444444444599
 71
    5
 72
    1
  1
130
  7
STANDARD
210
0
220
0
230
1
 50
0
 73
    2
 44
1
  0
SOLID
  5
16E
100
AcDbEntity
  8
measures
  6
ByBlock
 62
    0
370
   -2
100
AcDbTrace
 10
189.235849059802
 20
335.4160304622176
 30
0
 11
191.735849059802
 21
335.8323151199904
 31
0
 12
191.735849059802
 22
334.9997458044447
 32
0
 13
191.735849059802
 23
334.9997458044447
 33
0
  0
SOLID
  5
16F
100
AcDbEntity
  8
measures
  6
ByBlock
 62
    0
370
   -2
100
AcDbTrace
 10
319.2358490598018
 20
335.4160304622176
 30
0
 11
316.7358490598018
 21
334.9997458044447
 31
0
 12
316.7358490598018
 22
335.8323151199904
 32
0
 13
316.7358490598018
 23
335.8323151199904
 33
0
  0
LINE
  5
170
100
AcDbEntity
  8
measures
  6
ByBlock
 62
    0
370
   -2
100
AcDbLine
 10
189.235849059802
 20
329.2561343997451
 11
189.235849059802
 21
336.6660304622176
  0
LINE
  5
171
100
AcDbEntity
  8
measures
  6
ByBlock
 62
    0
370
   -2
100
AcDbLine
 10
319.2358490598018
 20
329.2561343997451
 11
319.2358490598018
 21
336.6660304622176
  0
ENDBLK
  5
A5
330
A3
100
AcDbEntity
  8
0
100
AcDbBlockEnd
  0
BLOCK
  5
A7
330
A6
100
AcDbEntity
  8
0
100
AcDbBlockBegin
  2
*D11
 70
    1
 10
0
 20
0
  3
*D11
  1

  0
LINE
  5
172
100
AcDbEntity
  8
measures
  6
ByBlock
 62
    0
370
   -2
100
AcDbLine
 10
133.3813702483724
 20
220.3570994719297
 11
88.38137024837192
 21
220.3570994719297
  0
MTEXT
  5
173
100
AcDbEntity
  8
measures
  6
CONTINUOUS
 62
    0
370
   -2
100
AcDbMText
 10
110.8813702483722
 20
222.2320994719297
 30
0
 40
2.5
 41
3.333333333333488
 71
    5
 72
    1
  1
45
  7
STANDARD
210
0
220
0
230
1
 50
0
 73
    2
 44
1
  0
SOLID
  5
174
100
AcDbEntity
  8
measures
  6
ByBlock
 62
    0
370
   -2
100
AcDbTrace
 10
133.3813702483724
 20
220.3570994719297
 30
0
 11
130.8813702483724
 21
219.9408148141569
 31
0
 12
130.8813702483724
 22
220.7733841297025
 32
0
 13
130.8813702483724
 23
220.7733841297025
 33
0
  0
SOLID
  5
175
100
AcDbEntity
  8
measures
  6
ByBlock
 62
    0
370
   -2
100
AcDbTrace
 10
88.38137024837192
 20
220.3570994719297
 30
0
 11
90.88137024837192
 21
220.7733841297025
 31
0
 12
90.88137024837192
 22
219.9408148141569
 32
0
 13
90.88137024837192
 23
219.9408148141569
 33
0
  0
LINE
  5
176
100
AcDbEntity
  8
measures
  6
ByBlock
 62
    0
370
   -2
100
AcDbLine
 10
133.3813702483724
 20
233.0061343997519
 11
133.3813702483724
 21
219.1070994719297
  0
LINE
  5
177
100
AcDbEntity
  8
measures
  6
ByBlock
 62
    0
370
   -2
100
AcDbLine
 10
88.38137024837192
 20
233.0061343997519
 11
88.38137024837192
 21
219.1070994719297
  0
ENDBLK
  5
A8
330
A6
100
AcDbEntity
  8
0
100
AcDbBlockEnd
  0
BLOCK
  5
AA
330
A9
100
AcDbEntity
  8
0
100
AcDbBlockBegin
  2
*D25
 70
    1
 10
0
 20
0
  3
*D25
  1

  0
LINE
  5
178
100
AcDbEntity
  8
measures
  6
ByBlock
 62
    0
370
   -2
100
AcDbLine
 10
229.2358490598006
 20
539.4251826571843
 11
279.2358490598015
 21
539.4251826571843
  0
MTEXT
  5
179
100
AcDbEntity
  8
measures
  6
CONTINUOUS
 62
    0
370
   -2
100
AcDbMText
 10
254.2358490598011
 20
541.3001826571843
 30
0
 40
2.5
 41
3.055555555555711
 71
    5
 72
    1
  1
50
  7
STANDARD
210
0
220
0
230
1
 50
0
 73
    2
 44
1
  0
SOLID
  5
17A
100
AcDbEntity
  8
measures
  6
ByBlock
 62
    0
370
   -2
100
AcDbTrace
 10
229.2358490598006
 20
539.4251826571843
 30
0
 11
231.7358490598006
 21
539.8414673149572
 31
0
 12
231.7358490598006
 22
539.0088979994115
 32
0
 13
231.7358490598006
 23
539.0088979994115
 33
0
  0
SOLID
  5
17B
100
AcDbEntity
  8
measures
  6
ByBlock
 62
    0
370
   -2
100
AcDbTrace
 10
279.2358490598015
 20
539.4251826571843
 30
0
 11
276.7358490598015
 21
539.0088979994115
 31
0
 12
276.7358490598015
 22
539.8414673149572
 32
0
 13
276.7358490598015
 23
539.8414673149572
 33
0
  0
LINE
  5
17C
100
AcDbEntity
  8
measures
  6
ByBlock
 62
    0
370
   -2
100
AcDbLine
 10
229.2358490598006
 20
523.1242619804289
 11
229.2358490598006
 21
540.6751826571843
  0
LINE
  5
17D
100
AcDbEntity
  8
measures
  6
ByBlock
 62
    0
370
   -2
100
AcDbLine
 10
279.2358490598015
 20
523.1242619804289
 11
279.2358490598015
 21
540.6751826571843
  0
ENDBLK
  5
AB
330
A9
100
AcDbEntity
  8
0
100
AcDbBlockEnd
  0
BLOCK
  5
AD
330
AC
100
AcDbEntity
  8
0
100
AcDbBlockBegin
  2
*D1
 70
    1
 10
0
 20
0
  3
*D1
  1

  0
LINE
  5
17E
100
AcDbEntity
  8
measures
  6
ByBlock
 62
    0
370
   -2
100
AcDbLine
 10
187.9858490598516
 20
546.2650331716425
 11
320.4858490586269
 21
546.2650331716425
  0
MTEXT
  5
17F
100
AcDbEntity
  8
measures
  6
CONTINUOUS
 62
    0
370
   -2
100
AcDbMText
 10
254.2358490592392
 20
548.1400331716425
 30
0
 40
2.5
 41
7.361111111111422
 71
    5
 72
    1
  1
132,5
  7
STANDARD
210
0
220
0
230
1
 50
0
 73
    2
 44
1
  0
SOLID
  5
180
100
AcDbEntity
  8
measures
  6
ByBlock
 62
    0
370
   -2
100
AcDbTrace
 10
187.9858490598516
 20
546.2650331716425
 30
0
 11
190.4858490598516
 21
546.6813178294153
 31
0
 12
190.4858490598516
 22
545.8487485138696
 32
0
 13
190.4858490598516
 23
545.8487485138696
 33
0
  0
SOLID
  5
181
100
AcDbEntity
  8
measures
  6
ByBlock
 62
    0
370
   -2
100
AcDbTrace
 10
320.4858490586269
 20
546.2650331716425
 30
0
 11
317.9858490586269
 21
545.8487485138696
 31
0
 12
317.9858490586269
 22
546.6813178294153
 32
0
 13
317.9858490586269
 23
546.6813178294153
 33
0
  0
LINE
  5
182
100
AcDbEntity
  8
measures
  6
ByBlock
 62
    0
370
   -2
100
AcDbLine
 10
187.9858490598516
 20
534.6242619804291
 11
187.9858490598516
 21
547.5150331716425
  0
LINE
  5
183
100
AcDbEntity
  8
measures
  6
ByBlock
 62
    0
370
   -2
100
AcDbLine
 10
320.4858490586269
 20
534.6242619874704
 11
320.4858490586269
 21
547.5150331716425
  0
ENDBLK
  5
AE
330
AC
100
AcDbEntity
  8
0
100
AcDbBlockEnd
  0
BLOCK
  5
B0
330
AF
100
AcDbEntity
  8
0
100
AcDbBlockBegin
  2
*D29
 70
    1
 10
0
 20
0
  3
*D29
  1

  0
LINE
  5
184
100
AcDbEntity
  8
measures
  6
ByBlock
 62
    0
370
   -2
100
AcDbLine
 10
345.0527933949769
 20
178.6897338882237
 11
345.0527933949769
 21
133.6897338882238
  0
MTEXT
  5
185
100
AcDbEntity
  8
measures
  6
CONTINUOUS
 62
    0
370
   -2
100
AcDbMText
 10
343.1777933949769
 20
156.1897338882238
 30
0
 40
2.5
 41
3.333333333333488
 71
    5
 72
    1
  1
45
  7
STANDARD
210
0
220
0
230
1
 50
90
 73
    2
 44
1
  0
SOLID
  5
186
100
AcDbEntity
  8
measures
  6
ByBlock
 62
    0
370
   -2
100
AcDbTrace
 10
345.0527933949769
 20
178.6897338882237
 30
0
 11
345.4690780527498
 21
176.1897338882237
 31
0
 12
344.6365087372041
 22
176.1897338882237
 32
0
 13
344.6365087372041
 23
176.1897338882237
 33
0
  0
SOLID
  5
187
100
AcDbEntity
  8
measures
  6
ByBlock
 62
    0
370
   -2
100
AcDbTrace
 10
345.0527933949769
 20
133.6897338882238
 30
0
 11
344.6365087372041
 21
136.1897338882238
 31
0
 12
345.4690780527498
 22
136.1897338882238
 32
0
 13
345.4690780527498
 23
136.1897338882238
 33
0
  0
LINE
  5
188
100
AcDbEntity
  8
measures
  6
ByBlock
 62
    0
370
   -2
100
AcDbLine
 10
334.8608490598037
 20
178.6897338882237
 11
346.3027933949769
 21
178.6897338882237
  0
LINE
  5
189
100
AcDbEntity
  8
measures
  6
ByBlock
 62
    0
370
   -2
100
AcDbLine
 10
334.8608490598037
 20
133.6897338882238
 11
346.3027933949769
 21
133.6897338882238
  0
ENDBLK
  5
B1
330
AF
100
AcDbEntity
  8
0
100
AcDbBlockEnd
  0
BLOCK
  5
B3
330
B2
100
AcDbEntity
  8
0
100
AcDbBlockBegin
  2
*D4
 70
    1
 10
0
 20
0
  3
*D4
  1

  0
LINE
  5
18A
100
AcDbEntity
  8
measures
  6
ByBlock
 62
    0
370
   -2
100
AcDbLine
 10
171.8693528574205
 20
441.1020113475137
 11
152.9044786998902
 21
444.2628237071101
  0
LINE
  5
18B
100
AcDbEntity
  8
measures
  6
ByBlock
 62
    0
370
   -2
100
AcDbLine
 10
187.3693528574566
 20
534.1020113474952
 11
168.4044786999263
 21
537.2628237070917
  0
LINE
  5
18C
100
AcDbEntity
  8
measures
  6
ByBlock
 62
    0
370
   -2
100
AcDbLine
 10
154.1374711046803
 20
444.0573249729779
 11
169.6374711047164
 21
537.0573249729595
  0
MTEXT
  5
18D
100
AcDbEntity
  8
measures
  6
CONTINUOUS
 62
    0
370
   -2
100
AcDbMText
 10
160.0379824975131
 20
490.8655730741671
 30
0
 40
2.5
 41
8.194444444444599
 71
    5
 72
    1
  1
94,28
  7
STANDARD
210
0
220
0
230
1
 50
80.53767779195091
 73
    2
 44
1
  0
SOLID
  5
18E
100
AcDbEntity
  8
measures
  6
ByBlock
 62
    0
370
   -2
100
AcDbTrace
 10
154.1374711046803
 20
444.0573249729779
 30
0
 11
154.1378479159331
 21
446.5917465587269
 31
0
 12
154.9590892299564
 22
446.4548730063893
 32
0
 13
154.9590892299564
 23
446.4548730063893
 33
0
  0
SOLID
  5
18F
100
AcDbEntity
  8
measures
  6
ByBlock
 62
    0
370
   -2
100
AcDbTrace
 10
169.6374711047164
 20
537.0573249729595
 30
0
 11
169.6370942934637
 21
534.5229033872105
 31
0
 12
168.8158529794404
 22
534.659776939548
 32
0
 13
168.8158529794404
 23
534.659776939548
 33
0
  0
ENDBLK
  5
B4
330
B2
100
AcDbEntity
  8
0
100
AcDbBlockEnd
  0
BLOCK
  5
B6
330
B5
100
AcDbEntity
  8
0
100
AcDbBlockBegin
  2
*D15
 70
    1
 10
0
 20
0
  3
*D15
  1

  0
LINE
  5
190
100
AcDbEntity
  8
measures
  6
ByBlock
 62
    0
370
   -2
100
AcDbLine
 10
342.8186340305022
 20
503.12171666596
 11
342.8186340305022
 21
476.808776914059
  0
MTEXT
  5
191
100
AcDbEntity
  8
measures
  6
CONTINUOUS
 62
    0
370
   -2
100
AcDbMText
 10
340.9436340305022
 20
489.9652467900095
 30
0
 40
2.5
 41
7.361111111111422
 71
    5
 72
    1
  1
26,31
  7
STANDARD
210
0
220
0
230
1
 50
90
 73
    2
 44
1
  0
SOLID
  5
192
100
AcDbEntity
  8
measures
  6
ByBlock
 62
    0
370
   -2
100
AcDbTrace
 10
342.8186340305022
 20
503.12171666596
 30
0
 11
343.2349186882751
 21
500.62171666596
 31
0
 12
342.4023493727294
 22
500.62171666596
 32
0
 13
342.4023493727294
 23
500.62171666596
 33
0
  0
SOLID
  5
193
100
AcDbEntity
  8
measures
  6
ByBlock
 62
    0
370
   -2
100
AcDbTrace
 10
342.8186340305022
 20
476.808776914059
 30
0
 11
342.4023493727294
 21
479.308776914059
 31
0
 12
343.2349186882751
 22
479.308776914059
 32
0
 13
343.2349186882751
 23
479.308776914059
 33
0
  0
LINE
  5
194
100
AcDbEntity
  8
measures
  6
ByBlock
 62
    0
370
   -2
100
AcDbLine
 10
314.757106611428
 20
503.12171666596
 11
344.0686340305022
 21
503.12171666596
  0
LINE
  5
195
100
AcDbEntity
  8
measures
  6
ByBlock
 62
    0
370
   -2
100
AcDbLine
 10
319.1425965704079
 20
476.808776914059
 11
344.0686340305022
 21
476.808776914059
  0
ENDBLK
  5
B7
330
B5
100
AcDbEntity
  8
0
100
AcDbBlockEnd
  0
BLOCK
  5
B9
330
B8
100
AcDbEntity
  8
0
100
AcDbBlockBegin
  2
*D22
 70
    1
 10
0
 20
0
  3
*D22
  1

  0
LINE
  5
196
100
AcDbEntity
  8
measures
  6
ByBlock
 62
    0
370
   -2
100
AcDbLine
 10
352.1909166047181
 20
600.7495820726376
 11
352.1909166047181
 21
631.7495820726442
  0
MTEXT
  5
197
100
AcDbEntity
  8
measures
  6
CONTINUOUS
 62
    0
370
   -2
100
AcDbMText
 10
350.3159166047181
 20
616.2495820726409
 30
0
 40
2.5
 41
2.500000000000155
 71
    5
 72
    1
  1
31
  7
STANDARD
210
0
220
0
230
1
 50
90
 73
    2
 44
1
  0
SOLID
  5
198
100
AcDbEntity
  8
measures
  6
ByBlock
 62
    0
370
   -2
100
AcDbTrace
 10
352.1909166047181
 20
600.7495820726376
 30
0
 11
351.7746319469452
 21
603.2495820726376
 31
0
 12
352.6072012624909
 22
603.2495820726376
 32
0
 13
352.6072012624909
 23
603.2495820726376
 33
0
  0
SOLID
  5
199
100
AcDbEntity
  8
measures
  6
ByBlock
 62
    0
370
   -2
100
AcDbTrace
 10
352.1909166047181
 20
631.7495820726442
 30
0
 11
352.6072012624909
 21
629.2495820726442
 31
0
 12
351.7746319469452
 22
629.2495820726442
 32
0
 13
351.7746319469452
 23
629.2495820726442
 33
0
  0
LINE
  5
19A
100
AcDbEntity
  8
measures
  6
ByBlock
 62
    0
370
   -2
100
AcDbLine
 10
336.6108490598026
 20
600.7495820726376
 11
353.4409166047181
 21
600.7495820726376
  0
LINE
  5
19B
100
AcDbEntity
  8
measures
  6
ByBlock
 62
    0
370
   -2
100
AcDbLine
 10
274.8608490597999
 20
631.7495820726442
 11
353.4409166047181
 21
631.7495820726442
  0
ENDBLK
  5
BA
330
B8
100
AcDbEntity
  8
0
100
AcDbBlockEnd
  0
BLOCK
  5
BC
330
BB
100
AcDbEntity
  8
0
100
AcDbBlockBegin
  2
*D33
 70
    1
 10
0
 20
0
  3
*D33
  1

  0
LINE
  5
19C
100
AcDbEntity
  8
measures
  6
ByBlock
 62
    0
370
   -2
100
AcDbLine
 10
344.6956605184902
 20
328.6311343997451
 11
344.6956605184902
 21
313.6311343997473
  0
MTEXT
  5
19D
100
AcDbEntity
  8
measures
  6
CONTINUOUS
 62
    0
370
   -2
100
AcDbMText
 10
342.8206605184902
 20
321.1311343997462
 30
0
 40
2.5
 41
2.500000000000155
 71
    5
 72
    1
  1
15
  7
STANDARD
210
0
220
0
230
1
 50
90
 73
    2
 44
1
  0
SOLID
  5
19E
100
AcDbEntity
  8
measures
  6
ByBlock
 62
    0
370
   -2
100
AcDbTrace
 10
344.6956605184902
 20
328.6311343997451
 30
0
 11
345.111945176263
 21
326.1311343997451
 31
0
 12
344.2793758607173
 22
326.1311343997451
 32
0
 13
344.2793758607173
 23
326.1311343997451
 33
0
  0
SOLID
  5
19F
100
AcDbEntity
  8
measures
  6
ByBlock
 62
    0
370
   -2
100
AcDbTrace
 10
344.6956605184902
 20
313.6311343997473
 30
0
 11
344.2793758607173
 21
316.1311343997473
 31
0
 12
345.111945176263
 22
316.1311343997473
 32
0
 13
345.111945176263
 23
316.1311343997473
 33
0
  0
LINE
  5
1A0
100
AcDbEntity
  8
measures
  6
ByBlock
 62
    0
370
   -2
100
AcDbLine
 10
254.8608490598016
 20
328.6311343997451
 11
345.9456605184902
 21
328.6311343997451
  0
LINE
  5
1A1
100
AcDbEntity
  8
measures
  6
ByBlock
 62
    0
370
   -2
100
AcDbLine
 10
254.8608490598016
 20
313.6311343997473
 11
345.9456605184902
 21
313.6311343997473
  0
ENDBLK
  5
BD
330
BB
100
AcDbEntity
  8
0
100
AcDbBlockEnd
  0
BLOCK
  5
BF
330
BE
100
AcDbEntity
  8
0
100
AcDbBlockBegin
  2
*D37
 70
    1
 10
0
 20
0
  3
*D37
  1

  0
LINE
  5
1A2
100
AcDbEntity
  8
measures
  6
ByBlock
 62
    0
370
   -2
100
AcDbLine
 10
360.9142204983818
 20
258.6311343997519
 11
360.9142204983818
 21
233.631134399752
  0
MTEXT
  5
1A3
100
AcDbEntity
  8
measures
  6
CONTINUOUS
 62
    0
370
   -2
100
AcDbMText
 10
359.0392204983818
 20
246.1311343997519
 30
0
 40
2.5
 41
3.055555555555711
 71
    5
 72
    1
  1
25
  7
STANDARD
210
0
220
0
230
1
 50
90
 73
    2
 44
1
  0
SOLID
  5
1A4
100
AcDbEntity
  8
measures
  6
ByBlock
 62
    0
370
   -2
100
AcDbTrace
 10
360.9142204983818
 20
258.6311343997519
 30
0
 11
361.3305051561546
 21
256.1311343997519
 31
0
 12
360.4979358406089
 22
256.1311343997519
 32
0
 13
360.4979358406089
 23
256.1311343997519
 33
0
  0
SOLID
  5
1A5
100
AcDbEntity
  8
measures
  6
ByBlock
 62
    0
370
   -2
100
AcDbTrace
 10
360.9142204983818
 20
233.631134399752
 30
0
 11
360.4979358406089
 21
236.131134399752
 31
0
 12
361.3305051561546
 22
236.131134399752
 32
0
 13
361.3305051561546
 23
236.131134399752
 33
0
  0
LINE
  5
1A6
100
AcDbEntity
  8
measures
  6
ByBlock
 62
    0
370
   -2
100
AcDbLine
 10
369.8961187578223
 20
258.6311343997519
 11
359.6642204983818
 21
258.6311343997519
  0
LINE
  5
1A7
100
AcDbEntity
  8
measures
  6
ByBlock
 62
    0
370
   -2
100
AcDbLine
 10
379.8961187578205
 20
233.631134399752
 11
359.6642204983818
 21
233.631134399752
  0
ENDBLK
  5
C0
330
BE
100
AcDbEntity
  8
0
100
AcDbBlockEnd
  0
BLOCK
  5
C2
330
C1
100
AcDbEntity
  8
0
100
AcDbBlockBegin
  2
*D14
 70
    1
 10
0
 20
0
  3
*D14
  1

  0
LINE
  5
1A8
100
AcDbEntity
  8
measures
  6
ByBlock
 62
    0
370
   -2
100
AcDbLine
 10
342.9501982171633
 20
503.12171666596
 11
342.9501982171633
 21
511.9992619804315
  0
MTEXT
  5
1A9
100
AcDbEntity
  8
measures
  6
CONTINUOUS
 62
    0
370
   -2
100
AcDbMText
 10
341.0751982171633
 20
507.5604893231957
 30
0
 40
2.5
 41
5.972222222222222
 71
    5
 72
    1
  1
8,88
  7
STANDARD
210
0
220
0
230
1
 50
90
 73
    2
 44
1
  0
SOLID
  5
1AA
100
AcDbEntity
  8
measures
  6
ByBlock
 62
    0
370
   -2
100
AcDbTrace
 10
342.9501982171633
 20
503.12171666596
 30
0
 11
342.5339135593904
 21
505.62171666596
 31
0
 12
343.3664828749361
 22
505.62171666596
 32
0
 13
343.3664828749361
 23
505.62171666596
 33
0
  0
SOLID
  5
1AB
100
AcDbEntity
  8
measures
  6
ByBlock
 62
    0
370
   -2
100
AcDbTrace
 10
342.9501982171633
 20
511.9992619804315
 30
0
 11
343.3664828749361
 21
509.4992619804315
 31
0
 12
342.5339135593904
 22
509.4992619804315
 32
0
 13
342.5339135593904
 23
509.4992619804315
 33
0
  0
LINE
  5
1AC
100
AcDbEntity
  8
measures
  6
ByBlock
 62
    0
370
   -2
100
AcDbLine
 10
314.757106611428
 20
503.12171666596
 11
344.2001982171633
 21
503.12171666596
  0
LINE
  5
1AD
100
AcDbEntity
  8
measures
  6
ByBlock
 62
    0
370
   -2
100
AcDbLine
 10
313.2775157255716
 20
511.9992619804315
 11
344.2001982171633
 21
511.9992619804315
  0
ENDBLK
  5
C3
330
C1
100
AcDbEntity
  8
0
100
AcDbBlockEnd
  0
ENDSEC
  0
SECTION
  2
ENTITIES
  0
LINE
  5
1AE
100
AcDbEntity
  8
builder
  6
ByLayer
 62
  256
370
   -1
100
AcDbLine
 10
254.2358490598016
 20
243.7573998027951
 11
254.2358490598016
 21
468.9240047867477
  0
LINE
  5
1AF
100
AcDbEntity
  8
builder
  6
ByLayer
 62
  256
370
   -1
100
AcDbLine
 10
254.2358490598016
 20
468.9240047867477
 11
254.2358490598016
 21
730.0757959577809
  0
LINE
  5
1B0
100
AcDbEntity
  8
builder
  6
ByLayer
 62
  256
370
   -1
100
AcDbLine
 10
274.6286464558016
 20
532.4992619804359
 11
274.6286464558027
 21
442.4992619804359
  0
LINE
  5
1B1
100
AcDbEntity
  8
builder
  6
ByLayer
 62
  256
370
   -1
100
AcDbLine
 10
234.628646455805
 20
532.4992619804359
 11
234.628646455804
 21
442.4992619804359
  0
LINE
  5
1B2
100
AcDbEntity
  8
builder
  6
ByLayer
 62
  256
370
   -1
100
AcDbLine
 10
334.2358490598037
 20
440.9992619804291
 11
174.235849059801
 21
440.9992619804474
  0
LINE
  5
1B3
100
AcDbEntity
  8
builder
  6
ByLayer
 62
  256
370
   -1
100
AcDbLine
 10
189.235849059802
 20
533.9992619804291
 11
319.2358490598018
 21
533.9992619804351
  0
LINE
  5
1B4
100
AcDbEntity
  8
builder
  6
ByLayer
 62
  256
370
   -1
100
AcDbLine
 10
319.2358490598018
 20
533.9992619804351
 11
319.2358591597225
 21
533.9992619804352
  0
LINE
  5
1B5
100
AcDbEntity
  8
builder
  6
ByLayer
 62
  256
370
   -1
100
AcDbLine
 10
320.7358490597992
 20
532.499261980436
 11
335.7358490598014
 21
442.4992619804359
  0
LINE
  5
1B6
100
AcDbEntity
  8
builder
  6
ByLayer
 62
  256
370
   -1
100
AcDbLine
 10
187.7358490598521
 20
532.4992619804359
 11
172.7358490598141
 21
442.4992619804358
  0
LINE
  5
1B7
100
AcDbEntity
  8
0
  6
ByLayer
 62
  256
370
   -1
100
AcDbLine
 10
172.4858490598155
 20
440.9992619804476
 11
335.9858490598025
 21
440.9992619804289
  0
LINE
  5
1B8
100
AcDbEntity
  8
0
  6
ByLayer
 62
  256
370
   -1
100
AcDbLine
 10
335.9858490598025
 20
440.9992619804289
 11
320.4858490586269
 21
533.9992619874703
  0
LINE
  5
1B9
100
AcDbEntity
  8
0
  6
ByLayer
 62
  256
370
   -1
100
AcDbLine
 10
320.4858490586269
 20
533.9992619874703
 11
187.9858490598516
 21
533.9992619804291
  0
LINE
  5
1BA
100
AcDbEntity
  8
0
  6
ByLayer
 62
  256
370
   -1
100
AcDbLine
 10
187.9858490598516
 20
533.9992619804291
 11
172.4858490598155
 21
440.9992619804476
  0
DIMENSION
  5
1BB
100
AcDbEntity
  8
measures
  6
ByLayer
 62
  256
370
   -1
100
AcDbDimension
  2
*D1
 10
320.4858490586269
 20
546.2650331716425
 30
0
 11
254.2358490592392
 21
548.1400331716425
 31
0
 70
   32
 71
    5
 72
    0
  3
Standard
 53
0
210
0
220
0
230
1
100
AcDbAlignedDimension
 13
187.9858490598516
 23
533.9992619804291
 33
0
 14
320.4858490586269
 24
533.9992619874704
 34
0
100
AcDbRotatedDimension
  0
LINE
  5
1BC
100
AcDbEntity
  8
builder
  6
ByLayer
 62
  256
370
   -1
100
AcDbLine
 10
194.485849059816
 20
440.9992619804451
 11
209.9858490598517
 21
533.9992619804301
  0
LINE
  5
1BD
100
AcDbEntity
  8
builder
  6
ByLayer
 62
  256
370
   -1
100
AcDbLine
 10
298.4858490586281
 20
533.9992619804342
 11
313.9858490598008
 21
440.9992619804314
  0
LINE
  5
1BE
100
AcDbEntity
  8
builder
  6
ByLayer
 62
  256
370
   -1
100
AcDbLine
 10
254.2358490598016
 20
511.9992619804315
 11
326.3191823931336
 21
511.9992619804315
  0
LINE
  5
1BF
100
AcDbEntity
  8
builder
  6
ByLayer
 62
  256
370
   -1
100
AcDbLine
 10
254.2358568673013
 20
511.9992619804315
 11
176.386647969811
 21
511.9992619804315
  0
LINE
  5
1C0
100
AcDbEntity
  8
builder
  6
ByLayer
 62
  256
370
   -1
100
AcDbLine
 10
254.2358490598016
 20
462.9992619804393
 11
163.4299635196037
 21
462.9992619804393
  0
LINE
  5
1C1
100
AcDbEntity
  8
builder
  6
ByLayer
 62
  256
370
   -1
100
AcDbLine
 10
320.819182392851
 20
462.9992619804393
 11
312.6525157255716
 21
511.9992619804315
  0
LINE
  5
1C2
100
AcDbEntity
  8
builder
  6
ByLayer
 62
  256
370
   -1
100
AcDbLine
 10
195.8191823931748
 20
511.9992619804316
 11
187.6525157264936
 21
462.9992619804393
  0
LINE
  5
1C3
100
AcDbEntity
  8
builder
  6
ByLayer
 62
  256
370
   -1
100
AcDbLine
 10
254.2358490598015
 20
522.4992619804289
 11
312.6525157255723
 21
522.4992619804289
  0
LINE
  5
1C4
100
AcDbEntity
  8
builder
  6
ByLayer
 62
  256
370
   -1
100
AcDbLine
 10
254.2358562856141
 20
522.4992619804289
 11
191.3562516174964
 21
522.4992619804289
  0
LINE
  5
1C5
100
AcDbEntity
  8
builder
  6
ByLayer
 62
  256
370
   -1
100
AcDbLine
 10
254.2358490598016
 20
452.49926198044
 11
322.3955016175767
 21
452.49926198044
  0
LINE
  5
1C6
100
AcDbEntity
  8
builder
  6
ByLayer
 62
  256
370
   -1
100
AcDbLine
 10
254.2358447063191
 20
452.49926198044
 11
187.0925016174938
 21
452.49926198044
  0
CIRCLE
  5
1C7
100
AcDbEntity
  8
0
  6
ByLayer
 62
  256
370
   -1
100
AcDbCircle
 10
279.2358490598015
 20
522.4992619804289
 40
3
  0
CIRCLE
  5
1C8
100
AcDbEntity
  8
0
  6
ByLayer
 62
  256
370
   -1
100
AcDbCircle
 10
229.2358490598006
 20
522.4992619804289
 40
3
  0
CIRCLE
  5
1C9
100
AcDbEntity
  8
0
  6
ByLayer
 62
  256
370
   -1
100
AcDbCircle
 10
227.2358490598008
 20
452.49926198044
 40
3
  0
CIRCLE
  5
1CA
100
AcDbEntity
  8
0
  6
ByLayer
 62
  256
370
   -1
100
AcDbCircle
 10
281.235849059802
 20
452.49926198044
 40
3
  0
LINE
  5
1CB
100
AcDbEntity
  8
0
  6
ByLayer
 62
  256
370
   -1
100
AcDbLine
 10
198.1525157264908
 20
462.9992619804393
 11
310.3191823928556
 21
462.9992619804393
  0
LINE
  5
1CC
100
AcDbEntity
  8
0
  6
ByLayer
 62
  256
370
   -1
100
AcDbLine
 10
310.3191823928556
 20
462.9992619804393
 11
302.1525157255726
 21
511.9992619804315
  0
LINE
  5
1CD
100
AcDbEntity
  8
0
  6
ByLayer
 62
  256
370
   -1
100
AcDbLine
 10
302.1525157255726
 20
511.9992619804315
 11
206.3191823931762
 21
511.9992619804315
  0
LINE
  5
1CE
100
AcDbEntity
  8
0
  6
ByLayer
 62
  256
370
   -1
100
AcDbLine
 10
206.3191823931762
 20
511.9992619804315
 11
198.1525157264908
 21
462.9992619804393
  0
LINE
  5
1CF
100
AcDbEntity
  8
builder
  6
ByLayer
 62
  256
370
   -1
100
AcDbLine
 10
206.3191823931762
 20
511.9992619804315
 11
198.1525157264908
 21
462.9992619804393
  0
LINE
  5
1D0
100
AcDbEntity
  8
builder
  6
ByLayer
 62
  256
370
   -1
100
AcDbLine
 10
187.9858490598516
 20
533.9992619804291
 11
172.4858490598155
 21
440.9992619804476
  0
CIRCLE
  5
1D1
100
AcDbEntity
  8
0
  6
ByLayer
 62
  256
370
   -1
100
AcDbCircle
 10
194.339591507424
 20
503.1217166659444
 40
3
  0
CIRCLE
  5
1D2
100
AcDbEntity
  8
0
  6
ByLayer
 62
  256
370
   -1
100
AcDbCircle
 10
314.132106611428
 20
503.12171666596
 40
3
  0
DIMENSION
  5
1D3
100
AcDbEntity
  8
measures
  6
ByLayer
 62
  256
370
   -1
100
AcDbDimension
  2
*D2
 10
281.235849059802
 20
431.9988246570584
 30
0
 11
254.2358490598014
 21
433.8738246570584
 31
0
 70
   32
 71
    5
 72
    0
  3
Standard
 53
0
210
0
220
0
230
1
100
AcDbAlignedDimension
 13
227.2358490598008
 23
452.49926198044
 33
0
 14
281.235849059802
 24
452.49926198044
 34
0
100
AcDbRotatedDimension
  0
DIMENSION
  5
1D4
100
AcDbEntity
  8
measures
  6
ByLayer
 62
  256
370
   -1
100
AcDbDimension
  2
*D3
 10
335.9858490598025
 20
417.1319811570487
 30
0
 11
254.235849059809
 21
419.0069811570487
 31
0
 70
   32
 71
    5
 72
    0
  3
Standard
 53
0
210
0
220
0
230
1
100
AcDbAlignedDimension
 13
172.4858490598155
 23
440.9992619804476
 33
0
 14
335.9858490598025
 24
440.9992619804289
 34
0
100
AcDbRotatedDimension
  0
DIMENSION
  5
1D5
100
AcDbEntity
  8
measures
  6
ByLayer
 62
  256
370
   -1
100
AcDbDimension
  2
*D4
 10
169.6374711047164
 20
537.0573249729595
 30
0
 11
160.0379824975131
 21
490.8655730741671
 31
0
 70
   33
 71
    5
 72
    0
  3
Standard
 53
0
210
0
220
0
230
1
100
AcDbAlignedDimension
 13
172.4858490598155
 23
440.9992619804476
 33
0
 14
187.9858490598516
 24
533.9992619804292
 34
0
  0
DIMENSION
  5
1D6
100
AcDbEntity
  8
measures
  6
ByLayer
 62
  256
370
   -1
100
AcDbDimension
  2
*D5
 10
353.5045939248645
 20
511.9992619804314
 30
0
 11
351.6295939248645
 21
487.4992619804353
 31
0
 70
   32
 71
    5
 72
    0
  3
Standard
 53
0
210
0
220
0
230
1
100
AcDbAlignedDimension
 13
310.3191823928556
 23
462.9992619804393
 33
0
 14
302.1525157255726
 24
511.9992619804314
 34
0
 50
90
100
AcDbRotatedDimension
  0
DIMENSION
  5
1D7
100
AcDbEntity
  8
measures
  6
ByLayer
 62
  256
370
   -1
100
AcDbDimension
  2
*D6
 10
363.0588032193709
 20
533.9992619874704
 30
0
 11
361.1838032193709
 21
487.4992619839496
 31
0
 70
   32
 71
    5
 72
    0
  3
Standard
 53
0
210
0
220
0
230
1
100
AcDbAlignedDimension
 13
335.9858490598025
 23
440.9992619804289
 33
0
 14
320.4858490586268
 24
533.9992619874704
 34
0
 50
90
100
AcDbRotatedDimension
  0
LINE
  5
1D8
100
AcDbEntity
  8
builder
  6
CONTINUOUS
 62
  256
370
   -1
100
AcDbLine
 10
329.2358490598019
 20
233.6311343997519
 11
489.5444077819965
 21
233.6311343997519
  0
LINE
  5
1D9
100
AcDbEntity
  8
builder
  6
ByLayer
 62
  256
370
   -1
100
AcDbLine
 10
189.235849059802
 20
333.6311343997519
 11
189.235849059802
 21
323.6311343997519
  0
LINE
  5
1DA
100
AcDbEntity
  8
builder
  6
ByLayer
 62
  256
370
   -1
100
AcDbLine
 10
319.2358490598018
 20
333.6311343997519
 11
319.2358490598018
 21
323.6311343997519
  0
LINE
  5
1DB
100
AcDbEntity
  8
builder
  6
ByLayer
 62
  256
370
   -1
100
AcDbLine
 10
179.2358490598019
 20
233.6311343997517
 11
127.0648233632187
 21
233.6311343997517
  0
LINE
  5
1DC
100
AcDbEntity
  8
builder
  6
ByLayer
 62
  256
370
   -1
100
AcDbLine
 10
174.235849059801
 20
233.6311343997517
 11
174.235849059801
 21
167.7778647618692
  0
LINE
  5
1DD
100
AcDbEntity
  8
builder
  6
ByLayer
 62
  256
370
   -1
100
AcDbLine
 10
334.2358490598037
 20
233.6311343997519
 11
334.2358490598037
 21
166.3566147618688
  0
LINE
  5
1DE
100
AcDbEntity
  8
builder
  6
ByLayer
 62
  256
370
   -1
100
AcDbLine
 10
254.2358490598016
 20
328.6311343997451
 11
337.5794055314182
 21
328.6311343997451
  0
LINE
  5
1DF
100
AcDbEntity
  8
builder
  6
ByLayer
 62
  256
370
   -1
100
AcDbLine
 10
254.2358490598016
 20
328.6311343997451
 11
178.1686755401033
 21
328.6311343997451
  0
LINE
  5
1E0
100
AcDbEntity
  8
0
  6
ByLayer
 62
  256
370
   -1
100
AcDbLine
 10
319.2358490598018
 20
328.6311343997451
 11
189.235849059802
 21
328.6311343997451
  0
LINE
  5
1E1
100
AcDbEntity
  8
builder
  6
ByLayer
 62
  256
370
   -1
100
AcDbLine
 10
380.5211187578205
 20
233.6311343997519
 11
380.5211187578205
 21
338.2156147620099
  0
LINE
  5
1E2
100
AcDbEntity
  8
builder
  6
ByLayer
 62
  256
370
   -1
100
AcDbLine
 10
425.5211187578211
 20
233.6311343997519
 11
425.5211187578211
 21
338.9656147620104
  0
LINE
  5
1E3
100
AcDbEntity
  8
0
  6
ByLayer
 62
  256
370
   -1
100
AcDbLine
 10
425.5211187578211
 20
233.6311343997519
 11
380.5211187578205
 21
233.6311343997519
  0
DIMENSION
  5
1E4
100
AcDbEntity
  8
measures
  6
ByLayer
 62
  256
370
   -1
100
AcDbDimension
  2
*D7
 10
425.521118757821
 20
220.3570994719297
 30
0
 11
403.0211187578207
 21
222.2320994719297
 31
0
 70
   32
 71
    5
 72
    0
  3
Standard
 53
0
210
0
220
0
230
1
100
AcDbAlignedDimension
 13
380.5211187578205
 23
233.6311343997519
 33
0
 14
425.521118757821
 24
233.6311343997519
 34
0
100
AcDbRotatedDimension
  0
DIMENSION
  5
1E5
100
AcDbEntity
  8
measures
  6
ByLayer
 62
  256
370
   -1
100
AcDbDimension
  2
*D8
 10
319.2358490598018
 20
335.4160304622176
 30
0
 11
254.2358490598019
 21
337.2910304622176
 31
0
 70
   32
 71
    5
 72
    0
  3
Standard
 53
0
210
0
220
0
230
1
100
AcDbAlignedDimension
 13
189.235849059802
 23
328.6311343997451
 33
0
 14
319.2358490598018
 24
328.6311343997451
 34
0
100
AcDbRotatedDimension
  0
LINE
  5
1E6
100
AcDbEntity
  8
builder
  6
ByLayer
 62
  256
370
   -1
100
AcDbLine
 10
165.4895016174954
 20
343.728614762019
 11
331.775751617615
 21
343.728614762019
  0
LINE
  5
1E7
100
AcDbEntity
  8
builder
  6
ByLayer
 62
  256
370
   -1
100
AcDbLine
 10
319.2358490598018
 20
328.6311343997447
 11
319.2358490598018
 21
349.4996019530531
  0
LINE
  5
1E8
100
AcDbEntity
  8
builder
  6
ByLayer
 62
  256
370
   -1
100
AcDbLine
 10
319.2358490598018
 20
349.4996019530531
 11
319.2358490598018
 21
373.4656147620408
  0
LINE
  5
1E9
100
AcDbEntity
  8
builder
  6
ByLayer
 62
  256
370
   -1
100
AcDbLine
 10
165.4895016174954
 20
388.7286147620185
 11
331.775751617615
 21
388.7286147620185
  0
LINE
  5
1EA
100
AcDbEntity
  8
builder
  6
ByLayer
 62
  256
370
   -1
100
AcDbLine
 10
189.235849059802
 20
328.631134399745
 11
189.235849059802
 21
394.4251826570521
  0
LWPOLYLINE
  5
1EB
100
AcDbEntity
  8
0
  6
ByLayer
 62
  256
370
   -1
100
AcDbPolyline
 90
    4
 70
    1
 43
0
 10
189.235849059802
 20
388.7286147620185
 10
319.2358490598018
 20
388.7286147620185
 10
319.2358490598018
 20
343.728614762019
 10
189.235849059802
 20
343.728614762019
  0
DIMENSION
  5
1EC
100
AcDbEntity
  8
measures
  6
ByLayer
 62
  256
370
   -1
100
AcDbDimension
  2
*D9
 10
345.0552190758492
 20
388.7286147620185
 30
0
 11
343.1802190758492
 21
366.2286147620188
 31
0
 70
   32
 71
    5
 72
    0
  3
Standard
 53
0
210
0
220
0
230
1
100
AcDbAlignedDimension
 13
319.2358490598018
 23
343.728614762019
 33
0
 14
319.2358490598018
 24
388.7286147620185
 34
0
 50
90
100
AcDbRotatedDimension
  0
DIMENSION
  5
1ED
100
AcDbEntity
  8
measures
  6
ByLayer
 62
  256
370
   -1
100
AcDbDimension
  2
*D10
 10
319.2358490598018
 20
397.1751826570545
 30
0
 11
254.2358490598019
 21
399.0501826570545
 31
0
 70
   32
 71
    5
 72
    0
  3
Standard
 53
0
210
0
220
0
230
1
100
AcDbAlignedDimension
 13
189.235849059802
 23
388.7286147620185
 33
0
 14
319.2358490598018
 24
388.7286147620185
 34
0
100
AcDbRotatedDimension
  0
LINE
  5
1EE
100
AcDbEntity
  8
builder
  6
ByLayer
 62
  256
370
   -1
100
AcDbLine
 10
133.3813702483724
 20
233.6311343997519
 11
133.3813702483724
 21
338.2156147620099
  0
LINE
  5
1EF
100
AcDbEntity
  8
builder
  6
ByLayer
 62
  256
370
   -1
100
AcDbLine
 10
88.38137024837181
 20
233.6311343997519
 11
88.38137024837181
 21
338.9656147620104
  0
LINE
  5
1F0
100
AcDbEntity
  8
0
  6
ByLayer
 62
  256
370
   -1
100
AcDbLine
 10
88.38137024837187
 20
233.6311343997519
 11
133.3813702483724
 21
233.6311343997519
  0
DIMENSION
  5
1F1
100
AcDbEntity
  8
measures
  6
ByLayer
 62
  256
370
   -1
100
AcDbDimension
  2
*D11
 10
88.38137024837192
 20
220.3570994719297
 30
0
 11
110.8813702483722
 21
222.2320994719297
 31
0
 70
   32
 71
    5
 72
    0
  3
Standard
 53
0
210
0
220
0
230
1
100
AcDbAlignedDimension
 13
133.3813702483724
 23
233.6311343997519
 33
0
 14
88.38137024837192
 24
233.6311343997519
 34
0
 50
180
100
AcDbRotatedDimension
  0
LINE
  5
1F2
100
AcDbEntity
  8
0
  6
ByLayer
 62
  256
370
   -1
100
AcDbLine
 10
380.5211187578205
 20
329.8111343997519
 11
425.5211187578212
 21
324.9111343997516
  0
LINE
  5
1F3
100
AcDbEntity
  8
0
  6
ByLayer
 62
  256
370
   -1
100
AcDbLine
 10
425.5211187578211
 20
233.6311343997519
 11
425.5211187578211
 21
324.9111343997516
  0
DIMENSION
  5
1F4
100
AcDbEntity
  8
measures
  6
ByLayer
 62
  256
370
   -1
100
AcDbDimension
  2
*D12
 10
437.6551296341949
 20
233.6311343997519
 30
0
 11
435.7801296341949
 21
279.2711343997518
 31
0
 70
   32
 71
    5
 72
    0
  3
Standard
 53
0
210
0
220
0
230
1
100
AcDbAlignedDimension
 13
425.5211187578211
 23
324.9111343997516
 33
0
 14
425.5211187578211
 24
233.6311343997519
 34
0
 50
90
100
AcDbRotatedDimension
  0
LINE
  5
1F5
100
AcDbEntity
  8
0
  6
ByLayer
 62
  256
370
   -1
100
AcDbLine
 10
133.3813702483724
 20
329.8111343997519
 11
88.38137024837181
 21
324.911134399752
  0
LINE
  5
1F6
100
AcDbEntity
  8
0
  6
ByLayer
 62
  256
370
   -1
100
AcDbLine
 10
88.38137024837181
 20
324.911134399752
 11
88.38137024837187
 21
233.6311343997519
  0
DIMENSION
  5
1F7
100
AcDbEntity
  8
measures
  6
ByLayer
 62
  256
370
   -1
100
AcDbDimension
  2
*D13
 10
79.07750161743374
 20
233.6311343997519
 30
0
 11
77.20250161743375
 21
279.271134399752
 31
0
 70
   32
 71
    5
 72
    0
  3
Standard
 53
0
210
0
220
0
230
1
100
AcDbAlignedDimension
 13
88.38137024837181
 23
324.911134399752
 33
0
 14
88.38137024837187
 24
233.6311343997519
 34
0
 50
90
100
AcDbRotatedDimension
  0
LINE
  5
1F8
100
AcDbEntity
  8
builder
  6
ByLayer
 62
  256
370
   -1
100
AcDbLine
 10
335.9858490598025
 20
440.9992619804289
 11
310.3191823928556
 21
462.9992619804393
  0
LINE
  5
1F9
100
AcDbEntity
  8
builder
  6
ByLayer
 62
  256
370
   -1
100
AcDbLine
 10
310.3191823928556
 20
462.9992619804393
 11
332.3191823931336
 21
462.9992619804393
  0
LINE
  5
1FA
100
AcDbEntity
  8
builder
  6
ByLayer
 62
  256
370
   -1
100
AcDbLine
 10
332.3191823931336
 20
462.9992619804393
 11
313.9858490598008
 21
440.9992619804315
  0
CIRCLE
  5
1FB
100
AcDbEntity
  8
builder
  6
ByLayer
 62
  256
370
   -1
100
AcDbCircle
 10
317.9117484165433
 20
456.4913482459178
 40
10
  0
LINE
  5
1FC
100
AcDbEntity
  8
builder
  6
ByLayer
 62
  256
370
   -1
100
AcDbLine
 10
172.4858490598155
 20
440.9992619804476
 11
198.1525157264908
 21
462.9992619804393
  0
LINE
  5
1FD
100
AcDbEntity
  8
builder
  6
ByLayer
 62
  256
370
   -1
100
AcDbLine
 10
198.1525157264908
 20
462.9992619804393
 11
194.485849059816
 21
440.9992619804451
  0
LINE
  5
1FE
100
AcDbEntity
  8
builder
  6
ByLayer
 62
  256
370
   -1
100
AcDbLine
 10
194.485849059816
 20
440.9992619804451
 11
176.15251572649
 21
462.9992619804393
  0
CIRCLE
  5
1FF
100
AcDbEntity
  8
builder
  6
ByLayer
 62
  256
370
   -1
100
AcDbCircle
 10
190.5599497028361
 20
456.4913482458828
 40
10
  0
CIRCLE
  5
200
100
AcDbEntity
  8
0
  6
ByLayer
 62
  256
370
   -1
100
AcDbCircle
 10
318.5175965704079
 20
476.808776914059
 40
3
  0
LINE
  5
201
100
AcDbEntity
  8
builder
  6
ByLayer
 62
  256
370
   -1
100
AcDbLine
 10
318.5175965704079
 20
476.808776914059
 11
166.6042516175013
 21
476.808776914059
  0
CIRCLE
  5
202
100
AcDbEntity
  8
0
  6
ByLayer
 62
  256
370
   -1
100
AcDbCircle
 10
189.954101548768
 20
476.808776914059
 40
3
  0
DIMENSION
  5
203
100
AcDbEntity
  8
measures
  6
ByLayer
 62
  256
370
   -1
100
AcDbDimension
  2
*D14
 10
342.9501982171633
 20
511.9992619804315
 30
0
 11
341.0751982171633
 21
507.5604893231957
 31
0
 70
   32
 71
    5
 72
    0
  3
Standard
 53
0
210
0
220
0
230
1
100
AcDbAlignedDimension
 13
314.132106611428
 23
503.12171666596
 33
0
 14
312.6525157255716
 24
511.9992619804315
 34
0
 50
90
100
AcDbRotatedDimension
  0
DIMENSION
  5
204
100
AcDbEntity
  8
measures
  6
ByLayer
 62
  256
370
   -1
100
AcDbDimension
  2
*D15
 10
342.8186340305022
 20
476.808776914059
 30
0
 11
340.9436340305022
 21
489.9652467900095
 31
0
 70
   32
 71
    5
 72
    0
  3
Standard
 53
0
210
0
220
0
230
1
100
AcDbAlignedDimension
 13
314.132106611428
 23
503.12171666596
 33
0
 14
318.5175965704079
 24
476.808776914059
 34
0
 50
90
100
AcDbRotatedDimension
  0
DIMENSION
  5
205
100
AcDbEntity
  8
measures
  6
ByLayer
 62
  256
370
   -1
100
AcDbDimension
  2
*D16
 10
176.7231357474664
 20
506.0577926259432
 30
0
 11
175.6134425831566
 21
510.8048133843848
 31
0
 70
   33
 71
    5
 72
    0
  3
Standard
 53
0
210
0
220
0
230
1
100
AcDbAlignedDimension
 13
195.8191823931748
 23
511.9992619804315
 33
0
 14
194.339591507424
 24
503.1217166659444
 34
0
  0
DIMENSION
  5
206
100
AcDbEntity
  8
measures
  6
ByLayer
 62
  256
370
   -1
100
AcDbDimension
  2
*D17
 10
171.981088704032
 20
479.8042790548541
 30
0
 11
172.3243450761749
 21
493.268997031995
 31
0
 70
   33
 71
    5
 72
    0
  3
Standard
 53
0
210
0
220
0
230
1
100
AcDbAlignedDimension
 13
194.339591507424
 23
503.1217166659444
 33
0
 14
189.954101548768
 24
476.808776914059
 34
0
  0
DIMENSION
  5
207
100
AcDbEntity
  8
measures
  6
ByLayer
 62
  256
370
   -1
100
AcDbDimension
  2
*D18
 10
169.6544838700579
 20
465.9989339565178
 30
0
 11
168.9557881740099
 21
473.2119395245257
 31
0
 70
   33
 71
    5
 72
    0
  3
Standard
 53
0
210
0
220
0
230
1
100
AcDbAlignedDimension
 13
189.954101548768
 23
476.808776914059
 33
0
 14
187.6525157264936
 24
462.9992619804393
 34
0
  0
LINE
  5
208
100
AcDbEntity
  8
builder
  6
ByLayer
 62
  256
370
   -1
100
AcDbLine
 10
274.6286464558016
 20
692.2495820726448
 11
274.6286464558027
 21
602.2495820726448
  0
LINE
  5
209
100
AcDbEntity
  8
builder
  6
ByLayer
 62
  256
370
   -1
100
AcDbLine
 10
234.628646455805
 20
692.2495820726448
 11
234.628646455804
 21
602.2495820726448
  0
LINE
  5
20A
100
AcDbEntity
  8
builder
  6
ByLayer
 62
  256
370
   -1
100
AcDbLine
 10
334.2358490598037
 20
600.749582072638
 11
174.235849059801
 21
600.7495820726563
  0
LINE
  5
20B
100
AcDbEntity
  8
builder
  6
ByLayer
 62
  256
370
   -1
100
AcDbLine
 10
189.235849059802
 20
693.749582072638
 11
319.2358490598018
 21
693.749582072644
  0
LINE
  5
20C
100
AcDbEntity
  8
builder
  6
ByLayer
 62
  256
370
   -1
100
AcDbLine
 10
319.2358490598018
 20
693.749582072644
 11
319.2358591597225
 21
693.749582072644
  0
LINE
  5
20D
100
AcDbEntity
  8
builder
  6
ByLayer
 62
  256
370
   -1
100
AcDbLine
 10
320.7358490597992
 20
692.2495820726449
 11
335.7358490598014
 21
602.2495820726448
  0
LINE
  5
20E
100
AcDbEntity
  8
builder
  6
ByLayer
 62
  256
370
   -1
100
AcDbLine
 10
187.7358490598521
 20
692.2495820726447
 11
172.7358490598141
 21
602.2495820726447
  0
LINE
  5
20F
100
AcDbEntity
  8
0
  6
ByLayer
 62
  256
370
   -1
100
AcDbLine
 10
172.4858490598155
 20
600.7495820726565
 11
335.9858490598025
 21
600.7495820726377
  0
LINE
  5
210
100
AcDbEntity
  8
0
  6
ByLayer
 62
  256
370
   -1
100
AcDbLine
 10
335.9858490598025
 20
600.7495820726377
 11
320.4858490586269
 21
693.7495820796792
  0
LINE
  5
211
100
AcDbEntity
  8
0
  6
ByLayer
 62
  256
370
   -1
100
AcDbLine
 10
320.4858490586269
 20
693.7495820796792
 11
187.9858490598516
 21
693.749582072638
  0
LINE
  5
212
100
AcDbEntity
  8
0
  6
ByLayer
 62
  256
370
   -1
100
AcDbLine
 10
187.9858490598516
 20
693.749582072638
 11
172.4858490598155
 21
600.7495820726565
  0
DIMENSION
  5
213
100
AcDbEntity
  8
measures
  6
ByLayer
 62
  256
370
   -1
100
AcDbDimension
  2
*D19
 10
320.4858490586269
 20
706.0153532638512
 30
0
 11
254.2358490592392
 21
707.8903532638512
 31
0
 70
   32
 71
    5
 72
    0
  3
Standard
 53
0
210
0
220
0
230
1
100
AcDbAlignedDimension
 13
187.9858490598516
 23
693.749582072638
 33
0
 14
320.4858490586269
 24
693.7495820796792
 34
0
100
AcDbRotatedDimension
  0
LINE
  5
214
100
AcDbEntity
  8
builder
  6
ByLayer
 62
  256
370
   -1
100
AcDbLine
 10
298.4858490586281
 20
693.7495820726431
 11
313.9858490598008
 21
600.7495820726402
  0
LINE
  5
215
100
AcDbEntity
  8
builder
  6
ByLayer
 62
  256
370
   -1
100
AcDbLine
 10
254.2358490598016
 20
671.7495820726404
 11
326.3191823931336
 21
671.7495820726404
  0
LINE
  5
216
100
AcDbEntity
  8
builder
  6
ByLayer
 62
  256
370
   -1
100
AcDbLine
 10
254.2358568673013
 20
671.7495820726404
 11
176.386647969811
 21
671.7495820726404
  0
LINE
  5
217
100
AcDbEntity
  8
builder
  6
ByLayer
 62
  256
370
   -1
100
AcDbLine
 10
254.2358490598016
 20
622.7495820726482
 11
163.4299635196037
 21
622.7495820726482
  0
LINE
  5
218
100
AcDbEntity
  8
builder
  6
ByLayer
 62
  256
370
   -1
100
AcDbLine
 10
320.819182392851
 20
622.7495820726482
 11
312.6525157255716
 21
671.7495820726404
  0
LINE
  5
219
100
AcDbEntity
  8
builder
  6
ByLayer
 62
  256
370
   -1
100
AcDbLine
 10
195.8191823931748
 20
671.7495820726404
 11
187.6525157264936
 21
622.7495820726482
  0
LINE
  5
21A
100
AcDbEntity
  8
builder
  6
ByLayer
 62
  256
370
   -1
100
AcDbLine
 10
254.2358490598015
 20
682.2495820726376
 11
312.6525157255723
 21
682.2495820726376
  0
LINE
  5
21B
100
AcDbEntity
  8
builder
  6
ByLayer
 62
  256
370
   -1
100
AcDbLine
 10
254.2358562856141
 20
682.2495820726377
 11
191.3562516174964
 21
682.2495820726377
  0
LINE
  5
21C
100
AcDbEntity
  8
builder
  6
ByLayer
 62
  256
370
   -1
100
AcDbLine
 10
254.2358490598016
 20
612.2495820726489
 11
322.3955016175767
 21
612.2495820726489
  0
LINE
  5
21D
100
AcDbEntity
  8
builder
  6
ByLayer
 62
  256
370
   -1
100
AcDbLine
 10
254.2358447063191
 20
612.2495820726489
 11
187.0925016174938
 21
612.2495820726489
  0
CIRCLE
  5
21E
100
AcDbEntity
  8
0
  6
ByLayer
 62
  256
370
   -1
100
AcDbCircle
 10
279.2358490598015
 20
682.2495820726376
 40
3
  0
CIRCLE
  5
21F
100
AcDbEntity
  8
0
  6
ByLayer
 62
  256
370
   -1
100
AcDbCircle
 10
229.2358490598006
 20
682.2495820726377
 40
3
  0
CIRCLE
  5
220
100
AcDbEntity
  8
0
  6
ByLayer
 62
  256
370
   -1
100
AcDbCircle
 10
227.2358490598008
 20
612.2495820726489
 40
3
  0
CIRCLE
  5
221
100
AcDbEntity
  8
0
  6
ByLayer
 62
  256
370
   -1
100
AcDbCircle
 10
281.235849059802
 20
612.2495820726489
 40
3
  0
LINE
  5
222
100
AcDbEntity
  8
builder
  6
ByLayer
 62
  256
370
   -1
100
AcDbLine
 10
187.9858490598516
 20
693.749582072638
 11
172.4858490598155
 21
600.7495820726565
  0
CIRCLE
  5
223
100
AcDbEntity
  8
0
  6
ByLayer
 62
  256
370
   -1
100
AcDbCircle
 10
194.339591507424
 20
662.8720367581533
 40
3
  0
CIRCLE
  5
224
100
AcDbEntity
  8
0
  6
ByLayer
 62
  256
370
   -1
100
AcDbCircle
 10
314.132106611428
 20
662.8720367581689
 40
3
  0
DIMENSION
  5
225
100
AcDbEntity
  8
measures
  6
ByLayer
 62
  256
370
   -1
100
AcDbDimension
  2
*D20
 10
335.9858490598025
 20
576.8823012492576
 30
0
 11
254.235849059809
 21
578.7573012492576
 31
0
 70
   32
 71
    5
 72
    0
  3
Standard
 53
0
210
0
220
0
230
1
100
AcDbAlignedDimension
 13
172.4858490598155
 23
600.7495820726565
 33
0
 14
335.9858490598025
 24
600.7495820726377
 34
0
100
AcDbRotatedDimension
  0
LINE
  5
226
100
AcDbEntity
  8
builder
  6
ByLayer
 62
  256
370
   -1
100
AcDbLine
 10
335.9858490598025
 20
600.7495820726377
 11
310.3191823928556
 21
622.7495820726482
  0
LINE
  5
227
100
AcDbEntity
  8
builder
  6
ByLayer
 62
  256
370
   -1
100
AcDbLine
 10
310.3191823928556
 20
622.7495820726482
 11
332.3191823931336
 21
622.7495820726482
  0
LINE
  5
228
100
AcDbEntity
  8
builder
  6
ByLayer
 62
  256
370
   -1
100
AcDbLine
 10
332.3191823931336
 20
622.7495820726482
 11
313.9858490598008
 21
600.7495820726404
  0
CIRCLE
  5
229
100
AcDbEntity
  8
builder
  6
ByLayer
 62
  256
370
   -1
100
AcDbCircle
 10
317.9117484165433
 20
616.2416683381267
 40
10
  0
LINE
  5
22A
100
AcDbEntity
  8
builder
  6
ByLayer
 62
  256
370
   -1
100
AcDbLine
 10
172.4858490598155
 20
600.7495820726565
 11
198.1525157264908
 21
622.7495820726482
  0
LINE
  5
22B
100
AcDbEntity
  8
builder
  6
ByLayer
 62
  256
370
   -1
100
AcDbLine
 10
198.1525157264908
 20
622.7495820726482
 11
194.485849059816
 21
600.749582072654
  0
LINE
  5
22C
100
AcDbEntity
  8
builder
  6
ByLayer
 62
  256
370
   -1
100
AcDbLine
 10
194.485849059816
 20
600.749582072654
 11
176.15251572649
 21
622.7495820726482
  0
CIRCLE
  5
22D
100
AcDbEntity
  8
builder
  6
ByLayer
 62
  256
370
   -1
100
AcDbCircle
 10
190.5599497028361
 20
616.2416683380917
 40
10
  0
CIRCLE
  5
22E
100
AcDbEntity
  8
0
  6
ByLayer
 62
  256
370
   -1
100
AcDbCircle
 10
318.5175965704079
 20
636.5590970062678
 40
3
  0
CIRCLE
  5
22F
100
AcDbEntity
  8
0
  6
ByLayer
 62
  256
370
   -1
100
AcDbCircle
 10
317.9117484165433
 20
616.2416683381267
 40
10
  0
LINE
  5
230
100
AcDbEntity
  8
builder
  6
ByLayer
 62
  256
370
   -1
100
AcDbLine
 10
318.5175965704079
 20
636.5590970062678
 11
166.6042516175013
 21
636.5590970062678
  0
CIRCLE
  5
231
100
AcDbEntity
  8
0
  6
ByLayer
 62
  256
370
   -1
100
AcDbCircle
 10
190.5599497028361
 20
616.2416683380917
 40
10
  0
CIRCLE
  5
232
100
AcDbEntity
  8
0
  6
ByLayer
 62
  256
370
   -1
100
AcDbCircle
 10
189.954101548768
 20
636.5590970062678
 40
3
  0
DIMENSION
  5
233
100
AcDbEntity
  8
measures
  6
ByLayer
 62
  256
370
   -1
100
AcDbDimension
  2
*D21
 10
317.9117484165433
 20
424.9251826570872
 30
0
 11
254.2358490596897
 21
426.8001826570872
 31
0
 70
   32
 71
    5
 72
    0
  3
Standard
 53
0
210
0
220
0
230
1
100
AcDbAlignedDimension
 13
190.5599497028361
 23
456.4913482458828
 33
0
 14
317.9117484165433
 24
456.4913482459178
 34
0
100
AcDbRotatedDimension
  0
CIRCLE
  5
234
100
AcDbEntity
  8
0
  6
ByLayer
 62
  256
370
   -1
100
AcDbCircle
 10
274.2358490597999
 20
631.7495820726442
 40
2.5
  0
CIRCLE
  5
235
100
AcDbEntity
  8
0
  6
ByLayer
 62
  256
370
   -1
100
AcDbCircle
 10
274.2358490597995
 20
658.749582072643
 40
2.5
  0
CIRCLE
  5
236
100
AcDbEntity
  8
0
  6
ByLayer
 62
  256
370
   -1
100
AcDbCircle
 10
234.2358490598021
 20
658.7495820726452
 40
2.5
  0
CIRCLE
  5
237
100
AcDbEntity
  8
0
  6
ByLayer
 62
  256
370
   -1
100
AcDbCircle
 10
234.2358490598018
 20
631.7495820726446
 40
2.5
  0
LINE
  5
238
100
AcDbEntity
  8
builder
  6
ByLayer
 62
  256
370
   -1
100
AcDbLine
 10
234.2358490598018
 20
631.7495820726446
 11
274.2358490597995
 21
658.749582072643
  0
LINE
  5
239
100
AcDbEntity
  8
builder
  6
ByLayer
 62
  256
370
   -1
100
AcDbLine
 10
274.2358490597999
 20
631.7495820726442
 11
234.2358490598021
 21
658.7495820726452
  0
DIMENSION
  5
23A
100
AcDbEntity
  8
measures
  6
ByLayer
 62
  256
370
   -1
100
AcDbDimension
  2
*D22
 10
352.1909166047181
 20
631.7495820726442
 30
0
 11
350.3159166047181
 21
616.2495820726409
 31
0
 70
   32
 71
    5
 72
    0
  3
Standard
 53
0
210
0
220
0
230
1
100
AcDbAlignedDimension
 13
335.9858490598026
 23
600.7495820726376
 33
0
 14
274.2358490597999
 24
631.7495820726442
 34
0
 50
90
100
AcDbRotatedDimension
  0
DIMENSION
  5
23B
100
AcDbEntity
  8
measures
  6
ByLayer
 62
  256
370
   -1
100
AcDbDimension
  2
*D23
 10
351.9787297726822
 20
658.749582072643
 30
0
 11
350.1037297726822
 21
645.2495820726435
 31
0
 70
   32
 71
    5
 72
    0
  3
Standard
 53
0
210
0
220
0
230
1
100
AcDbAlignedDimension
 13
274.2358490597999
 23
631.7495820726442
 33
0
 14
274.2358490597995
 24
658.749582072643
 34
0
 50
90
100
AcDbRotatedDimension
  0
DIMENSION
  5
23C
100
AcDbEntity
  8
measures
  6
ByLayer
 62
  256
370
   -1
100
AcDbDimension
  2
*D24
 10
351.7853464226791
 20
693.7495820796792
 30
0
 11
349.9103464226791
 21
676.249582076161
 31
0
 70
   32
 71
    5
 72
    0
  3
Standard
 53
0
210
0
220
0
230
1
100
AcDbAlignedDimension
 13
274.2358490597995
 23
658.749582072643
 33
0
 14
320.4858490586269
 24
693.7495820796792
 34
0
 50
90
100
AcDbRotatedDimension
  0
DIMENSION
  5
23D
100
AcDbEntity
  8
measures
  6
ByLayer
 62
  256
370
   -1
100
AcDbDimension
  2
*D25
 10
279.2358490598015
 20
539.4251826571843
 30
0
 11
254.2358490598011
 21
541.3001826571843
 31
0
 70
   32
 71
    5
 72
    0
  3
Standard
 53
0
210
0
220
0
230
1
100
AcDbAlignedDimension
 13
229.2358490598006
 23
522.4992619804289
 33
0
 14
279.2358490598015
 24
522.4992619804289
 34
0
100
AcDbRotatedDimension
  0
DIMENSION
  5
23E
100
AcDbEntity
  8
measures
  6
ByLayer
 62
  256
370
   -1
100
AcDbDimension
  2
*D26
 10
234.2358490598021
 20
700.1574300657823
 30
0
 11
254.2358490598008
 21
702.0324300657823
 31
0
 70
   32
 71
    5
 72
    0
  3
Standard
 53
0
210
0
220
0
230
1
100
AcDbAlignedDimension
 13
274.2358490597995
 23
658.749582072643
 33
0
 14
234.2358490598021
 24
658.7495820726452
 34
0
100
AcDbRotatedDimension
  0
LINE
  5
23F
100
AcDbEntity
  8
builder
  6
ByLayer
 62
  256
370
   -1
100
AcDbLine
 10
380.5211187578205
 20
258.6311343997519
 11
133.3813702483724
 21
258.631134399752
  0
LINE
  5
240
100
AcDbEntity
  8
0
  6
ByLayer
 62
  256
370
   -1
100
AcDbLine
 10
370.5211187578222
 20
258.631134399752
 11
380.5211187578205
 21
233.6311343997519
  0
LINE
  5
241
100
AcDbEntity
  8
0
  6
ByLayer
 62
  256
370
   -1
100
AcDbLine
 10
143.3813702483725
 20
258.631134399752
 11
133.3813702483724
 21
233.6311343997517
  0
LINE
  5
242
100
AcDbEntity
  8
0
  6
ByLayer
 62
  256
370
   -1
100
AcDbLine
 10
178.1832174808542
 20
258.631134399752
 11
330.2884806387501
 21
258.6311343997519
  0
LINE
  5
243
100
AcDbEntity
  8
0
  6
ByLayer
 62
  256
370
   -1
100
AcDbLine
 10
330.2884806387501
 20
258.6311343997519
 11
319.2358490598018
 21
328.6311343997451
  0
LINE
  5
244
100
AcDbEntity
  8
0
  6
ByLayer
 62
  256
370
   -1
100
AcDbLine
 10
178.1832174808542
 20
258.631134399752
 11
189.235849059802
 21
328.6311343997451
  0
DIMENSION
  5
245
100
AcDbEntity
  8
measures
  6
ByLayer
 62
  256
370
   -1
100
AcDbDimension
  2
*D27
 10
330.28848063875
 20
248.5256826569543
 30
0
 11
254.2358490598021
 21
250.4006826569543
 31
0
 70
   32
 71
    5
 72
    0
  3
Standard
 53
0
210
0
220
0
230
1
100
AcDbAlignedDimension
 13
178.1832174808542
 23
258.631134399752
 33
0
 14
330.28848063875
 24
258.6311343997519
 34
0
100
AcDbRotatedDimension
  0
LINE
  5
246
100
AcDbEntity
  8
builder
  6
ByLayer
 62
  256
370
   -1
100
AcDbLine
 10
334.2358490598037
 20
178.6897338882237
 11
153.8352516174276
 21
178.6897338882237
  0
LINE
  5
247
100
AcDbEntity
  8
0
  6
ByLayer
 62
  256
370
   -1
100
AcDbLine
 10
334.2358490598037
 20
133.6897338882238
 11
334.2358490598037
 21
178.6897338882237
  0
LINE
  5
248
100
AcDbEntity
  8
0
  6
ByLayer
 62
  256
370
   -1
100
AcDbLine
 10
334.2358490598037
 20
178.6897338882237
 11
174.235849059801
 21
178.6897338882237
  0
LINE
  5
249
100
AcDbEntity
  8
0
  6
ByLayer
 62
  256
370
   -1
100
AcDbLine
 10
174.235849059801
 20
178.6897338882237
 11
174.235849059801
 21
133.6897338882236
  0
LINE
  5
24A
100
AcDbEntity
  8
0
  6
ByLayer
 62
  256
370
   -1
100
AcDbLine
 10
174.235849059801
 20
133.6897338882236
 11
334.2358490598037
 21
133.6897338882238
  0
DIMENSION
  5
24B
100
AcDbEntity
  8
measures
  6
ByLayer
 62
  256
370
   -1
100
AcDbDimension
  2
*D28
 10
334.2358490598037
 20
122.1961757134592
 30
0
 11
254.2358490598023
 21
124.0711757134592
 31
0
 70
   32
 71
    5
 72
    0
  3
Standard
 53
0
210
0
220
0
230
1
100
AcDbAlignedDimension
 13
174.235849059801
 23
133.6897338882236
 33
0
 14
334.2358490598037
 24
133.6897338882238
 34
0
100
AcDbRotatedDimension
  0
DIMENSION
  5
24C
100
AcDbEntity
  8
measures
  6
ByLayer
 62
  256
370
   -1
100
AcDbDimension
  2
*D29
 10
345.0527933949769
 20
133.6897338882238
 30
0
 11
343.1777933949769
 21
156.1897338882238
 31
0
 70
   32
 71
    5
 72
    0
  3
Standard
 53
0
210
0
220
0
230
1
100
AcDbAlignedDimension
 13
334.2358490598037
 23
178.6897338882237
 33
0
 14
334.2358490598037
 24
133.6897338882238
 34
0
 50
90
100
AcDbRotatedDimension
  0
LINE
  5
24D
100
AcDbEntity
  8
builder
  6
ByLayer
 62
  256
370
   -1
100
AcDbLine
 10
149.4446894040481
 20
195.7167911374994
 11
346.2345755909632
 21
195.7167911374994
  0
DIMENSION
  5
24E
100
AcDbEntity
  8
measures
  6
ByLayer
 62
  256
370
   -1
100
AcDbDimension
  2
*D30
 10
155.4634082490145
 20
253.7983191994952
 30
0
 11
148.7225144536046
 21
241.994676717659
 31
0
 70
   33
 71
    5
 72
    0
  3
Standard
 53
0
210
0
220
0
230
1
100
AcDbAlignedDimension
 13
133.3813702483724
 23
233.6311343997519
 33
0
 14
143.3813702483725
 24
258.631134399752
 34
0
  0
LINE
  5
24F
100
AcDbEntity
  8
builder
  6
ByLayer
 62
  256
370
   -1
100
AcDbLine
 10
334.2358490598037
 20
222.6167911374999
 11
174.235849059801
 21
222.6167911374992
  0
LINE
  5
250
100
AcDbEntity
  8
0
  6
ByLayer
 62
  256
370
   -1
100
AcDbLine
 10
334.2358490598037
 20
195.7167911374994
 11
330.2358490598055
 21
222.6167911374999
  0
LINE
  5
251
100
AcDbEntity
  8
0
  6
ByLayer
 62
  256
370
   -1
100
AcDbLine
 10
330.2358490598055
 20
222.6167911374999
 11
178.2358490598
 21
222.6167911374993
  0
LINE
  5
252
100
AcDbEntity
  8
0
  6
ByLayer
 62
  256
370
   -1
100
AcDbLine
 10
178.2358490598
 20
222.6167911374993
 11
174.235849059801
 21
195.7167911374994
  0
LINE
  5
253
100
AcDbEntity
  8
0
  6
ByLayer
 62
  256
370
   -1
100
AcDbLine
 10
174.235849059801
 20
195.7167911374994
 11
334.2358490598037
 21
195.7167911374994
  0
DIMENSION
  5
254
100
AcDbEntity
  8
measures
  6
ByLayer
 62
  256
370
   -1
100
AcDbDimension
  2
*D31
 10
344.9913868676507
 20
222.6167911374999
 30
0
 11
343.1163868676507
 21
209.1667911374997
 31
0
 70
   32
 71
    5
 72
    0
  3
Standard
 53
0
210
0
220
0
230
1
100
AcDbAlignedDimension
 13
334.2358490598037
 23
195.7167911374994
 33
0
 14
330.2358490598055
 24
222.6167911374999
 34
0
 50
90
100
AcDbRotatedDimension
  0
DIMENSION
  5
255
100
AcDbEntity
  8
measures
  6
ByLayer
 62
  256
370
   -1
100
AcDbDimension
  2
*D32
 10
330.2358490598055
 20
230.9732451569405
 30
0
 11
254.2358490598027
 21
232.8482451569405
 31
0
 70
   32
 71
    5
 72
    0
  3
Standard
 53
0
210
0
220
0
230
1
100
AcDbAlignedDimension
 13
178.2358490598
 23
222.6167911374993
 33
0
 14
330.2358490598055
 24
222.6167911374999
 34
0
100
AcDbRotatedDimension
  0
CIRCLE
  5
256
100
AcDbEntity
  8
0
  6
ByLayer
 62
  256
370
   -1
100
AcDbCircle
 10
254.2358490598016
 20
313.6311343997473
 40
3
  0
CIRCLE
  5
257
100
AcDbEntity
  8
0
  6
ByLayer
 62
  256
370
   -1
100
AcDbCircle
 10
254.2358490598016
 20
276.6311343997482
 40
3
  0
DIMENSION
  5
258
100
AcDbEntity
  8
measures
  6
ByLayer
 62
  256
370
   -1
100
AcDbDimension
  2
*D33
 10
344.6956605184902
 20
313.6311343997473
 30
0
 11
342.8206605184902
 21
321.1311343997462
 31
0
 70
   32
 71
    5
 72
    0
  3
Standard
 53
0
210
0
220
0
230
1
100
AcDbAlignedDimension
 13
254.2358490598016
 23
328.6311343997451
 33
0
 14
254.2358490598016
 24
313.6311343997473
 34
0
 50
90
100
AcDbRotatedDimension
  0
DIMENSION
  5
259
100
AcDbEntity
  8
measures
  6
ByLayer
 62
  256
370
   -1
100
AcDbDimension
  2
*D34
 10
344.802513055594
 20
276.6311343997482
 30
0
 11
342.927513055594
 21
295.1311343997477
 31
0
 70
   32
 71
    5
 72
    0
  3
Standard
 53
0
210
0
220
0
230
1
100
AcDbAlignedDimension
 13
254.2358490598016
 23
313.6311343997473
 33
0
 14
254.2358490598016
 24
276.6311343997482
 34
0
 50
90
100
AcDbRotatedDimension
  0
DIMENSION
  5
25A
100
AcDbEntity
  8
measures
  6
ByLayer
 62
  256
370
   -1
100
AcDbDimension
  2
*D35
 10
344.802513055594
 20
258.6311343997519
 30
0
 11
342.927513055594
 21
267.6311343997501
 31
0
 70
   32
 71
    5
 72
    0
  3
Standard
 53
0
210
0
220
0
230
1
100
AcDbAlignedDimension
 13
254.2358490598016
 23
276.6311343997482
 33
0
 14
254.2358490598016
 24
258.6311343997519
 34
0
 50
90
100
AcDbRotatedDimension
  0
DIMENSION
  5
25B
100
AcDbEntity
  8
measures
  6
ByLayer
 62
  256
370
   -1
100
AcDbDimension
  2
*D36
 10
165.2494415337717
 20
259.6110744875538
 30
0
 11
169.449394362373
 21
295.4480559452626
 31
0
 70
   33
 71
    5
 72
    0
  3
Standard
 53
0
210
0
220
0
230
1
100
AcDbAlignedDimension
 13
189.235849059802
 23
328.6311343997451
 33
0
 14
177.139148602874
 24
257.5866222041792
 34
0
  0
DIMENSION
  5
25C
100
AcDbEntity
  8
measures
  6
ByLayer
 62
  256
370
   -1
100
AcDbDimension
  2
*D37
 10
360.9142204983818
 20
233.631134399752
 30
0
 11
359.0392204983818
 21
246.1311343997519
 31
0
 70
   32
 71
    5
 72
    0
  3
Standard
 53
0
210
0
220
0
230
1
100
AcDbAlignedDimension
 13
370.5211187578223
 23
258.6311343997519
 33
0
 14
380.5211187578205
 24
233.631134399752
 34
0
 50
90
100
AcDbRotatedDimension
  0
CIRCLE
  5
25D
100
AcDbEntity
  8
0
  6
ByLayer
 62
  256
370
   -1
100
AcDbCircle
 10
317.9117484165433
 20
456.4913482459178
 40
4
  0
CIRCLE
  5
25E
100
AcDbEntity
  8
0
  6
ByLayer
 62
  256
370
   -1
100
AcDbCircle
 10
190.5599497028361
 20
456.4913482458828
 40
4
  0
LINE
  5
25F
100
AcDbEntity
  8
0
  6
ByLayer
 62
  256
370
   -1
100
AcDbLine
 10
143.3813702483725
 20
258.631134399752
 11
133.3813702483724
 21
329.8111343997519
  0
DIMENSION
  5
260
100
AcDbEntity
  8
measures
  6
ByLayer
 62
  256
370
   -1
100
AcDbDimension
  2
*D38
 10
154.171110723505
 20
260.1469731852441
 30
0
 11
151.027876639571
 21
295.997828188906
 31
0
 70
   33
 71
    5
  3
Standard
 53
0
210
0
220
0
230
1
100
AcDbAlignedDimension
 13
133.3813702483724
 23
329.8111343997519
 33
0
 14
143.3813702483725
 24
258.631134399752
 34
0
  0
LINE
  5
261
100
AcDbEntity
  8
0
  6
ByLayer
 62
  256
370
   -1
100
AcDbLine
 10
370.5211187578221
 20
258.6311343997521
 11
380.5211187578205
 21
329.8111343997519
  0
DIMENSION
  5
262
100
AcDbEntity
  8
measures
  6
ByLayer
 62
  256
370
   -1
100
AcDbDimension
  2
*D39
 10
360.8805640112919
 20
258.631134399752
 30
0
 11
359.0055640112919
 21
294.221134399752
 31
0
 70
   32
 71
    5
  3
Standard
 53
0
210
0
220
0
230
1
100
AcDbAlignedDimension
 13
380.5211187578205
 23
329.8111343997519
 33
0
 14
370.5211187578221
 24
258.631134399752
 34
0
 50
90
100
AcDbRotatedDimension
  0
ENDSEC
  0
SECTION
  2
OBJECTS
  0
DICTIONARY
  5
C
330
0
100
AcDbDictionary
281
    1
  3
ACAD_GROUP
350
D
  0
DICTIONARY
  5
D
330
C
100
AcDbDictionary
281
    1
  0
PLOTSETTINGS
  5
263
100
AcDbPlotSettings
  6
1x1
 40
0
 41
0
 42
0
 43
0
  0
ENDSEC
  0
EOF
