999
dxfrw 0.6.3
  0
SECTION
  2
HEADER
  9
$ACADVER
  1
AC1021
  9
$DWGCODEPAGE
  3
ANSI_1252
  9
$INSBASE
 10
0
 20
0
 30
0
  9
$EXTMIN
 10
65.58258775612619
 20
-58.96428217400999
 30
0
  9
$EXTMAX
 10
464.1901561646019
 20
589.1379682027958
 30
0
  9
$LIMMIN
 10
0
 20
0
  9
$LIMMAX
 10
420
 20
297
  9
$ORTHOMODE
 70
    0
  9
$REGENMODE
 70
    1
  9
$FILLMODE
 70
    1
  9
$QTEXTMODE
 70
    0
  9
$MIRRTEXT
 70
    0
  9
$LTSCALE
 40
1
  9
$ATTMODE
 70
    0
  9
$TEXTSIZE
 40
2.5
  9
$TRACEWID
 40
15.68
  9
$TEXTSTYLE
  7
STANDARD
  9
$CLAYER
  8
builder
  9
$CELTYPE
  6
BYLAYER
  9
$CECOLOR
 62
  256
  9
$CELTSCALE
 40
1
  9
$DISPSILH
 70
    0
  9
$DIMSCALE
 40
1
  9
$DIMASZ
 40
2.5
  9
$DIMEXO
 40
0.625
  9
$DIMDLI
 40
3.75
  9
$DIMRND
 40
0
  9
$DIMDLE
 40
0
  9
$DIMEXE
 40
1.25
  9
$DIMTP
 40
0
  9
$DIMTM
 40
0
  9
$DIMTXT
 40
2.5
  9
$DIMCEN
 40
2.5
  9
$DIMTSZ
 40
0
  9
$DIMTOL
 70
    0
  9
$DIMLIM
 70
    0
  9
$DIMTIH
 70
    0
  9
$DIMTOH
 70
    0
  9
$DIMSE1
 70
    0
  9
$DIMSE2
 70
    0
  9
$DIMTAD
 70
    1
  9
$DIMZIN
 70
    8
  9
$DIMBLK
  1

  9
$DIMASO
 70
    1
  9
$DIMSHO
 70
    1
  9
$DIMPOST
  1

  9
$DIMAPOST
  1

  9
$DIMALT
 70
    0
  9
$DIMALTD
 70
    3
  9
$DIMALTF
 40
0.03937
  9
$DIMLFAC
 40
1
  9
$DIMTOFL
 70
    1
  9
$DIMTVP
 40
0
  9
$DIMTIX
 70
    0
  9
$DIMSOXD
 70
    0
  9
$DIMSAH
 70
    0
  9
$DIMBLK1
  1

  9
$DIMBLK2
  1

  9
$DIMSTYLE
  2
STANDARD
  9
$DIMCLRD
 70
    0
  9
$DIMCLRE
 70
    0
  9
$DIMCLRT
 70
    0
  9
$DIMTFAC
 40
1
  9
$DIMGAP
 40
0.625
  9
$DIMJUST
 70
    0
  9
$DIMSD1
 70
    0
  9
$DIMSD2
 70
    0
  9
$DIMTOLJ
 70
    0
  9
$DIMTZIN
 70
    8
  9
$DIMALTZ
 70
    0
  9
$DIMALTTZ
 70
    0
  9
$DIMUPT
 70
    0
  9
$DIMDEC
 70
    2
  9
$DIMTDEC
 70
    2
  9
$DIMALTU
 70
    2
  9
$DIMALTTD
 70
    3
  9
$DIMTXSTY
  7
STANDARD
  9
$DIMAUNIT
 70
    0
  9
$DIMADEC
 70
    0
  9
$DIMALTRND
 40
0
  9
$DIMAZIN
 70
    0
  9
$DIMDSEP
 70
   44
  9
$DIMATFIT
 70
    3
  9
$DIMFRAC
 70
    0
  9
$DIMLDRBLK
  1
STANDARD
  9
$DIMLUNIT
 70
    2
  9
$DIMLWD
 70
   -2
  9
$DIMLWE
 70
   -2
  9
$DIMTMOVE
 70
    0
  9
$DIMFXL
 40
1
  9
$DIMFXLON
 70
    0
  9
$DIMJOGANG
 40
0.7854
  9
$DIMTFILL
 70
    0
  9
$DIMTFILLCLR
 70
    0
  9
$DIMARCSYM
 70
    0
  9
$DIMLTYPE
  6

  9
$DIMLTEX1
  6

  9
$DIMLTEX2
  6

  9
$LUNITS
 70
    2
  9
$LUPREC
 70
    4
  9
$SKETCHINC
 40
1
  9
$FILLETRAD
 40
0
  9
$AUNITS
 70
    0
  9
$AUPREC
 70
    2
  9
$MENU
  1
.
  9
$ELEVATION
 40
0
  9
$PELEVATION
 40
0
  9
$THICKNESS
 40
0
  9
$LIMCHECK
 70
    0
  9
$CHAMFERA
 40
0
  9
$CHAMFERB
 40
0
  9
$CHAMFERC
 40
0
  9
$CHAMFERD
 40
0
  9
$SKPOLY
 70
    0
  9
$USRTIMER
 70
    1
  9
$ANGBASE
 50
0
  9
$ANGDIR
 70
    0
  9
$PDMODE
 70
   34
  9
$PDSIZE
 40
0
  9
$PLINEWID
 40
0
  9
$SPLFRAME
 70
    0
  9
$SPLINETYPE
 70
    2
  9
$SPLINESEGS
 70
    8
  9
$HANDSEED
  5
20000
  9
$SURFTAB1
 70
    6
  9
$SURFTAB2
 70
    6
  9
$SURFTYPE
 70
    6
  9
$SURFU
 70
    6
  9
$SURFV
 70
    6
  9
$UCSBASE
  2

  9
$UCSNAME
  2

  9
$UCSORG
 10
0
 20
0
 30
0
  9
$UCSXDIR
 10
1
 20
0
 30
0
  9
$UCSYDIR
 10
0
 20
1
 30
0
  9
$UCSORTHOREF
  2

  9
$UCSORTHOVIEW
 70
    0
  9
$UCSORGTOP
 10
0
 20
0
 30
0
  9
$UCSORGBOTTOM
 10
0
 20
0
 30
0
  9
$UCSORGLEFT
 10
0
 20
0
 30
0
  9
$UCSORGRIGHT
 10
0
 20
0
 30
0
  9
$UCSORGFRONT
 10
0
 20
0
 30
0
  9
$UCSORGBACK
 10
0
 20
0
 30
0
  9
$PUCSBASE
  2

  9
$PUCSNAME
  2

  9
$PUCSORG
 10
0
 20
0
 30
0
  9
$PUCSXDIR
 10
1
 20
0
 30
0
  9
$PUCSYDIR
 10
0
 20
1
 30
0
  9
$PUCSORTHOREF
  2

  9
$PUCSORTHOVIEW
 70
    0
  9
$PUCSORGTOP
 10
0
 20
0
 30
0
  9
$PUCSORGBOTTOM
 10
0
 20
0
 30
0
  9
$PUCSORGLEFT
 10
0
 20
0
 30
0
  9
$PUCSORGRIGHT
 10
0
 20
0
 30
0
  9
$PUCSORGFRONT
 10
0
 20
0
 30
0
  9
$PUCSORGBACK
 10
0
 20
0
 30
0
  9
$USERI1
 70
    0
  9
$USERI2
 70
    0
  9
$USERI3
 70
    0
  9
$USERI4
 70
    0
  9
$USERI5
 70
    0
  9
$USERR1
 40
0
  9
$USERR2
 40
0
  9
$USERR3
 40
0
  9
$USERR4
 40
0
  9
$USERR5
 40
0
  9
$WORLDVIEW
 70
    1
  9
$SHADEDGE
 70
    3
  9
$SHADEDIF
 70
   70
  9
$TILEMODE
 70
    1
  9
$MAXACTVP
 70
   64
  9
$PINSBASE
 10
0
 20
0
 30
0
  9
$PLIMCHECK
 70
    0
  9
$PEXTMIN
 10
0
 20
0
 30
0
  9
$PEXTMAX
 10
0
 20
0
 30
0
  9
$GRIDMODE
 70
    1
  9
$SNAPSTYLE
 70
    0
  9
$PLIMMIN
 10
0
 20
0
  9
$PLIMMAX
 10
297
 20
210
  9
$UNITMODE
 70
    0
  9
$VISRETAIN
 70
    1
  9
$PLINEGEN
 70
    0
  9
$PSLTSCALE
 70
    1
  9
$TREEDEPTH
 70
 3020
  9
$CMLSTYLE
  2
Standard
  9
$CMLJUST
 70
    0
  9
$CMLSCALE
 40
20
  9
$PROXYGRAPHICS
 70
    1
  9
$MEASUREMENT
 70
    1
  9
$CELWEIGHT
370
   -1
  9
$ENDCAPS
280
    0
  9
$JOINSTYLE
280
    0
  9
$LWDISPLAY
290
    0
  9
$INSUNITS
 70
    4
  9
$HYPERLINKBASE
  1

  9
$STYLESHEET
  1

  9
$XEDIT
290
    1
  9
$CEPSNTYPE
380
    0
  9
$PSTYLEMODE
290
    1
  9
$EXTNAMES
290
    1
  9
$PSVPSCALE
 40
1
  9
$OLESTARTUP
290
    0
  9
$SORTENTS
280
  127
  9
$INDEXCTL
280
    0
  9
$HIDETEXT
280
    1
  9
$XCLIPFRAME
290
    0
  9
$HALOGAP
280
    0
  9
$OBSCOLOR
 70
  257
  9
$OBSLTYPE
280
    0
  9
$INTERSECTIONDISPLAY
280
    0
  9
$INTERSECTIONCOLOR
 70
  257
  9
$DIMASSOC
280
    1
  9
$PROJECTNAME
  1

  9
$CAMERADISPLAY
290
    0
  9
$LENSLENGTH
 40
50
  9
$CAMERAHEIGHT
 40
0
  9
$STEPSPERSEC
 40
2
  9
$STEPSIZE
 40
50
  9
$3DDWFPREC
 40
2
  9
$PSOLWIDTH
 40
5
  9
$PSOLHEIGHT
 40
80
  9
$LOFTANG1
 40
1.570796326794897
  9
$LOFTANG2
 40
1.570796326794897
  9
$LOFTMAG1
 40
0
  9
$LOFTMAG2
 40
0
  9
$LOFTPARAM
 70
    7
  9
$LOFTNORMALS
280
    1
  9
$LATITUDE
 40
1
  9
$LONGITUDE
 40
1
  9
$NORTHDIRECTION
 40
0
  9
$TIMEZONE
 70
-8000
  9
$LIGHTGLYPHDISPLAY
280
    1
  9
$TILEMODELIGHTSYNCH
280
    1
  9
$SOLIDHIST
280
    1
  9
$SHOWHIST
280
    1
  9
$DWFFRAME
280
    2
  9
$DGNFRAME
280
    0
  9
$REALWORLDSCALE
290
    1
  9
$INTERFERECOLOR
 62
    1
  9
$CSHADOW
280
    0
  9
$SHADOWPLANELOCATION
 40
0
  0
ENDSEC
  0
SECTION
  2
CLASSES
  0
ENDSEC
  0
SECTION
  2
TABLES
  0
TABLE
  2
VPORT
  5
8
330
0
100
AcDbSymbolTable
 70
    1
  0
VPORT
  5
31
330
2
100
AcDbSymbolTableRecord
100
AcDbViewportTableRecord
  2
*ACTIVE
 70
    0
 10
0
 20
0
 11
1
 21
1
 12
523.1161111880164
 22
343.9296606775396
 13
0
 23
0
 14
10
 24
10
 15
10
 25
10
 16
0
 26
0
 36
1
 17
0
 27
0
 37
0
 40
733.8971499497106
 41
1.91389913899139
 42
50
 43
0
 44
0
 50
0
 51
0
 71
    0
 72
  100
 73
    1
 74
    3
 75
    0
 76
    1
 77
    0
 78
    0
281
    0
 65
    1
110
0
120
0
130
0
111
1
121
0
131
0
112
0
122
1
132
0
 79
    0
146
0
348
10020
 60
    7
 61
    5
292
1
282
    1
141
0
142
0
 63
  250
421
3358443
  0
ENDTAB
  0
TABLE
  2
LTYPE
  5
5
330
0
100
AcDbSymbolTable
 70
    4
  0
LTYPE
  5
14
330
5
100
AcDbSymbolTableRecord
100
AcDbLinetypeTableRecord
  2
ByBlock
 70
    0
  3

 72
   65
 73
    0
 40
0
  0
LTYPE
  5
15
330
5
100
AcDbSymbolTableRecord
100
AcDbLinetypeTableRecord
  2
ByLayer
 70
    0
  3

 72
   65
 73
    0
 40
0
  0
LTYPE
  5
16
330
5
100
AcDbSymbolTableRecord
100
AcDbLinetypeTableRecord
  2
Continuous
 70
    0
  3
Solid line
 72
   65
 73
    0
 40
0
  0
LTYPE
  5
32
330
5
100
AcDbSymbolTableRecord
100
AcDbLinetypeTableRecord
  2
DOT
 70
    0
  3
Dot . . . . . . . . . . . . . . . . . . . . . .
 72
   65
 73
    2
 40
6.35
 49
0
 74
    0
 49
-6.35
 74
    0
  0
LTYPE
  5
33
330
5
100
AcDbSymbolTableRecord
100
AcDbLinetypeTableRecord
  2
DOTTINY
 70
    0
  3
Dot (.15x) .....................................
 72
   65
 73
    2
 40
0.9525
 49
0
 74
    0
 49
-0.9525
 74
    0
  0
LTYPE
  5
34
330
5
100
AcDbSymbolTableRecord
100
AcDbLinetypeTableRecord
  2
DOT2
 70
    0
  3
Dot (.5x) .....................................
 72
   65
 73
    2
 40
3.175
 49
0
 74
    0
 49
-3.175
 74
    0
  0
LTYPE
  5
35
330
5
100
AcDbSymbolTableRecord
100
AcDbLinetypeTableRecord
  2
DOTX2
 70
    0
  3
Dot (2x) .  .  .  .  .  .  .  .  .  .  .  .  .
 72
   65
 73
    2
 40
12.7
 49
0
 74
    0
 49
-12.7
 74
    0
  0
LTYPE
  5
36
330
5
100
AcDbSymbolTableRecord
100
AcDbLinetypeTableRecord
  2
DASHED
 70
    0
  3
Dashed _ _ _ _ _ _ _ _ _ _ _ _ _ _ _ _ _
 72
   65
 73
    2
 40
19.05
 49
12.7
 74
    0
 49
-6.35
 74
    0
  0
LTYPE
  5
37
330
5
100
AcDbSymbolTableRecord
100
AcDbLinetypeTableRecord
  2
DASHEDTINY
 70
    0
  3
Dashed (.15x) _ _ _ _ _ _ _ _ _ _ _ _ _ _ _ _ _
 72
   65
 73
    2
 40
2.8575
 49
1.905
 74
    0
 49
-0.9525
 74
    0
  0
LTYPE
  5
38
330
5
100
AcDbSymbolTableRecord
100
AcDbLinetypeTableRecord
  2
DASHED2
 70
    0
  3
Dashed (.5x) _ _ _ _ _ _ _ _ _ _ _ _ _ _ _ _ _
 72
   65
 73
    2
 40
9.524999999999999
 49
6.35
 74
    0
 49
-3.175
 74
    0
  0
LTYPE
  5
39
330
5
100
AcDbSymbolTableRecord
100
AcDbLinetypeTableRecord
  2
DASHEDX2
 70
    0
  3
Dashed (2x) ____  ____  ____  ____  ____  ___
 72
   65
 73
    2
 40
38.09999999999999
 49
25.4
 74
    0
 49
-12.7
 74
    0
  0
LTYPE
  5
3A
330
5
100
AcDbSymbolTableRecord
100
AcDbLinetypeTableRecord
  2
DASHDOT
 70
    0
  3
Dash dot __ . __ . __ . __ . __ . __ . __ . __
 72
   65
 73
    4
 40
25.4
 49
12.7
 74
    0
 49
-6.35
 74
    0
 49
0
 74
    0
 49
-6.35
 74
    0
  0
LTYPE
  5
3B
330
5
100
AcDbSymbolTableRecord
100
AcDbLinetypeTableRecord
  2
DASHDOTTINY
 70
    0
  3
Dash dot (.15x) _._._._._._._._._._._._._._._.
 72
   65
 73
    4
 40
3.81
 49
1.905
 74
    0
 49
-0.9525
 74
    0
 49
0
 74
    0
 49
-0.9525
 74
    0
  0
LTYPE
  5
3C
330
5
100
AcDbSymbolTableRecord
100
AcDbLinetypeTableRecord
  2
DASHDOT2
 70
    0
  3
Dash dot (.5x) _._._._._._._._._._._._._._._.
 72
   65
 73
    4
 40
12.7
 49
6.35
 74
    0
 49
-3.175
 74
    0
 49
0
 74
    0
 49
-3.175
 74
    0
  0
LTYPE
  5
3D
330
5
100
AcDbSymbolTableRecord
100
AcDbLinetypeTableRecord
  2
DASHDOTX2
 70
    0
  3
Dash dot (2x) ____  .  ____  .  ____  .  ___
 72
   65
 73
    4
 40
50.8
 49
25.4
 74
    0
 49
-12.7
 74
    0
 49
0
 74
    0
 49
-12.7
 74
    0
  0
LTYPE
  5
3E
330
5
100
AcDbSymbolTableRecord
100
AcDbLinetypeTableRecord
  2
DIVIDE
 70
    0
  3
Divide ____ . . ____ . . ____ . . ____ . . ____
 72
   65
 73
    6
 40
31.75
 49
12.7
 74
    0
 49
-6.35
 74
    0
 49
0
 74
    0
 49
-6.35
 74
    0
 49
0
 74
    0
 49
-6.35
 74
    0
  0
LTYPE
  5
3F
330
5
100
AcDbSymbolTableRecord
100
AcDbLinetypeTableRecord
  2
DIVIDETINY
 70
    0
  3
Divide (.15x) __..__..__..__..__..__..__..__.._
 72
   65
 73
    6
 40
4.7625
 49
1.905
 74
    0
 49
-0.9525
 74
    0
 49
0
 74
    0
 49
-0.9525
 74
    0
 49
0
 74
    0
 49
-0.9525
 74
    0
  0
LTYPE
  5
40
330
5
100
AcDbSymbolTableRecord
100
AcDbLinetypeTableRecord
  2
DIVIDE2
 70
    0
  3
Divide (.5x) __..__..__..__..__..__..__..__.._
 72
   65
 73
    6
 40
15.875
 49
6.35
 74
    0
 49
-3.175
 74
    0
 49
0
 74
    0
 49
-3.175
 74
    0
 49
0
 74
    0
 49
-3.175
 74
    0
  0
LTYPE
  5
41
330
5
100
AcDbSymbolTableRecord
100
AcDbLinetypeTableRecord
  2
DIVIDEX2
 70
    0
  3
Divide (2x) ________  .  .  ________  .  .  _
 72
   65
 73
    6
 40
63.5
 49
25.4
 74
    0
 49
-12.7
 74
    0
 49
0
 74
    0
 49
-12.7
 74
    0
 49
0
 74
    0
 49
-12.7
 74
    0
  0
LTYPE
  5
42
330
5
100
AcDbSymbolTableRecord
100
AcDbLinetypeTableRecord
  2
BORDER
 70
    0
  3
Border __ __ . __ __ . __ __ . __ __ . __ __ .
 72
   65
 73
    6
 40
44.45
 49
12.7
 74
    0
 49
-6.35
 74
    0
 49
12.7
 74
    0
 49
-6.35
 74
    0
 49
0
 74
    0
 49
-6.35
 74
    0
  0
LTYPE
  5
43
330
5
100
AcDbSymbolTableRecord
100
AcDbLinetypeTableRecord
  2
BORDERTINY
 70
    0
  3
Border (.15x) __.__.__.__.__.__.__.__.__.__.__.
 72
   65
 73
    6
 40
6.6675
 49
1.905
 74
    0
 49
-0.9525
 74
    0
 49
1.905
 74
    0
 49
-0.9525
 74
    0
 49
0
 74
    0
 49
-0.9525
 74
    0
  0
LTYPE
  5
44
330
5
100
AcDbSymbolTableRecord
100
AcDbLinetypeTableRecord
  2
BORDER2
 70
    0
  3
Border (.5x) __.__.__.__.__.__.__.__.__.__.__.
 72
   65
 73
    6
 40
22.225
 49
6.35
 74
    0
 49
-3.175
 74
    0
 49
6.35
 74
    0
 49
-3.175
 74
    0
 49
0
 74
    0
 49
-3.175
 74
    0
  0
LTYPE
  5
45
330
5
100
AcDbSymbolTableRecord
100
AcDbLinetypeTableRecord
  2
BORDERX2
 70
    0
  3
Border (2x) ____  ____  .  ____  ____  .  ___
 72
   65
 73
    6
 40
88.89999999999999
 49
25.4
 74
    0
 49
-12.7
 74
    0
 49
25.4
 74
    0
 49
-12.7
 74
    0
 49
0
 74
    0
 49
-12.7
 74
    0
  0
LTYPE
  5
46
330
5
100
AcDbSymbolTableRecord
100
AcDbLinetypeTableRecord
  2
CENTER
 70
    0
  3
Center ____ _ ____ _ ____ _ ____ _ ____ _ ____
 72
   65
 73
    4
 40
50.8
 49
31.75
 74
    0
 49
-6.35
 74
    0
 49
6.35
 74
    0
 49
-6.35
 74
    0
  0
LTYPE
  5
47
330
5
100
AcDbSymbolTableRecord
100
AcDbLinetypeTableRecord
  2
CENTERTINY
 70
    0
  3
Center (.15x) ___ _ ___ _ ___ _ ___ _ ___ _ ___
 72
   65
 73
    4
 40
7.619999999999999
 49
4.7625
 74
    0
 49
-0.9525
 74
    0
 49
0.9525
 74
    0
 49
-0.9525
 74
    0
  0
LTYPE
  5
48
330
5
100
AcDbSymbolTableRecord
100
AcDbLinetypeTableRecord
  2
CENTER2
 70
    0
  3
Center (.5x) ___ _ ___ _ ___ _ ___ _ ___ _ ___
 72
   65
 73
    4
 40
28.575
 49
19.05
 74
    0
 49
-3.175
 74
    0
 49
3.175
 74
    0
 49
-3.175
 74
    0
  0
LTYPE
  5
49
330
5
100
AcDbSymbolTableRecord
100
AcDbLinetypeTableRecord
  2
CENTERX2
 70
    0
  3
Center (2x) ________  __  ________  __  _____
 72
   65
 73
    4
 40
101.6
 49
63.5
 74
    0
 49
-12.7
 74
    0
 49
12.7
 74
    0
 49
-12.7
 74
    0
  0
ENDTAB
  0
TABLE
  2
LAYER
  5
2
330
0
100
AcDbSymbolTable
 70
    1
  0
LAYER
  5
10
330
2
100
AcDbSymbolTableRecord
100
AcDbLayerTableRecord
  2
0
 70
    0
 62
    7
  6
CONTINUOUS
370
   70
390
F
  0
LAYER
  5
4A
330
2
100
AcDbSymbolTableRecord
100
AcDbLayerTableRecord
  2
builder
 70
    1
 62
  253
420
10526884
  6
DASHED
370
   13
390
F
  0
LAYER
  5
4B
330
2
100
AcDbSymbolTableRecord
100
AcDbLayerTableRecord
  2
measures
 70
    0
 62
    6
  6
CONTINUOUS
370
   35
390
F
  0
ENDTAB
  0
TABLE
  2
STYLE
  5
3
330
0
100
AcDbSymbolTable
 70
    3
  0
STYLE
  5
4C
330
2
100
AcDbSymbolTableRecord
100
AcDbTextStyleTableRecord
  2
Standard
 70
    0
 40
0
 41
1
 50
0
 71
    0
 42
1
  3
txt
  4

  0
ENDTAB
  0
TABLE
  2
VIEW
  5
6
330
0
100
AcDbSymbolTable
 70
    0
  0
ENDTAB
  0
TABLE
  2
UCS
  5
7
330
0
100
AcDbSymbolTable
 70
    0
  0
ENDTAB
  0
TABLE
  2
APPID
  5
9
330
0
100
AcDbSymbolTable
 70
    1
  0
APPID
  5
12
330
9
100
AcDbSymbolTableRecord
100
AcDbRegAppTableRecord
  2
ACAD
 70
    0
  0
APPID
  5
4D
330
9
100
AcDbSymbolTableRecord
100
AcDbRegAppTableRecord
  2
LibreCad
 70
    0
  0
ENDTAB
  0
TABLE
  2
DIMSTYLE
  5
A
330
0
100
AcDbSymbolTable
 70
    1
100
AcDbDimStyleTable
 71
    1
  0
DIMSTYLE
105
4E
330
A
100
AcDbSymbolTableRecord
100
AcDbDimStyleTableRecord
  2
Standard
 70
    0
 40
1
 41
2.5
 42
0.625
 43
0.38
 44
1.25
 45
0
 46
0
 47
0
 48
0
 49
1
140
2.5
141
0.09
142
0
143
25.4
144
1
145
0
146
1
147
0.625
148
0
 71
    0
 72
    0
 73
    0
 74
    1
 75
    0
 76
    0
 77
    0
 78
    8
 79
    0
170
    0
171
    2
172
    0
173
    0
174
    0
175
    0
176
    0
177
    0
178
    0
179
    0
271
    2
272
    4
273
    2
274
    2
275
    0
276
    0
277
    2
278
   44
279
    0
280
    0
281
    0
282
    0
283
    1
284
    0
285
    0
286
    0
288
    0
289
    3
340
STANDARD
341

371
   -2
372
   -2
  0
ENDTAB
  0
TABLE
  2
BLOCK_RECORD
  5
1
330
0
100
AcDbSymbolTable
 70
    2
  0
BLOCK_RECORD
  5
1F
330
1
100
AcDbSymbolTableRecord
100
AcDbBlockTableRecord
  2
*Model_Space
 70
    0
280
    1
281
    0
  0
BLOCK_RECORD
  5
1E
330
1
100
AcDbSymbolTableRecord
100
AcDbBlockTableRecord
  2
*Paper_Space
 70
    0
280
    1
281
    0
  0
BLOCK_RECORD
  5
4F
330
1
100
AcDbSymbolTableRecord
100
AcDbBlockTableRecord
  2
*D20
 70
    0
280
    1
281
    0
  0
BLOCK_RECORD
  5
52
330
1
100
AcDbSymbolTableRecord
100
AcDbBlockTableRecord
  2
*D21
 70
    0
280
    1
281
    0
  0
BLOCK_RECORD
  5
55
330
1
100
AcDbSymbolTableRecord
100
AcDbBlockTableRecord
  2
*D13
 70
    0
280
    1
281
    0
  0
BLOCK_RECORD
  5
58
330
1
100
AcDbSymbolTableRecord
100
AcDbBlockTableRecord
  2
*D15
 70
    0
280
    1
281
    0
  0
BLOCK_RECORD
  5
5B
330
1
100
AcDbSymbolTableRecord
100
AcDbBlockTableRecord
  2
*D8
 70
    0
280
    1
281
    0
  0
BLOCK_RECORD
  5
5E
330
1
100
AcDbSymbolTableRecord
100
AcDbBlockTableRecord
  2
*D7
 70
    0
280
    1
281
    0
  0
BLOCK_RECORD
  5
61
330
1
100
AcDbSymbolTableRecord
100
AcDbBlockTableRecord
  2
*D1
 70
    0
280
    1
281
    0
  0
BLOCK_RECORD
  5
64
330
1
100
AcDbSymbolTableRecord
100
AcDbBlockTableRecord
  2
*D6
 70
    0
280
    1
281
    0
  0
BLOCK_RECORD
  5
67
330
1
100
AcDbSymbolTableRecord
100
AcDbBlockTableRecord
  2
*D14
 70
    0
280
    1
281
    0
  0
BLOCK_RECORD
  5
6A
330
1
100
AcDbSymbolTableRecord
100
AcDbBlockTableRecord
  2
*D17
 70
    0
280
    1
281
    0
  0
BLOCK_RECORD
  5
6D
330
1
100
AcDbSymbolTableRecord
100
AcDbBlockTableRecord
  2
*D19
 70
    0
280
    1
281
    0
  0
BLOCK_RECORD
  5
70
330
1
100
AcDbSymbolTableRecord
100
AcDbBlockTableRecord
  2
*D10
 70
    0
280
    1
281
    0
  0
BLOCK_RECORD
  5
73
330
1
100
AcDbSymbolTableRecord
100
AcDbBlockTableRecord
  2
*D5
 70
    0
280
    1
281
    0
  0
BLOCK_RECORD
  5
76
330
1
100
AcDbSymbolTableRecord
100
AcDbBlockTableRecord
  2
*D3
 70
    0
280
    1
281
    0
  0
BLOCK_RECORD
  5
79
330
1
100
AcDbSymbolTableRecord
100
AcDbBlockTableRecord
  2
*D2
 70
    0
280
    1
281
    0
  0
BLOCK_RECORD
  5
7C
330
1
100
AcDbSymbolTableRecord
100
AcDbBlockTableRecord
  2
*D9
 70
    0
280
    1
281
    0
  0
BLOCK_RECORD
  5
7F
330
1
100
AcDbSymbolTableRecord
100
AcDbBlockTableRecord
  2
*D12
 70
    0
280
    1
281
    0
  0
BLOCK_RECORD
  5
82
330
1
100
AcDbSymbolTableRecord
100
AcDbBlockTableRecord
  2
*D11
 70
    0
280
    1
281
    0
  0
BLOCK_RECORD
  5
85
330
1
100
AcDbSymbolTableRecord
100
AcDbBlockTableRecord
  2
*D16
 70
    0
280
    1
281
    0
  0
BLOCK_RECORD
  5
88
330
1
100
AcDbSymbolTableRecord
100
AcDbBlockTableRecord
  2
*D18
 70
    0
280
    1
281
    0
  0
BLOCK_RECORD
  5
8B
330
1
100
AcDbSymbolTableRecord
100
AcDbBlockTableRecord
  2
*D4
 70
    0
280
    1
281
    0
  0
ENDTAB
  0
ENDSEC
  0
SECTION
  2
BLOCKS
  0
BLOCK
  5
20
330
1F
100
AcDbEntity
  8
0
100
AcDbBlockBegin
  2
*Model_Space
 70
    0
 10
0
 20
0
 30
0
  3
*Model_Space
  1

  0
ENDBLK
  5
21
330
1F
100
AcDbEntity
  8
0
100
AcDbBlockEnd
  0
BLOCK
  5
1C
330
1B
100
AcDbEntity
  8
0
100
AcDbBlockBegin
  2
*Paper_Space
 70
    0
 10
0
 20
0
 30
0
  3
*Paper_Space
  1

  0
ENDBLK
  5
1D
330
1F
100
AcDbEntity
  8
0
100
AcDbBlockEnd
  0
BLOCK
  5
50
330
4F
100
AcDbEntity
  8
0
100
AcDbBlockBegin
  2
*D20
 70
    1
 10
0
 20
0
  3
*D20
  1

  0
LINE
  5
8E
100
AcDbEntity
  8
measures
  6
ByBlock
 62
    0
370
   -2
100
AcDbLine
 10
68.7075877561262
 20
116.1655196378957
 11
68.7075877561262
 21
206.7155196378955
  0
MTEXT
  5
8F
100
AcDbEntity
  8
measures
  6
CONTINUOUS
 62
    0
370
   -2
100
AcDbMText
 10
66.8325877561262
 20
161.4405196378956
 30
0
 40
2.5
 41
7.916666666667132
 71
    5
 72
    1
  1
90,55
  7
STANDARD
210
0
220
0
230
1
 50
90
 73
    2
 44
1
  0
SOLID
  5
90
100
AcDbEntity
  8
measures
  6
ByBlock
 62
    0
370
   -2
100
AcDbTrace
 10
68.7075877561262
 20
116.1655196378957
 30
0
 11
68.29130309835337
 21
118.6655196378957
 31
0
 12
69.12387241389904
 22
118.6655196378957
 32
0
 13
69.12387241389904
 23
118.6655196378957
 33
0
  0
SOLID
  5
91
100
AcDbEntity
  8
measures
  6
ByBlock
 62
    0
370
   -2
100
AcDbTrace
 10
68.7075877561262
 20
206.7155196378955
 30
0
 11
69.12387241389904
 21
204.2155196378955
 31
0
 12
68.29130309835337
 22
204.2155196378955
 32
0
 13
68.29130309835337
 23
204.2155196378955
 33
0
  0
LINE
  5
92
100
AcDbEntity
  8
measures
  6
ByBlock
 62
    0
370
   -2
100
AcDbLine
 10
78.25659744240608
 20
116.1655196378957
 11
67.4575877561262
 21
116.1655196378957
  0
LINE
  5
93
100
AcDbEntity
  8
measures
  6
ByBlock
 62
    0
370
   -2
100
AcDbLine
 10
78.25659744240602
 20
206.7155196378955
 11
67.4575877561262
 21
206.7155196378955
  0
ENDBLK
  5
51
330
4F
100
AcDbEntity
  8
0
100
AcDbBlockEnd
  0
BLOCK
  5
53
330
52
100
AcDbEntity
  8
0
100
AcDbBlockBegin
  2
*D21
 70
    1
 10
0
 20
0
  3
*D21
  1

  0
LINE
  5
94
100
AcDbEntity
  8
measures
  6
ByBlock
 62
    0
370
   -2
100
AcDbLine
 10
78.88159744240608
 20
106.5422950692833
 11
113.8815974424072
 21
106.5422950692833
  0
MTEXT
  5
95
100
AcDbEntity
  8
measures
  6
CONTINUOUS
 62
    0
370
   -2
100
AcDbMText
 10
96.38159744240664
 20
108.4172950692833
 30
0
 40
2.5
 41
3.055555555555866
 71
    5
 72
    1
  1
35
  7
STANDARD
210
0
220
0
230
1
 50
0
 73
    2
 44
1
  0
SOLID
  5
96
100
AcDbEntity
  8
measures
  6
ByBlock
 62
    0
370
   -2
100
AcDbTrace
 10
78.88159744240608
 20
106.5422950692833
 30
0
 11
81.38159744240608
 21
106.9585797270561
 31
0
 12
81.38159744240608
 22
106.1260104115105
 32
0
 13
81.38159744240608
 23
106.1260104115105
 33
0
  0
SOLID
  5
97
100
AcDbEntity
  8
measures
  6
ByBlock
 62
    0
370
   -2
100
AcDbTrace
 10
113.8815974424072
 20
106.5422950692833
 30
0
 11
111.3815974424072
 21
106.1260104115105
 31
0
 12
111.3815974424072
 22
106.9585797270561
 32
0
 13
111.3815974424072
 23
106.9585797270561
 33
0
  0
LINE
  5
98
100
AcDbEntity
  8
measures
  6
ByBlock
 62
    0
370
   -2
100
AcDbLine
 10
78.88159744240608
 20
115.5405196378957
 11
78.88159744240608
 21
105.2922950692833
  0
LINE
  5
99
100
AcDbEntity
  8
measures
  6
ByBlock
 62
    0
370
   -2
100
AcDbLine
 10
113.8815974424072
 20
115.5405196378957
 11
113.8815974424072
 21
105.2922950692833
  0
ENDBLK
  5
54
330
52
100
AcDbEntity
  8
0
100
AcDbBlockEnd
  0
BLOCK
  5
56
330
55
100
AcDbEntity
  8
0
100
AcDbBlockBegin
  2
*D13
 70
    1
 10
0
 20
0
  3
*D13
  1

  0
LINE
  5
9A
100
AcDbEntity
  8
measures
  6
ByBlock
 62
    0
370
   -2
100
AcDbLine
 10
167.4625433395456
 20
282.5445000000463
 11
290.3006515452685
 21
282.5445000000463
  0
MTEXT
  5
9B
100
AcDbEntity
  8
measures
  6
CONTINUOUS
 62
    0
370
   -2
100
AcDbMText
 10
228.8815974424071
 20
284.4195000000463
 30
0
 40
2.5
 41
9.583333333333334
 71
    5
 72
    1
  1
122,84
  7
STANDARD
210
0
220
0
230
1
 50
0
 73
    2
 44
1
  0
SOLID
  5
9C
100
AcDbEntity
  8
measures
  6
ByBlock
 62
    0
370
   -2
100
AcDbTrace
 10
167.4625433395456
 20
282.5445000000463
 30
0
 11
169.9625433395456
 21
282.9607846578191
 31
0
 12
169.9625433395456
 22
282.1282153422734
 32
0
 13
169.9625433395456
 23
282.1282153422734
 33
0
  0
SOLID
  5
9D
100
AcDbEntity
  8
measures
  6
ByBlock
 62
    0
370
   -2
100
AcDbTrace
 10
290.3006515452685
 20
282.5445000000463
 30
0
 11
287.8006515452685
 21
282.1282153422734
 31
0
 12
287.8006515452685
 22
282.9607846578191
 32
0
 13
287.8006515452685
 23
282.9607846578191
 33
0
  0
LINE
  5
9E
100
AcDbEntity
  8
measures
  6
ByBlock
 62
    0
370
   -2
100
AcDbLine
 10
167.4625433395456
 20
345.1750774750755
 11
167.4625433395456
 21
281.2945000000463
  0
LINE
  5
9F
100
AcDbEntity
  8
measures
  6
ByBlock
 62
    0
370
   -2
100
AcDbLine
 10
290.3006515452685
 20
345.1750774750755
 11
290.3006515452685
 21
281.2945000000463
  0
ENDBLK
  5
57
330
55
100
AcDbEntity
  8
0
100
AcDbBlockEnd
  0
BLOCK
  5
59
330
58
100
AcDbEntity
  8
0
100
AcDbBlockBegin
  2
*D15
 70
    1
 10
0
 20
0
  3
*D15
  1

  0
LINE
  5
A0
100
AcDbEntity
  8
measures
  6
ByBlock
 62
    0
370
   -2
100
AcDbLine
 10
182.1095396790712
 20
430.7651224173683
 11
275.6536552057433
 21
430.7651224173683
  0
MTEXT
  5
A1
100
AcDbEntity
  8
measures
  6
CONTINUOUS
 62
    0
370
   -2
100
AcDbMText
 10
228.8815974424072
 20
432.6401224173683
 30
0
 40
2.5
 41
8.19444444444491
 71
    5
 72
    1
  1
93,54
  7
STANDARD
210
0
220
0
230
1
 50
0
 73
    2
 44
1
  0
SOLID
  5
A2
100
AcDbEntity
  8
measures
  6
ByBlock
 62
    0
370
   -2
100
AcDbTrace
 10
182.1095396790712
 20
430.7651224173683
 30
0
 11
184.6095396790712
 21
431.1814070751411
 31
0
 12
184.6095396790712
 22
430.3488377595954
 32
0
 13
184.6095396790712
 23
430.3488377595954
 33
0
  0
SOLID
  5
A3
100
AcDbEntity
  8
measures
  6
ByBlock
 62
    0
370
   -2
100
AcDbTrace
 10
275.6536552057433
 20
430.7651224173683
 30
0
 11
273.1536552057433
 21
430.3488377595954
 31
0
 12
273.1536552057433
 22
431.1814070751411
 32
0
 13
273.1536552057433
 23
431.1814070751411
 33
0
  0
LINE
  5
A4
100
AcDbEntity
  8
measures
  6
ByBlock
 62
    0
370
   -2
100
AcDbLine
 10
182.1095396790712
 20
387.694193149435
 11
182.1095396790712
 21
432.0151224173683
  0
LINE
  5
A5
100
AcDbEntity
  8
measures
  6
ByBlock
 62
    0
370
   -2
100
AcDbLine
 10
275.6536552057433
 20
387.6941931494354
 11
275.6536552057433
 21
432.0151224173683
  0
ENDBLK
  5
5A
330
58
100
AcDbEntity
  8
0
100
AcDbBlockEnd
  0
BLOCK
  5
5C
330
5B
100
AcDbEntity
  8
0
100
AcDbBlockBegin
  2
*D8
 70
    1
 10
0
 20
0
  3
*D8
  1

  0
LINE
  5
A6
100
AcDbEntity
  8
measures
  6
ByBlock
 62
    0
370
   -2
100
AcDbLine
 10
320.8405423338238
 20
379.069193149435
 11
320.8405423338238
 21
345.8000774750755
  0
MTEXT
  5
A7
100
AcDbEntity
  8
measures
  6
CONTINUOUS
 62
    0
370
   -2
100
AcDbMText
 10
318.9655423338238
 20
362.4346353122552
 30
0
 40
2.5
 41
7.916666666666977
 71
    5
 72
    1
  1
33,27
  7
STANDARD
210
0
220
0
230
1
 50
90
 73
    2
 44
1
  0
SOLID
  5
A8
100
AcDbEntity
  8
measures
  6
ByBlock
 62
    0
370
   -2
100
AcDbTrace
 10
320.8405423338238
 20
379.069193149435
 30
0
 11
321.2568269915967
 21
376.569193149435
 31
0
 12
320.424257676051
 22
376.569193149435
 32
0
 13
320.424257676051
 23
376.569193149435
 33
0
  0
SOLID
  5
A9
100
AcDbEntity
  8
measures
  6
ByBlock
 62
    0
370
   -2
100
AcDbTrace
 10
320.8405423338238
 20
345.8000774750755
 30
0
 11
320.424257676051
 21
348.3000774750755
 31
0
 12
321.2568269915967
 22
348.3000774750755
 32
0
 13
321.2568269915967
 23
348.3000774750755
 33
0
  0
LINE
  5
AA
100
AcDbEntity
  8
measures
  6
ByBlock
 62
    0
370
   -2
100
AcDbLine
 10
287.229083137007
 20
379.069193149435
 11
322.0905423338238
 21
379.069193149435
  0
LINE
  5
AB
100
AcDbEntity
  8
measures
  6
ByBlock
 62
    0
370
   -2
100
AcDbLine
 10
290.9256515452685
 20
345.8000774750755
 11
322.0905423338238
 21
345.8000774750755
  0
ENDBLK
  5
5D
330
5B
100
AcDbEntity
  8
0
100
AcDbBlockEnd
  0
BLOCK
  5
5F
330
5E
100
AcDbEntity
  8
0
100
AcDbBlockBegin
  2
*D7
 70
    1
 10
0
 20
0
  3
*D7
  1

  0
LINE
  5
AC
100
AcDbEntity
  8
measures
  6
ByBlock
 62
    0
370
   -2
100
AcDbLine
 10
202.2743948384093
 20
300.8555253871041
 11
256.2743948384083
 21
300.8555253871041
  0
MTEXT
  5
AD
100
AcDbEntity
  8
measures
  6
CONTINUOUS
 62
    0
370
   -2
100
AcDbMText
 10
229.2743948384088
 20
302.7305253871041
 30
0
 40
2.5
 41
3.333333333333488
 71
    5
 72
    1
  1
54
  7
STANDARD
210
0
220
0
230
1
 50
0
 73
    2
 44
1
  0
SOLID
  5
AE
100
AcDbEntity
  8
measures
  6
ByBlock
 62
    0
370
   -2
100
AcDbTrace
 10
202.2743948384093
 20
300.8555253871041
 30
0
 11
204.7743948384093
 21
301.2718100448769
 31
0
 12
204.7743948384093
 22
300.4392407293312
 32
0
 13
204.7743948384093
 23
300.4392407293312
 33
0
  0
SOLID
  5
AF
100
AcDbEntity
  8
measures
  6
ByBlock
 62
    0
370
   -2
100
AcDbTrace
 10
256.2743948384083
 20
300.8555253871041
 30
0
 11
253.7743948384083
 21
300.4392407293312
 31
0
 12
253.7743948384083
 22
301.2718100448769
 32
0
 13
253.7743948384083
 23
301.2718100448769
 33
0
  0
LINE
  5
B0
100
AcDbEntity
  8
measures
  6
ByBlock
 62
    0
370
   -2
100
AcDbLine
 10
202.2743948384093
 20
327.1750774750755
 11
202.2743948384093
 21
299.6055253871041
  0
LINE
  5
B1
100
AcDbEntity
  8
measures
  6
ByBlock
 62
    0
370
   -2
100
AcDbLine
 10
256.2743948384083
 20
327.1750774750755
 11
256.2743948384083
 21
299.6055253871041
  0
ENDBLK
  5
60
330
5E
100
AcDbEntity
  8
0
100
AcDbBlockEnd
  0
BLOCK
  5
62
330
61
100
AcDbEntity
  8
0
100
AcDbBlockBegin
  2
*D1
 70
    1
 10
0
 20
0
  3
*D1
  1

  0
LINE
  5
B2
100
AcDbEntity
  8
measures
  6
ByBlock
 62
    0
370
   -2
100
AcDbLine
 10
153.8815974424073
 20
60.31014222389359
 11
303.8815974424073
 21
60.31014222389359
  0
MTEXT
  5
B3
100
AcDbEntity
  8
measures
  6
CONTINUOUS
 62
    0
370
   -2
100
AcDbMText
 10
228.8815974424073
 20
62.18514222389359
 30
0
 40
2.5
 41
4.444444444444599
 71
    5
 72
    1
  1
150
  7
STANDARD
210
0
220
0
230
1
 50
0
 73
    2
 44
1
  0
SOLID
  5
B4
100
AcDbEntity
  8
measures
  6
ByBlock
 62
    0
370
   -2
100
AcDbTrace
 10
153.8815974424073
 20
60.31014222389359
 30
0
 11
156.3815974424073
 21
60.72642688166643
 31
0
 12
156.3815974424073
 22
59.89385756612075
 32
0
 13
156.3815974424073
 23
59.89385756612075
 33
0
  0
SOLID
  5
B5
100
AcDbEntity
  8
measures
  6
ByBlock
 62
    0
370
   -2
100
AcDbTrace
 10
303.8815974424073
 20
60.31014222389359
 30
0
 11
301.3815974424073
 21
59.89385756612075
 31
0
 12
301.3815974424073
 22
60.72642688166643
 32
0
 13
301.3815974424073
 23
60.72642688166643
 33
0
  0
LINE
  5
B6
100
AcDbEntity
  8
measures
  6
ByBlock
 62
    0
370
   -2
100
AcDbLine
 10
153.8815974424073
 20
70.54051963789594
 11
153.8815974424073
 21
59.06014222389359
  0
LINE
  5
B7
100
AcDbEntity
  8
measures
  6
ByBlock
 62
    0
370
   -2
100
AcDbLine
 10
303.8815974424073
 20
70.54051963789594
 11
303.8815974424073
 21
59.06014222389359
  0
ENDBLK
  5
63
330
61
100
AcDbEntity
  8
0
100
AcDbBlockEnd
  0
BLOCK
  5
65
330
64
100
AcDbEntity
  8
0
100
AcDbBlockBegin
  2
*D6
 70
    1
 10
0
 20
0
  3
*D6
  1

  0
LINE
  5
B8
100
AcDbEntity
  8
measures
  6
ByBlock
 62
    0
370
   -2
100
AcDbLine
 10
204.2743948384106
 20
421.0610616272077
 11
254.2743948384067
 21
421.0610616272077
  0
MTEXT
  5
B9
100
AcDbEntity
  8
measures
  6
CONTINUOUS
 62
    0
370
   -2
100
AcDbMText
 10
229.2743948384087
 20
422.9360616272077
 30
0
 40
2.5
 41
3.055555555555711
 71
    5
 72
    1
  1
50
  7
STANDARD
210
0
220
0
230
1
 50
0
 73
    2
 44
1
  0
SOLID
  5
BA
100
AcDbEntity
  8
measures
  6
ByBlock
 62
    0
370
   -2
100
AcDbTrace
 10
204.2743948384106
 20
421.0610616272077
 30
0
 11
206.7743948384106
 21
421.4773462849806
 31
0
 12
206.7743948384106
 22
420.6447769694349
 32
0
 13
206.7743948384106
 23
420.6447769694349
 33
0
  0
SOLID
  5
BB
100
AcDbEntity
  8
measures
  6
ByBlock
 62
    0
370
   -2
100
AcDbTrace
 10
254.2743948384067
 20
421.0610616272077
 30
0
 11
251.7743948384067
 21
420.6447769694349
 31
0
 12
251.7743948384067
 22
421.4773462849806
 32
0
 13
251.7743948384067
 23
421.4773462849806
 33
0
  0
LINE
  5
BC
100
AcDbEntity
  8
measures
  6
ByBlock
 62
    0
370
   -2
100
AcDbLine
 10
204.2743948384106
 20
397.6941931494351
 11
204.2743948384106
 21
422.3110616272077
  0
LINE
  5
BD
100
AcDbEntity
  8
measures
  6
ByBlock
 62
    0
370
   -2
100
AcDbLine
 10
254.2743948384067
 20
397.6941931494353
 11
254.2743948384067
 21
422.3110616272077
  0
ENDBLK
  5
66
330
64
100
AcDbEntity
  8
0
100
AcDbBlockEnd
  0
BLOCK
  5
68
330
67
100
AcDbEntity
  8
0
100
AcDbBlockBegin
  2
*D14
 70
    1
 10
0
 20
0
  3
*D14
  1

  0
LINE
  5
BE
100
AcDbEntity
  8
measures
  6
ByBlock
 62
    0
370
   -2
100
AcDbLine
 10
152.2056999193844
 20
273.4485000000448
 11
306.1372500000501
 21
273.4485000000448
  0
MTEXT
  5
BF
100
AcDbEntity
  8
measures
  6
CONTINUOUS
 62
    0
370
   -2
100
AcDbMText
 10
229.1714749597173
 20
275.3235000000448
 30
0
 40
2.5
 41
9.305555555556021
 71
    5
 72
    1
  1
153,93
  7
STANDARD
210
0
220
0
230
1
 50
0
 73
    2
 44
1
  0
SOLID
  5
C0
100
AcDbEntity
  8
measures
  6
ByBlock
 62
    0
370
   -2
100
AcDbTrace
 10
152.2056999193844
 20
273.4485000000448
 30
0
 11
154.7056999193844
 21
273.8647846578177
 31
0
 12
154.7056999193844
 22
273.032215342272
 32
0
 13
154.7056999193844
 23
273.032215342272
 33
0
  0
SOLID
  5
C1
100
AcDbEntity
  8
measures
  6
ByBlock
 62
    0
370
   -2
100
AcDbTrace
 10
306.1372500000501
 20
273.4485000000448
 30
0
 11
303.6372500000501
 21
273.032215342272
 31
0
 12
303.6372500000501
 22
273.8647846578177
 32
0
 13
303.6372500000501
 23
273.8647846578177
 33
0
  0
LINE
  5
C2
100
AcDbEntity
  8
measures
  6
ByBlock
 62
    0
370
   -2
100
AcDbLine
 10
152.2056999193844
 20
315.3096353122548
 11
152.2056999193844
 21
272.1985000000448
  0
LINE
  5
C3
100
AcDbEntity
  8
measures
  6
ByBlock
 62
    0
370
   -2
100
AcDbLine
 10
306.1372500000501
 20
313.1870000000514
 11
306.1372500000501
 21
272.1985000000448
  0
ENDBLK
  5
69
330
67
100
AcDbEntity
  8
0
100
AcDbBlockEnd
  0
BLOCK
  5
6B
330
6A
100
AcDbEntity
  8
0
100
AcDbBlockBegin
  2
*D17
 70
    1
 10
0
 20
0
  3
*D17
  1

  0
LINE
  5
C4
100
AcDbEntity
  8
measures
  6
ByBlock
 62
    0
370
   -2
100
AcDbLine
 10
162.5390332527179
 20
449.1488909783423
 11
295.2241616320968
 21
449.1488909783423
  0
MTEXT
  5
C5
100
AcDbEntity
  8
measures
  6
CONTINUOUS
 62
    0
370
   -2
100
AcDbMText
 10
228.8815974424073
 20
451.0238909783423
 30
0
 40
2.5
 41
9.305555555555866
 71
    5
 72
    1
  1
132,69
  7
STANDARD
210
0
220
0
230
1
 50
0
 73
    2
 44
1
  0
SOLID
  5
C6
100
AcDbEntity
  8
measures
  6
ByBlock
 62
    0
370
   -2
100
AcDbTrace
 10
162.5390332527179
 20
449.1488909783423
 30
0
 11
165.0390332527179
 21
449.5651756361152
 31
0
 12
165.0390332527179
 22
448.7326063205695
 32
0
 13
165.0390332527179
 23
448.7326063205695
 33
0
  0
SOLID
  5
C7
100
AcDbEntity
  8
measures
  6
ByBlock
 62
    0
370
   -2
100
AcDbTrace
 10
295.2241616320968
 20
449.1488909783423
 30
0
 11
292.7241616320968
 21
448.7326063205695
 31
0
 12
292.7241616320968
 22
449.5651756361152
 32
0
 13
292.7241616320968
 23
449.5651756361152
 33
0
  0
LINE
  5
C8
100
AcDbEntity
  8
measures
  6
ByBlock
 62
    0
370
   -2
100
AcDbLine
 10
162.5390332527179
 20
409.5596353122548
 11
162.5390332527179
 21
450.3988909783423
  0
LINE
  5
C9
100
AcDbEntity
  8
measures
  6
ByBlock
 62
    0
370
   -2
100
AcDbLine
 10
295.2241616320968
 20
409.5596353122548
 11
295.2241616320968
 21
450.3988909783423
  0
ENDBLK
  5
6C
330
6A
100
AcDbEntity
  8
0
100
AcDbBlockEnd
  0
BLOCK
  5
6E
330
6D
100
AcDbEntity
  8
0
100
AcDbBlockBegin
  2
*D19
 70
    1
 10
0
 20
0
  3
*D19
  1

  0
LINE
  5
CA
100
AcDbEntity
  8
measures
  6
ByBlock
 62
    0
370
   -2
100
AcDbLine
 10
372.0000000000028
 20
106.5422950692833
 11
407.0000000000039
 21
106.5422950692833
  0
MTEXT
  5
CB
100
AcDbEntity
  8
measures
  6
CONTINUOUS
 62
    0
370
   -2
100
AcDbMText
 10
389.5000000000034
 20
108.4172950692833
 30
0
 40
2.5
 41
3.055555555555866
 71
    5
 72
    1
  1
35
  7
STANDARD
210
0
220
0
230
1
 50
0
 73
    2
 44
1
  0
SOLID
  5
CC
100
AcDbEntity
  8
measures
  6
ByBlock
 62
    0
370
   -2
100
AcDbTrace
 10
372.0000000000028
 20
106.5422950692833
 30
0
 11
374.5000000000028
 21
106.9585797270561
 31
0
 12
374.5000000000028
 22
106.1260104115105
 32
0
 13
374.5000000000028
 23
106.1260104115105
 33
0
  0
SOLID
  5
CD
100
AcDbEntity
  8
measures
  6
ByBlock
 62
    0
370
   -2
100
AcDbTrace
 10
407.0000000000039
 20
106.5422950692833
 30
0
 11
404.5000000000039
 21
106.1260104115105
 31
0
 12
404.5000000000039
 22
106.9585797270561
 32
0
 13
404.5000000000039
 23
106.9585797270561
 33
0
  0
LINE
  5
CE
100
AcDbEntity
  8
measures
  6
ByBlock
 62
    0
370
   -2
100
AcDbLine
 10
372.0000000000028
 20
115.5405196378957
 11
372.0000000000028
 21
105.2922950692833
  0
LINE
  5
CF
100
AcDbEntity
  8
measures
  6
ByBlock
 62
    0
370
   -2
100
AcDbLine
 10
407.0000000000039
 20
115.5405196378957
 11
407.0000000000039
 21
105.2922950692833
  0
ENDBLK
  5
6F
330
6D
100
AcDbEntity
  8
0
100
AcDbBlockEnd
  0
BLOCK
  5
71
330
70
100
AcDbEntity
  8
0
100
AcDbBlockBegin
  2
*D10
 70
    1
 10
0
 20
0
  3
*D10
  1

  0
LINE
  5
D0
100
AcDbEntity
  8
measures
  6
ByBlock
 62
    0
370
   -2
100
AcDbLine
 10
345.1466440257806
 20
408.9346353122548
 11
345.1466440257806
 21
315.9346353122548
  0
MTEXT
  5
D1
100
AcDbEntity
  8
measures
  6
CONTINUOUS
 62
    0
370
   -2
100
AcDbMText
 10
343.2716440257806
 20
362.4346353122548
 30
0
 40
2.5
 41
3.055555555555866
 71
    5
 72
    1
  1
93
  7
STANDARD
210
0
220
0
230
1
 50
90
 73
    2
 44
1
  0
SOLID
  5
D2
100
AcDbEntity
  8
measures
  6
ByBlock
 62
    0
370
   -2
100
AcDbTrace
 10
345.1466440257806
 20
408.9346353122548
 30
0
 11
345.5629286835534
 21
406.4346353122548
 31
0
 12
344.7303593680077
 22
406.4346353122548
 32
0
 13
344.7303593680077
 23
406.4346353122548
 33
0
  0
SOLID
  5
D3
100
AcDbEntity
  8
measures
  6
ByBlock
 62
    0
370
   -2
100
AcDbTrace
 10
345.1466440257806
 20
315.9346353122548
 30
0
 11
344.7303593680077
 21
318.4346353122548
 31
0
 12
345.5629286835534
 22
318.4346353122548
 32
0
 13
345.5629286835534
 23
318.4346353122548
 33
0
  0
LINE
  5
D4
100
AcDbEntity
  8
measures
  6
ByBlock
 62
    0
370
   -2
100
AcDbLine
 10
295.8491616320968
 20
408.9346353122548
 11
346.3966440257806
 21
408.9346353122548
  0
LINE
  5
D5
100
AcDbEntity
  8
measures
  6
ByBlock
 62
    0
370
   -2
100
AcDbLine
 10
306.1824949654303
 20
315.9346353122548
 11
346.3966440257806
 21
315.9346353122548
  0
ENDBLK
  5
72
330
70
100
AcDbEntity
  8
0
100
AcDbBlockEnd
  0
BLOCK
  5
74
330
73
100
AcDbEntity
  8
0
100
AcDbBlockBegin
  2
*D5
 70
    1
 10
0
 20
0
  3
*D5
  1

  0
LINE
  5
D6
100
AcDbEntity
  8
measures
  6
ByBlock
 62
    0
370
   -2
100
AcDbLine
 10
163.8815974424074
 20
257.7800055540101
 11
293.8815974424072
 21
257.7800055540101
  0
MTEXT
  5
D7
100
AcDbEntity
  8
measures
  6
CONTINUOUS
 62
    0
370
   -2
100
AcDbMText
 10
228.8815974424073
 20
259.6550055540101
 30
0
 40
2.5
 41
4.444444444444599
 71
    5
 72
    1
  1
130
  7
STANDARD
210
0
220
0
230
1
 50
0
 73
    2
 44
1
  0
SOLID
  5
D8
100
AcDbEntity
  8
measures
  6
ByBlock
 62
    0
370
   -2
100
AcDbTrace
 10
163.8815974424074
 20
257.7800055540101
 30
0
 11
166.3815974424074
 21
258.1962902117829
 31
0
 12
166.3815974424074
 22
257.3637208962372
 32
0
 13
166.3815974424074
 23
257.3637208962372
 33
0
  0
SOLID
  5
D9
100
AcDbEntity
  8
measures
  6
ByBlock
 62
    0
370
   -2
100
AcDbTrace
 10
293.8815974424072
 20
257.7800055540101
 30
0
 11
291.3815974424072
 21
257.3637208962372
 31
0
 12
291.3815974424072
 22
258.1962902117829
 32
0
 13
291.3815974424072
 23
258.1962902117829
 33
0
  0
LINE
  5
DA
100
AcDbEntity
  8
measures
  6
ByBlock
 62
    0
370
   -2
100
AcDbLine
 10
163.8815974424074
 20
251.7905196378953
 11
163.8815974424074
 21
259.0300055540101
  0
LINE
  5
DB
100
AcDbEntity
  8
measures
  6
ByBlock
 62
    0
370
   -2
100
AcDbLine
 10
293.8815974424072
 20
251.7905196378953
 11
293.8815974424072
 21
259.0300055540101
  0
ENDBLK
  5
75
330
73
100
AcDbEntity
  8
0
100
AcDbBlockEnd
  0
BLOCK
  5
77
330
76
100
AcDbEntity
  8
0
100
AcDbBlockBegin
  2
*D3
 70
    1
 10
0
 20
0
  3
*D3
  1

  0
LINE
  5
DC
100
AcDbEntity
  8
measures
  6
ByBlock
 62
    0
370
   -2
100
AcDbLine
 10
320.0024139424139
 20
116.1655196378957
 11
320.0024139424139
 21
206.1655196378957
  0
MTEXT
  5
DD
100
AcDbEntity
  8
measures
  6
CONTINUOUS
 62
    0
370
   -2
100
AcDbMText
 10
318.1274139424139
 20
161.1655196378957
 30
0
 40
2.5
 41
3.055555555555711
 71
    5
 72
    1
  1
90
  7
STANDARD
210
0
220
0
230
1
 50
90
 73
    2
 44
1
  0
SOLID
  5
DE
100
AcDbEntity
  8
measures
  6
ByBlock
 62
    0
370
   -2
100
AcDbTrace
 10
320.0024139424139
 20
116.1655196378957
 30
0
 11
319.5861292846411
 21
118.6655196378957
 31
0
 12
320.4186986001868
 22
118.6655196378957
 32
0
 13
320.4186986001868
 23
118.6655196378957
 33
0
  0
SOLID
  5
DF
100
AcDbEntity
  8
measures
  6
ByBlock
 62
    0
370
   -2
100
AcDbTrace
 10
320.0024139424139
 20
206.1655196378957
 30
0
 11
320.4186986001868
 21
203.6655196378957
 31
0
 12
319.5861292846411
 22
203.6655196378957
 32
0
 13
319.5861292846411
 23
203.6655196378957
 33
0
  0
LINE
  5
E0
100
AcDbEntity
  8
measures
  6
ByBlock
 62
    0
370
   -2
100
AcDbLine
 10
304.5065974424073
 20
116.1655196378957
 11
321.2524139424139
 21
116.1655196378957
  0
LINE
  5
E1
100
AcDbEntity
  8
measures
  6
ByBlock
 62
    0
370
   -2
100
AcDbLine
 10
304.5065974424073
 20
206.1655196378957
 11
321.2524139424139
 21
206.1655196378957
  0
ENDBLK
  5
78
330
76
100
AcDbEntity
  8
0
100
AcDbBlockEnd
  0
BLOCK
  5
7A
330
79
100
AcDbEntity
  8
0
100
AcDbBlockBegin
  2
*D2
 70
    1
 10
0
 20
0
  3
*D2
  1

  0
LINE
  5
E2
100
AcDbEntity
  8
measures
  6
ByBlock
 62
    0
370
   -2
100
AcDbLine
 10
320.051811121314
 20
106.1655196378957
 11
320.051811121314
 21
71.16551963789594
  0
MTEXT
  5
E3
100
AcDbEntity
  8
measures
  6
CONTINUOUS
 62
    0
370
   -2
100
AcDbMText
 10
318.176811121314
 20
88.66551963789584
 30
0
 40
2.5
 41
3.055555555555866
 71
    5
 72
    1
  1
35
  7
STANDARD
210
0
220
0
230
1
 50
90
 73
    2
 44
1
  0
SOLID
  5
E4
100
AcDbEntity
  8
measures
  6
ByBlock
 62
    0
370
   -2
100
AcDbTrace
 10
320.051811121314
 20
106.1655196378957
 30
0
 11
320.4680957790869
 21
103.6655196378957
 31
0
 12
319.6355264635412
 22
103.6655196378957
 32
0
 13
319.6355264635412
 23
103.6655196378957
 33
0
  0
SOLID
  5
E5
100
AcDbEntity
  8
measures
  6
ByBlock
 62
    0
370
   -2
100
AcDbTrace
 10
320.051811121314
 20
71.16551963789594
 30
0
 11
319.6355264635412
 21
73.66551963789594
 31
0
 12
320.4680957790869
 22
73.66551963789594
 32
0
 13
320.4680957790869
 23
73.66551963789594
 33
0
  0
LINE
  5
E6
100
AcDbEntity
  8
measures
  6
ByBlock
 62
    0
370
   -2
100
AcDbLine
 10
304.5065974424073
 20
106.1655196378957
 11
321.301811121314
 21
106.1655196378957
  0
LINE
  5
E7
100
AcDbEntity
  8
measures
  6
ByBlock
 62
    0
370
   -2
100
AcDbLine
 10
304.5065974424073
 20
71.16551963789594
 11
321.301811121314
 21
71.16551963789594
  0
ENDBLK
  5
7B
330
79
100
AcDbEntity
  8
0
100
AcDbBlockEnd
  0
BLOCK
  5
7D
330
7C
100
AcDbEntity
  8
0
100
AcDbBlockBegin
  2
*D9
 70
    1
 10
0
 20
0
  3
*D9
  1

  0
LINE
  5
E8
100
AcDbEntity
  8
measures
  6
ByBlock
 62
    0
370
   -2
100
AcDbLine
 10
332.1833897900701
 20
387.0691931494354
 11
332.1833897900701
 21
337.8000774750755
  0
MTEXT
  5
E9
100
AcDbEntity
  8
measures
  6
CONTINUOUS
 62
    0
370
   -2
100
AcDbMText
 10
330.3083897900701
 20
362.4346353122554
 30
0
 40
2.5
 41
8.194444444444445
 71
    5
 72
    1
  1
49,27
  7
STANDARD
210
0
220
0
230
1
 50
90
 73
    2
 44
1
  0
SOLID
  5
EA
100
AcDbEntity
  8
measures
  6
ByBlock
 62
    0
370
   -2
100
AcDbTrace
 10
332.1833897900701
 20
387.0691931494354
 30
0
 11
332.599674447843
 21
384.5691931494354
 31
0
 12
331.7671051322973
 22
384.5691931494354
 32
0
 13
331.7671051322973
 23
384.5691931494354
 33
0
  0
SOLID
  5
EB
100
AcDbEntity
  8
measures
  6
ByBlock
 62
    0
370
   -2
100
AcDbTrace
 10
332.1833897900701
 20
337.8000774750755
 30
0
 11
331.7671051322973
 21
340.3000774750755
 31
0
 12
332.599674447843
 22
340.3000774750755
 32
0
 13
332.599674447843
 23
340.3000774750755
 33
0
  0
LINE
  5
EC
100
AcDbEntity
  8
measures
  6
ByBlock
 62
    0
370
   -2
100
AcDbLine
 10
276.2786552057433
 20
387.0691931494354
 11
333.4333897900701
 21
387.0691931494354
  0
LINE
  5
ED
100
AcDbEntity
  8
measures
  6
ByBlock
 62
    0
370
   -2
100
AcDbLine
 10
281.7530013917823
 20
337.8000774750755
 11
333.4333897900701
 21
337.8000774750755
  0
ENDBLK
  5
7E
330
7C
100
AcDbEntity
  8
0
100
AcDbBlockEnd
  0
BLOCK
  5
80
330
7F
100
AcDbEntity
  8
0
100
AcDbBlockBegin
  2
*D12
 70
    1
 10
0
 20
0
  3
*D12
  1

  0
LINE
  5
EE
100
AcDbEntity
  8
measures
  6
ByBlock
 62
    0
370
   -2
100
AcDbLine
 10
176.6351934930317
 20
291.0720000000477
 11
281.1280013917823
 21
291.0720000000477
  0
MTEXT
  5
EF
100
AcDbEntity
  8
measures
  6
CONTINUOUS
 62
    0
370
   -2
100
AcDbMText
 10
228.881597442407
 20
292.9470000000477
 30
0
 40
2.5
 41
9.861111111111111
 71
    5
 72
    1
  1
104,49
  7
STANDARD
210
0
220
0
230
1
 50
0
 73
    2
 44
1
  0
SOLID
  5
F0
100
AcDbEntity
  8
measures
  6
ByBlock
 62
    0
370
   -2
100
AcDbTrace
 10
176.6351934930317
 20
291.0720000000477
 30
0
 11
179.1351934930317
 21
291.4882846578205
 31
0
 12
179.1351934930317
 22
290.6557153422748
 32
0
 13
179.1351934930317
 23
290.6557153422748
 33
0
  0
SOLID
  5
F1
100
AcDbEntity
  8
measures
  6
ByBlock
 62
    0
370
   -2
100
AcDbTrace
 10
281.1280013917823
 20
291.0720000000477
 30
0
 11
278.6280013917823
 21
290.6557153422748
 31
0
 12
278.6280013917823
 22
291.4882846578205
 32
0
 13
278.6280013917823
 23
291.4882846578205
 33
0
  0
LINE
  5
F2
100
AcDbEntity
  8
measures
  6
ByBlock
 62
    0
370
   -2
100
AcDbLine
 10
176.6351934930317
 20
337.1750774750755
 11
176.6351934930317
 21
289.8220000000477
  0
LINE
  5
F3
100
AcDbEntity
  8
measures
  6
ByBlock
 62
    0
370
   -2
100
AcDbLine
 10
281.1280013917823
 20
337.1750774750755
 11
281.1280013917823
 21
289.8220000000477
  0
ENDBLK
  5
81
330
7F
100
AcDbEntity
  8
0
100
AcDbBlockEnd
  0
BLOCK
  5
83
330
82
100
AcDbEntity
  8
0
100
AcDbBlockBegin
  2
*D11
 70
    1
 10
0
 20
0
  3
*D11
  1

  0
LINE
  5
F4
100
AcDbEntity
  8
measures
  6
ByBlock
 62
    0
370
   -2
100
AcDbLine
 10
151.5845225852134
 20
316.0036550160515
 11
131.0318924564335
 21
318.2872805859161
  0
LINE
  5
F5
100
AcDbEntity
  8
measures
  6
ByBlock
 62
    0
370
   -2
100
AcDbLine
 10
161.9178559185469
 20
409.0036550160515
 11
141.365225789767
 21
411.2872805859161
  0
LINE
  5
F6
100
AcDbEntity
  8
measures
  6
ByBlock
 62
    0
370
   -2
100
AcDbLine
 10
132.2742471247755
 20
318.1492411783225
 11
142.607580458109
 21
411.1492411783225
  0
MTEXT
  5
F7
100
AcDbEntity
  8
measures
  6
CONTINUOUS
 62
    0
370
   -2
100
AcDbMText
 10
135.5773817889293
 20
364.8563002897129
 30
0
 40
2.5
 41
7.916666666667133
 71
    5
 72
    1
  1
93,57
  7
STANDARD
210
0
220
0
230
1
 50
83.65980825408998
 73
    2
 44
1
  0
SOLID
  5
F8
100
AcDbEntity
  8
measures
  6
ByBlock
 62
    0
370
   -2
100
AcDbTrace
 10
132.2742471247755
 20
318.1492411783225
 30
0
 11
132.136587389608
 21
320.6799214650459
 31
0
 12
132.9640644903172
 22
320.5879795649672
 32
0
 13
132.9640644903172
 23
320.5879795649672
 33
0
  0
SOLID
  5
F9
100
AcDbEntity
  8
measures
  6
ByBlock
 62
    0
370
   -2
100
AcDbTrace
 10
142.607580458109
 20
411.1492411783225
 30
0
 11
142.7452401932765
 21
408.618560891599
 31
0
 12
141.9177630925673
 22
408.7105027916778
 32
0
 13
141.9177630925673
 23
408.7105027916778
 33
0
  0
ENDBLK
  5
84
330
82
100
AcDbEntity
  8
0
100
AcDbBlockEnd
  0
BLOCK
  5
86
330
85
100
AcDbEntity
  8
0
100
AcDbBlockBegin
  2
*D16
 70
    1
 10
0
 20
0
  3
*D16
  1

  0
LINE
  5
FA
100
AcDbEntity
  8
measures
  6
ByBlock
 62
    0
370
   -2
100
AcDbLine
 10
171.1591117478075
 20
439.539193776015
 11
286.604083137007
 21
439.539193776015
  0
MTEXT
  5
FB
100
AcDbEntity
  8
measures
  6
CONTINUOUS
 62
    0
370
   -2
100
AcDbMText
 10
228.8815974424072
 20
441.414193776015
 30
0
 40
2.5
 41
9.305555555555712
 71
    5
 72
    1
  1
115,44
  7
STANDARD
210
0
220
0
230
1
 50
0
 73
    2
 44
1
  0
SOLID
  5
FC
100
AcDbEntity
  8
measures
  6
ByBlock
 62
    0
370
   -2
100
AcDbTrace
 10
171.1591117478075
 20
439.539193776015
 30
0
 11
173.6591117478075
 21
439.9554784337878
 31
0
 12
173.6591117478075
 22
439.1229091182421
 32
0
 13
173.6591117478075
 23
439.1229091182421
 33
0
  0
SOLID
  5
FD
100
AcDbEntity
  8
measures
  6
ByBlock
 62
    0
370
   -2
100
AcDbTrace
 10
286.604083137007
 20
439.539193776015
 30
0
 11
284.104083137007
 21
439.1229091182421
 31
0
 12
284.104083137007
 22
439.9554784337878
 32
0
 13
284.104083137007
 23
439.9554784337878
 33
0
  0
LINE
  5
FE
100
AcDbEntity
  8
measures
  6
ByBlock
 62
    0
370
   -2
100
AcDbLine
 10
171.1591117478075
 20
379.694193149435
 11
171.1591117478075
 21
440.789193776015
  0
LINE
  5
FF
100
AcDbEntity
  8
measures
  6
ByBlock
 62
    0
370
   -2
100
AcDbLine
 10
286.604083137007
 20
379.694193149435
 11
286.604083137007
 21
440.789193776015
  0
ENDBLK
  5
87
330
85
100
AcDbEntity
  8
0
100
AcDbBlockEnd
  0
BLOCK
  5
89
330
88
100
AcDbEntity
  8
0
100
AcDbBlockBegin
  2
*D18
 70
    1
 10
0
 20
0
  3
*D18
  1

  0
LINE
  5
100
100
AcDbEntity
  8
measures
  6
ByBlock
 62
    0
370
   -2
100
AcDbLine
 10
361.8259903137229
 20
116.1655196378957
 11
361.8259903137229
 21
206.7155196378954
  0
MTEXT
  5
101
100
AcDbEntity
  8
measures
  6
CONTINUOUS
 62
    0
370
   -2
100
AcDbMText
 10
359.9509903137229
 20
161.4405196378956
 30
0
 40
2.5
 41
7.916666666667132
 71
    5
 72
    1
  1
90,55
  7
STANDARD
210
0
220
0
230
1
 50
90
 73
    2
 44
1
  0
SOLID
  5
102
100
AcDbEntity
  8
measures
  6
ByBlock
 62
    0
370
   -2
100
AcDbTrace
 10
361.8259903137229
 20
116.1655196378957
 30
0
 11
361.4097056559501
 21
118.6655196378957
 31
0
 12
362.2422749714958
 22
118.6655196378957
 32
0
 13
362.2422749714958
 23
118.6655196378957
 33
0
  0
SOLID
  5
103
100
AcDbEntity
  8
measures
  6
ByBlock
 62
    0
370
   -2
100
AcDbTrace
 10
361.8259903137229
 20
206.7155196378954
 30
0
 11
362.2422749714958
 21
204.2155196378954
 31
0
 12
361.4097056559501
 22
204.2155196378954
 32
0
 13
361.4097056559501
 23
204.2155196378954
 33
0
  0
LINE
  5
104
100
AcDbEntity
  8
measures
  6
ByBlock
 62
    0
370
   -2
100
AcDbLine
 10
371.3750000000028
 20
116.1655196378957
 11
360.5759903137229
 21
116.1655196378957
  0
LINE
  5
105
100
AcDbEntity
  8
measures
  6
ByBlock
 62
    0
370
   -2
100
AcDbLine
 10
371.3750000000027
 20
206.7155196378954
 11
360.5759903137229
 21
206.7155196378954
  0
ENDBLK
  5
8A
330
88
100
AcDbEntity
  8
0
100
AcDbBlockEnd
  0
BLOCK
  5
8C
330
8B
100
AcDbEntity
  8
0
100
AcDbBlockBegin
  2
*D4
 70
    1
 10
0
 20
0
  3
*D4
  1

  0
LINE
  5
106
100
AcDbEntity
  8
measures
  6
ByBlock
 62
    0
370
   -2
100
AcDbLine
 10
153.2604201082363
 20
116.2345393416925
 11
138.2729531246745
 21
117.8998134509771
  0
LINE
  5
107
100
AcDbEntity
  8
measures
  6
ByBlock
 62
    0
370
   -2
100
AcDbLine
 10
163.2604201082364
 20
206.2345393416925
 11
148.2729531246746
 21
207.8998134509771
  0
LINE
  5
108
100
AcDbEntity
  8
measures
  6
ByBlock
 62
    0
370
   -2
100
AcDbLine
 10
139.5153077930165
 20
117.7617740433836
 11
149.5153077930166
 21
207.7617740433836
  0
MTEXT
  5
109
100
AcDbEntity
  8
measures
  6
CONTINUOUS
 62
    0
370
   -2
100
AcDbMText
 10
142.6517757905035
 20
162.968833154774
 30
0
 40
2.5
 41
7.916666666667132
 71
    5
 72
    1
  1
90,55
  7
STANDARD
210
0
220
0
230
1
 50
83.65980825409002
 73
    2
 44
1
  0
SOLID
  5
10A
100
AcDbEntity
  8
measures
  6
ByBlock
 62
    0
370
   -2
100
AcDbTrace
 10
139.5153077930165
 20
117.7617740433836
 30
0
 11
139.377648057849
 21
120.292454330107
 31
0
 12
140.2051251585582
 22
120.2005124300282
 32
0
 13
140.2051251585582
 23
120.2005124300282
 33
0
  0
SOLID
  5
10B
100
AcDbEntity
  8
measures
  6
ByBlock
 62
    0
370
   -2
100
AcDbTrace
 10
149.5153077930166
 20
207.7617740433836
 30
0
 11
149.6529675281841
 21
205.2310937566601
 31
0
 12
148.8254904274749
 22
205.3230356567389
 32
0
 13
148.8254904274749
 23
205.3230356567389
 33
0
  0
ENDBLK
  5
8D
330
8B
100
AcDbEntity
  8
0
100
AcDbBlockEnd
  0
ENDSEC
  0
SECTION
  2
ENTITIES
  0
LINE
  5
10C
100
AcDbEntity
  8
0
  6
ByLayer
 62
  256
370
   -1
100
AcDbLine
 10
153.8815974424073
 20
116.1655196378957
 11
163.8815974424074
 21
206.1655196378957
  0
LINE
  5
10D
100
AcDbEntity
  8
0
  6
ByLayer
 62
  256
370
   -1
100
AcDbLine
 10
163.8815974424074
 20
206.1655196378957
 11
293.8815974424072
 21
206.1655196378957
  0
LINE
  5
10E
100
AcDbEntity
  8
0
  6
ByLayer
 62
  256
370
   -1
100
AcDbLine
 10
293.8815974424072
 20
206.1655196378957
 11
303.8815974424073
 21
116.1655196378957
  0
LINE
  5
10F
100
AcDbEntity
  8
0
  6
ByLayer
 62
  256
370
   -1
100
AcDbLine
 10
303.8815974424073
 20
116.1655196378957
 11
153.8815974424073
 21
116.1655196378957
  0
LINE
  5
110
100
AcDbEntity
  8
0
  6
ByLayer
 62
  256
370
   -1
100
AcDbLine
 10
293.8815974424072
 20
216.1655196378957
 11
163.8815974424074
 21
216.1655196378957
  0
LWPOLYLINE
  5
111
100
AcDbEntity
  8
0
  6
ByLayer
 62
  256
370
   -1
100
AcDbPolyline
 90
    4
 70
    1
 43
0
 10
153.8815974424073
 20
106.1655196378957
 10
303.8815974424073
 20
106.1655196378957
 10
303.8815974424073
 20
71.16551963789594
 10
153.8815974424073
 20
71.16551963789594
  0
DIMENSION
  5
112
100
AcDbEntity
  8
measures
  6
ByLayer
 62
  256
370
   -1
100
AcDbDimension
  2
*D1
 10
303.8815974424073
 20
60.31014222389359
 30
0
 11
228.8815974424073
 21
62.18514222389359
 31
0
 70
   32
 71
    5
  3
Standard
 53
0
210
0
220
0
230
1
100
AcDbAlignedDimension
 13
153.8815974424073
 23
71.16551963789594
 33
0
 14
303.8815974424073
 24
71.16551963789594
 34
0
100
AcDbRotatedDimension
  0
DIMENSION
  5
113
100
AcDbEntity
  8
measures
  6
ByLayer
 62
  256
370
   -1
100
AcDbDimension
  2
*D2
 10
320.051811121314
 20
71.16551963789594
 30
0
 11
318.176811121314
 21
88.66551963789584
 31
0
 70
   32
 71
    5
  3
Standard
 53
0
210
0
220
0
230
1
100
AcDbAlignedDimension
 13
303.8815974424073
 23
106.1655196378957
 33
0
 14
303.8815974424073
 24
71.16551963789594
 34
0
 50
90
100
AcDbRotatedDimension
  0
DIMENSION
  5
114
100
AcDbEntity
  8
measures
  6
ByLayer
 62
  256
370
   -1
100
AcDbDimension
  2
*D3
 10
320.0024139424139
 20
206.1655196378957
 30
0
 11
318.1274139424139
 21
161.1655196378957
 31
0
 70
   32
 71
    5
  3
Standard
 53
0
210
0
220
0
230
1
100
AcDbAlignedDimension
 13
303.8815974424073
 23
116.1655196378957
 33
0
 14
303.8815974424073
 24
206.1655196378957
 34
0
 50
90
100
AcDbRotatedDimension
  0
DIMENSION
  5
115
100
AcDbEntity
  8
measures
  6
ByLayer
 62
  256
370
   -1
100
AcDbDimension
  2
*D4
 10
149.5153077930166
 20
207.7617740433836
 30
0
 11
142.6517757905035
 21
162.968833154774
 31
0
 70
   33
 71
    5
  3
Standard
 53
0
210
0
220
0
230
1
100
AcDbAlignedDimension
 13
153.8815974424073
 23
116.1655196378957
 33
0
 14
163.8815974424074
 24
206.1655196378957
 34
0
  0
LINE
  5
116
100
AcDbEntity
  8
0
  6
ByLayer
 62
  256
370
   -1
100
AcDbLine
 10
163.8815974424074
 20
251.1655196378953
 11
293.8815974424072
 21
251.1655196378953
  0
LINE
  5
117
100
AcDbEntity
  8
0
  6
ByLayer
 62
  256
370
   -1
100
AcDbLine
 10
163.8815974424074
 20
251.1655196378953
 11
163.8815974424074
 21
216.1655196378957
  0
LINE
  5
118
100
AcDbEntity
  8
0
  6
ByLayer
 62
  256
370
   -1
100
AcDbLine
 10
293.8815974424072
 20
251.1655196378953
 11
293.8815974424072
 21
216.1655196378957
  0
LINE
  5
119
100
AcDbEntity
  8
builder
  6
ByLayer
 62
  256
370
   -1
100
AcDbLine
 10
229.2743948384087
 20
-58.96428217400999
 11
229.2743948384088
 21
201.2953214498019
  0
LINE
  5
11A
100
AcDbEntity
  8
builder
  6
ByLayer
 62
  256
370
   -1
100
AcDbLine
 10
229.2743948384088
 20
201.2953214498019
 11
229.2743948384088
 21
492.6589281137877
  0
DIMENSION
  5
11B
100
AcDbEntity
  8
measures
  6
ByLayer
 62
  256
370
   -1
100
AcDbDimension
  2
*D5
 10
293.8815974424072
 20
257.7800055540101
 30
0
 11
228.8815974424073
 21
259.6550055540101
 31
0
 70
   32
 71
    5
 72
    0
  3
Standard
 53
0
210
0
220
0
230
1
100
AcDbAlignedDimension
 13
163.8815974424074
 23
251.1655196378953
 33
0
 14
293.8815974424072
 24
251.1655196378953
 34
0
100
AcDbRotatedDimension
  0
LINE
  5
11C
100
AcDbEntity
  8
builder
  6
ByLayer
 62
  256
370
   -1
100
AcDbLine
 10
163.8815974424074
 20
408.9346353122548
 11
293.8815974424073
 21
408.9346353122548
  0
LINE
  5
11D
100
AcDbEntity
  8
builder
  6
ByLayer
 62
  256
370
   -1
100
AcDbLine
 10
163.8815987482861
 20
315.9346353122548
 11
293.8816001843025
 21
315.9346353122547
  0
LINE
  5
11E
100
AcDbEntity
  8
builder
  6
ByLayer
 62
  256
370
   -1
100
AcDbLine
 10
163.8815995318133
 20
408.9346353122548
 11
160.4859043527065
 21
408.9346353122548
  0
LINE
  5
11F
100
AcDbEntity
  8
builder
  6
ByLayer
 62
  256
370
   -1
100
AcDbLine
 10
293.8815974424073
 20
408.9346353122548
 11
297.3758743838226
 21
408.9346353122548
  0
LINE
  5
120
100
AcDbEntity
  8
builder
  6
ByLayer
 62
  256
370
   -1
100
AcDbLine
 10
163.8815987482861
 20
315.9346353122548
 11
150.0355840155232
 21
315.9346353122548
  0
LINE
  5
121
100
AcDbEntity
  8
builder
  6
ByLayer
 62
  256
370
   -1
100
AcDbLine
 10
293.8816001843025
 20
315.9346353122547
 11
308.692183278471
 21
315.9346353122547
  0
LINE
  5
122
100
AcDbEntity
  8
builder
  6
ByLayer
 62
  256
370
   -1
100
AcDbLine
 10
162.5390332527179
 20
408.9346353122548
 11
295.2241616320969
 21
408.9346353122548
  0
LINE
  5
123
100
AcDbEntity
  8
builder
  6
ByLayer
 62
  256
370
   -1
100
AcDbLine
 10
305.5574949654304
 20
315.9346353122547
 11
152.2056999193844
 21
315.9346353122548
  0
LINE
  5
124
100
AcDbEntity
  8
builder
  6
ByLayer
 62
  256
370
   -1
100
AcDbLine
 10
162.5390332527179
 20
408.9346353122548
 11
295.2241616320969
 21
408.9346353122548
  0
LINE
  5
125
100
AcDbEntity
  8
0
  6
ByLayer
 62
  256
370
   -1
100
AcDbLine
 10
162.5390332527179
 20
408.9346353122548
 11
295.2241616320969
 21
408.9346353122548
  0
LINE
  5
126
100
AcDbEntity
  8
0
  6
ByLayer
 62
  256
370
   -1
100
AcDbLine
 10
295.2241616320969
 20
408.9346353122548
 11
305.5574949654304
 21
315.9346353122548
  0
LINE
  5
127
100
AcDbEntity
  8
0
  6
ByLayer
 62
  256
370
   -1
100
AcDbLine
 10
305.5574949654304
 20
315.9346353122548
 11
152.2056999193844
 21
315.9346353122548
  0
LINE
  5
128
100
AcDbEntity
  8
0
  6
ByLayer
 62
  256
370
   -1
100
AcDbLine
 10
152.2056999193844
 20
315.9346353122548
 11
162.5390332527179
 21
408.9346353122548
  0
LINE
  5
129
100
AcDbEntity
  8
builder
  6
ByLayer
 62
  256
370
   -1
100
AcDbLine
 10
160.1095396790712
 20
387.0691931494349
 11
297.6536552057435
 21
387.0691931494355
  0
LINE
  5
12A
100
AcDbEntity
  8
builder
  6
ByLayer
 62
  256
370
   -1
100
AcDbLine
 10
303.1280013917836
 20
337.8000774750755
 11
154.6351934930312
 21
337.8000774750755
  0
LINE
  5
12B
100
AcDbEntity
  8
0
  6
ByLayer
 62
  256
370
   -1
100
AcDbLine
 10
182.1095396790712
 20
387.069193149435
 11
275.6536552057433
 21
387.0691931494354
  0
LINE
  5
12C
100
AcDbEntity
  8
0
  6
ByLayer
 62
  256
370
   -1
100
AcDbLine
 10
275.6536552057433
 20
387.0691931494354
 11
281.1280013917823
 21
337.8000774750755
  0
LINE
  5
12D
100
AcDbEntity
  8
0
  6
ByLayer
 62
  256
370
   -1
100
AcDbLine
 10
281.1280013917823
 20
337.8000774750755
 11
176.6351934930317
 21
337.8000774750755
  0
LINE
  5
12E
100
AcDbEntity
  8
0
  6
ByLayer
 62
  256
370
   -1
100
AcDbLine
 10
176.6351934930317
 20
337.8000774750755
 11
182.1095396790712
 21
387.069193149435
  0
CIRCLE
  5
12F
100
AcDbEntity
  8
0
  6
ByLayer
 62
  256
370
   -1
100
AcDbCircle
 10
167.4625433395456
 20
345.8000774750755
 40
3
  0
CIRCLE
  5
130
100
AcDbEntity
  8
0
  6
ByLayer
 62
  256
370
   -1
100
AcDbCircle
 10
171.1591117478075
 20
379.069193149435
 40
3
  0
LINE
  5
131
100
AcDbEntity
  8
builder
  6
ByLayer
 62
  256
370
   -1
100
AcDbLine
 10
171.1591117478075
 20
379.069193149435
 11
309.8325000000473
 21
379.069193149435
  0
LINE
  5
132
100
AcDbEntity
  8
builder
  6
ByLayer
 62
  256
370
   -1
100
AcDbLine
 10
167.4625433395456
 20
345.8000774750755
 11
316.6545000000484
 21
345.8000774750755
  0
CIRCLE
  5
133
100
AcDbEntity
  8
0
  6
ByLayer
 62
  256
370
   -1
100
AcDbCircle
 10
290.3006515452685
 20
345.8000774750755
 40
3
  0
CIRCLE
  5
134
100
AcDbEntity
  8
0
  6
ByLayer
 62
  256
370
   -1
100
AcDbCircle
 10
286.604083137007
 20
379.069193149435
 40
3
  0
LINE
  5
135
100
AcDbEntity
  8
builder
  6
ByLayer
 62
  256
370
   -1
100
AcDbLine
 10
303.1280013917836
 20
327.8000774750755
 11
154.6351934930312
 21
327.8000774750755
  0
CIRCLE
  5
136
100
AcDbEntity
  8
0
  6
ByLayer
 62
  256
370
   -1
100
AcDbCircle
 10
202.2743948384093
 20
327.8000774750755
 40
3
  0
CIRCLE
  5
137
100
AcDbEntity
  8
0
  6
ByLayer
 62
  256
370
   -1
100
AcDbCircle
 10
256.2743948384083
 20
327.8000774750755
 40
3
  0
LINE
  5
138
100
AcDbEntity
  8
builder
  6
ByLayer
 62
  256
370
   -1
100
AcDbLine
 10
160.1095396790711
 20
397.0691931494349
 11
297.6536552057434
 21
397.0691931494355
  0
CIRCLE
  5
139
100
AcDbEntity
  8
0
  6
ByLayer
 62
  256
370
   -1
100
AcDbCircle
 10
204.2743948384106
 20
397.0691931494351
 40
3
  0
CIRCLE
  5
13A
100
AcDbEntity
  8
0
  6
ByLayer
 62
  256
370
   -1
100
AcDbCircle
 10
254.2743948384067
 20
397.0691931494353
 40
3
  0
DIMENSION
  5
13B
100
AcDbEntity
  8
measures
  6
ByLayer
 62
  256
370
   -1
100
AcDbDimension
  2
*D6
 10
254.2743948384067
 20
421.0610616272077
 30
0
 11
229.2743948384087
 21
422.9360616272077
 31
0
 70
   32
 71
    5
 72
    0
  3
Standard
 53
0
210
0
220
0
230
1
100
AcDbAlignedDimension
 13
204.2743948384106
 23
397.0691931494351
 33
0
 14
254.2743948384067
 24
397.0691931494353
 34
0
100
AcDbRotatedDimension
  0
DIMENSION
  5
13C
100
AcDbEntity
  8
measures
  6
CONTINUOUS
 62
  256
370
   -1
100
AcDbDimension
  2
*D7
 10
256.2743948384083
 20
300.8555253871041
 30
0
 11
229.2743948384088
 21
302.7305253871041
 31
0
 70
   32
 71
    5
 72
    0
  3
Standard
 53
0
210
0
220
0
230
1
100
AcDbAlignedDimension
 13
202.2743948384093
 23
327.8000774750755
 33
0
 14
256.2743948384083
 24
327.8000774750755
 34
0
100
AcDbRotatedDimension
  0
DIMENSION
  5
13D
100
AcDbEntity
  8
measures
  6
CONTINUOUS
 62
  256
370
   -1
100
AcDbDimension
  2
*D8
 10
320.8405423338238
 20
345.8000774750755
 30
0
 11
318.9655423338238
 21
362.4346353122552
 31
0
 70
   32
 71
    5
 72
    0
  3
Standard
 53
0
210
0
220
0
230
1
100
AcDbAlignedDimension
 13
286.604083137007
 23
379.069193149435
 33
0
 14
290.3006515452685
 24
345.8000774750755
 34
0
 50
90
100
AcDbRotatedDimension
  0
DIMENSION
  5
13E
100
AcDbEntity
  8
measures
  6
CONTINUOUS
 62
  256
370
   -1
100
AcDbDimension
  2
*D9
 10
332.1833897900701
 20
337.8000774750755
 30
0
 11
330.3083897900701
 21
362.4346353122554
 31
0
 70
   32
 71
    5
 72
    0
  3
Standard
 53
0
210
0
220
0
230
1
100
AcDbAlignedDimension
 13
275.6536552057433
 23
387.0691931494354
 33
0
 14
281.1280013917823
 24
337.8000774750755
 34
0
 50
90
100
AcDbRotatedDimension
  0
DIMENSION
  5
13F
100
AcDbEntity
  8
measures
  6
CONTINUOUS
 62
  256
370
   -1
100
AcDbDimension
  2
*D10
 10
345.1466440257806
 20
315.9346353122548
 30
0
 11
343.2716440257806
 21
362.4346353122548
 31
0
 70
   32
 71
    5
 72
    0
  3
Standard
 53
0
210
0
220
0
230
1
100
AcDbAlignedDimension
 13
295.2241616320968
 23
408.9346353122548
 33
0
 14
305.5574949654303
 24
315.9346353122548
 34
0
 50
90
100
AcDbRotatedDimension
  0
DIMENSION
  5
140
100
AcDbEntity
  8
measures
  6
CONTINUOUS
 62
  256
370
   -1
100
AcDbDimension
  2
*D11
 10
142.607580458109
 20
411.1492411783225
 30
0
 11
135.5773817889293
 21
364.8563002897129
 31
0
 70
   33
 71
    5
 72
    0
  3
Standard
 53
0
210
0
220
0
230
1
100
AcDbAlignedDimension
 13
152.2056999193844
 23
315.9346353122548
 33
0
 14
162.5390332527179
 24
408.9346353122548
 34
0
  0
DIMENSION
  5
141
100
AcDbEntity
  8
measures
  6
CONTINUOUS
 62
  256
370
   -1
100
AcDbDimension
  2
*D12
 10
281.1280013917823
 20
291.0720000000477
 30
0
 11
228.881597442407
 21
292.9470000000477
 31
0
 70
   32
 71
    5
 72
    0
  3
Standard
 53
0
210
0
220
0
230
1
100
AcDbAlignedDimension
 13
176.6351934930317
 23
337.8000774750755
 33
0
 14
281.1280013917823
 24
337.8000774750755
 34
0
100
AcDbRotatedDimension
  0
DIMENSION
  5
142
100
AcDbEntity
  8
measures
  6
CONTINUOUS
 62
  256
370
   -1
100
AcDbDimension
  2
*D13
 10
290.3006515452685
 20
282.5445000000463
 30
0
 11
228.8815974424071
 21
284.4195000000463
 31
0
 70
   32
 71
    5
 72
    0
  3
Standard
 53
0
210
0
220
0
230
1
100
AcDbAlignedDimension
 13
167.4625433395456
 23
345.8000774750755
 33
0
 14
290.3006515452685
 24
345.8000774750755
 34
0
100
AcDbRotatedDimension
  0
DIMENSION
  5
143
100
AcDbEntity
  8
measures
  6
CONTINUOUS
 62
  256
370
   -1
100
AcDbDimension
  2
*D14
 10
306.1372500000501
 20
273.4485000000448
 30
0
 11
229.1714749597173
 21
275.3235000000448
 31
0
 70
   32
 71
    5
 72
    0
  3
Standard
 53
0
210
0
220
0
230
1
100
AcDbAlignedDimension
 13
152.2056999193844
 23
315.9346353122548
 33
0
 14
306.1372500000501
 24
313.8120000000514
 34
0
100
AcDbRotatedDimension
  0
DIMENSION
  5
144
100
AcDbEntity
  8
measures
  6
CONTINUOUS
 62
  256
370
   -1
100
AcDbDimension
  2
*D15
 10
275.6536552057433
 20
430.7651224173683
 30
0
 11
228.8815974424072
 21
432.6401224173683
 31
0
 70
   32
 71
    5
 72
    0
  3
Standard
 53
0
210
0
220
0
230
1
100
AcDbAlignedDimension
 13
182.1095396790712
 23
387.069193149435
 33
0
 14
275.6536552057433
 24
387.0691931494354
 34
0
100
AcDbRotatedDimension
  0
DIMENSION
  5
145
100
AcDbEntity
  8
measures
  6
CONTINUOUS
 62
  256
370
   -1
100
AcDbDimension
  2
*D16
 10
286.604083137007
 20
439.539193776015
 30
0
 11
228.8815974424072
 21
441.414193776015
 31
0
 70
   32
 71
    5
 72
    0
  3
Standard
 53
0
210
0
220
0
230
1
100
AcDbAlignedDimension
 13
171.1591117478075
 23
379.069193149435
 33
0
 14
286.604083137007
 24
379.069193149435
 34
0
100
AcDbRotatedDimension
  0
DIMENSION
  5
146
100
AcDbEntity
  8
measures
  6
CONTINUOUS
 62
  256
370
   -1
100
AcDbDimension
  2
*D17
 10
295.2241616320968
 20
449.1488909783423
 30
0
 11
228.8815974424073
 21
451.0238909783423
 31
0
 70
   32
 71
    5
 72
    0
  3
Standard
 53
0
210
0
220
0
230
1
100
AcDbAlignedDimension
 13
162.5390332527179
 23
408.9346353122548
 33
0
 14
295.2241616320968
 24
408.9346353122548
 34
0
100
AcDbRotatedDimension
  0
LINE
  5
147
100
AcDbEntity
  8
builder
  6
CONTINUOUS
 62
  256
370
   -1
100
AcDbLine
 10
372.0000000000028
 20
315.9346353122548
 11
372.0000000000028
 21
509.1172264465
  0
LINE
  5
148
100
AcDbEntity
  8
builder
  6
CONTINUOUS
 62
  256
370
   -1
100
AcDbLine
 10
407.0000000000039
 20
315.9346353122545
 11
407.0000000000039
 21
589.1379682027958
  0
LINE
  5
149
100
AcDbEntity
  8
builder
  6
CONTINUOUS
 62
  256
370
   -1
100
AcDbLine
 10
303.8815974424073
 20
116.1655196378957
 11
464.1901561646019
 21
116.1655196378957
  0
LWPOLYLINE
  5
14A
100
AcDbEntity
  8
0
  6
CONTINUOUS
 62
  256
370
   -1
100
AcDbPolyline
 90
    4
 70
    1
 43
0
 10
407.0000000000038
 20
116.1655196378957
 10
372.0000000000027
 20
116.1655196378957
 10
372.0000000000027
 20
206.7155196378954
 10
407.0000000000038
 20
206.7155196378954
  0
DIMENSION
  5
14B
100
AcDbEntity
  8
measures
  6
CONTINUOUS
 62
  256
370
   -1
100
AcDbDimension
  2
*D18
 10
361.8259903137229
 20
206.7155196378954
 30
0
 11
359.9509903137229
 21
161.4405196378956
 31
0
 70
   32
 71
    5
 72
    0
  3
Standard
 53
0
210
0
220
0
230
1
100
AcDbAlignedDimension
 13
372.0000000000028
 23
116.1655196378957
 33
0
 14
372.0000000000027
 24
206.7155196378954
 34
0
 50
90
100
AcDbRotatedDimension
  0
DIMENSION
  5
14C
100
AcDbEntity
  8
measures
  6
CONTINUOUS
 62
  256
370
   -1
100
AcDbDimension
  2
*D19
 10
407.0000000000039
 20
106.5422950692833
 30
0
 11
389.5000000000034
 21
108.4172950692833
 31
0
 70
   32
 71
    5
 72
    0
  3
Standard
 53
0
210
0
220
0
230
1
100
AcDbAlignedDimension
 13
372.0000000000028
 23
116.1655196378957
 33
0
 14
407.0000000000039
 24
116.1655196378957
 34
0
100
AcDbRotatedDimension
  0
LWPOLYLINE
  5
14D
100
AcDbEntity
  8
0
  6
CONTINUOUS
 62
  256
370
   -1
100
AcDbPolyline
 90
    4
 70
    1
 43
0
 10
113.8815974424071
 20
116.1655196378957
 10
78.88159744240602
 20
116.1655196378957
 10
78.88159744240602
 20
206.7155196378955
 10
113.8815974424071
 20
206.7155196378955
  0
DIMENSION
  5
14E
100
AcDbEntity
  8
measures
  6
CONTINUOUS
 62
  256
370
   -1
100
AcDbDimension
  2
*D20
 10
68.7075877561262
 20
206.7155196378955
 30
0
 11
66.8325877561262
 21
161.4405196378956
 31
0
 70
   32
 71
    5
 72
    0
  3
Standard
 53
0
210
0
220
0
230
1
100
AcDbAlignedDimension
 13
78.88159744240608
 23
116.1655196378957
 33
0
 14
78.88159744240602
 24
206.7155196378955
 34
0
 50
90
100
AcDbRotatedDimension
  0
DIMENSION
  5
14F
100
AcDbEntity
  8
measures
  6
CONTINUOUS
 62
  256
370
   -1
100
AcDbDimension
  2
*D21
 10
113.8815974424072
 20
106.5422950692833
 30
0
 11
96.38159744240664
 21
108.4172950692833
 31
0
 70
   32
 71
    5
 72
    0
  3
Standard
 53
0
210
0
220
0
230
1
100
AcDbAlignedDimension
 13
78.88159744240608
 23
116.1655196378957
 33
0
 14
113.8815974424072
 24
116.1655196378957
 34
0
100
AcDbRotatedDimension
  0
ENDSEC
  0
SECTION
  2
OBJECTS
  0
DICTIONARY
  5
C
330
0
100
AcDbDictionary
281
    1
  3
ACAD_GROUP
350
D
  0
DICTIONARY
  5
D
330
C
100
AcDbDictionary
281
    1
  0
PLOTSETTINGS
  5
150
100
AcDbPlotSettings
  6
1x1
 40
0
 41
0
 42
0
 43
0
  0
ENDSEC
  0
EOF
