999
dxfrw 0.6.3
  0
SECTION
  2
HEADER
  9
$ACADVER
  1
AC1021
  9
$DWGCODEPAGE
  3
ANSI_1252
  9
$INSBASE
 10
0
 20
0
 30
0
  9
$EXTMIN
 10
-63.88741666668768
 20
-60.94662165091092
 30
0
  9
$EXTMAX
 10
138.721278064298
 20
177.1505280030836
 30
0
  9
$LIMMIN
 10
0
 20
0
  9
$LIMMAX
 10
420
 20
297
  9
$ORTHOMODE
 70
    0
  9
$REGENMODE
 70
    1
  9
$FILLMODE
 70
    1
  9
$QTEXTMODE
 70
    0
  9
$MIRRTEXT
 70
    0
  9
$LTSCALE
 40
1
  9
$ATTMODE
 70
    0
  9
$TEXTSIZE
 40
2.5
  9
$TRACEWID
 40
15.68
  9
$TEXTSTYLE
  7
STANDARD
  9
$CLAYER
  8
sizes
  9
$CELTYPE
  6
BYLAYER
  9
$CECOLOR
 62
  256
  9
$CELTSCALE
 40
1
  9
$DISPSILH
 70
    0
  9
$DIMSCALE
 40
2.5
  9
$DIMASZ
 40
2.5
  9
$DIMEXO
 40
0.625
  9
$DIMDLI
 40
3.75
  9
$DIMRND
 40
0
  9
$DIMDLE
 40
0
  9
$DIMEXE
 40
1.25
  9
$DIMTP
 40
0
  9
$DIMTM
 40
0
  9
$DIMTXT
 40
1.2
  9
$DIMCEN
 40
2.5
  9
$DIMTSZ
 40
0
  9
$DIMTOL
 70
    0
  9
$DIMLIM
 70
    0
  9
$DIMTIH
 70
    0
  9
$DIMTOH
 70
    0
  9
$DIMSE1
 70
    0
  9
$DIMSE2
 70
    0
  9
$DIMTAD
 70
    1
  9
$DIMZIN
 70
    8
  9
$DIMBLK
  1

  9
$DIMASO
 70
    1
  9
$DIMSHO
 70
    1
  9
$DIMPOST
  1

  9
$DIMAPOST
  1

  9
$DIMALT
 70
    0
  9
$DIMALTD
 70
    3
  9
$DIMALTF
 40
0.03937
  9
$DIMLFAC
 40
1
  9
$DIMTOFL
 70
    1
  9
$DIMTVP
 40
0
  9
$DIMTIX
 70
    0
  9
$DIMSOXD
 70
    0
  9
$DIMSAH
 70
    0
  9
$DIMBLK1
  1

  9
$DIMBLK2
  1

  9
$DIMSTYLE
  2
STANDARD
  9
$DIMCLRD
 70
    0
  9
$DIMCLRE
 70
    0
  9
$DIMCLRT
 70
    0
  9
$DIMTFAC
 40
1
  9
$DIMGAP
 40
0.625
  9
$DIMJUST
 70
    0
  9
$DIMSD1
 70
    0
  9
$DIMSD2
 70
    0
  9
$DIMTOLJ
 70
    0
  9
$DIMTZIN
 70
    8
  9
$DIMALTZ
 70
    0
  9
$DIMALTTZ
 70
    0
  9
$DIMUPT
 70
    0
  9
$DIMDEC
 70
    2
  9
$DIMTDEC
 70
    2
  9
$DIMALTU
 70
    2
  9
$DIMALTTD
 70
    3
  9
$DIMTXSTY
  7
kst32b
  9
$DIMAUNIT
 70
    0
  9
$DIMADEC
 70
    0
  9
$DIMALTRND
 40
0
  9
$DIMAZIN
 70
    0
  9
$DIMDSEP
 70
   44
  9
$DIMATFIT
 70
    3
  9
$DIMFRAC
 70
    0
  9
$DIMLDRBLK
  1
STANDARD
  9
$DIMLUNIT
 70
    2
  9
$DIMLWD
 70
   -2
  9
$DIMLWE
 70
   -2
  9
$DIMTMOVE
 70
    0
  9
$DIMFXL
 40
1
  9
$DIMFXLON
 70
    0
  9
$DIMJOGANG
 40
0.7854
  9
$DIMTFILL
 70
    0
  9
$DIMTFILLCLR
 70
    0
  9
$DIMARCSYM
 70
    0
  9
$DIMLTYPE
  6

  9
$DIMLTEX1
  6

  9
$DIMLTEX2
  6

  9
$LUNITS
 70
    2
  9
$LUPREC
 70
    4
  9
$SKETCHINC
 40
1
  9
$FILLETRAD
 40
0
  9
$AUNITS
 70
    0
  9
$AUPREC
 70
    2
  9
$MENU
  1
.
  9
$ELEVATION
 40
0
  9
$PELEVATION
 40
0
  9
$THICKNESS
 40
0
  9
$LIMCHECK
 70
    0
  9
$CHAMFERA
 40
0
  9
$CHAMFERB
 40
0
  9
$CHAMFERC
 40
0
  9
$CHAMFERD
 40
0
  9
$SKPOLY
 70
    0
  9
$USRTIMER
 70
    1
  9
$ANGBASE
 50
0
  9
$ANGDIR
 70
    0
  9
$PDMODE
 70
   34
  9
$PDSIZE
 40
0
  9
$PLINEWID
 40
0
  9
$SPLFRAME
 70
    0
  9
$SPLINETYPE
 70
    2
  9
$SPLINESEGS
 70
    8
  9
$HANDSEED
  5
20000
  9
$SURFTAB1
 70
    6
  9
$SURFTAB2
 70
    6
  9
$SURFTYPE
 70
    6
  9
$SURFU
 70
    6
  9
$SURFV
 70
    6
  9
$UCSBASE
  2

  9
$UCSNAME
  2

  9
$UCSORG
 10
0
 20
0
 30
0
  9
$UCSXDIR
 10
1
 20
0
 30
0
  9
$UCSYDIR
 10
0
 20
1
 30
0
  9
$UCSORTHOREF
  2

  9
$UCSORTHOVIEW
 70
    0
  9
$UCSORGTOP
 10
0
 20
0
 30
0
  9
$UCSORGBOTTOM
 10
0
 20
0
 30
0
  9
$UCSORGLEFT
 10
0
 20
0
 30
0
  9
$UCSORGRIGHT
 10
0
 20
0
 30
0
  9
$UCSORGFRONT
 10
0
 20
0
 30
0
  9
$UCSORGBACK
 10
0
 20
0
 30
0
  9
$PUCSBASE
  2

  9
$PUCSNAME
  2

  9
$PUCSORG
 10
0
 20
0
 30
0
  9
$PUCSXDIR
 10
1
 20
0
 30
0
  9
$PUCSYDIR
 10
0
 20
1
 30
0
  9
$PUCSORTHOREF
  2

  9
$PUCSORTHOVIEW
 70
    0
  9
$PUCSORGTOP
 10
0
 20
0
 30
0
  9
$PUCSORGBOTTOM
 10
0
 20
0
 30
0
  9
$PUCSORGLEFT
 10
0
 20
0
 30
0
  9
$PUCSORGRIGHT
 10
0
 20
0
 30
0
  9
$PUCSORGFRONT
 10
0
 20
0
 30
0
  9
$PUCSORGBACK
 10
0
 20
0
 30
0
  9
$USERI1
 70
    0
  9
$USERI2
 70
    0
  9
$USERI3
 70
    0
  9
$USERI4
 70
    0
  9
$USERI5
 70
    0
  9
$USERR1
 40
0
  9
$USERR2
 40
0
  9
$USERR3
 40
0
  9
$USERR4
 40
0
  9
$USERR5
 40
0
  9
$WORLDVIEW
 70
    1
  9
$SHADEDGE
 70
    3
  9
$SHADEDIF
 70
   70
  9
$TILEMODE
 70
    1
  9
$MAXACTVP
 70
   64
  9
$PINSBASE
 10
127.9376932370938
 20
52.00099696331611
 30
0
  9
$PLIMCHECK
 70
    0
  9
$PEXTMIN
 10
0
 20
0
 30
0
  9
$PEXTMAX
 10
0
 20
0
 30
0
  9
$GRIDMODE
 70
    1
  9
$SNAPSTYLE
 70
    0
  9
$GRIDUNIT
 10
0
 20
0
  9
$PLIMMIN
 10
0
 20
0
  9
$PLIMMAX
 10
297
 20
210
  9
$UNITMODE
 70
    0
  9
$VISRETAIN
 70
    1
  9
$PLINEGEN
 70
    0
  9
$PSLTSCALE
 70
    1
  9
$TREEDEPTH
 70
 3020
  9
$CMLSTYLE
  2
Standard
  9
$CMLJUST
 70
    0
  9
$CMLSCALE
 40
20
  9
$PROXYGRAPHICS
 70
    1
  9
$MEASUREMENT
 70
    1
  9
$CELWEIGHT
370
   -1
  9
$ENDCAPS
280
    0
  9
$JOINSTYLE
280
    0
  9
$LWDISPLAY
290
    0
  9
$INSUNITS
 70
    4
  9
$HYPERLINKBASE
  1

  9
$STYLESHEET
  1

  9
$XEDIT
290
    1
  9
$CEPSNTYPE
380
    0
  9
$PSTYLEMODE
290
    1
  9
$EXTNAMES
290
    1
  9
$PSVPSCALE
 40
0.8333333333333334
  9
$OLESTARTUP
290
    0
  9
$SORTENTS
280
  127
  9
$INDEXCTL
280
    0
  9
$HIDETEXT
280
    1
  9
$XCLIPFRAME
290
    0
  9
$HALOGAP
280
    0
  9
$OBSCOLOR
 70
  257
  9
$OBSLTYPE
280
    0
  9
$INTERSECTIONDISPLAY
280
    0
  9
$INTERSECTIONCOLOR
 70
  257
  9
$DIMASSOC
280
    1
  9
$PROJECTNAME
  1

  9
$CAMERADISPLAY
290
    0
  9
$LENSLENGTH
 40
50
  9
$CAMERAHEIGHT
 40
0
  9
$STEPSPERSEC
 40
2
  9
$STEPSIZE
 40
50
  9
$3DDWFPREC
 40
2
  9
$PSOLWIDTH
 40
5
  9
$PSOLHEIGHT
 40
80
  9
$LOFTANG1
 40
1.570796326794897
  9
$LOFTANG2
 40
1.570796326794897
  9
$LOFTMAG1
 40
0
  9
$LOFTMAG2
 40
0
  9
$LOFTPARAM
 70
    7
  9
$LOFTNORMALS
280
    1
  9
$LATITUDE
 40
1
  9
$LONGITUDE
 40
1
  9
$NORTHDIRECTION
 40
0
  9
$TIMEZONE
 70
-8000
  9
$LIGHTGLYPHDISPLAY
280
    1
  9
$TILEMODELIGHTSYNCH
280
    1
  9
$SOLIDHIST
280
    1
  9
$SHOWHIST
280
    1
  9
$DWFFRAME
280
    2
  9
$DGNFRAME
280
    0
  9
$REALWORLDSCALE
290
    1
  9
$INTERFERECOLOR
 62
    1
  9
$CSHADOW
280
    0
  9
$SHADOWPLANELOCATION
 40
0
  0
ENDSEC
  0
SECTION
  2
CLASSES
  0
ENDSEC
  0
SECTION
  2
TABLES
  0
TABLE
  2
VPORT
  5
8
330
0
100
AcDbSymbolTable
 70
    1
  0
VPORT
  5
31
330
2
100
AcDbSymbolTableRecord
100
AcDbViewportTableRecord
  2
*ACTIVE
 70
    0
 10
0
 20
0
 11
1
 21
1
 12
67.25000000002385
 22
85.25000000003023
 13
0
 23
0
 14
10
 24
10
 15
10
 25
10
 16
0
 26
0
 36
1
 17
0
 27
0
 37
0
 40
203.250000000072
 41
1.797047970479705
 42
50
 43
0
 44
0
 50
0
 51
0
 71
    0
 72
  100
 73
    1
 74
    3
 75
    0
 76
    1
 77
    0
 78
    0
281
    0
 65
    1
110
0
120
0
130
0
111
1
121
0
131
0
112
0
122
1
132
0
 79
    0
146
0
348
10020
 60
    7
 61
    5
292
1
282
    1
141
0
142
0
 63
  250
421
3358443
  0
ENDTAB
  0
TABLE
  2
LTYPE
  5
5
330
0
100
AcDbSymbolTable
 70
    4
  0
LTYPE
  5
14
330
5
100
AcDbSymbolTableRecord
100
AcDbLinetypeTableRecord
  2
ByBlock
 70
    0
  3

 72
   65
 73
    0
 40
0
  0
LTYPE
  5
15
330
5
100
AcDbSymbolTableRecord
100
AcDbLinetypeTableRecord
  2
ByLayer
 70
    0
  3

 72
   65
 73
    0
 40
0
  0
LTYPE
  5
16
330
5
100
AcDbSymbolTableRecord
100
AcDbLinetypeTableRecord
  2
Continuous
 70
    0
  3
Solid line
 72
   65
 73
    0
 40
0
  0
LTYPE
  5
32
330
5
100
AcDbSymbolTableRecord
100
AcDbLinetypeTableRecord
  2
DOT
 70
    0
  3
Dot . . . . . . . . . . . . . . . . . . . . . .
 72
   65
 73
    2
 40
6.35
 49
0
 74
    0
 49
-6.35
 74
    0
  0
LTYPE
  5
33
330
5
100
AcDbSymbolTableRecord
100
AcDbLinetypeTableRecord
  2
DOTTINY
 70
    0
  3
Dot (.15x) .....................................
 72
   65
 73
    2
 40
0.9525
 49
0
 74
    0
 49
-0.9525
 74
    0
  0
LTYPE
  5
34
330
5
100
AcDbSymbolTableRecord
100
AcDbLinetypeTableRecord
  2
DOT2
 70
    0
  3
Dot (.5x) .....................................
 72
   65
 73
    2
 40
3.175
 49
0
 74
    0
 49
-3.175
 74
    0
  0
LTYPE
  5
35
330
5
100
AcDbSymbolTableRecord
100
AcDbLinetypeTableRecord
  2
DOTX2
 70
    0
  3
Dot (2x) .  .  .  .  .  .  .  .  .  .  .  .  .
 72
   65
 73
    2
 40
12.7
 49
0
 74
    0
 49
-12.7
 74
    0
  0
LTYPE
  5
36
330
5
100
AcDbSymbolTableRecord
100
AcDbLinetypeTableRecord
  2
DASHED
 70
    0
  3
Dashed _ _ _ _ _ _ _ _ _ _ _ _ _ _ _ _ _
 72
   65
 73
    2
 40
19.05
 49
12.7
 74
    0
 49
-6.35
 74
    0
  0
LTYPE
  5
37
330
5
100
AcDbSymbolTableRecord
100
AcDbLinetypeTableRecord
  2
DASHEDTINY
 70
    0
  3
Dashed (.15x) _ _ _ _ _ _ _ _ _ _ _ _ _ _ _ _ _
 72
   65
 73
    2
 40
2.8575
 49
1.905
 74
    0
 49
-0.9525
 74
    0
  0
LTYPE
  5
38
330
5
100
AcDbSymbolTableRecord
100
AcDbLinetypeTableRecord
  2
DASHED2
 70
    0
  3
Dashed (.5x) _ _ _ _ _ _ _ _ _ _ _ _ _ _ _ _ _
 72
   65
 73
    2
 40
9.524999999999999
 49
6.35
 74
    0
 49
-3.175
 74
    0
  0
LTYPE
  5
39
330
5
100
AcDbSymbolTableRecord
100
AcDbLinetypeTableRecord
  2
DASHEDX2
 70
    0
  3
Dashed (2x) ____  ____  ____  ____  ____  ___
 72
   65
 73
    2
 40
38.09999999999999
 49
25.4
 74
    0
 49
-12.7
 74
    0
  0
LTYPE
  5
3A
330
5
100
AcDbSymbolTableRecord
100
AcDbLinetypeTableRecord
  2
DASHDOT
 70
    0
  3
Dash dot __ . __ . __ . __ . __ . __ . __ . __
 72
   65
 73
    4
 40
25.4
 49
12.7
 74
    0
 49
-6.35
 74
    0
 49
0
 74
    0
 49
-6.35
 74
    0
  0
LTYPE
  5
3B
330
5
100
AcDbSymbolTableRecord
100
AcDbLinetypeTableRecord
  2
DASHDOTTINY
 70
    0
  3
Dash dot (.15x) _._._._._._._._._._._._._._._.
 72
   65
 73
    4
 40
3.81
 49
1.905
 74
    0
 49
-0.9525
 74
    0
 49
0
 74
    0
 49
-0.9525
 74
    0
  0
LTYPE
  5
3C
330
5
100
AcDbSymbolTableRecord
100
AcDbLinetypeTableRecord
  2
DASHDOT2
 70
    0
  3
Dash dot (.5x) _._._._._._._._._._._._._._._.
 72
   65
 73
    4
 40
12.7
 49
6.35
 74
    0
 49
-3.175
 74
    0
 49
0
 74
    0
 49
-3.175
 74
    0
  0
LTYPE
  5
3D
330
5
100
AcDbSymbolTableRecord
100
AcDbLinetypeTableRecord
  2
DASHDOTX2
 70
    0
  3
Dash dot (2x) ____  .  ____  .  ____  .  ___
 72
   65
 73
    4
 40
50.8
 49
25.4
 74
    0
 49
-12.7
 74
    0
 49
0
 74
    0
 49
-12.7
 74
    0
  0
LTYPE
  5
3E
330
5
100
AcDbSymbolTableRecord
100
AcDbLinetypeTableRecord
  2
DIVIDE
 70
    0
  3
Divide ____ . . ____ . . ____ . . ____ . . ____
 72
   65
 73
    6
 40
31.75
 49
12.7
 74
    0
 49
-6.35
 74
    0
 49
0
 74
    0
 49
-6.35
 74
    0
 49
0
 74
    0
 49
-6.35
 74
    0
  0
LTYPE
  5
3F
330
5
100
AcDbSymbolTableRecord
100
AcDbLinetypeTableRecord
  2
DIVIDETINY
 70
    0
  3
Divide (.15x) __..__..__..__..__..__..__..__.._
 72
   65
 73
    6
 40
4.7625
 49
1.905
 74
    0
 49
-0.9525
 74
    0
 49
0
 74
    0
 49
-0.9525
 74
    0
 49
0
 74
    0
 49
-0.9525
 74
    0
  0
LTYPE
  5
40
330
5
100
AcDbSymbolTableRecord
100
AcDbLinetypeTableRecord
  2
DIVIDE2
 70
    0
  3
Divide (.5x) __..__..__..__..__..__..__..__.._
 72
   65
 73
    6
 40
15.875
 49
6.35
 74
    0
 49
-3.175
 74
    0
 49
0
 74
    0
 49
-3.175
 74
    0
 49
0
 74
    0
 49
-3.175
 74
    0
  0
LTYPE
  5
41
330
5
100
AcDbSymbolTableRecord
100
AcDbLinetypeTableRecord
  2
DIVIDEX2
 70
    0
  3
Divide (2x) ________  .  .  ________  .  .  _
 72
   65
 73
    6
 40
63.5
 49
25.4
 74
    0
 49
-12.7
 74
    0
 49
0
 74
    0
 49
-12.7
 74
    0
 49
0
 74
    0
 49
-12.7
 74
    0
  0
LTYPE
  5
42
330
5
100
AcDbSymbolTableRecord
100
AcDbLinetypeTableRecord
  2
BORDER
 70
    0
  3
Border __ __ . __ __ . __ __ . __ __ . __ __ .
 72
   65
 73
    6
 40
44.45
 49
12.7
 74
    0
 49
-6.35
 74
    0
 49
12.7
 74
    0
 49
-6.35
 74
    0
 49
0
 74
    0
 49
-6.35
 74
    0
  0
LTYPE
  5
43
330
5
100
AcDbSymbolTableRecord
100
AcDbLinetypeTableRecord
  2
BORDERTINY
 70
    0
  3
Border (.15x) __.__.__.__.__.__.__.__.__.__.__.
 72
   65
 73
    6
 40
6.6675
 49
1.905
 74
    0
 49
-0.9525
 74
    0
 49
1.905
 74
    0
 49
-0.9525
 74
    0
 49
0
 74
    0
 49
-0.9525
 74
    0
  0
LTYPE
  5
44
330
5
100
AcDbSymbolTableRecord
100
AcDbLinetypeTableRecord
  2
BORDER2
 70
    0
  3
Border (.5x) __.__.__.__.__.__.__.__.__.__.__.
 72
   65
 73
    6
 40
22.225
 49
6.35
 74
    0
 49
-3.175
 74
    0
 49
6.35
 74
    0
 49
-3.175
 74
    0
 49
0
 74
    0
 49
-3.175
 74
    0
  0
LTYPE
  5
45
330
5
100
AcDbSymbolTableRecord
100
AcDbLinetypeTableRecord
  2
BORDERX2
 70
    0
  3
Border (2x) ____  ____  .  ____  ____  .  ___
 72
   65
 73
    6
 40
88.89999999999999
 49
25.4
 74
    0
 49
-12.7
 74
    0
 49
25.4
 74
    0
 49
-12.7
 74
    0
 49
0
 74
    0
 49
-12.7
 74
    0
  0
LTYPE
  5
46
330
5
100
AcDbSymbolTableRecord
100
AcDbLinetypeTableRecord
  2
CENTER
 70
    0
  3
Center ____ _ ____ _ ____ _ ____ _ ____ _ ____
 72
   65
 73
    4
 40
50.8
 49
31.75
 74
    0
 49
-6.35
 74
    0
 49
6.35
 74
    0
 49
-6.35
 74
    0
  0
LTYPE
  5
47
330
5
100
AcDbSymbolTableRecord
100
AcDbLinetypeTableRecord
  2
CENTERTINY
 70
    0
  3
Center (.15x) ___ _ ___ _ ___ _ ___ _ ___ _ ___
 72
   65
 73
    4
 40
7.619999999999999
 49
4.7625
 74
    0
 49
-0.9525
 74
    0
 49
0.9525
 74
    0
 49
-0.9525
 74
    0
  0
LTYPE
  5
48
330
5
100
AcDbSymbolTableRecord
100
AcDbLinetypeTableRecord
  2
CENTER2
 70
    0
  3
Center (.5x) ___ _ ___ _ ___ _ ___ _ ___ _ ___
 72
   65
 73
    4
 40
28.575
 49
19.05
 74
    0
 49
-3.175
 74
    0
 49
3.175
 74
    0
 49
-3.175
 74
    0
  0
LTYPE
  5
49
330
5
100
AcDbSymbolTableRecord
100
AcDbLinetypeTableRecord
  2
CENTERX2
 70
    0
  3
Center (2x) ________  __  ________  __  _____
 72
   65
 73
    4
 40
101.6
 49
63.5
 74
    0
 49
-12.7
 74
    0
 49
12.7
 74
    0
 49
-12.7
 74
    0
  0
ENDTAB
  0
TABLE
  2
LAYER
  5
2
330
0
100
AcDbSymbolTable
 70
    1
  0
LAYER
  5
10
330
2
100
AcDbSymbolTableRecord
100
AcDbLayerTableRecord
  2
0
 70
    0
 62
    7
  6
CONTINUOUS
370
   35
390
F
  0
LAYER
  5
4A
330
2
100
AcDbSymbolTableRecord
100
AcDbLayerTableRecord
  2
InternalComps
 70
    0
 62
  136
420
32896
  6
DASHEDTINY
370
    0
390
F
  0
LAYER
  5
4B
330
2
100
AcDbSymbolTableRecord
100
AcDbLayerTableRecord
  2
builder
 70
    1
 62
    9
  6
DASHEDTINY
370
   -3
390
F
  0
LAYER
  5
4C
330
2
100
AcDbSymbolTableRecord
100
AcDbLayerTableRecord
  2
sizes
 70
    0
 62
    6
  6
CONTINUOUS
370
   25
390
F
  0
ENDTAB
  0
TABLE
  2
STYLE
  5
3
330
0
100
AcDbSymbolTable
 70
    3
  0
STYLE
  5
4D
330
2
100
AcDbSymbolTableRecord
100
AcDbTextStyleTableRecord
  2
Standard
 70
    0
 40
0
 41
1
 50
0
 71
    0
 42
1
  3
txt
  4

  0
ENDTAB
  0
TABLE
  2
VIEW
  5
6
330
0
100
AcDbSymbolTable
 70
    0
  0
ENDTAB
  0
TABLE
  2
UCS
  5
7
330
0
100
AcDbSymbolTable
 70
    0
  0
ENDTAB
  0
TABLE
  2
APPID
  5
9
330
0
100
AcDbSymbolTable
 70
    1
  0
APPID
  5
12
330
9
100
AcDbSymbolTableRecord
100
AcDbRegAppTableRecord
  2
ACAD
 70
    0
  0
APPID
  5
4E
330
9
100
AcDbSymbolTableRecord
100
AcDbRegAppTableRecord
  2
LibreCad
 70
    0
  0
ENDTAB
  0
TABLE
  2
DIMSTYLE
  5
A
330
0
100
AcDbSymbolTable
 70
    1
100
AcDbDimStyleTable
 71
    1
  0
DIMSTYLE
105
4F
330
A
100
AcDbSymbolTableRecord
100
AcDbDimStyleTableRecord
  2
Standard
 70
    0
 40
2.5
 41
2.5
 42
0.625
 43
0.38
 44
1.25
 45
0
 46
0
 47
0
 48
0
 49
1
140
1.2
141
0.09
142
0
143
25.4
144
1
145
0
146
1
147
0.625
148
0
 71
    0
 72
    0
 73
    0
 74
    1
 75
    0
 76
    0
 77
    0
 78
    8
 79
    0
170
    0
171
    2
172
    0
173
    0
174
    0
175
    0
176
    0
177
    0
178
    0
179
    0
271
    2
272
    4
273
    2
274
    2
275
    0
276
    0
277
    2
278
   44
279
    0
280
    0
281
    0
282
    0
283
    1
284
    0
285
    0
286
    0
288
    0
289
    3
  0
ENDTAB
  0
TABLE
  2
BLOCK_RECORD
  5
1
330
0
100
AcDbSymbolTable
 70
    2
  0
BLOCK_RECORD
  5
1F
330
1
100
AcDbSymbolTableRecord
100
AcDbBlockTableRecord
  2
*Model_Space
 70
    0
280
    1
281
    0
  0
BLOCK_RECORD
  5
1E
330
1
100
AcDbSymbolTableRecord
100
AcDbBlockTableRecord
  2
*Paper_Space
 70
    0
280
    1
281
    0
  0
BLOCK_RECORD
  5
50
330
1
100
AcDbSymbolTableRecord
100
AcDbBlockTableRecord
  2
*D11
 70
    0
280
    1
281
    0
  0
BLOCK_RECORD
  5
53
330
1
100
AcDbSymbolTableRecord
100
AcDbBlockTableRecord
  2
*D13
 70
    0
280
    1
281
    0
  0
BLOCK_RECORD
  5
56
330
1
100
AcDbSymbolTableRecord
100
AcDbBlockTableRecord
  2
*D9
 70
    0
280
    1
281
    0
  0
BLOCK_RECORD
  5
59
330
1
100
AcDbSymbolTableRecord
100
AcDbBlockTableRecord
  2
*D16
 70
    0
280
    1
281
    0
  0
BLOCK_RECORD
  5
5C
330
1
100
AcDbSymbolTableRecord
100
AcDbBlockTableRecord
  2
*D8
 70
    0
280
    1
281
    0
  0
BLOCK_RECORD
  5
5F
330
1
100
AcDbSymbolTableRecord
100
AcDbBlockTableRecord
  2
*D2
 70
    0
280
    1
281
    0
  0
BLOCK_RECORD
  5
62
330
1
100
AcDbSymbolTableRecord
100
AcDbBlockTableRecord
  2
*D19
 70
    0
280
    1
281
    0
  0
BLOCK_RECORD
  5
65
330
1
100
AcDbSymbolTableRecord
100
AcDbBlockTableRecord
  2
*D4
 70
    0
280
    1
281
    0
  0
BLOCK_RECORD
  5
68
330
1
100
AcDbSymbolTableRecord
100
AcDbBlockTableRecord
  2
*D3
 70
    0
280
    1
281
    0
  0
BLOCK_RECORD
  5
6B
330
1
100
AcDbSymbolTableRecord
100
AcDbBlockTableRecord
  2
*D14
 70
    0
280
    1
281
    0
  0
BLOCK_RECORD
  5
6E
330
1
100
AcDbSymbolTableRecord
100
AcDbBlockTableRecord
  2
*D17
 70
    0
280
    1
281
    0
  0
BLOCK_RECORD
  5
71
330
1
100
AcDbSymbolTableRecord
100
AcDbBlockTableRecord
  2
*D18
 70
    0
280
    1
281
    0
  0
BLOCK_RECORD
  5
74
330
1
100
AcDbSymbolTableRecord
100
AcDbBlockTableRecord
  2
*D6
 70
    0
280
    1
281
    0
  0
BLOCK_RECORD
  5
77
330
1
100
AcDbSymbolTableRecord
100
AcDbBlockTableRecord
  2
*D21
 70
    0
280
    1
281
    0
  0
BLOCK_RECORD
  5
7A
330
1
100
AcDbSymbolTableRecord
100
AcDbBlockTableRecord
  2
*D10
 70
    0
280
    1
281
    0
  0
BLOCK_RECORD
  5
7D
330
1
100
AcDbSymbolTableRecord
100
AcDbBlockTableRecord
  2
*D12
 70
    0
280
    1
281
    0
  0
BLOCK_RECORD
  5
80
330
1
100
AcDbSymbolTableRecord
100
AcDbBlockTableRecord
  2
*D1
 70
    0
280
    1
281
    0
  0
BLOCK_RECORD
  5
83
330
1
100
AcDbSymbolTableRecord
100
AcDbBlockTableRecord
  2
*D15
 70
    0
280
    1
281
    0
  0
BLOCK_RECORD
  5
86
330
1
100
AcDbSymbolTableRecord
100
AcDbBlockTableRecord
  2
*D5
 70
    0
280
    1
281
    0
  0
BLOCK_RECORD
  5
89
330
1
100
AcDbSymbolTableRecord
100
AcDbBlockTableRecord
  2
*D7
 70
    0
280
    1
281
    0
  0
BLOCK_RECORD
  5
8C
330
1
100
AcDbSymbolTableRecord
100
AcDbBlockTableRecord
  2
*D20
 70
    0
280
    1
281
    0
  0
ENDTAB
  0
ENDSEC
  0
SECTION
  2
BLOCKS
  0
BLOCK
  5
20
330
1F
100
AcDbEntity
  8
0
100
AcDbBlockBegin
  2
*Model_Space
 70
    0
 10
0
 20
0
 30
0
  3
*Model_Space
  1

  0
ENDBLK
  5
21
330
1F
100
AcDbEntity
  8
0
100
AcDbBlockEnd
  0
BLOCK
  5
1C
330
1B
100
AcDbEntity
  8
0
100
AcDbBlockBegin
  2
*Paper_Space
 70
    0
 10
0
 20
0
 30
0
  3
*Paper_Space
  1

  0
ENDBLK
  5
1D
330
1F
100
AcDbEntity
  8
0
100
AcDbBlockEnd
  0
BLOCK
  5
51
330
50
100
AcDbEntity
  8
0
100
AcDbBlockBegin
  2
*D11
 70
    1
 10
0
 20
0
  3
*D11
  1

  0
LINE
  5
8F
100
AcDbEntity
  8
sizes
  6
ByBlock
 62
    0
370
   -2
100
AcDbLine
 10
82.89357959545542
 20
-20.50000000000072
 11
82.89357959545542
 21
-50.50000000000075
  0
MTEXT
  5
90
100
AcDbEntity
  8
sizes
  6
CONTINUOUS
 62
    0
370
   -2
100
AcDbMText
 10
79.83107959545542
 20
-35.50000000000074
 30
0
 40
3
 41
3.706666666666666
 71
    5
 72
    1
  1
30
  7
kst32b
210
0
220
0
230
1
 50
90
 73
    2
 44
1
  0
SOLID
  5
91
100
AcDbEntity
  8
sizes
  6
ByBlock
 62
    0
370
   -2
100
AcDbTrace
 10
82.89357959545542
 20
-20.50000000000072
 30
0
 11
83.93429123988753
 21
-26.75000000000072
 31
0
 12
81.85286795102331
 22
-26.75000000000072
 32
0
 13
81.85286795102331
 23
-26.75000000000072
 33
0
  0
SOLID
  5
92
100
AcDbEntity
  8
sizes
  6
ByBlock
 62
    0
370
   -2
100
AcDbTrace
 10
82.89357959545542
 20
-50.50000000000075
 30
0
 11
81.85286795102333
 21
-44.25000000000075
 31
0
 12
83.93429123988753
 22
-44.25000000000075
 32
0
 13
83.93429123988753
 23
-44.25000000000075
 33
0
  0
LINE
  5
93
100
AcDbEntity
  8
sizes
  6
ByBlock
 62
    0
370
   -2
100
AcDbLine
 10
77.5625
 20
-20.50000000000072
 11
86.01857959545542
 21
-20.50000000000072
  0
LINE
  5
94
100
AcDbEntity
  8
sizes
  6
ByBlock
 62
    0
370
   -2
100
AcDbLine
 10
77.5625
 20
-50.50000000000075
 11
86.01857959545542
 21
-50.50000000000075
  0
ENDBLK
  5
52
330
50
100
AcDbEntity
  8
0
100
AcDbBlockEnd
  0
BLOCK
  5
54
330
53
100
AcDbEntity
  8
0
100
AcDbBlockBegin
  2
*D13
 70
    1
 10
0
 20
0
  3
*D13
  1

  0
LINE
  5
95
100
AcDbEntity
  8
sizes
  6
ByBlock
 62
    0
370
   -2
100
AcDbLine
 10
95.43745038900492
 20
159.211638899866
 11
95.43745038900492
 21
115.0116388998667
  0
MTEXT
  5
96
100
AcDbEntity
  8
sizes
  6
CONTINUOUS
 62
    0
370
   -2
100
AcDbMText
 10
92.37495038900492
 20
137.1116388998663
 30
0
 40
3
 41
7.796666666666666
 71
    5
 72
    1
  1
44,2
  7
kst32b
210
0
220
0
230
1
 50
90
 73
    2
 44
1
  0
SOLID
  5
97
100
AcDbEntity
  8
sizes
  6
ByBlock
 62
    0
370
   -2
100
AcDbTrace
 10
95.43745038900492
 20
159.211638899866
 30
0
 11
96.47816203343703
 21
152.961638899866
 31
0
 12
94.39673874457281
 22
152.961638899866
 32
0
 13
94.39673874457281
 23
152.961638899866
 33
0
  0
SOLID
  5
98
100
AcDbEntity
  8
sizes
  6
ByBlock
 62
    0
370
   -2
100
AcDbTrace
 10
95.43745038900492
 20
115.0116388998667
 30
0
 11
94.39673874457283
 21
121.2616388998667
 31
0
 12
96.47816203343703
 22
121.2616388998667
 32
0
 13
96.47816203343703
 23
121.2616388998667
 33
0
  0
LINE
  5
99
100
AcDbEntity
  8
sizes
  6
ByBlock
 62
    0
370
   -2
100
AcDbLine
 10
77.5624930948965
 20
159.211638899866
 11
98.56245038900492
 21
159.211638899866
  0
LINE
  5
9A
100
AcDbEntity
  8
sizes
  6
ByBlock
 62
    0
370
   -2
100
AcDbLine
 10
77.56250158240195
 20
115.0116388998667
 11
98.56245038900492
 21
115.0116388998667
  0
ENDBLK
  5
55
330
53
100
AcDbEntity
  8
0
100
AcDbBlockEnd
  0
BLOCK
  5
57
330
56
100
AcDbEntity
  8
0
100
AcDbBlockBegin
  2
*D9
 70
    1
 10
0
 20
0
  3
*D9
  1

  0
LINE
  5
9B
100
AcDbEntity
  8
sizes
  6
ByBlock
 62
    0
370
   -2
100
AcDbLine
 10
-1.190574714178821
 20
35.00000000000001
 11
-1.190574714178823
 21
4.999999999999996
  0
MTEXT
  5
9C
100
AcDbEntity
  8
sizes
  6
CONTINUOUS
 62
    0
370
   -2
100
AcDbMText
 10
-4.253074714178822
 20
20
 30
0
 40
3
 41
3.706666666666666
 71
    5
 72
    1
  1
30
  7
kst32b
210
0
220
0
230
1
 50
90
 73
    2
 44
1
  0
SOLID
  5
9D
100
AcDbEntity
  8
sizes
  6
ByBlock
 62
    0
370
   -2
100
AcDbTrace
 10
-1.190574714178821
 20
35.00000000000001
 30
0
 11
-0.1498630697467198
 21
28.75000000000001
 31
0
 12
-2.231286358610922
 22
28.75000000000001
 32
0
 13
-2.231286358610922
 23
28.75000000000001
 33
0
  0
SOLID
  5
9E
100
AcDbEntity
  8
sizes
  6
ByBlock
 62
    0
370
   -2
100
AcDbTrace
 10
-1.190574714178823
 20
4.999999999999996
 30
0
 11
-2.231286358610923
 21
11.25
 31
0
 12
-0.1498630697467203
 22
11.25
 32
0
 13
-0.1498630697467203
 23
11.25
 33
0
  0
LINE
  5
9F
100
AcDbEntity
  8
sizes
  6
ByBlock
 62
    0
370
   -2
100
AcDbLine
 10
8.43750000000003
 20
35
 11
-4.315574714178821
 21
35.00000000000001
  0
LINE
  5
A0
100
AcDbEntity
  8
sizes
  6
ByBlock
 62
    0
370
   -2
100
AcDbLine
 10
8.437500000000041
 20
4.999999999999996
 11
-4.315574714178823
 21
4.999999999999996
  0
ENDBLK
  5
58
330
56
100
AcDbEntity
  8
0
100
AcDbBlockEnd
  0
BLOCK
  5
5A
330
59
100
AcDbEntity
  8
0
100
AcDbBlockBegin
  2
*D16
 70
    1
 10
0
 20
0
  3
*D16
  1

  0
LINE
  5
A1
100
AcDbEntity
  8
sizes
  6
ByBlock
 62
    0
370
   -2
100
AcDbLine
 10
5.000000000000028
 20
103.7512500000367
 11
76
 21
103.7512500000367
  0
MTEXT
  5
A2
100
AcDbEntity
  8
sizes
  6
CONTINUOUS
 62
    0
370
   -2
100
AcDbMText
 10
40.50000000000001
 20
106.8137500000367
 30
0
 40
3
 41
3.606666666666666
 71
    5
 72
    1
  1
71
  7
kst32b
210
0
220
0
230
1
 50
0
 73
    2
 44
1
  0
SOLID
  5
A3
100
AcDbEntity
  8
sizes
  6
ByBlock
 62
    0
370
   -2
100
AcDbTrace
 10
5.000000000000028
 20
103.7512500000367
 30
0
 11
11.25000000000003
 21
104.7919616444688
 31
0
 12
11.25000000000003
 22
102.7105383556046
 32
0
 13
11.25000000000003
 23
102.7105383556046
 33
0
  0
SOLID
  5
A4
100
AcDbEntity
  8
sizes
  6
ByBlock
 62
    0
370
   -2
100
AcDbTrace
 10
76
 20
103.7512500000367
 30
0
 11
69.75
 21
102.7105383556046
 31
0
 12
69.75
 22
104.7919616444688
 32
0
 13
69.75
 23
104.7919616444688
 33
0
  0
LINE
  5
A5
100
AcDbEntity
  8
sizes
  6
ByBlock
 62
    0
370
   -2
100
AcDbLine
 10
5.000000000000028
 20
99.22032545974187
 11
5.000000000000028
 21
106.8762500000367
  0
LINE
  5
A6
100
AcDbEntity
  8
sizes
  6
ByBlock
 62
    0
370
   -2
100
AcDbLine
 10
76
 20
99.22032545974189
 11
76
 21
106.8762500000367
  0
ENDBLK
  5
5B
330
59
100
AcDbEntity
  8
0
100
AcDbBlockEnd
  0
BLOCK
  5
5D
330
5C
100
AcDbEntity
  8
0
100
AcDbBlockBegin
  2
*D8
 70
    1
 10
0
 20
0
  3
*D8
  1

  0
LINE
  5
A7
100
AcDbEntity
  8
sizes
  6
ByBlock
 62
    0
370
   -2
100
AcDbLine
 10
-50.00000000000027
 20
47.05364995604099
 11
-20
 21
47.05364995604099
  0
MTEXT
  5
A8
100
AcDbEntity
  8
sizes
  6
CONTINUOUS
 62
    0
370
   -2
100
AcDbMText
 10
-35.00000000000014
 20
50.11614995604099
 30
0
 40
3
 41
3.706666666666666
 71
    5
 72
    1
  1
30
  7
kst32b
210
0
220
0
230
1
 50
0
 73
    2
 44
1
  0
SOLID
  5
A9
100
AcDbEntity
  8
sizes
  6
ByBlock
 62
    0
370
   -2
100
AcDbTrace
 10
-50.00000000000027
 20
47.05364995604099
 30
0
 11
-43.75000000000027
 21
48.09436160047309
 31
0
 12
-43.75000000000027
 22
46.01293831160888
 32
0
 13
-43.75000000000027
 23
46.01293831160888
 33
0
  0
SOLID
  5
AA
100
AcDbEntity
  8
sizes
  6
ByBlock
 62
    0
370
   -2
100
AcDbTrace
 10
-20
 20
47.05364995604099
 30
0
 11
-26.25
 21
46.01293831160888
 31
0
 12
-26.25
 22
48.09436160047309
 32
0
 13
-26.25
 23
48.09436160047309
 33
0
  0
LINE
  5
AB
100
AcDbEntity
  8
sizes
  6
ByBlock
 62
    0
370
   -2
100
AcDbLine
 10
-50.00000000000027
 20
41.56249999999995
 11
-50.00000000000027
 21
50.17864995604099
  0
LINE
  5
AC
100
AcDbEntity
  8
sizes
  6
ByBlock
 62
    0
370
   -2
100
AcDbLine
 10
-20
 20
41.56249999999999
 11
-20
 21
50.17864995604099
  0
ENDBLK
  5
5E
330
5C
100
AcDbEntity
  8
0
100
AcDbBlockEnd
  0
BLOCK
  5
60
330
5F
100
AcDbEntity
  8
0
100
AcDbBlockBegin
  2
*D2
 70
    1
 10
0
 20
0
  3
*D2
  1

  0
LINE
  5
AD
100
AcDbEntity
  8
sizes
  6
ByBlock
 62
    0
370
   -2
100
AcDbLine
 10
82.81591517325303
 20
0
 11
82.81591517325303
 21
20.00000000000008
  0
MTEXT
  5
AE
100
AcDbEntity
  8
sizes
  6
CONTINUOUS
 62
    0
370
   -2
100
AcDbMText
 10
79.75341517325303
 20
10.00000000000004
 30
0
 40
3
 41
3.813333333333333
 71
    5
 72
    1
  1
20
  7
kst32b
210
0
220
0
230
1
 50
90
 73
    2
 44
1
  0
SOLID
  5
AF
100
AcDbEntity
  8
sizes
  6
ByBlock
 62
    0
370
   -2
100
AcDbTrace
 10
82.81591517325303
 20
0
 30
0
 11
81.77520352882094
 21
6.25
 31
0
 12
83.85662681768514
 22
6.25
 32
0
 13
83.85662681768514
 23
6.25
 33
0
  0
SOLID
  5
B0
100
AcDbEntity
  8
sizes
  6
ByBlock
 62
    0
370
   -2
100
AcDbTrace
 10
82.81591517325303
 20
20.00000000000008
 30
0
 11
83.85662681768514
 21
13.75000000000008
 31
0
 12
81.77520352882092
 22
13.75000000000008
 32
0
 13
81.77520352882092
 23
13.75000000000008
 33
0
  0
LINE
  5
B1
100
AcDbEntity
  8
sizes
  6
ByBlock
 62
    0
370
   -2
100
AcDbLine
 10
77.5625
 20
0
 11
85.94091517325303
 21
0
  0
LINE
  5
B2
100
AcDbEntity
  8
sizes
  6
ByBlock
 62
    0
370
   -2
100
AcDbLine
 10
68.56249999999994
 20
20.00000000000008
 11
85.94091517325303
 21
20.00000000000008
  0
ENDBLK
  5
61
330
5F
100
AcDbEntity
  8
0
100
AcDbBlockEnd
  0
BLOCK
  5
63
330
62
100
AcDbEntity
  8
0
100
AcDbBlockBegin
  2
*D19
 70
    1
 10
0
 20
0
  3
*D19
  1

  0
LINE
  5
B3
100
AcDbEntity
  8
sizes
  6
ByBlock
 62
    0
370
   -2
100
AcDbLine
 10
-59.40825000002101
 20
0
 11
-59.40825000002101
 21
39.99999999999995
  0
MTEXT
  5
B4
100
AcDbEntity
  8
sizes
  6
CONTINUOUS
 62
    0
370
   -2
100
AcDbMText
 10
-62.47075000002101
 20
19.99999999999998
 30
0
 40
3
 41
3.813333333333333
 71
    5
 72
    1
  1
40
  7
kst32b
210
0
220
0
230
1
 50
90
 73
    2
 44
1
  0
SOLID
  5
B5
100
AcDbEntity
  8
sizes
  6
ByBlock
 62
    0
370
   -2
100
AcDbTrace
 10
-59.40825000002101
 20
0
 30
0
 11
-60.44896164445311
 21
6.25
 31
0
 12
-58.36753835558891
 22
6.25
 32
0
 13
-58.36753835558891
 23
6.25
 33
0
  0
SOLID
  5
B6
100
AcDbEntity
  8
sizes
  6
ByBlock
 62
    0
370
   -2
100
AcDbTrace
 10
-59.40825000002101
 20
39.99999999999995
 30
0
 11
-58.36753835558891
 21
33.74999999999995
 31
0
 12
-60.44896164445311
 22
33.74999999999995
 32
0
 13
-60.44896164445311
 23
33.74999999999995
 33
0
  0
LINE
  5
B7
100
AcDbEntity
  8
sizes
  6
ByBlock
 62
    0
370
   -2
100
AcDbLine
 10
-51.56249999999997
 20
1.913510623667739e-16
 11
-62.53325000002101
 21
3.827021247335479e-16
  0
LINE
  5
B8
100
AcDbEntity
  8
sizes
  6
ByBlock
 62
    0
370
   -2
100
AcDbLine
 10
-51.56250000000027
 20
39.99999999999995
 11
-62.53325000002101
 21
39.99999999999995
  0
ENDBLK
  5
64
330
62
100
AcDbEntity
  8
0
100
AcDbBlockEnd
  0
BLOCK
  5
66
330
65
100
AcDbEntity
  8
0
100
AcDbBlockBegin
  2
*D4
 70
    1
 10
0
 20
0
  3
*D4
  1

  0
LINE
  5
B9
100
AcDbEntity
  8
sizes
  6
ByBlock
 62
    0
370
   -2
100
AcDbLine
 10
10.00000000000004
 20
-14.11682565755599
 11
70.99999999999997
 21
-14.11682565755599
  0
MTEXT
  5
BA
100
AcDbEntity
  8
sizes
  6
CONTINUOUS
 62
    0
370
   -2
100
AcDbMText
 10
40.50000000000001
 20
-11.05432565755599
 30
0
 40
3
 41
3.5
 71
    5
 72
    1
  1
61
  7
kst32b
210
0
220
0
230
1
 50
0
 73
    2
 44
1
  0
SOLID
  5
BB
100
AcDbEntity
  8
sizes
  6
ByBlock
 62
    0
370
   -2
100
AcDbTrace
 10
10.00000000000004
 20
-14.11682565755599
 30
0
 11
16.25000000000004
 21
-13.07611401312389
 31
0
 12
16.25000000000004
 22
-15.15753730198809
 32
0
 13
16.25000000000004
 23
-15.15753730198809
 33
0
  0
SOLID
  5
BC
100
AcDbEntity
  8
sizes
  6
ByBlock
 62
    0
370
   -2
100
AcDbTrace
 10
70.99999999999997
 20
-14.11682565755599
 30
0
 11
64.74999999999997
 21
-15.15753730198809
 31
0
 12
64.74999999999997
 22
-13.07611401312389
 32
0
 13
64.74999999999997
 23
-13.07611401312389
 33
0
  0
LINE
  5
BD
100
AcDbEntity
  8
sizes
  6
ByBlock
 62
    0
370
   -2
100
AcDbLine
 10
10.00000000000004
 20
3.437499999999996
 11
10.00000000000004
 21
-17.24182565755599
  0
LINE
  5
BE
100
AcDbEntity
  8
sizes
  6
ByBlock
 62
    0
370
   -2
100
AcDbLine
 10
70.99999999999997
 20
3.437499999999981
 11
70.99999999999997
 21
-17.24182565755599
  0
ENDBLK
  5
67
330
65
100
AcDbEntity
  8
0
100
AcDbBlockEnd
  0
BLOCK
  5
69
330
68
100
AcDbEntity
  8
0
100
AcDbBlockBegin
  2
*D3
 70
    1
 10
0
 20
0
  3
*D3
  1

  0
LINE
  5
BF
100
AcDbEntity
  8
sizes
  6
ByBlock
 62
    0
370
   -2
100
AcDbLine
 10
22.71999999999957
 20
-7.429158361820633
 11
58.28000000000016
 21
-7.429158361820633
  0
MTEXT
  5
C0
100
AcDbEntity
  8
sizes
  6
CONTINUOUS
 62
    0
370
   -2
100
AcDbMText
 10
40.49999999999986
 20
-4.366658361820633
 30
0
 40
3
 41
9.829999999999998
 71
    5
 72
    1
  1
35,56
  7
kst32b
210
0
220
0
230
1
 50
0
 73
    2
 44
1
  0
SOLID
  5
C1
100
AcDbEntity
  8
sizes
  6
ByBlock
 62
    0
370
   -2
100
AcDbTrace
 10
22.71999999999957
 20
-7.429158361820633
 30
0
 11
28.96999999999957
 21
-6.388446717388533
 31
0
 12
28.96999999999957
 22
-8.469870006252735
 32
0
 13
28.96999999999957
 23
-8.469870006252735
 33
0
  0
SOLID
  5
C2
100
AcDbEntity
  8
sizes
  6
ByBlock
 62
    0
370
   -2
100
AcDbTrace
 10
58.28000000000016
 20
-7.429158361820633
 30
0
 11
52.03000000000016
 21
-8.469870006252734
 31
0
 12
52.03000000000016
 22
-6.388446717388532
 32
0
 13
52.03000000000016
 23
-6.388446717388532
 33
0
  0
LINE
  5
C3
100
AcDbEntity
  8
sizes
  6
ByBlock
 62
    0
370
   -2
100
AcDbLine
 10
22.71999999999957
 20
5.85750000000025
 11
22.71999999999957
 21
-10.55415836182063
  0
LINE
  5
C4
100
AcDbEntity
  8
sizes
  6
ByBlock
 62
    0
370
   -2
100
AcDbLine
 10
58.28000000000016
 20
5.857499999999952
 11
58.28000000000016
 21
-10.55415836182063
  0
ENDBLK
  5
6A
330
68
100
AcDbEntity
  8
0
100
AcDbBlockEnd
  0
BLOCK
  5
6C
330
6B
100
AcDbEntity
  8
0
100
AcDbBlockBegin
  2
*D14
 70
    1
 10
0
 20
0
  3
*D14
  1

  0
LINE
  5
C5
100
AcDbEntity
  8
sizes
  6
ByBlock
 62
    0
370
   -2
100
AcDbLine
 10
10.00000000000002
 20
165.2952706580728
 11
70.99999999999994
 21
165.2952706580728
  0
MTEXT
  5
C6
100
AcDbEntity
  8
sizes
  6
CONTINUOUS
 62
    0
370
   -2
100
AcDbMText
 10
40.49999999999999
 20
168.3577706580728
 30
0
 40
3
 41
3.5
 71
    5
 72
    1
  1
61
  7
kst32b
210
0
220
0
230
1
 50
0
 73
    2
 44
1
  0
SOLID
  5
C7
100
AcDbEntity
  8
sizes
  6
ByBlock
 62
    0
370
   -2
100
AcDbTrace
 10
10.00000000000002
 20
165.2952706580728
 30
0
 11
16.25000000000002
 21
166.3359823025049
 31
0
 12
16.25000000000002
 22
164.2545590136407
 32
0
 13
16.25000000000002
 23
164.2545590136407
 33
0
  0
SOLID
  5
C8
100
AcDbEntity
  8
sizes
  6
ByBlock
 62
    0
370
   -2
100
AcDbTrace
 10
70.99999999999994
 20
165.2952706580728
 30
0
 11
64.74999999999994
 21
164.2545590136407
 31
0
 12
64.74999999999994
 22
166.3359823025049
 32
0
 13
64.74999999999994
 23
166.3359823025049
 33
0
  0
LINE
  5
C9
100
AcDbEntity
  8
sizes
  6
ByBlock
 62
    0
370
   -2
100
AcDbLine
 10
10.00000000000003
 20
153.674138899866
 11
10.00000000000002
 21
168.4202706580728
  0
LINE
  5
CA
100
AcDbEntity
  8
sizes
  6
ByBlock
 62
    0
370
   -2
100
AcDbLine
 10
70.99999999999994
 20
153.6741388998661
 11
70.99999999999994
 21
168.4202706580728
  0
ENDBLK
  5
6D
330
6B
100
AcDbEntity
  8
0
100
AcDbBlockEnd
  0
BLOCK
  5
6F
330
6E
100
AcDbEntity
  8
0
100
AcDbBlockBegin
  2
*D17
 70
    1
 10
0
 20
0
  3
*D17
  1

  0
LINE
  5
CB
100
AcDbEntity
  8
sizes
  6
ByBlock
 62
    0
370
   -2
100
AcDbLine
 10
86.41200000003057
 20
97.65782545974187
 11
86.41200000003057
 21
67.65782545974184
  0
MTEXT
  5
CC
100
AcDbEntity
  8
sizes
  6
CONTINUOUS
 62
    0
370
   -2
100
AcDbMText
 10
83.34950000003057
 20
82.65782545974186
 30
0
 40
3
 41
3.706666666666666
 71
    5
 72
    1
  1
30
  7
kst32b
210
0
220
0
230
1
 50
90
 73
    2
 44
1
  0
SOLID
  5
CD
100
AcDbEntity
  8
sizes
  6
ByBlock
 62
    0
370
   -2
100
AcDbTrace
 10
86.41200000003057
 20
97.65782545974187
 30
0
 11
87.45271164446268
 21
91.40782545974187
 31
0
 12
85.37128835559847
 22
91.40782545974187
 32
0
 13
85.37128835559847
 23
91.40782545974187
 33
0
  0
SOLID
  5
CE
100
AcDbEntity
  8
sizes
  6
ByBlock
 62
    0
370
   -2
100
AcDbTrace
 10
86.41200000003057
 20
67.65782545974184
 30
0
 11
85.37128835559848
 21
73.90782545974184
 31
0
 12
87.45271164446268
 22
73.90782545974184
 32
0
 13
87.45271164446268
 23
73.90782545974184
 33
0
  0
LINE
  5
CF
100
AcDbEntity
  8
sizes
  6
ByBlock
 62
    0
370
   -2
100
AcDbLine
 10
77.5625
 20
97.65782545974187
 11
89.53700000003057
 21
97.65782545974187
  0
LINE
  5
D0
100
AcDbEntity
  8
sizes
  6
ByBlock
 62
    0
370
   -2
100
AcDbLine
 10
77.5625
 20
67.65782545974184
 11
89.53700000003057
 21
67.65782545974184
  0
ENDBLK
  5
70
330
6E
100
AcDbEntity
  8
0
100
AcDbBlockEnd
  0
BLOCK
  5
72
330
71
100
AcDbEntity
  8
0
100
AcDbBlockBegin
  2
*D18
 70
    1
 10
0
 20
0
  3
*D18
  1

  0
LINE
  5
D1
100
AcDbEntity
  8
sizes
  6
ByBlock
 62
    0
370
   -2
100
AcDbLine
 10
135.596278064298
 20
40.00000000000004
 11
135.596278064298
 21
4.973799150320701e-14
  0
MTEXT
  5
D2
100
AcDbEntity
  8
sizes
  6
CONTINUOUS
 62
    0
370
   -2
100
AcDbMText
 10
132.533778064298
 20
20.00000000000004
 30
0
 40
3
 41
3.813333333333333
 71
    5
 72
    1
  1
40
  7
kst32b
210
0
220
0
230
1
 50
90
 73
    2
 44
1
  0
SOLID
  5
D3
100
AcDbEntity
  8
sizes
  6
ByBlock
 62
    0
370
   -2
100
AcDbTrace
 10
135.596278064298
 20
40.00000000000004
 30
0
 11
136.6369897087301
 21
33.75000000000004
 31
0
 12
134.5555664198659
 22
33.75000000000004
 32
0
 13
134.5555664198659
 23
33.75000000000004
 33
0
  0
SOLID
  5
D4
100
AcDbEntity
  8
sizes
  6
ByBlock
 62
    0
370
   -2
100
AcDbTrace
 10
135.596278064298
 20
4.973799150320701e-14
 30
0
 11
134.5555664198659
 21
6.25000000000005
 31
0
 12
136.6369897087301
 22
6.25000000000005
 32
0
 13
136.6369897087301
 23
6.25000000000005
 33
0
  0
LINE
  5
D5
100
AcDbEntity
  8
sizes
  6
ByBlock
 62
    0
370
   -2
100
AcDbLine
 10
124.7965000000071
 20
40.00000000000004
 11
138.721278064298
 21
40.00000000000004
  0
LINE
  5
D6
100
AcDbEntity
  8
sizes
  6
ByBlock
 62
    0
370
   -2
100
AcDbLine
 10
124.7965000000073
 20
4.973799150320701e-14
 11
138.721278064298
 21
4.973799150320701e-14
  0
ENDBLK
  5
73
330
71
100
AcDbEntity
  8
0
100
AcDbBlockEnd
  0
BLOCK
  5
75
330
74
100
AcDbEntity
  8
0
100
AcDbBlockBegin
  2
*D6
 70
    1
 10
0
 20
0
  3
*D6
  1

  0
LINE
  5
D7
100
AcDbEntity
  8
sizes
  6
ByBlock
 62
    0
370
   -2
100
AcDbLine
 10
76
 20
54.99383002429516
 11
5.000000000000071
 21
54.99383002429516
  0
MTEXT
  5
D8
100
AcDbEntity
  8
sizes
  6
CONTINUOUS
 62
    0
370
   -2
100
AcDbMText
 10
40.50000000000004
 20
58.05633002429516
 30
0
 40
3
 41
3.606666666666666
 71
    5
 72
    1
  1
71
  7
kst32b
210
0
220
0
230
1
 50
0
 73
    2
 44
1
  0
SOLID
  5
D9
100
AcDbEntity
  8
sizes
  6
ByBlock
 62
    0
370
   -2
100
AcDbTrace
 10
76
 20
54.99383002429516
 30
0
 11
69.75
 21
53.95311837986306
 31
0
 12
69.75
 22
56.03454166872726
 32
0
 13
69.75
 23
56.03454166872726
 33
0
  0
SOLID
  5
DA
100
AcDbEntity
  8
sizes
  6
ByBlock
 62
    0
370
   -2
100
AcDbTrace
 10
5.000000000000071
 20
54.99383002429516
 30
0
 11
11.25000000000007
 21
56.03454166872726
 31
0
 12
11.25000000000007
 22
53.95311837986306
 32
0
 13
11.25000000000007
 23
53.95311837986306
 33
0
  0
LINE
  5
DB
100
AcDbEntity
  8
sizes
  6
ByBlock
 62
    0
370
   -2
100
AcDbLine
 10
76
 20
41.56249999999994
 11
76
 21
58.11883002429516
  0
LINE
  5
DC
100
AcDbEntity
  8
sizes
  6
ByBlock
 62
    0
370
   -2
100
AcDbLine
 10
5.000000000000071
 20
41.56249999999994
 11
5.000000000000071
 21
58.11883002429516
  0
ENDBLK
  5
76
330
74
100
AcDbEntity
  8
0
100
AcDbBlockEnd
  0
BLOCK
  5
78
330
77
100
AcDbEntity
  8
0
100
AcDbBlockBegin
  2
*D21
 70
    1
 10
0
 20
0
  3
*D21
  1

  0
LINE
  5
DD
100
AcDbEntity
  8
sizes
  6
ByBlock
 62
    0
370
   -2
100
AcDbLine
 10
81.53926182222486
 20
25.65419009804179
 11
52.46073817777503
 21
14.34580990195837
  0
MTEXT
  5
DE
100
AcDbEntity
  8
sizes
  6
CONTINUOUS
 62
    0
370
   -2
100
AcDbMText
 10
65.89000274517605
 20
22.85426213657469
 30
0
 40
3
 41
5.23
 71
    5
 72
    1
  1
6,2
  7
kst32b
210
0
220
0
230
1
 50
21.25061751942399
 73
    2
 44
1
  0
SOLID
  5
DF
100
AcDbEntity
  8
sizes
  6
ByBlock
 62
    0
370
   -2
100
AcDbTrace
 10
69.88921228518566
 20
21.12358905794427
 30
0
 11
75.33703311300881
 21
24.35883695490563
 31
0
 12
76.09144099440172
 22
22.41894220108043
 32
0
 13
76.09144099440172
 23
22.41894220108043
 33
0
  0
SOLID
  5
E0
100
AcDbEntity
  8
sizes
  6
ByBlock
 62
    0
370
   -2
100
AcDbTrace
 10
64.11078771481422
 20
18.87641094205589
 30
0
 11
58.66296688699108
 21
15.64116304509453
 31
0
 12
57.90855900559817
 22
17.58105779891973
 32
0
 13
57.90855900559817
 23
17.58105779891973
 33
0
  0
ENDBLK
  5
79
330
77
100
AcDbEntity
  8
0
100
AcDbBlockEnd
  0
BLOCK
  5
7B
330
7A
100
AcDbEntity
  8
0
100
AcDbBlockBegin
  2
*D10
 70
    1
 10
0
 20
0
  3
*D10
  1

  0
LINE
  5
E1
100
AcDbEntity
  8
sizes
  6
ByBlock
 62
    0
370
   -2
100
AcDbLine
 10
-8.077777932611662
 20
39.99999999999991
 11
-8.077777932611664
 21
-9.961217028158926e-15
  0
MTEXT
  5
E2
100
AcDbEntity
  8
sizes
  6
CONTINUOUS
 62
    0
370
   -2
100
AcDbMText
 10
-11.14027793261166
 20
19.99999999999995
 30
0
 40
3
 41
3.813333333333333
 71
    5
 72
    1
  1
40
  7
kst32b
210
0
220
0
230
1
 50
90
 73
    2
 44
1
  0
SOLID
  5
E3
100
AcDbEntity
  8
sizes
  6
ByBlock
 62
    0
370
   -2
100
AcDbTrace
 10
-8.077777932611662
 20
39.99999999999991
 30
0
 11
-7.037066288179561
 21
33.74999999999991
 31
0
 12
-9.118489577043764
 22
33.74999999999991
 32
0
 13
-9.118489577043764
 23
33.74999999999991
 33
0
  0
SOLID
  5
E4
100
AcDbEntity
  8
sizes
  6
ByBlock
 62
    0
370
   -2
100
AcDbTrace
 10
-8.077777932611664
 20
-9.961217028158926e-15
 30
0
 11
-9.118489577043764
 21
6.24999999999999
 31
0
 12
-7.037066288179561
 22
6.24999999999999
 32
0
 13
-7.037066288179561
 23
6.24999999999999
 33
0
  0
LINE
  5
E5
100
AcDbEntity
  8
sizes
  6
ByBlock
 62
    0
370
   -2
100
AcDbLine
 10
3.437499999992399
 20
39.99999999999991
 11
-11.20277793261166
 21
39.99999999999991
  0
LINE
  5
E6
100
AcDbEntity
  8
sizes
  6
ByBlock
 62
    0
370
   -2
100
AcDbLine
 10
3.437500000000025
 20
-1.046678997403473e-14
 11
-11.20277793261166
 21
-9.578514903425379e-15
  0
ENDBLK
  5
7C
330
7A
100
AcDbEntity
  8
0
100
AcDbBlockEnd
  0
BLOCK
  5
7E
330
7D
100
AcDbEntity
  8
0
100
AcDbBlockBegin
  2
*D12
 70
    1
 10
0
 20
0
  3
*D12
  1

  0
LINE
  5
E7
100
AcDbEntity
  8
sizes
  6
ByBlock
 62
    0
370
   -2
100
AcDbLine
 10
86.31255309475837
 20
122.111638899866
 11
86.31255309475837
 21
152.1116388998661
  0
MTEXT
  5
E8
100
AcDbEntity
  8
sizes
  6
CONTINUOUS
 62
    0
370
   -2
100
AcDbMText
 10
83.25005309475837
 20
137.111638899866
 30
0
 40
3
 41
3.706666666666666
 71
    5
 72
    1
  1
30
  7
kst32b
210
0
220
0
230
1
 50
90
 73
    2
 44
1
  0
SOLID
  5
E9
100
AcDbEntity
  8
sizes
  6
ByBlock
 62
    0
370
   -2
100
AcDbTrace
 10
86.31255309475837
 20
122.111638899866
 30
0
 11
85.27184145032628
 21
128.361638899866
 31
0
 12
87.35326473919048
 22
128.361638899866
 32
0
 13
87.35326473919048
 23
128.361638899866
 33
0
  0
SOLID
  5
EA
100
AcDbEntity
  8
sizes
  6
ByBlock
 62
    0
370
   -2
100
AcDbTrace
 10
86.31255309475837
 20
152.1116388998661
 30
0
 11
87.35326473919048
 21
145.8616388998661
 31
0
 12
85.27184145032626
 22
145.8616388998661
 32
0
 13
85.27184145032626
 23
145.8616388998661
 33
0
  0
LINE
  5
EB
100
AcDbEntity
  8
sizes
  6
ByBlock
 62
    0
370
   -2
100
AcDbLine
 10
72.56249999999997
 20
122.111638899866
 11
89.43755309475837
 21
122.111638899866
  0
LINE
  5
EC
100
AcDbEntity
  8
sizes
  6
ByBlock
 62
    0
370
   -2
100
AcDbLine
 10
72.56249999999994
 20
152.1116388998661
 11
89.43755309475837
 21
152.1116388998661
  0
ENDBLK
  5
7F
330
7D
100
AcDbEntity
  8
0
100
AcDbBlockEnd
  0
BLOCK
  5
81
330
80
100
AcDbEntity
  8
0
100
AcDbBlockBegin
  2
*D1
 70
    1
 10
0
 20
0
  3
*D1
  1

  0
LINE
  5
ED
100
AcDbEntity
  8
sizes
  6
ByBlock
 62
    0
370
   -2
100
AcDbLine
 10
10.33190171554419
 20
-0.3062552957218392
 11
35.10809828445495
 21
15.14625529572234
  0
MTEXT
  5
EE
100
AcDbEntity
  8
sizes
  6
CONTINUOUS
 62
    0
370
   -2
100
AcDbMText
 10
26.47104991182769
 20
13.36877983316088
 30
0
 40
3
 41
5.336666666666666
 71
    5
 72
    1
  1
4,2
  7
kst32b
210
0
220
0
230
1
 50
31.9511187112283
 73
    2
 44
1
  0
SOLID
  5
EF
100
AcDbEntity
  8
sizes
  6
ByBlock
 62
    0
370
   -2
100
AcDbTrace
 10
20.93815024675599
 20
6.30868930677995
 30
0
 11
16.18576597115784
 21
2.118173297515216
 31
0
 12
15.08428599114234
 22
3.884260713542894
 32
0
 13
15.08428599114234
 23
3.884260713542894
 33
0
  0
SOLID
  5
F0
100
AcDbEntity
  8
sizes
  6
ByBlock
 62
    0
370
   -2
100
AcDbTrace
 10
24.50184975324315
 20
8.531310693220551
 30
0
 11
29.2542340288413
 21
12.72182670248528
 31
0
 12
30.3557140088568
 22
10.95573928645761
 32
0
 13
30.3557140088568
 23
10.95573928645761
 33
0
  0
ENDBLK
  5
82
330
80
100
AcDbEntity
  8
0
100
AcDbBlockEnd
  0
BLOCK
  5
84
330
83
100
AcDbEntity
  8
0
100
AcDbBlockBegin
  2
*D15
 70
    1
 10
0
 20
0
  3
*D15
  1

  0
LINE
  5
F1
100
AcDbEntity
  8
sizes
  6
ByBlock
 62
    0
370
   -2
100
AcDbLine
 10
2.900000000000205
 20
172.7746946697503
 11
78.09999999999995
 21
172.7746946697503
  0
MTEXT
  5
F2
100
AcDbEntity
  8
sizes
  6
CONTINUOUS
 62
    0
370
   -2
100
AcDbMText
 10
40.50000000000008
 20
175.8371946697503
 30
0
 40
3
 41
7.689999999999998
 71
    5
 72
    1
  1
75,2
  7
kst32b
210
0
220
0
230
1
 50
0
 73
    2
 44
1
  0
SOLID
  5
F3
100
AcDbEntity
  8
sizes
  6
ByBlock
 62
    0
370
   -2
100
AcDbTrace
 10
2.900000000000205
 20
172.7746946697503
 30
0
 11
9.150000000000205
 21
173.8154063141824
 31
0
 12
9.150000000000205
 22
171.7339830253182
 32
0
 13
9.150000000000205
 23
171.7339830253182
 33
0
  0
SOLID
  5
F4
100
AcDbEntity
  8
sizes
  6
ByBlock
 62
    0
370
   -2
100
AcDbTrace
 10
78.09999999999995
 20
172.7746946697503
 30
0
 11
71.84999999999995
 21
171.7339830253182
 31
0
 12
71.84999999999995
 22
173.8154063141824
 32
0
 13
71.84999999999995
 23
173.8154063141824
 33
0
  0
LINE
  5
F5
100
AcDbEntity
  8
sizes
  6
ByBlock
 62
    0
370
   -2
100
AcDbLine
 10
2.900000000000192
 20
158.6741364339496
 11
2.900000000000208
 21
175.8996946697503
  0
LINE
  5
F6
100
AcDbEntity
  8
sizes
  6
ByBlock
 62
    0
370
   -2
100
AcDbLine
 10
78.09999999999995
 20
158.6741349370968
 11
78.09999999999995
 21
175.8996946697503
  0
ENDBLK
  5
85
330
83
100
AcDbEntity
  8
0
100
AcDbBlockEnd
  0
BLOCK
  5
87
330
86
100
AcDbEntity
  8
0
100
AcDbBlockBegin
  2
*D5
 70
    1
 10
0
 20
0
  3
*D5
  1

  0
LINE
  5
F7
100
AcDbEntity
  8
sizes
  6
ByBlock
 62
    0
370
   -2
100
AcDbLine
 10
88.5
 20
47.28282436310164
 11
54.49999999999994
 21
47.28282436310164
  0
MTEXT
  5
F8
100
AcDbEntity
  8
sizes
  6
CONTINUOUS
 62
    0
370
   -2
100
AcDbMText
 10
71.49999999999997
 20
50.34532436310164
 30
0
 40
3
 41
1.353333333333333
 71
    5
 72
    1
  1
9
  7
kst32b
210
0
220
0
230
1
 50
0
 73
    2
 44
1
  0
SOLID
  5
F9
100
AcDbEntity
  8
sizes
  6
ByBlock
 62
    0
370
   -2
100
AcDbTrace
 10
76
 20
47.28282436310164
 30
0
 11
82.25
 21
48.32353600753374
 31
0
 12
82.25
 22
46.24211271866954
 32
0
 13
82.25
 23
46.24211271866954
 33
0
  0
SOLID
  5
FA
100
AcDbEntity
  8
sizes
  6
ByBlock
 62
    0
370
   -2
100
AcDbTrace
 10
66.99999999999994
 20
47.28282436310164
 30
0
 11
60.74999999999994
 21
46.24211271866954
 31
0
 12
60.74999999999994
 22
48.32353600753374
 32
0
 13
60.74999999999994
 23
48.32353600753374
 33
0
  0
LINE
  5
FB
100
AcDbEntity
  8
sizes
  6
ByBlock
 62
    0
370
   -2
100
AcDbLine
 10
76
 20
41.56250000000014
 11
76
 21
50.40782436310164
  0
LINE
  5
FC
100
AcDbEntity
  8
sizes
  6
ByBlock
 62
    0
370
   -2
100
AcDbLine
 10
66.99999999999994
 20
21.56250000000008
 11
66.99999999999994
 21
50.40782436310164
  0
ENDBLK
  5
88
330
86
100
AcDbEntity
  8
0
100
AcDbBlockEnd
  0
BLOCK
  5
8A
330
89
100
AcDbEntity
  8
0
100
AcDbBlockBegin
  2
*D7
 70
    1
 10
0
 20
0
  3
*D7
  1

  0
LINE
  5
FD
100
AcDbEntity
  8
sizes
  6
ByBlock
 62
    0
370
   -2
100
AcDbLine
 10
93.23400000000703
 20
47.27352682499445
 11
123.2340000000071
 21
47.27352682499445
  0
MTEXT
  5
FE
100
AcDbEntity
  8
sizes
  6
CONTINUOUS
 62
    0
370
   -2
100
AcDbMText
 10
108.2340000000071
 20
50.33602682499445
 30
0
 40
3
 41
3.706666666666666
 71
    5
 72
    1
  1
30
  7
kst32b
210
0
220
0
230
1
 50
0
 73
    2
 44
1
  0
SOLID
  5
FF
100
AcDbEntity
  8
sizes
  6
ByBlock
 62
    0
370
   -2
100
AcDbTrace
 10
93.23400000000703
 20
47.27352682499445
 30
0
 11
99.48400000000703
 21
48.31423846942655
 31
0
 12
99.48400000000703
 22
46.23281518056235
 32
0
 13
99.48400000000703
 23
46.23281518056235
 33
0
  0
SOLID
  5
100
100
AcDbEntity
  8
sizes
  6
ByBlock
 62
    0
370
   -2
100
AcDbTrace
 10
123.2340000000071
 20
47.27352682499445
 30
0
 11
116.9840000000071
 21
46.23281518056235
 31
0
 12
116.9840000000071
 22
48.31423846942655
 32
0
 13
116.9840000000071
 23
48.31423846942655
 33
0
  0
LINE
  5
101
100
AcDbEntity
  8
sizes
  6
ByBlock
 62
    0
370
   -2
100
AcDbLine
 10
93.23400000000704
 20
41.5625
 11
93.23400000000703
 21
50.39852682499445
  0
LINE
  5
102
100
AcDbEntity
  8
sizes
  6
ByBlock
 62
    0
370
   -2
100
AcDbLine
 10
123.2340000000071
 20
41.56250000000004
 11
123.2340000000071
 21
50.39852682499445
  0
ENDBLK
  5
8B
330
89
100
AcDbEntity
  8
0
100
AcDbBlockEnd
  0
BLOCK
  5
8D
330
8C
100
AcDbEntity
  8
0
100
AcDbBlockBegin
  2
*D20
 70
    1
 10
0
 20
0
  3
*D20
  1

  0
LINE
  5
103
100
AcDbEntity
  8
sizes
  6
ByBlock
 62
    0
370
   -2
100
AcDbLine
 10
5.000000000000028
 20
-57.82162165091092
 11
76
 21
-57.82162165091092
  0
MTEXT
  5
104
100
AcDbEntity
  8
sizes
  6
CONTINUOUS
 62
    0
370
   -2
100
AcDbMText
 10
40.50000000000001
 20
-54.75912165091092
 30
0
 40
3
 41
3.606666666666666
 71
    5
 72
    1
  1
71
  7
kst32b
210
0
220
0
230
1
 50
0
 73
    2
 44
1
  0
SOLID
  5
105
100
AcDbEntity
  8
sizes
  6
ByBlock
 62
    0
370
   -2
100
AcDbTrace
 10
5.000000000000028
 20
-57.82162165091092
 30
0
 11
11.25000000000003
 21
-56.78091000647882
 31
0
 12
11.25000000000003
 22
-58.86233329534302
 32
0
 13
11.25000000000003
 23
-58.86233329534302
 33
0
  0
SOLID
  5
106
100
AcDbEntity
  8
sizes
  6
ByBlock
 62
    0
370
   -2
100
AcDbTrace
 10
76
 20
-57.82162165091092
 30
0
 11
69.75
 21
-58.86233329534302
 31
0
 12
69.75
 22
-56.78091000647882
 32
0
 13
69.75
 23
-56.78091000647882
 33
0
  0
LINE
  5
107
100
AcDbEntity
  8
sizes
  6
ByBlock
 62
    0
370
   -2
100
AcDbLine
 10
5.000000000000021
 20
-52.0625000000007
 11
5.00000000000003
 21
-60.94662165091092
  0
LINE
  5
108
100
AcDbEntity
  8
sizes
  6
ByBlock
 62
    0
370
   -2
100
AcDbLine
 10
76
 20
-52.06250000000075
 11
76
 21
-60.94662165091092
  0
ENDBLK
  5
8E
330
8C
100
AcDbEntity
  8
0
100
AcDbBlockEnd
  0
ENDSEC
  0
SECTION
  2
ENTITIES
  0
LINE
  5
109
100
AcDbEntity
  8
builder
  6
ByLayer
 62
  256
370
   -1
100
AcDbLine
 10
0
 20
0
 11
-27.5
 21
0
  0
LINE
  5
10A
100
AcDbEntity
  8
0
  6
ByLayer
 62
  256
370
   -1
100
AcDbLine
 10
76
 20
0
 11
76
 21
40
  0
LINE
  5
10B
100
AcDbEntity
  8
builder
  6
ByLayer
 62
  256
370
   -1
100
AcDbLine
 10
76
 20
40
 11
76
 21
-55.5
  0
LINE
  5
10C
100
AcDbEntity
  8
builder
  6
ByLayer
 62
  256
370
   -1
100
AcDbLine
 10
76
 20
0
 11
120.5
 21
0
  0
LINE
  5
10D
100
AcDbEntity
  8
builder
  6
ByLayer
 62
  256
370
   -1
100
AcDbLine
 10
76
 20
40
 11
76
 21
70.5
  0
LINE
  5
10E
100
AcDbEntity
  8
builder
  6
ByLayer
 62
  256
370
   -1
100
AcDbLine
 10
5.000000000000028
 20
40
 11
5.000000000000028
 21
70.5
  0
LINE
  5
10F
100
AcDbEntity
  8
builder
  6
ByLayer
 62
  256
370
   -1
100
AcDbLine
 10
-59.50000000000009
 20
0
 11
-15.00000000000009
 21
0
  0
LINE
  5
110
100
AcDbEntity
  8
builder
  6
ByLayer
 62
  256
370
   -1
100
AcDbLine
 10
71.00000000000034
 20
40
 11
71.00000000000034
 21
48.87074210615272
  0
LINE
  5
111
100
AcDbEntity
  8
builder
  6
ByLayer
 62
  256
370
   -1
100
AcDbLine
 10
71.00000000000034
 20
46.22448979591822
 11
76
 21
40
  0
LINE
  5
112
100
AcDbEntity
  8
builder
  6
ByLayer
 62
  256
370
   -1
100
AcDbLine
 10
71.00000000000034
 20
40
 11
76
 21
44.99999999999993
  0
LINE
  5
113
100
AcDbEntity
  8
builder
  6
ByLayer
 62
  256
370
   -1
100
AcDbLine
 10
5.000000000000028
 20
70.5
 11
5.000000000000028
 21
186.7623760625994
  0
LINE
  5
114
100
AcDbEntity
  8
builder
  6
ByLayer
 62
  256
370
   -1
100
AcDbLine
 10
76
 20
158.0661080667599
 11
76
 21
62.5661080667599
  0
LINE
  5
115
100
AcDbEntity
  8
0
  6
ByLayer
 62
  256
370
   -1
100
AcDbLine
 10
76
 20
-40.50000000000075
 11
76
 21
-20.50000000000072
  0
LINE
  5
116
100
AcDbEntity
  8
0
  6
ByLayer
 62
  256
370
   -1
100
AcDbLine
 10
113.2340000000071
 20
39.99999999999999
 11
93.23400000000704
 21
40
  0
LINE
  5
117
100
AcDbEntity
  8
0
  6
ByLayer
 62
  256
370
   -1
100
AcDbLine
 10
93.23400000000704
 20
40
 11
93.23400000000734
 21
0
  0
LINE
  5
118
100
AcDbEntity
  8
0
  6
ByLayer
 62
  256
370
   -1
100
AcDbLine
 10
93.23400000000734
 20
0
 11
113.2340000000073
 21
0
  0
LINE
  5
119
100
AcDbEntity
  8
builder
  6
ByLayer
 62
  256
370
   -1
100
AcDbLine
 10
76
 20
0
 11
76
 21
7.99999999999995
  0
LINE
  5
11A
100
AcDbEntity
  8
builder
  6
ByLayer
 62
  256
370
   -1
100
AcDbLine
 10
76
 20
32.00000000000011
 11
76
 21
40
  0
LINE
  5
11B
100
AcDbEntity
  8
builder
  6
ByLayer
 62
  256
370
   -1
100
AcDbLine
 10
76
 20
40
 11
5.000000000000028
 21
39.99999999999999
  0
LINE
  5
11C
100
AcDbEntity
  8
builder
  6
ByLayer
 62
  256
370
   -1
100
AcDbLine
 10
5.000000000000028
 20
39.99999999999999
 11
5.000000000000028
 21
-2.721313632408047
  0
LINE
  5
11D
100
AcDbEntity
  8
builder
  6
ByLayer
 62
  256
370
   -1
100
AcDbLine
 10
-20
 20
0
 11
-20
 21
93.19362318547793
  0
LINE
  5
11E
100
AcDbEntity
  8
builder
  6
ByLayer
 62
  256
370
   -1
100
AcDbLine
 10
5.000000000000028
 20
10
 11
76
 21
9.999999999999972
  0
LINE
  5
11F
100
AcDbEntity
  8
builder
  6
ByLayer
 62
  256
370
   -1
100
AcDbLine
 10
65.99999999999986
 20
40
 11
65.99999999999996
 21
0
  0
LINE
  5
120
100
AcDbEntity
  8
builder
  6
ByLayer
 62
  256
370
   -1
100
AcDbLine
 10
5.000000000000032
 20
29.99999999999999
 11
76
 21
30.0000000000003
  0
LINE
  5
121
100
AcDbEntity
  8
builder
  6
ByLayer
 62
  256
370
   -1
100
AcDbLine
 10
15.00000000000002
 20
39.99999999999999
 11
15.00000000000003
 21
1.77635683940025e-15
  0
LINE
  5
122
100
AcDbEntity
  8
builder
  6
ByLayer
 62
  256
370
   -1
100
AcDbLine
 10
65.99999999999987
 20
30.00000000000026
 11
76
 21
40
  0
LINE
  5
123
100
AcDbEntity
  8
builder
  6
ByLayer
 62
  256
370
   -1
100
AcDbLine
 10
65.99999999999986
 20
40
 11
76
 21
30.0000000000003
  0
LINE
  5
124
100
AcDbEntity
  8
builder
  6
ByLayer
 62
  256
370
   -1
100
AcDbLine
 10
76
 20
30.0000000000003
 11
76
 21
9.999999999999975
  0
LINE
  5
125
100
AcDbEntity
  8
builder
  6
ByLayer
 62
  256
370
   -1
100
AcDbLine
 10
76
 20
9.999999999999975
 11
65.99999999999996
 21
0
  0
LINE
  5
126
100
AcDbEntity
  8
builder
  6
ByLayer
 62
  256
370
   -1
100
AcDbLine
 10
65.99999999999996
 20
0
 11
65.99999999999993
 21
9.999999999999975
  0
LINE
  5
127
100
AcDbEntity
  8
builder
  6
ByLayer
 62
  256
370
   -1
100
AcDbLine
 10
65.99999999999993
 20
9.999999999999975
 11
76
 21
0
  0
LINE
  5
128
100
AcDbEntity
  8
builder
  6
ByLayer
 62
  256
370
   -1
100
AcDbLine
 10
76
 20
0
 11
15.00000000000003
 21
0
  0
LINE
  5
129
100
AcDbEntity
  8
builder
  6
ByLayer
 62
  256
370
   -1
100
AcDbLine
 10
5.000000000000028
 20
10
 11
15.00000000000002
 21
9.999999999999993
  0
LINE
  5
12A
100
AcDbEntity
  8
builder
  6
ByLayer
 62
  256
370
   -1
100
AcDbLine
 10
5.000000000000028
 20
0
 11
5.000000000000028
 21
29.99999999999999
  0
LINE
  5
12B
100
AcDbEntity
  8
builder
  6
ByLayer
 62
  256
370
   -1
100
AcDbLine
 10
5.000000000000028
 20
29.99999999999999
 11
15.00000000000002
 21
39.99999999999999
  0
LINE
  5
12C
100
AcDbEntity
  8
builder
  6
ByLayer
 62
  256
370
   -1
100
AcDbLine
 10
15.00000000000002
 20
39.99999999999999
 11
15.00000000000002
 21
30.00000000000003
  0
LINE
  5
12D
100
AcDbEntity
  8
builder
  6
ByLayer
 62
  256
370
   -1
100
AcDbLine
 10
15.00000000000002
 20
30.00000000000003
 11
5.000000000000028
 21
39.99999999999999
  0
LINE
  5
12E
100
AcDbEntity
  8
builder
  6
ByLayer
 62
  256
370
   -1
100
AcDbLine
 10
5.000000000000028
 20
10
 11
-23.98157638559602
 21
10
  0
LINE
  5
12F
100
AcDbEntity
  8
builder
  6
ByLayer
 62
  256
370
   -1
100
AcDbLine
 10
5.000000000000028
 20
0
 11
5.000000000000028
 21
39.99999999999999
  0
LINE
  5
130
100
AcDbEntity
  8
builder
  6
ByLayer
 62
  256
370
   -1
100
AcDbLine
 10
70.99999999999994
 20
35.00000000000014
 11
70.99999999999994
 21
92.00000000001086
  0
LINE
  5
131
100
AcDbEntity
  8
builder
  6
ByLayer
 62
  256
370
   -1
100
AcDbLine
 10
10.00000000000014
 20
35.00000000000011
 11
10.00000000000014
 21
92.50000000001089
  0
LINE
  5
132
100
AcDbEntity
  8
builder
  6
ByLayer
 62
  256
370
   -1
100
AcDbLine
 10
70.99999999999997
 20
4.999999999999981
 11
70.99999999999997
 21
-43.89802045068107
  0
LINE
  5
133
100
AcDbEntity
  8
builder
  6
ByLayer
 62
  256
370
   -1
100
AcDbLine
 10
10
 20
9.999999999999996
 11
0
 21
10
  0
LWPOLYLINE
  5
134
100
AcDbEntity
  8
InternalComps
  6
ByLayer
 62
  256
370
   -1
100
AcDbPolyline
 90
    4
 70
    1
 43
0
 10
65.99999999999994
 20
30.00000000000014
 10
75.99999999999994
 20
30.00000000000014
 10
75.99999999999994
 20
40.00000000000014
 10
65.99999999999994
 20
40.00000000000014
  0
LWPOLYLINE
  5
135
100
AcDbEntity
  8
InternalComps
  6
ByLayer
 62
  256
370
   -1
100
AcDbPolyline
 90
    4
 70
    1
 43
0
 10
65.99999999999997
 20
-1.77635683940025e-14
 10
75.99999999999997
 20
-1.77635683940025e-14
 10
75.99999999999997
 20
9.999999999999982
 10
65.99999999999997
 20
9.999999999999982
  0
LWPOLYLINE
  5
136
100
AcDbEntity
  8
InternalComps
  6
ByLayer
 62
  256
370
   -1
100
AcDbPolyline
 90
    4
 70
    1
 43
0
 10
5.000000000000021
 20
30
 10
15.00000000000002
 20
30
 10
15.00000000000002
 20
40
 10
5.000000000000021
 20
40
  0
LINE
  5
137
100
AcDbEntity
  8
builder
  6
ByLayer
 62
  256
370
   -1
100
AcDbLine
 10
65.99999999999989
 20
30.00000000000014
 11
15.00000000000003
 21
10
  0
LINE
  5
138
100
AcDbEntity
  8
builder
  6
ByLayer
 62
  256
370
   -1
100
AcDbLine
 10
15.00000000000003
 20
10
 11
15.00000000000002
 21
30.00000000000003
  0
LINE
  5
139
100
AcDbEntity
  8
builder
  6
ByLayer
 62
  256
370
   -1
100
AcDbLine
 10
15.00000000000002
 20
30.00000000000003
 11
65.99999999999993
 21
9.999999999999982
  0
LWPOLYLINE
  5
13A
100
AcDbEntity
  8
InternalComps
  6
ByLayer
 62
  256
370
   -1
100
AcDbPolyline
 90
    4
 70
    1
 43
0
 10
17.59999999999988
 20
2.600000000000048
 10
63.39999999999988
 20
2.600000000000048
 10
63.39999999999988
 20
37.40000000000004
 10
17.59999999999988
 20
37.40000000000004
  0
LINE
  5
13B
100
AcDbEntity
  8
builder
  6
ByLayer
 62
  256
370
   -1
100
AcDbLine
 10
58.28000000000011
 20
2.600000000000044
 11
58.2800000000004
 21
37.40000000000004
  0
LINE
  5
13C
100
AcDbEntity
  8
builder
  6
ByLayer
 62
  256
370
   -1
100
AcDbLine
 10
22.71999999999912
 20
37.40000000000005
 11
22.71999999999963
 21
2.60000000000003
  0
LINE
  5
13D
100
AcDbEntity
  8
builder
  6
ByLayer
 62
  256
370
   -1
100
AcDbLine
 10
63.39999999999988
 20
2.600000000000048
 11
63.39999999999988
 21
37.40000000000004
  0
LINE
  5
13E
100
AcDbEntity
  8
builder
  6
ByLayer
 62
  256
370
   -1
100
AcDbLine
 10
22.7199999999992
 20
32.58000000000008
 11
58.28000000000036
 21
32.57999999999988
  0
LINE
  5
13F
100
AcDbEntity
  8
builder
  6
ByLayer
 62
  256
370
   -1
100
AcDbLine
 10
58.28000000000016
 20
7.419999999999952
 11
22.71999999999957
 21
7.42000000000025
  0
LINE
  5
140
100
AcDbEntity
  8
InternalComps
  6
ByLayer
 62
  256
370
   -1
100
AcDbLine
 10
-22.54399491202845
 20
1.58999682000954
 11
-20.00000000001318
 21
0
  0
CIRCLE
  5
141
100
AcDbEntity
  8
0
  6
ByLayer
 62
  256
370
   -1
100
AcDbCircle
 10
58.28000000000036
 20
32.57999999999988
 40
2.1
  0
CIRCLE
  5
142
100
AcDbEntity
  8
0
  6
ByLayer
 62
  256
370
   -1
100
AcDbCircle
 10
58.28000000000016
 20
7.419999999999952
 40
2.1
  0
CIRCLE
  5
143
100
AcDbEntity
  8
0
  6
ByLayer
 62
  256
370
   -1
100
AcDbCircle
 10
22.7199999999992
 20
32.58000000000008
 40
2.1
  0
CIRCLE
  5
144
100
AcDbEntity
  8
0
  6
ByLayer
 62
  256
370
   -1
100
AcDbCircle
 10
22.71999999999957
 20
7.42000000000025
 40
2.1
  0
DIMENSION
  5
145
100
AcDbEntity
  8
sizes
  6
ByLayer
 62
  256
370
   -1
100
AcDbDimension
  2
*D1
 10
20.93815024675599
 20
6.30868930677995
 30
0
 11
21.09933857238663
 21
10.01853089014714
 31
0
 70
   35
 71
    5
  3
Standard
 53
0
210
0
220
0
230
1
100
AcDbDiametricDimension
 15
24.50184975324315
 25
8.531310693220551
 35
0
 40
0
  0
LINE
  5
146
100
AcDbEntity
  8
builder
  6
ByLayer
 62
  256
370
   -1
100
AcDbLine
 10
15.00000000000003
 20
-1.77635683940025e-15
 11
5.000000000000036
 21
9.999999999999998
  0
LINE
  5
147
100
AcDbEntity
  8
builder
  6
ByLayer
 62
  256
370
   -1
100
AcDbLine
 10
15.00000000000003
 20
9.999999999999991
 11
5.000000000000036
 21
-1.77635683940025e-15
  0
LWPOLYLINE
  5
148
100
AcDbEntity
  8
InternalComps
  6
ByLayer
 62
  256
370
   -1
100
AcDbPolyline
 90
    4
 70
    1
 43
0
 10
5.000000000000025
 20
-1.77635683940025e-15
 10
15.00000000000002
 20
-1.77635683940025e-15
 10
15.00000000000002
 20
9.999999999999998
 10
5.000000000000025
 20
9.999999999999998
  0
LINE
  5
149
100
AcDbEntity
  8
0
  6
ByLayer
 62
  256
370
   -1
100
AcDbLine
 10
76
 20
0
 11
5.000000000000036
 21
-1.77635683940025e-15
  0
LINE
  5
14A
100
AcDbEntity
  8
0
  6
ByLayer
 62
  256
370
   -1
100
AcDbLine
 10
5.000000000000036
 20
-1.77635683940025e-15
 11
4.999999999992399
 21
40.00000000000473
  0
CIRCLE
  5
14B
100
AcDbEntity
  8
0
  6
ByLayer
 62
  256
370
   -1
100
AcDbCircle
 10
10.00000000000003
 20
35
 40
2.1
  0
CIRCLE
  5
14C
100
AcDbEntity
  8
0
  6
ByLayer
 62
  256
370
   -1
100
AcDbCircle
 10
70.99999999999994
 20
35.00000000000014
 40
2.1
  0
CIRCLE
  5
14D
100
AcDbEntity
  8
0
  6
ByLayer
 62
  256
370
   -1
100
AcDbCircle
 10
70.99999999999997
 20
4.999999999999981
 40
2.1
  0
CIRCLE
  5
14E
100
AcDbEntity
  8
0
  6
ByLayer
 62
  256
370
   -1
100
AcDbCircle
 10
10.00000000000004
 20
4.999999999999996
 40
2.1
  0
CIRCLE
  5
14F
100
AcDbEntity
  8
builder
  6
ByLayer
 62
  256
370
   -1
100
AcDbCircle
 10
5.000000000000028
 20
40
 40
2.1
  0
CIRCLE
  5
150
100
AcDbEntity
  8
builder
  6
ByLayer
 62
  256
370
   -1
100
AcDbCircle
 10
76
 20
-7.105427357601002e-15
 40
2.1
  0
CIRCLE
  5
151
100
AcDbEntity
  8
builder
  6
ByLayer
 62
  256
370
   -1
100
AcDbCircle
 10
5.000000000000028
 20
-7.105427357601002e-15
 40
2.1
  0
LWPOLYLINE
  5
152
100
AcDbEntity
  8
InternalComps
  6
ByLayer
 62
  256
370
   -1
100
AcDbPolyline
 90
    4
 70
    1
 43
0
 10
5.000000000000025
 20
42.10000000000001
 10
75.99999999999994
 20
42.10000000000001
 10
75.99999999999994
 20
39.99999999999994
 10
5.000000000000025
 20
39.99999999999994
  0
LWPOLYLINE
  5
153
100
AcDbEntity
  8
InternalComps
  6
ByLayer
 62
  256
370
   -1
100
AcDbPolyline
 90
    4
 70
    1
 43
0
 10
76
 20
-2.099999999999284
 10
5.000000000000025
 20
-2.099999999999284
 10
5.000000000000025
 20
-1.06581410364015e-14
 10
76
 20
-1.06581410364015e-14
  0
LINE
  5
154
100
AcDbEntity
  8
builder
  6
ByLayer
 62
  256
370
   -1
100
AcDbLine
 10
5.000000000000105
 20
39.99999999999991
 11
1.522351381861144
 21
39.99999999999991
  0
LWPOLYLINE
  5
155
100
AcDbEntity
  8
InternalComps
  6
ByLayer
 62
  256
370
   -1
100
AcDbPolyline
 90
    4
 70
    1
 43
0
 10
2.90000000000019
 20
39.99999999999991
 10
5.000000000000036
 20
39.99999999999991
 10
5.000000000000036
 20
-1.06581410364015e-14
 10
2.90000000000019
 20
-1.06581410364015e-14
  0
LINE
  5
156
100
AcDbEntity
  8
builder
  6
ByLayer
 62
  256
370
   -1
100
AcDbLine
 10
78.03211845027447
 20
40.00000000000473
 11
93.23400000000704
 21
40
  0
LINE
  5
157
100
AcDbEntity
  8
builder
  6
ByLayer
 62
  256
370
   -1
100
AcDbLine
 10
113.2340000000071
 20
39.99999999999999
 11
120.9283745401531
 21
39.99999999999999
  0
LINE
  5
158
100
AcDbEntity
  8
builder
  6
ByLayer
 62
  256
370
   -1
100
AcDbLine
 10
123.2340000000073
 20
5.084141158371281e-14
 11
123.2340000000071
 21
40.00000000000004
  0
LINE
  5
159
100
AcDbEntity
  8
0
  6
ByLayer
 62
  256
370
   -1
100
AcDbLine
 10
113.2340000000071
 20
39.99999999999999
 11
123.2340000000071
 21
40.00000000000004
  0
LINE
  5
15A
100
AcDbEntity
  8
0
  6
ByLayer
 62
  256
370
   -1
100
AcDbLine
 10
123.2340000000071
 20
40.00000000000004
 11
123.2340000000073
 21
5.084141158371281e-14
  0
LINE
  5
15B
100
AcDbEntity
  8
0
  6
ByLayer
 62
  256
370
   -1
100
AcDbLine
 10
123.2340000000073
 20
5.084141158371281e-14
 11
113.2340000000073
 21
0
  0
LINE
  5
15C
100
AcDbEntity
  8
builder
  6
ByLayer
 62
  256
370
   -1
100
AcDbLine
 10
5.000000000000025
 20
-1.77635683940025e-15
 11
5.000000000000025
 21
-43.95414600001194
  0
LINE
  5
15D
100
AcDbEntity
  8
0
  6
ByLayer
 62
  256
370
   -1
100
AcDbLine
 10
5.000000000000021
 20
-40.5000000000007
 11
5.000000000000025
 21
-20.50000000000069
  0
LINE
  5
15E
100
AcDbEntity
  8
0
  6
ByLayer
 62
  256
370
   -1
100
AcDbLine
 10
5.000000000000025
 20
-20.50000000000069
 11
76
 21
-20.50000000000072
  0
LINE
  5
15F
100
AcDbEntity
  8
0
  6
ByLayer
 62
  256
370
   -1
100
AcDbLine
 10
76
 20
-50.50000000000075
 11
5.00000000000002
 21
-50.5000000000007
  0
LINE
  5
160
100
AcDbEntity
  8
0
  6
ByLayer
 62
  256
370
   -1
100
AcDbLine
 10
76
 20
-50.50000000000075
 11
76
 21
-40.50000000000075
  0
LINE
  5
161
100
AcDbEntity
  8
0
  6
ByLayer
 62
  256
370
   -1
100
AcDbLine
 10
5.00000000000002
 20
-50.5000000000007
 11
5.000000000000021
 21
-40.5000000000007
  0
LINE
  5
162
100
AcDbEntity
  8
builder
  6
ByLayer
 62
  256
370
   -1
100
AcDbLine
 10
123.2339995697314
 20
20.00000000000008
 11
-13.34345115020924
 21
20.00000000000008
  0
LINE
  5
163
100
AcDbEntity
  8
builder
  6
ByLayer
 62
  256
370
   -1
100
AcDbLine
 10
123.2339995697314
 20
20.00000000000008
 11
124.4638459752283
 21
20.00000000000008
  0
LINE
  5
164
100
AcDbEntity
  8
0
  6
ByLayer
 62
  256
370
   -1
100
AcDbLine
 10
-30.00000000000021
 20
39.99999999999994
 11
-50.00000000000027
 21
39.99999999999995
  0
LINE
  5
165
100
AcDbEntity
  8
0
  6
ByLayer
 62
  256
370
   -1
100
AcDbLine
 10
-50.00000000000027
 20
39.99999999999995
 11
-49.99999999999997
 21
-4.973799150320701e-14
  0
LINE
  5
166
100
AcDbEntity
  8
0
  6
ByLayer
 62
  256
370
   -1
100
AcDbLine
 10
-49.99999999999997
 20
-4.973799150320701e-14
 11
-30.00000000000001
 21
-4.973799150320701e-14
  0
LINE
  5
167
100
AcDbEntity
  8
builder
  6
ByLayer
 62
  256
370
   -1
100
AcDbLine
 10
-30.00000000000021
 20
39.99999999999994
 11
-22.3056254598542
 21
39.99999999999994
  0
LINE
  5
168
100
AcDbEntity
  8
builder
  6
ByLayer
 62
  256
370
   -1
100
AcDbLine
 10
-20.00000000000001
 20
1.103420080505798e-15
 11
-20.00000000000021
 21
39.99999999999999
  0
LINE
  5
169
100
AcDbEntity
  8
0
  6
ByLayer
 62
  256
370
   -1
100
AcDbLine
 10
-30.00000000000021
 20
39.99999999999994
 11
-20.00000000000021
 21
39.99999999999999
  0
LINE
  5
16A
100
AcDbEntity
  8
0
  6
ByLayer
 62
  256
370
   -1
100
AcDbLine
 10
-20.00000000000021
 20
39.99999999999999
 11
-20.00000000000001
 21
1.103420080505798e-15
  0
LINE
  5
16B
100
AcDbEntity
  8
0
  6
ByLayer
 62
  256
370
   -1
100
AcDbLine
 10
-20.00000000000001
 20
1.103420080505798e-15
 11
-30.00000000000001
 21
-4.973799150320701e-14
  0
LINE
  5
16C
100
AcDbEntity
  8
builder
  6
ByLayer
 62
  256
370
   -1
100
AcDbLine
 10
-20.00000043027596
 20
20.00000000000003
 11
-18.77015402477898
 21
20.00000000000003
  0
CIRCLE
  5
16D
100
AcDbEntity
  8
builder
  6
ByLayer
 62
  256
370
   -1
100
AcDbCircle
 10
76
 20
40.00000000000473
 40
2.1
  0
LINE
  5
16E
100
AcDbEntity
  8
builder
  6
ByLayer
 62
  256
370
   -1
100
AcDbLine
 10
76
 20
40
 11
4.999999999992399
 21
40.00000000000473
  0
LINE
  5
16F
100
AcDbEntity
  8
builder
  6
ByLayer
 62
  256
370
   -1
100
AcDbLine
 10
4.999999999992399
 20
40.00000000000473
 11
76
 21
40
  0
LINE
  5
170
100
AcDbEntity
  8
0
  6
ByLayer
 62
  256
370
   -1
100
AcDbLine
 10
76
 20
40
 11
4.999999999992399
 21
40.00000000000473
  0
DIMENSION
  5
171
100
AcDbEntity
  8
sizes
  6
ByLayer
 62
  256
370
   -1
100
AcDbDimension
  2
*D2
 10
82.81591517325303
 20
20.00000000000008
 30
0
 11
79.75341517325303
 21
10.00000000000004
 31
0
 70
   32
 71
    5
  3
Standard
 53
0
210
0
220
0
230
1
100
AcDbAlignedDimension
 13
76
 23
0
 33
0
 14
66.99999999999994
 24
20.00000000000008
 34
0
 50
90
100
AcDbRotatedDimension
  0
DIMENSION
  5
172
100
AcDbEntity
  8
sizes
  6
ByLayer
 62
  256
370
   -1
100
AcDbDimension
  2
*D3
 10
58.28000000000016
 20
-7.429158361820633
 30
0
 11
40.49999999999986
 21
-4.366658361820633
 31
0
 70
   32
 71
    5
  3
Standard
 53
0
210
0
220
0
230
1
100
AcDbAlignedDimension
 13
22.71999999999957
 23
7.42000000000025
 33
0
 14
58.28000000000016
 24
7.419999999999952
 34
0
100
AcDbRotatedDimension
  0
DIMENSION
  5
173
100
AcDbEntity
  8
sizes
  6
ByLayer
 62
  256
370
   -1
100
AcDbDimension
  2
*D4
 10
70.99999999999997
 20
-14.11682565755599
 30
0
 11
40.50000000000001
 21
-11.05432565755599
 31
0
 70
   32
 71
    5
  3
Standard
 53
0
210
0
220
0
230
1
100
AcDbAlignedDimension
 13
10.00000000000004
 23
4.999999999999996
 33
0
 14
70.99999999999997
 24
4.999999999999981
 34
0
100
AcDbRotatedDimension
  0
DIMENSION
  5
174
100
AcDbEntity
  8
sizes
  6
ByLayer
 62
  256
370
   -1
100
AcDbDimension
  2
*D5
 10
66.99999999999994
 20
47.28282436310164
 30
0
 11
71.49999999999997
 21
50.34532436310164
 31
0
 70
   32
 71
    5
  3
Standard
 53
0
210
0
220
0
230
1
100
AcDbAlignedDimension
 13
76
 23
40.00000000000014
 33
0
 14
66.99999999999994
 24
20.00000000000008
 34
0
100
AcDbRotatedDimension
  0
DIMENSION
  5
175
100
AcDbEntity
  8
sizes
  6
ByLayer
 62
  256
370
   -1
100
AcDbDimension
  2
*D6
 10
5.000000000000072
 20
54.99383002429516
 30
0
 11
40.50000000000004
 21
58.05633002429516
 31
0
 70
   32
 71
    5
  3
Standard
 53
0
210
0
220
0
230
1
100
AcDbAlignedDimension
 13
76
 23
39.99999999999994
 33
0
 14
5.000000000000071
 24
39.99999999999994
 34
0
100
AcDbRotatedDimension
  0
DIMENSION
  5
176
100
AcDbEntity
  8
sizes
  6
ByLayer
 62
  256
370
   -1
100
AcDbDimension
  2
*D7
 10
123.2340000000071
 20
47.27352682499445
 30
0
 11
108.2340000000071
 21
50.33602682499445
 31
0
 70
   32
 71
    5
  3
Standard
 53
0
210
0
220
0
230
1
100
AcDbAlignedDimension
 13
93.23400000000704
 23
40
 33
0
 14
123.2340000000071
 24
40.00000000000004
 34
0
100
AcDbRotatedDimension
  0
DIMENSION
  5
177
100
AcDbEntity
  8
sizes
  6
ByLayer
 62
  256
370
   -1
100
AcDbDimension
  2
*D8
 10
-20
 20
47.05364995604099
 30
0
 11
-35.00000000000014
 21
50.11614995604099
 31
0
 70
   32
 71
    5
  3
Standard
 53
0
210
0
220
0
230
1
100
AcDbAlignedDimension
 13
-50.00000000000027
 23
39.99999999999995
 33
0
 14
-20
 24
39.99999999999999
 34
0
100
AcDbRotatedDimension
  0
DIMENSION
  5
178
100
AcDbEntity
  8
sizes
  6
ByLayer
 62
  256
370
   -1
100
AcDbDimension
  2
*D9
 10
-1.190574714178823
 20
4.999999999999997
 30
0
 11
-4.253074714178822
 21
20
 31
0
 70
   32
 71
    5
  3
Standard
 53
0
210
0
220
0
230
1
100
AcDbAlignedDimension
 13
10.00000000000003
 23
35
 33
0
 14
10.00000000000004
 24
4.999999999999996
 34
0
 50
90
100
AcDbRotatedDimension
  0
DIMENSION
  5
179
100
AcDbEntity
  8
sizes
  6
ByLayer
 62
  256
370
   -1
100
AcDbDimension
  2
*D10
 10
-8.077777932611664
 20
-9.05657514788822e-15
 30
0
 11
-11.14027793261166
 21
19.99999999999995
 31
0
 70
   32
 71
    5
  3
Standard
 53
0
210
0
220
0
230
1
100
AcDbAlignedDimension
 13
4.999999999992399
 23
39.99999999999991
 33
0
 14
5.000000000000025
 24
-1.06581410364015e-14
 34
0
 50
90
100
AcDbRotatedDimension
  0
DIMENSION
  5
17A
100
AcDbEntity
  8
sizes
  6
ByLayer
 62
  256
370
   -1
100
AcDbDimension
  2
*D11
 10
82.89357959545542
 20
-50.50000000000075
 30
0
 11
79.83107959545542
 21
-35.50000000000074
 31
0
 70
   32
 71
    5
  3
Standard
 53
0
210
0
220
0
230
1
100
AcDbAlignedDimension
 13
76
 23
-20.50000000000072
 33
0
 14
76
 24
-50.50000000000075
 34
0
 50
90
100
AcDbRotatedDimension
  0
LINE
  5
17B
100
AcDbEntity
  8
0
  6
ByLayer
 62
  256
370
   -1
100
AcDbLine
 10
76
 20
67.65782545974184
 11
76
 21
87.65782545974186
  0
LINE
  5
17C
100
AcDbEntity
  8
0
  6
ByLayer
 62
  256
370
   -1
100
AcDbLine
 10
5.000000000000036
 20
87.65782545974187
 11
5.000000000000028
 21
67.65782545974186
  0
LINE
  5
17D
100
AcDbEntity
  8
0
  6
ByLayer
 62
  256
370
   -1
100
AcDbLine
 10
5.000000000000028
 20
67.65782545974186
 11
76
 21
67.65782545974184
  0
LINE
  5
17E
100
AcDbEntity
  8
builder
  6
ByLayer
 62
  256
370
   -1
100
AcDbLine
 10
76
 20
97.65782545974187
 11
5.000000000000039
 21
97.65782545974187
  0
LINE
  5
17F
100
AcDbEntity
  8
0
  6
ByLayer
 62
  256
370
   -1
100
AcDbLine
 10
5.000000000000036
 20
87.65782545974187
 11
5.000000000000039
 21
97.65782545974187
  0
LINE
  5
180
100
AcDbEntity
  8
0
  6
ByLayer
 62
  256
370
   -1
100
AcDbLine
 10
5.000000000000039
 20
97.65782545974187
 11
76
 21
97.65782545974187
  0
LINE
  5
181
100
AcDbEntity
  8
0
  6
ByLayer
 62
  256
370
   -1
100
AcDbLine
 10
76
 20
97.65782545974187
 11
76
 21
87.65782545974186
  0
LINE
  5
182
100
AcDbEntity
  8
builder
  6
ByLayer
 62
  256
370
   -1
100
AcDbLine
 10
76
 20
117.111638899866
 11
76
 21
125.1116388998659
  0
LINE
  5
183
100
AcDbEntity
  8
builder
  6
ByLayer
 62
  256
370
   -1
100
AcDbLine
 10
76
 20
149.1116388998661
 11
76
 21
157.111638899866
  0
LINE
  5
184
100
AcDbEntity
  8
builder
  6
ByLayer
 62
  256
370
   -1
100
AcDbLine
 10
76
 20
157.111638899866
 11
5.000000000000028
 21
157.111638899866
  0
LINE
  5
185
100
AcDbEntity
  8
builder
  6
ByLayer
 62
  256
370
   -1
100
AcDbLine
 10
5.000000000000028
 20
157.111638899866
 11
5.000000000000028
 21
114.390325267458
  0
LINE
  5
186
100
AcDbEntity
  8
builder
  6
ByLayer
 62
  256
370
   -1
100
AcDbLine
 10
5.000000000000028
 20
127.111638899866
 11
76
 21
127.111638899866
  0
LINE
  5
187
100
AcDbEntity
  8
builder
  6
ByLayer
 62
  256
370
   -1
100
AcDbLine
 10
65.99999999999986
 20
157.111638899866
 11
65.99999999999996
 21
117.111638899866
  0
LINE
  5
188
100
AcDbEntity
  8
builder
  6
ByLayer
 62
  256
370
   -1
100
AcDbLine
 10
5.000000000000032
 20
147.111638899866
 11
76
 21
147.1116388998663
  0
LINE
  5
189
100
AcDbEntity
  8
builder
  6
ByLayer
 62
  256
370
   -1
100
AcDbLine
 10
15.00000000000002
 20
157.111638899866
 11
15.00000000000003
 21
117.111638899866
  0
LINE
  5
18A
100
AcDbEntity
  8
builder
  6
ByLayer
 62
  256
370
   -1
100
AcDbLine
 10
65.99999999999987
 20
147.1116388998663
 11
76
 21
157.111638899866
  0
LINE
  5
18B
100
AcDbEntity
  8
builder
  6
ByLayer
 62
  256
370
   -1
100
AcDbLine
 10
65.99999999999986
 20
157.111638899866
 11
76
 21
147.1116388998663
  0
LINE
  5
18C
100
AcDbEntity
  8
builder
  6
ByLayer
 62
  256
370
   -1
100
AcDbLine
 10
76
 20
147.1116388998663
 11
76
 21
127.111638899866
  0
LINE
  5
18D
100
AcDbEntity
  8
builder
  6
ByLayer
 62
  256
370
   -1
100
AcDbLine
 10
76
 20
127.111638899866
 11
65.99999999999996
 21
117.111638899866
  0
LINE
  5
18E
100
AcDbEntity
  8
builder
  6
ByLayer
 62
  256
370
   -1
100
AcDbLine
 10
65.99999999999996
 20
117.111638899866
 11
65.99999999999993
 21
127.111638899866
  0
LINE
  5
18F
100
AcDbEntity
  8
builder
  6
ByLayer
 62
  256
370
   -1
100
AcDbLine
 10
65.99999999999993
 20
127.111638899866
 11
76
 21
117.111638899866
  0
LINE
  5
190
100
AcDbEntity
  8
builder
  6
ByLayer
 62
  256
370
   -1
100
AcDbLine
 10
76
 20
117.111638899866
 11
15.00000000000003
 21
117.111638899866
  0
LINE
  5
191
100
AcDbEntity
  8
builder
  6
ByLayer
 62
  256
370
   -1
100
AcDbLine
 10
5.000000000000028
 20
127.111638899866
 11
15.00000000000002
 21
127.111638899866
  0
LINE
  5
192
100
AcDbEntity
  8
builder
  6
ByLayer
 62
  256
370
   -1
100
AcDbLine
 10
5.000000000000028
 20
117.111638899866
 11
5.000000000000028
 21
147.111638899866
  0
LINE
  5
193
100
AcDbEntity
  8
builder
  6
ByLayer
 62
  256
370
   -1
100
AcDbLine
 10
5.000000000000028
 20
147.111638899866
 11
15.00000000000002
 21
157.111638899866
  0
LINE
  5
194
100
AcDbEntity
  8
builder
  6
ByLayer
 62
  256
370
   -1
100
AcDbLine
 10
15.00000000000002
 20
157.111638899866
 11
15.00000000000002
 21
147.111638899866
  0
LINE
  5
195
100
AcDbEntity
  8
builder
  6
ByLayer
 62
  256
370
   -1
100
AcDbLine
 10
15.00000000000002
 20
147.111638899866
 11
5.000000000000028
 21
157.111638899866
  0
LINE
  5
196
100
AcDbEntity
  8
builder
  6
ByLayer
 62
  256
370
   -1
100
AcDbLine
 10
5.000000000000028
 20
117.111638899866
 11
5.000000000000028
 21
157.111638899866
  0
LINE
  5
197
100
AcDbEntity
  8
builder
  6
ByLayer
 62
  256
370
   -1
100
AcDbLine
 10
10
 20
127.111638899866
 11
0
 21
127.111638899866
  0
LWPOLYLINE
  5
198
100
AcDbEntity
  8
InternalComps
  6
ByLayer
 62
  256
370
   -1
100
AcDbPolyline
 90
    4
 70
    1
 43
0
 10
65.99999999999994
 20
147.1116388998661
 10
75.99999999999994
 20
147.1116388998661
 10
75.99999999999994
 20
157.1116388998661
 10
65.99999999999994
 20
157.1116388998661
  0
LWPOLYLINE
  5
199
100
AcDbEntity
  8
InternalComps
  6
ByLayer
 62
  256
370
   -1
100
AcDbPolyline
 90
    4
 70
    1
 43
0
 10
65.99999999999997
 20
117.111638899866
 10
75.99999999999997
 20
117.111638899866
 10
75.99999999999997
 20
127.111638899866
 10
65.99999999999997
 20
127.111638899866
  0
LWPOLYLINE
  5
19A
100
AcDbEntity
  8
InternalComps
  6
ByLayer
 62
  256
370
   -1
100
AcDbPolyline
 90
    4
 70
    1
 43
0
 10
5.000000000000021
 20
147.111638899866
 10
15.00000000000002
 20
147.111638899866
 10
15.00000000000002
 20
157.111638899866
 10
5.000000000000021
 20
157.111638899866
  0
LINE
  5
19B
100
AcDbEntity
  8
builder
  6
ByLayer
 62
  256
370
   -1
100
AcDbLine
 10
65.99999999999989
 20
147.1116388998661
 11
15.00000000000003
 21
127.111638899866
  0
LINE
  5
19C
100
AcDbEntity
  8
builder
  6
ByLayer
 62
  256
370
   -1
100
AcDbLine
 10
15.00000000000003
 20
127.111638899866
 11
15.00000000000002
 21
147.111638899866
  0
LINE
  5
19D
100
AcDbEntity
  8
builder
  6
ByLayer
 62
  256
370
   -1
100
AcDbLine
 10
15.00000000000002
 20
147.111638899866
 11
65.99999999999993
 21
127.111638899866
  0
LINE
  5
19E
100
AcDbEntity
  8
builder
  6
ByLayer
 62
  256
370
   -1
100
AcDbLine
 10
15.00000000000003
 20
117.111638899866
 11
5.000000000000036
 21
127.111638899866
  0
LINE
  5
19F
100
AcDbEntity
  8
builder
  6
ByLayer
 62
  256
370
   -1
100
AcDbLine
 10
15.00000000000003
 20
127.111638899866
 11
5.000000000000036
 21
117.111638899866
  0
LWPOLYLINE
  5
1A0
100
AcDbEntity
  8
InternalComps
  6
ByLayer
 62
  256
370
   -1
100
AcDbPolyline
 90
    4
 70
    1
 43
0
 10
5.000000000000025
 20
117.111638899866
 10
15.00000000000002
 20
117.111638899866
 10
15.00000000000002
 20
127.111638899866
 10
5.000000000000025
 20
127.111638899866
  0
CIRCLE
  5
1A1
100
AcDbEntity
  8
0
  6
ByLayer
 62
  256
370
   -1
100
AcDbCircle
 10
10.00000000000003
 20
152.111638899866
 40
2.1
  0
CIRCLE
  5
1A2
100
AcDbEntity
  8
0
  6
ByLayer
 62
  256
370
   -1
100
AcDbCircle
 10
70.99999999999994
 20
152.1116388998661
 40
2.1
  0
CIRCLE
  5
1A3
100
AcDbEntity
  8
0
  6
ByLayer
 62
  256
370
   -1
100
AcDbCircle
 10
70.99999999999997
 20
122.111638899866
 40
2.1
  0
CIRCLE
  5
1A4
100
AcDbEntity
  8
0
  6
ByLayer
 62
  256
370
   -1
100
AcDbCircle
 10
10.00000000000004
 20
122.111638899866
 40
2.1
  0
CIRCLE
  5
1A5
100
AcDbEntity
  8
builder
  6
ByLayer
 62
  256
370
   -1
100
AcDbCircle
 10
5.000000000000028
 20
157.111638899866
 40
2.1
  0
CIRCLE
  5
1A6
100
AcDbEntity
  8
builder
  6
ByLayer
 62
  256
370
   -1
100
AcDbCircle
 10
76
 20
117.111638899866
 40
2.1
  0
CIRCLE
  5
1A7
100
AcDbEntity
  8
builder
  6
ByLayer
 62
  256
370
   -1
100
AcDbCircle
 10
5.000000000000028
 20
117.111638899866
 40
2.1
  0
LWPOLYLINE
  5
1A8
100
AcDbEntity
  8
InternalComps
  6
ByLayer
 62
  256
370
   -1
100
AcDbPolyline
 90
    4
 70
    1
 43
0
 10
5.000000000000025
 20
159.211638899866
 10
75.99999999999994
 20
159.211638899866
 10
75.99999999999994
 20
157.1116388998659
 10
5.000000000000025
 20
157.1116388998659
  0
LWPOLYLINE
  5
1A9
100
AcDbEntity
  8
InternalComps
  6
ByLayer
 62
  256
370
   -1
100
AcDbPolyline
 90
    4
 70
    1
 43
0
 10
76
 20
157.1116388998707
 10
78.09999999999977
 20
157.1116388998707
 10
78.09999999999977
 20
117.111638899866
 10
76
 20
117.111638899866
  0
LWPOLYLINE
  5
1AA
100
AcDbEntity
  8
InternalComps
  6
ByLayer
 62
  256
370
   -1
100
AcDbPolyline
 90
    4
 70
    1
 43
0
 10
76
 20
115.0116388998667
 10
5.000000000000025
 20
115.0116388998667
 10
5.000000000000025
 20
117.111638899866
 10
76
 20
117.111638899866
  0
LINE
  5
1AB
100
AcDbEntity
  8
builder
  6
ByLayer
 62
  256
370
   -1
100
AcDbLine
 10
5.000000000000105
 20
157.1116388998659
 11
1.522351381861144
 21
157.1116388998659
  0
LWPOLYLINE
  5
1AC
100
AcDbEntity
  8
InternalComps
  6
ByLayer
 62
  256
370
   -1
100
AcDbPolyline
 90
    4
 70
    1
 43
0
 10
2.90000000000019
 20
157.1116388998659
 10
5.000000000000036
 20
157.1116388998659
 10
5.000000000000036
 20
117.111638899866
 10
2.90000000000019
 20
117.111638899866
  0
CIRCLE
  5
1AD
100
AcDbEntity
  8
builder
  6
ByLayer
 62
  256
370
   -1
100
AcDbCircle
 10
75.99999999999994
 20
157.1116388998659
 40
2.1
  0
LINE
  5
1AE
100
AcDbEntity
  8
0
  6
ByLayer
 62
  256
370
   -1
100
AcDbLine
 10
5.000000000000025
 20
159.211638899866
 11
75.99999999999994
 21
159.211638899866
  0
LINE
  5
1AF
100
AcDbEntity
  8
0
  6
ByLayer
 62
  256
370
   -1
100
AcDbLine
 10
78.09999999999994
 20
157.1116388998659
 11
78.09999999999999
 21
117.111638899866
  0
LINE
  5
1B0
100
AcDbEntity
  8
0
  6
ByLayer
 62
  256
370
   -1
100
AcDbLine
 10
76
 20
115.011638899866
 11
5.000000000000025
 21
115.0116388998667
  0
LINE
  5
1B1
100
AcDbEntity
  8
0
  6
ByLayer
 62
  256
370
   -1
100
AcDbLine
 10
2.900000000000028
 20
117.111638899866
 11
2.90000000000019
 21
157.1116388998659
  0
ARC
  5
1B2
100
AcDbEntity
  8
0
  6
ByLayer
 62
  256
370
   -1
100
AcDbCircle
 10
5.000000000000021
 20
157.111638899866
 40
2.099999999999831
100
AcDbArc
 50
89.99999999999982
 51
180
  0
ARC
  5
1B3
100
AcDbEntity
  8
0
  6
ByLayer
 62
  256
370
   -1
100
AcDbCircle
 10
76
 20
157.1116388998707
 40
2.099999999999767
100
AcDbArc
 50
0
 51
90.00000000000155
  0
ARC
  5
1B4
100
AcDbEntity
  8
0
  6
ByLayer
 62
  256
370
   -1
100
AcDbCircle
 10
75.99999999999997
 20
117.111638899866
 40
2.099999999999255
100
AcDbArc
 50
270.0000000000007
 51
7.63333123551244e-13
  0
ARC
  5
1B5
100
AcDbEntity
  8
0
  6
ByLayer
 62
  256
370
   -1
100
AcDbCircle
 10
5.000000000000036
 20
117.111638899866
 40
2.099999999999284
100
AcDbArc
 50
180
 51
269.9999999999997
  0
DIMENSION
  5
1B6
100
AcDbEntity
  8
sizes
  6
ByLayer
 62
  256
370
   -1
100
AcDbDimension
  2
*D12
 10
86.31255309475837
 20
152.1116388998661
 30
0
 11
83.25005309475837
 21
137.111638899866
 31
0
 70
   32
 71
    5
  3
Standard
 53
0
210
0
220
0
230
1
100
AcDbAlignedDimension
 13
70.99999999999997
 23
122.111638899866
 33
0
 14
70.99999999999994
 24
152.1116388998661
 34
0
 50
90
100
AcDbRotatedDimension
  0
DIMENSION
  5
1B7
100
AcDbEntity
  8
sizes
  6
ByLayer
 62
  256
370
   -1
100
AcDbDimension
  2
*D13
 10
95.43745038900492
 20
115.0116388998667
 30
0
 11
92.37495038900492
 21
137.1116388998663
 31
0
 70
   32
 71
    5
  3
Standard
 53
0
210
0
220
0
230
1
100
AcDbAlignedDimension
 13
75.9999930948965
 23
159.211638899866
 33
0
 14
76.00000158240195
 24
115.0116388998667
 34
0
 50
90
100
AcDbRotatedDimension
  0
DIMENSION
  5
1B8
100
AcDbEntity
  8
sizes
  6
ByLayer
 62
  256
370
   -1
100
AcDbDimension
  2
*D14
 10
70.99999999999994
 20
165.2952706580728
 30
0
 11
40.49999999999999
 21
168.3577706580728
 31
0
 70
   32
 71
    5
  3
Standard
 53
0
210
0
220
0
230
1
100
AcDbAlignedDimension
 13
10.00000000000003
 23
152.111638899866
 33
0
 14
70.99999999999994
 24
152.1116388998661
 34
0
100
AcDbRotatedDimension
  0
DIMENSION
  5
1B9
100
AcDbEntity
  8
sizes
  6
ByLayer
 62
  256
370
   -1
100
AcDbDimension
  2
*D15
 10
78.09999999999995
 20
172.7746946697503
 30
0
 11
40.50000000000008
 21
175.8371946697503
 31
0
 70
   32
 71
    5
  3
Standard
 53
0
210
0
220
0
230
1
100
AcDbAlignedDimension
 13
2.90000000000019
 23
157.1116364339496
 33
0
 14
78.09999999999995
 24
157.1116349370968
 34
0
100
AcDbRotatedDimension
  0
DIMENSION
  5
1BA
100
AcDbEntity
  8
sizes
  6
ByLayer
 62
  256
370
   -1
100
AcDbDimension
  2
*D16
 10
76
 20
103.7512500000367
 30
0
 11
40.50000000000001
 21
106.8137500000367
 31
0
 70
   32
 71
    5
  3
Standard
 53
0
210
0
220
0
230
1
100
AcDbAlignedDimension
 13
5.000000000000028
 23
97.65782545974187
 33
0
 14
76
 24
97.65782545974189
 34
0
100
AcDbRotatedDimension
  0
DIMENSION
  5
1BB
100
AcDbEntity
  8
sizes
  6
ByLayer
 62
  256
370
   -1
100
AcDbDimension
  2
*D17
 10
86.41200000003057
 20
67.65782545974184
 30
0
 11
83.34950000003057
 21
82.65782545974186
 31
0
 70
   32
 71
    5
  3
Standard
 53
0
210
0
220
0
230
1
100
AcDbAlignedDimension
 13
76
 23
97.65782545974187
 33
0
 14
76
 24
67.65782545974184
 34
0
 50
90
100
AcDbRotatedDimension
  0
DIMENSION
  5
1BC
100
AcDbEntity
  8
sizes
  6
ByLayer
 62
  256
370
   -1
100
AcDbDimension
  2
*D18
 10
135.596278064298
 20
4.822404907704671e-14
 30
0
 11
132.533778064298
 21
20.00000000000004
 31
0
 70
   32
 71
    5
  3
Standard
 53
0
210
0
220
0
230
1
100
AcDbAlignedDimension
 13
123.2340000000071
 23
40.00000000000004
 33
0
 14
123.2340000000073
 24
4.973799150320701e-14
 34
0
 50
90
100
AcDbRotatedDimension
  0
DIMENSION
  5
1BD
100
AcDbEntity
  8
sizes
  6
ByLayer
 62
  256
370
   -1
100
AcDbDimension
  2
*D19
 10
-59.40825000002101
 20
39.99999999999995
 30
0
 11
-62.47075000002101
 21
19.99999999999998
 31
0
 70
   32
 71
    5
  3
Standard
 53
0
210
0
220
0
230
1
100
AcDbAlignedDimension
 13
-49.99999999999997
 23
0
 33
0
 14
-50.00000000000027
 24
39.99999999999995
 34
0
 50
90
100
AcDbRotatedDimension
  0
DIMENSION
  5
1BE
100
AcDbEntity
  8
sizes
  6
ByLayer
 62
  256
370
   -1
100
AcDbDimension
  2
*D20
 10
76
 20
-57.82162165091092
 30
0
 11
40.50000000000001
 21
-54.75912165091092
 31
0
 70
   32
 71
    5
  3
Standard
 53
0
210
0
220
0
230
1
100
AcDbAlignedDimension
 13
5.00000000000002
 23
-50.5000000000007
 33
0
 14
76
 24
-50.50000000000075
 34
0
100
AcDbRotatedDimension
  0
CIRCLE
  5
1BF
100
AcDbEntity
  8
0
  6
ByLayer
 62
  256
370
   -1
100
AcDbCircle
 10
66.99999999999994
 20
20.00000000000008
 40
3.1
  0
DIMENSION
  5
1C0
100
AcDbEntity
  8
sizes
  6
ByLayer
 62
  256
370
   -1
100
AcDbDimension
  2
*D21
 10
69.88921228518566
 20
21.12358905794427
 30
0
 11
65.89000274517605
 21
22.85426213657469
 31
0
 70
   35
 71
    5
  3
Standard
 53
0
210
0
220
0
230
1
100
AcDbDiametricDimension
 15
64.11078771481422
 25
18.87641094205589
 35
0
 40
0
  0
ENDSEC
  0
SECTION
  2
OBJECTS
  0
DICTIONARY
  5
C
330
0
100
AcDbDictionary
281
    1
  3
ACAD_GROUP
350
D
  0
DICTIONARY
  5
D
330
C
100
AcDbDictionary
281
    1
  0
PLOTSETTINGS
  5
1C1
100
AcDbPlotSettings
  6
1x1
 40
2.82
 41
2.82
 42
2.82
 43
5.64
  0
ENDSEC
  0
EOF
