999
dxfrw 0.6.3
  0
SECTION
  2
HEADER
  9
$ACADVER
  1
AC1021
  9
$DWGCODEPAGE
  3
ANSI_1252
  9
$INSBASE
 10
0
 20
0
 30
0
  9
$EXTMIN
 10
-42.29798812666421
 20
-55.5
 30
0
  9
$EXTMAX
 10
138.8750000000538
 20
186.7623760625994
 30
0
  9
$LIMMIN
 10
0
 20
0
  9
$LIMMAX
 10
420
 20
297
  9
$ORTHOMODE
 70
    0
  9
$REGENMODE
 70
    1
  9
$FILLMODE
 70
    1
  9
$QTEXTMODE
 70
    0
  9
$MIRRTEXT
 70
    0
  9
$LTSCALE
 40
1
  9
$ATTMODE
 70
    0
  9
$TEXTSIZE
 40
2.5
  9
$TRACEWID
 40
15.68
  9
$TEXTSTYLE
  7
STANDARD
  9
$CLAYER
  8
sizes
  9
$CELTYPE
  6
BYLAYER
  9
$CECOLOR
 62
  256
  9
$CELTSCALE
 40
1
  9
$DISPSILH
 70
    0
  9
$DIMSCALE
 40
2.5
  9
$DIMASZ
 40
2.5
  9
$DIMEXO
 40
0.625
  9
$DIMDLI
 40
3.75
  9
$DIMRND
 40
0
  9
$DIMDLE
 40
0
  9
$DIMEXE
 40
1.25
  9
$DIMTP
 40
0
  9
$DIMTM
 40
0
  9
$DIMTXT
 40
1.2
  9
$DIMCEN
 40
2.5
  9
$DIMTSZ
 40
0
  9
$DIMTOL
 70
    0
  9
$DIMLIM
 70
    0
  9
$DIMTIH
 70
    0
  9
$DIMTOH
 70
    0
  9
$DIMSE1
 70
    0
  9
$DIMSE2
 70
    0
  9
$DIMTAD
 70
    1
  9
$DIMZIN
 70
    8
  9
$DIMBLK
  1

  9
$DIMASO
 70
    1
  9
$DIMSHO
 70
    1
  9
$DIMPOST
  1

  9
$DIMAPOST
  1

  9
$DIMALT
 70
    0
  9
$DIMALTD
 70
    3
  9
$DIMALTF
 40
0.03937
  9
$DIMLFAC
 40
1
  9
$DIMTOFL
 70
    1
  9
$DIMTVP
 40
0
  9
$DIMTIX
 70
    0
  9
$DIMSOXD
 70
    0
  9
$DIMSAH
 70
    0
  9
$DIMBLK1
  1

  9
$DIMBLK2
  1

  9
$DIMSTYLE
  2
STANDARD
  9
$DIMCLRD
 70
    0
  9
$DIMCLRE
 70
    0
  9
$DIMCLRT
 70
    0
  9
$DIMTFAC
 40
1
  9
$DIMGAP
 40
0.625
  9
$DIMJUST
 70
    0
  9
$DIMSD1
 70
    0
  9
$DIMSD2
 70
    0
  9
$DIMTOLJ
 70
    0
  9
$DIMTZIN
 70
    8
  9
$DIMALTZ
 70
    0
  9
$DIMALTTZ
 70
    0
  9
$DIMUPT
 70
    0
  9
$DIMDEC
 70
    2
  9
$DIMTDEC
 70
    2
  9
$DIMALTU
 70
    2
  9
$DIMALTTD
 70
    3
  9
$DIMTXSTY
  7
kst32b
  9
$DIMAUNIT
 70
    0
  9
$DIMADEC
 70
    0
  9
$DIMALTRND
 40
0
  9
$DIMAZIN
 70
    0
  9
$DIMDSEP
 70
   44
  9
$DIMATFIT
 70
    3
  9
$DIMFRAC
 70
    0
  9
$DIMLDRBLK
  1
STANDARD
  9
$DIMLUNIT
 70
    2
  9
$DIMLWD
 70
   -2
  9
$DIMLWE
 70
   -2
  9
$DIMTMOVE
 70
    0
  9
$DIMFXL
 40
1
  9
$DIMFXLON
 70
    0
  9
$DIMJOGANG
 40
0.7854
  9
$DIMTFILL
 70
    0
  9
$DIMTFILLCLR
 70
    0
  9
$DIMARCSYM
 70
    0
  9
$DIMLTYPE
  6

  9
$DIMLTEX1
  6

  9
$DIMLTEX2
  6

  9
$LUNITS
 70
    2
  9
$LUPREC
 70
    4
  9
$SKETCHINC
 40
1
  9
$FILLETRAD
 40
0
  9
$AUNITS
 70
    0
  9
$AUPREC
 70
    2
  9
$MENU
  1
.
  9
$ELEVATION
 40
0
  9
$PELEVATION
 40
0
  9
$THICKNESS
 40
0
  9
$LIMCHECK
 70
    0
  9
$CHAMFERA
 40
0
  9
$CHAMFERB
 40
0
  9
$CHAMFERC
 40
0
  9
$CHAMFERD
 40
0
  9
$SKPOLY
 70
    0
  9
$USRTIMER
 70
    1
  9
$ANGBASE
 50
0
  9
$ANGDIR
 70
    0
  9
$PDMODE
 70
   34
  9
$PDSIZE
 40
0
  9
$PLINEWID
 40
0
  9
$SPLFRAME
 70
    0
  9
$SPLINETYPE
 70
    2
  9
$SPLINESEGS
 70
    8
  9
$HANDSEED
  5
20000
  9
$SURFTAB1
 70
    6
  9
$SURFTAB2
 70
    6
  9
$SURFTYPE
 70
    6
  9
$SURFU
 70
    6
  9
$SURFV
 70
    6
  9
$UCSBASE
  2

  9
$UCSNAME
  2

  9
$UCSORG
 10
0
 20
0
 30
0
  9
$UCSXDIR
 10
1
 20
0
 30
0
  9
$UCSYDIR
 10
0
 20
1
 30
0
  9
$UCSORTHOREF
  2

  9
$UCSORTHOVIEW
 70
    0
  9
$UCSORGTOP
 10
0
 20
0
 30
0
  9
$UCSORGBOTTOM
 10
0
 20
0
 30
0
  9
$UCSORGLEFT
 10
0
 20
0
 30
0
  9
$UCSORGRIGHT
 10
0
 20
0
 30
0
  9
$UCSORGFRONT
 10
0
 20
0
 30
0
  9
$UCSORGBACK
 10
0
 20
0
 30
0
  9
$PUCSBASE
  2

  9
$PUCSNAME
  2

  9
$PUCSORG
 10
0
 20
0
 30
0
  9
$PUCSXDIR
 10
1
 20
0
 30
0
  9
$PUCSYDIR
 10
0
 20
1
 30
0
  9
$PUCSORTHOREF
  2

  9
$PUCSORTHOVIEW
 70
    0
  9
$PUCSORGTOP
 10
0
 20
0
 30
0
  9
$PUCSORGBOTTOM
 10
0
 20
0
 30
0
  9
$PUCSORGLEFT
 10
0
 20
0
 30
0
  9
$PUCSORGRIGHT
 10
0
 20
0
 30
0
  9
$PUCSORGFRONT
 10
0
 20
0
 30
0
  9
$PUCSORGBACK
 10
0
 20
0
 30
0
  9
$USERI1
 70
    0
  9
$USERI2
 70
    0
  9
$USERI3
 70
    0
  9
$USERI4
 70
    0
  9
$USERI5
 70
    0
  9
$USERR1
 40
0
  9
$USERR2
 40
0
  9
$USERR3
 40
0
  9
$USERR4
 40
0
  9
$USERR5
 40
0
  9
$WORLDVIEW
 70
    1
  9
$SHADEDGE
 70
    3
  9
$SHADEDIF
 70
   70
  9
$TILEMODE
 70
    1
  9
$MAXACTVP
 70
   64
  9
$PINSBASE
 10
127.9376932370938
 20
52.00099696331611
 30
0
  9
$PLIMCHECK
 70
    0
  9
$PEXTMIN
 10
0
 20
0
 30
0
  9
$PEXTMAX
 10
0
 20
0
 30
0
  9
$GRIDMODE
 70
    1
  9
$SNAPSTYLE
 70
    0
  9
$GRIDUNIT
 10
0
 20
0
  9
$PLIMMIN
 10
0
 20
0
  9
$PLIMMAX
 10
297
 20
210
  9
$UNITMODE
 70
    0
  9
$VISRETAIN
 70
    1
  9
$PLINEGEN
 70
    0
  9
$PSLTSCALE
 70
    1
  9
$TREEDEPTH
 70
 3020
  9
$CMLSTYLE
  2
Standard
  9
$CMLJUST
 70
    0
  9
$CMLSCALE
 40
20
  9
$PROXYGRAPHICS
 70
    1
  9
$MEASUREMENT
 70
    1
  9
$CELWEIGHT
370
   -1
  9
$ENDCAPS
280
    0
  9
$JOINSTYLE
280
    0
  9
$LWDISPLAY
290
    0
  9
$INSUNITS
 70
    4
  9
$HYPERLINKBASE
  1

  9
$STYLESHEET
  1

  9
$XEDIT
290
    1
  9
$CEPSNTYPE
380
    0
  9
$PSTYLEMODE
290
    1
  9
$EXTNAMES
290
    1
  9
$PSVPSCALE
 40
0.8333333333333334
  9
$OLESTARTUP
290
    0
  9
$SORTENTS
280
  127
  9
$INDEXCTL
280
    0
  9
$HIDETEXT
280
    1
  9
$XCLIPFRAME
290
    0
  9
$HALOGAP
280
    0
  9
$OBSCOLOR
 70
  257
  9
$OBSLTYPE
280
    0
  9
$INTERSECTIONDISPLAY
280
    0
  9
$INTERSECTIONCOLOR
 70
  257
  9
$DIMASSOC
280
    1
  9
$PROJECTNAME
  1

  9
$CAMERADISPLAY
290
    0
  9
$LENSLENGTH
 40
50
  9
$CAMERAHEIGHT
 40
0
  9
$STEPSPERSEC
 40
2
  9
$STEPSIZE
 40
50
  9
$3DDWFPREC
 40
2
  9
$PSOLWIDTH
 40
5
  9
$PSOLHEIGHT
 40
80
  9
$LOFTANG1
 40
1.570796326794897
  9
$LOFTANG2
 40
1.570796326794897
  9
$LOFTMAG1
 40
0
  9
$LOFTMAG2
 40
0
  9
$LOFTPARAM
 70
    7
  9
$LOFTNORMALS
280
    1
  9
$LATITUDE
 40
1
  9
$LONGITUDE
 40
1
  9
$NORTHDIRECTION
 40
0
  9
$TIMEZONE
 70
-8000
  9
$LIGHTGLYPHDISPLAY
280
    1
  9
$TILEMODELIGHTSYNCH
280
    1
  9
$SOLIDHIST
280
    1
  9
$SHOWHIST
280
    1
  9
$DWFFRAME
280
    2
  9
$DGNFRAME
280
    0
  9
$REALWORLDSCALE
290
    1
  9
$INTERFERECOLOR
 62
    1
  9
$CSHADOW
280
    0
  9
$SHADOWPLANELOCATION
 40
0
  0
ENDSEC
  0
SECTION
  2
CLASSES
  0
ENDSEC
  0
SECTION
  2
TABLES
  0
TABLE
  2
VPORT
  5
8
330
0
100
AcDbSymbolTable
 70
    1
  0
VPORT
  5
31
330
2
100
AcDbSymbolTableRecord
100
AcDbViewportTableRecord
  2
*ACTIVE
 70
    0
 10
0
 20
0
 11
1
 21
1
 12
125.879507475864
 22
46.17414248022961
 13
0
 23
0
 14
10
 24
10
 15
10
 25
10
 16
0
 26
0
 36
1
 17
0
 27
0
 37
0
 40
178.7598944591746
 41
1.797047970479705
 42
50
 43
0
 44
0
 50
0
 51
0
 71
    0
 72
  100
 73
    1
 74
    3
 75
    0
 76
    1
 77
    0
 78
    0
281
    0
 65
    1
110
0
120
0
130
0
111
1
121
0
131
0
112
0
122
1
132
0
 79
    0
146
0
348
10020
 60
    7
 61
    5
292
1
282
    1
141
0
142
0
 63
  250
421
3358443
  0
ENDTAB
  0
TABLE
  2
LTYPE
  5
5
330
0
100
AcDbSymbolTable
 70
    4
  0
LTYPE
  5
14
330
5
100
AcDbSymbolTableRecord
100
AcDbLinetypeTableRecord
  2
ByBlock
 70
    0
  3

 72
   65
 73
    0
 40
0
  0
LTYPE
  5
15
330
5
100
AcDbSymbolTableRecord
100
AcDbLinetypeTableRecord
  2
ByLayer
 70
    0
  3

 72
   65
 73
    0
 40
0
  0
LTYPE
  5
16
330
5
100
AcDbSymbolTableRecord
100
AcDbLinetypeTableRecord
  2
Continuous
 70
    0
  3
Solid line
 72
   65
 73
    0
 40
0
  0
LTYPE
  5
32
330
5
100
AcDbSymbolTableRecord
100
AcDbLinetypeTableRecord
  2
DOT
 70
    0
  3
Dot . . . . . . . . . . . . . . . . . . . . . .
 72
   65
 73
    2
 40
6.35
 49
0
 74
    0
 49
-6.35
 74
    0
  0
LTYPE
  5
33
330
5
100
AcDbSymbolTableRecord
100
AcDbLinetypeTableRecord
  2
DOTTINY
 70
    0
  3
Dot (.15x) .....................................
 72
   65
 73
    2
 40
0.9525
 49
0
 74
    0
 49
-0.9525
 74
    0
  0
LTYPE
  5
34
330
5
100
AcDbSymbolTableRecord
100
AcDbLinetypeTableRecord
  2
DOT2
 70
    0
  3
Dot (.5x) .....................................
 72
   65
 73
    2
 40
3.175
 49
0
 74
    0
 49
-3.175
 74
    0
  0
LTYPE
  5
35
330
5
100
AcDbSymbolTableRecord
100
AcDbLinetypeTableRecord
  2
DOTX2
 70
    0
  3
Dot (2x) .  .  .  .  .  .  .  .  .  .  .  .  .
 72
   65
 73
    2
 40
12.7
 49
0
 74
    0
 49
-12.7
 74
    0
  0
LTYPE
  5
36
330
5
100
AcDbSymbolTableRecord
100
AcDbLinetypeTableRecord
  2
DASHED
 70
    0
  3
Dashed _ _ _ _ _ _ _ _ _ _ _ _ _ _ _ _ _
 72
   65
 73
    2
 40
19.05
 49
12.7
 74
    0
 49
-6.35
 74
    0
  0
LTYPE
  5
37
330
5
100
AcDbSymbolTableRecord
100
AcDbLinetypeTableRecord
  2
DASHEDTINY
 70
    0
  3
Dashed (.15x) _ _ _ _ _ _ _ _ _ _ _ _ _ _ _ _ _
 72
   65
 73
    2
 40
2.8575
 49
1.905
 74
    0
 49
-0.9525
 74
    0
  0
LTYPE
  5
38
330
5
100
AcDbSymbolTableRecord
100
AcDbLinetypeTableRecord
  2
DASHED2
 70
    0
  3
Dashed (.5x) _ _ _ _ _ _ _ _ _ _ _ _ _ _ _ _ _
 72
   65
 73
    2
 40
9.524999999999999
 49
6.35
 74
    0
 49
-3.175
 74
    0
  0
LTYPE
  5
39
330
5
100
AcDbSymbolTableRecord
100
AcDbLinetypeTableRecord
  2
DASHEDX2
 70
    0
  3
Dashed (2x) ____  ____  ____  ____  ____  ___
 72
   65
 73
    2
 40
38.09999999999999
 49
25.4
 74
    0
 49
-12.7
 74
    0
  0
LTYPE
  5
3A
330
5
100
AcDbSymbolTableRecord
100
AcDbLinetypeTableRecord
  2
DASHDOT
 70
    0
  3
Dash dot __ . __ . __ . __ . __ . __ . __ . __
 72
   65
 73
    4
 40
25.4
 49
12.7
 74
    0
 49
-6.35
 74
    0
 49
0
 74
    0
 49
-6.35
 74
    0
  0
LTYPE
  5
3B
330
5
100
AcDbSymbolTableRecord
100
AcDbLinetypeTableRecord
  2
DASHDOTTINY
 70
    0
  3
Dash dot (.15x) _._._._._._._._._._._._._._._.
 72
   65
 73
    4
 40
3.81
 49
1.905
 74
    0
 49
-0.9525
 74
    0
 49
0
 74
    0
 49
-0.9525
 74
    0
  0
LTYPE
  5
3C
330
5
100
AcDbSymbolTableRecord
100
AcDbLinetypeTableRecord
  2
DASHDOT2
 70
    0
  3
Dash dot (.5x) _._._._._._._._._._._._._._._.
 72
   65
 73
    4
 40
12.7
 49
6.35
 74
    0
 49
-3.175
 74
    0
 49
0
 74
    0
 49
-3.175
 74
    0
  0
LTYPE
  5
3D
330
5
100
AcDbSymbolTableRecord
100
AcDbLinetypeTableRecord
  2
DASHDOTX2
 70
    0
  3
Dash dot (2x) ____  .  ____  .  ____  .  ___
 72
   65
 73
    4
 40
50.8
 49
25.4
 74
    0
 49
-12.7
 74
    0
 49
0
 74
    0
 49
-12.7
 74
    0
  0
LTYPE
  5
3E
330
5
100
AcDbSymbolTableRecord
100
AcDbLinetypeTableRecord
  2
DIVIDE
 70
    0
  3
Divide ____ . . ____ . . ____ . . ____ . . ____
 72
   65
 73
    6
 40
31.75
 49
12.7
 74
    0
 49
-6.35
 74
    0
 49
0
 74
    0
 49
-6.35
 74
    0
 49
0
 74
    0
 49
-6.35
 74
    0
  0
LTYPE
  5
3F
330
5
100
AcDbSymbolTableRecord
100
AcDbLinetypeTableRecord
  2
DIVIDETINY
 70
    0
  3
Divide (.15x) __..__..__..__..__..__..__..__.._
 72
   65
 73
    6
 40
4.7625
 49
1.905
 74
    0
 49
-0.9525
 74
    0
 49
0
 74
    0
 49
-0.9525
 74
    0
 49
0
 74
    0
 49
-0.9525
 74
    0
  0
LTYPE
  5
40
330
5
100
AcDbSymbolTableRecord
100
AcDbLinetypeTableRecord
  2
DIVIDE2
 70
    0
  3
Divide (.5x) __..__..__..__..__..__..__..__.._
 72
   65
 73
    6
 40
15.875
 49
6.35
 74
    0
 49
-3.175
 74
    0
 49
0
 74
    0
 49
-3.175
 74
    0
 49
0
 74
    0
 49
-3.175
 74
    0
  0
LTYPE
  5
41
330
5
100
AcDbSymbolTableRecord
100
AcDbLinetypeTableRecord
  2
DIVIDEX2
 70
    0
  3
Divide (2x) ________  .  .  ________  .  .  _
 72
   65
 73
    6
 40
63.5
 49
25.4
 74
    0
 49
-12.7
 74
    0
 49
0
 74
    0
 49
-12.7
 74
    0
 49
0
 74
    0
 49
-12.7
 74
    0
  0
LTYPE
  5
42
330
5
100
AcDbSymbolTableRecord
100
AcDbLinetypeTableRecord
  2
BORDER
 70
    0
  3
Border __ __ . __ __ . __ __ . __ __ . __ __ .
 72
   65
 73
    6
 40
44.45
 49
12.7
 74
    0
 49
-6.35
 74
    0
 49
12.7
 74
    0
 49
-6.35
 74
    0
 49
0
 74
    0
 49
-6.35
 74
    0
  0
LTYPE
  5
43
330
5
100
AcDbSymbolTableRecord
100
AcDbLinetypeTableRecord
  2
BORDERTINY
 70
    0
  3
Border (.15x) __.__.__.__.__.__.__.__.__.__.__.
 72
   65
 73
    6
 40
6.6675
 49
1.905
 74
    0
 49
-0.9525
 74
    0
 49
1.905
 74
    0
 49
-0.9525
 74
    0
 49
0
 74
    0
 49
-0.9525
 74
    0
  0
LTYPE
  5
44
330
5
100
AcDbSymbolTableRecord
100
AcDbLinetypeTableRecord
  2
BORDER2
 70
    0
  3
Border (.5x) __.__.__.__.__.__.__.__.__.__.__.
 72
   65
 73
    6
 40
22.225
 49
6.35
 74
    0
 49
-3.175
 74
    0
 49
6.35
 74
    0
 49
-3.175
 74
    0
 49
0
 74
    0
 49
-3.175
 74
    0
  0
LTYPE
  5
45
330
5
100
AcDbSymbolTableRecord
100
AcDbLinetypeTableRecord
  2
BORDERX2
 70
    0
  3
Border (2x) ____  ____  .  ____  ____  .  ___
 72
   65
 73
    6
 40
88.89999999999999
 49
25.4
 74
    0
 49
-12.7
 74
    0
 49
25.4
 74
    0
 49
-12.7
 74
    0
 49
0
 74
    0
 49
-12.7
 74
    0
  0
LTYPE
  5
46
330
5
100
AcDbSymbolTableRecord
100
AcDbLinetypeTableRecord
  2
CENTER
 70
    0
  3
Center ____ _ ____ _ ____ _ ____ _ ____ _ ____
 72
   65
 73
    4
 40
50.8
 49
31.75
 74
    0
 49
-6.35
 74
    0
 49
6.35
 74
    0
 49
-6.35
 74
    0
  0
LTYPE
  5
47
330
5
100
AcDbSymbolTableRecord
100
AcDbLinetypeTableRecord
  2
CENTERTINY
 70
    0
  3
Center (.15x) ___ _ ___ _ ___ _ ___ _ ___ _ ___
 72
   65
 73
    4
 40
7.619999999999999
 49
4.7625
 74
    0
 49
-0.9525
 74
    0
 49
0.9525
 74
    0
 49
-0.9525
 74
    0
  0
LTYPE
  5
48
330
5
100
AcDbSymbolTableRecord
100
AcDbLinetypeTableRecord
  2
CENTER2
 70
    0
  3
Center (.5x) ___ _ ___ _ ___ _ ___ _ ___ _ ___
 72
   65
 73
    4
 40
28.575
 49
19.05
 74
    0
 49
-3.175
 74
    0
 49
3.175
 74
    0
 49
-3.175
 74
    0
  0
LTYPE
  5
49
330
5
100
AcDbSymbolTableRecord
100
AcDbLinetypeTableRecord
  2
CENTERX2
 70
    0
  3
Center (2x) ________  __  ________  __  _____
 72
   65
 73
    4
 40
101.6
 49
63.5
 74
    0
 49
-12.7
 74
    0
 49
12.7
 74
    0
 49
-12.7
 74
    0
  0
ENDTAB
  0
TABLE
  2
LAYER
  5
2
330
0
100
AcDbSymbolTable
 70
    1
  0
LAYER
  5
10
330
2
100
AcDbSymbolTableRecord
100
AcDbLayerTableRecord
  2
0
 70
    0
 62
    7
  6
CONTINUOUS
370
   35
390
F
  0
LAYER
  5
4A
330
2
100
AcDbSymbolTableRecord
100
AcDbLayerTableRecord
  2
InternalComps
 70
    0
 62
  136
420
32896
  6
DASHEDTINY
370
    0
390
F
  0
LAYER
  5
4B
330
2
100
AcDbSymbolTableRecord
100
AcDbLayerTableRecord
  2
bend_meta
 70
    0
 62
    2
  6
DASHED2
370
   13
390
F
  0
LAYER
  5
4C
330
2
100
AcDbSymbolTableRecord
100
AcDbLayerTableRecord
  2
builder
 70
    0
 62
    9
  6
DASHEDTINY
370
   -3
390
F
  0
LAYER
  5
4D
330
2
100
AcDbSymbolTableRecord
100
AcDbLayerTableRecord
  2
sizes
 70
    0
 62
    6
  6
CONTINUOUS
370
   25
390
F
  0
ENDTAB
  0
TABLE
  2
STYLE
  5
3
330
0
100
AcDbSymbolTable
 70
    3
  0
STYLE
  5
4E
330
2
100
AcDbSymbolTableRecord
100
AcDbTextStyleTableRecord
  2
Standard
 70
    0
 40
0
 41
1
 50
0
 71
    0
 42
1
  3
txt
  4

  0
ENDTAB
  0
TABLE
  2
VIEW
  5
6
330
0
100
AcDbSymbolTable
 70
    0
  0
ENDTAB
  0
TABLE
  2
UCS
  5
7
330
0
100
AcDbSymbolTable
 70
    0
  0
ENDTAB
  0
TABLE
  2
APPID
  5
9
330
0
100
AcDbSymbolTable
 70
    1
  0
APPID
  5
12
330
9
100
AcDbSymbolTableRecord
100
AcDbRegAppTableRecord
  2
ACAD
 70
    0
  0
APPID
  5
4F
330
9
100
AcDbSymbolTableRecord
100
AcDbRegAppTableRecord
  2
LibreCad
 70
    0
  0
ENDTAB
  0
TABLE
  2
DIMSTYLE
  5
A
330
0
100
AcDbSymbolTable
 70
    1
100
AcDbDimStyleTable
 71
    1
  0
DIMSTYLE
105
50
330
A
100
AcDbSymbolTableRecord
100
AcDbDimStyleTableRecord
  2
Standard
 70
    0
 40
2.5
 41
2.5
 42
0.625
 43
0.38
 44
1.25
 45
0
 46
0
 47
0
 48
0
 49
1
140
1.2
141
0.09
142
0
143
25.4
144
1
145
0
146
1
147
0.625
148
0
 71
    0
 72
    0
 73
    0
 74
    1
 75
    0
 76
    0
 77
    0
 78
    8
 79
    0
170
    0
171
    2
172
    0
173
    0
174
    0
175
    0
176
    0
177
    0
178
    0
179
    0
271
    2
272
    4
273
    2
274
    2
275
    0
276
    0
277
    2
278
   44
279
    0
280
    0
281
    0
282
    0
283
    1
284
    0
285
    0
286
    0
288
    0
289
    3
  0
ENDTAB
  0
TABLE
  2
BLOCK_RECORD
  5
1
330
0
100
AcDbSymbolTable
 70
    2
  0
BLOCK_RECORD
  5
1F
330
1
100
AcDbSymbolTableRecord
100
AcDbBlockTableRecord
  2
*Model_Space
 70
    0
280
    1
281
    0
  0
BLOCK_RECORD
  5
1E
330
1
100
AcDbSymbolTableRecord
100
AcDbBlockTableRecord
  2
*Paper_Space
 70
    0
280
    1
281
    0
  0
BLOCK_RECORD
  5
51
330
1
100
AcDbSymbolTableRecord
100
AcDbBlockTableRecord
  2
*D5
 70
    0
280
    1
281
    0
  0
BLOCK_RECORD
  5
54
330
1
100
AcDbSymbolTableRecord
100
AcDbBlockTableRecord
  2
*D13
 70
    0
280
    1
281
    0
  0
BLOCK_RECORD
  5
57
330
1
100
AcDbSymbolTableRecord
100
AcDbBlockTableRecord
  2
*D2
 70
    0
280
    1
281
    0
  0
BLOCK_RECORD
  5
5A
330
1
100
AcDbSymbolTableRecord
100
AcDbBlockTableRecord
  2
*D6
 70
    0
280
    1
281
    0
  0
BLOCK_RECORD
  5
5D
330
1
100
AcDbSymbolTableRecord
100
AcDbBlockTableRecord
  2
*D10
 70
    0
280
    1
281
    0
  0
BLOCK_RECORD
  5
60
330
1
100
AcDbSymbolTableRecord
100
AcDbBlockTableRecord
  2
*D11
 70
    0
280
    1
281
    0
  0
BLOCK_RECORD
  5
63
330
1
100
AcDbSymbolTableRecord
100
AcDbBlockTableRecord
  2
*D14
 70
    0
280
    1
281
    0
  0
BLOCK_RECORD
  5
66
330
1
100
AcDbSymbolTableRecord
100
AcDbBlockTableRecord
  2
*D3
 70
    0
280
    1
281
    0
  0
BLOCK_RECORD
  5
69
330
1
100
AcDbSymbolTableRecord
100
AcDbBlockTableRecord
  2
*D16
 70
    0
280
    1
281
    0
  0
BLOCK_RECORD
  5
6C
330
1
100
AcDbSymbolTableRecord
100
AcDbBlockTableRecord
  2
*D17
 70
    0
280
    1
281
    0
  0
BLOCK_RECORD
  5
6F
330
1
100
AcDbSymbolTableRecord
100
AcDbBlockTableRecord
  2
*D15
 70
    0
280
    1
281
    0
  0
BLOCK_RECORD
  5
72
330
1
100
AcDbSymbolTableRecord
100
AcDbBlockTableRecord
  2
*D8
 70
    0
280
    1
281
    0
  0
BLOCK_RECORD
  5
75
330
1
100
AcDbSymbolTableRecord
100
AcDbBlockTableRecord
  2
*D9
 70
    0
280
    1
281
    0
  0
BLOCK_RECORD
  5
78
330
1
100
AcDbSymbolTableRecord
100
AcDbBlockTableRecord
  2
*D1
 70
    0
280
    1
281
    0
  0
BLOCK_RECORD
  5
7B
330
1
100
AcDbSymbolTableRecord
100
AcDbBlockTableRecord
  2
*D4
 70
    0
280
    1
281
    0
  0
BLOCK_RECORD
  5
7E
330
1
100
AcDbSymbolTableRecord
100
AcDbBlockTableRecord
  2
*D12
 70
    0
280
    1
281
    0
  0
BLOCK_RECORD
  5
81
330
1
100
AcDbSymbolTableRecord
100
AcDbBlockTableRecord
  2
*D7
 70
    0
280
    1
281
    0
  0
ENDTAB
  0
ENDSEC
  0
SECTION
  2
BLOCKS
  0
BLOCK
  5
20
330
1F
100
AcDbEntity
  8
0
100
AcDbBlockBegin
  2
*Model_Space
 70
    0
 10
0
 20
0
 30
0
  3
*Model_Space
  1

  0
ENDBLK
  5
21
330
1F
100
AcDbEntity
  8
0
100
AcDbBlockEnd
  0
BLOCK
  5
1C
330
1B
100
AcDbEntity
  8
0
100
AcDbBlockBegin
  2
*Paper_Space
 70
    0
 10
0
 20
0
 30
0
  3
*Paper_Space
  1

  0
ENDBLK
  5
1D
330
1F
100
AcDbEntity
  8
0
100
AcDbBlockEnd
  0
BLOCK
  5
52
330
51
100
AcDbEntity
  8
0
100
AcDbBlockBegin
  2
*D5
 70
    1
 10
0
 20
0
  3
*D5
  1

  0
LINE
  5
84
100
AcDbEntity
  8
sizes
  6
ByBlock
 62
    0
370
   -2
100
AcDbLine
 10
-12.49999999999997
 20
83.18088134582504
 11
22.50000000000003
 21
83.18088134582504
  0
MTEXT
  5
85
100
AcDbEntity
  8
sizes
  6
CONTINUOUS
 62
    0
370
   -2
100
AcDbMText
 10
5.00000000000003
 20
86.24338134582504
 30
0
 40
3
 41
2.873333333333333
 71
    5
 72
    1
  1
10
  7
kst32b
210
0
220
0
230
1
 50
0
 73
    2
 44
1
  0
SOLID
  5
86
100
AcDbEntity
  8
sizes
  6
ByBlock
 62
    0
370
   -2
100
AcDbTrace
 10
3.375077994860476e-14
 20
83.18088134582504
 30
0
 11
-6.249999999999966
 21
82.14016970139294
 31
0
 12
-6.249999999999966
 22
84.22159299025715
 32
0
 13
-6.249999999999966
 23
84.22159299025715
 33
0
  0
SOLID
  5
87
100
AcDbEntity
  8
sizes
  6
ByBlock
 62
    0
370
   -2
100
AcDbTrace
 10
10.00000000000003
 20
83.18088134582504
 30
0
 11
16.25000000000003
 21
84.22159299025714
 31
0
 12
16.25000000000003
 22
82.14016970139294
 32
0
 13
16.25000000000003
 23
82.14016970139294
 33
0
  0
LINE
  5
88
100
AcDbEntity
  8
sizes
  6
ByBlock
 62
    0
370
   -2
100
AcDbLine
 10
3.384645547978815e-14
 20
21.5625
 11
3.394213101097153e-14
 21
86.30588134582504
  0
LINE
  5
89
100
AcDbEntity
  8
sizes
  6
ByBlock
 62
    0
370
   -2
100
AcDbLine
 10
10.00000000000003
 20
21.56249999999999
 11
10.00000000000003
 21
86.30588134582504
  0
ENDBLK
  5
53
330
51
100
AcDbEntity
  8
0
100
AcDbBlockEnd
  0
BLOCK
  5
55
330
54
100
AcDbEntity
  8
0
100
AcDbBlockBegin
  2
*D13
 70
    1
 10
0
 20
0
  3
*D13
  1

  0
LINE
  5
8A
100
AcDbEntity
  8
sizes
  6
ByBlock
 62
    0
370
   -2
100
AcDbLine
 10
76
 20
83.05165402497079
 11
108.0999999999995
 21
83.05165402497079
  0
MTEXT
  5
8B
100
AcDbEntity
  8
sizes
  6
CONTINUOUS
 62
    0
370
   -2
100
AcDbMText
 10
92.04999999999976
 20
86.11415402497079
 30
0
 40
3
 41
7.376666666666665
 71
    5
 72
    1
  1
32,1
  7
kst32b
210
0
220
0
230
1
 50
0
 73
    2
 44
1
  0
SOLID
  5
8C
100
AcDbEntity
  8
sizes
  6
ByBlock
 62
    0
370
   -2
100
AcDbTrace
 10
76
 20
83.05165402497079
 30
0
 11
82.25
 21
84.09236566940288
 31
0
 12
82.25
 22
82.01094238053868
 32
0
 13
82.25
 23
82.01094238053868
 33
0
  0
SOLID
  5
8D
100
AcDbEntity
  8
sizes
  6
ByBlock
 62
    0
370
   -2
100
AcDbTrace
 10
108.0999999999995
 20
83.05165402497079
 30
0
 11
101.8499999999995
 21
82.01094238053868
 31
0
 12
101.8499999999995
 22
84.09236566940289
 32
0
 13
101.8499999999995
 23
84.09236566940289
 33
0
  0
LINE
  5
8E
100
AcDbEntity
  8
sizes
  6
ByBlock
 62
    0
370
   -2
100
AcDbLine
 10
76
 20
73.66250000000008
 11
76
 21
86.17665402497079
  0
LINE
  5
8F
100
AcDbEntity
  8
sizes
  6
ByBlock
 62
    0
370
   -2
100
AcDbLine
 10
108.0999999999995
 20
41.56250000000004
 11
108.0999999999995
 21
86.17665402497079
  0
ENDBLK
  5
56
330
54
100
AcDbEntity
  8
0
100
AcDbBlockEnd
  0
BLOCK
  5
58
330
57
100
AcDbEntity
  8
0
100
AcDbBlockBegin
  2
*D2
 70
    1
 10
0
 20
0
  3
*D2
  1

  0
LINE
  5
90
100
AcDbEntity
  8
sizes
  6
ByBlock
 62
    0
370
   -2
100
AcDbLine
 10
126.0308376009339
 20
20.00000000000008
 11
126.0308376009339
 21
0
  0
MTEXT
  5
91
100
AcDbEntity
  8
sizes
  6
CONTINUOUS
 62
    0
370
   -2
100
AcDbMText
 10
122.9683376009339
 20
10.00000000000004
 30
0
 40
3
 41
3.813333333333333
 71
    5
 72
    1
  1
20
  7
kst32b
210
0
220
0
230
1
 50
90
 73
    2
 44
1
  0
SOLID
  5
92
100
AcDbEntity
  8
sizes
  6
ByBlock
 62
    0
370
   -2
100
AcDbTrace
 10
126.0308376009339
 20
20.00000000000008
 30
0
 11
127.071549245366
 21
13.75000000000008
 31
0
 12
124.9901259565018
 22
13.75000000000008
 32
0
 13
124.9901259565018
 23
13.75000000000008
 33
0
  0
SOLID
  5
93
100
AcDbEntity
  8
sizes
  6
ByBlock
 62
    0
370
   -2
100
AcDbTrace
 10
126.0308376009339
 20
0
 30
0
 11
124.9901259565018
 21
6.25
 31
0
 12
127.071549245366
 22
6.25
 32
0
 13
127.071549245366
 23
6.25
 33
0
  0
LINE
  5
94
100
AcDbEntity
  8
sizes
  6
ByBlock
 62
    0
370
   -2
100
AcDbLine
 10
68.56249999999994
 20
20.00000000000008
 11
129.1558376009339
 21
20.00000000000008
  0
LINE
  5
95
100
AcDbEntity
  8
sizes
  6
ByBlock
 62
    0
370
   -2
100
AcDbLine
 10
78.62316017177736
 20
0
 11
129.1558376009339
 21
0
  0
ENDBLK
  5
59
330
57
100
AcDbEntity
  8
0
100
AcDbBlockEnd
  0
BLOCK
  5
5B
330
5A
100
AcDbEntity
  8
0
100
AcDbBlockBegin
  2
*D6
 70
    1
 10
0
 20
0
  3
*D6
  1

  0
LINE
  5
96
100
AcDbEntity
  8
sizes
  6
ByBlock
 62
    0
370
   -2
100
AcDbLine
 10
76
 20
-50.25000000001951
 11
5.000001743254771
 21
-50.25000000001951
  0
MTEXT
  5
97
100
AcDbEntity
  8
sizes
  6
CONTINUOUS
 62
    0
370
   -2
100
AcDbMText
 10
40.50000087162739
 20
-47.18750000001951
 30
0
 40
3
 41
3.606666666666666
 71
    5
 72
    1
  1
71
  7
kst32b
210
0
220
0
230
1
 50
0
 73
    2
 44
1
  0
SOLID
  5
98
100
AcDbEntity
  8
sizes
  6
ByBlock
 62
    0
370
   -2
100
AcDbTrace
 10
76
 20
-50.25000000001951
 30
0
 11
69.75
 21
-51.29071164445161
 31
0
 12
69.75
 22
-49.20928835558741
 32
0
 13
69.75
 23
-49.20928835558741
 33
0
  0
SOLID
  5
99
100
AcDbEntity
  8
sizes
  6
ByBlock
 62
    0
370
   -2
100
AcDbTrace
 10
5.000001743254771
 20
-50.25000000001951
 30
0
 11
11.25000174325477
 21
-49.20928835558741
 31
0
 12
11.25000174325477
 22
-51.29071164445161
 32
0
 13
11.25000174325477
 23
-51.29071164445161
 33
0
  0
LINE
  5
9A
100
AcDbEntity
  8
sizes
  6
ByBlock
 62
    0
370
   -2
100
AcDbLine
 10
76
 20
-33.66249999999934
 11
76
 21
-53.37500000001951
  0
LINE
  5
9B
100
AcDbEntity
  8
sizes
  6
ByBlock
 62
    0
370
   -2
100
AcDbLine
 10
5.000001743254771
 20
-33.6624999999993
 11
5.00000174325477
 21
-53.37500000001951
  0
ENDBLK
  5
5C
330
5A
100
AcDbEntity
  8
0
100
AcDbBlockEnd
  0
BLOCK
  5
5E
330
5D
100
AcDbEntity
  8
0
100
AcDbBlockBegin
  2
*D10
 70
    1
 10
0
 20
0
  3
*D10
  1

  0
LINE
  5
9C
100
AcDbEntity
  8
sizes
  6
ByBlock
 62
    0
370
   -2
100
AcDbLine
 10
9.525909698653427
 20
1.168921603441484
 11
35.91409030134571
 21
13.67107839655902
  0
MTEXT
  5
9D
100
AcDbEntity
  8
sizes
  6
CONTINUOUS
 62
    0
370
   -2
100
AcDbMText
 10
27.12997665022635
 20
12.89818061849934
 30
0
 40
3
 41
5.336666666666666
 71
    5
 72
    1
  1
4,2
  7
kst32b
210
0
220
0
230
1
 50
25.35059553274565
 73
    2
 44
1
  0
SOLID
  5
9E
100
AcDbEntity
  8
sizes
  6
ByBlock
 62
    0
370
   -2
100
AcDbTrace
 10
20.82221988816211
 20
6.520872285426729
 30
0
 11
15.61965178502124
 21
2.904400820167012
 31
0
 12
14.7284778017943
 22
4.7853930687012
 32
0
 13
14.7284778017943
 23
4.7853930687012
 33
0
  0
SOLID
  5
9F
100
AcDbEntity
  8
sizes
  6
ByBlock
 62
    0
370
   -2
100
AcDbTrace
 10
24.61778011183703
 20
8.319127714573773
 30
0
 11
29.8203482149779
 21
11.93559917983349
 31
0
 12
30.71152219820484
 22
10.0546069312993
 32
0
 13
30.71152219820484
 23
10.0546069312993
 33
0
  0
ENDBLK
  5
5F
330
5D
100
AcDbEntity
  8
0
100
AcDbBlockEnd
  0
BLOCK
  5
61
330
60
100
AcDbEntity
  8
0
100
AcDbBlockBegin
  2
*D11
 70
    1
 10
0
 20
0
  3
*D11
  1

  0
LINE
  5
A0
100
AcDbEntity
  8
sizes
  6
ByBlock
 62
    0
370
   -2
100
AcDbLine
 10
96.96280556915642
 20
159.2116388998659
 11
96.96280556915642
 21
115.0116388998676
  0
MTEXT
  5
A1
100
AcDbEntity
  8
sizes
  6
CONTINUOUS
 62
    0
370
   -2
100
AcDbMText
 10
93.90030556915642
 20
137.1116388998668
 30
0
 40
3
 41
7.796666666666666
 71
    5
 72
    1
  1
44,2
  7
kst32b
210
0
220
0
230
1
 50
90
 73
    2
 44
1
  0
SOLID
  5
A2
100
AcDbEntity
  8
sizes
  6
ByBlock
 62
    0
370
   -2
100
AcDbTrace
 10
96.96280556915642
 20
159.2116388998659
 30
0
 11
98.00351721358852
 21
152.9616388998659
 31
0
 12
95.92209392472431
 22
152.9616388998659
 32
0
 13
95.92209392472431
 23
152.9616388998659
 33
0
  0
SOLID
  5
A3
100
AcDbEntity
  8
sizes
  6
ByBlock
 62
    0
370
   -2
100
AcDbTrace
 10
96.96280556915642
 20
115.0116388998676
 30
0
 11
95.92209392472432
 21
121.2616388998676
 31
0
 12
98.00351721358852
 22
121.2616388998676
 32
0
 13
98.00351721358852
 23
121.2616388998676
 33
0
  0
LINE
  5
A4
100
AcDbEntity
  8
sizes
  6
ByBlock
 62
    0
370
   -2
100
AcDbLine
 10
77.56249999999991
 20
159.2116388998659
 11
100.0878055691564
 21
159.2116388998659
  0
LINE
  5
A5
100
AcDbEntity
  8
sizes
  6
ByBlock
 62
    0
370
   -2
100
AcDbLine
 10
77.5625
 20
115.0116388998676
 11
100.0878055691564
 21
115.0116388998676
  0
ENDBLK
  5
62
330
60
100
AcDbEntity
  8
0
100
AcDbBlockEnd
  0
BLOCK
  5
64
330
63
100
AcDbEntity
  8
0
100
AcDbBlockBegin
  2
*D14
 70
    1
 10
0
 20
0
  3
*D14
  1

  0
LINE
  5
A6
100
AcDbEntity
  8
sizes
  6
ByBlock
 62
    0
370
   -2
100
AcDbLine
 10
135.7500000000538
 20
40.00000000000005
 11
135.7500000000538
 21
72.10000000000008
  0
MTEXT
  5
A7
100
AcDbEntity
  8
sizes
  6
CONTINUOUS
 62
    0
370
   -2
100
AcDbMText
 10
132.6875000000538
 20
56.05000000000007
 30
0
 40
3
 41
7.376666666666665
 71
    5
 72
    1
  1
32,1
  7
kst32b
210
0
220
0
230
1
 50
90
 73
    2
 44
1
  0
SOLID
  5
A8
100
AcDbEntity
  8
sizes
  6
ByBlock
 62
    0
370
   -2
100
AcDbTrace
 10
135.7500000000538
 20
40.00000000000005
 30
0
 11
134.7092883556217
 21
46.25000000000005
 31
0
 12
136.7907116444859
 22
46.25000000000005
 32
0
 13
136.7907116444859
 23
46.25000000000005
 33
0
  0
SOLID
  5
A9
100
AcDbEntity
  8
sizes
  6
ByBlock
 62
    0
370
   -2
100
AcDbTrace
 10
135.7500000000538
 20
72.10000000000008
 30
0
 11
136.7907116444859
 21
65.85000000000008
 31
0
 12
134.7092883556217
 22
65.85000000000008
 32
0
 13
134.7092883556217
 23
65.85000000000008
 33
0
  0
LINE
  5
AA
100
AcDbEntity
  8
sizes
  6
ByBlock
 62
    0
370
   -2
100
AcDbLine
 10
109.6624999999995
 20
40.00000000000004
 11
138.8750000000538
 21
40.00000000000005
  0
LINE
  5
AB
100
AcDbEntity
  8
sizes
  6
ByBlock
 62
    0
370
   -2
100
AcDbLine
 10
77.5625
 20
72.10000000000008
 11
138.8750000000538
 21
72.10000000000008
  0
ENDBLK
  5
65
330
63
100
AcDbEntity
  8
0
100
AcDbBlockEnd
  0
BLOCK
  5
67
330
66
100
AcDbEntity
  8
0
100
AcDbBlockBegin
  2
*D3
 70
    1
 10
0
 20
0
  3
*D3
  1

  0
LINE
  5
AC
100
AcDbEntity
  8
sizes
  6
ByBlock
 62
    0
370
   -2
100
AcDbLine
 10
135.5554353143648
 20
0
 11
135.5554353143648
 21
40.00000000000004
  0
MTEXT
  5
AD
100
AcDbEntity
  8
sizes
  6
CONTINUOUS
 62
    0
370
   -2
100
AcDbMText
 10
132.4929353143648
 20
20.00000000000002
 30
0
 40
3
 41
3.813333333333333
 71
    5
 72
    1
  1
40
  7
kst32b
210
0
220
0
230
1
 50
90
 73
    2
 44
1
  0
SOLID
  5
AE
100
AcDbEntity
  8
sizes
  6
ByBlock
 62
    0
370
   -2
100
AcDbTrace
 10
135.5554353143648
 20
0
 30
0
 11
134.5147236699327
 21
6.25
 31
0
 12
136.5961469587969
 22
6.25
 32
0
 13
136.5961469587969
 23
6.25
 33
0
  0
SOLID
  5
AF
100
AcDbEntity
  8
sizes
  6
ByBlock
 62
    0
370
   -2
100
AcDbTrace
 10
135.5554353143648
 20
40.00000000000004
 30
0
 11
136.5961469587969
 21
33.75000000000004
 31
0
 12
134.5147236699327
 22
33.75000000000004
 32
0
 13
134.5147236699327
 23
33.75000000000004
 33
0
  0
LINE
  5
B0
100
AcDbEntity
  8
sizes
  6
ByBlock
 62
    0
370
   -2
100
AcDbLine
 10
109.6624999999997
 20
0
 11
138.6804353143648
 21
0
  0
LINE
  5
B1
100
AcDbEntity
  8
sizes
  6
ByBlock
 62
    0
370
   -2
100
AcDbLine
 10
109.6624999999995
 20
40.00000000000004
 11
138.6804353143648
 21
40.00000000000004
  0
ENDBLK
  5
68
330
66
100
AcDbEntity
  8
0
100
AcDbBlockEnd
  0
BLOCK
  5
6A
330
69
100
AcDbEntity
  8
0
100
AcDbBlockBegin
  2
*D16
 70
    1
 10
0
 20
0
  3
*D16
  1

  0
LINE
  5
B2
100
AcDbEntity
  8
sizes
  6
ByBlock
 62
    0
370
   -2
100
AcDbLine
 10
5.000001743254771
 20
-50.31225000002002
 11
-27.09999999999978
 21
-50.31225000002002
  0
MTEXT
  5
B3
100
AcDbEntity
  8
sizes
  6
CONTINUOUS
 62
    0
370
   -2
100
AcDbMText
 10
-11.04999912837251
 20
-47.24975000002002
 30
0
 40
3
 41
7.376666666666665
 71
    5
 72
    1
  1
32,1
  7
kst32b
210
0
220
0
230
1
 50
0
 73
    2
 44
1
  0
SOLID
  5
B4
100
AcDbEntity
  8
sizes
  6
ByBlock
 62
    0
370
   -2
100
AcDbTrace
 10
5.000001743254771
 20
-50.31225000002002
 30
0
 11
-1.249998256745229
 21
-51.35296164445212
 31
0
 12
-1.249998256745229
 22
-49.27153835558792
 32
0
 13
-1.249998256745229
 23
-49.27153835558792
 33
0
  0
SOLID
  5
B5
100
AcDbEntity
  8
sizes
  6
ByBlock
 62
    0
370
   -2
100
AcDbTrace
 10
-27.09999999999978
 20
-50.31225000002002
 30
0
 11
-20.84999999999978
 21
-49.27153835558792
 31
0
 12
-20.84999999999978
 22
-51.35296164445212
 32
0
 13
-20.84999999999978
 23
-51.35296164445212
 33
0
  0
LINE
  5
B6
100
AcDbEntity
  8
sizes
  6
ByBlock
 62
    0
370
   -2
100
AcDbLine
 10
5.000001743254771
 20
-33.6624999999993
 11
5.00000174325477
 21
-53.43725000002002
  0
LINE
  5
B7
100
AcDbEntity
  8
sizes
  6
ByBlock
 62
    0
370
   -2
100
AcDbLine
 10
-27.09999999999978
 20
-1.5625
 11
-27.09999999999978
 21
-53.43725000002002
  0
ENDBLK
  5
6B
330
69
100
AcDbEntity
  8
0
100
AcDbBlockEnd
  0
BLOCK
  5
6D
330
6C
100
AcDbEntity
  8
0
100
AcDbBlockBegin
  2
*D17
 70
    1
 10
0
 20
0
  3
*D17
  1

  0
LINE
  5
B8
100
AcDbEntity
  8
sizes
  6
ByBlock
 62
    0
370
   -2
100
AcDbLine
 10
-37.81882145999754
 20
27.99999999999993
 11
-37.81882145999754
 21
12.00000000000004
  0
MTEXT
  5
B9
100
AcDbEntity
  8
sizes
  6
CONTINUOUS
 62
    0
370
   -2
100
AcDbMText
 10
-40.88132145999754
 20
19.99999999999998
 30
0
 40
3
 41
2.873333333333333
 71
    5
 72
    1
  1
16
  7
kst32b
210
0
220
0
230
1
 50
90
 73
    2
 44
1
  0
SOLID
  5
BA
100
AcDbEntity
  8
sizes
  6
ByBlock
 62
    0
370
   -2
100
AcDbTrace
 10
-37.81882145999754
 20
27.99999999999993
 30
0
 11
-36.77810981556544
 21
21.74999999999993
 31
0
 12
-38.85953310442964
 22
21.74999999999993
 32
0
 13
-38.85953310442964
 23
21.74999999999993
 33
0
  0
SOLID
  5
BB
100
AcDbEntity
  8
sizes
  6
ByBlock
 62
    0
370
   -2
100
AcDbTrace
 10
-37.81882145999754
 20
12.00000000000004
 30
0
 11
-38.85953310442964
 21
18.25000000000004
 31
0
 12
-36.77810981556544
 22
18.25000000000004
 32
0
 13
-36.77810981556544
 23
18.25000000000004
 33
0
  0
LINE
  5
BC
100
AcDbEntity
  8
sizes
  6
ByBlock
 62
    0
370
   -2
100
AcDbLine
 10
3.437500000000027
 20
27.99999999999993
 11
-40.94382145999754
 21
27.99999999999993
  0
LINE
  5
BD
100
AcDbEntity
  8
sizes
  6
ByBlock
 62
    0
370
   -2
100
AcDbLine
 10
3.437500000000028
 20
12.00000000000003
 11
-40.94382145999754
 21
12.00000000000004
  0
ENDBLK
  5
6E
330
6C
100
AcDbEntity
  8
0
100
AcDbBlockEnd
  0
BLOCK
  5
70
330
6F
100
AcDbEntity
  8
0
100
AcDbBlockBegin
  2
*D15
 70
    1
 10
0
 20
0
  3
*D15
  1

  0
LINE
  5
BE
100
AcDbEntity
  8
sizes
  6
ByBlock
 62
    0
370
   -2
100
AcDbLine
 10
135.5617283521416
 20
-32.09999999999935
 11
135.5617283521416
 21
4.973799150320701e-14
  0
MTEXT
  5
BF
100
AcDbEntity
  8
sizes
  6
CONTINUOUS
 62
    0
370
   -2
100
AcDbMText
 10
132.4992283521416
 20
-16.04999999999965
 30
0
 40
3
 41
7.376666666666665
 71
    5
 72
    1
  1
32,1
  7
kst32b
210
0
220
0
230
1
 50
90
 73
    2
 44
1
  0
SOLID
  5
C0
100
AcDbEntity
  8
sizes
  6
ByBlock
 62
    0
370
   -2
100
AcDbTrace
 10
135.5617283521416
 20
-32.09999999999935
 30
0
 11
134.5210167077095
 21
-25.84999999999935
 31
0
 12
136.6024399965737
 22
-25.84999999999935
 32
0
 13
136.6024399965737
 23
-25.84999999999935
 33
0
  0
SOLID
  5
C1
100
AcDbEntity
  8
sizes
  6
ByBlock
 62
    0
370
   -2
100
AcDbTrace
 10
135.5617283521416
 20
4.973799150320701e-14
 30
0
 11
136.6024399965737
 21
-6.24999999999995
 31
0
 12
134.5210167077095
 22
-6.24999999999995
 32
0
 13
134.5210167077095
 23
-6.24999999999995
 33
0
  0
LINE
  5
C2
100
AcDbEntity
  8
sizes
  6
ByBlock
 62
    0
370
   -2
100
AcDbLine
 10
77.56250174325474
 20
-32.09999999999935
 11
138.6867283521416
 21
-32.09999999999935
  0
LINE
  5
C3
100
AcDbEntity
  8
sizes
  6
ByBlock
 62
    0
370
   -2
100
AcDbLine
 10
109.6624999999997
 20
4.973799150320701e-14
 11
138.6867283521416
 21
4.973799150320701e-14
  0
ENDBLK
  5
71
330
6F
100
AcDbEntity
  8
0
100
AcDbBlockEnd
  0
BLOCK
  5
73
330
72
100
AcDbEntity
  8
0
100
AcDbBlockBegin
  2
*D8
 70
    1
 10
0
 20
0
  3
*D8
  1

  0
LINE
  5
C4
100
AcDbEntity
  8
sizes
  6
ByBlock
 62
    0
370
   -2
100
AcDbLine
 10
88.11750000003437
 20
122.111638899866
 11
88.11750000003437
 21
152.1116388998661
  0
MTEXT
  5
C5
100
AcDbEntity
  8
sizes
  6
CONTINUOUS
 62
    0
370
   -2
100
AcDbMText
 10
85.05500000003437
 20
137.1116388998661
 30
0
 40
3
 41
3.706666666666666
 71
    5
 72
    1
  1
30
  7
kst32b
210
0
220
0
230
1
 50
90
 73
    2
 44
1
  0
SOLID
  5
C6
100
AcDbEntity
  8
sizes
  6
ByBlock
 62
    0
370
   -2
100
AcDbTrace
 10
88.11750000003437
 20
122.111638899866
 30
0
 11
87.07678835560228
 21
128.361638899866
 31
0
 12
89.15821164446648
 22
128.361638899866
 32
0
 13
89.15821164446648
 23
128.361638899866
 33
0
  0
SOLID
  5
C7
100
AcDbEntity
  8
sizes
  6
ByBlock
 62
    0
370
   -2
100
AcDbTrace
 10
88.11750000003437
 20
152.1116388998661
 30
0
 11
89.15821164446648
 21
145.8616388998661
 31
0
 12
87.07678835560226
 22
145.8616388998661
 32
0
 13
87.07678835560226
 23
145.8616388998661
 33
0
  0
LINE
  5
C8
100
AcDbEntity
  8
sizes
  6
ByBlock
 62
    0
370
   -2
100
AcDbLine
 10
72.56249999999997
 20
122.111638899866
 11
91.24250000003437
 21
122.111638899866
  0
LINE
  5
C9
100
AcDbEntity
  8
sizes
  6
ByBlock
 62
    0
370
   -2
100
AcDbLine
 10
72.56249999999994
 20
152.1116388998661
 11
91.24250000003437
 21
152.1116388998661
  0
ENDBLK
  5
74
330
72
100
AcDbEntity
  8
0
100
AcDbBlockEnd
  0
BLOCK
  5
76
330
75
100
AcDbEntity
  8
0
100
AcDbBlockBegin
  2
*D9
 70
    1
 10
0
 20
0
  3
*D9
  1

  0
LINE
  5
CA
100
AcDbEntity
  8
sizes
  6
ByBlock
 62
    0
370
   -2
100
AcDbLine
 10
52.39415337108314
 20
14.5201054524235
 11
81.60584662891675
 21
25.47989454757666
  0
MTEXT
  5
CB
100
AcDbEntity
  8
sizes
  6
CONTINUOUS
 62
    0
370
   -2
100
AcDbMText
 10
65.92421941974652
 20
22.86733367314481
 30
0
 40
3
 41
5.23
 71
    5
 72
    1
  1
6,2
  7
kst32b
210
0
220
0
230
1
 50
20.56533749042798
 73
    2
 44
1
  0
SOLID
  5
CC
100
AcDbEntity
  8
sizes
  6
ByBlock
 62
    0
370
   -2
100
AcDbTrace
 10
64.09755611861263
 20
18.91104659631499
 30
0
 11
58.61143103112499
 21
15.74118662286263
 31
0
 12
57.88027845857077
 22
17.68996542587585
 32
0
 13
57.88027845857077
 23
17.68996542587585
 33
0
  0
SOLID
  5
CD
100
AcDbEntity
  8
sizes
  6
ByBlock
 62
    0
370
   -2
100
AcDbTrace
 10
69.90244388138726
 20
21.08895340368517
 30
0
 11
75.38856896887489
 21
24.25881337713752
 31
0
 12
76.11972154142912
 22
22.31003457412431
 32
0
 13
76.11972154142912
 23
22.31003457412431
 33
0
  0
ENDBLK
  5
77
330
75
100
AcDbEntity
  8
0
100
AcDbBlockEnd
  0
BLOCK
  5
79
330
78
100
AcDbEntity
  8
0
100
AcDbBlockBegin
  2
*D1
 70
    1
 10
0
 20
0
  3
*D1
  1

  0
LINE
  5
CE
100
AcDbEntity
  8
sizes
  6
ByBlock
 62
    0
370
   -2
100
AcDbLine
 10
22.71999999999957
 20
-41.04541575001576
 11
58.28000000000016
 21
-41.04541575001576
  0
MTEXT
  5
CF
100
AcDbEntity
  8
sizes
  6
CONTINUOUS
 62
    0
370
   -2
100
AcDbMText
 10
40.49999999999986
 20
-37.98291575001576
 30
0
 40
3
 41
9.829999999999998
 71
    5
 72
    1
  1
35,56
  7
kst32b
210
0
220
0
230
1
 50
0
 73
    2
 44
1
  0
SOLID
  5
D0
100
AcDbEntity
  8
sizes
  6
ByBlock
 62
    0
370
   -2
100
AcDbTrace
 10
22.71999999999957
 20
-41.04541575001576
 30
0
 11
28.96999999999957
 21
-40.00470410558366
 31
0
 12
28.96999999999957
 22
-42.08612739444786
 32
0
 13
28.96999999999957
 23
-42.08612739444786
 33
0
  0
SOLID
  5
D1
100
AcDbEntity
  8
sizes
  6
ByBlock
 62
    0
370
   -2
100
AcDbTrace
 10
58.28000000000016
 20
-41.04541575001576
 30
0
 11
52.03000000000016
 21
-42.08612739444786
 31
0
 12
52.03000000000016
 22
-40.00470410558366
 32
0
 13
52.03000000000016
 23
-40.00470410558366
 33
0
  0
LINE
  5
D2
100
AcDbEntity
  8
sizes
  6
ByBlock
 62
    0
370
   -2
100
AcDbLine
 10
22.71999999999957
 20
5.85750000000025
 11
22.71999999999957
 21
-44.17041575001576
  0
LINE
  5
D3
100
AcDbEntity
  8
sizes
  6
ByBlock
 62
    0
370
   -2
100
AcDbLine
 10
58.28000000000016
 20
5.857499999999952
 11
58.28000000000016
 21
-44.17041575001576
  0
ENDBLK
  5
7A
330
78
100
AcDbEntity
  8
0
100
AcDbBlockEnd
  0
BLOCK
  5
7C
330
7B
100
AcDbEntity
  8
0
100
AcDbBlockBegin
  2
*D4
 70
    1
 10
0
 20
0
  3
*D4
  1

  0
LINE
  5
D4
100
AcDbEntity
  8
sizes
  6
ByBlock
 62
    0
370
   -2
100
AcDbLine
 10
54.49999999999994
 20
83.04812694453219
 11
88.5
 21
83.04812694453219
  0
MTEXT
  5
D5
100
AcDbEntity
  8
sizes
  6
CONTINUOUS
 62
    0
370
   -2
100
AcDbMText
 10
71.49999999999997
 20
86.11062694453219
 30
0
 40
3
 41
1.353333333333333
 71
    5
 72
    1
  1
9
  7
kst32b
210
0
220
0
230
1
 50
0
 73
    2
 44
1
  0
SOLID
  5
D6
100
AcDbEntity
  8
sizes
  6
ByBlock
 62
    0
370
   -2
100
AcDbTrace
 10
66.99999999999994
 20
83.04812694453219
 30
0
 11
60.74999999999994
 21
82.00741530010008
 31
0
 12
60.74999999999994
 22
84.08883858896429
 32
0
 13
60.74999999999994
 23
84.08883858896429
 33
0
  0
SOLID
  5
D7
100
AcDbEntity
  8
sizes
  6
ByBlock
 62
    0
370
   -2
100
AcDbTrace
 10
76
 20
83.04812694453219
 30
0
 11
82.25
 21
84.08883858896428
 31
0
 12
82.25
 22
82.00741530010008
 32
0
 13
82.25
 23
82.00741530010008
 33
0
  0
LINE
  5
D8
100
AcDbEntity
  8
sizes
  6
ByBlock
 62
    0
370
   -2
100
AcDbLine
 10
66.99999999999994
 20
21.56250000000008
 11
66.99999999999994
 21
86.17312694453219
  0
LINE
  5
D9
100
AcDbEntity
  8
sizes
  6
ByBlock
 62
    0
370
   -2
100
AcDbLine
 10
76
 20
42.62316017177999
 11
76
 21
86.17312694453219
  0
ENDBLK
  5
7D
330
7B
100
AcDbEntity
  8
0
100
AcDbBlockEnd
  0
BLOCK
  5
7F
330
7E
100
AcDbEntity
  8
0
100
AcDbBlockBegin
  2
*D12
 70
    1
 10
0
 20
0
  3
*D12
  1

  0
LINE
  5
DA
100
AcDbEntity
  8
sizes
  6
ByBlock
 62
    0
370
   -2
100
AcDbLine
 10
2.900000000000176
 20
175.6381891924339
 11
78.09999999999977
 21
175.6381891924339
  0
MTEXT
  5
DB
100
AcDbEntity
  8
sizes
  6
CONTINUOUS
 62
    0
370
   -2
100
AcDbMText
 10
40.49999999999997
 20
178.7006891924339
 30
0
 40
3
 41
7.689999999999998
 71
    5
 72
    1
  1
75,2
  7
kst32b
210
0
220
0
230
1
 50
0
 73
    2
 44
1
  0
SOLID
  5
DC
100
AcDbEntity
  8
sizes
  6
ByBlock
 62
    0
370
   -2
100
AcDbTrace
 10
2.900000000000176
 20
175.6381891924339
 30
0
 11
9.150000000000176
 21
176.678900836866
 31
0
 12
9.150000000000176
 22
174.5974775480018
 32
0
 13
9.150000000000176
 23
174.5974775480018
 33
0
  0
SOLID
  5
DD
100
AcDbEntity
  8
sizes
  6
ByBlock
 62
    0
370
   -2
100
AcDbTrace
 10
78.09999999999977
 20
175.6381891924339
 30
0
 11
71.84999999999977
 21
174.5974775480018
 31
0
 12
71.84999999999977
 22
176.678900836866
 32
0
 13
71.84999999999977
 23
176.678900836866
 33
0
  0
LINE
  5
DE
100
AcDbEntity
  8
sizes
  6
ByBlock
 62
    0
370
   -2
100
AcDbLine
 10
2.900000000000176
 20
158.6741376353686
 11
2.900000000000176
 21
178.7631891924339
  0
LINE
  5
DF
100
AcDbEntity
  8
sizes
  6
ByBlock
 62
    0
370
   -2
100
AcDbLine
 10
78.09999999999977
 20
158.6741339540545
 11
78.09999999999977
 21
178.7631891924339
  0
ENDBLK
  5
80
330
7E
100
AcDbEntity
  8
0
100
AcDbBlockEnd
  0
BLOCK
  5
82
330
81
100
AcDbEntity
  8
0
100
AcDbBlockBegin
  2
*D7
 70
    1
 10
0
 20
0
  3
*D7
  1

  0
LINE
  5
E0
100
AcDbEntity
  8
sizes
  6
ByBlock
 62
    0
370
   -2
100
AcDbLine
 10
10.00000000000002
 20
167.4232500000653
 11
70.99999999999994
 21
167.4232500000653
  0
MTEXT
  5
E1
100
AcDbEntity
  8
sizes
  6
CONTINUOUS
 62
    0
370
   -2
100
AcDbMText
 10
40.49999999999999
 20
170.4857500000653
 30
0
 40
3
 41
3.5
 71
    5
 72
    1
  1
61
  7
kst32b
210
0
220
0
230
1
 50
0
 73
    2
 44
1
  0
SOLID
  5
E2
100
AcDbEntity
  8
sizes
  6
ByBlock
 62
    0
370
   -2
100
AcDbTrace
 10
10.00000000000002
 20
167.4232500000653
 30
0
 11
16.25000000000002
 21
168.4639616444974
 31
0
 12
16.25000000000002
 22
166.3825383556332
 32
0
 13
16.25000000000002
 23
166.3825383556332
 33
0
  0
SOLID
  5
E3
100
AcDbEntity
  8
sizes
  6
ByBlock
 62
    0
370
   -2
100
AcDbTrace
 10
70.99999999999994
 20
167.4232500000653
 30
0
 11
64.74999999999994
 21
166.3825383556332
 31
0
 12
64.74999999999994
 22
168.4639616444974
 32
0
 13
64.74999999999994
 23
168.4639616444974
 33
0
  0
LINE
  5
E4
100
AcDbEntity
  8
sizes
  6
ByBlock
 62
    0
370
   -2
100
AcDbLine
 10
10.00000000000003
 20
153.674138899866
 11
10.00000000000002
 21
170.5482500000653
  0
LINE
  5
E5
100
AcDbEntity
  8
sizes
  6
ByBlock
 62
    0
370
   -2
100
AcDbLine
 10
70.99999999999994
 20
153.6741388998661
 11
70.99999999999994
 21
170.5482500000653
  0
ENDBLK
  5
83
330
81
100
AcDbEntity
  8
0
100
AcDbBlockEnd
  0
ENDSEC
  0
SECTION
  2
ENTITIES
  0
LINE
  5
E6
100
AcDbEntity
  8
builder
  6
ByLayer
 62
  256
370
   -1
100
AcDbLine
 10
0
 20
0
 11
-27.5
 21
0
  0
LINE
  5
E7
100
AcDbEntity
  8
builder
  6
ByLayer
 62
  256
370
   -1
100
AcDbLine
 10
76
 20
40
 11
76
 21
-55.5
  0
LINE
  5
E8
100
AcDbEntity
  8
builder
  6
ByLayer
 62
  256
370
   -1
100
AcDbLine
 10
76
 20
0
 11
120.5
 21
0
  0
LINE
  5
E9
100
AcDbEntity
  8
builder
  6
ByLayer
 62
  256
370
   -1
100
AcDbLine
 10
76
 20
40
 11
76
 21
70.5
  0
LINE
  5
EA
100
AcDbEntity
  8
builder
  6
ByLayer
 62
  256
370
   -1
100
AcDbLine
 10
5.000000000000028
 20
70.5
 11
5.000000000000028
 21
186.7623760625994
  0
LINE
  5
EB
100
AcDbEntity
  8
builder
  6
ByLayer
 62
  256
370
   -1
100
AcDbLine
 10
76
 20
158.0661080667599
 11
76
 21
62.5661080667599
  0
LINE
  5
EC
100
AcDbEntity
  8
builder
  6
ByLayer
 62
  256
370
   -1
100
AcDbLine
 10
76
 20
0
 11
76
 21
7.99999999999995
  0
LINE
  5
ED
100
AcDbEntity
  8
builder
  6
ByLayer
 62
  256
370
   -1
100
AcDbLine
 10
76
 20
32.00000000000011
 11
76
 21
40
  0
LINE
  5
EE
100
AcDbEntity
  8
builder
  6
ByLayer
 62
  256
370
   -1
100
AcDbLine
 10
5.000000000000028
 20
39.99999999999999
 11
5.000000000000028
 21
-2.721313632408047
  0
LINE
  5
EF
100
AcDbEntity
  8
builder
  6
ByLayer
 62
  256
370
   -1
100
AcDbLine
 10
5.000000000000028
 20
10
 11
76
 21
9.999999999999972
  0
LINE
  5
F0
100
AcDbEntity
  8
builder
  6
ByLayer
 62
  256
370
   -1
100
AcDbLine
 10
65.99999999999986
 20
40
 11
65.99999999999996
 21
0
  0
LINE
  5
F1
100
AcDbEntity
  8
builder
  6
ByLayer
 62
  256
370
   -1
100
AcDbLine
 10
5.000000000000032
 20
29.99999999999999
 11
76
 21
30.0000000000003
  0
LINE
  5
F2
100
AcDbEntity
  8
builder
  6
ByLayer
 62
  256
370
   -1
100
AcDbLine
 10
15.00000000000002
 20
39.99999999999999
 11
15.00000000000003
 21
1.77635683940025e-15
  0
LINE
  5
F3
100
AcDbEntity
  8
builder
  6
ByLayer
 62
  256
370
   -1
100
AcDbLine
 10
65.99999999999987
 20
30.00000000000026
 11
76
 21
40
  0
LINE
  5
F4
100
AcDbEntity
  8
builder
  6
ByLayer
 62
  256
370
   -1
100
AcDbLine
 10
65.99999999999986
 20
40
 11
76
 21
30.0000000000003
  0
LINE
  5
F5
100
AcDbEntity
  8
builder
  6
ByLayer
 62
  256
370
   -1
100
AcDbLine
 10
76
 20
30.0000000000003
 11
76
 21
9.999999999999975
  0
LINE
  5
F6
100
AcDbEntity
  8
builder
  6
ByLayer
 62
  256
370
   -1
100
AcDbLine
 10
76
 20
9.999999999999975
 11
65.99999999999996
 21
0
  0
LINE
  5
F7
100
AcDbEntity
  8
builder
  6
ByLayer
 62
  256
370
   -1
100
AcDbLine
 10
65.99999999999996
 20
0
 11
65.99999999999993
 21
9.999999999999975
  0
LINE
  5
F8
100
AcDbEntity
  8
builder
  6
ByLayer
 62
  256
370
   -1
100
AcDbLine
 10
65.99999999999993
 20
9.999999999999975
 11
76
 21
0
  0
LINE
  5
F9
100
AcDbEntity
  8
builder
  6
ByLayer
 62
  256
370
   -1
100
AcDbLine
 10
76
 20
0
 11
15.00000000000003
 21
0
  0
LINE
  5
FA
100
AcDbEntity
  8
builder
  6
ByLayer
 62
  256
370
   -1
100
AcDbLine
 10
5.000000000000028
 20
10
 11
15.00000000000002
 21
9.999999999999993
  0
LINE
  5
FB
100
AcDbEntity
  8
builder
  6
ByLayer
 62
  256
370
   -1
100
AcDbLine
 10
5.000000000000028
 20
0
 11
5.000000000000028
 21
29.99999999999999
  0
LINE
  5
FC
100
AcDbEntity
  8
builder
  6
ByLayer
 62
  256
370
   -1
100
AcDbLine
 10
5.000000000000028
 20
29.99999999999999
 11
15.00000000000002
 21
39.99999999999999
  0
LINE
  5
FD
100
AcDbEntity
  8
builder
  6
ByLayer
 62
  256
370
   -1
100
AcDbLine
 10
15.00000000000002
 20
39.99999999999999
 11
15.00000000000002
 21
30.00000000000003
  0
LINE
  5
FE
100
AcDbEntity
  8
builder
  6
ByLayer
 62
  256
370
   -1
100
AcDbLine
 10
15.00000000000002
 20
30.00000000000003
 11
5.000000000000028
 21
39.99999999999999
  0
LINE
  5
FF
100
AcDbEntity
  8
builder
  6
ByLayer
 62
  256
370
   -1
100
AcDbLine
 10
5.000000000000028
 20
10
 11
-23.98157638559602
 21
10
  0
LINE
  5
100
100
AcDbEntity
  8
builder
  6
ByLayer
 62
  256
370
   -1
100
AcDbLine
 10
5.000000000000028
 20
0
 11
5.000000000000028
 21
39.99999999999999
  0
LINE
  5
101
100
AcDbEntity
  8
builder
  6
ByLayer
 62
  256
370
   -1
100
AcDbLine
 10
10
 20
9.999999999999996
 11
0
 21
10
  0
LWPOLYLINE
  5
102
100
AcDbEntity
  8
InternalComps
  6
ByLayer
 62
  256
370
   -1
100
AcDbPolyline
 90
    4
 70
    1
 43
0
 10
65.99999999999994
 20
30.00000000000014
 10
75.99999999999994
 20
30.00000000000014
 10
75.99999999999994
 20
40.00000000000014
 10
65.99999999999994
 20
40.00000000000014
  0
LWPOLYLINE
  5
103
100
AcDbEntity
  8
InternalComps
  6
ByLayer
 62
  256
370
   -1
100
AcDbPolyline
 90
    4
 70
    1
 43
0
 10
65.99999999999997
 20
-1.77635683940025e-14
 10
75.99999999999997
 20
-1.77635683940025e-14
 10
75.99999999999997
 20
9.999999999999982
 10
65.99999999999997
 20
9.999999999999982
  0
LWPOLYLINE
  5
104
100
AcDbEntity
  8
InternalComps
  6
ByLayer
 62
  256
370
   -1
100
AcDbPolyline
 90
    4
 70
    1
 43
0
 10
5.000000000000021
 20
30
 10
15.00000000000002
 20
30
 10
15.00000000000002
 20
40
 10
5.000000000000021
 20
40
  0
LINE
  5
105
100
AcDbEntity
  8
builder
  6
ByLayer
 62
  256
370
   -1
100
AcDbLine
 10
65.99999999999989
 20
30.00000000000014
 11
15.00000000000003
 21
10
  0
LINE
  5
106
100
AcDbEntity
  8
builder
  6
ByLayer
 62
  256
370
   -1
100
AcDbLine
 10
15.00000000000003
 20
10
 11
15.00000000000002
 21
30.00000000000003
  0
LINE
  5
107
100
AcDbEntity
  8
builder
  6
ByLayer
 62
  256
370
   -1
100
AcDbLine
 10
15.00000000000002
 20
30.00000000000003
 11
65.99999999999993
 21
9.999999999999982
  0
LWPOLYLINE
  5
108
100
AcDbEntity
  8
InternalComps
  6
ByLayer
 62
  256
370
   -1
100
AcDbPolyline
 90
    4
 70
    1
 43
0
 10
17.59999999999988
 20
2.600000000000048
 10
63.39999999999988
 20
2.600000000000048
 10
63.39999999999988
 20
37.40000000000004
 10
17.59999999999988
 20
37.40000000000004
  0
LINE
  5
109
100
AcDbEntity
  8
builder
  6
ByLayer
 62
  256
370
   -1
100
AcDbLine
 10
58.28000000000011
 20
2.600000000000044
 11
58.2800000000004
 21
37.40000000000004
  0
LINE
  5
10A
100
AcDbEntity
  8
builder
  6
ByLayer
 62
  256
370
   -1
100
AcDbLine
 10
22.71999999999912
 20
37.40000000000005
 11
22.71999999999963
 21
2.60000000000003
  0
LINE
  5
10B
100
AcDbEntity
  8
builder
  6
ByLayer
 62
  256
370
   -1
100
AcDbLine
 10
63.39999999999988
 20
2.600000000000048
 11
63.39999999999988
 21
37.40000000000004
  0
LINE
  5
10C
100
AcDbEntity
  8
builder
  6
ByLayer
 62
  256
370
   -1
100
AcDbLine
 10
22.7199999999992
 20
32.58000000000008
 11
58.28000000000036
 21
32.57999999999988
  0
LINE
  5
10D
100
AcDbEntity
  8
builder
  6
ByLayer
 62
  256
370
   -1
100
AcDbLine
 10
58.28000000000016
 20
7.419999999999952
 11
22.71999999999957
 21
7.42000000000025
  0
LINE
  5
10E
100
AcDbEntity
  8
InternalComps
  6
ByLayer
 62
  256
370
   -1
100
AcDbLine
 10
-22.54399491202845
 20
1.58999682000954
 11
-20.00000000001318
 21
0
  0
CIRCLE
  5
10F
100
AcDbEntity
  8
0
  6
ByLayer
 62
  256
370
   -1
100
AcDbCircle
 10
58.28000000000036
 20
32.57999999999988
 40
2.1
  0
CIRCLE
  5
110
100
AcDbEntity
  8
0
  6
ByLayer
 62
  256
370
   -1
100
AcDbCircle
 10
58.28000000000016
 20
7.419999999999952
 40
2.1
  0
CIRCLE
  5
111
100
AcDbEntity
  8
0
  6
ByLayer
 62
  256
370
   -1
100
AcDbCircle
 10
22.7199999999992
 20
32.58000000000008
 40
2.1
  0
CIRCLE
  5
112
100
AcDbEntity
  8
0
  6
ByLayer
 62
  256
370
   -1
100
AcDbCircle
 10
22.71999999999957
 20
7.42000000000025
 40
2.1
  0
LINE
  5
113
100
AcDbEntity
  8
builder
  6
ByLayer
 62
  256
370
   -1
100
AcDbLine
 10
15.00000000000003
 20
-1.77635683940025e-15
 11
5.000000000000036
 21
9.999999999999998
  0
LINE
  5
114
100
AcDbEntity
  8
builder
  6
ByLayer
 62
  256
370
   -1
100
AcDbLine
 10
15.00000000000003
 20
9.999999999999991
 11
5.000000000000036
 21
-1.77635683940025e-15
  0
LWPOLYLINE
  5
115
100
AcDbEntity
  8
InternalComps
  6
ByLayer
 62
  256
370
   -1
100
AcDbPolyline
 90
    4
 70
    1
 43
0
 10
5.000000000000025
 20
-1.77635683940025e-15
 10
15.00000000000002
 20
-1.77635683940025e-15
 10
15.00000000000002
 20
9.999999999999998
 10
5.000000000000025
 20
9.999999999999998
  0
CIRCLE
  5
116
100
AcDbEntity
  8
0
  6
ByLayer
 62
  256
370
   -1
100
AcDbCircle
 10
10.00000000000003
 20
35
 40
2.1
  0
CIRCLE
  5
117
100
AcDbEntity
  8
0
  6
ByLayer
 62
  256
370
   -1
100
AcDbCircle
 10
70.99999999999994
 20
35.00000000000014
 40
2.1
  0
CIRCLE
  5
118
100
AcDbEntity
  8
0
  6
ByLayer
 62
  256
370
   -1
100
AcDbCircle
 10
70.99999999999997
 20
4.999999999999981
 40
2.1
  0
CIRCLE
  5
119
100
AcDbEntity
  8
0
  6
ByLayer
 62
  256
370
   -1
100
AcDbCircle
 10
10.00000000000004
 20
4.999999999999996
 40
2.1
  0
LINE
  5
11A
100
AcDbEntity
  8
builder
  6
ByLayer
 62
  256
370
   -1
100
AcDbLine
 10
5.000000000000105
 20
39.99999999999991
 11
1.522351381861144
 21
39.99999999999991
  0
LINE
  5
11B
100
AcDbEntity
  8
builder
  6
ByLayer
 62
  256
370
   -1
100
AcDbLine
 10
78.03211845027447
 20
40.00000000000473
 11
93.23400000000704
 21
40
  0
LINE
  5
11C
100
AcDbEntity
  8
builder
  6
ByLayer
 62
  256
370
   -1
100
AcDbLine
 10
5.000000000000025
 20
-1.77635683940025e-15
 11
5.000000000000025
 21
-43.95414600001194
  0
LINE
  5
11D
100
AcDbEntity
  8
builder
  6
ByLayer
 62
  256
370
   -1
100
AcDbLine
 10
123.2339995697314
 20
20.00000000000008
 11
-13.34345115020924
 21
20.00000000000008
  0
LINE
  5
11E
100
AcDbEntity
  8
builder
  6
ByLayer
 62
  256
370
   -1
100
AcDbLine
 10
-20.00000043027596
 20
20.00000000000003
 11
-18.77015402477898
 21
20.00000000000003
  0
LINE
  5
11F
100
AcDbEntity
  8
builder
  6
ByLayer
 62
  256
370
   -1
100
AcDbLine
 10
76
 20
40
 11
4.999999999992399
 21
40.00000000000473
  0
LINE
  5
120
100
AcDbEntity
  8
builder
  6
ByLayer
 62
  256
370
   -1
100
AcDbLine
 10
4.999999999992399
 20
40.00000000000473
 11
76
 21
40
  0
LINE
  5
121
100
AcDbEntity
  8
builder
  6
ByLayer
 62
  256
370
   -1
100
AcDbLine
 10
76
 20
97.65782545974187
 11
5.000000000000039
 21
97.65782545974187
  0
LINE
  5
122
100
AcDbEntity
  8
builder
  6
ByLayer
 62
  256
370
   -1
100
AcDbLine
 10
76
 20
117.111638899866
 11
76
 21
125.1116388998659
  0
LINE
  5
123
100
AcDbEntity
  8
builder
  6
ByLayer
 62
  256
370
   -1
100
AcDbLine
 10
76
 20
149.1116388998661
 11
76
 21
157.111638899866
  0
LINE
  5
124
100
AcDbEntity
  8
builder
  6
ByLayer
 62
  256
370
   -1
100
AcDbLine
 10
76
 20
157.111638899866
 11
5.000000000000028
 21
157.111638899866
  0
LINE
  5
125
100
AcDbEntity
  8
builder
  6
ByLayer
 62
  256
370
   -1
100
AcDbLine
 10
5.000000000000028
 20
157.111638899866
 11
5.000000000000028
 21
114.390325267458
  0
LINE
  5
126
100
AcDbEntity
  8
builder
  6
ByLayer
 62
  256
370
   -1
100
AcDbLine
 10
5.000000000000028
 20
127.111638899866
 11
76
 21
127.111638899866
  0
LINE
  5
127
100
AcDbEntity
  8
builder
  6
ByLayer
 62
  256
370
   -1
100
AcDbLine
 10
65.99999999999986
 20
157.111638899866
 11
65.99999999999996
 21
117.111638899866
  0
LINE
  5
128
100
AcDbEntity
  8
builder
  6
ByLayer
 62
  256
370
   -1
100
AcDbLine
 10
5.000000000000032
 20
147.111638899866
 11
76
 21
147.1116388998663
  0
LINE
  5
129
100
AcDbEntity
  8
builder
  6
ByLayer
 62
  256
370
   -1
100
AcDbLine
 10
15.00000000000002
 20
157.111638899866
 11
15.00000000000003
 21
117.111638899866
  0
LINE
  5
12A
100
AcDbEntity
  8
builder
  6
ByLayer
 62
  256
370
   -1
100
AcDbLine
 10
65.99999999999987
 20
147.1116388998663
 11
76
 21
157.111638899866
  0
LINE
  5
12B
100
AcDbEntity
  8
builder
  6
ByLayer
 62
  256
370
   -1
100
AcDbLine
 10
65.99999999999986
 20
157.111638899866
 11
76
 21
147.1116388998663
  0
LINE
  5
12C
100
AcDbEntity
  8
builder
  6
ByLayer
 62
  256
370
   -1
100
AcDbLine
 10
76
 20
147.1116388998663
 11
76
 21
127.111638899866
  0
LINE
  5
12D
100
AcDbEntity
  8
builder
  6
ByLayer
 62
  256
370
   -1
100
AcDbLine
 10
76
 20
127.111638899866
 11
65.99999999999996
 21
117.111638899866
  0
LINE
  5
12E
100
AcDbEntity
  8
builder
  6
ByLayer
 62
  256
370
   -1
100
AcDbLine
 10
65.99999999999996
 20
117.111638899866
 11
65.99999999999993
 21
127.111638899866
  0
LINE
  5
12F
100
AcDbEntity
  8
builder
  6
ByLayer
 62
  256
370
   -1
100
AcDbLine
 10
65.99999999999993
 20
127.111638899866
 11
76
 21
117.111638899866
  0
LINE
  5
130
100
AcDbEntity
  8
builder
  6
ByLayer
 62
  256
370
   -1
100
AcDbLine
 10
76
 20
117.111638899866
 11
15.00000000000003
 21
117.111638899866
  0
LINE
  5
131
100
AcDbEntity
  8
builder
  6
ByLayer
 62
  256
370
   -1
100
AcDbLine
 10
5.000000000000028
 20
127.111638899866
 11
15.00000000000002
 21
127.111638899866
  0
LINE
  5
132
100
AcDbEntity
  8
builder
  6
ByLayer
 62
  256
370
   -1
100
AcDbLine
 10
5.000000000000028
 20
117.111638899866
 11
5.000000000000028
 21
147.111638899866
  0
LINE
  5
133
100
AcDbEntity
  8
builder
  6
ByLayer
 62
  256
370
   -1
100
AcDbLine
 10
5.000000000000028
 20
147.111638899866
 11
15.00000000000002
 21
157.111638899866
  0
LINE
  5
134
100
AcDbEntity
  8
builder
  6
ByLayer
 62
  256
370
   -1
100
AcDbLine
 10
15.00000000000002
 20
157.111638899866
 11
15.00000000000002
 21
147.111638899866
  0
LINE
  5
135
100
AcDbEntity
  8
builder
  6
ByLayer
 62
  256
370
   -1
100
AcDbLine
 10
15.00000000000002
 20
147.111638899866
 11
5.000000000000028
 21
157.111638899866
  0
LINE
  5
136
100
AcDbEntity
  8
builder
  6
ByLayer
 62
  256
370
   -1
100
AcDbLine
 10
5.000000000000028
 20
117.111638899866
 11
5.000000000000028
 21
157.111638899866
  0
LINE
  5
137
100
AcDbEntity
  8
builder
  6
ByLayer
 62
  256
370
   -1
100
AcDbLine
 10
10
 20
127.111638899866
 11
0
 21
127.111638899866
  0
LWPOLYLINE
  5
138
100
AcDbEntity
  8
InternalComps
  6
ByLayer
 62
  256
370
   -1
100
AcDbPolyline
 90
    4
 70
    1
 43
0
 10
65.99999999999994
 20
147.1116388998661
 10
75.99999999999994
 20
147.1116388998661
 10
75.99999999999994
 20
157.1116388998661
 10
65.99999999999994
 20
157.1116388998661
  0
LWPOLYLINE
  5
139
100
AcDbEntity
  8
InternalComps
  6
ByLayer
 62
  256
370
   -1
100
AcDbPolyline
 90
    4
 70
    1
 43
0
 10
65.99999999999997
 20
117.111638899866
 10
75.99999999999997
 20
117.111638899866
 10
75.99999999999997
 20
127.111638899866
 10
65.99999999999997
 20
127.111638899866
  0
LWPOLYLINE
  5
13A
100
AcDbEntity
  8
InternalComps
  6
ByLayer
 62
  256
370
   -1
100
AcDbPolyline
 90
    4
 70
    1
 43
0
 10
5.000000000000021
 20
147.111638899866
 10
15.00000000000002
 20
147.111638899866
 10
15.00000000000002
 20
157.111638899866
 10
5.000000000000021
 20
157.111638899866
  0
LINE
  5
13B
100
AcDbEntity
  8
builder
  6
ByLayer
 62
  256
370
   -1
100
AcDbLine
 10
65.99999999999989
 20
147.1116388998661
 11
15.00000000000003
 21
127.111638899866
  0
LINE
  5
13C
100
AcDbEntity
  8
builder
  6
ByLayer
 62
  256
370
   -1
100
AcDbLine
 10
15.00000000000003
 20
127.111638899866
 11
15.00000000000002
 21
147.111638899866
  0
LINE
  5
13D
100
AcDbEntity
  8
builder
  6
ByLayer
 62
  256
370
   -1
100
AcDbLine
 10
15.00000000000002
 20
147.111638899866
 11
65.99999999999993
 21
127.111638899866
  0
LINE
  5
13E
100
AcDbEntity
  8
builder
  6
ByLayer
 62
  256
370
   -1
100
AcDbLine
 10
15.00000000000003
 20
117.111638899866
 11
5.000000000000036
 21
127.111638899866
  0
LINE
  5
13F
100
AcDbEntity
  8
builder
  6
ByLayer
 62
  256
370
   -1
100
AcDbLine
 10
15.00000000000003
 20
127.111638899866
 11
5.000000000000036
 21
117.111638899866
  0
LWPOLYLINE
  5
140
100
AcDbEntity
  8
InternalComps
  6
ByLayer
 62
  256
370
   -1
100
AcDbPolyline
 90
    4
 70
    1
 43
0
 10
5.000000000000025
 20
117.111638899866
 10
15.00000000000002
 20
117.111638899866
 10
15.00000000000002
 20
127.111638899866
 10
5.000000000000025
 20
127.111638899866
  0
CIRCLE
  5
141
100
AcDbEntity
  8
0
  6
ByLayer
 62
  256
370
   -1
100
AcDbCircle
 10
10.00000000000003
 20
152.111638899866
 40
2.1
  0
CIRCLE
  5
142
100
AcDbEntity
  8
0
  6
ByLayer
 62
  256
370
   -1
100
AcDbCircle
 10
70.99999999999994
 20
152.1116388998661
 40
2.1
  0
CIRCLE
  5
143
100
AcDbEntity
  8
0
  6
ByLayer
 62
  256
370
   -1
100
AcDbCircle
 10
70.99999999999997
 20
122.111638899866
 40
2.1
  0
CIRCLE
  5
144
100
AcDbEntity
  8
0
  6
ByLayer
 62
  256
370
   -1
100
AcDbCircle
 10
10.00000000000004
 20
122.111638899866
 40
2.1
  0
CIRCLE
  5
145
100
AcDbEntity
  8
builder
  6
ByLayer
 62
  256
370
   -1
100
AcDbCircle
 10
5.000000000000028
 20
157.111638899866
 40
2.1
  0
CIRCLE
  5
146
100
AcDbEntity
  8
builder
  6
ByLayer
 62
  256
370
   -1
100
AcDbCircle
 10
76
 20
117.111638899866
 40
2.1
  0
CIRCLE
  5
147
100
AcDbEntity
  8
builder
  6
ByLayer
 62
  256
370
   -1
100
AcDbCircle
 10
5.000000000000028
 20
117.111638899866
 40
2.1
  0
LWPOLYLINE
  5
148
100
AcDbEntity
  8
InternalComps
  6
ByLayer
 62
  256
370
   -1
100
AcDbPolyline
 90
    4
 70
    1
 43
0
 10
5.000000000000025
 20
159.211638899866
 10
75.99999999999994
 20
159.211638899866
 10
75.99999999999994
 20
157.1116388998659
 10
5.000000000000025
 20
157.1116388998659
  0
LWPOLYLINE
  5
149
100
AcDbEntity
  8
InternalComps
  6
ByLayer
 62
  256
370
   -1
100
AcDbPolyline
 90
    4
 70
    1
 43
0
 10
76
 20
157.1116388998707
 10
78.09999999999977
 20
157.1116388998707
 10
78.09999999999977
 20
117.111638899866
 10
76
 20
117.111638899866
  0
LWPOLYLINE
  5
14A
100
AcDbEntity
  8
InternalComps
  6
ByLayer
 62
  256
370
   -1
100
AcDbPolyline
 90
    4
 70
    1
 43
0
 10
76
 20
115.0116388998667
 10
5.000000000000025
 20
115.0116388998667
 10
5.000000000000025
 20
117.111638899866
 10
76
 20
117.111638899866
  0
LINE
  5
14B
100
AcDbEntity
  8
builder
  6
ByLayer
 62
  256
370
   -1
100
AcDbLine
 10
5.000000000000105
 20
157.1116388998659
 11
1.522351381861144
 21
157.1116388998659
  0
LWPOLYLINE
  5
14C
100
AcDbEntity
  8
InternalComps
  6
ByLayer
 62
  256
370
   -1
100
AcDbPolyline
 90
    4
 70
    1
 43
0
 10
2.90000000000019
 20
157.1116388998659
 10
5.000000000000036
 20
157.1116388998659
 10
5.000000000000036
 20
117.111638899866
 10
2.90000000000019
 20
117.111638899866
  0
CIRCLE
  5
14D
100
AcDbEntity
  8
builder
  6
ByLayer
 62
  256
370
   -1
100
AcDbCircle
 10
75.99999999999994
 20
157.1116388998659
 40
2.1
  0
LINE
  5
14E
100
AcDbEntity
  8
0
  6
ByLayer
 62
  256
370
   -1
100
AcDbLine
 10
5.000000000000025
 20
159.211638899866
 11
75.99999999999994
 21
159.211638899866
  0
LINE
  5
14F
100
AcDbEntity
  8
0
  6
ByLayer
 62
  256
370
   -1
100
AcDbLine
 10
78.09999999999994
 20
157.1116388998659
 11
78.09999999999999
 21
117.111638899866
  0
LINE
  5
150
100
AcDbEntity
  8
0
  6
ByLayer
 62
  256
370
   -1
100
AcDbLine
 10
76
 20
115.011638899866
 11
5.000000000000025
 21
115.0116388998667
  0
LINE
  5
151
100
AcDbEntity
  8
0
  6
ByLayer
 62
  256
370
   -1
100
AcDbLine
 10
2.900000000000028
 20
117.111638899866
 11
2.90000000000019
 21
157.1116388998659
  0
ARC
  5
152
100
AcDbEntity
  8
0
  6
ByLayer
 62
  256
370
   -1
100
AcDbCircle
 10
5.000000000000021
 20
157.111638899866
 40
2.099999999999831
100
AcDbArc
 50
89.99999999999982
 51
180
  0
ARC
  5
153
100
AcDbEntity
  8
0
  6
ByLayer
 62
  256
370
   -1
100
AcDbCircle
 10
76
 20
157.1116388998707
 40
2.099999999999767
100
AcDbArc
 50
0
 51
90.00000000000155
  0
ARC
  5
154
100
AcDbEntity
  8
0
  6
ByLayer
 62
  256
370
   -1
100
AcDbCircle
 10
75.99999999999997
 20
117.111638899866
 40
2.099999999999255
100
AcDbArc
 50
270.0000000000007
 51
7.63333123551244e-13
  0
ARC
  5
155
100
AcDbEntity
  8
0
  6
ByLayer
 62
  256
370
   -1
100
AcDbCircle
 10
5.000000000000036
 20
117.111638899866
 40
2.099999999999284
100
AcDbArc
 50
180
 51
269.9999999999997
  0
CIRCLE
  5
156
100
AcDbEntity
  8
0
  6
ByLayer
 62
  256
370
   -1
100
AcDbCircle
 10
66.99999999999994
 20
20.00000000000008
 40
3.1
  0
LINE
  5
157
100
AcDbEntity
  8
0
  6
ByLayer
 62
  256
370
   -1
100
AcDbLine
 10
-7.100000000000019
 20
39.99999999999986
 11
-27.10000000000008
 21
39.99999999999986
  0
LINE
  5
158
100
AcDbEntity
  8
0
  6
ByLayer
 62
  256
370
   -1
100
AcDbLine
 10
-27.10000000000008
 20
39.99999999999986
 11
-27.09999999999978
 21
-1.35003119794419e-13
  0
LINE
  5
159
100
AcDbEntity
  8
0
  6
ByLayer
 62
  256
370
   -1
100
AcDbLine
 10
-27.09999999999978
 20
-1.35003119794419e-13
 11
-7.09999999999982
 21
-1.35003119794419e-13
  0
LINE
  5
15A
100
AcDbEntity
  8
0
  6
ByLayer
 62
  256
370
   -1
100
AcDbLine
 10
76.00000174325474
 20
-22.09999999999935
 11
76.00000174325474
 21
-2.099999999999316
  0
LINE
  5
15B
100
AcDbEntity
  8
0
  6
ByLayer
 62
  256
370
   -1
100
AcDbLine
 10
76.00000174325474
 20
-32.09999999999935
 11
5.000001743254768
 21
-32.0999999999993
  0
LINE
  5
15C
100
AcDbEntity
  8
0
  6
ByLayer
 62
  256
370
   -1
100
AcDbLine
 10
76.00000174325474
 20
-32.09999999999935
 11
76.00000174325474
 21
-22.09999999999935
  0
LINE
  5
15D
100
AcDbEntity
  8
0
  6
ByLayer
 62
  256
370
   -1
100
AcDbLine
 10
5.000001743254768
 20
-32.0999999999993
 11
5.000001743254769
 21
-22.0999999999993
  0
LINE
  5
15E
100
AcDbEntity
  8
0
  6
ByLayer
 62
  256
370
   -1
100
AcDbLine
 10
98.09999999999953
 20
39.99999999999999
 11
78.09999999999947
 21
40
  0
LINE
  5
15F
100
AcDbEntity
  8
0
  6
ByLayer
 62
  256
370
   -1
100
AcDbLine
 10
78.09999999999977
 20
0
 11
98.09999999999972
 21
0
  0
LINE
  5
160
100
AcDbEntity
  8
builder
  6
ByLayer
 62
  256
370
   -1
100
AcDbLine
 10
98.09999999999953
 20
39.99999999999999
 11
105.7943745401455
 21
39.99999999999999
  0
LINE
  5
161
100
AcDbEntity
  8
0
  6
ByLayer
 62
  256
370
   -1
100
AcDbLine
 10
98.09999999999953
 20
39.99999999999999
 11
108.0999999999995
 21
40.00000000000004
  0
LINE
  5
162
100
AcDbEntity
  8
0
  6
ByLayer
 62
  256
370
   -1
100
AcDbLine
 10
108.0999999999995
 20
40.00000000000004
 11
108.0999999999997
 21
4.973799150320701e-14
  0
LINE
  5
163
100
AcDbEntity
  8
0
  6
ByLayer
 62
  256
370
   -1
100
AcDbLine
 10
108.0999999999997
 20
4.973799150320701e-14
 11
98.09999999999972
 21
0
  0
LINE
  5
164
100
AcDbEntity
  8
0
  6
ByLayer
 62
  256
370
   -1
100
AcDbLine
 10
76
 20
42.10000000000004
 11
76
 21
62.10000000000006
  0
LINE
  5
165
100
AcDbEntity
  8
0
  6
ByLayer
 62
  256
370
   -1
100
AcDbLine
 10
5.000000000000029
 20
62.10000000000007
 11
5.000000000000032
 21
72.10000000000008
  0
LINE
  5
166
100
AcDbEntity
  8
0
  6
ByLayer
 62
  256
370
   -1
100
AcDbLine
 10
5.000000000000032
 20
72.10000000000008
 11
76
 21
72.10000000000008
  0
LINE
  5
167
100
AcDbEntity
  8
0
  6
ByLayer
 62
  256
370
   -1
100
AcDbLine
 10
76
 20
72.10000000000008
 11
76
 21
62.10000000000006
  0
LWPOLYLINE
  5
168
100
AcDbEntity
  8
bend_meta
  6
ByLayer
 62
  256
370
   -1
100
AcDbPolyline
 90
    4
 70
    1
 43
0
 10
5.000000000000021
 20
39.99999999999991
 10
75.99999999999997
 20
39.99999999999991
 10
75.99999999999997
 20
3.423801934117277e-08
 10
5.000000000000021
 20
3.423801934117277e-08
  0
CIRCLE
  5
169
100
AcDbEntity
  8
builder
  6
ByLayer
 62
  256
370
   -1
100
AcDbCircle
 10
10.00000000000003
 20
35
 40
0.75
  0
CIRCLE
  5
16A
100
AcDbEntity
  8
builder
  6
ByLayer
 62
  256
370
   -1
100
AcDbCircle
 10
10.00000000000004
 20
4.999999999999996
 40
0.75
  0
LINE
  5
16B
100
AcDbEntity
  8
builder
  6
ByLayer
 62
  256
370
   -1
100
AcDbLine
 10
10.53033008588993
 20
4.469669914110103
 11
0.5303300858899354
 21
-5.53033008588989
  0
LINE
  5
16C
100
AcDbEntity
  8
builder
  6
ByLayer
 62
  256
370
   -1
100
AcDbLine
 10
10.00000000000003
 20
6.060660171779783
 11
3.819167204710538e-14
 21
-3.93933982822021
  0
CIRCLE
  5
16D
100
AcDbEntity
  8
builder
  6
ByLayer
 62
  256
370
   -1
100
AcDbCircle
 10
5.000000034238058
 20
3.423801864244069e-08
 40
3
  0
LINE
  5
16E
100
AcDbEntity
  8
builder
  6
ByLayer
 62
  256
370
   -1
100
AcDbLine
 10
0
 20
0
 11
9.279406366541162
 21
0
  0
LINE
  5
16F
100
AcDbEntity
  8
0
  6
ByLayer
 62
  256
370
   -1
100
AcDbLine
 10
-7.09999999999982
 20
0
 11
3.939339828220248
 21
0
  0
LINE
  5
170
100
AcDbEntity
  8
0
  6
ByLayer
 62
  256
370
   -1
100
AcDbLine
 10
3.939339828220249
 20
0
 11
6.523629538992539
 21
2.584289710772292
  0
LINE
  5
171
100
AcDbEntity
  8
0
  6
ByLayer
 62
  256
370
   -1
100
AcDbLine
 10
6.523629538992539
 20
2.584289710772292
 11
7.584289710772328
 21
1.523629538992504
  0
LINE
  5
172
100
AcDbEntity
  8
0
  6
ByLayer
 62
  256
370
   -1
100
AcDbLine
 10
7.584289710772328
 20
1.523629538992504
 11
6.060660171779827
 21
8.881784197001252e-16
  0
LINE
  5
173
100
AcDbEntity
  8
0
  6
ByLayer
 62
  256
370
   -1
100
AcDbLine
 10
6.060660206017843
 20
3.423801934117277e-08
 11
5.000000000000028
 21
-1.060660171779799
  0
LINE
  5
174
100
AcDbEntity
  8
0
  6
ByLayer
 62
  256
370
   -1
100
AcDbLine
 10
5.000000000000028
 20
-1.060660171779799
 11
5.000001743254769
 21
-22.0999999999993
  0
LINE
  5
175
100
AcDbEntity
  8
builder
  6
ByLayer
 62
  256
370
   -1
100
AcDbLine
 10
10.53033008588973
 20
35.53033008588969
 11
0.5303300858897355
 21
45.53033008588966
  0
LINE
  5
176
100
AcDbEntity
  8
builder
  6
ByLayer
 62
  256
370
   -1
100
AcDbLine
 10
9.469669914110113
 20
34.46966991411009
 11
-0.5303300858898776
 21
44.46966991411006
  0
CIRCLE
  5
177
100
AcDbEntity
  8
builder
  6
ByLayer
 62
  256
370
   -1
100
AcDbCircle
 10
5.000000000000028
 20
39.99999999999991
 40
3
  0
LINE
  5
178
100
AcDbEntity
  8
0
  6
ByLayer
 62
  256
370
   -1
100
AcDbLine
 10
-7.100000000000019
 20
39.99999999999986
 11
3.939339828220283
 21
39.99999999999991
  0
LINE
  5
179
100
AcDbEntity
  8
0
  6
ByLayer
 62
  256
370
   -1
100
AcDbLine
 10
3.939339828220283
 20
39.99999999999991
 11
6.523629504754521
 21
37.41571032346568
  0
LINE
  5
17A
100
AcDbEntity
  8
0
  6
ByLayer
 62
  256
370
   -1
100
AcDbLine
 10
6.523629504754521
 20
37.41571032346568
 11
7.58428967653412
 21
38.47637049524529
  0
LINE
  5
17B
100
AcDbEntity
  8
builder
  6
ByLayer
 62
  256
370
   -1
100
AcDbLine
 10
5.000000000000028
 20
72.10000000000008
 11
5.000000000000028
 21
40.00000000000473
  0
LINE
  5
17C
100
AcDbEntity
  8
0
  6
ByLayer
 62
  256
370
   -1
100
AcDbLine
 10
5.000000000000029
 20
62.10000000000007
 11
5.000000000000028
 21
41.06066017177938
  0
LINE
  5
17D
100
AcDbEntity
  8
0
  6
ByLayer
 62
  256
370
   -1
100
AcDbLine
 10
5.000000000000028
 20
41.06066017177938
 11
7.584289676534862
 21
38.47637049524603
  0
CIRCLE
  5
17E
100
AcDbEntity
  8
builder
  6
ByLayer
 62
  256
370
   -1
100
AcDbCircle
 10
70.99999999999994
 20
35.00000000000014
 40
0.75
  0
CIRCLE
  5
17F
100
AcDbEntity
  8
builder
  6
ByLayer
 62
  256
370
   -1
100
AcDbCircle
 10
70.99999999999997
 20
4.999999999999981
 40
0.75
  0
LINE
  5
180
100
AcDbEntity
  8
builder
  6
ByLayer
 62
  256
370
   -1
100
AcDbLine
 10
70.46966991410991
 20
35.53033008589011
 11
80.46966991411004
 21
45.53033008588985
  0
LINE
  5
181
100
AcDbEntity
  8
builder
  6
ByLayer
 62
  256
370
   -1
100
AcDbLine
 10
71.53032941278241
 20
34.4696692410026
 11
81.53032941278254
 21
44.46966924100234
  0
LINE
  5
182
100
AcDbEntity
  8
builder
  6
ByLayer
 62
  256
370
   -1
100
AcDbLine
 10
71.53033008588865
 20
5.530330085888658
 11
81.53033008588872
 21
-4.469669914111317
  0
LINE
  5
183
100
AcDbEntity
  8
builder
  6
ByLayer
 62
  256
370
   -1
100
AcDbLine
 10
70.46966991411129
 20
4.4696699141113
 11
80.46966991411136
 21
-5.530330085888675
  0
CIRCLE
  5
184
100
AcDbEntity
  8
builder
  6
ByLayer
 62
  256
370
   -1
100
AcDbCircle
 10
75.99999996576199
 20
3.423801864244069e-08
 40
3
  0
CIRCLE
  5
185
100
AcDbEntity
  8
builder
  6
ByLayer
 62
  256
370
   -1
100
AcDbCircle
 10
75.99999999999997
 20
40
 40
3
  0
LINE
  5
186
100
AcDbEntity
  8
builder
  6
ByLayer
 62
  256
370
   -1
100
AcDbLine
 10
76
 20
39.99999999999991
 11
78.09999999999947
 21
40
  0
LINE
  5
187
100
AcDbEntity
  8
0
  6
ByLayer
 62
  256
370
   -1
100
AcDbLine
 10
76
 20
42.10000000000004
 11
76
 21
41.06066017177999
  0
LINE
  5
188
100
AcDbEntity
  8
0
  6
ByLayer
 62
  256
370
   -1
100
AcDbLine
 10
76
 20
41.06066017177999
 11
73.4157103234656
 21
38.47637049524567
  0
LINE
  5
189
100
AcDbEntity
  8
0
  6
ByLayer
 62
  256
370
   -1
100
AcDbLine
 10
73.4157103234656
 20
38.47637049524567
 11
74.47637049524575
 21
37.41571032346582
  0
LINE
  5
18A
100
AcDbEntity
  8
0
  6
ByLayer
 62
  256
370
   -1
100
AcDbLine
 10
74.47637049524575
 20
37.41571032346582
 11
77.06066017177999
 21
39.99999999999996
  0
LINE
  5
18B
100
AcDbEntity
  8
0
  6
ByLayer
 62
  256
370
   -1
100
AcDbLine
 10
77.06066017177999
 20
39.99999999999996
 11
78.09999999999947
 21
40
  0
LINE
  5
18C
100
AcDbEntity
  8
0
  6
ByLayer
 62
  256
370
   -1
100
AcDbLine
 10
78.09999999999977
 20
0
 11
77.06066017177736
 21
0
  0
LINE
  5
18D
100
AcDbEntity
  8
0
  6
ByLayer
 62
  256
370
   -1
100
AcDbLine
 10
77.06066017177736
 20
0
 11
74.4763704610059
 21
2.584289710771434
  0
LINE
  5
18E
100
AcDbEntity
  8
0
  6
ByLayer
 62
  256
370
   -1
100
AcDbLine
 10
74.4763704610059
 20
2.584289710771434
 11
73.41571028922853
 21
1.52362953899409
  0
LINE
  5
18F
100
AcDbEntity
  8
0
  6
ByLayer
 62
  256
370
   -1
100
AcDbLine
 10
73.41571028922853
 20
1.52362953899409
 11
76
 21
-1.060660171777357
  0
LINE
  5
190
100
AcDbEntity
  8
0
  6
ByLayer
 62
  256
370
   -1
100
AcDbLine
 10
76
 20
-1.060660171777357
 11
76.00000174325474
 21
-2.099999999999316
  0
CIRCLE
  5
191
100
AcDbEntity
  8
builder
  6
ByLayer
 62
  256
370
   -1
100
AcDbCircle
 10
5.000000000000028
 20
40.00000000000473
 40
5
  0
CIRCLE
  5
192
100
AcDbEntity
  8
builder
  6
ByLayer
 62
  256
370
   -1
100
AcDbCircle
 10
5.000000000000025
 20
-1.456612608308206e-14
 40
5
  0
LINE
  5
193
100
AcDbEntity
  8
builder
  6
ByLayer
 62
  256
370
   -1
100
AcDbLine
 10
2.486899575160345e-14
 20
0
 11
4.263256414560601e-14
 21
39.99999999999989
  0
LINE
  5
194
100
AcDbEntity
  8
builder
  6
ByLayer
 62
  256
370
   -1
100
AcDbLine
 10
10.00000000000003
 20
40.00000000000473
 11
10.00000000000002
 21
-1.579077288222942e-14
  0
DIMENSION
  5
195
100
AcDbEntity
  8
sizes
  6
ByLayer
 62
  256
370
   -1
100
AcDbDimension
  2
*D1
 10
58.28000000000016
 20
-41.04541575001576
 30
0
 11
40.49999999999986
 21
-37.98291575001576
 31
0
 70
   32
 71
    5
 72
    0
  3
Standard
 53
0
210
0
220
0
230
1
100
AcDbAlignedDimension
 13
22.71999999999957
 23
7.42000000000025
 33
0
 14
58.28000000000016
 24
7.419999999999952
 34
0
100
AcDbRotatedDimension
  0
DIMENSION
  5
196
100
AcDbEntity
  8
sizes
  6
ByLayer
 62
  256
370
   -1
100
AcDbDimension
  2
*D2
 10
126.0308376009339
 20
-5.997117104229452e-15
 30
0
 11
122.9683376009339
 21
10.00000000000004
 31
0
 70
   32
 71
    5
 72
    0
  3
Standard
 53
0
210
0
220
0
230
1
100
AcDbAlignedDimension
 13
66.99999999999994
 23
20.00000000000008
 33
0
 14
77.06066017177736
 24
0
 34
0
 50
90
100
AcDbRotatedDimension
  0
DIMENSION
  5
197
100
AcDbEntity
  8
sizes
  6
ByLayer
 62
  256
370
   -1
100
AcDbDimension
  2
*D3
 10
135.5554353143648
 20
40.00000000000004
 30
0
 11
132.4929353143648
 21
20.00000000000002
 31
0
 70
   32
 71
    5
 72
    0
  3
Standard
 53
0
210
0
220
0
230
1
100
AcDbAlignedDimension
 13
108.0999999999997
 23
0
 33
0
 14
108.0999999999995
 24
40.00000000000004
 34
0
 50
90
100
AcDbRotatedDimension
  0
DIMENSION
  5
198
100
AcDbEntity
  8
sizes
  6
ByLayer
 62
  256
370
   -1
100
AcDbDimension
  2
*D4
 10
76
 20
83.04812694453219
 30
0
 11
71.49999999999997
 21
86.11062694453219
 31
0
 70
   32
 71
    5
 72
    0
  3
Standard
 53
0
210
0
220
0
230
1
100
AcDbAlignedDimension
 13
66.99999999999994
 23
20.00000000000008
 33
0
 14
76
 24
41.06066017177999
 34
0
100
AcDbRotatedDimension
  0
DIMENSION
  5
199
100
AcDbEntity
  8
sizes
  6
ByLayer
 62
  256
370
   -1
100
AcDbDimension
  2
*D5
 10
10.00000000000003
 20
83.18088134582504
 30
0
 11
5.00000000000003
 21
86.24338134582504
 31
0
 70
   32
 71
    5
 72
    0
  3
Standard
 53
0
210
0
220
0
230
1
100
AcDbAlignedDimension
 13
3.375077994860476e-14
 23
20
 33
0
 14
10.00000000000003
 24
19.99999999999999
 34
0
100
AcDbRotatedDimension
  0
DIMENSION
  5
19A
100
AcDbEntity
  8
sizes
  6
ByLayer
 62
  256
370
   -1
100
AcDbDimension
  2
*D6
 10
5.00000174325477
 20
-50.25000000001951
 30
0
 11
40.50000087162739
 21
-47.18750000001951
 31
0
 70
   32
 71
    5
 72
    0
  3
Standard
 53
0
210
0
220
0
230
1
100
AcDbAlignedDimension
 13
76
 23
-32.09999999999934
 33
0
 14
5.000001743254771
 24
-32.0999999999993
 34
0
100
AcDbRotatedDimension
  0
DIMENSION
  5
19B
100
AcDbEntity
  8
sizes
  6
ByLayer
 62
  256
370
   -1
100
AcDbDimension
  2
*D7
 10
70.99999999999994
 20
167.4232500000653
 30
0
 11
40.49999999999999
 21
170.4857500000653
 31
0
 70
   32
 71
    5
 72
    0
  3
Standard
 53
0
210
0
220
0
230
1
100
AcDbAlignedDimension
 13
10.00000000000003
 23
152.111638899866
 33
0
 14
70.99999999999994
 24
152.1116388998661
 34
0
100
AcDbRotatedDimension
  0
DIMENSION
  5
19C
100
AcDbEntity
  8
sizes
  6
ByLayer
 62
  256
370
   -1
100
AcDbDimension
  2
*D8
 10
88.11750000003437
 20
152.1116388998661
 30
0
 11
85.05500000003437
 21
137.1116388998661
 31
0
 70
   32
 71
    5
 72
    0
  3
Standard
 53
0
210
0
220
0
230
1
100
AcDbAlignedDimension
 13
70.99999999999997
 23
122.111638899866
 33
0
 14
70.99999999999994
 24
152.1116388998661
 34
0
 50
90
100
AcDbRotatedDimension
  0
DIMENSION
  5
19D
100
AcDbEntity
  8
sizes
  6
ByLayer
 62
  256
370
   -1
100
AcDbDimension
  2
*D9
 10
64.09755611861263
 20
18.91104659631499
 30
0
 11
65.92421941974652
 21
22.86733367314481
 31
0
 70
   35
 71
    5
 72
    0
  3
Standard
 53
0
210
0
220
0
230
1
100
AcDbDiametricDimension
 15
69.90244388138726
 25
21.08895340368517
 35
0
 40
0
  0
DIMENSION
  5
19E
100
AcDbEntity
  8
sizes
  6
ByLayer
 62
  256
370
   -1
100
AcDbDimension
  2
*D10
 10
20.82221988816211
 20
6.520872285426729
 30
0
 11
21.40877208291318
 21
10.18759599642988
 31
0
 70
   35
 71
    5
 72
    0
  3
Standard
 53
0
210
0
220
0
230
1
100
AcDbDiametricDimension
 15
24.61778011183703
 25
8.319127714573773
 35
0
 40
0
  0
DIMENSION
  5
19F
100
AcDbEntity
  8
sizes
  6
ByLayer
 62
  256
370
   -1
100
AcDbDimension
  2
*D11
 10
96.96280556915642
 20
115.0116388998676
 30
0
 11
93.90030556915642
 21
137.1116388998668
 31
0
 70
   32
 71
    5
 72
    0
  3
Standard
 53
0
210
0
220
0
230
1
100
AcDbAlignedDimension
 13
75.99999999999991
 23
159.2116388998659
 33
0
 14
76
 24
115.0116388998676
 34
0
 50
90
100
AcDbRotatedDimension
  0
DIMENSION
  5
1A0
100
AcDbEntity
  8
sizes
  6
ByLayer
 62
  256
370
   -1
100
AcDbDimension
  2
*D12
 10
78.09999999999977
 20
175.6381891924339
 30
0
 11
40.49999999999997
 21
178.7006891924339
 31
0
 70
   32
 71
    5
 72
    0
  3
Standard
 53
0
210
0
220
0
230
1
100
AcDbAlignedDimension
 13
2.900000000000176
 23
157.1116376353686
 33
0
 14
78.09999999999977
 24
157.1116339540545
 34
0
100
AcDbRotatedDimension
  0
DIMENSION
  5
1A1
100
AcDbEntity
  8
sizes
  6
ByLayer
 62
  256
370
   -1
100
AcDbDimension
  2
*D13
 10
108.0999999999995
 20
83.05165402497079
 30
0
 11
92.04999999999976
 21
86.11415402497079
 31
0
 70
   32
 71
    5
 72
    0
  3
Standard
 53
0
210
0
220
0
230
1
100
AcDbAlignedDimension
 13
76
 23
72.10000000000008
 33
0
 14
108.0999999999995
 24
40.00000000000004
 34
0
100
AcDbRotatedDimension
  0
DIMENSION
  5
1A2
100
AcDbEntity
  8
sizes
  6
ByLayer
 62
  256
370
   -1
100
AcDbDimension
  2
*D14
 10
135.7500000000538
 20
72.10000000000007
 30
0
 11
132.6875000000538
 21
56.05000000000007
 31
0
 70
   32
 71
    5
 72
    0
  3
Standard
 53
0
210
0
220
0
230
1
100
AcDbAlignedDimension
 13
108.0999999999995
 23
40.00000000000004
 33
0
 14
76
 24
72.10000000000008
 34
0
 50
90
100
AcDbRotatedDimension
  0
DIMENSION
  5
1A3
100
AcDbEntity
  8
sizes
  6
ByLayer
 62
  256
370
   -1
100
AcDbDimension
  2
*D15
 10
135.5617283521416
 20
4.637489973065655e-14
 30
0
 11
132.4992283521416
 21
-16.04999999999965
 31
0
 70
   32
 71
    5
 72
    0
  3
Standard
 53
0
210
0
220
0
230
1
100
AcDbAlignedDimension
 13
76.00000174325474
 23
-32.09999999999935
 33
0
 14
108.0999999999997
 24
4.973799150320701e-14
 34
0
 50
90
100
AcDbRotatedDimension
  0
DIMENSION
  5
1A4
100
AcDbEntity
  8
sizes
  6
ByLayer
 62
  256
370
   -1
100
AcDbDimension
  2
*D16
 10
-27.09999999999979
 20
-50.31225000002002
 30
0
 11
-11.04999912837251
 21
-47.24975000002002
 31
0
 70
   32
 71
    5
 72
    0
  3
Standard
 53
0
210
0
220
0
230
1
100
AcDbAlignedDimension
 13
5.000001743254771
 23
-32.0999999999993
 33
0
 14
-27.09999999999978
 24
0
 34
0
100
AcDbRotatedDimension
  0
CIRCLE
  5
1A5
100
AcDbEntity
  8
builder
  6
ByLayer
 62
  256
370
   -1
100
AcDbCircle
 10
5.00000000000002
 20
29.99999999999998
 40
2
  0
CIRCLE
  5
1A6
100
AcDbEntity
  8
builder
  6
ByLayer
 62
  256
370
   -1
100
AcDbCircle
 10
5.00000000000002
 20
10.00000000000001
 40
2
  0
ARC
  5
1A7
100
AcDbEntity
  8
0
  6
ByLayer
 62
  256
370
   -1
100
AcDbCircle
 10
8.899999999999952
 20
19.99999999999998
 40
8.899999999999919
100
AcDbArc
 50
115.9892335838327
 51
244.0107664161673
  0
ARC
  5
1A8
100
AcDbEntity
  8
0
  6
ByLayer
 62
  256
370
   -1
100
AcDbCircle
 10
6.800000000000049
 20
20
 40
8.199999999999976
100
AcDbArc
 50
257.31961650818
 51
102.6803834918188
  0
DIMENSION
  5
1A9
100
AcDbEntity
  8
sizes
  6
ByLayer
 62
  256
370
   -1
100
AcDbDimension
  2
*D17
 10
-37.81882145999754
 20
12.00000000000004
 30
0
 11
-40.88132145999754
 21
19.99999999999998
 31
0
 70
   32
 71
    5
  3
Standard
 53
0
210
0
220
0
230
1
100
AcDbAlignedDimension
 13
5.000000000000027
 23
27.99999999999993
 33
0
 14
5.000000000000028
 24
12.00000000000003
 34
0
 50
90
100
AcDbRotatedDimension
  0
ENDSEC
  0
SECTION
  2
OBJECTS
  0
DICTIONARY
  5
C
330
0
100
AcDbDictionary
281
    1
  3
ACAD_GROUP
350
D
  0
DICTIONARY
  5
D
330
C
100
AcDbDictionary
281
    1
  0
PLOTSETTINGS
  5
1AA
100
AcDbPlotSettings
  6
1x1
 40
2.82
 41
2.82
 42
2.82
 43
5.64
  0
ENDSEC
  0
EOF
