999
dxfrw 0.6.3
  0
SECTION
  2
HEADER
  9
$ACADVER
  1
AC1021
  9
$DWGCODEPAGE
  3
ANSI_1252
  9
$INSBASE
 10
0
 20
0
 30
0
  9
$EXTMIN
 10
-76
 20
-55.5
 30
0
  9
$EXTMAX
 10
127.7732480211164
 20
200.8758333333649
 30
0
  9
$LIMMIN
 10
0
 20
0
  9
$LIMMAX
 10
420
 20
297
  9
$ORTHOMODE
 70
    0
  9
$REGENMODE
 70
    1
  9
$FILLMODE
 70
    1
  9
$QTEXTMODE
 70
    0
  9
$MIRRTEXT
 70
    0
  9
$LTSCALE
 40
1
  9
$ATTMODE
 70
    0
  9
$TEXTSIZE
 40
2.5
  9
$TRACEWID
 40
15.68
  9
$TEXTSTYLE
  7
STANDARD
  9
$CLAYER
  8
builder
  9
$CELTYPE
  6
BYLAYER
  9
$CECOLOR
 62
  256
  9
$CELTSCALE
 40
1
  9
$DISPSILH
 70
    0
  9
$DIMSCALE
 40
2.5
  9
$DIMASZ
 40
2.5
  9
$DIMEXO
 40
0.625
  9
$DIMDLI
 40
3.75
  9
$DIMRND
 40
0
  9
$DIMDLE
 40
0
  9
$DIMEXE
 40
1.25
  9
$DIMTP
 40
0
  9
$DIMTM
 40
0
  9
$DIMTXT
 40
1.2
  9
$DIMCEN
 40
2.5
  9
$DIMTSZ
 40
0
  9
$DIMTOL
 70
    0
  9
$DIMLIM
 70
    0
  9
$DIMTIH
 70
    0
  9
$DIMTOH
 70
    0
  9
$DIMSE1
 70
    0
  9
$DIMSE2
 70
    0
  9
$DIMTAD
 70
    1
  9
$DIMZIN
 70
    8
  9
$DIMBLK
  1

  9
$DIMASO
 70
    1
  9
$DIMSHO
 70
    1
  9
$DIMPOST
  1

  9
$DIMAPOST
  1

  9
$DIMALT
 70
    0
  9
$DIMALTD
 70
    3
  9
$DIMALTF
 40
0.03937
  9
$DIMLFAC
 40
1
  9
$DIMTOFL
 70
    1
  9
$DIMTVP
 40
0
  9
$DIMTIX
 70
    0
  9
$DIMSOXD
 70
    0
  9
$DIMSAH
 70
    0
  9
$DIMBLK1
  1

  9
$DIMBLK2
  1

  9
$DIMSTYLE
  2
STANDARD
  9
$DIMCLRD
 70
    0
  9
$DIMCLRE
 70
    0
  9
$DIMCLRT
 70
    0
  9
$DIMTFAC
 40
1
  9
$DIMGAP
 40
0.625
  9
$DIMJUST
 70
    0
  9
$DIMSD1
 70
    0
  9
$DIMSD2
 70
    0
  9
$DIMTOLJ
 70
    0
  9
$DIMTZIN
 70
    8
  9
$DIMALTZ
 70
    0
  9
$DIMALTTZ
 70
    0
  9
$DIMUPT
 70
    0
  9
$DIMDEC
 70
    2
  9
$DIMTDEC
 70
    2
  9
$DIMALTU
 70
    2
  9
$DIMALTTD
 70
    3
  9
$DIMTXSTY
  7
kst32b
  9
$DIMAUNIT
 70
    0
  9
$DIMADEC
 70
    0
  9
$DIMALTRND
 40
0
  9
$DIMAZIN
 70
    0
  9
$DIMDSEP
 70
   44
  9
$DIMATFIT
 70
    3
  9
$DIMFRAC
 70
    0
  9
$DIMLDRBLK
  1
STANDARD
  9
$DIMLUNIT
 70
    2
  9
$DIMLWD
 70
   -2
  9
$DIMLWE
 70
   -2
  9
$DIMTMOVE
 70
    0
  9
$DIMFXL
 40
1
  9
$DIMFXLON
 70
    0
  9
$DIMJOGANG
 40
0.7854
  9
$DIMTFILL
 70
    0
  9
$DIMTFILLCLR
 70
    0
  9
$DIMARCSYM
 70
    0
  9
$DIMLTYPE
  6

  9
$DIMLTEX1
  6

  9
$DIMLTEX2
  6

  9
$LUNITS
 70
    2
  9
$LUPREC
 70
    4
  9
$SKETCHINC
 40
1
  9
$FILLETRAD
 40
0
  9
$AUNITS
 70
    0
  9
$AUPREC
 70
    2
  9
$MENU
  1
.
  9
$ELEVATION
 40
0
  9
$PELEVATION
 40
0
  9
$THICKNESS
 40
0
  9
$LIMCHECK
 70
    0
  9
$CHAMFERA
 40
0
  9
$CHAMFERB
 40
0
  9
$CHAMFERC
 40
0
  9
$CHAMFERD
 40
0
  9
$SKPOLY
 70
    0
  9
$USRTIMER
 70
    1
  9
$ANGBASE
 50
0
  9
$ANGDIR
 70
    0
  9
$PDMODE
 70
   34
  9
$PDSIZE
 40
0
  9
$PLINEWID
 40
0
  9
$SPLFRAME
 70
    0
  9
$SPLINETYPE
 70
    2
  9
$SPLINESEGS
 70
    8
  9
$HANDSEED
  5
20000
  9
$SURFTAB1
 70
    6
  9
$SURFTAB2
 70
    6
  9
$SURFTYPE
 70
    6
  9
$SURFU
 70
    6
  9
$SURFV
 70
    6
  9
$UCSBASE
  2

  9
$UCSNAME
  2

  9
$UCSORG
 10
0
 20
0
 30
0
  9
$UCSXDIR
 10
1
 20
0
 30
0
  9
$UCSYDIR
 10
0
 20
1
 30
0
  9
$UCSORTHOREF
  2

  9
$UCSORTHOVIEW
 70
    0
  9
$UCSORGTOP
 10
0
 20
0
 30
0
  9
$UCSORGBOTTOM
 10
0
 20
0
 30
0
  9
$UCSORGLEFT
 10
0
 20
0
 30
0
  9
$UCSORGRIGHT
 10
0
 20
0
 30
0
  9
$UCSORGFRONT
 10
0
 20
0
 30
0
  9
$UCSORGBACK
 10
0
 20
0
 30
0
  9
$PUCSBASE
  2

  9
$PUCSNAME
  2

  9
$PUCSORG
 10
0
 20
0
 30
0
  9
$PUCSXDIR
 10
1
 20
0
 30
0
  9
$PUCSYDIR
 10
0
 20
1
 30
0
  9
$PUCSORTHOREF
  2

  9
$PUCSORTHOVIEW
 70
    0
  9
$PUCSORGTOP
 10
0
 20
0
 30
0
  9
$PUCSORGBOTTOM
 10
0
 20
0
 30
0
  9
$PUCSORGLEFT
 10
0
 20
0
 30
0
  9
$PUCSORGRIGHT
 10
0
 20
0
 30
0
  9
$PUCSORGFRONT
 10
0
 20
0
 30
0
  9
$PUCSORGBACK
 10
0
 20
0
 30
0
  9
$USERI1
 70
    0
  9
$USERI2
 70
    0
  9
$USERI3
 70
    0
  9
$USERI4
 70
    0
  9
$USERI5
 70
    0
  9
$USERR1
 40
0
  9
$USERR2
 40
0
  9
$USERR3
 40
0
  9
$USERR4
 40
0
  9
$USERR5
 40
0
  9
$WORLDVIEW
 70
    1
  9
$SHADEDGE
 70
    3
  9
$SHADEDIF
 70
   70
  9
$TILEMODE
 70
    1
  9
$MAXACTVP
 70
   64
  9
$PINSBASE
 10
127.9376932370938
 20
52.00099696331611
 30
0
  9
$PLIMCHECK
 70
    0
  9
$PEXTMIN
 10
0
 20
0
 30
0
  9
$PEXTMAX
 10
0
 20
0
 30
0
  9
$GRIDMODE
 70
    1
  9
$SNAPSTYLE
 70
    0
  9
$GRIDUNIT
 10
0
 20
0
  9
$PLIMMIN
 10
0
 20
0
  9
$PLIMMAX
 10
297
 20
210
  9
$UNITMODE
 70
    0
  9
$VISRETAIN
 70
    1
  9
$PLINEGEN
 70
    0
  9
$PSLTSCALE
 70
    1
  9
$TREEDEPTH
 70
 3020
  9
$CMLSTYLE
  2
Standard
  9
$CMLJUST
 70
    0
  9
$CMLSCALE
 40
20
  9
$PROXYGRAPHICS
 70
    1
  9
$MEASUREMENT
 70
    1
  9
$CELWEIGHT
370
   -1
  9
$ENDCAPS
280
    0
  9
$JOINSTYLE
280
    0
  9
$LWDISPLAY
290
    0
  9
$INSUNITS
 70
    4
  9
$HYPERLINKBASE
  1

  9
$STYLESHEET
  1

  9
$XEDIT
290
    1
  9
$CEPSNTYPE
380
    0
  9
$PSTYLEMODE
290
    1
  9
$EXTNAMES
290
    1
  9
$PSVPSCALE
 40
0.8333333333333334
  9
$OLESTARTUP
290
    0
  9
$SORTENTS
280
  127
  9
$INDEXCTL
280
    0
  9
$HIDETEXT
280
    1
  9
$XCLIPFRAME
290
    0
  9
$HALOGAP
280
    0
  9
$OBSCOLOR
 70
  257
  9
$OBSLTYPE
280
    0
  9
$INTERSECTIONDISPLAY
280
    0
  9
$INTERSECTIONCOLOR
 70
  257
  9
$DIMASSOC
280
    1
  9
$PROJECTNAME
  1

  9
$CAMERADISPLAY
290
    0
  9
$LENSLENGTH
 40
50
  9
$CAMERAHEIGHT
 40
0
  9
$STEPSPERSEC
 40
2
  9
$STEPSIZE
 40
50
  9
$3DDWFPREC
 40
2
  9
$PSOLWIDTH
 40
5
  9
$PSOLHEIGHT
 40
80
  9
$LOFTANG1
 40
1.570796326794897
  9
$LOFTANG2
 40
1.570796326794897
  9
$LOFTMAG1
 40
0
  9
$LOFTMAG2
 40
0
  9
$LOFTPARAM
 70
    7
  9
$LOFTNORMALS
280
    1
  9
$LATITUDE
 40
1
  9
$LONGITUDE
 40
1
  9
$NORTHDIRECTION
 40
0
  9
$TIMEZONE
 70
-8000
  9
$LIGHTGLYPHDISPLAY
280
    1
  9
$TILEMODELIGHTSYNCH
280
    1
  9
$SOLIDHIST
280
    1
  9
$SHOWHIST
280
    1
  9
$DWFFRAME
280
    2
  9
$DGNFRAME
280
    0
  9
$REALWORLDSCALE
290
    1
  9
$INTERFERECOLOR
 62
    1
  9
$CSHADOW
280
    0
  9
$SHADOWPLANELOCATION
 40
0
  0
ENDSEC
  0
SECTION
  2
CLASSES
  0
ENDSEC
  0
SECTION
  2
TABLES
  0
TABLE
  2
VPORT
  5
8
330
0
100
AcDbSymbolTable
 70
    1
  0
VPORT
  5
31
330
2
100
AcDbSymbolTableRecord
100
AcDbViewportTableRecord
  2
*ACTIVE
 70
    0
 10
0
 20
0
 11
1
 21
1
 12
139.4547087408997
 22
109.3222025043944
 13
0
 23
0
 14
10
 24
10
 15
10
 25
10
 16
0
 26
0
 36
1
 17
0
 27
0
 37
0
 40
298.752775247303
 41
1.797047970479705
 42
50
 43
0
 44
0
 50
0
 51
0
 71
    0
 72
  100
 73
    1
 74
    3
 75
    0
 76
    1
 77
    0
 78
    0
281
    0
 65
    1
110
0
120
0
130
0
111
1
121
0
131
0
112
0
122
1
132
0
 79
    0
146
0
348
10020
 60
    7
 61
    5
292
1
282
    1
141
0
142
0
 63
  250
421
3358443
  0
ENDTAB
  0
TABLE
  2
LTYPE
  5
5
330
0
100
AcDbSymbolTable
 70
    4
  0
LTYPE
  5
14
330
5
100
AcDbSymbolTableRecord
100
AcDbLinetypeTableRecord
  2
ByBlock
 70
    0
  3

 72
   65
 73
    0
 40
0
  0
LTYPE
  5
15
330
5
100
AcDbSymbolTableRecord
100
AcDbLinetypeTableRecord
  2
ByLayer
 70
    0
  3

 72
   65
 73
    0
 40
0
  0
LTYPE
  5
16
330
5
100
AcDbSymbolTableRecord
100
AcDbLinetypeTableRecord
  2
Continuous
 70
    0
  3
Solid line
 72
   65
 73
    0
 40
0
  0
LTYPE
  5
32
330
5
100
AcDbSymbolTableRecord
100
AcDbLinetypeTableRecord
  2
DOT
 70
    0
  3
Dot . . . . . . . . . . . . . . . . . . . . . .
 72
   65
 73
    2
 40
6.35
 49
0
 74
    0
 49
-6.35
 74
    0
  0
LTYPE
  5
33
330
5
100
AcDbSymbolTableRecord
100
AcDbLinetypeTableRecord
  2
DOTTINY
 70
    0
  3
Dot (.15x) .....................................
 72
   65
 73
    2
 40
0.9525
 49
0
 74
    0
 49
-0.9525
 74
    0
  0
LTYPE
  5
34
330
5
100
AcDbSymbolTableRecord
100
AcDbLinetypeTableRecord
  2
DOT2
 70
    0
  3
Dot (.5x) .....................................
 72
   65
 73
    2
 40
3.175
 49
0
 74
    0
 49
-3.175
 74
    0
  0
LTYPE
  5
35
330
5
100
AcDbSymbolTableRecord
100
AcDbLinetypeTableRecord
  2
DOTX2
 70
    0
  3
Dot (2x) .  .  .  .  .  .  .  .  .  .  .  .  .
 72
   65
 73
    2
 40
12.7
 49
0
 74
    0
 49
-12.7
 74
    0
  0
LTYPE
  5
36
330
5
100
AcDbSymbolTableRecord
100
AcDbLinetypeTableRecord
  2
DASHED
 70
    0
  3
Dashed _ _ _ _ _ _ _ _ _ _ _ _ _ _ _ _ _
 72
   65
 73
    2
 40
19.05
 49
12.7
 74
    0
 49
-6.35
 74
    0
  0
LTYPE
  5
37
330
5
100
AcDbSymbolTableRecord
100
AcDbLinetypeTableRecord
  2
DASHEDTINY
 70
    0
  3
Dashed (.15x) _ _ _ _ _ _ _ _ _ _ _ _ _ _ _ _ _
 72
   65
 73
    2
 40
2.8575
 49
1.905
 74
    0
 49
-0.9525
 74
    0
  0
LTYPE
  5
38
330
5
100
AcDbSymbolTableRecord
100
AcDbLinetypeTableRecord
  2
DASHED2
 70
    0
  3
Dashed (.5x) _ _ _ _ _ _ _ _ _ _ _ _ _ _ _ _ _
 72
   65
 73
    2
 40
9.524999999999999
 49
6.35
 74
    0
 49
-3.175
 74
    0
  0
LTYPE
  5
39
330
5
100
AcDbSymbolTableRecord
100
AcDbLinetypeTableRecord
  2
DASHEDX2
 70
    0
  3
Dashed (2x) ____  ____  ____  ____  ____  ___
 72
   65
 73
    2
 40
38.09999999999999
 49
25.4
 74
    0
 49
-12.7
 74
    0
  0
LTYPE
  5
3A
330
5
100
AcDbSymbolTableRecord
100
AcDbLinetypeTableRecord
  2
DASHDOT
 70
    0
  3
Dash dot __ . __ . __ . __ . __ . __ . __ . __
 72
   65
 73
    4
 40
25.4
 49
12.7
 74
    0
 49
-6.35
 74
    0
 49
0
 74
    0
 49
-6.35
 74
    0
  0
LTYPE
  5
3B
330
5
100
AcDbSymbolTableRecord
100
AcDbLinetypeTableRecord
  2
DASHDOTTINY
 70
    0
  3
Dash dot (.15x) _._._._._._._._._._._._._._._.
 72
   65
 73
    4
 40
3.81
 49
1.905
 74
    0
 49
-0.9525
 74
    0
 49
0
 74
    0
 49
-0.9525
 74
    0
  0
LTYPE
  5
3C
330
5
100
AcDbSymbolTableRecord
100
AcDbLinetypeTableRecord
  2
DASHDOT2
 70
    0
  3
Dash dot (.5x) _._._._._._._._._._._._._._._.
 72
   65
 73
    4
 40
12.7
 49
6.35
 74
    0
 49
-3.175
 74
    0
 49
0
 74
    0
 49
-3.175
 74
    0
  0
LTYPE
  5
3D
330
5
100
AcDbSymbolTableRecord
100
AcDbLinetypeTableRecord
  2
DASHDOTX2
 70
    0
  3
Dash dot (2x) ____  .  ____  .  ____  .  ___
 72
   65
 73
    4
 40
50.8
 49
25.4
 74
    0
 49
-12.7
 74
    0
 49
0
 74
    0
 49
-12.7
 74
    0
  0
LTYPE
  5
3E
330
5
100
AcDbSymbolTableRecord
100
AcDbLinetypeTableRecord
  2
DIVIDE
 70
    0
  3
Divide ____ . . ____ . . ____ . . ____ . . ____
 72
   65
 73
    6
 40
31.75
 49
12.7
 74
    0
 49
-6.35
 74
    0
 49
0
 74
    0
 49
-6.35
 74
    0
 49
0
 74
    0
 49
-6.35
 74
    0
  0
LTYPE
  5
3F
330
5
100
AcDbSymbolTableRecord
100
AcDbLinetypeTableRecord
  2
DIVIDETINY
 70
    0
  3
Divide (.15x) __..__..__..__..__..__..__..__.._
 72
   65
 73
    6
 40
4.7625
 49
1.905
 74
    0
 49
-0.9525
 74
    0
 49
0
 74
    0
 49
-0.9525
 74
    0
 49
0
 74
    0
 49
-0.9525
 74
    0
  0
LTYPE
  5
40
330
5
100
AcDbSymbolTableRecord
100
AcDbLinetypeTableRecord
  2
DIVIDE2
 70
    0
  3
Divide (.5x) __..__..__..__..__..__..__..__.._
 72
   65
 73
    6
 40
15.875
 49
6.35
 74
    0
 49
-3.175
 74
    0
 49
0
 74
    0
 49
-3.175
 74
    0
 49
0
 74
    0
 49
-3.175
 74
    0
  0
LTYPE
  5
41
330
5
100
AcDbSymbolTableRecord
100
AcDbLinetypeTableRecord
  2
DIVIDEX2
 70
    0
  3
Divide (2x) ________  .  .  ________  .  .  _
 72
   65
 73
    6
 40
63.5
 49
25.4
 74
    0
 49
-12.7
 74
    0
 49
0
 74
    0
 49
-12.7
 74
    0
 49
0
 74
    0
 49
-12.7
 74
    0
  0
LTYPE
  5
42
330
5
100
AcDbSymbolTableRecord
100
AcDbLinetypeTableRecord
  2
BORDER
 70
    0
  3
Border __ __ . __ __ . __ __ . __ __ . __ __ .
 72
   65
 73
    6
 40
44.45
 49
12.7
 74
    0
 49
-6.35
 74
    0
 49
12.7
 74
    0
 49
-6.35
 74
    0
 49
0
 74
    0
 49
-6.35
 74
    0
  0
LTYPE
  5
43
330
5
100
AcDbSymbolTableRecord
100
AcDbLinetypeTableRecord
  2
BORDERTINY
 70
    0
  3
Border (.15x) __.__.__.__.__.__.__.__.__.__.__.
 72
   65
 73
    6
 40
6.6675
 49
1.905
 74
    0
 49
-0.9525
 74
    0
 49
1.905
 74
    0
 49
-0.9525
 74
    0
 49
0
 74
    0
 49
-0.9525
 74
    0
  0
LTYPE
  5
44
330
5
100
AcDbSymbolTableRecord
100
AcDbLinetypeTableRecord
  2
BORDER2
 70
    0
  3
Border (.5x) __.__.__.__.__.__.__.__.__.__.__.
 72
   65
 73
    6
 40
22.225
 49
6.35
 74
    0
 49
-3.175
 74
    0
 49
6.35
 74
    0
 49
-3.175
 74
    0
 49
0
 74
    0
 49
-3.175
 74
    0
  0
LTYPE
  5
45
330
5
100
AcDbSymbolTableRecord
100
AcDbLinetypeTableRecord
  2
BORDERX2
 70
    0
  3
Border (2x) ____  ____  .  ____  ____  .  ___
 72
   65
 73
    6
 40
88.89999999999999
 49
25.4
 74
    0
 49
-12.7
 74
    0
 49
25.4
 74
    0
 49
-12.7
 74
    0
 49
0
 74
    0
 49
-12.7
 74
    0
  0
LTYPE
  5
46
330
5
100
AcDbSymbolTableRecord
100
AcDbLinetypeTableRecord
  2
CENTER
 70
    0
  3
Center ____ _ ____ _ ____ _ ____ _ ____ _ ____
 72
   65
 73
    4
 40
50.8
 49
31.75
 74
    0
 49
-6.35
 74
    0
 49
6.35
 74
    0
 49
-6.35
 74
    0
  0
LTYPE
  5
47
330
5
100
AcDbSymbolTableRecord
100
AcDbLinetypeTableRecord
  2
CENTERTINY
 70
    0
  3
Center (.15x) ___ _ ___ _ ___ _ ___ _ ___ _ ___
 72
   65
 73
    4
 40
7.619999999999999
 49
4.7625
 74
    0
 49
-0.9525
 74
    0
 49
0.9525
 74
    0
 49
-0.9525
 74
    0
  0
LTYPE
  5
48
330
5
100
AcDbSymbolTableRecord
100
AcDbLinetypeTableRecord
  2
CENTER2
 70
    0
  3
Center (.5x) ___ _ ___ _ ___ _ ___ _ ___ _ ___
 72
   65
 73
    4
 40
28.575
 49
19.05
 74
    0
 49
-3.175
 74
    0
 49
3.175
 74
    0
 49
-3.175
 74
    0
  0
LTYPE
  5
49
330
5
100
AcDbSymbolTableRecord
100
AcDbLinetypeTableRecord
  2
CENTERX2
 70
    0
  3
Center (2x) ________  __  ________  __  _____
 72
   65
 73
    4
 40
101.6
 49
63.5
 74
    0
 49
-12.7
 74
    0
 49
12.7
 74
    0
 49
-12.7
 74
    0
  0
ENDTAB
  0
TABLE
  2
LAYER
  5
2
330
0
100
AcDbSymbolTable
 70
    1
  0
LAYER
  5
10
330
2
100
AcDbSymbolTableRecord
100
AcDbLayerTableRecord
  2
0
 70
    0
 62
    7
  6
CONTINUOUS
370
   35
390
F
  0
LAYER
  5
4A
330
2
100
AcDbSymbolTableRecord
100
AcDbLayerTableRecord
  2
InternalComps
 70
    0
 62
  136
420
32896
  6
DASHEDTINY
370
    0
390
F
  0
LAYER
  5
4B
330
2
100
AcDbSymbolTableRecord
100
AcDbLayerTableRecord
  2
builder
 70
    0
 62
    9
  6
DASHEDTINY
370
   -3
390
F
  0
LAYER
  5
4C
330
2
100
AcDbSymbolTableRecord
100
AcDbLayerTableRecord
  2
sizes
 70
    0
 62
    6
  6
CONTINUOUS
370
   25
390
F
  0
ENDTAB
  0
TABLE
  2
STYLE
  5
3
330
0
100
AcDbSymbolTable
 70
    3
  0
STYLE
  5
4D
330
2
100
AcDbSymbolTableRecord
100
AcDbTextStyleTableRecord
  2
Standard
 70
    0
 40
0
 41
1
 50
0
 71
    0
 42
1
  3
txt
  4

  0
ENDTAB
  0
TABLE
  2
VIEW
  5
6
330
0
100
AcDbSymbolTable
 70
    0
  0
ENDTAB
  0
TABLE
  2
UCS
  5
7
330
0
100
AcDbSymbolTable
 70
    0
  0
ENDTAB
  0
TABLE
  2
APPID
  5
9
330
0
100
AcDbSymbolTable
 70
    1
  0
APPID
  5
12
330
9
100
AcDbSymbolTableRecord
100
AcDbRegAppTableRecord
  2
ACAD
 70
    0
  0
APPID
  5
4E
330
9
100
AcDbSymbolTableRecord
100
AcDbRegAppTableRecord
  2
LibreCad
 70
    0
  0
ENDTAB
  0
TABLE
  2
DIMSTYLE
  5
A
330
0
100
AcDbSymbolTable
 70
    1
100
AcDbDimStyleTable
 71
    1
  0
DIMSTYLE
105
4F
330
A
100
AcDbSymbolTableRecord
100
AcDbDimStyleTableRecord
  2
Standard
 70
    0
 40
2.5
 41
2.5
 42
0.625
 43
0.38
 44
1.25
 45
0
 46
0
 47
0
 48
0
 49
1
140
1.2
141
0.09
142
0
143
25.4
144
1
145
0
146
1
147
0.625
148
0
 71
    0
 72
    0
 73
    0
 74
    1
 75
    0
 76
    0
 77
    0
 78
    8
 79
    0
170
    0
171
    2
172
    0
173
    0
174
    0
175
    0
176
    0
177
    0
178
    0
179
    0
271
    2
272
    4
273
    2
274
    2
275
    0
276
    0
277
    2
278
   44
279
    0
280
    0
281
    0
282
    0
283
    1
284
    0
285
    0
286
    0
288
    0
289
    3
  0
ENDTAB
  0
TABLE
  2
BLOCK_RECORD
  5
1
330
0
100
AcDbSymbolTable
 70
    2
  0
BLOCK_RECORD
  5
1F
330
1
100
AcDbSymbolTableRecord
100
AcDbBlockTableRecord
  2
*Model_Space
 70
    0
280
    1
281
    0
  0
BLOCK_RECORD
  5
1E
330
1
100
AcDbSymbolTableRecord
100
AcDbBlockTableRecord
  2
*Paper_Space
 70
    0
280
    1
281
    0
  0
BLOCK_RECORD
  5
50
330
1
100
AcDbSymbolTableRecord
100
AcDbBlockTableRecord
  2
*D3
 70
    0
280
    1
281
    0
  0
BLOCK_RECORD
  5
53
330
1
100
AcDbSymbolTableRecord
100
AcDbBlockTableRecord
  2
*D24
 70
    0
280
    1
281
    0
  0
BLOCK_RECORD
  5
56
330
1
100
AcDbSymbolTableRecord
100
AcDbBlockTableRecord
  2
*D15
 70
    0
280
    1
281
    0
  0
BLOCK_RECORD
  5
59
330
1
100
AcDbSymbolTableRecord
100
AcDbBlockTableRecord
  2
*D14
 70
    0
280
    1
281
    0
  0
BLOCK_RECORD
  5
5C
330
1
100
AcDbSymbolTableRecord
100
AcDbBlockTableRecord
  2
*D1
 70
    0
280
    1
281
    0
  0
BLOCK_RECORD
  5
5F
330
1
100
AcDbSymbolTableRecord
100
AcDbBlockTableRecord
  2
*D5
 70
    0
280
    1
281
    0
  0
BLOCK_RECORD
  5
62
330
1
100
AcDbSymbolTableRecord
100
AcDbBlockTableRecord
  2
*D27
 70
    0
280
    1
281
    0
  0
BLOCK_RECORD
  5
65
330
1
100
AcDbSymbolTableRecord
100
AcDbBlockTableRecord
  2
*D7
 70
    0
280
    1
281
    0
  0
BLOCK_RECORD
  5
68
330
1
100
AcDbSymbolTableRecord
100
AcDbBlockTableRecord
  2
*D21
 70
    0
280
    1
281
    0
  0
BLOCK_RECORD
  5
6B
330
1
100
AcDbSymbolTableRecord
100
AcDbBlockTableRecord
  2
*D25
 70
    0
280
    1
281
    0
  0
BLOCK_RECORD
  5
6E
330
1
100
AcDbSymbolTableRecord
100
AcDbBlockTableRecord
  2
*D11
 70
    0
280
    1
281
    0
  0
BLOCK_RECORD
  5
71
330
1
100
AcDbSymbolTableRecord
100
AcDbBlockTableRecord
  2
*D16
 70
    0
280
    1
281
    0
  0
BLOCK_RECORD
  5
74
330
1
100
AcDbSymbolTableRecord
100
AcDbBlockTableRecord
  2
*D26
 70
    0
280
    1
281
    0
  0
BLOCK_RECORD
  5
77
330
1
100
AcDbSymbolTableRecord
100
AcDbBlockTableRecord
  2
*D2
 70
    0
280
    1
281
    0
  0
BLOCK_RECORD
  5
7A
330
1
100
AcDbSymbolTableRecord
100
AcDbBlockTableRecord
  2
*D18
 70
    0
280
    1
281
    0
  0
BLOCK_RECORD
  5
7D
330
1
100
AcDbSymbolTableRecord
100
AcDbBlockTableRecord
  2
*D9
 70
    0
280
    1
281
    0
  0
BLOCK_RECORD
  5
80
330
1
100
AcDbSymbolTableRecord
100
AcDbBlockTableRecord
  2
*D6
 70
    0
280
    1
281
    0
  0
BLOCK_RECORD
  5
83
330
1
100
AcDbSymbolTableRecord
100
AcDbBlockTableRecord
  2
*D20
 70
    0
280
    1
281
    0
  0
BLOCK_RECORD
  5
86
330
1
100
AcDbSymbolTableRecord
100
AcDbBlockTableRecord
  2
*D22
 70
    0
280
    1
281
    0
  0
BLOCK_RECORD
  5
89
330
1
100
AcDbSymbolTableRecord
100
AcDbBlockTableRecord
  2
*D13
 70
    0
280
    1
281
    0
  0
BLOCK_RECORD
  5
8C
330
1
100
AcDbSymbolTableRecord
100
AcDbBlockTableRecord
  2
*D10
 70
    0
280
    1
281
    0
  0
BLOCK_RECORD
  5
8F
330
1
100
AcDbSymbolTableRecord
100
AcDbBlockTableRecord
  2
*D23
 70
    0
280
    1
281
    0
  0
BLOCK_RECORD
  5
92
330
1
100
AcDbSymbolTableRecord
100
AcDbBlockTableRecord
  2
*D28
 70
    0
280
    1
281
    0
  0
BLOCK_RECORD
  5
95
330
1
100
AcDbSymbolTableRecord
100
AcDbBlockTableRecord
  2
*D19
 70
    0
280
    1
281
    0
  0
BLOCK_RECORD
  5
98
330
1
100
AcDbSymbolTableRecord
100
AcDbBlockTableRecord
  2
*D17
 70
    0
280
    1
281
    0
  0
BLOCK_RECORD
  5
9B
330
1
100
AcDbSymbolTableRecord
100
AcDbBlockTableRecord
  2
*D8
 70
    0
280
    1
281
    0
  0
BLOCK_RECORD
  5
9E
330
1
100
AcDbSymbolTableRecord
100
AcDbBlockTableRecord
  2
*D4
 70
    0
280
    1
281
    0
  0
BLOCK_RECORD
  5
A1
330
1
100
AcDbSymbolTableRecord
100
AcDbBlockTableRecord
  2
*D12
 70
    0
280
    1
281
    0
  0
ENDTAB
  0
ENDSEC
  0
SECTION
  2
BLOCKS
  0
BLOCK
  5
20
330
1F
100
AcDbEntity
  8
0
100
AcDbBlockBegin
  2
*Model_Space
 70
    0
 10
0
 20
0
 30
0
  3
*Model_Space
  1

  0
ENDBLK
  5
21
330
1F
100
AcDbEntity
  8
0
100
AcDbBlockEnd
  0
BLOCK
  5
1C
330
1B
100
AcDbEntity
  8
0
100
AcDbBlockBegin
  2
*Paper_Space
 70
    0
 10
0
 20
0
 30
0
  3
*Paper_Space
  1

  0
ENDBLK
  5
1D
330
1F
100
AcDbEntity
  8
0
100
AcDbBlockEnd
  0
BLOCK
  5
51
330
50
100
AcDbEntity
  8
0
100
AcDbBlockBegin
  2
*D3
 70
    1
 10
0
 20
0
  3
*D3
  1

  0
LINE
  5
A4
100
AcDbEntity
  8
sizes
  6
ByBlock
 62
    0
370
   -2
100
AcDbLine
 10
84.4222500000069
 20
7.105427357601002e-15
 11
84.4222500000069
 21
56.99999999999999
  0
MTEXT
  5
A5
100
AcDbEntity
  8
sizes
  6
CONTINUOUS
 62
    0
370
   -2
100
AcDbMText
 10
81.3597500000069
 20
28.5
 30
0
 40
3
 41
3.813333333333333
 71
    5
 72
    1
  1
57
  7
kst32b
210
0
220
0
230
1
 50
90
 73
    2
 44
1
  0
SOLID
  5
A6
100
AcDbEntity
  8
sizes
  6
ByBlock
 62
    0
370
   -2
100
AcDbTrace
 10
84.4222500000069
 20
7.105427357601002e-15
 30
0
 11
83.3815383555748
 21
6.250000000000007
 31
0
 12
85.46296164443901
 22
6.250000000000007
 32
0
 13
85.46296164443901
 23
6.250000000000007
 33
0
  0
SOLID
  5
A7
100
AcDbEntity
  8
sizes
  6
ByBlock
 62
    0
370
   -2
100
AcDbTrace
 10
84.4222500000069
 20
56.99999999999999
 30
0
 11
85.46296164443901
 21
50.74999999999999
 31
0
 12
83.38153835557479
 22
50.74999999999999
 32
0
 13
83.38153835557479
 23
50.74999999999999
 33
0
  0
LINE
  5
A8
100
AcDbEntity
  8
sizes
  6
ByBlock
 62
    0
370
   -2
100
AcDbLine
 10
77.5625
 20
1.387778780781446e-15
 11
87.5472500000069
 21
9.880984919163893e-15
  0
LINE
  5
A9
100
AcDbEntity
  8
sizes
  6
ByBlock
 62
    0
370
   -2
100
AcDbLine
 10
28.56249999999999
 20
56.99999999999999
 11
87.5472500000069
 21
56.99999999999999
  0
ENDBLK
  5
52
330
50
100
AcDbEntity
  8
0
100
AcDbBlockEnd
  0
BLOCK
  5
54
330
53
100
AcDbEntity
  8
0
100
AcDbBlockBegin
  2
*D24
 70
    1
 10
0
 20
0
  3
*D24
  1

  0
LINE
  5
AA
100
AcDbEntity
  8
sizes
  6
ByBlock
 62
    0
370
   -2
100
AcDbLine
 10
27.00000000000002
 20
118.9483771752105
 11
10.00000000000003
 21
118.9483771752105
  0
MTEXT
  5
AB
100
AcDbEntity
  8
sizes
  6
CONTINUOUS
 62
    0
370
   -2
100
AcDbMText
 10
18.50000000000002
 20
122.0108771752105
 30
0
 40
3
 41
2.98
 71
    5
 72
    1
  1
17
  7
kst32b
210
0
220
0
230
1
 50
0
 73
    2
 44
1
  0
SOLID
  5
AC
100
AcDbEntity
  8
sizes
  6
ByBlock
 62
    0
370
   -2
100
AcDbTrace
 10
27.00000000000002
 20
118.9483771752105
 30
0
 11
20.75000000000002
 21
117.9076655307783
 31
0
 12
20.75000000000002
 22
119.9890888196426
 32
0
 13
20.75000000000002
 23
119.9890888196426
 33
0
  0
SOLID
  5
AD
100
AcDbEntity
  8
sizes
  6
ByBlock
 62
    0
370
   -2
100
AcDbTrace
 10
10.00000000000003
 20
118.9483771752105
 30
0
 11
16.25000000000003
 21
119.9890888196425
 31
0
 12
16.25000000000003
 22
117.9076655307783
 32
0
 13
16.25000000000003
 23
117.9076655307783
 33
0
  0
LINE
  5
AE
100
AcDbEntity
  8
sizes
  6
ByBlock
 62
    0
370
   -2
100
AcDbLine
 10
27.00000000000002
 20
173.684386299261
 11
27.00000000000002
 21
115.8233771752105
  0
LINE
  5
AF
100
AcDbEntity
  8
sizes
  6
ByBlock
 62
    0
370
   -2
100
AcDbLine
 10
10.00000000000003
 20
161.6843862992611
 11
10.00000000000003
 21
115.8233771752105
  0
ENDBLK
  5
55
330
53
100
AcDbEntity
  8
0
100
AcDbBlockEnd
  0
BLOCK
  5
57
330
56
100
AcDbEntity
  8
0
100
AcDbBlockBegin
  2
*D15
 70
    1
 10
0
 20
0
  3
*D15
  1

  0
LINE
  5
B0
100
AcDbEntity
  8
sizes
  6
ByBlock
 62
    0
370
   -2
100
AcDbLine
 10
90.7340000000071
 20
46.5160976584935
 11
125.7340000000071
 21
46.5160976584935
  0
MTEXT
  5
B1
100
AcDbEntity
  8
sizes
  6
CONTINUOUS
 62
    0
370
   -2
100
AcDbMText
 10
108.2340000000071
 20
49.5785976584935
 30
0
 40
3
 41
2.873333333333333
 71
    5
 72
    1
  1
10
  7
kst32b
210
0
220
0
230
1
 50
0
 73
    2
 44
1
  0
SOLID
  5
B2
100
AcDbEntity
  8
sizes
  6
ByBlock
 62
    0
370
   -2
100
AcDbTrace
 10
103.2340000000071
 20
46.5160976584935
 30
0
 11
96.9840000000071
 21
45.4753860140614
 31
0
 12
96.9840000000071
 22
47.5568093029256
 32
0
 13
96.9840000000071
 23
47.5568093029256
 33
0
  0
SOLID
  5
B3
100
AcDbEntity
  8
sizes
  6
ByBlock
 62
    0
370
   -2
100
AcDbTrace
 10
113.2340000000071
 20
46.5160976584935
 30
0
 11
119.4840000000071
 21
47.5568093029256
 31
0
 12
119.4840000000071
 22
45.4753860140614
 32
0
 13
119.4840000000071
 23
45.4753860140614
 33
0
  0
LINE
  5
B4
100
AcDbEntity
  8
sizes
  6
ByBlock
 62
    0
370
   -2
100
AcDbLine
 10
103.2340000000071
 20
36.56250000000014
 11
103.2340000000071
 21
49.6410976584935
  0
LINE
  5
B5
100
AcDbEntity
  8
sizes
  6
ByBlock
 62
    0
370
   -2
100
AcDbLine
 10
113.2340000000071
 20
41.56249999999999
 11
113.2340000000071
 21
49.6410976584935
  0
ENDBLK
  5
58
330
56
100
AcDbEntity
  8
0
100
AcDbBlockEnd
  0
BLOCK
  5
5A
330
59
100
AcDbEntity
  8
0
100
AcDbBlockBegin
  2
*D14
 70
    1
 10
0
 20
0
  3
*D14
  1

  0
LINE
  5
B6
100
AcDbEntity
  8
sizes
  6
ByBlock
 62
    0
370
   -2
100
AcDbLine
 10
84.35317725000832
 20
72.98056300275478
 11
84.35317725000832
 21
92.98056300275479
  0
MTEXT
  5
B7
100
AcDbEntity
  8
sizes
  6
CONTINUOUS
 62
    0
370
   -2
100
AcDbMText
 10
81.29067725000832
 20
82.98056300275478
 30
0
 40
3
 41
3.813333333333333
 71
    5
 72
    1
  1
20
  7
kst32b
210
0
220
0
230
1
 50
90
 73
    2
 44
1
  0
SOLID
  5
B8
100
AcDbEntity
  8
sizes
  6
ByBlock
 62
    0
370
   -2
100
AcDbTrace
 10
84.35317725000832
 20
72.98056300275478
 30
0
 11
83.31246560557622
 21
79.23056300275478
 31
0
 12
85.39388889444042
 22
79.23056300275478
 32
0
 13
85.39388889444042
 23
79.23056300275478
 33
0
  0
SOLID
  5
B9
100
AcDbEntity
  8
sizes
  6
ByBlock
 62
    0
370
   -2
100
AcDbTrace
 10
84.35317725000832
 20
92.98056300275479
 30
0
 11
85.39388889444042
 21
86.73056300275479
 31
0
 12
83.31246560557621
 22
86.73056300275479
 32
0
 13
83.31246560557621
 23
86.73056300275479
 33
0
  0
LINE
  5
BA
100
AcDbEntity
  8
sizes
  6
ByBlock
 62
    0
370
   -2
100
AcDbLine
 10
77.5625
 20
72.98056300275478
 11
87.47817725000832
 21
72.98056300275478
  0
LINE
  5
BB
100
AcDbEntity
  8
sizes
  6
ByBlock
 62
    0
370
   -2
100
AcDbLine
 10
77.5625
 20
92.98056300275479
 11
87.47817725000832
 21
92.98056300275479
  0
ENDBLK
  5
5B
330
59
100
AcDbEntity
  8
0
100
AcDbBlockEnd
  0
BLOCK
  5
5D
330
5C
100
AcDbEntity
  8
0
100
AcDbBlockBegin
  2
*D1
 70
    1
 10
0
 20
0
  3
*D1
  1

  0
LINE
  5
BC
100
AcDbEntity
  8
sizes
  6
ByBlock
 62
    0
370
   -2
100
AcDbLine
 10
-20
 20
-50.18671553100094
 11
76
 21
-50.18671553100094
  0
MTEXT
  5
BD
100
AcDbEntity
  8
sizes
  6
CONTINUOUS
 62
    0
370
   -2
100
AcDbMText
 10
28
 20
-47.12421553100094
 30
0
 40
3
 41
3.706666666666666
 71
    5
 72
    1
  1
96
  7
kst32b
210
0
220
0
230
1
 50
0
 73
    2
 44
1
  0
SOLID
  5
BE
100
AcDbEntity
  8
sizes
  6
ByBlock
 62
    0
370
   -2
100
AcDbTrace
 10
-20
 20
-50.18671553100094
 30
0
 11
-13.75
 21
-49.14600388656884
 31
0
 12
-13.75
 22
-51.22742717543304
 32
0
 13
-13.75
 23
-51.22742717543304
 33
0
  0
SOLID
  5
BF
100
AcDbEntity
  8
sizes
  6
ByBlock
 62
    0
370
   -2
100
AcDbTrace
 10
76
 20
-50.18671553100094
 30
0
 11
69.75
 21
-51.22742717543304
 31
0
 12
69.75
 22
-49.14600388656884
 32
0
 13
69.75
 23
-49.14600388656884
 33
0
  0
LINE
  5
C0
100
AcDbEntity
  8
sizes
  6
ByBlock
 62
    0
370
   -2
100
AcDbLine
 10
-20
 20
-42.06250000000068
 11
-20
 21
-53.31171553100094
  0
LINE
  5
C1
100
AcDbEntity
  8
sizes
  6
ByBlock
 62
    0
370
   -2
100
AcDbLine
 10
76
 20
-42.06250000000075
 11
76
 21
-53.31171553100094
  0
ENDBLK
  5
5E
330
5C
100
AcDbEntity
  8
0
100
AcDbBlockEnd
  0
BLOCK
  5
60
330
5F
100
AcDbEntity
  8
0
100
AcDbBlockBegin
  2
*D5
 70
    1
 10
0
 20
0
  3
*D5
  1

  0
LINE
  5
C2
100
AcDbEntity
  8
sizes
  6
ByBlock
 62
    0
370
   -2
100
AcDbLine
 10
-25.9511696200516
 20
57
 11
-25.9511696200516
 21
40
  0
MTEXT
  5
C3
100
AcDbEntity
  8
sizes
  6
CONTINUOUS
 62
    0
370
   -2
100
AcDbMText
 10
-29.0136696200516
 20
48.5
 30
0
 40
3
 41
2.98
 71
    5
 72
    1
  1
17
  7
kst32b
210
0
220
0
230
1
 50
90
 73
    2
 44
1
  0
SOLID
  5
C4
100
AcDbEntity
  8
sizes
  6
ByBlock
 62
    0
370
   -2
100
AcDbTrace
 10
-25.9511696200516
 20
57
 30
0
 11
-24.9104579756195
 21
50.75
 31
0
 12
-26.9918812644837
 22
50.75
 32
0
 13
-26.9918812644837
 23
50.75
 33
0
  0
SOLID
  5
C5
100
AcDbEntity
  8
sizes
  6
ByBlock
 62
    0
370
   -2
100
AcDbTrace
 10
-25.9511696200516
 20
40
 30
0
 11
-26.9918812644837
 21
46.25
 31
0
 12
-24.9104579756195
 22
46.25
 32
0
 13
-24.9104579756195
 23
46.25
 33
0
  0
LINE
  5
C6
100
AcDbEntity
  8
sizes
  6
ByBlock
 62
    0
370
   -2
100
AcDbLine
 10
25.43749999999999
 20
56.99999999999999
 11
-29.0761696200516
 21
57
  0
LINE
  5
C7
100
AcDbEntity
  8
sizes
  6
ByBlock
 62
    0
370
   -2
100
AcDbLine
 10
3.437500000000028
 20
40
 11
-29.0761696200516
 21
40
  0
ENDBLK
  5
61
330
5F
100
AcDbEntity
  8
0
100
AcDbBlockEnd
  0
BLOCK
  5
63
330
62
100
AcDbEntity
  8
0
100
AcDbBlockBegin
  2
*D27
 70
    1
 10
0
 20
0
  3
*D27
  1

  0
LINE
  5
C8
100
AcDbEntity
  8
sizes
  6
ByBlock
 62
    0
370
   -2
100
AcDbLine
 10
79
 20
196.5000000000316
 11
27.00000000000002
 21
196.5000000000316
  0
MTEXT
  5
C9
100
AcDbEntity
  8
sizes
  6
CONTINUOUS
 62
    0
370
   -2
100
AcDbMText
 10
53.00000000000001
 20
199.5625000000316
 30
0
 40
3
 41
3.813333333333333
 71
    5
 72
    1
  1
52
  7
kst32b
210
0
220
0
230
1
 50
0
 73
    2
 44
1
  0
SOLID
  5
CA
100
AcDbEntity
  8
sizes
  6
ByBlock
 62
    0
370
   -2
100
AcDbTrace
 10
79
 20
196.5000000000316
 30
0
 11
72.75
 21
195.4592883555995
 31
0
 12
72.75
 22
197.5407116444637
 32
0
 13
72.75
 23
197.5407116444637
 33
0
  0
SOLID
  5
CB
100
AcDbEntity
  8
sizes
  6
ByBlock
 62
    0
370
   -2
100
AcDbTrace
 10
27.00000000000002
 20
196.5000000000316
 30
0
 11
33.25000000000002
 21
197.5407116444637
 31
0
 12
33.25000000000002
 22
195.4592883555995
 32
0
 13
33.25000000000002
 23
195.4592883555995
 33
0
  0
LINE
  5
CC
100
AcDbEntity
  8
sizes
  6
ByBlock
 62
    0
370
   -2
100
AcDbLine
 10
79
 20
169.8093862992627
 11
79
 21
199.6250000000316
  0
LINE
  5
CD
100
AcDbEntity
  8
sizes
  6
ByBlock
 62
    0
370
   -2
100
AcDbLine
 10
27.00000000000002
 20
176.809386299261
 11
27.00000000000002
 21
199.6250000000316
  0
ENDBLK
  5
64
330
62
100
AcDbEntity
  8
0
100
AcDbBlockEnd
  0
BLOCK
  5
66
330
65
100
AcDbEntity
  8
0
100
AcDbBlockBegin
  2
*D7
 70
    1
 10
0
 20
0
  3
*D7
  1

  0
LINE
  5
CE
100
AcDbEntity
  8
sizes
  6
ByBlock
 62
    0
370
   -2
100
AcDbLine
 10
27.00000000000002
 20
62.22880777714092
 11
5.000000000000028
 21
62.22880777714092
  0
MTEXT
  5
CF
100
AcDbEntity
  8
sizes
  6
CONTINUOUS
 62
    0
370
   -2
100
AcDbMText
 10
16.00000000000002
 20
65.29130777714093
 30
0
 40
3
 41
3.92
 71
    5
 72
    1
  1
22
  7
kst32b
210
0
220
0
230
1
 50
0
 73
    2
 44
1
  0
SOLID
  5
D0
100
AcDbEntity
  8
sizes
  6
ByBlock
 62
    0
370
   -2
100
AcDbTrace
 10
27.00000000000002
 20
62.22880777714092
 30
0
 11
20.75000000000002
 21
61.18809613270882
 31
0
 12
20.75000000000002
 22
63.26951942157302
 32
0
 13
20.75000000000002
 23
63.26951942157302
 33
0
  0
SOLID
  5
D1
100
AcDbEntity
  8
sizes
  6
ByBlock
 62
    0
370
   -2
100
AcDbTrace
 10
5.000000000000028
 20
62.22880777714092
 30
0
 11
11.25000000000003
 21
63.26951942157302
 31
0
 12
11.25000000000003
 22
61.18809613270882
 32
0
 13
11.25000000000003
 23
61.18809613270882
 33
0
  0
LINE
  5
D2
100
AcDbEntity
  8
sizes
  6
ByBlock
 62
    0
370
   -2
100
AcDbLine
 10
27.00000000000002
 20
48.56249999999989
 11
27.00000000000002
 21
65.35380777714093
  0
LINE
  5
D3
100
AcDbEntity
  8
sizes
  6
ByBlock
 62
    0
370
   -2
100
AcDbLine
 10
5.000000000000028
 20
41.56249999999999
 11
5.000000000000028
 21
65.35380777714093
  0
ENDBLK
  5
67
330
65
100
AcDbEntity
  8
0
100
AcDbBlockEnd
  0
BLOCK
  5
69
330
68
100
AcDbEntity
  8
0
100
AcDbBlockBegin
  2
*D21
 70
    1
 10
0
 20
0
  3
*D21
  1

  0
LINE
  5
D4
100
AcDbEntity
  8
sizes
  6
ByBlock
 62
    0
370
   -2
100
AcDbLine
 10
89.1761223154643
 20
150.7468862992612
 11
89.1761223154643
 21
187.746886299261
  0
MTEXT
  5
D5
100
AcDbEntity
  8
sizes
  6
CONTINUOUS
 62
    0
370
   -2
100
AcDbMText
 10
86.1136223154643
 20
169.2468862992611
 30
0
 40
3
 41
2.98
 71
    5
 72
    1
  1
12
  7
kst32b
210
0
220
0
230
1
 50
90
 73
    2
 44
1
  0
SOLID
  5
D6
100
AcDbEntity
  8
sizes
  6
ByBlock
 62
    0
370
   -2
100
AcDbTrace
 10
89.1761223154643
 20
163.2468862992612
 30
0
 11
90.21683395989641
 21
156.9968862992612
 31
0
 12
88.13541067103219
 22
156.9968862992612
 32
0
 13
88.13541067103219
 23
156.9968862992612
 33
0
  0
SOLID
  5
D7
100
AcDbEntity
  8
sizes
  6
ByBlock
 62
    0
370
   -2
100
AcDbTrace
 10
89.1761223154643
 20
175.246886299261
 30
0
 11
88.1354106710322
 21
181.496886299261
 31
0
 12
90.21683395989641
 22
181.496886299261
 32
0
 13
90.21683395989641
 23
181.496886299261
 33
0
  0
LINE
  5
D8
100
AcDbEntity
  8
sizes
  6
ByBlock
 62
    0
370
   -2
100
AcDbLine
 10
72.56249999999994
 20
163.2468862992612
 11
92.3011223154643
 21
163.2468862992612
  0
LINE
  5
D9
100
AcDbEntity
  8
sizes
  6
ByBlock
 62
    0
370
   -2
100
AcDbLine
 10
28.56250000000002
 20
175.246886299261
 11
92.3011223154643
 21
175.246886299261
  0
ENDBLK
  5
6A
330
68
100
AcDbEntity
  8
0
100
AcDbBlockEnd
  0
BLOCK
  5
6C
330
6B
100
AcDbEntity
  8
0
100
AcDbBlockBegin
  2
*D25
 70
    1
 10
0
 20
0
  3
*D25
  1

  0
LINE
  5
DA
100
AcDbEntity
  8
sizes
  6
ByBlock
 62
    0
370
   -2
100
AcDbLine
 10
10.00000000000003
 20
118.9228417856493
 11
-8.749999999999993
 21
118.9228417856493
  0
MTEXT
  5
DB
100
AcDbEntity
  8
sizes
  6
CONTINUOUS
 62
    0
370
   -2
100
AcDbMText
 10
0.625000000000018
 20
121.9853417856493
 30
0
 40
3
 41
9.209999999999997
 71
    5
 72
    1
  1
18,75
  7
kst32b
210
0
220
0
230
1
 50
0
 73
    2
 44
1
  0
SOLID
  5
DC
100
AcDbEntity
  8
sizes
  6
ByBlock
 62
    0
370
   -2
100
AcDbTrace
 10
10.00000000000003
 20
118.9228417856493
 30
0
 11
3.750000000000028
 21
117.8821301412172
 31
0
 12
3.750000000000028
 22
119.9635534300814
 32
0
 13
3.750000000000028
 23
119.9635534300814
 33
0
  0
SOLID
  5
DD
100
AcDbEntity
  8
sizes
  6
ByBlock
 62
    0
370
   -2
100
AcDbTrace
 10
-8.749999999999993
 20
118.9228417856493
 30
0
 11
-2.499999999999993
 21
119.9635534300814
 31
0
 12
-2.499999999999993
 22
117.8821301412172
 32
0
 13
-2.499999999999993
 23
117.8821301412172
 33
0
  0
LINE
  5
DE
100
AcDbEntity
  8
sizes
  6
ByBlock
 62
    0
370
   -2
100
AcDbLine
 10
10.00000000000003
 20
161.6843862992611
 11
10.00000000000003
 21
115.7978417856493
  0
LINE
  5
DF
100
AcDbEntity
  8
sizes
  6
ByBlock
 62
    0
370
   -2
100
AcDbLine
 10
-8.749999999999993
 20
131.6843862992611
 11
-8.749999999999993
 21
115.7978417856493
  0
ENDBLK
  5
6D
330
6B
100
AcDbEntity
  8
0
100
AcDbBlockEnd
  0
BLOCK
  5
6F
330
6E
100
AcDbEntity
  8
0
100
AcDbBlockBegin
  2
*D11
 70
    1
 10
0
 20
0
  3
*D11
  1

  0
LINE
  5
E0
100
AcDbEntity
  8
sizes
  6
ByBlock
 62
    0
370
   -2
100
AcDbLine
 10
93.23400000000734
 20
-9.948750000000986
 11
113.2340000000073
 21
-9.948750000000986
  0
MTEXT
  5
E1
100
AcDbEntity
  8
sizes
  6
CONTINUOUS
 62
    0
370
   -2
100
AcDbMText
 10
103.2340000000073
 20
-6.886250000000986
 30
0
 40
3
 41
3.813333333333333
 71
    5
 72
    1
  1
20
  7
kst32b
210
0
220
0
230
1
 50
0
 73
    2
 44
1
  0
SOLID
  5
E2
100
AcDbEntity
  8
sizes
  6
ByBlock
 62
    0
370
   -2
100
AcDbTrace
 10
93.23400000000734
 20
-9.948750000000986
 30
0
 11
99.48400000000734
 21
-8.908038355568886
 31
0
 12
99.48400000000734
 22
-10.98946164443309
 32
0
 13
99.48400000000734
 23
-10.98946164443309
 33
0
  0
SOLID
  5
E3
100
AcDbEntity
  8
sizes
  6
ByBlock
 62
    0
370
   -2
100
AcDbTrace
 10
113.2340000000073
 20
-9.948750000000986
 30
0
 11
106.9840000000073
 21
-10.98946164443309
 31
0
 12
106.9840000000073
 22
-8.908038355568886
 32
0
 13
106.9840000000073
 23
-8.908038355568886
 33
0
  0
LINE
  5
E4
100
AcDbEntity
  8
sizes
  6
ByBlock
 62
    0
370
   -2
100
AcDbLine
 10
93.23400000000734
 20
-1.5625
 11
93.23400000000734
 21
-13.07375000000099
  0
LINE
  5
E5
100
AcDbEntity
  8
sizes
  6
ByBlock
 62
    0
370
   -2
100
AcDbLine
 10
113.2340000000073
 20
-1.5625
 11
113.2340000000073
 21
-13.07375000000099
  0
ENDBLK
  5
70
330
6E
100
AcDbEntity
  8
0
100
AcDbBlockEnd
  0
BLOCK
  5
72
330
71
100
AcDbEntity
  8
0
100
AcDbBlockBegin
  2
*D16
 70
    1
 10
0
 20
0
  3
*D16
  1

  0
LINE
  5
E6
100
AcDbEntity
  8
sizes
  6
ByBlock
 62
    0
370
   -2
100
AcDbLine
 10
-0.578558428588232
 20
60.48056300275479
 11
-0.5785584285882267
 21
95.48056300275483
  0
MTEXT
  5
E7
100
AcDbEntity
  8
sizes
  6
CONTINUOUS
 62
    0
370
   -2
100
AcDbMText
 10
-3.641058428588229
 20
77.98056300275482
 30
0
 40
3
 41
2.873333333333333
 71
    5
 72
    1
  1
10
  7
kst32b
210
0
220
0
230
1
 50
90
 73
    2
 44
1
  0
SOLID
  5
E8
100
AcDbEntity
  8
sizes
  6
ByBlock
 62
    0
370
   -2
100
AcDbTrace
 10
-0.5785584285882297
 20
72.98056300275479
 30
0
 11
0.4621532158438713
 21
66.73056300275479
 31
0
 12
-1.619270073020331
 22
66.73056300275479
 32
0
 13
-1.619270073020331
 23
66.73056300275479
 33
0
  0
SOLID
  5
E9
100
AcDbEntity
  8
sizes
  6
ByBlock
 62
    0
370
   -2
100
AcDbTrace
 10
-0.578558428588229
 20
82.98056300275483
 30
0
 11
-1.619270073020329
 21
89.23056300275483
 31
0
 12
0.4621532158438733
 22
89.23056300275483
 32
0
 13
0.4621532158438733
 23
89.23056300275483
 33
0
  0
LINE
  5
EA
100
AcDbEntity
  8
sizes
  6
ByBlock
 62
    0
370
   -2
100
AcDbLine
 10
3.437500000000028
 20
72.98056300275479
 11
-3.70355842858823
 21
72.98056300275479
  0
LINE
  5
EB
100
AcDbEntity
  8
sizes
  6
ByBlock
 62
    0
370
   -2
100
AcDbLine
 10
8.43750000000014
 20
82.98056300275483
 11
-3.703558428588229
 21
82.98056300275483
  0
ENDBLK
  5
73
330
71
100
AcDbEntity
  8
0
100
AcDbBlockEnd
  0
BLOCK
  5
75
330
74
100
AcDbEntity
  8
0
100
AcDbBlockBegin
  2
*D26
 70
    1
 10
0
 20
0
  3
*D26
  1

  0
LINE
  5
EC
100
AcDbEntity
  8
sizes
  6
ByBlock
 62
    0
370
   -2
100
AcDbLine
 10
3.750000000000007
 20
118.9483771752106
 11
-34.580146196453
 21
118.9483771752106
  0
MTEXT
  5
ED
100
AcDbEntity
  8
sizes
  6
CONTINUOUS
 62
    0
370
   -2
100
AcDbMText
 10
-15.4150730982265
 20
122.0108771752106
 30
0
 40
3
 41
8.996666666666666
 71
    5
 72
    1
  1
13,33
  7
kst32b
210
0
220
0
230
1
 50
0
 73
    2
 44
1
  0
SOLID
  5
EE
100
AcDbEntity
  8
sizes
  6
ByBlock
 62
    0
370
   -2
100
AcDbTrace
 10
-8.749999999999993
 20
118.9483771752106
 30
0
 11
-2.499999999999993
 21
119.9890888196427
 31
0
 12
-2.499999999999993
 22
117.9076655307785
 32
0
 13
-2.499999999999993
 23
117.9076655307785
 33
0
  0
SOLID
  5
EF
100
AcDbEntity
  8
sizes
  6
ByBlock
 62
    0
370
   -2
100
AcDbTrace
 10
-22.080146196453
 20
118.9483771752106
 30
0
 11
-28.330146196453
 21
117.9076655307785
 31
0
 12
-28.330146196453
 22
119.9890888196427
 32
0
 13
-28.330146196453
 23
119.9890888196427
 33
0
  0
LINE
  5
F0
100
AcDbEntity
  8
sizes
  6
ByBlock
 62
    0
370
   -2
100
AcDbLine
 10
-8.749999999999993
 20
131.6843862992611
 11
-8.749999999999993
 21
115.8233771752106
  0
LINE
  5
F1
100
AcDbEntity
  8
sizes
  6
ByBlock
 62
    0
370
   -2
100
AcDbLine
 10
-22.080146196453
 20
123.6843862992611
 11
-22.080146196453
 21
115.8233771752106
  0
ENDBLK
  5
76
330
74
100
AcDbEntity
  8
0
100
AcDbBlockEnd
  0
BLOCK
  5
78
330
77
100
AcDbEntity
  8
0
100
AcDbBlockBegin
  2
*D2
 70
    1
 10
0
 20
0
  3
*D2
  1

  0
LINE
  5
F2
100
AcDbEntity
  8
sizes
  6
ByBlock
 62
    0
370
   -2
100
AcDbLine
 10
124.6482480211164
 20
39.99999999999999
 11
124.6482480211164
 21
0
  0
MTEXT
  5
F3
100
AcDbEntity
  8
sizes
  6
CONTINUOUS
 62
    0
370
   -2
100
AcDbMText
 10
121.5857480211164
 20
19.99999999999999
 30
0
 40
3
 41
3.813333333333333
 71
    5
 72
    1
  1
40
  7
kst32b
210
0
220
0
230
1
 50
90
 73
    2
 44
1
  0
SOLID
  5
F4
100
AcDbEntity
  8
sizes
  6
ByBlock
 62
    0
370
   -2
100
AcDbTrace
 10
124.6482480211164
 20
39.99999999999999
 30
0
 11
125.6889596655485
 21
33.74999999999999
 31
0
 12
123.6075363766843
 22
33.74999999999999
 32
0
 13
123.6075363766843
 23
33.74999999999999
 33
0
  0
SOLID
  5
F5
100
AcDbEntity
  8
sizes
  6
ByBlock
 62
    0
370
   -2
100
AcDbTrace
 10
124.6482480211164
 20
0
 30
0
 11
123.6075363766843
 21
6.25
 31
0
 12
125.6889596655485
 22
6.25
 32
0
 13
125.6889596655485
 23
6.25
 33
0
  0
LINE
  5
F6
100
AcDbEntity
  8
sizes
  6
ByBlock
 62
    0
370
   -2
100
AcDbLine
 10
114.7965000000071
 20
39.99999999999999
 11
127.7732480211164
 21
39.99999999999999
  0
LINE
  5
F7
100
AcDbEntity
  8
sizes
  6
ByBlock
 62
    0
370
   -2
100
AcDbLine
 10
114.7965000000073
 20
0
 11
127.7732480211164
 21
0
  0
ENDBLK
  5
79
330
77
100
AcDbEntity
  8
0
100
AcDbBlockEnd
  0
BLOCK
  5
7B
330
7A
100
AcDbEntity
  8
0
100
AcDbBlockBegin
  2
*D18
 70
    1
 10
0
 20
0
  3
*D18
  1

  0
LINE
  5
F8
100
AcDbEntity
  8
sizes
  6
ByBlock
 62
    0
370
   -2
100
AcDbLine
 10
27.00000000000002
 20
118.9683030817345
 11
70.99999999999997
 21
118.9683030817345
  0
MTEXT
  5
F9
100
AcDbEntity
  8
sizes
  6
CONTINUOUS
 62
    0
370
   -2
100
AcDbMText
 10
49
 20
122.0308030817345
 30
0
 40
3
 41
3.92
 71
    5
 72
    1
  1
44
  7
kst32b
210
0
220
0
230
1
 50
0
 73
    2
 44
1
  0
SOLID
  5
FA
100
AcDbEntity
  8
sizes
  6
ByBlock
 62
    0
370
   -2
100
AcDbTrace
 10
27.00000000000002
 20
118.9683030817345
 30
0
 11
33.25000000000002
 21
120.0090147261666
 31
0
 12
33.25000000000002
 22
117.9275914373024
 32
0
 13
33.25000000000002
 23
117.9275914373024
 33
0
  0
SOLID
  5
FB
100
AcDbEntity
  8
sizes
  6
ByBlock
 62
    0
370
   -2
100
AcDbTrace
 10
70.99999999999997
 20
118.9683030817345
 30
0
 11
64.74999999999997
 21
117.9275914373024
 31
0
 12
64.74999999999997
 22
120.0090147261666
 32
0
 13
64.74999999999997
 23
120.0090147261666
 33
0
  0
LINE
  5
FC
100
AcDbEntity
  8
sizes
  6
ByBlock
 62
    0
370
   -2
100
AcDbLine
 10
27.00000000000002
 20
173.684386299261
 11
27.00000000000002
 21
115.8433030817345
  0
LINE
  5
FD
100
AcDbEntity
  8
sizes
  6
ByBlock
 62
    0
370
   -2
100
AcDbLine
 10
70.99999999999997
 20
131.6843862992611
 11
70.99999999999997
 21
115.8433030817345
  0
ENDBLK
  5
7C
330
7A
100
AcDbEntity
  8
0
100
AcDbBlockEnd
  0
BLOCK
  5
7E
330
7D
100
AcDbEntity
  8
0
100
AcDbBlockBegin
  2
*D9
 70
    1
 10
0
 20
0
  3
*D9
  1

  0
LINE
  5
FE
100
AcDbEntity
  8
sizes
  6
ByBlock
 62
    0
370
   -2
100
AcDbLine
 10
76
 20
-9.872839695411781
 11
5.000000000000028
 21
-9.872839695411781
  0
MTEXT
  5
FF
100
AcDbEntity
  8
sizes
  6
CONTINUOUS
 62
    0
370
   -2
100
AcDbMText
 10
40.50000000000001
 20
-6.810339695411781
 30
0
 40
3
 41
3.606666666666666
 71
    5
 72
    1
  1
71
  7
kst32b
210
0
220
0
230
1
 50
0
 73
    2
 44
1
  0
SOLID
  5
100
100
AcDbEntity
  8
sizes
  6
ByBlock
 62
    0
370
   -2
100
AcDbTrace
 10
76
 20
-9.872839695411781
 30
0
 11
69.75
 21
-10.91355133984388
 31
0
 12
69.75
 22
-8.83212805097968
 32
0
 13
69.75
 23
-8.83212805097968
 33
0
  0
SOLID
  5
101
100
AcDbEntity
  8
sizes
  6
ByBlock
 62
    0
370
   -2
100
AcDbTrace
 10
5.000000000000028
 20
-9.872839695411781
 30
0
 11
11.25000000000003
 21
-8.83212805097968
 31
0
 12
11.25000000000003
 22
-10.91355133984388
 32
0
 13
11.25000000000003
 23
-10.91355133984388
 33
0
  0
LINE
  5
102
100
AcDbEntity
  8
sizes
  6
ByBlock
 62
    0
370
   -2
100
AcDbLine
 10
76
 20
-1.5625
 11
76
 21
-12.99783969541178
  0
LINE
  5
103
100
AcDbEntity
  8
sizes
  6
ByBlock
 62
    0
370
   -2
100
AcDbLine
 10
5.000000000000028
 20
-1.5625
 11
5.000000000000028
 21
-12.99783969541178
  0
ENDBLK
  5
7F
330
7D
100
AcDbEntity
  8
0
100
AcDbBlockEnd
  0
BLOCK
  5
81
330
80
100
AcDbEntity
  8
0
100
AcDbBlockBegin
  2
*D6
 70
    1
 10
0
 20
0
  3
*D6
  1

  0
LINE
  5
104
100
AcDbEntity
  8
sizes
  6
ByBlock
 62
    0
370
   -2
100
AcDbLine
 10
76
 20
62.25000000000536
 11
27.00000000000002
 21
62.25000000000536
  0
MTEXT
  5
105
100
AcDbEntity
  8
sizes
  6
CONTINUOUS
 62
    0
370
   -2
100
AcDbMText
 10
51.50000000000001
 20
65.31250000000536
 30
0
 40
3
 41
3.813333333333333
 71
    5
 72
    1
  1
49
  7
kst32b
210
0
220
0
230
1
 50
0
 73
    2
 44
1
  0
SOLID
  5
106
100
AcDbEntity
  8
sizes
  6
ByBlock
 62
    0
370
   -2
100
AcDbTrace
 10
76
 20
62.25000000000536
 30
0
 11
69.75
 21
61.20928835557326
 31
0
 12
69.75
 22
63.29071164443746
 32
0
 13
69.75
 23
63.29071164443746
 33
0
  0
SOLID
  5
107
100
AcDbEntity
  8
sizes
  6
ByBlock
 62
    0
370
   -2
100
AcDbTrace
 10
27.00000000000002
 20
62.25000000000536
 30
0
 11
33.25000000000002
 21
63.29071164443746
 31
0
 12
33.25000000000002
 22
61.20928835557326
 32
0
 13
33.25000000000002
 23
61.20928835557326
 33
0
  0
LINE
  5
108
100
AcDbEntity
  8
sizes
  6
ByBlock
 62
    0
370
   -2
100
AcDbLine
 10
76
 20
41.5625
 11
76
 21
65.37500000000536
  0
LINE
  5
109
100
AcDbEntity
  8
sizes
  6
ByBlock
 62
    0
370
   -2
100
AcDbLine
 10
27.00000000000002
 20
48.56249999999989
 11
27.00000000000002
 21
65.37500000000536
  0
ENDBLK
  5
82
330
80
100
AcDbEntity
  8
0
100
AcDbBlockEnd
  0
BLOCK
  5
84
330
83
100
AcDbEntity
  8
0
100
AcDbBlockBegin
  2
*D20
 70
    1
 10
0
 20
0
  3
*D20
  1

  0
LINE
  5
10A
100
AcDbEntity
  8
sizes
  6
ByBlock
 62
    0
370
   -2
100
AcDbLine
 10
89.11153268430921
 20
133.2468862992611
 11
89.11153268430921
 21
163.2468862992612
  0
MTEXT
  5
10B
100
AcDbEntity
  8
sizes
  6
CONTINUOUS
 62
    0
370
   -2
100
AcDbMText
 10
86.04903268430921
 20
148.2468862992611
 30
0
 40
3
 41
3.706666666666666
 71
    5
 72
    1
  1
30
  7
kst32b
210
0
220
0
230
1
 50
90
 73
    2
 44
1
  0
SOLID
  5
10C
100
AcDbEntity
  8
sizes
  6
ByBlock
 62
    0
370
   -2
100
AcDbTrace
 10
89.11153268430921
 20
133.2468862992611
 30
0
 11
88.07082103987712
 21
139.4968862992611
 31
0
 12
90.15224432874132
 22
139.4968862992611
 32
0
 13
90.15224432874132
 23
139.4968862992611
 33
0
  0
SOLID
  5
10D
100
AcDbEntity
  8
sizes
  6
ByBlock
 62
    0
370
   -2
100
AcDbTrace
 10
89.11153268430921
 20
163.2468862992612
 30
0
 11
90.15224432874132
 21
156.9968862992612
 31
0
 12
88.0708210398771
 22
156.9968862992612
 32
0
 13
88.0708210398771
 23
156.9968862992612
 33
0
  0
LINE
  5
10E
100
AcDbEntity
  8
sizes
  6
ByBlock
 62
    0
370
   -2
100
AcDbLine
 10
72.56249999999997
 20
133.2468862992611
 11
92.23653268430921
 21
133.2468862992611
  0
LINE
  5
10F
100
AcDbEntity
  8
sizes
  6
ByBlock
 62
    0
370
   -2
100
AcDbLine
 10
72.56249999999994
 20
163.2468862992612
 11
92.23653268430921
 21
163.2468862992612
  0
ENDBLK
  5
85
330
83
100
AcDbEntity
  8
0
100
AcDbBlockEnd
  0
BLOCK
  5
87
330
86
100
AcDbEntity
  8
0
100
AcDbBlockBegin
  2
*D22
 70
    1
 10
0
 20
0
  3
*D22
  1

  0
LINE
  5
110
100
AcDbEntity
  8
sizes
  6
ByBlock
 62
    0
370
   -2
100
AcDbLine
 10
-48.81266490765937
 20
112.7468862992611
 11
-48.81266490765937
 21
145.7468862992611
  0
MTEXT
  5
111
100
AcDbEntity
  8
sizes
  6
CONTINUOUS
 62
    0
370
   -2
100
AcDbMText
 10
-51.87516490765937
 20
129.2468862992611
 30
0
 40
3
 41
1.46
 71
    5
 72
    1
  1
8
  7
kst32b
210
0
220
0
230
1
 50
90
 73
    2
 44
1
  0
SOLID
  5
112
100
AcDbEntity
  8
sizes
  6
ByBlock
 62
    0
370
   -2
100
AcDbTrace
 10
-48.81266490765937
 20
125.2468862992611
 30
0
 11
-47.77195326322727
 21
118.9968862992611
 31
0
 12
-49.85337655209147
 22
118.9968862992611
 32
0
 13
-49.85337655209147
 23
118.9968862992611
 33
0
  0
SOLID
  5
113
100
AcDbEntity
  8
sizes
  6
ByBlock
 62
    0
370
   -2
100
AcDbTrace
 10
-48.81266490765937
 20
133.2468862992611
 30
0
 11
-49.85337655209147
 21
139.4968862992611
 31
0
 12
-47.77195326322727
 22
139.4968862992611
 32
0
 13
-47.77195326322727
 23
139.4968862992611
 33
0
  0
LINE
  5
114
100
AcDbEntity
  8
sizes
  6
ByBlock
 62
    0
370
   -2
100
AcDbLine
 10
-23.642646196453
 20
125.2468862992611
 11
-51.93766490765937
 21
125.2468862992611
  0
LINE
  5
115
100
AcDbEntity
  8
sizes
  6
ByBlock
 62
    0
370
   -2
100
AcDbLine
 10
-10.31249999999999
 20
133.2468862992611
 11
-51.93766490765937
 21
133.2468862992611
  0
ENDBLK
  5
88
330
86
100
AcDbEntity
  8
0
100
AcDbBlockEnd
  0
BLOCK
  5
8A
330
89
100
AcDbEntity
  8
0
100
AcDbBlockBegin
  2
*D13
 70
    1
 10
0
 20
0
  3
*D13
  1

  0
LINE
  5
116
100
AcDbEntity
  8
sizes
  6
ByBlock
 62
    0
370
   -2
100
AcDbLine
 10
5.000000000000043
 20
101.8483130027556
 11
76
 21
101.8483130027556
  0
MTEXT
  5
117
100
AcDbEntity
  8
sizes
  6
CONTINUOUS
 62
    0
370
   -2
100
AcDbMText
 10
40.50000000000002
 20
104.9108130027556
 30
0
 40
3
 41
3.606666666666666
 71
    5
 72
    1
  1
71
  7
kst32b
210
0
220
0
230
1
 50
0
 73
    2
 44
1
  0
SOLID
  5
118
100
AcDbEntity
  8
sizes
  6
ByBlock
 62
    0
370
   -2
100
AcDbTrace
 10
5.000000000000043
 20
101.8483130027556
 30
0
 11
11.25000000000004
 21
102.8890246471877
 31
0
 12
11.25000000000004
 22
100.8076013583235
 32
0
 13
11.25000000000004
 23
100.8076013583235
 33
0
  0
SOLID
  5
119
100
AcDbEntity
  8
sizes
  6
ByBlock
 62
    0
370
   -2
100
AcDbTrace
 10
76
 20
101.8483130027556
 30
0
 11
69.75
 21
100.8076013583235
 31
0
 12
69.75
 22
102.8890246471877
 32
0
 13
69.75
 23
102.8890246471877
 33
0
  0
LINE
  5
11A
100
AcDbEntity
  8
sizes
  6
ByBlock
 62
    0
370
   -2
100
AcDbLine
 10
5.000000000000037
 20
94.54306300275481
 11
5.000000000000045
 21
104.9733130027556
  0
LINE
  5
11B
100
AcDbEntity
  8
sizes
  6
ByBlock
 62
    0
370
   -2
100
AcDbLine
 10
76
 20
94.54306300275479
 11
76
 21
104.9733130027556
  0
ENDBLK
  5
8B
330
89
100
AcDbEntity
  8
0
100
AcDbBlockEnd
  0
BLOCK
  5
8D
330
8C
100
AcDbEntity
  8
0
100
AcDbBlockBegin
  2
*D10
 70
    1
 10
0
 20
0
  3
*D10
  1

  0
LINE
  5
11C
100
AcDbEntity
  8
sizes
  6
ByBlock
 62
    0
370
   -2
100
AcDbLine
 10
-65.74318381706888
 20
0
 11
-65.74318381706888
 21
47.16990566028302
  0
MTEXT
  5
11D
100
AcDbEntity
  8
sizes
  6
CONTINUOUS
 62
    0
370
   -2
100
AcDbMText
 10
-68.80568381706888
 20
23.58495283014151
 30
0
 40
3
 41
9.629999999999999
 71
    5
 72
    1
  1
47,17
  7
kst32b
210
0
220
0
230
1
 50
90
 73
    2
 44
1
  0
SOLID
  5
11E
100
AcDbEntity
  8
sizes
  6
ByBlock
 62
    0
370
   -2
100
AcDbTrace
 10
-65.74318381706888
 20
0
 30
0
 11
-66.78389546150098
 21
6.25
 31
0
 12
-64.70247217263677
 22
6.25
 32
0
 13
-64.70247217263677
 23
6.25
 33
0
  0
SOLID
  5
11F
100
AcDbEntity
  8
sizes
  6
ByBlock
 62
    0
370
   -2
100
AcDbTrace
 10
-65.74318381706888
 20
47.16990566028302
 30
0
 11
-64.70247217263677
 21
40.91990566028302
 31
0
 12
-66.78389546150099
 22
40.91990566028302
 32
0
 13
-66.78389546150099
 23
40.91990566028302
 33
0
  0
LINE
  5
120
100
AcDbEntity
  8
sizes
  6
ByBlock
 62
    0
370
   -2
100
AcDbLine
 10
-59.41186758975312
 20
3.744064741167275e-15
 11
-68.86818381706888
 21
3.827021247335479e-16
  0
LINE
  5
121
100
AcDbEntity
  8
sizes
  6
ByBlock
 62
    0
370
   -2
100
AcDbLine
 10
-59.41186758975311
 20
47.16990566028302
 11
-68.86818381706888
 21
47.16990566028302
  0
ENDBLK
  5
8E
330
8C
100
AcDbEntity
  8
0
100
AcDbBlockEnd
  0
BLOCK
  5
90
330
8F
100
AcDbEntity
  8
0
100
AcDbBlockBegin
  2
*D23
 70
    1
 10
0
 20
0
  3
*D23
  1

  0
LINE
  5
122
100
AcDbEntity
  8
sizes
  6
ByBlock
 62
    0
370
   -2
100
AcDbLine
 10
-48.79931469916053
 20
133.2468862992611
 11
-48.79931469916053
 21
163.2468862992611
  0
MTEXT
  5
123
100
AcDbEntity
  8
sizes
  6
CONTINUOUS
 62
    0
370
   -2
100
AcDbMText
 10
-51.86181469916053
 20
148.2468862992611
 30
0
 40
3
 41
3.706666666666666
 71
    5
 72
    1
  1
30
  7
kst32b
210
0
220
0
230
1
 50
90
 73
    2
 44
1
  0
SOLID
  5
124
100
AcDbEntity
  8
sizes
  6
ByBlock
 62
    0
370
   -2
100
AcDbTrace
 10
-48.79931469916053
 20
133.2468862992611
 30
0
 11
-49.84002634359263
 21
139.4968862992611
 31
0
 12
-47.75860305472843
 22
139.4968862992611
 32
0
 13
-47.75860305472843
 23
139.4968862992611
 33
0
  0
SOLID
  5
125
100
AcDbEntity
  8
sizes
  6
ByBlock
 62
    0
370
   -2
100
AcDbTrace
 10
-48.79931469916053
 20
163.2468862992611
 30
0
 11
-47.75860305472843
 21
156.9968862992611
 31
0
 12
-49.84002634359263
 22
156.9968862992611
 32
0
 13
-49.84002634359263
 23
156.9968862992611
 33
0
  0
LINE
  5
126
100
AcDbEntity
  8
sizes
  6
ByBlock
 62
    0
370
   -2
100
AcDbLine
 10
-10.31249999999999
 20
133.2468862992611
 11
-51.92431469916053
 21
133.2468862992611
  0
LINE
  5
127
100
AcDbEntity
  8
sizes
  6
ByBlock
 62
    0
370
   -2
100
AcDbLine
 10
8.43750000000003
 20
163.2468862992611
 11
-51.92431469916053
 21
163.2468862992611
  0
ENDBLK
  5
91
330
8F
100
AcDbEntity
  8
0
100
AcDbBlockEnd
  0
BLOCK
  5
93
330
92
100
AcDbEntity
  8
0
100
AcDbBlockBegin
  2
*D28
 70
    1
 10
0
 20
0
  3
*D28
  1

  0
LINE
  5
128
100
AcDbEntity
  8
sizes
  6
ByBlock
 62
    0
370
   -2
100
AcDbLine
 10
27.00000000000002
 20
196.362730662853
 11
-23.94187961371427
 21
196.362730662853
  0
MTEXT
  5
129
100
AcDbEntity
  8
sizes
  6
CONTINUOUS
 62
    0
370
   -2
100
AcDbMText
 10
1.529060193142877
 20
199.425230662853
 30
0
 40
3
 41
9.936666666666664
 71
    5
 72
    1
  1
50,94
  7
kst32b
210
0
220
0
230
1
 50
0
 73
    2
 44
1
  0
SOLID
  5
12A
100
AcDbEntity
  8
sizes
  6
ByBlock
 62
    0
370
   -2
100
AcDbTrace
 10
27.00000000000002
 20
196.362730662853
 30
0
 11
20.75000000000002
 21
195.3220190184209
 31
0
 12
20.75000000000002
 22
197.4034423072851
 32
0
 13
20.75000000000002
 23
197.4034423072851
 33
0
  0
SOLID
  5
12B
100
AcDbEntity
  8
sizes
  6
ByBlock
 62
    0
370
   -2
100
AcDbTrace
 10
-23.94187961371427
 20
196.362730662853
 30
0
 11
-17.69187961371427
 21
197.4034423072851
 31
0
 12
-17.69187961371427
 22
195.3220190184209
 32
0
 13
-17.69187961371427
 23
195.3220190184209
 33
0
  0
LINE
  5
12C
100
AcDbEntity
  8
sizes
  6
ByBlock
 62
    0
370
   -2
100
AcDbLine
 10
27.00000000000002
 20
176.809386299261
 11
27.00000000000002
 21
199.487730662853
  0
LINE
  5
12D
100
AcDbEntity
  8
sizes
  6
ByBlock
 62
    0
370
   -2
100
AcDbLine
 10
-23.94187961371427
 20
171.6330720001537
 11
-23.94187961371427
 21
199.487730662853
  0
ENDBLK
  5
94
330
92
100
AcDbEntity
  8
0
100
AcDbBlockEnd
  0
BLOCK
  5
96
330
95
100
AcDbEntity
  8
0
100
AcDbBlockBegin
  2
*D19
 70
    1
 10
0
 20
0
  3
*D19
  1

  0
LINE
  5
12E
100
AcDbEntity
  8
sizes
  6
ByBlock
 62
    0
370
   -2
100
AcDbLine
 10
89.12302146136834
 20
112.7468862992611
 11
89.12302146136834
 21
145.7468862992611
  0
MTEXT
  5
12F
100
AcDbEntity
  8
sizes
  6
CONTINUOUS
 62
    0
370
   -2
100
AcDbMText
 10
86.06052146136834
 20
129.2468862992611
 30
0
 40
3
 41
1.46
 71
    5
 72
    1
  1
8
  7
kst32b
210
0
220
0
230
1
 50
90
 73
    2
 44
1
  0
SOLID
  5
130
100
AcDbEntity
  8
sizes
  6
ByBlock
 62
    0
370
   -2
100
AcDbTrace
 10
89.12302146136834
 20
125.2468862992611
 30
0
 11
90.16373310580045
 21
118.9968862992611
 31
0
 12
88.08230981693623
 22
118.9968862992611
 32
0
 13
88.08230981693623
 23
118.9968862992611
 33
0
  0
SOLID
  5
131
100
AcDbEntity
  8
sizes
  6
ByBlock
 62
    0
370
   -2
100
AcDbTrace
 10
89.12302146136834
 20
133.2468862992611
 30
0
 11
88.08230981693625
 21
139.4968862992611
 31
0
 12
90.16373310580045
 22
139.4968862992611
 32
0
 13
90.16373310580045
 23
139.4968862992611
 33
0
  0
LINE
  5
132
100
AcDbEntity
  8
sizes
  6
ByBlock
 62
    0
370
   -2
100
AcDbLine
 10
80.5625
 20
125.2468862992611
 11
92.24802146136834
 21
125.2468862992611
  0
LINE
  5
133
100
AcDbEntity
  8
sizes
  6
ByBlock
 62
    0
370
   -2
100
AcDbLine
 10
72.56249999999997
 20
133.2468862992611
 11
92.24802146136834
 21
133.2468862992611
  0
ENDBLK
  5
97
330
95
100
AcDbEntity
  8
0
100
AcDbBlockEnd
  0
BLOCK
  5
99
330
98
100
AcDbEntity
  8
0
100
AcDbBlockBegin
  2
*D17
 70
    1
 10
0
 20
0
  3
*D17
  1

  0
LINE
  5
134
100
AcDbEntity
  8
sizes
  6
ByBlock
 62
    0
370
   -2
100
AcDbLine
 10
91.5
 20
118.9307602518494
 11
58.49999999999997
 21
118.9307602518494
  0
MTEXT
  5
135
100
AcDbEntity
  8
sizes
  6
CONTINUOUS
 62
    0
370
   -2
100
AcDbMText
 10
74.99999999999999
 20
121.9932602518494
 30
0
 40
3
 41
1.46
 71
    5
 72
    1
  1
8
  7
kst32b
210
0
220
0
230
1
 50
0
 73
    2
 44
1
  0
SOLID
  5
136
100
AcDbEntity
  8
sizes
  6
ByBlock
 62
    0
370
   -2
100
AcDbTrace
 10
79
 20
118.9307602518494
 30
0
 11
85.25
 21
119.9714718962815
 31
0
 12
85.25
 22
117.8900486074173
 32
0
 13
85.25
 23
117.8900486074173
 33
0
  0
SOLID
  5
137
100
AcDbEntity
  8
sizes
  6
ByBlock
 62
    0
370
   -2
100
AcDbTrace
 10
70.99999999999997
 20
118.9307602518494
 30
0
 11
64.74999999999997
 21
117.8900486074173
 31
0
 12
64.74999999999997
 22
119.9714718962815
 32
0
 13
64.74999999999997
 23
119.9714718962815
 33
0
  0
LINE
  5
138
100
AcDbEntity
  8
sizes
  6
ByBlock
 62
    0
370
   -2
100
AcDbLine
 10
79
 20
123.6843862992611
 11
79
 21
115.8057602518494
  0
LINE
  5
139
100
AcDbEntity
  8
sizes
  6
ByBlock
 62
    0
370
   -2
100
AcDbLine
 10
70.99999999999997
 20
131.6843862992611
 11
70.99999999999997
 21
115.8057602518494
  0
ENDBLK
  5
9A
330
98
100
AcDbEntity
  8
0
100
AcDbBlockEnd
  0
BLOCK
  5
9C
330
9B
100
AcDbEntity
  8
0
100
AcDbBlockBegin
  2
*D8
 70
    1
 10
0
 20
0
  3
*D8
  1

  0
LINE
  5
13A
100
AcDbEntity
  8
sizes
  6
ByBlock
 62
    0
370
   -2
100
AcDbLine
 10
-20
 20
-9.872839695411782
 11
5.000000000000028
 21
-9.872839695411782
  0
MTEXT
  5
13B
100
AcDbEntity
  8
sizes
  6
CONTINUOUS
 62
    0
370
   -2
100
AcDbMText
 10
-7.499999999999984
 20
-6.810339695411782
 30
0
 40
3
 41
3.813333333333333
 71
    5
 72
    1
  1
25
  7
kst32b
210
0
220
0
230
1
 50
0
 73
    2
 44
1
  0
SOLID
  5
13C
100
AcDbEntity
  8
sizes
  6
ByBlock
 62
    0
370
   -2
100
AcDbTrace
 10
-20
 20
-9.872839695411782
 30
0
 11
-13.75
 21
-8.832128050979682
 31
0
 12
-13.75
 22
-10.91355133984388
 32
0
 13
-13.75
 23
-10.91355133984388
 33
0
  0
SOLID
  5
13D
100
AcDbEntity
  8
sizes
  6
ByBlock
 62
    0
370
   -2
100
AcDbTrace
 10
5.000000000000028
 20
-9.872839695411782
 30
0
 11
-1.249999999999972
 21
-10.91355133984388
 31
0
 12
-1.249999999999972
 22
-8.832128050979682
 32
0
 13
-1.249999999999972
 23
-8.832128050979682
 33
0
  0
LINE
  5
13E
100
AcDbEntity
  8
sizes
  6
ByBlock
 62
    0
370
   -2
100
AcDbLine
 10
-20
 20
-1.5625
 11
-20
 21
-12.99783969541178
  0
LINE
  5
13F
100
AcDbEntity
  8
sizes
  6
ByBlock
 62
    0
370
   -2
100
AcDbLine
 10
5.000000000000028
 20
-1.5625
 11
5.000000000000028
 21
-12.99783969541178
  0
ENDBLK
  5
9D
330
9B
100
AcDbEntity
  8
0
100
AcDbBlockEnd
  0
BLOCK
  5
9F
330
9E
100
AcDbEntity
  8
0
100
AcDbBlockBegin
  2
*D4
 70
    1
 10
0
 20
0
  3
*D4
  1

  0
LINE
  5
140
100
AcDbEntity
  8
sizes
  6
ByBlock
 62
    0
370
   -2
100
AcDbLine
 10
-57.84936758975312
 20
-9.89445910290245
 11
-37.84936758975312
 21
-9.89445910290245
  0
MTEXT
  5
141
100
AcDbEntity
  8
sizes
  6
CONTINUOUS
 62
    0
370
   -2
100
AcDbMText
 10
-47.84936758975312
 20
-6.83195910290245
 30
0
 40
3
 41
3.813333333333333
 71
    5
 72
    1
  1
20
  7
kst32b
210
0
220
0
230
1
 50
0
 73
    2
 44
1
  0
SOLID
  5
142
100
AcDbEntity
  8
sizes
  6
ByBlock
 62
    0
370
   -2
100
AcDbTrace
 10
-57.84936758975312
 20
-9.89445910290245
 30
0
 11
-51.59936758975312
 21
-8.85374745847035
 31
0
 12
-51.59936758975312
 22
-10.93517074733455
 32
0
 13
-51.59936758975312
 23
-10.93517074733455
 33
0
  0
SOLID
  5
143
100
AcDbEntity
  8
sizes
  6
ByBlock
 62
    0
370
   -2
100
AcDbTrace
 10
-37.84936758975312
 20
-9.89445910290245
 30
0
 11
-44.09936758975312
 21
-10.93517074733455
 31
0
 12
-44.09936758975312
 22
-8.85374745847035
 32
0
 13
-44.09936758975312
 23
-8.85374745847035
 33
0
  0
LINE
  5
144
100
AcDbEntity
  8
sizes
  6
ByBlock
 62
    0
370
   -2
100
AcDbLine
 10
-57.84936758975312
 20
-1.562499999999996
 11
-57.84936758975312
 21
-13.01945910290245
  0
LINE
  5
145
100
AcDbEntity
  8
sizes
  6
ByBlock
 62
    0
370
   -2
100
AcDbLine
 10
-37.84936758975312
 20
-1.562500000000002
 11
-37.84936758975312
 21
-13.01945910290245
  0
ENDBLK
  5
A0
330
9E
100
AcDbEntity
  8
0
100
AcDbBlockEnd
  0
BLOCK
  5
A2
330
A1
100
AcDbEntity
  8
0
100
AcDbBlockBegin
  2
*D12
 70
    1
 10
0
 20
0
  3
*D12
  1

  0
LINE
  5
146
100
AcDbEntity
  8
sizes
  6
ByBlock
 62
    0
370
   -2
100
AcDbLine
 10
84.13800000000836
 20
-40.50000000000075
 11
84.13800000000836
 21
-20.50000000000072
  0
MTEXT
  5
147
100
AcDbEntity
  8
sizes
  6
CONTINUOUS
 62
    0
370
   -2
100
AcDbMText
 10
81.07550000000836
 20
-30.50000000000074
 30
0
 40
3
 41
3.813333333333333
 71
    5
 72
    1
  1
20
  7
kst32b
210
0
220
0
230
1
 50
90
 73
    2
 44
1
  0
SOLID
  5
148
100
AcDbEntity
  8
sizes
  6
ByBlock
 62
    0
370
   -2
100
AcDbTrace
 10
84.13800000000836
 20
-40.50000000000075
 30
0
 11
83.09728835557627
 21
-34.25000000000075
 31
0
 12
85.17871164444047
 22
-34.25000000000075
 32
0
 13
85.17871164444047
 23
-34.25000000000075
 33
0
  0
SOLID
  5
149
100
AcDbEntity
  8
sizes
  6
ByBlock
 62
    0
370
   -2
100
AcDbTrace
 10
84.13800000000836
 20
-20.50000000000072
 30
0
 11
85.17871164444047
 21
-26.75000000000072
 31
0
 12
83.09728835557625
 22
-26.75000000000072
 32
0
 13
83.09728835557625
 23
-26.75000000000072
 33
0
  0
LINE
  5
14A
100
AcDbEntity
  8
sizes
  6
ByBlock
 62
    0
370
   -2
100
AcDbLine
 10
77.5625
 20
-40.50000000000075
 11
87.26300000000836
 21
-40.50000000000075
  0
LINE
  5
14B
100
AcDbEntity
  8
sizes
  6
ByBlock
 62
    0
370
   -2
100
AcDbLine
 10
77.5625
 20
-20.50000000000072
 11
87.26300000000836
 21
-20.50000000000072
  0
ENDBLK
  5
A3
330
A1
100
AcDbEntity
  8
0
100
AcDbBlockEnd
  0
ENDSEC
  0
SECTION
  2
ENTITIES
  0
LINE
  5
14C
100
AcDbEntity
  8
builder
  6
ByLayer
 62
  256
370
   -1
100
AcDbLine
 10
0
 20
0
 11
-27.5
 21
0
  0
LINE
  5
14D
100
AcDbEntity
  8
0
  6
ByLayer
 62
  256
370
   -1
100
AcDbLine
 10
-20
 20
0
 11
76
 21
0
  0
LINE
  5
14E
100
AcDbEntity
  8
0
  6
ByLayer
 62
  256
370
   -1
100
AcDbLine
 10
76
 20
0
 11
76
 21
40
  0
LINE
  5
14F
100
AcDbEntity
  8
builder
  6
ByLayer
 62
  256
370
   -1
100
AcDbLine
 10
76
 20
40
 11
76
 21
-55.5
  0
LINE
  5
150
100
AcDbEntity
  8
builder
  6
ByLayer
 62
  256
370
   -1
100
AcDbLine
 10
76
 20
0
 11
120.5
 21
0
  0
LINE
  5
151
100
AcDbEntity
  8
builder
  6
ByLayer
 62
  256
370
   -1
100
AcDbLine
 10
76
 20
40
 11
76
 21
70.5
  0
LINE
  5
152
100
AcDbEntity
  8
builder
  6
ByLayer
 62
  256
370
   -1
100
AcDbLine
 10
5.000000000000028
 20
40
 11
5.000000000000028
 21
70.5
  0
LINE
  5
153
100
AcDbEntity
  8
builder
  6
ByLayer
 62
  256
370
   -1
100
AcDbLine
 10
-59.50000000000009
 20
0
 11
-15.00000000000009
 21
0
  0
LINE
  5
154
100
AcDbEntity
  8
builder
  6
ByLayer
 62
  256
370
   -1
100
AcDbLine
 10
76
 20
56.99999999999999
 11
5.000000000000028
 21
56.99999999999999
  0
LINE
  5
155
100
AcDbEntity
  8
builder
  6
ByLayer
 62
  256
370
   -1
100
AcDbLine
 10
26.99999999999999
 20
56.99999999999999
 11
27.00000000000002
 21
40
  0
CIRCLE
  5
156
100
AcDbEntity
  8
0
  6
ByLayer
 62
  256
370
   -1
100
AcDbCircle
 10
27.00000000000002
 20
46.99999999999989
 40
3
  0
LINE
  5
157
100
AcDbEntity
  8
builder
  6
ByLayer
 62
  256
370
   -1
100
AcDbLine
 10
76.00000000000003
 20
54.49999999999994
 11
5.00000000000005
 21
54.49999999999994
  0
LINE
  5
158
100
AcDbEntity
  8
builder
  6
ByLayer
 62
  256
370
   -1
100
AcDbLine
 10
5.000000000000036
 20
40
 11
22.00000000000013
 21
54.49999999999994
  0
LINE
  5
159
100
AcDbEntity
  8
builder
  6
ByLayer
 62
  256
370
   -1
100
AcDbLine
 10
76
 20
44.99999999999993
 11
26.99999999999999
 21
56.99999999999999
  0
LINE
  5
15A
100
AcDbEntity
  8
0
  6
ByLayer
 62
  256
370
   -1
100
AcDbLine
 10
5.000000000000036
 20
40
 11
21.99999999999994
 21
54.49999999999994
  0
LINE
  5
15B
100
AcDbEntity
  8
builder
  6
ByLayer
 62
  256
370
   -1
100
AcDbLine
 10
71.00000000000034
 20
40
 11
71.00000000000034
 21
48.87074210615272
  0
LINE
  5
15C
100
AcDbEntity
  8
builder
  6
ByLayer
 62
  256
370
   -1
100
AcDbLine
 10
71.00000000000034
 20
46.22448979591822
 11
76
 21
40
  0
LINE
  5
15D
100
AcDbEntity
  8
builder
  6
ByLayer
 62
  256
370
   -1
100
AcDbLine
 10
71.00000000000034
 20
40
 11
76
 21
44.99999999999993
  0
LINE
  5
15E
100
AcDbEntity
  8
0
  6
ByLayer
 62
  256
370
   -1
100
AcDbLine
 10
31.82292075915435
 20
55.81887654877851
 11
71.00000000000034
 21
46.22448979591822
  0
LINE
  5
15F
100
AcDbEntity
  8
builder
  6
ByLayer
 62
  256
370
   -1
100
AcDbLine
 10
76
 20
70.5
 11
76
 21
189.6870665154812
  0
LINE
  5
160
100
AcDbEntity
  8
builder
  6
ByLayer
 62
  256
370
   -1
100
AcDbLine
 10
5.000000000000028
 20
70.5
 11
5.000000000000028
 21
186.7623760625994
  0
LINE
  5
161
100
AcDbEntity
  8
builder
  6
ByLayer
 62
  256
370
   -1
100
AcDbLine
 10
76
 20
158.0661080667599
 11
76
 21
62.5661080667599
  0
LINE
  5
162
100
AcDbEntity
  8
0
  6
ByLayer
 62
  256
370
   -1
100
AcDbLine
 10
76
 20
-40.50000000000075
 11
76
 21
-20.50000000000072
  0
LINE
  5
163
100
AcDbEntity
  8
0
  6
ByLayer
 62
  256
370
   -1
100
AcDbLine
 10
76
 20
-20.50000000000072
 11
-20
 21
-20.50000000000068
  0
LINE
  5
164
100
AcDbEntity
  8
0
  6
ByLayer
 62
  256
370
   -1
100
AcDbLine
 10
-20
 20
-20.50000000000068
 11
-20
 21
-40.50000000000068
  0
LINE
  5
165
100
AcDbEntity
  8
0
  6
ByLayer
 62
  256
370
   -1
100
AcDbLine
 10
-20
 20
-40.50000000000068
 11
76
 21
-40.50000000000075
  0
DIMENSION
  5
166
100
AcDbEntity
  8
sizes
  6
ByLayer
 62
  256
370
   -1
100
AcDbDimension
  2
*D1
 10
76
 20
-50.18671553100094
 30
0
 11
28
 21
-47.12421553100094
 31
0
 70
   32
 71
    5
 72
    0
  3
Standard
 53
0
210
0
220
0
230
1
100
AcDbAlignedDimension
 13
-20
 23
-40.50000000000068
 33
0
 14
76
 24
-40.50000000000075
 34
0
100
AcDbRotatedDimension
  0
ARC
  5
167
100
AcDbEntity
  8
0
  6
ByLayer
 62
  256
370
   -1
100
AcDbCircle
 10
27.99433628449676
 20
47.09423746702556
 40
9.52771673521206
100
AcDbArc
 50
66.30696188565187
 51
128.9872323180463
  0
ARC
  5
168
100
AcDbEntity
  8
0
  6
ByLayer
 62
  256
370
   -1
100
AcDbCircle
 10
69.95523249629687
 20
40.26480870645987
 40
6.050565083101103
100
AcDbArc
 50
357.4915947652409
 51
80.05674710590509
  0
LINE
  5
169
100
AcDbEntity
  8
0
  6
ByLayer
 62
  256
370
   -1
100
AcDbLine
 10
113.2340000000073
 20
0
 11
113.2340000000071
 21
39.99999999999999
  0
LINE
  5
16A
100
AcDbEntity
  8
0
  6
ByLayer
 62
  256
370
   -1
100
AcDbLine
 10
113.2340000000071
 20
39.99999999999999
 11
93.23400000000704
 21
40
  0
LINE
  5
16B
100
AcDbEntity
  8
0
  6
ByLayer
 62
  256
370
   -1
100
AcDbLine
 10
93.23400000000704
 20
40
 11
93.23400000000734
 21
0
  0
LINE
  5
16C
100
AcDbEntity
  8
0
  6
ByLayer
 62
  256
370
   -1
100
AcDbLine
 10
93.23400000000734
 20
0
 11
113.2340000000073
 21
0
  0
DIMENSION
  5
16D
100
AcDbEntity
  8
sizes
  6
ByLayer
 62
  256
370
   -1
100
AcDbDimension
  2
*D2
 10
124.6482480211164
 20
-1.397842230372527e-15
 30
0
 11
121.5857480211164
 21
19.99999999999999
 31
0
 70
   32
 71
    5
 72
    0
  3
Standard
 53
0
210
0
220
0
230
1
100
AcDbAlignedDimension
 13
113.2340000000071
 23
39.99999999999999
 33
0
 14
113.2340000000073
 24
0
 34
0
 50
90
100
AcDbRotatedDimension
  0
DIMENSION
  5
16E
100
AcDbEntity
  8
sizes
  6
ByLayer
 62
  256
370
   -1
100
AcDbDimension
  2
*D3
 10
84.4222500000069
 20
56.99999999999999
 30
0
 11
81.3597500000069
 21
28.5
 31
0
 70
   32
 71
    5
  3
Standard
 53
0
210
0
220
0
230
1
100
AcDbAlignedDimension
 13
76
 23
0
 33
0
 14
26.99999999999999
 24
56.99999999999999
 34
0
 50
90
100
AcDbRotatedDimension
  0
LINE
  5
16F
100
AcDbEntity
  8
0
  6
ByLayer
 62
  256
370
   -1
100
AcDbLine
 10
-37.84936758975312
 20
-1.77635683940025e-15
 11
-37.84936758975311
 21
40.31128874149276
  0
LINE
  5
170
100
AcDbEntity
  8
0
  6
ByLayer
 62
  256
370
   -1
100
AcDbLine
 10
-57.84936758975311
 20
40.31128874149275
 11
-57.84936758975312
 21
3.552713678800501e-15
  0
LINE
  5
171
100
AcDbEntity
  8
0
  6
ByLayer
 62
  256
370
   -1
100
AcDbLine
 10
-57.84936758975312
 20
3.552713678800501e-15
 11
-37.84936758975312
 21
-1.77635683940025e-15
  0
DIMENSION
  5
172
100
AcDbEntity
  8
sizes
  6
ByLayer
 62
  256
370
   -1
100
AcDbDimension
  2
*D4
 10
-37.84936758975312
 20
-9.89445910290245
 30
0
 11
-47.84936758975312
 21
-6.83195910290245
 31
0
 70
   32
 71
    5
 72
    0
  3
Standard
 53
0
210
0
220
0
230
1
100
AcDbAlignedDimension
 13
-57.84936758975312
 23
3.552713678800501e-15
 33
0
 14
-37.84936758975312
 24
-1.77635683940025e-15
 34
0
100
AcDbRotatedDimension
  0
DIMENSION
  5
173
100
AcDbEntity
  8
sizes
  6
ByLayer
 62
  256
370
   -1
100
AcDbDimension
  2
*D5
 10
-25.9511696200516
 20
40.00000000000001
 30
0
 11
-29.0136696200516
 21
48.5
 31
0
 70
   32
 71
    5
  3
Standard
 53
0
210
0
220
0
230
1
100
AcDbAlignedDimension
 13
26.99999999999999
 23
56.99999999999999
 33
0
 14
5.000000000000028
 24
40
 34
0
 50
90
100
AcDbRotatedDimension
  0
DIMENSION
  5
174
100
AcDbEntity
  8
sizes
  6
ByLayer
 62
  256
370
   -1
100
AcDbDimension
  2
*D6
 10
27.00000000000002
 20
62.25000000000536
 30
0
 11
51.50000000000001
 21
65.31250000000536
 31
0
 70
   32
 71
    5
  3
Standard
 53
0
210
0
220
0
230
1
100
AcDbAlignedDimension
 13
76
 23
40
 33
0
 14
27.00000000000002
 24
46.99999999999989
 34
0
100
AcDbRotatedDimension
  0
LINE
  5
175
100
AcDbEntity
  8
builder
  6
ByLayer
 62
  256
370
   -1
100
AcDbLine
 10
76
 20
128.2468862992611
 11
120.5
 21
128.2468862992611
  0
LINE
  5
176
100
AcDbEntity
  8
builder
  6
ByLayer
 62
  256
370
   -1
100
AcDbLine
 10
76
 20
168.2468862992611
 11
76
 21
198.7468862992611
  0
CIRCLE
  5
177
100
AcDbEntity
  8
0
  6
ByLayer
 62
  256
370
   -1
100
AcDbCircle
 10
27.00000000000002
 20
175.246886299261
 40
3
  0
LINE
  5
178
100
AcDbEntity
  8
builder
  6
ByLayer
 62
  256
370
   -1
100
AcDbLine
 10
76
 20
173.246886299261
 11
26.99999999999999
 21
185.2468862992611
  0
LINE
  5
179
100
AcDbEntity
  8
builder
  6
ByLayer
 62
  256
370
   -1
100
AcDbLine
 10
71.00000000000034
 20
168.2468862992611
 11
71.00000000000034
 21
177.1176284054138
  0
LINE
  5
17A
100
AcDbEntity
  8
builder
  6
ByLayer
 62
  256
370
   -1
100
AcDbLine
 10
71.00000000000034
 20
174.4713760951793
 11
76
 21
168.2468862992611
  0
LINE
  5
17B
100
AcDbEntity
  8
builder
  6
ByLayer
 62
  256
370
   -1
100
AcDbLine
 10
71.00000000000034
 20
168.2468862992611
 11
76
 21
173.246886299261
  0
LINE
  5
17C
100
AcDbEntity
  8
builder
  6
ByLayer
 62
  256
370
   -1
100
AcDbLine
 10
76
 20
163.2468862992611
 11
76
 21
128.2468862992611
  0
LINE
  5
17D
100
AcDbEntity
  8
builder
  6
ByLayer
 62
  256
370
   -1
100
AcDbLine
 10
76
 20
128.2468862992611
 11
0
 21
153.2468862992612
  0
LINE
  5
17E
100
AcDbEntity
  8
builder
  6
ByLayer
 62
  256
370
   -1
100
AcDbLine
 10
0
 20
153.2468862992612
 11
-76
 21
178.2468862992613
  0
LINE
  5
17F
100
AcDbEntity
  8
builder
  6
ByLayer
 62
  256
370
   -1
100
AcDbLine
 10
5.312085009568576
 20
169.3956247283496
 11
-70.68791499043142
 21
194.3956247283497
  0
LINE
  5
180
100
AcDbEntity
  8
builder
  6
ByLayer
 62
  256
370
   -1
100
AcDbLine
 10
-26.59792211849847
 20
161.9962027856094
 11
-32.53495830566334
 21
143.9476127766283
  0
LINE
  5
181
100
AcDbEntity
  8
builder
  6
ByLayer
 62
  256
370
   -1
100
AcDbLine
 10
-20.66088657498258
 20
180.0447908378977
 11
-26.59792276214745
 21
161.9962008289166
  0
LINE
  5
182
100
AcDbEntity
  8
builder
  6
ByLayer
 62
  256
370
   -1
100
AcDbLine
 10
-9.956661895053635
 20
165.4701714348051
 11
-37.92709733237473
 21
174.6709725655024
  0
LINE
  5
183
100
AcDbEntity
  8
builder
  6
ByLayer
 62
  256
370
   -1
100
AcDbLine
 10
-17.26271390315351
 20
167.8734780164166
 11
-39.60082018494776
 21
167.8734780164166
  0
CIRCLE
  5
184
100
AcDbEntity
  8
builder
  6
ByLayer
 62
  256
370
   -1
100
AcDbCircle
 10
-23.91219443277817
 20
170.0608071380036
 40
11
  0
LINE
  5
185
100
AcDbEntity
  8
builder
  6
ByLayer
 62
  256
370
   -1
100
AcDbLine
 10
26.99999999999999
 20
185.2468862992611
 11
-24.10790732137786
 21
181.0590659304323
  0
LINE
  5
186
100
AcDbEntity
  8
builder
  6
ByLayer
 62
  256
370
   -1
100
AcDbLine
 10
-20
 20
128.2468862992611
 11
-34.13561152749809
 21
166.0010358504323
  0
CIRCLE
  5
187
100
AcDbEntity
  8
0
  6
ByLayer
 62
  256
370
   -1
100
AcDbCircle
 10
-23.94187961371417
 20
170.0705720001537
 40
3
  0
LINE
  5
188
100
AcDbEntity
  8
builder
  6
ByLayer
 62
  256
370
   -1
100
AcDbLine
 10
76
 20
0
 11
76
 21
7.99999999999995
  0
LINE
  5
189
100
AcDbEntity
  8
builder
  6
ByLayer
 62
  256
370
   -1
100
AcDbLine
 10
76
 20
32.00000000000011
 11
76
 21
40
  0
LINE
  5
18A
100
AcDbEntity
  8
0
  6
ByLayer
 62
  256
370
   -1
100
AcDbLine
 10
-20
 20
0
 11
5.000000000000036
 21
40
  0
LINE
  5
18B
100
AcDbEntity
  8
builder
  6
ByLayer
 62
  256
370
   -1
100
AcDbLine
 10
76
 20
40
 11
5.000000000000028
 21
39.99999999999999
  0
LINE
  5
18C
100
AcDbEntity
  8
builder
  6
ByLayer
 62
  256
370
   -1
100
AcDbLine
 10
5.000000000000028
 20
39.99999999999999
 11
5.000000000000028
 21
-2.721313632408047
  0
DIMENSION
  5
18D
100
AcDbEntity
  8
sizes
  6
ByLayer
 62
  256
370
   -1
100
AcDbDimension
  2
*D7
 10
5.00000000000003
 20
62.22880777714092
 30
0
 11
16.00000000000002
 21
65.29130777714093
 31
0
 70
   32
 71
    5
 72
    0
  3
Standard
 53
0
210
0
220
0
230
1
100
AcDbAlignedDimension
 13
27.00000000000002
 23
46.99999999999989
 33
0
 14
5.000000000000028
 24
39.99999999999999
 34
0
100
AcDbRotatedDimension
  0
DIMENSION
  5
18E
100
AcDbEntity
  8
sizes
  6
ByLayer
 62
  256
370
   -1
100
AcDbDimension
  2
*D8
 10
5.000000000000028
 20
-9.872839695411782
 30
0
 11
-7.499999999999984
 21
-6.810339695411782
 31
0
 70
   32
 71
    5
 72
    0
  3
Standard
 53
0
210
0
220
0
230
1
100
AcDbAlignedDimension
 13
-20
 23
0
 33
0
 14
5.000000000000028
 24
0
 34
0
100
AcDbRotatedDimension
  0
DIMENSION
  5
18F
100
AcDbEntity
  8
sizes
  6
ByLayer
 62
  256
370
   -1
100
AcDbDimension
  2
*D9
 10
5.000000000000028
 20
-9.872839695411781
 30
0
 11
40.50000000000001
 21
-6.810339695411781
 31
0
 70
   32
 71
    5
 72
    0
  3
Standard
 53
0
210
0
220
0
230
1
100
AcDbAlignedDimension
 13
76
 23
0
 33
0
 14
5.000000000000028
 24
0
 34
0
100
AcDbRotatedDimension
  0
LINE
  5
190
100
AcDbEntity
  8
builder
  6
ByLayer
 62
  256
370
   -1
100
AcDbLine
 10
-20
 20
0
 11
-20
 21
93.19362318547793
  0
LINE
  5
191
100
AcDbEntity
  8
builder
  6
ByLayer
 62
  256
370
   -1
100
AcDbLine
 10
-20
 20
47.16990566028302
 11
-71.80247051208573
 21
47.16990566028302
  0
LINE
  5
192
100
AcDbEntity
  8
builder
  6
ByLayer
 62
  256
370
   -1
100
AcDbLine
 10
-37.84936758975311
 20
40.31128874149276
 11
-37.84936758975311
 21
51.30884872009459
  0
LINE
  5
193
100
AcDbEntity
  8
builder
  6
ByLayer
 62
  256
370
   -1
100
AcDbLine
 10
-57.84936758975311
 20
40.31128874149275
 11
-57.84936758975311
 21
51.60802568056162
  0
LINE
  5
194
100
AcDbEntity
  8
0
  6
ByLayer
 62
  256
370
   -1
100
AcDbLine
 10
-57.84936758975311
 20
40.31128874149275
 11
-57.84936758975311
 21
47.16990566028302
  0
LINE
  5
195
100
AcDbEntity
  8
0
  6
ByLayer
 62
  256
370
   -1
100
AcDbLine
 10
-57.84936758975311
 20
47.16990566028302
 11
-57.84936758975311
 21
40.31128874149276
  0
LINE
  5
196
100
AcDbEntity
  8
0
  6
ByLayer
 62
  256
370
   -1
100
AcDbLine
 10
-57.84936758975311
 20
47.16990566028302
 11
-37.84936758975311
 21
47.16990566028302
  0
LINE
  5
197
100
AcDbEntity
  8
0
  6
ByLayer
 62
  256
370
   -1
100
AcDbLine
 10
-37.84936758975311
 20
47.16990566028302
 11
-37.84936758975311
 21
40.31128874149276
  0
DIMENSION
  5
198
100
AcDbEntity
  8
sizes
  6
ByLayer
 62
  256
370
   -1
100
AcDbDimension
  2
*D10
 10
-65.74318381706888
 20
47.16990566028302
 30
0
 11
-68.80568381706888
 21
23.58495283014151
 31
0
 70
   32
 71
    5
 72
    0
  3
Standard
 53
0
210
0
220
0
230
1
100
AcDbAlignedDimension
 13
-57.84936758975312
 23
3.552713678800501e-15
 33
0
 14
-57.84936758975311
 24
47.16990566028302
 34
0
 50
90
100
AcDbRotatedDimension
  0
DIMENSION
  5
199
100
AcDbEntity
  8
sizes
  6
ByLayer
 62
  256
370
   -1
100
AcDbDimension
  2
*D11
 10
113.2340000000073
 20
-9.948750000000986
 30
0
 11
103.2340000000073
 21
-6.886250000000986
 31
0
 70
   32
 71
    5
 72
    0
  3
Standard
 53
0
210
0
220
0
230
1
100
AcDbAlignedDimension
 13
93.23400000000734
 23
0
 33
0
 14
113.2340000000073
 24
0
 34
0
100
AcDbRotatedDimension
  0
DIMENSION
  5
19A
100
AcDbEntity
  8
sizes
  6
ByLayer
 62
  256
370
   -1
100
AcDbDimension
  2
*D12
 10
84.13800000000836
 20
-20.50000000000072
 30
0
 11
81.07550000000836
 21
-30.50000000000074
 31
0
 70
   32
 71
    5
 72
    0
  3
Standard
 53
0
210
0
220
0
230
1
100
AcDbAlignedDimension
 13
76
 23
-40.50000000000075
 33
0
 14
76
 24
-20.50000000000072
 34
0
 50
90
100
AcDbRotatedDimension
  0
LINE
  5
19B
100
AcDbEntity
  8
0
  6
ByLayer
 62
  256
370
   -1
100
AcDbLine
 10
76
 20
72.98056300275478
 11
76
 21
92.98056300275479
  0
LINE
  5
19C
100
AcDbEntity
  8
0
  6
ByLayer
 62
  256
370
   -1
100
AcDbLine
 10
76
 20
92.98056300275479
 11
5.000000000000036
 21
92.98056300275481
  0
LINE
  5
19D
100
AcDbEntity
  8
0
  6
ByLayer
 62
  256
370
   -1
100
AcDbLine
 10
5.000000000000036
 20
92.98056300275481
 11
5.000000000000028
 21
72.98056300275479
  0
LINE
  5
19E
100
AcDbEntity
  8
0
  6
ByLayer
 62
  256
370
   -1
100
AcDbLine
 10
5.000000000000028
 20
72.98056300275479
 11
76
 21
72.98056300275478
  0
DIMENSION
  5
19F
100
AcDbEntity
  8
sizes
  6
ByLayer
 62
  256
370
   -1
100
AcDbDimension
  2
*D13
 10
76
 20
101.8483130027556
 30
0
 11
40.50000000000002
 21
104.9108130027556
 31
0
 70
   32
 71
    5
 72
    0
  3
Standard
 53
0
210
0
220
0
230
1
100
AcDbAlignedDimension
 13
5.000000000000036
 23
92.98056300275481
 33
0
 14
76
 24
92.98056300275479
 34
0
100
AcDbRotatedDimension
  0
DIMENSION
  5
1A0
100
AcDbEntity
  8
sizes
  6
ByLayer
 62
  256
370
   -1
100
AcDbDimension
  2
*D14
 10
84.35317725000832
 20
92.98056300275479
 30
0
 11
81.29067725000832
 21
82.98056300275478
 31
0
 70
   32
 71
    5
 72
    0
  3
Standard
 53
0
210
0
220
0
230
1
100
AcDbAlignedDimension
 13
76
 23
72.98056300275478
 33
0
 14
76
 24
92.98056300275479
 34
0
 50
90
100
AcDbRotatedDimension
  0
LINE
  5
1A1
100
AcDbEntity
  8
builder
  6
ByLayer
 62
  256
370
   -1
100
AcDbLine
 10
76
 20
168.2468862992611
 11
5.000000000000028
 21
168.2468862992611
  0
LINE
  5
1A2
100
AcDbEntity
  8
builder
  6
ByLayer
 62
  256
370
   -1
100
AcDbLine
 10
5.000000000000028
 20
10
 11
76
 21
9.999999999999972
  0
LINE
  5
1A3
100
AcDbEntity
  8
builder
  6
ByLayer
 62
  256
370
   -1
100
AcDbLine
 10
65.99999999999986
 20
40
 11
65.99999999999996
 21
0
  0
LINE
  5
1A4
100
AcDbEntity
  8
builder
  6
ByLayer
 62
  256
370
   -1
100
AcDbLine
 10
5.000000000000032
 20
29.99999999999999
 11
76
 21
30.0000000000003
  0
LINE
  5
1A5
100
AcDbEntity
  8
builder
  6
ByLayer
 62
  256
370
   -1
100
AcDbLine
 10
15.00000000000002
 20
39.99999999999999
 11
15.00000000000003
 21
1.77635683940025e-15
  0
LINE
  5
1A6
100
AcDbEntity
  8
builder
  6
ByLayer
 62
  256
370
   -1
100
AcDbLine
 10
65.99999999999987
 20
30.00000000000026
 11
76
 21
40
  0
LINE
  5
1A7
100
AcDbEntity
  8
builder
  6
ByLayer
 62
  256
370
   -1
100
AcDbLine
 10
65.99999999999986
 20
40
 11
76
 21
30.0000000000003
  0
LINE
  5
1A8
100
AcDbEntity
  8
builder
  6
ByLayer
 62
  256
370
   -1
100
AcDbLine
 10
76
 20
30.0000000000003
 11
76
 21
9.999999999999975
  0
LINE
  5
1A9
100
AcDbEntity
  8
builder
  6
ByLayer
 62
  256
370
   -1
100
AcDbLine
 10
76
 20
9.999999999999975
 11
65.99999999999996
 21
0
  0
LINE
  5
1AA
100
AcDbEntity
  8
builder
  6
ByLayer
 62
  256
370
   -1
100
AcDbLine
 10
65.99999999999996
 20
0
 11
65.99999999999993
 21
9.999999999999975
  0
LINE
  5
1AB
100
AcDbEntity
  8
builder
  6
ByLayer
 62
  256
370
   -1
100
AcDbLine
 10
65.99999999999993
 20
9.999999999999975
 11
76
 21
0
  0
LINE
  5
1AC
100
AcDbEntity
  8
builder
  6
ByLayer
 62
  256
370
   -1
100
AcDbLine
 10
76
 20
0
 11
15.00000000000003
 21
0
  0
LINE
  5
1AD
100
AcDbEntity
  8
builder
  6
ByLayer
 62
  256
370
   -1
100
AcDbLine
 10
5.000000000000028
 20
10
 11
15.00000000000002
 21
9.999999999999993
  0
LINE
  5
1AE
100
AcDbEntity
  8
builder
  6
ByLayer
 62
  256
370
   -1
100
AcDbLine
 10
5.000000000000028
 20
0
 11
5.000000000000028
 21
29.99999999999999
  0
LINE
  5
1AF
100
AcDbEntity
  8
builder
  6
ByLayer
 62
  256
370
   -1
100
AcDbLine
 10
5.000000000000028
 20
29.99999999999999
 11
15.00000000000002
 21
39.99999999999999
  0
LINE
  5
1B0
100
AcDbEntity
  8
builder
  6
ByLayer
 62
  256
370
   -1
100
AcDbLine
 10
15.00000000000002
 20
39.99999999999999
 11
15.00000000000002
 21
30.00000000000003
  0
LINE
  5
1B1
100
AcDbEntity
  8
builder
  6
ByLayer
 62
  256
370
   -1
100
AcDbLine
 10
15.00000000000002
 20
30.00000000000003
 11
5.000000000000028
 21
39.99999999999999
  0
CIRCLE
  5
1B2
100
AcDbEntity
  8
0
  6
ByLayer
 62
  256
370
   -1
100
AcDbCircle
 10
10.00000000000003
 20
35
 40
2.2
  0
CIRCLE
  5
1B3
100
AcDbEntity
  8
0
  6
ByLayer
 62
  256
370
   -1
100
AcDbCircle
 10
70.99999999999994
 20
35.00000000000014
 40
2.2
  0
CIRCLE
  5
1B4
100
AcDbEntity
  8
0
  6
ByLayer
 62
  256
370
   -1
100
AcDbCircle
 10
70.99999999999997
 20
4.999999999999981
 40
2.2
  0
LINE
  5
1B5
100
AcDbEntity
  8
builder
  6
ByLayer
 62
  256
370
   -1
100
AcDbLine
 10
5.000000000000028
 20
10
 11
-23.98157638559602
 21
10
  0
LINE
  5
1B6
100
AcDbEntity
  8
builder
  6
ByLayer
 62
  256
370
   -1
100
AcDbLine
 10
-3.749999999999993
 20
-1.77635683940025e-15
 11
-13.74999999999999
 21
9.999999999999998
  0
LINE
  5
1B7
100
AcDbEntity
  8
builder
  6
ByLayer
 62
  256
370
   -1
100
AcDbLine
 10
-3.749999999999996
 20
9.999999999999991
 11
-13.74999999999999
 21
-1.77635683940025e-15
  0
CIRCLE
  5
1B8
100
AcDbEntity
  8
0
  6
ByLayer
 62
  256
370
   -1
100
AcDbCircle
 10
-8.749999999999993
 20
4.999999999999997
 40
2.2
  0
LINE
  5
1B9
100
AcDbEntity
  8
builder
  6
ByLayer
 62
  256
370
   -1
100
AcDbLine
 10
5.000000000000028
 20
0
 11
5.000000000000028
 21
39.99999999999999
  0
LWPOLYLINE
  5
1BA
100
AcDbEntity
  8
InternalComps
  6
ByLayer
 62
  256
370
   -1
100
AcDbPolyline
 90
    4
 70
    1
 43
0
 10
16.35000000000002
 20
2.749999999999986
 10
64.65000000000002
 20
2.749999999999986
 10
64.65000000000002
 20
37.24999999999999
 10
16.35000000000002
 20
37.24999999999999
  0
CIRCLE
  5
1BB
100
AcDbEntity
  8
0
  6
ByLayer
 62
  256
370
   -1
100
AcDbCircle
 10
10.00000000000003
 20
163.2468862992611
 40
2.2
  0
CIRCLE
  5
1BC
100
AcDbEntity
  8
0
  6
ByLayer
 62
  256
370
   -1
100
AcDbCircle
 10
70.99999999999994
 20
163.2468862992612
 40
2.2
  0
CIRCLE
  5
1BD
100
AcDbEntity
  8
0
  6
ByLayer
 62
  256
370
   -1
100
AcDbCircle
 10
70.99999999999997
 20
133.2468862992611
 40
2.2
  0
CIRCLE
  5
1BE
100
AcDbEntity
  8
0
  6
ByLayer
 62
  256
370
   -1
100
AcDbCircle
 10
-8.749999999999993
 20
133.2468862992611
 40
2.2
  0
CIRCLE
  5
1BF
100
AcDbEntity
  8
InternalComps
  6
ByLayer
 62
  256
370
   -1
100
AcDbCircle
 10
21
 20
32.59999999999999
 40
2.5
  0
CIRCLE
  5
1C0
100
AcDbEntity
  8
InternalComps
  6
ByLayer
 62
  256
370
   -1
100
AcDbCircle
 10
60
 20
32.59999999999999
 40
2.5
  0
CIRCLE
  5
1C1
100
AcDbEntity
  8
InternalComps
  6
ByLayer
 62
  256
370
   -1
100
AcDbCircle
 10
21
 20
7.399999999999991
 40
2.5
  0
CIRCLE
  5
1C2
100
AcDbEntity
  8
InternalComps
  6
ByLayer
 62
  256
370
   -1
100
AcDbCircle
 10
60
 20
7.399999999999991
 40
2.5
  0
CIRCLE
  5
1C3
100
AcDbEntity
  8
0
  6
ByLayer
 62
  256
370
   -1
100
AcDbCircle
 10
21
 20
7.399999999999991
 40
2.5
  0
CIRCLE
  5
1C4
100
AcDbEntity
  8
0
  6
ByLayer
 62
  256
370
   -1
100
AcDbCircle
 10
21
 20
32.59999999999999
 40
2.5
  0
CIRCLE
  5
1C5
100
AcDbEntity
  8
0
  6
ByLayer
 62
  256
370
   -1
100
AcDbCircle
 10
60
 20
32.59999999999999
 40
2.5
  0
CIRCLE
  5
1C6
100
AcDbEntity
  8
0
  6
ByLayer
 62
  256
370
   -1
100
AcDbCircle
 10
60
 20
7.399999999999991
 40
2.5
  0
LINE
  5
1C7
100
AcDbEntity
  8
builder
  6
ByLayer
 62
  256
370
   -1
100
AcDbLine
 10
5.000000000000028
 20
169.4982842709708
 11
-20
 21
128.2468862992611
  0
LINE
  5
1C8
100
AcDbEntity
  8
builder
  6
ByLayer
 62
  256
370
   -1
100
AcDbLine
 10
70.99999999999994
 20
35.00000000000014
 11
112.6183828748999
 21
35.00000000000014
  0
LINE
  5
1C9
100
AcDbEntity
  8
builder
  6
ByLayer
 62
  256
370
   -1
100
AcDbLine
 10
70.99999999999997
 20
4.999999999999981
 11
112.8815112482218
 21
4.999999999999981
  0
LINE
  5
1CA
100
AcDbEntity
  8
builder
  6
ByLayer
 62
  256
370
   -1
100
AcDbLine
 10
103.2340000000072
 20
57.32050807568879
 11
103.2340000000071
 21
22.6794919243112
  0
LINE
  5
1CB
100
AcDbEntity
  8
builder
  6
ByLayer
 62
  256
370
   -1
100
AcDbLine
 10
103.2340000000073
 20
17.32050807568874
 11
103.2340000000074
 21
-17.32050807568871
  0
CIRCLE
  5
1CC
100
AcDbEntity
  8
0
  6
ByLayer
 62
  256
370
   -1
100
AcDbCircle
 10
103.2340000000073
 20
4.999999999999981
 40
1.6
  0
CIRCLE
  5
1CD
100
AcDbEntity
  8
0
  6
ByLayer
 62
  256
370
   -1
100
AcDbCircle
 10
103.2340000000071
 20
35.00000000000014
 40
1.6
  0
LINE
  5
1CE
100
AcDbEntity
  8
builder
  6
ByLayer
 62
  256
370
   -1
100
AcDbLine
 10
70.99999999999994
 20
35.00000000000014
 11
70.99999999999994
 21
92.00000000001086
  0
LINE
  5
1CF
100
AcDbEntity
  8
builder
  6
ByLayer
 62
  256
370
   -1
100
AcDbLine
 10
10.00000000000014
 20
35.00000000000011
 11
10.00000000000014
 21
92.50000000001089
  0
LINE
  5
1D0
100
AcDbEntity
  8
builder
  6
ByLayer
 62
  256
370
   -1
100
AcDbLine
 10
-12.32050807568875
 20
82.98056300275485
 11
22.32050807568883
 21
82.98056300275482
  0
LINE
  5
1D1
100
AcDbEntity
  8
builder
  6
ByLayer
 62
  256
370
   -1
100
AcDbLine
 10
22.32050807568883
 20
82.98056300275482
 11
100.3484401950484
 21
82.98056300275482
  0
CIRCLE
  5
1D2
100
AcDbEntity
  8
0
  6
ByLayer
 62
  256
370
   -1
100
AcDbCircle
 10
70.99999999999994
 20
82.98056300275482
 40
1.6
  0
CIRCLE
  5
1D3
100
AcDbEntity
  8
0
  6
ByLayer
 62
  256
370
   -1
100
AcDbCircle
 10
10.00000000000014
 20
82.98056300275482
 40
1.6
  0
LINE
  5
1D4
100
AcDbEntity
  8
builder
  6
ByLayer
 62
  256
370
   -1
100
AcDbLine
 10
70.99999999999997
 20
4.999999999999981
 11
70.99999999999997
 21
-43.89802045068107
  0
LINE
  5
1D5
100
AcDbEntity
  8
builder
  6
ByLayer
 62
  256
370
   -1
100
AcDbLine
 10
-8.749999999999993
 20
4.999999999999997
 11
-8.749999999999993
 21
-43.89802045068107
  0
CIRCLE
  5
1D6
100
AcDbEntity
  8
0
  6
ByLayer
 62
  256
370
   -1
100
AcDbCircle
 10
70.99999999999997
 20
-30.50000000000071
 40
1.6
  0
CIRCLE
  5
1D7
100
AcDbEntity
  8
0
  6
ByLayer
 62
  256
370
   -1
100
AcDbCircle
 10
-8.749999999999991
 20
-30.50000000000065
 40
1.6
  0
DIMENSION
  5
1D8
100
AcDbEntity
  8
sizes
  6
ByLayer
 62
  256
370
   -1
100
AcDbDimension
  2
*D15
 10
113.2340000000071
 20
46.5160976584935
 30
0
 11
108.2340000000071
 21
49.5785976584935
 31
0
 70
   32
 71
    5
 72
    0
  3
Standard
 53
0
210
0
220
0
230
1
100
AcDbAlignedDimension
 13
103.2340000000071
 23
35.00000000000014
 33
0
 14
113.2340000000071
 24
39.99999999999999
 34
0
100
AcDbRotatedDimension
  0
DIMENSION
  5
1D9
100
AcDbEntity
  8
sizes
  6
ByLayer
 62
  256
370
   -1
100
AcDbDimension
  2
*D16
 10
-0.578558428588229
 20
82.98056300275483
 30
0
 11
-3.641058428588229
 21
77.98056300275482
 31
0
 70
   32
 71
    5
 72
    0
  3
Standard
 53
0
210
0
220
0
230
1
100
AcDbAlignedDimension
 13
5.000000000000028
 23
72.98056300275479
 33
0
 14
10.00000000000014
 24
82.98056300275483
 34
0
 50
90
100
AcDbRotatedDimension
  0
LINE
  5
1DA
100
AcDbEntity
  8
builder
  6
ByLayer
 62
  256
370
   -1
100
AcDbLine
 10
32.53652694729213
 20
186.9796547829355
 11
71.71360618813813
 21
177.3852680300752
  0
LINE
  5
1DB
100
AcDbEntity
  8
builder
  6
ByLayer
 62
  256
370
   -1
100
AcDbLine
 10
26.75499887134096
 20
188.236865303695
 11
-24.35290845003689
 21
184.0490449348662
  0
LINE
  5
1DC
100
AcDbEntity
  8
builder
  6
ByLayer
 62
  256
370
   -1
100
AcDbLine
 10
-22.80953016446986
 20
127.1949641277418
 11
-36.94514169197367
 21
164.9491136789281
  0
LINE
  5
1DD
100
AcDbEntity
  8
builder
  6
ByLayer
 62
  256
370
   -1
100
AcDbLine
 10
-20
 20
125.2468862992611
 11
76
 21
125.2468862992611
  0
LINE
  5
1DE
100
AcDbEntity
  8
builder
  6
ByLayer
 62
  256
370
   -1
100
AcDbLine
 10
79
 20
163.2468862992611
 11
79
 21
128.2468862992611
  0
CIRCLE
  5
1DF
100
AcDbEntity
  8
builder
  6
ByLayer
 62
  256
370
   -1
100
AcDbCircle
 10
-23.94187961371416
 20
170.0705720001538
 40
14
  0
ARC
  5
1E0
100
AcDbEntity
  8
0
  6
ByLayer
 62
  256
370
   -1
100
AcDbCircle
 10
-23.94187961371427
 20
170.0705720001537
 40
13.99999999999984
100
AcDbArc
 50
90.65231303920955
 51
199.1747139472847
  0
LINE
  5
1E1
100
AcDbEntity
  8
0
  6
ByLayer
 62
  256
370
   -1
100
AcDbLine
 10
-24.10126631444967
 20
184.0696646807392
 11
26.75499887134096
 21
188.236865303695
  0
LINE
  5
1E2
100
AcDbEntity
  8
0
  6
ByLayer
 62
  256
370
   -1
100
AcDbLine
 10
26.75499887134096
 20
188.236865303695
 11
71.71360618813813
 21
177.3852680300752
  0
LINE
  5
1E3
100
AcDbEntity
  8
builder
  6
ByLayer
 62
  256
370
   -1
100
AcDbLine
 10
79
 20
198.2468862992611
 11
79
 21
163.2468862992611
  0
LINE
  5
1E4
100
AcDbEntity
  8
builder
  6
ByLayer
 62
  256
370
   -1
100
AcDbLine
 10
76
 20
173.246886299261
 11
80.99999999999966
 21
178.2468862992609
  0
ARC
  5
1E5
100
AcDbEntity
  8
0
  6
ByLayer
 62
  256
370
   -1
100
AcDbCircle
 10
67.55171445951063
 20
166.5927707628231
 40
11.56716646480302
100
AcDbArc
 50
8.221534432148612
 51
68.91195218275809
  0
LINE
  5
1E6
100
AcDbEntity
  8
builder
  6
ByLayer
 62
  256
370
   -1
100
AcDbLine
 10
76
 20
125.2468862992611
 11
83.15186706340762
 21
125.2468862992611
  0
LINE
  5
1E7
100
AcDbEntity
  8
builder
  6
ByLayer
 62
  256
370
   -1
100
AcDbLine
 10
79
 20
128.2468862992611
 11
79
 21
123.6984717778572
  0
LINE
  5
1E8
100
AcDbEntity
  8
builder
  6
ByLayer
 62
  256
370
   -1
100
AcDbLine
 10
-15.09287002568465
 20
106.5848942804967
 11
-29.22848155318847
 21
144.3390438316831
  0
LINE
  5
1E9
100
AcDbEntity
  8
builder
  6
ByLayer
 62
  256
370
   -1
100
AcDbLine
 10
-20
 20
125.2468862992611
 11
-27.23779364230571
 21
125.2468862992611
  0
LINE
  5
1EA
100
AcDbEntity
  8
0
  6
ByLayer
 62
  256
370
   -1
100
AcDbLine
 10
79
 20
168.2468862992567
 11
79
 21
125.2468862992611
  0
LINE
  5
1EB
100
AcDbEntity
  8
0
  6
ByLayer
 62
  256
370
   -1
100
AcDbLine
 10
79
 20
125.2468862992611
 11
-22.08014619645301
 21
125.2468862992611
  0
LINE
  5
1EC
100
AcDbEntity
  8
0
  6
ByLayer
 62
  256
370
   -1
100
AcDbLine
 10
-22.080146196453
 20
125.2468862992611
 11
-37.16517942787856
 21
165.4722742689581
  0
LINE
  5
1ED
100
AcDbEntity
  8
builder
  6
ByLayer
 62
  256
370
   -1
100
AcDbLine
 10
-20
 20
128.2468862992611
 11
76
 21
128.2468862992611
  0
DIMENSION
  5
1EE
100
AcDbEntity
  8
sizes
  6
ByLayer
 62
  256
370
   -1
100
AcDbDimension
  2
*D17
 10
70.99999999999997
 20
118.9307602518494
 30
0
 11
74.99999999999999
 21
121.9932602518494
 31
0
 70
   32
 71
    5
  3
Standard
 53
0
210
0
220
0
230
1
100
AcDbAlignedDimension
 13
79
 23
125.2468862992611
 33
0
 14
70.99999999999997
 24
133.2468862992611
 34
0
100
AcDbRotatedDimension
  0
DIMENSION
  5
1EF
100
AcDbEntity
  8
sizes
  6
ByLayer
 62
  256
370
   -1
100
AcDbDimension
  2
*D18
 10
70.99999999999997
 20
118.9683030817345
 30
0
 11
49
 21
122.0308030817345
 31
0
 70
   32
 71
    5
  3
Standard
 53
0
210
0
220
0
230
1
100
AcDbAlignedDimension
 13
27.00000000000002
 23
175.246886299261
 33
0
 14
70.99999999999997
 24
133.2468862992611
 34
0
100
AcDbRotatedDimension
  0
DIMENSION
  5
1F0
100
AcDbEntity
  8
sizes
  6
ByLayer
 62
  256
370
   -1
100
AcDbDimension
  2
*D19
 10
89.12302146136834
 20
133.2468862992611
 30
0
 11
86.06052146136834
 21
129.2468862992611
 31
0
 70
   32
 71
    5
  3
Standard
 53
0
210
0
220
0
230
1
100
AcDbAlignedDimension
 13
79
 23
125.2468862992611
 33
0
 14
70.99999999999997
 24
133.2468862992611
 34
0
 50
90
100
AcDbRotatedDimension
  0
DIMENSION
  5
1F1
100
AcDbEntity
  8
sizes
  6
ByLayer
 62
  256
370
   -1
100
AcDbDimension
  2
*D20
 10
89.11153268430921
 20
163.2468862992612
 30
0
 11
86.04903268430921
 21
148.2468862992611
 31
0
 70
   32
 71
    5
  3
Standard
 53
0
210
0
220
0
230
1
100
AcDbAlignedDimension
 13
70.99999999999997
 23
133.2468862992611
 33
0
 14
70.99999999999994
 24
163.2468862992612
 34
0
 50
90
100
AcDbRotatedDimension
  0
DIMENSION
  5
1F2
100
AcDbEntity
  8
sizes
  6
ByLayer
 62
  256
370
   -1
100
AcDbDimension
  2
*D21
 10
89.1761223154643
 20
175.246886299261
 30
0
 11
86.1136223154643
 21
169.2468862992611
 31
0
 70
   32
 71
    5
  3
Standard
 53
0
210
0
220
0
230
1
100
AcDbAlignedDimension
 13
70.99999999999994
 23
163.2468862992612
 33
0
 14
27.00000000000002
 24
175.246886299261
 34
0
 50
90
100
AcDbRotatedDimension
  0
DIMENSION
  5
1F3
100
AcDbEntity
  8
sizes
  6
ByLayer
 62
  256
370
   -1
100
AcDbDimension
  2
*D22
 10
-48.81266490765937
 20
133.2468862992611
 30
0
 11
-51.87516490765937
 21
129.2468862992611
 31
0
 70
   32
 71
    5
  3
Standard
 53
0
210
0
220
0
230
1
100
AcDbAlignedDimension
 13
-22.080146196453
 23
125.2468862992611
 33
0
 14
-8.749999999999993
 24
133.2468862992611
 34
0
 50
90
100
AcDbRotatedDimension
  0
DIMENSION
  5
1F4
100
AcDbEntity
  8
sizes
  6
ByLayer
 62
  256
370
   -1
100
AcDbDimension
  2
*D23
 10
-48.79931469916053
 20
163.2468862992611
 30
0
 11
-51.86181469916053
 21
148.2468862992611
 31
0
 70
   32
 71
    5
  3
Standard
 53
0
210
0
220
0
230
1
100
AcDbAlignedDimension
 13
-8.749999999999993
 23
133.2468862992611
 33
0
 14
10.00000000000003
 24
163.2468862992611
 34
0
 50
90
100
AcDbRotatedDimension
  0
DIMENSION
  5
1F5
100
AcDbEntity
  8
sizes
  6
ByLayer
 62
  256
370
   -1
100
AcDbDimension
  2
*D24
 10
10.00000000000003
 20
118.9483771752105
 30
0
 11
18.50000000000002
 21
122.0108771752105
 31
0
 70
   32
 71
    5
  3
Standard
 53
0
210
0
220
0
230
1
100
AcDbAlignedDimension
 13
27.00000000000002
 23
175.246886299261
 33
0
 14
10.00000000000003
 24
163.2468862992611
 34
0
100
AcDbRotatedDimension
  0
DIMENSION
  5
1F6
100
AcDbEntity
  8
sizes
  6
ByLayer
 62
  256
370
   -1
100
AcDbDimension
  2
*D25
 10
-8.749999999999993
 20
118.9228417856493
 30
0
 11
0.625000000000018
 21
121.9853417856493
 31
0
 70
   32
 71
    5
  3
Standard
 53
0
210
0
220
0
230
1
100
AcDbAlignedDimension
 13
10.00000000000003
 23
163.2468862992611
 33
0
 14
-8.749999999999993
 24
133.2468862992611
 34
0
100
AcDbRotatedDimension
  0
DIMENSION
  5
1F7
100
AcDbEntity
  8
sizes
  6
ByLayer
 62
  256
370
   -1
100
AcDbDimension
  2
*D26
 10
-22.080146196453
 20
118.9483771752106
 30
0
 11
-15.4150730982265
 21
122.0108771752106
 31
0
 70
   32
 71
    5
  3
Standard
 53
0
210
0
220
0
230
1
100
AcDbAlignedDimension
 13
-8.749999999999993
 23
133.2468862992611
 33
0
 14
-22.080146196453
 24
125.2468862992611
 34
0
100
AcDbRotatedDimension
  0
DIMENSION
  5
1F8
100
AcDbEntity
  8
sizes
  6
ByLayer
 62
  256
370
   -1
100
AcDbDimension
  2
*D27
 10
27.00000000000002
 20
196.5000000000316
 30
0
 11
53.00000000000001
 21
199.5625000000316
 31
0
 70
   32
 71
    5
  3
Standard
 53
0
210
0
220
0
230
1
100
AcDbAlignedDimension
 13
79
 23
168.2468862992627
 33
0
 14
27.00000000000002
 24
175.246886299261
 34
0
100
AcDbRotatedDimension
  0
DIMENSION
  5
1F9
100
AcDbEntity
  8
sizes
  6
ByLayer
 62
  256
370
   -1
100
AcDbDimension
  2
*D28
 10
-23.94187961371427
 20
196.362730662853
 30
0
 11
1.529060193142877
 21
199.425230662853
 31
0
 70
   32
 71
    5
  3
Standard
 53
0
210
0
220
0
230
1
100
AcDbAlignedDimension
 13
27.00000000000002
 23
175.246886299261
 33
0
 14
-23.94187961371427
 24
170.0705720001537
 34
0
100
AcDbRotatedDimension
  0
ARC
  5
1FA
100
AcDbEntity
  8
InternalComps
  6
ByLayer
 62
  256
370
   -1
100
AcDbCircle
 10
27.9943
 20
175.341
 40
9.52772
100
AcDbArc
 50
66.307
 51
128.987
  0
LINE
  5
1FB
100
AcDbEntity
  8
InternalComps
  6
ByLayer
 62
  256
370
   -1
100
AcDbLine
 10
5
 20
168.247
 11
22
 21
182.747
  0
LINE
  5
1FC
100
AcDbEntity
  8
InternalComps
  6
ByLayer
 62
  256
370
   -1
100
AcDbLine
 10
-20
 20
128.247
 11
5
 21
168.247
  0
LINE
  5
1FD
100
AcDbEntity
  8
InternalComps
  6
ByLayer
 62
  256
370
   -1
100
AcDbLine
 10
31.8229
 20
184.066
 11
71
 21
174.471
  0
ARC
  5
1FE
100
AcDbEntity
  8
InternalComps
  6
ByLayer
 62
  256
370
   -1
100
AcDbCircle
 10
69.9552
 20
168.512
 40
6.05057
100
AcDbArc
 50
357.492
 51
80.05670000000001
  0
LINE
  5
1FF
100
AcDbEntity
  8
InternalComps
  6
ByLayer
 62
  256
370
   -1
100
AcDbLine
 10
76
 20
128.247
 11
76
 21
168.247
  0
LINE
  5
200
100
AcDbEntity
  8
InternalComps
  6
ByLayer
 62
  256
370
   -1
100
AcDbLine
 10
-20
 20
128.247
 11
76
 21
128.247
  0
LINE
  5
201
100
AcDbEntity
  8
builder
  6
ByLayer
 62
  256
370
   -1
100
AcDbLine
 10
10
 20
9.999999999999996
 11
0
 21
10
  0
LWPOLYLINE
  5
202
100
AcDbEntity
  8
InternalComps
  6
ByLayer
 62
  256
370
   -1
100
AcDbPolyline
 90
    4
 70
    1
 43
0
 10
65.99999999999997
 20
128.2468862992611
 10
75.99999999999997
 20
128.2468862992611
 10
75.99999999999997
 20
138.2468862992611
 10
65.99999999999997
 20
138.2468862992611
  0
LINE
  5
203
100
AcDbEntity
  8
builder
  6
ByLayer
 62
  256
370
   -1
100
AcDbLine
 10
65.99999999999997
 20
128.2468862992611
 11
75.99999999999997
 21
138.2468862992611
  0
LINE
  5
204
100
AcDbEntity
  8
builder
  6
ByLayer
 62
  256
370
   -1
100
AcDbLine
 10
65.99999999999997
 20
138.2468862992611
 11
75.99999999999997
 21
128.2468862992611
  0
LWPOLYLINE
  5
205
100
AcDbEntity
  8
InternalComps
  6
ByLayer
 62
  256
370
   -1
100
AcDbPolyline
 90
    4
 70
    1
 43
0
 10
-13.75
 20
128.2468862992611
 10
-3.75
 20
128.2468862992611
 10
-3.75
 20
138.2468862992611
 10
-13.75
 20
138.2468862992611
  0
LINE
  5
206
100
AcDbEntity
  8
builder
  6
ByLayer
 62
  256
370
   -1
100
AcDbLine
 10
-13.75
 20
128.2468862992611
 11
-3.75
 21
138.2468862992611
  0
LINE
  5
207
100
AcDbEntity
  8
builder
  6
ByLayer
 62
  256
370
   -1
100
AcDbLine
 10
-13.75
 20
138.2468862992611
 11
-3.75
 21
128.2468862992611
  0
LWPOLYLINE
  5
208
100
AcDbEntity
  8
InternalComps
  6
ByLayer
 62
  256
370
   -1
100
AcDbPolyline
 90
    4
 70
    1
 43
0
 10
5.000000000000021
 20
158.2468862992611
 10
15.00000000000002
 20
158.2468862992611
 10
15.00000000000002
 20
168.2468862992611
 10
5.000000000000021
 20
168.2468862992611
  0
LINE
  5
209
100
AcDbEntity
  8
builder
  6
ByLayer
 62
  256
370
   -1
100
AcDbLine
 10
5.000000000000021
 20
158.2468862992611
 11
15.00000000000002
 21
168.2468862992611
  0
LINE
  5
20A
100
AcDbEntity
  8
builder
  6
ByLayer
 62
  256
370
   -1
100
AcDbLine
 10
5.000000000000021
 20
168.2468862992611
 11
15.00000000000002
 21
158.2468862992611
  0
LWPOLYLINE
  5
20B
100
AcDbEntity
  8
InternalComps
  6
ByLayer
 62
  256
370
   -1
100
AcDbPolyline
 90
    4
 70
    1
 43
0
 10
65.99999999999994
 20
158.2468862992612
 10
75.99999999999994
 20
158.2468862992612
 10
75.99999999999994
 20
168.2468862992612
 10
65.99999999999994
 20
168.2468862992612
  0
LINE
  5
20C
100
AcDbEntity
  8
builder
  6
ByLayer
 62
  256
370
   -1
100
AcDbLine
 10
65.99999999999994
 20
158.2468862992612
 11
75.99999999999994
 21
168.2468862992612
  0
LINE
  5
20D
100
AcDbEntity
  8
builder
  6
ByLayer
 62
  256
370
   -1
100
AcDbLine
 10
65.99999999999994
 20
168.2468862992612
 11
75.99999999999994
 21
158.2468862992612
  0
LWPOLYLINE
  5
20E
100
AcDbEntity
  8
InternalComps
  6
ByLayer
 62
  256
370
   -1
100
AcDbPolyline
 90
    4
 70
    1
 43
0
 10
65.99999999999994
 20
30.00000000000014
 10
75.99999999999994
 20
30.00000000000014
 10
75.99999999999994
 20
40.00000000000014
 10
65.99999999999994
 20
40.00000000000014
  0
LWPOLYLINE
  5
20F
100
AcDbEntity
  8
InternalComps
  6
ByLayer
 62
  256
370
   -1
100
AcDbPolyline
 90
    4
 70
    1
 43
0
 10
65.99999999999997
 20
-1.77635683940025e-14
 10
75.99999999999997
 20
-1.77635683940025e-14
 10
75.99999999999997
 20
9.999999999999982
 10
65.99999999999997
 20
9.999999999999982
  0
LWPOLYLINE
  5
210
100
AcDbEntity
  8
InternalComps
  6
ByLayer
 62
  256
370
   -1
100
AcDbPolyline
 90
    4
 70
    1
 43
0
 10
-13.75
 20
-1.77635683940025e-15
 10
-3.75
 20
-1.77635683940025e-15
 10
-3.75
 20
9.999999999999998
 10
-13.75
 20
9.999999999999998
  0
LWPOLYLINE
  5
211
100
AcDbEntity
  8
InternalComps
  6
ByLayer
 62
  256
370
   -1
100
AcDbPolyline
 90
    4
 70
    1
 43
0
 10
5.000000000000021
 20
30
 10
15.00000000000002
 20
30
 10
15.00000000000002
 20
40
 10
5.000000000000021
 20
40
  0
ENDSEC
  0
SECTION
  2
OBJECTS
  0
DICTIONARY
  5
C
330
0
100
AcDbDictionary
281
    1
  3
ACAD_GROUP
350
D
  0
DICTIONARY
  5
D
330
C
100
AcDbDictionary
281
    1
  0
PLOTSETTINGS
  5
212
100
AcDbPlotSettings
  6
1x1
 40
2.82
 41
2.82
 42
2.82
 43
5.64
  0
ENDSEC
  0
EOF
