<svg xmlns="http://www.w3.org/2000/svg" width="984" height="496" class="svgbob">
  <style>.svgbob line, .svgbob path, .svgbob circle, .svgbob rect, .svgbob polygon {
  stroke: black;
  stroke-width: 2;
  stroke-opacity: 1;
  fill-opacity: 1;
  stroke-linecap: round;
  stroke-linejoin: miter;
}

.svgbob text {
  white-space: pre;
  fill: black;
  font-family: Iosevka Fixed, monospace;
  font-size: 14px;
}

.svgbob rect.backdrop {
  stroke: none;
  fill: white;
}

.svgbob .broken {
  stroke-dasharray: 8;
}

.svgbob .filled {
  fill: black;
}

.svgbob .bg_filled {
  fill: white;
  stroke-width: 1;
}

.svgbob .nofill {
  fill: white;
}

.svgbob .end_marked_arrow {
  marker-end: url(#arrow);
}

.svgbob .start_marked_arrow {
  marker-start: url(#arrow);
}

.svgbob .end_marked_diamond {
  marker-end: url(#diamond);
}

.svgbob .start_marked_diamond {
  marker-start: url(#diamond);
}

.svgbob .end_marked_circle {
  marker-end: url(#circle);
}

.svgbob .start_marked_circle {
  marker-start: url(#circle);
}

.svgbob .end_marked_open_circle {
  marker-end: url(#open_circle);
}

.svgbob .start_marked_open_circle {
  marker-start: url(#open_circle);
}

.svgbob .end_marked_big_open_circle {
  marker-end: url(#big_open_circle);
}

.svgbob .start_marked_big_open_circle {
  marker-start: url(#big_open_circle);
}

</style>
  <defs>
    <marker id="arrow" viewBox="-2 -2 8 8" refX="4" refY="2" markerWidth="7" markerHeight="7" orient="auto-start-reverse">
      <polygon points="0,0 0,4 4,2 0,0"></polygon>
    </marker>
    <marker id="diamond" viewBox="-2 -2 8 8" refX="4" refY="2" markerWidth="7" markerHeight="7" orient="auto-start-reverse">
      <polygon points="0,2 2,0 4,2 2,4 0,2"></polygon>
    </marker>
    <marker id="circle" viewBox="0 0 8 8" refX="4" refY="4" markerWidth="7" markerHeight="7" orient="auto-start-reverse">
      <circle cx="4" cy="4" r="2" class="filled"></circle>
    </marker>
    <marker id="open_circle" viewBox="0 0 8 8" refX="4" refY="4" markerWidth="7" markerHeight="7" orient="auto-start-reverse">
      <circle cx="4" cy="4" r="2" class="bg_filled"></circle>
    </marker>
    <marker id="big_open_circle" viewBox="0 0 8 8" refX="4" refY="4" markerWidth="7" markerHeight="7" orient="auto-start-reverse">
      <circle cx="4" cy="4" r="3" class="bg_filled"></circle>
    </marker>
  </defs>
  <rect class="backdrop" x="0" y="0" width="984" height="496"></rect>
  <text x="290" y="60" >[1.5mmq]</text>
  <text x="290" y="92" >[1.5mmq]</text>
  <text x="290" y="124" >[AWG24]</text>
  <text x="290" y="140" >[AWG24]</text>
  <text x="618" y="60" >[1.5mmq]</text>
  <text x="618" y="76" >[1.5mmq]</text>
  <text x="618" y="124" >[AWG24]</text>
  <text x="618" y="140" >[AWG24]</text>
  <text x="618" y="204" >[AWG24]</text>
  <text x="618" y="220" >[AWG24]</text>
  <text x="618" y="284" >[AWG24]</text>
  <text x="618" y="300" >[AWG24]</text>
  <text x="618" y="348" >[AWG24]</text>
  <text x="618" y="364" >[AWG24]</text>
  <text x="618" y="412" >[AWG24]</text>
  <text x="618" y="428" >[AWG24]</text>
  <text x="10" y="60" >12v</text>
  <line x1="40" y1="56" x2="64" y2="56" class="solid"></line>
  <text x="66" y="60" >[1.5mmq]</text>
  <line x1="688" y1="56" x2="712" y2="56" class="solid"></line>
  <text x="714" y="60" >@</text>
  <line x1="688" y1="72" x2="712" y2="72" class="solid"></line>
  <text x="714" y="76" >@</text>
  <text x="730" y="60" >positive</text>
  <text x="730" y="76" >negative</text>
  <text x="802" y="60" >battery</text>
  <text x="802" y="76" >battery</text>
  <text x="866" y="60" >pin</text>
  <text x="866" y="76" >pin</text>
  <text x="10" y="92" >GND</text>
  <line x1="40" y1="88" x2="64" y2="88" class="solid"></line>
  <text x="66" y="92" >[1.5mmq]</text>
  <text x="178" y="92" >3</text>
  <text x="194" y="92" >ways</text>
  <text x="170" y="108" >connector</text>
  <text x="730" y="124" >2</text>
  <text x="746" y="124" >ways</text>
  <text x="730" y="140" >connector</text>
  <text x="10" y="124" >12v*</text>
  <line x1="48" y1="120" x2="72" y2="120" class="solid"></line>
  <text x="74" y="124" >[1mmq]</text>
  <text x="826" y="124" >Direction</text>
  <text x="906" y="124" >indicator</text>
  <text x="730" y="204" >2</text>
  <text x="746" y="204" >ways</text>
  <text x="730" y="220" >connector</text>
  <text x="290" y="236" >[AWG24]</text>
  <text x="290" y="268" >[AWG24]</text>
  <text x="290" y="300" >[AWG24]</text>
  <text x="290" y="332" >[AWG24]</text>
  <text x="290" y="364" >[AWG24]</text>
  <text x="290" y="396" >[AWG24]</text>
  <text x="826" y="204" >Direction</text>
  <text x="906" y="204" >indicator</text>
  <text x="10" y="236" >data1</text>
  <line x1="56" y1="232" x2="72" y2="232" class="solid"></line>
  <text x="74" y="236" >[AWG24]</text>
  <text x="418" y="236" >Rear</text>
  <text x="458" y="236" >power</text>
  <text x="506" y="236" >stage</text>
  <text x="10" y="268" >data2</text>
  <line x1="56" y1="264" x2="72" y2="264" class="solid"></line>
  <text x="74" y="268" >[AWG24]</text>
  <text x="730" y="284" >2</text>
  <text x="746" y="284" >ways</text>
  <text x="730" y="300" >connector</text>
  <text x="826" y="284" >Rear</text>
  <text x="866" y="284" >light</text>
  <path d="M 840,288 A 16,16 0,0,0 840,304" class="nofill"></path>
  <text x="850" y="300" >70mA</text>
  <path d="M 888,288 A 16,16 0,0,1 888,304" class="nofill"></path>
  <text x="10" y="300" >data3</text>
  <line x1="56" y1="296" x2="72" y2="296" class="solid"></line>
  <text x="74" y="300" >[AWG24]</text>
  <text x="186" y="316" >6</text>
  <text x="202" y="316" >ways</text>
  <text x="178" y="332" >connector</text>
  <text x="10" y="332" >data4</text>
  <line x1="56" y1="328" x2="72" y2="328" class="solid"></line>
  <text x="74" y="332" >[AWG24]</text>
  <line x1="680" y1="344" x2="712" y2="344" class="solid"></line>
  <text x="714" y="348" >@</text>
  <line x1="680" y1="360" x2="712" y2="360" class="solid"></line>
  <text x="714" y="364" >@</text>
  <text x="730" y="348" >Engine</text>
  <text x="730" y="364" >Engine</text>
  <text x="786" y="348" >start</text>
  <text x="786" y="364" >start</text>
  <text x="834" y="348" >relay</text>
  <text x="834" y="364" >relay</text>
  <text x="882" y="348" >[pin</text>
  <text x="882" y="364" >[pin</text>
  <text x="922" y="348" >1]</text>
  <text x="922" y="364" >2]</text>
  <text x="10" y="364" >data5</text>
  <line x1="56" y1="360" x2="72" y2="360" class="solid"></line>
  <text x="74" y="364" >[AWG24]</text>
  <text x="10" y="396" >data6</text>
  <line x1="56" y1="392" x2="72" y2="392" class="solid"></line>
  <text x="74" y="396" >[AWG24]</text>
  <text x="730" y="412" >2</text>
  <text x="746" y="412" >ways</text>
  <text x="730" y="428" >connector</text>
  <text x="826" y="412" >Stop</text>
  <text x="866" y="412" >light</text>
  <path d="M 840,416 A 16,16 0,0,0 840,432" class="nofill"></path>
  <text x="850" y="428" >370mA</text>
  <path d="M 896,416 A 16,16 0,0,1 896,432" class="nofill"></path>
  <g>
    <line x1="156" y1="24" x2="252" y2="24" class="solid"></line>
    <line x1="156" y1="24" x2="156" y2="152" class="solid"></line>
    <line x1="252" y1="24" x2="252" y2="152" class="solid"></line>
    <line x1="136" y1="56" x2="156" y2="56" class="solid"></line>
    <line x1="252" y1="56" x2="288" y2="56" class="solid"></line>
    <line x1="136" y1="88" x2="156" y2="88" class="solid"></line>
    <line x1="252" y1="88" x2="288" y2="88" class="solid"></line>
    <line x1="128" y1="120" x2="156" y2="120" class="solid"></line>
    <line x1="252" y1="120" x2="288" y2="120" class="solid"></line>
    <line x1="252" y1="136" x2="288" y2="136" class="solid"></line>
    <line x1="156" y1="152" x2="252" y2="152" class="solid"></line>
  </g>
  <g>
    <line x1="388" y1="24" x2="580" y2="24" class="solid"></line>
    <line x1="388" y1="24" x2="388" y2="472" class="solid"></line>
    <line x1="580" y1="24" x2="580" y2="472" class="solid"></line>
    <line x1="360" y1="56" x2="388" y2="56" class="solid"></line>
    <line x1="580" y1="56" x2="616" y2="56" class="solid"></line>
    <line x1="580" y1="72" x2="616" y2="72" class="solid"></line>
    <line x1="360" y1="88" x2="388" y2="88" class="solid"></line>
    <line x1="352" y1="120" x2="388" y2="120" class="solid"></line>
    <line x1="580" y1="120" x2="616" y2="120" class="solid"></line>
    <line x1="352" y1="136" x2="388" y2="136" class="solid"></line>
    <line x1="580" y1="136" x2="616" y2="136" class="solid"></line>
    <line x1="580" y1="200" x2="616" y2="200" class="solid"></line>
    <line x1="580" y1="216" x2="616" y2="216" class="solid"></line>
    <line x1="352" y1="232" x2="388" y2="232" class="solid"></line>
    <line x1="352" y1="264" x2="388" y2="264" class="solid"></line>
    <line x1="580" y1="280" x2="616" y2="280" class="solid"></line>
    <line x1="352" y1="296" x2="388" y2="296" class="solid"></line>
    <line x1="580" y1="296" x2="616" y2="296" class="solid"></line>
    <line x1="352" y1="328" x2="388" y2="328" class="solid"></line>
    <line x1="580" y1="344" x2="616" y2="344" class="solid"></line>
    <line x1="352" y1="360" x2="388" y2="360" class="solid"></line>
    <line x1="580" y1="360" x2="616" y2="360" class="solid"></line>
    <line x1="352" y1="392" x2="388" y2="392" class="solid"></line>
    <line x1="580" y1="408" x2="616" y2="408" class="solid"></line>
    <line x1="580" y1="424" x2="616" y2="424" class="solid"></line>
    <line x1="388" y1="472" x2="580" y2="472" class="solid"></line>
  </g>
  <g>
    <line x1="716" y1="104" x2="812" y2="104" class="solid"></line>
    <line x1="716" y1="104" x2="716" y2="152" class="solid"></line>
    <line x1="812" y1="104" x2="812" y2="152" class="solid"></line>
    <line x1="680" y1="120" x2="716" y2="120" class="solid"></line>
    <line x1="680" y1="136" x2="716" y2="136" class="solid"></line>
    <line x1="716" y1="152" x2="812" y2="152" class="solid"></line>
  </g>
  <g>
    <line x1="716" y1="184" x2="812" y2="184" class="solid"></line>
    <line x1="716" y1="184" x2="716" y2="232" class="solid"></line>
    <line x1="812" y1="184" x2="812" y2="232" class="solid"></line>
    <line x1="680" y1="200" x2="716" y2="200" class="solid"></line>
    <line x1="680" y1="216" x2="716" y2="216" class="solid"></line>
    <line x1="716" y1="232" x2="812" y2="232" class="solid"></line>
  </g>
  <g>
    <line x1="164" y1="200" x2="260" y2="200" class="solid"></line>
    <line x1="164" y1="200" x2="164" y2="424" class="solid"></line>
    <line x1="260" y1="200" x2="260" y2="424" class="solid"></line>
    <line x1="136" y1="232" x2="164" y2="232" class="solid"></line>
    <line x1="260" y1="232" x2="288" y2="232" class="solid"></line>
    <line x1="136" y1="264" x2="164" y2="264" class="solid"></line>
    <line x1="260" y1="264" x2="288" y2="264" class="solid"></line>
    <line x1="136" y1="296" x2="164" y2="296" class="solid"></line>
    <line x1="260" y1="296" x2="288" y2="296" class="solid"></line>
    <line x1="136" y1="328" x2="164" y2="328" class="solid"></line>
    <line x1="260" y1="328" x2="288" y2="328" class="solid"></line>
    <line x1="136" y1="360" x2="164" y2="360" class="solid"></line>
    <line x1="260" y1="360" x2="288" y2="360" class="solid"></line>
    <line x1="136" y1="392" x2="164" y2="392" class="solid"></line>
    <line x1="260" y1="392" x2="288" y2="392" class="solid"></line>
    <line x1="164" y1="424" x2="260" y2="424" class="solid"></line>
  </g>
  <g>
    <line x1="716" y1="264" x2="812" y2="264" class="solid"></line>
    <line x1="716" y1="264" x2="716" y2="312" class="solid"></line>
    <line x1="812" y1="264" x2="812" y2="312" class="solid"></line>
    <line x1="680" y1="280" x2="716" y2="280" class="solid"></line>
    <line x1="680" y1="296" x2="716" y2="296" class="solid"></line>
    <line x1="716" y1="312" x2="812" y2="312" class="solid"></line>
  </g>
  <g>
    <line x1="716" y1="392" x2="812" y2="392" class="solid"></line>
    <line x1="716" y1="392" x2="716" y2="440" class="solid"></line>
    <line x1="812" y1="392" x2="812" y2="440" class="solid"></line>
    <line x1="680" y1="408" x2="716" y2="408" class="solid"></line>
    <line x1="680" y1="424" x2="716" y2="424" class="solid"></line>
    <line x1="716" y1="440" x2="812" y2="440" class="solid"></line>
  </g>
</svg>
