<svg xmlns="http://www.w3.org/2000/svg" width="1152" height="608" class="svgbob">
  <style>.svgbob line, .svgbob path, .svgbob circle, .svgbob rect, .svgbob polygon {
  stroke: black;
  stroke-width: 2;
  stroke-opacity: 1;
  fill-opacity: 1;
  stroke-linecap: round;
  stroke-linejoin: miter;
}

.svgbob text {
  white-space: pre;
  fill: black;
  font-family: Iosevka Fixed, monospace;
  font-size: 14px;
}

.svgbob rect.backdrop {
  stroke: none;
  fill: white;
}

.svgbob .broken {
  stroke-dasharray: 8;
}

.svgbob .filled {
  fill: black;
}

.svgbob .bg_filled {
  fill: white;
  stroke-width: 1;
}

.svgbob .nofill {
  fill: white;
}

.svgbob .end_marked_arrow {
  marker-end: url(#arrow);
}

.svgbob .start_marked_arrow {
  marker-start: url(#arrow);
}

.svgbob .end_marked_diamond {
  marker-end: url(#diamond);
}

.svgbob .start_marked_diamond {
  marker-start: url(#diamond);
}

.svgbob .end_marked_circle {
  marker-end: url(#circle);
}

.svgbob .start_marked_circle {
  marker-start: url(#circle);
}

.svgbob .end_marked_open_circle {
  marker-end: url(#open_circle);
}

.svgbob .start_marked_open_circle {
  marker-start: url(#open_circle);
}

.svgbob .end_marked_big_open_circle {
  marker-end: url(#big_open_circle);
}

.svgbob .start_marked_big_open_circle {
  marker-start: url(#big_open_circle);
}

</style>
  <defs>
    <marker id="arrow" viewBox="-2 -2 8 8" refX="4" refY="2" markerWidth="7" markerHeight="7" orient="auto-start-reverse">
      <polygon points="0,0 0,4 4,2 0,0"></polygon>
    </marker>
    <marker id="diamond" viewBox="-2 -2 8 8" refX="4" refY="2" markerWidth="7" markerHeight="7" orient="auto-start-reverse">
      <polygon points="0,2 2,0 4,2 2,4 0,2"></polygon>
    </marker>
    <marker id="circle" viewBox="0 0 8 8" refX="4" refY="4" markerWidth="7" markerHeight="7" orient="auto-start-reverse">
      <circle cx="4" cy="4" r="2" class="filled"></circle>
    </marker>
    <marker id="open_circle" viewBox="0 0 8 8" refX="4" refY="4" markerWidth="7" markerHeight="7" orient="auto-start-reverse">
      <circle cx="4" cy="4" r="2" class="bg_filled"></circle>
    </marker>
    <marker id="big_open_circle" viewBox="0 0 8 8" refX="4" refY="4" markerWidth="7" markerHeight="7" orient="auto-start-reverse">
      <circle cx="4" cy="4" r="3" class="bg_filled"></circle>
    </marker>
  </defs>
  <rect class="backdrop" x="0" y="0" width="1152" height="608"></rect>
  <rect x="860" y="104" width="120" height="48" class="solid nofill" rx="0"></rect>
  <text x="874" y="124" >2</text>
  <text x="890" y="124" >ways</text>
  <path d="M 936,112 A 16,16 0,0,0 936,128" class="nofill"></path>
  <text x="946" y="124" >A</text>
  <text x="874" y="140" >connector</text>
  <path d="M 960,112 A 16,16 0,0,1 960,128" class="nofill"></path>
  <rect x="860" y="184" width="120" height="48" class="solid nofill" rx="0"></rect>
  <text x="874" y="204" >2</text>
  <text x="890" y="204" >ways</text>
  <path d="M 936,192 A 16,16 0,0,0 936,208" class="nofill"></path>
  <text x="946" y="204" >A</text>
  <text x="874" y="220" >connector</text>
  <path d="M 960,192 A 16,16 0,0,1 960,208" class="nofill"></path>
  <rect x="860" y="264" width="120" height="48" class="solid nofill" rx="0"></rect>
  <text x="874" y="284" >2</text>
  <text x="890" y="284" >ways</text>
  <path d="M 936,272 A 16,16 0,0,0 936,288" class="nofill"></path>
  <text x="946" y="284" >A</text>
  <text x="874" y="300" >connector</text>
  <path d="M 960,272 A 16,16 0,0,1 960,288" class="nofill"></path>
  <rect x="860" y="392" width="120" height="48" class="solid nofill" rx="0"></rect>
  <text x="874" y="412" >2</text>
  <text x="890" y="412" >ways</text>
  <path d="M 936,400 A 16,16 0,0,0 936,416" class="nofill"></path>
  <text x="946" y="412" >A</text>
  <text x="874" y="428" >connector</text>
  <path d="M 960,400 A 16,16 0,0,1 960,416" class="nofill"></path>
  <text x="354" y="60" >[1.5mmq]</text>
  <text x="354" y="92" >[1.5mmq]</text>
  <line x1="144" y1="120" x2="176" y2="120" class="solid"></line>
  <polygon points="176,116 184,120 176,124" class="filled"></polygon>
  <text x="354" y="124" >[AWG24]</text>
  <text x="354" y="140" >[AWG24]</text>
  <text x="730" y="60" >[1.5mmq]</text>
  <text x="730" y="76" >[1.5mmq]</text>
  <text x="730" y="124" >[AWG24]</text>
  <text x="730" y="140" >[AWG24]</text>
  <text x="730" y="204" >[AWG24]</text>
  <text x="730" y="220" >[AWG24]</text>
  <text x="730" y="284" >[AWG24]</text>
  <text x="730" y="300" >[AWG24]</text>
  <text x="730" y="348" >[AWG24]</text>
  <text x="730" y="364" >[AWG24]</text>
  <text x="730" y="412" >[AWG24]</text>
  <text x="730" y="428" >[AWG24]</text>
  <text x="10" y="60" >12v</text>
  <polygon points="48,52 40,56 48,60" class="filled"></polygon>
  <line x1="48" y1="56" x2="80" y2="56" class="solid"></line>
  <text x="82" y="60" >[1.5mmq]</text>
  <line x1="800" y1="56" x2="840" y2="56" class="solid"></line>
  <polygon points="840,52 848,56 840,60" class="filled"></polygon>
  <text x="850" y="60" >@</text>
  <line x1="800" y1="72" x2="840" y2="72" class="solid"></line>
  <polygon points="840,68 848,72 840,76" class="filled"></polygon>
  <text x="850" y="76" >@</text>
  <text x="866" y="60" >positive</text>
  <text x="866" y="76" >negative</text>
  <text x="938" y="60" >battery</text>
  <text x="938" y="76" >battery</text>
  <text x="1002" y="60" >pin</text>
  <text x="1002" y="76" >pin</text>
  <text x="210" y="76" >3</text>
  <text x="226" y="76" >ways</text>
  <text x="210" y="92" >B</text>
  <text x="226" y="92" >type</text>
  <text x="202" y="108" >connector</text>
  <text x="10" y="92" >GND</text>
  <line x1="40" y1="88" x2="80" y2="88" class="solid"></line>
  <text x="82" y="92" >[1.5mmq]</text>
  <line x1="792" y1="120" x2="848" y2="120" class="solid"></line>
  <polygon points="848,116 856,120 848,124" class="filled"></polygon>
  <line x1="792" y1="136" x2="848" y2="136" class="solid"></line>
  <polygon points="848,132 856,136 848,140" class="filled"></polygon>
  <text x="10" y="124" >12v*</text>
  <line x1="48" y1="120" x2="88" y2="120" class="solid"></line>
  <text x="90" y="124" >[1mmq]</text>
  <text x="994" y="124" >Direction</text>
  <text x="1074" y="124" >indicator</text>
  <line x1="792" y1="200" x2="848" y2="200" class="solid"></line>
  <polygon points="848,196 856,200 848,204" class="filled"></polygon>
  <line x1="792" y1="216" x2="848" y2="216" class="solid"></line>
  <polygon points="848,212 856,216 848,220" class="filled"></polygon>
  <line x1="152" y1="232" x2="184" y2="232" class="solid"></line>
  <polygon points="184,228 192,232 184,236" class="filled"></polygon>
  <text x="338" y="236" >[AWG24]</text>
  <line x1="152" y1="264" x2="184" y2="264" class="solid"></line>
  <polygon points="184,260 192,264 184,268" class="filled"></polygon>
  <text x="338" y="268" >[AWG24]</text>
  <line x1="152" y1="296" x2="184" y2="296" class="solid"></line>
  <polygon points="184,292 192,296 184,300" class="filled"></polygon>
  <text x="338" y="300" >[AWG24]</text>
  <line x1="152" y1="328" x2="184" y2="328" class="solid"></line>
  <polygon points="184,324 192,328 184,332" class="filled"></polygon>
  <text x="338" y="332" >[AWG24]</text>
  <line x1="152" y1="360" x2="184" y2="360" class="solid"></line>
  <polygon points="184,356 192,360 184,364" class="filled"></polygon>
  <text x="338" y="364" >[AWG24]</text>
  <text x="338" y="396" >[AWG24]</text>
  <text x="994" y="204" >Direction</text>
  <text x="1074" y="204" >indicator</text>
  <text x="10" y="236" >data1</text>
  <line x1="56" y1="232" x2="88" y2="232" class="solid"></line>
  <text x="90" y="236" >[AWG24]</text>
  <text x="498" y="236" >Rear</text>
  <text x="538" y="236" >power</text>
  <text x="586" y="236" >stage</text>
  <text x="10" y="268" >data2</text>
  <line x1="56" y1="264" x2="88" y2="264" class="solid"></line>
  <text x="90" y="268" >[AWG24]</text>
  <line x1="792" y1="280" x2="848" y2="280" class="solid"></line>
  <polygon points="848,276 856,280 848,284" class="filled"></polygon>
  <line x1="792" y1="296" x2="848" y2="296" class="solid"></line>
  <polygon points="848,292 856,296 848,300" class="filled"></polygon>
  <text x="994" y="284" >Rear</text>
  <text x="1034" y="284" >light</text>
  <path d="M 1008,288 A 16,16 0,0,0 1008,304" class="nofill"></path>
  <text x="1018" y="300" >70mA</text>
  <path d="M 1056,288 A 16,16 0,0,1 1056,304" class="nofill"></path>
  <text x="10" y="300" >data3</text>
  <line x1="56" y1="296" x2="88" y2="296" class="solid"></line>
  <text x="90" y="300" >[AWG24]</text>
  <text x="218" y="316" >6</text>
  <text x="234" y="316" >ways</text>
  <text x="218" y="332" >A</text>
  <text x="234" y="332" >type</text>
  <text x="210" y="348" >connector</text>
  <text x="10" y="332" >data4</text>
  <line x1="56" y1="328" x2="88" y2="328" class="solid"></line>
  <text x="90" y="332" >[AWG24]</text>
  <line x1="792" y1="344" x2="848" y2="344" class="solid"></line>
  <polygon points="848,340 856,344 848,348" class="filled"></polygon>
  <text x="858" y="348" >@</text>
  <line x1="792" y1="360" x2="848" y2="360" class="solid"></line>
  <polygon points="848,356 856,360 848,364" class="filled"></polygon>
  <text x="858" y="364" >@</text>
  <text x="874" y="348" >Engine</text>
  <text x="874" y="364" >Engine</text>
  <text x="930" y="348" >start</text>
  <text x="930" y="364" >start</text>
  <text x="978" y="348" >relay</text>
  <text x="978" y="364" >relay</text>
  <text x="1026" y="348" >[pin</text>
  <text x="1026" y="364" >[pin</text>
  <text x="1066" y="348" >1]</text>
  <text x="1066" y="364" >2]</text>
  <text x="10" y="364" >data5</text>
  <line x1="56" y1="360" x2="88" y2="360" class="solid"></line>
  <text x="90" y="364" >[AWG24]</text>
  <line x1="792" y1="408" x2="848" y2="408" class="solid"></line>
  <polygon points="848,404 856,408 848,412" class="filled"></polygon>
  <line x1="792" y1="424" x2="848" y2="424" class="solid"></line>
  <polygon points="848,420 856,424 848,428" class="filled"></polygon>
  <text x="994" y="412" >Stop</text>
  <text x="1034" y="412" >light</text>
  <path d="M 1008,416 A 16,16 0,0,0 1008,432" class="nofill"></path>
  <text x="1018" y="428" >370mA</text>
  <path d="M 1064,416 A 16,16 0,0,1 1064,432" class="nofill"></path>
  <text x="10" y="508" >data1</text>
  <text x="10" y="524" >data2</text>
  <text x="10" y="540" >data3</text>
  <text x="10" y="556" >data4</text>
  <text x="10" y="572" >data5</text>
  <text x="10" y="588" >data6</text>
  <line x1="56" y1="502" x2="64" y2="502" class="solid"></line>
  <line x1="56" y1="506" x2="64" y2="506" class="solid"></line>
  <line x1="56" y1="518" x2="64" y2="518" class="solid"></line>
  <line x1="56" y1="522" x2="64" y2="522" class="solid"></line>
  <line x1="56" y1="534" x2="64" y2="534" class="solid"></line>
  <line x1="56" y1="538" x2="64" y2="538" class="solid"></line>
  <line x1="56" y1="550" x2="64" y2="550" class="solid"></line>
  <line x1="56" y1="554" x2="64" y2="554" class="solid"></line>
  <line x1="56" y1="566" x2="64" y2="566" class="solid"></line>
  <line x1="56" y1="570" x2="64" y2="570" class="solid"></line>
  <line x1="56" y1="582" x2="64" y2="582" class="solid"></line>
  <line x1="56" y1="586" x2="64" y2="586" class="solid"></line>
  <text x="74" y="508" >Brake</text>
  <text x="122" y="508" >switch</text>
  <text x="74" y="524" >Start</text>
  <text x="122" y="524" >engine</text>
  <text x="74" y="540" >Turn</text>
  <text x="114" y="540" >left</text>
  <text x="154" y="540" >ind.</text>
  <text x="74" y="556" >Turn</text>
  <text x="114" y="556" >right</text>
  <text x="162" y="556" >ind.</text>
  <text x="74" y="572" >Tear</text>
  <text x="114" y="572" >light</text>
  <text x="74" y="588" >[not</text>
  <text x="114" y="588" >used]</text>
  <text x="282" y="508" >A</text>
  <text x="282" y="524" >B</text>
  <text x="282" y="540" >@</text>
  <line x1="296" y1="504" x2="304" y2="504" class="solid"></line>
  <line x1="296" y1="520" x2="304" y2="520" class="solid"></line>
  <line x1="296" y1="536" x2="304" y2="536" class="solid"></line>
  <text x="314" y="508" >2.88mm</text>
  <path d="M 376,496 A 16,16 0,0,0 376,512" class="nofill"></path>
  <text x="386" y="508" >mod:100</text>
  <path d="M 448,496 A 16,16 0,0,1 448,512" class="nofill"></path>
  <text x="466" y="508" >connectors</text>
  <text x="314" y="524" >Receptacle</text>
  <text x="402" y="524" >Terminal</text>
  <text x="474" y="524" >Housing,</text>
  <text x="546" y="524" >3</text>
  <text x="314" y="540" >Ring</text>
  <text x="354" y="540" >terminal</text>
  <text x="426" y="540" >of</text>
  <text x="450" y="540" >Faston</text>
  <text x="562" y="524" >Position,</text>
  <text x="642" y="524" >6.3</text>
  <text x="674" y="524" >mm</text>
  <g>
    <line x1="188" y1="24" x2="284" y2="24" class="solid"></line>
    <line x1="188" y1="24" x2="188" y2="152" class="solid"></line>
    <line x1="284" y1="24" x2="284" y2="152" class="solid"></line>
    <line x1="152" y1="56" x2="188" y2="56" class="solid"></line>
    <line x1="284" y1="56" x2="352" y2="56" class="solid"></line>
    <line x1="152" y1="88" x2="188" y2="88" class="solid"></line>
    <line x1="284" y1="88" x2="352" y2="88" class="solid"></line>
    <line x1="284" y1="120" x2="352" y2="120" class="solid"></line>
    <line x1="284" y1="136" x2="352" y2="136" class="solid"></line>
    <line x1="188" y1="152" x2="284" y2="152" class="solid"></line>
  </g>
  <g>
    <line x1="468" y1="24" x2="660" y2="24" class="solid"></line>
    <line x1="468" y1="24" x2="468" y2="472" class="solid"></line>
    <line x1="660" y1="24" x2="660" y2="472" class="solid"></line>
    <line x1="424" y1="56" x2="468" y2="56" class="solid"></line>
    <line x1="660" y1="56" x2="728" y2="56" class="solid"></line>
    <line x1="660" y1="72" x2="728" y2="72" class="solid"></line>
    <line x1="424" y1="88" x2="468" y2="88" class="solid"></line>
    <line x1="416" y1="120" x2="468" y2="120" class="solid"></line>
    <line x1="660" y1="120" x2="728" y2="120" class="solid"></line>
    <line x1="416" y1="136" x2="468" y2="136" class="solid"></line>
    <line x1="660" y1="136" x2="728" y2="136" class="solid"></line>
    <line x1="660" y1="200" x2="728" y2="200" class="solid"></line>
    <line x1="660" y1="216" x2="728" y2="216" class="solid"></line>
    <line x1="400" y1="232" x2="468" y2="232" class="solid"></line>
    <line x1="400" y1="264" x2="468" y2="264" class="solid"></line>
    <line x1="660" y1="280" x2="728" y2="280" class="solid"></line>
    <line x1="400" y1="296" x2="468" y2="296" class="solid"></line>
    <line x1="660" y1="296" x2="728" y2="296" class="solid"></line>
    <line x1="400" y1="328" x2="468" y2="328" class="solid"></line>
    <line x1="660" y1="344" x2="728" y2="344" class="solid"></line>
    <line x1="400" y1="360" x2="468" y2="360" class="solid"></line>
    <line x1="660" y1="360" x2="728" y2="360" class="solid"></line>
    <line x1="400" y1="392" x2="468" y2="392" class="solid"></line>
    <line x1="660" y1="408" x2="728" y2="408" class="solid"></line>
    <line x1="660" y1="424" x2="728" y2="424" class="solid"></line>
    <line x1="468" y1="472" x2="660" y2="472" class="solid"></line>
  </g>
  <g>
    <line x1="196" y1="200" x2="292" y2="200" class="solid"></line>
    <line x1="196" y1="200" x2="196" y2="424" class="solid"></line>
    <line x1="292" y1="200" x2="292" y2="424" class="solid"></line>
    <line x1="292" y1="232" x2="336" y2="232" class="solid"></line>
    <line x1="292" y1="264" x2="336" y2="264" class="solid"></line>
    <line x1="292" y1="296" x2="336" y2="296" class="solid"></line>
    <line x1="292" y1="328" x2="336" y2="328" class="solid"></line>
    <line x1="292" y1="360" x2="336" y2="360" class="solid"></line>
    <line x1="172" y1="392" x2="196" y2="392" class="solid"></line>
    <line x1="292" y1="392" x2="336" y2="392" class="solid"></line>
    <line x1="196" y1="424" x2="292" y2="424" class="solid"></line>
  </g>
</svg>
